<?xml version="1.0" encoding="utf-8"?>
<!-- Generator: Adobe Illustrator 21.1.0, SVG Export Plug-In . SVG Version: 6.00 Build 0)  -->
<svg version="1.1" id="conference" xmlns="http://www.w3.org/2000/svg" xmlns:xlink="http://www.w3.org/1999/xlink" x="0px" y="0px"
	 viewBox="0 0 48 48" style="enable-background:new 0 0 48 48;" xml:space="preserve">
<style type="text/css">
	.st0{opacity:0.2;}
	.st1{fill:#EA5F69;}
	.st2{fill:#AF5151;}
</style>
<ellipse class="st0" cx="24" cy="44.8" rx="9.8" ry="3.2"/>
<path class="st1" d="M40.7,17c0-9.4-7.6-17-17-17c-9.4,0-17,7.6-17,17c0,3.9,1.3,7.5,3.6,10.4c3.2,5,11.8,18.3,13.6,18.3
	c2.3,0,14.5-20.2,14.5-20.2C39.8,23,40.7,20.1,40.7,17z"/>
<g>
	<path class="st2" d="M24,25.9c1.1-0.1,2.2-0.1,3.3-0.3c0.7-0.1,1.5-0.3,2.2-0.6c1.1-0.5,1.1-1.9,0.6-2.6c-0.2-0.3-0.6-0.6-0.9-0.9
		c-0.9-0.7-1.9-1.1-3-1.5c-0.1,0-0.2-0.1-0.2-0.1c-0.4-0.4-0.5-1.4-0.1-1.8c0.9-1.1,1.5-2.3,1.6-3.7c0.1-0.8-0.1-1.5-0.5-2.2
		c-1-1.7-3.2-2.1-4.7-1.2c-1.2,0.6-1.7,1.6-1.7,2.9c-0.1,1.6,0.5,2.9,1.5,4.1c0.1,0.1,0.2,0.3,0.3,0.4c0.2,0.8-0.1,1.4-0.9,1.7
		c-1.1,0.4-2.1,0.9-3,1.6c-0.6,0.5-0.9,1-0.9,1.8c0,0.5,0.2,0.9,0.7,1.2c0.5,0.4,1.2,0.5,1.8,0.7C21.4,25.8,22.7,25.8,24,25.9z"/>
	<path class="st2" d="M13.6,17.9c0.2-0.7,0.7-1.1,1.2-1.4c0.7-0.4,1.4-0.8,2.1-1c0.2-0.1,0.3-0.2,0.4-0.4c0.2-0.5,0.2-0.9-0.2-1.4
		c-0.6-0.7-0.9-1.5-1-2.4c-0.1-0.6-0.1-1.3,0.1-1.9c0.4-1.2,1.5-1.9,2.7-1.9c1.4,0.1,2.3,1,2.5,2.3c0,0.1,0,0.2-0.1,0.2
		c-1.2,0.8-1.9,1.9-2.1,3.3c-0.2,1.4,0.1,2.8,0.7,4.1c0.3,0.5,0.6,1,0.9,1.5c0,0,0,0-0.1,0c-0.7,0.4-1.5,0.7-2.2,1.1
		c-0.1,0-0.1,0.1-0.2,0.1c-1.1,0-2.2-0.1-3.3-0.4c-0.3-0.1-0.7-0.3-1-0.4c-0.3-0.2-0.5-0.5-0.6-0.8C13.6,18.4,13.6,18.2,13.6,17.9z"
		/>
	<path class="st2" d="M34.4,18.6c-0.2,0.7-0.7,1-1.3,1.2c-0.6,0.2-1.3,0.3-2,0.4c-0.5,0.1-1,0.1-1.5,0.1c-0.1,0-0.2,0-0.2,0
		c-0.8-0.4-1.6-0.8-2.4-1.2c0.1-0.1,0.1-0.2,0.2-0.3c1-1.3,1.6-2.7,1.6-4.3c0-1.6-0.5-3-1.8-4c-0.1-0.1-0.2-0.1-0.3-0.2
		c-0.3-0.2-0.3-0.2-0.2-0.5c0.2-1.1,1-1.9,1.9-2.1c1.2-0.2,2.3,0.2,2.9,1.1c0.4,0.6,0.5,1.2,0.5,1.9c0,1.2-0.4,2.3-1.2,3.3
		c-0.3,0.3-0.2,1.2,0.1,1.5c0.1,0.1,0.2,0.1,0.2,0.1c0.9,0.3,1.8,0.7,2.5,1.3c0.4,0.3,0.7,0.7,0.8,1.2
		C34.4,18.2,34.4,18.4,34.4,18.6z"/>
	<path class="st2" d="M24,25.9c-1.3-0.1-2.6-0.1-3.9-0.4c-0.6-0.1-1.2-0.3-1.8-0.7c-0.4-0.3-0.7-0.7-0.7-1.2c0-0.8,0.3-1.3,0.9-1.8
		c0.9-0.7,1.9-1.2,3-1.6c0.8-0.3,1.1-0.9,0.9-1.7c0-0.2-0.2-0.3-0.3-0.4c-1-1.2-1.5-2.6-1.5-4.1c0.1-1.3,0.6-2.3,1.7-2.9
		c1.5-0.8,3.8-0.4,4.7,1.2c0.4,0.7,0.5,1.4,0.5,2.2c-0.1,1.4-0.7,2.6-1.6,3.7c-0.4,0.4-0.3,1.4,0.1,1.8c0.1,0.1,0.2,0.1,0.2,0.1
		c1.1,0.4,2.1,0.8,3,1.5c0.3,0.2,0.6,0.5,0.9,0.9c0.5,0.7,0.5,2-0.6,2.6c-0.7,0.3-1.4,0.5-2.2,0.6C26.2,25.8,25.1,25.8,24,25.9z"/>
</g>
</svg>
