<?xml version="1.0" encoding="utf-8"?>
<!-- Generator: Adobe Illustrator 17.0.0, SVG Export Plug-In . SVG Version: 6.00 Build 0)  -->
<!DOCTYPE svg PUBLIC "-//W3C//DTD SVG 1.1//EN" "http://www.w3.org/Graphics/SVG/1.1/DTD/svg11.dtd">
<svg version="1.1" id="cities" xmlns="http://www.w3.org/2000/svg" xmlns:xlink="http://www.w3.org/1999/xlink" x="0px" y="0px"
	 width="128px" height="128px" viewBox="0 0 128 128" enable-background="new 0 0 128 128" xml:space="preserve">
<g>
	<path fill="#1C3557" d="M20.306,112.726c0,3.13-1.927,5.056-5.057,5.056s-5.057-1.926-5.057-5.056v-31.05
		c0-3.13,1.927-4.816,5.057-4.816s5.057,1.686,5.057,4.816V112.726z"/>
	<path fill="#A8D9DB" d="M52.053,112.726c0,3.13-1.927,5.056-5.057,5.056c-3.13,0-5.057-1.926-5.057-5.056V13.714
		c0-3.131,1.927-4.816,5.057-4.816c3.13,0,5.057,1.685,5.057,4.816V112.726z"/>
	<path fill="#F9F9F9" d="M46.996,19.011c-3.13,0-5.057-1.926-5.057-5.056c0-3.131,1.927-5.057,5.057-5.057h33.512
		c3.131,0,4.816,1.926,4.816,5.057c0,3.13-1.685,5.056-4.816,5.056H46.996z"/>
	<path fill="#1C3557" d="M85.565,112.726c0,3.13-1.926,5.056-5.057,5.056c-3.13,0-5.057-1.926-5.057-5.056V13.714
		c0-3.131,1.927-4.816,5.057-4.816c3.131,0,5.057,1.685,5.057,4.816V112.726z"/>
	<path fill="#467C9D" d="M46.996,57.631c-3.13,0-5.057-1.927-5.057-5.057c0-3.131,1.927-5.057,5.057-5.057h67.265
		c3.13,0,4.816,1.926,4.816,5.057c0,3.13-1.686,5.057-4.816,5.057H46.996z"/>
	<path fill="#EA5F69" d="M15.249,86.973c-3.13,0-5.057-1.926-5.057-5.057c0-3.13,1.927-5.057,5.057-5.057h99.012
		c3.13,0,4.816,1.927,4.816,5.057c0,3.131-1.686,5.057-4.816,5.057H15.249z"/>
	<path fill="#A8D9DB" d="M119.077,112.726c0,3.13-1.927,5.056-5.057,5.056c-3.13,0-5.057-1.926-5.057-5.056V52.333
		c0-3.131,1.927-4.816,5.057-4.816c3.13,0,5.057,1.685,5.057,4.816V112.726z"/>
	<path fill="#E53946" d="M15.249,117.782c-3.13,0-5.057-1.926-5.057-5.056c0-3.131,1.927-5.057,5.057-5.057h99.012
		c3.13,0,4.816,1.926,4.816,5.057c0,3.13-1.686,5.056-4.816,5.056H15.249z"/>
</g>
</svg>
