<?xml version="1.0" encoding="utf-8"?>
<!-- Generator: Adobe Illustrator 17.0.0, SVG Export Plug-In . SVG Version: 6.00 Build 0)  -->
<!DOCTYPE svg PUBLIC "-//W3C//DTD SVG 1.1//EN" "http://www.w3.org/Graphics/SVG/1.1/DTD/svg11.dtd">
<svg version="1.1" id="cities" xmlns="http://www.w3.org/2000/svg" xmlns:xlink="http://www.w3.org/1999/xlink" x="0px" y="0px"
	 width="128px" height="128px" viewBox="0 0 128 128" enable-background="new 0 0 128 128" xml:space="preserve">
<g>
	<path fill="#1C3557" d="M14.468,119.311c0,3.519-2.166,5.684-5.684,5.684S3.1,122.829,3.1,119.311V84.408
		c0-3.519,2.166-5.413,5.684-5.413s5.684,1.895,5.684,5.413V119.311z"/>
	<path fill="#A8D8DA" d="M50.154,119.311c0,3.519-2.166,5.684-5.684,5.684s-5.684-2.165-5.684-5.684V8.015
		c0-3.519,2.166-5.413,5.684-5.413s5.684,1.894,5.684,5.413V119.311z"/>
	<path fill="#E53947" d="M44.47,13.969c-3.519,0-5.684-2.165-5.684-5.684c0-3.519,2.166-5.684,5.684-5.684h37.669
		c3.519,0,5.413,2.165,5.413,5.684c0,3.519-1.894,5.684-5.413,5.684H44.47z"/>
	<path fill="#1C3557" d="M87.823,119.311c0,3.519-2.165,5.684-5.684,5.684c-3.519,0-5.684-2.165-5.684-5.684V8.015
		c0-3.519,2.166-5.413,5.684-5.413c3.519,0,5.684,1.894,5.684,5.413V119.311z"/>
	<path fill="#E95F69" d="M44.47,57.38c-3.519,0-5.684-2.166-5.684-5.684c0-3.519,2.166-5.684,5.684-5.684h75.61
		c3.519,0,5.413,2.165,5.413,5.684c0,3.519-1.895,5.684-5.413,5.684H44.47z"/>
	<path fill="#487C9C" d="M8.784,90.363c-3.519,0-5.684-2.165-5.684-5.684c0-3.519,2.166-5.684,5.684-5.684H120.08
		c3.519,0,5.413,2.166,5.413,5.684c0,3.519-1.895,5.684-5.413,5.684H8.784z"/>
	<path fill="#A8D8DA" d="M125.493,119.311c0,3.519-2.166,5.684-5.684,5.684s-5.684-2.165-5.684-5.684V51.426
		c0-3.519,2.166-5.413,5.684-5.413s5.684,1.894,5.684,5.413V119.311z"/>
	<path fill="#DAE4D6" d="M8.784,124.994c-3.519,0-5.684-2.165-5.684-5.684c0-3.519,2.166-5.684,5.684-5.684H120.08
		c3.519,0,5.413,2.165,5.413,5.684c0,3.519-1.895,5.684-5.413,5.684H8.784z"/>
</g>
</svg>
