<?xml version="1.0" encoding="utf-8"?>
<!-- Generator: Adobe Illustrator 17.0.0, SVG Export Plug-In . SVG Version: 6.00 Build 0)  -->
<!DOCTYPE svg PUBLIC "-//W3C//DTD SVG 1.1//EN" "http://www.w3.org/Graphics/SVG/1.1/DTD/svg11.dtd">
<svg version="1.1" id="Layer_4" xmlns="http://www.w3.org/2000/svg" xmlns:xlink="http://www.w3.org/1999/xlink" x="0px" y="0px"
	 width="327.073px" height="327.073px" viewBox="0 0 327.073 327.073" enable-background="new 0 0 327.073 327.073"
	 xml:space="preserve">
<circle fill="none" stroke="#FFFFFF" stroke-width="10.0072" stroke-miterlimit="10" cx="163.536" cy="163.536" r="158.533"/>
<g>
	<path fill="#F9F9F9" d="M115.64,216.898c0,3.382-2.082,5.463-5.464,5.463c-3.382,0-5.464-2.081-5.464-5.463v-33.55
		c0-3.382,2.082-5.204,5.464-5.204c3.382,0,5.464,1.821,5.464,5.204V216.898z"/>
	<path fill="#EA5F69" d="M149.943,216.898c0,3.382-2.082,5.463-5.464,5.463c-3.382,0-5.464-2.081-5.464-5.463V109.916
		c0-3.383,2.082-5.204,5.464-5.204c3.382,0,5.464,1.821,5.464,5.204V216.898z"/>
	<path fill="#E53946" d="M144.479,115.64c-3.382,0-5.464-2.081-5.464-5.463c0-3.383,2.082-5.464,5.464-5.464h36.209
		c3.383,0,5.204,2.081,5.204,5.464c0,3.382-1.821,5.463-5.204,5.463H144.479z"/>
	<path fill="#F9F9F9" d="M186.152,216.898c0,3.382-2.081,5.463-5.464,5.463c-3.382,0-5.464-2.081-5.464-5.463V109.916
		c0-3.383,2.082-5.204,5.464-5.204c3.383,0,5.464,1.821,5.464,5.204V216.898z"/>
	<path fill="#467C9D" d="M144.479,157.368c-3.382,0-5.464-2.082-5.464-5.464c0-3.383,2.082-5.464,5.464-5.464h72.679
		c3.382,0,5.204,2.081,5.204,5.464c0,3.382-1.821,5.464-5.204,5.464H144.479z"/>
	<path fill="#DBE5D8" d="M110.176,189.072c-3.382,0-5.464-2.081-5.464-5.464c0-3.382,2.082-5.464,5.464-5.464h106.981
		c3.382,0,5.204,2.082,5.204,5.464c0,3.383-1.821,5.464-5.204,5.464H110.176z"/>
	<path fill="#EA5F69" d="M222.361,216.898c0,3.382-2.082,5.463-5.464,5.463s-5.464-2.081-5.464-5.463v-65.254
		c0-3.383,2.082-5.204,5.464-5.204s5.464,1.821,5.464,5.204V216.898z"/>
	<path fill="#A8D9DB" d="M110.176,222.361c-3.382,0-5.464-2.081-5.464-5.463c0-3.383,2.082-5.464,5.464-5.464h106.981
		c3.382,0,5.204,2.081,5.204,5.464c0,3.382-1.821,5.463-5.204,5.463H110.176z"/>
</g>
</svg>
