<?xml version="1.0" encoding="utf-8"?>
<!-- Generator: Adobe Illustrator 17.0.0, SVG Export Plug-In . SVG Version: 6.00 Build 0)  -->
<!DOCTYPE svg PUBLIC "-//W3C//DTD SVG 1.1//EN" "http://www.w3.org/Graphics/SVG/1.1/DTD/svg11.dtd">
<svg version="1.1" id="cities" xmlns="http://www.w3.org/2000/svg" xmlns:xlink="http://www.w3.org/1999/xlink" x="0px" y="0px"
	 width="128px" height="128px" viewBox="0 0 128 128" enable-background="new 0 0 128 128" xml:space="preserve">
<g>
	<path fill="#DAE4D6" d="M10.15,72.912c0-4.232,3.456-7.829,7.759-7.829c4.232,0,7.829,3.597,7.829,7.829
		c0,4.232-3.597,7.829-7.829,7.829C13.605,80.742,10.15,77.144,10.15,72.912z"/>
	<path fill="#E95F69" d="M34.056,107.797c0-4.232,3.456-7.829,7.759-7.829c4.232,0,7.829,3.597,7.829,7.829
		s-3.597,7.829-7.829,7.829C37.512,115.626,34.056,112.029,34.056,107.797z"/>
	<path fill="#A8D8DA" d="M65.699,12.671c0-4.232,3.456-7.829,7.758-7.829c4.232,0,7.829,3.597,7.829,7.829
		c0,4.232-3.597,7.829-7.829,7.829C69.155,20.501,65.699,16.903,65.699,12.671z"/>
	<path fill="#487C9C" d="M83.102,72.912c0-4.232,3.456-7.829,7.759-7.829c4.232,0,7.829,3.597,7.829,7.829
		c0,4.232-3.597,7.829-7.829,7.829C86.558,80.742,83.102,77.144,83.102,72.912z"/>
	<path fill="#1C3557" d="M102.56,40.972c0-4.232,3.456-7.829,7.759-7.829c4.232,0,7.829,3.597,7.829,7.829s-3.597,7.829-7.829,7.829
		C106.016,48.801,102.56,45.204,102.56,40.972z"/>
	<path fill="#E53947" d="M102.56,115.626c0-4.232,3.456-7.829,7.759-7.829c4.232,0,7.829,3.597,7.829,7.829
		c0,4.232-3.597,7.829-7.829,7.829C106.016,123.455,102.56,119.858,102.56,115.626z"/>
</g>
</svg>
