<?xml version="1.0" encoding="utf-8"?>
<!-- Generator: Adobe Illustrator 17.0.0, SVG Export Plug-In . SVG Version: 6.00 Build 0)  -->
<!DOCTYPE svg PUBLIC "-//W3C//DTD SVG 1.1//EN" "http://www.w3.org/Graphics/SVG/1.1/DTD/svg11.dtd">
<svg version="1.1" id="decentralization" xmlns="http://www.w3.org/2000/svg" xmlns:xlink="http://www.w3.org/1999/xlink" x="0px"
	 y="0px" width="327.073px" height="327.073px" viewBox="0 0 327.073 327.073" enable-background="new 0 0 327.073 327.073"
	 xml:space="preserve">
<circle fill="none" stroke="#FFFFFF" stroke-width="10.0072" stroke-miterlimit="10" cx="163.536" cy="163.536" r="158.533"/>
<g>
	<path fill="#1C3557" d="M111.395,171.999c0-4.086,3.337-7.56,7.492-7.56c4.086,0,7.56,3.474,7.56,7.56
		c0,4.086-3.473,7.56-7.56,7.56C114.732,179.559,111.395,176.085,111.395,171.999z"/>
	<path fill="#EA5F69" d="M134.479,205.682c0-4.086,3.337-7.56,7.492-7.56c4.086,0,7.56,3.473,7.56,7.56
		c0,4.087-3.473,7.56-7.56,7.56C137.816,213.243,134.479,209.77,134.479,205.682z"/>
	<path fill="#A8D9DB" d="M165.033,113.83c0-4.086,3.337-7.56,7.491-7.56c4.086,0,7.56,3.474,7.56,7.56s-3.474,7.56-7.56,7.56
		C168.37,121.39,165.033,117.916,165.033,113.83z"/>
	<path fill="#467C9D" d="M181.837,171.999c0-4.086,3.337-7.56,7.492-7.56c4.086,0,7.56,3.474,7.56,7.56
		c0,4.086-3.473,7.56-7.56,7.56C185.174,179.559,181.837,176.085,181.837,171.999z"/>
	<path fill="#1C3557" d="M200.626,141.158c0-4.086,3.337-7.56,7.492-7.56c4.086,0,7.56,3.474,7.56,7.56s-3.473,7.56-7.56,7.56
		C203.963,148.716,200.626,145.243,200.626,141.158z"/>
	<path fill="#E53946" d="M200.626,213.243c0-4.086,3.337-7.56,7.492-7.56c4.086,0,7.56,3.474,7.56,7.56s-3.473,7.56-7.56,7.56
		C203.963,220.803,200.626,217.329,200.626,213.243z"/>
</g>
</svg>
