<?xml version="1.0" encoding="utf-8"?>
<!-- Generator: Adobe Illustrator 17.0.0, SVG Export Plug-In . SVG Version: 6.00 Build 0)  -->
<!DOCTYPE svg PUBLIC "-//W3C//DTD SVG 1.1//EN" "http://www.w3.org/Graphics/SVG/1.1/DTD/svg11.dtd">
<svg version="1.1" id="education" xmlns="http://www.w3.org/2000/svg" xmlns:xlink="http://www.w3.org/1999/xlink" x="0px" y="0px"
	 width="128px" height="128px" viewBox="0 0 128 128" enable-background="new 0 0 128 128" xml:space="preserve">
<g>
	<g>
		<path fill="#F9F9F9" d="M80.062,13.066l36.435,59.05c1.642,2.661,1.015,5.308-1.646,6.95c-2.661,1.642-5.308,1.015-6.95-1.646
			L71.466,18.37c-1.642-2.661-0.888-5.104,1.772-6.745C75.899,9.983,78.421,10.406,80.062,13.066z"/>
		<path fill="#1C3557" d="M79.322,13.066c1.642,2.661,1.219,5.182-1.441,6.824l-59.05,36.435c-2.661,1.642-5.308,1.015-6.95-1.646
			s-1.015-5.308,1.646-6.95l59.05-36.435C75.238,9.652,77.681,10.405,79.322,13.066z"/>
		<path fill="#E53946" d="M47.917,115.412l-36.435-59.05c-1.642-2.661-1.015-5.308,1.646-6.95c2.661-1.642,5.308-1.015,6.95,1.646
			l36.435,59.05c1.642,2.661,0.888,5.104-1.772,6.745S49.559,118.072,47.917,115.412z"/>
		<path fill="#A8D9DB" d="M48.657,115.412c-1.642-2.661-1.219-5.182,1.441-6.824l59.05-36.435c2.661-1.642,5.308-1.015,6.95,1.646
			c1.642,2.661,1.015,5.308-1.646,6.95l-59.05,36.435C52.742,118.826,50.299,118.073,48.657,115.412z"/>
	</g>
	<path fill="#DBE5D8" d="M93.005,72.37v40.058c0,3.126-1.924,5.05-5.05,5.05c-3.126,0-5.05-1.924-5.05-5.05V72.37
		c0-3.126,1.924-4.81,5.05-4.81C91.081,67.56,93.005,69.244,93.005,72.37z"/>
</g>
</svg>
