<?xml version="1.0" encoding="utf-8"?>
<!-- Generator: Adobe Illustrator 17.0.0, SVG Export Plug-In . SVG Version: 6.00 Build 0)  -->
<!DOCTYPE svg PUBLIC "-//W3C//DTD SVG 1.1//EN" "http://www.w3.org/Graphics/SVG/1.1/DTD/svg11.dtd">
<svg version="1.1" id="cities" xmlns="http://www.w3.org/2000/svg" xmlns:xlink="http://www.w3.org/1999/xlink" x="0px" y="0px"
	 width="128px" height="128px" viewBox="0 0 128 128" enable-background="new 0 0 128 128" xml:space="preserve">
<g>
	<g>
		<path fill="#1C3557" d="M82.066,7.102l40.617,65.828c1.83,2.966,1.131,5.918-1.835,7.748c-2.966,1.83-5.918,1.131-7.748-1.835
			L72.484,13.014c-1.83-2.966-0.99-5.689,1.976-7.519C77.425,3.665,80.236,4.136,82.066,7.102z"/>
		<path fill="#E53947" d="M81.242,7.101c1.83,2.966,1.359,5.777-1.607,7.607L13.807,55.325c-2.966,1.83-5.918,1.131-7.748-1.835
			c-1.83-2.966-1.131-5.918,1.835-7.748L73.722,5.125C76.688,3.295,79.411,4.135,81.242,7.101z"/>
		<path fill="#DAE4D6" d="M46.231,121.196L5.614,55.368c-1.83-2.966-1.131-5.918,1.835-7.748s5.918-1.131,7.748,1.835l40.617,65.828
			c1.83,2.966,0.99,5.689-1.976,7.519C50.872,124.633,48.061,124.162,46.231,121.196z"/>
		<path fill="#487C9C" d="M47.056,121.196c-1.83-2.966-1.359-5.777,1.607-7.607l65.828-40.617c2.966-1.83,5.918-1.131,7.748,1.835
			s1.131,5.918-1.835,7.748l-65.828,40.617C51.609,125.002,48.886,124.163,47.056,121.196z"/>
	</g>
	<path fill="#A8D8DA" d="M96.494,73.213v44.657c0,3.485-2.145,5.63-5.63,5.63c-3.485,0-5.63-2.145-5.63-5.63V73.213
		c0-3.485,2.145-5.362,5.63-5.362C94.349,67.851,96.494,69.728,96.494,73.213z"/>
</g>
</svg>
