<?xml version="1.0" encoding="utf-8"?>
<!-- Generator: Adobe Illustrator 17.0.0, SVG Export Plug-In . SVG Version: 6.00 Build 0)  -->
<!DOCTYPE svg PUBLIC "-//W3C//DTD SVG 1.1//EN" "http://www.w3.org/Graphics/SVG/1.1/DTD/svg11.dtd">
<svg version="1.1" id="cities" xmlns="http://www.w3.org/2000/svg" xmlns:xlink="http://www.w3.org/1999/xlink" x="0px" y="0px"
	 width="128px" height="128px" viewBox="0 0 128 128" enable-background="new 0 0 128 128" xml:space="preserve">
<g>
	<path fill="#A8D8DA" d="M64.077,80.058c-8.743,0-15.766-7.31-15.766-15.909S55.334,48.24,64.077,48.24
		c8.599,0,15.909,7.31,15.909,15.909S72.677,80.058,64.077,80.058z"/>
	<path fill="#487C9C" d="M69.781,9.598v17.294c0,3.486-2.146,5.632-5.632,5.632s-5.632-2.146-5.632-5.632V9.598
		c0-3.486,2.146-5.364,5.632-5.364S69.781,6.112,69.781,9.598z"/>
	<path fill="#1C3557" d="M106.704,29.558L94.476,41.787c-2.465,2.465-5.5,2.465-7.965,0c-2.465-2.465-2.465-5.5,0-7.965
		l12.229-12.229c2.465-2.465,5.31-2.276,7.775,0.19C108.98,24.248,109.169,27.093,106.704,29.558z"/>
	<path fill="#E95F69" d="M118.699,69.781h-17.294c-3.486,0-5.632-2.146-5.632-5.632c0-3.486,2.146-5.632,5.632-5.632h17.294
		c3.486,0,5.364,2.146,5.364,5.632C124.063,67.635,122.186,69.781,118.699,69.781z"/>
	<path fill="#E53947" d="M98.739,106.704L86.511,94.476c-2.465-2.465-2.465-5.5,0-7.965c2.465-2.465,5.5-2.465,7.965,0
		l12.229,12.229c2.465,2.465,2.276,5.31-0.19,7.775C104.049,108.98,101.205,109.169,98.739,106.704z"/>
	<path fill="#487C9C" d="M58.517,118.699v-17.294c0-3.486,2.146-5.632,5.632-5.632s5.632,2.146,5.632,5.632v17.294
		c0,3.486-2.146,5.364-5.632,5.364S58.517,122.186,58.517,118.699z"/>
	<path fill="#1C3557" d="M21.593,98.739l12.229-12.229c2.465-2.465,5.5-2.465,7.965,0c2.465,2.465,2.465,5.5,0,7.965l-12.229,12.229
		c-2.465,2.465-5.31,2.276-7.775-0.19S19.128,101.205,21.593,98.739z"/>
	<path fill="#E95F69" d="M9.598,58.517h17.294c3.486,0,5.632,2.146,5.632,5.632c0,3.486-2.146,5.632-5.632,5.632H9.598
		c-3.486,0-5.364-2.146-5.364-5.632C4.235,60.662,6.112,58.517,9.598,58.517z"/>
	<path fill="#DAE4D6" d="M29.558,21.593l12.229,12.229c2.465,2.465,2.465,5.5,0,7.965c-2.465,2.465-5.5,2.465-7.965,0L21.593,29.558
		c-2.465-2.465-2.276-5.31,0.19-7.775S27.093,19.128,29.558,21.593z"/>
</g>
</svg>
