<?xml version="1.0" encoding="utf-8"?>
<!-- Generator: Adobe Illustrator 17.0.0, SVG Export Plug-In . SVG Version: 6.00 Build 0)  -->
<!DOCTYPE svg PUBLIC "-//W3C//DTD SVG 1.1//EN" "http://www.w3.org/Graphics/SVG/1.1/DTD/svg11.dtd">
<svg version="1.1" id="energy" xmlns="http://www.w3.org/2000/svg" xmlns:xlink="http://www.w3.org/1999/xlink" x="0px" y="0px"
	 width="128px" height="128px" viewBox="0 0 128 128" enable-background="new 0 0 128 128" xml:space="preserve">
<g>
	<path fill="#EA5F69" d="M63.602,78.217c-7.877,0-14.204-6.586-14.204-14.333S55.725,49.55,63.602,49.55
		c7.748,0,14.333,6.586,14.333,14.333S71.35,78.217,63.602,78.217z"/>
	<path fill="#DBE5D8" d="M68.741,14.736v15.581c0,3.141-1.933,5.074-5.074,5.074s-5.074-1.933-5.074-5.074V14.736
		c0-3.141,1.933-4.833,5.074-4.833S68.741,11.595,68.741,14.736z"/>
	<path fill="#F9F9F9" d="M102.007,32.719L90.99,43.736c-2.221,2.221-4.955,2.221-7.176,0s-2.221-4.955,0-7.176l11.017-11.017
		c2.221-2.221,4.784-2.05,7.005,0.171C104.058,27.935,104.228,30.498,102.007,32.719z"/>
	<path fill="#467C9D" d="M112.814,68.958H97.233c-3.141,0-5.074-1.933-5.074-5.074s1.933-5.074,5.074-5.074h15.581
		c3.141,0,4.833,1.933,4.833,5.074S115.955,68.958,112.814,68.958z"/>
	<path fill="#E53946" d="M94.831,102.224L83.814,91.207c-2.221-2.221-2.221-4.955,0-7.176s4.955-2.221,7.176,0l11.017,11.017
		c2.221,2.221,2.05,4.784-0.171,7.005C99.615,104.274,97.052,104.445,94.831,102.224z"/>
	<path fill="#DBE5D8" d="M58.592,113.031V97.45c0-3.141,1.933-5.074,5.074-5.074c3.141,0,5.074,1.933,5.074,5.074v15.581
		c0,3.141-1.933,4.833-5.074,4.833S58.592,116.172,58.592,113.031z"/>
	<path fill="#F9F9F9" d="M25.326,95.048l11.017-11.017c2.221-2.221,4.955-2.221,7.176,0s2.221,4.955,0,7.176l-11.017,11.017
		c-2.221,2.221-4.784,2.05-7.005-0.171S23.105,97.269,25.326,95.048z"/>
	<path fill="#467C9D" d="M14.519,58.809H30.1c3.141,0,5.074,1.933,5.074,5.074s-1.933,5.074-5.074,5.074H14.519
		c-3.141,0-4.833-1.933-4.833-5.074S11.378,58.809,14.519,58.809z"/>
	<path fill="#A8D9DB" d="M32.502,25.543L43.52,36.56c2.221,2.221,2.221,4.955,0,7.176s-4.955,2.221-7.176,0L25.326,32.719
		c-2.221-2.221-2.05-4.784,0.171-7.005S30.281,23.322,32.502,25.543z"/>
</g>
</svg>
