<?xml version="1.0" encoding="utf-8"?>
<!-- Generator: Adobe Illustrator 17.0.0, SVG Export Plug-In . SVG Version: 6.00 Build 0)  -->
<!DOCTYPE svg PUBLIC "-//W3C//DTD SVG 1.1//EN" "http://www.w3.org/Graphics/SVG/1.1/DTD/svg11.dtd">
<svg version="1.1" id="Layer_1" xmlns="http://www.w3.org/2000/svg" xmlns:xlink="http://www.w3.org/1999/xlink" x="0px" y="0px"
	 width="159.216px" height="112.903px" viewBox="0 0 159.216 112.903" enable-background="new 0 0 159.216 112.903"
	 xml:space="preserve">
<g>
	<path fill="#F9F9F9" d="M14.788,105.509c0,4.577-2.817,7.394-7.394,7.394S0,110.086,0,105.509V7.042C0,2.464,2.817,0,7.394,0
		s7.394,2.464,7.394,7.042V105.509z"/>
	<path fill="#F9F9F9" d="M7.394,112.903c-4.577,0-7.394-2.816-7.394-7.394c0-4.578,2.817-7.394,7.394-7.394h144.78
		c4.577,0,7.042,2.816,7.042,7.394c0,4.577-2.465,7.394-7.042,7.394H7.394z"/>
	<path fill="#F9F9F9" d="M7.394,14.788C2.817,14.788,0,11.971,0,7.394C0,2.816,2.817,0,7.394,0h144.78
		c4.577,0,7.042,2.816,7.042,7.394c0,4.577-2.465,7.394-7.042,7.394H7.394z"/>
	<path fill="#F9F9F9" d="M159.216,105.509c0,4.577-2.817,7.394-7.394,7.394s-7.394-2.816-7.394-7.394V7.042
		c0-4.578,2.817-7.042,7.394-7.042s7.394,2.464,7.394,7.042V105.509z"/>
	<path fill="#F9F9F9" d="M3.901,13.345C0.375,10.426,0.002,6.46,2.92,2.934c2.919-3.526,6.885-3.9,10.411-0.981l71.536,47.872
		c3.526,2.919,3.629,6.66,0.71,10.186c-2.919,3.526-6.614,4.124-10.14,1.206L3.901,13.345z"/>
	<path fill="#F9F9F9" d="M156.282,13.345c3.526-2.919,3.9-6.885,0.981-10.411c-2.919-3.526-6.885-3.9-10.411-0.981L75.316,49.825
		c-3.526,2.919-3.629,6.66-0.71,10.186c2.919,3.526,6.614,4.124,10.14,1.206L156.282,13.345z"/>
</g>
</svg>
