<?xml version="1.0" encoding="utf-8"?>
<!-- Generator: Adobe Illustrator 17.0.0, SVG Export Plug-In . SVG Version: 6.00 Build 0)  -->
<!DOCTYPE svg PUBLIC "-//W3C//DTD SVG 1.1//EN" "http://www.w3.org/Graphics/SVG/1.1/DTD/svg11.dtd">
<svg version="1.1" id="housing" xmlns="http://www.w3.org/2000/svg" xmlns:xlink="http://www.w3.org/1999/xlink" x="0px" y="0px"
	 width="128px" height="128px" viewBox="0 0 128 128" enable-background="new 0 0 128 128" xml:space="preserve">
<g>
	<path fill="#DBE5D8" d="M64.8,85.185c-6.827,0-12.31-5.707-12.31-12.422c0-6.715,5.484-12.422,12.31-12.422
		c6.715,0,12.422,5.707,12.422,12.422C77.222,79.478,71.515,85.185,64.8,85.185z"/>
	<path fill="#A8D9DB" d="M15.539,110.35H114.4c3.126,0,5.049,1.923,5.049,5.049c0,3.126-1.923,5.049-5.049,5.049H15.539
		c-3.126,0-4.809-1.923-4.809-5.049C10.73,112.273,12.413,110.35,15.539,110.35z"/>
	<path fill="#F9F9F9" d="M66.966,9.605l49.051,49.051c2.21,2.21,2.21,4.93,0,7.14c-2.21,2.21-4.93,2.21-7.14,0L59.826,16.745
		c-2.21-2.21-2.04-4.76,0.17-6.97S64.756,7.394,66.966,9.605z"/>
	<path fill="#1C3557" d="M66.247,9.775c2.21,2.21,2.38,4.76,0.17,6.97L17.366,65.796c-2.21,2.21-4.93,2.21-7.14,0
		c-2.21-2.21-2.21-4.93,0-7.14L59.276,9.605C61.486,7.394,64.036,7.564,66.247,9.775z"/>
</g>
</svg>
