<?xml version="1.0" encoding="utf-8"?>
<!-- Generator: Adobe Illustrator 17.0.0, SVG Export Plug-In . SVG Version: 6.00 Build 0)  -->
<!DOCTYPE svg PUBLIC "-//W3C//DTD SVG 1.1//EN" "http://www.w3.org/Graphics/SVG/1.1/DTD/svg11.dtd">
<svg version="1.1" id="cities" xmlns="http://www.w3.org/2000/svg" xmlns:xlink="http://www.w3.org/1999/xlink" x="0px" y="0px"
	 width="128px" height="128px" viewBox="0 0 128 128" enable-background="new 0 0 128 128" xml:space="preserve">
<g>
	<path fill="#A8D9DB" d="M64.835,86.101c-7.203,0-12.989-6.022-12.989-13.107c0-7.085,5.786-13.107,12.989-13.107
		c7.085,0,13.107,6.022,13.107,13.107C77.942,80.079,71.92,86.101,64.835,86.101z"/>
	<path fill="#467C9D" d="M12.859,112.652h104.309c3.298,0,5.327,2.029,5.327,5.327c0,3.298-2.029,5.327-5.327,5.327H12.859
		c-3.298,0-5.074-2.029-5.074-5.327C7.786,114.681,9.562,112.652,12.859,112.652z"/>
	<path fill="#1C3557" d="M67.121,6.355l51.754,51.754c2.332,2.332,2.332,5.202,0,7.534s-5.202,2.332-7.534,0L59.587,13.889
		c-2.332-2.332-2.153-5.023,0.179-7.354C62.098,4.203,64.789,4.023,67.121,6.355z"/>
	<path fill="#E53946" d="M66.362,6.535c2.332,2.332,2.511,5.023,0.179,7.354L14.787,65.643c-2.332,2.332-5.202,2.332-7.534,0
		s-2.332-5.202,0-7.534L59.007,6.355C61.339,4.023,64.03,4.203,66.362,6.535z"/>
</g>
</svg>
