<?xml version="1.0" encoding="utf-8"?>
<!-- Generator: Adobe Illustrator 17.0.0, SVG Export Plug-In . SVG Version: 6.00 Build 0)  -->
<!DOCTYPE svg PUBLIC "-//W3C//DTD SVG 1.1//EN" "http://www.w3.org/Graphics/SVG/1.1/DTD/svg11.dtd">
<svg version="1.1" id="Layer_2" xmlns="http://www.w3.org/2000/svg" xmlns:xlink="http://www.w3.org/1999/xlink" x="0px" y="0px"
	 width="327.073px" height="327.073px" viewBox="0 0 327.073 327.073" enable-background="new 0 0 327.073 327.073"
	 xml:space="preserve">
<g>
	<circle fill="none" stroke="#FFFFFF" stroke-width="10.0072" stroke-miterlimit="10" cx="163.536" cy="163.536" r="158.533"/>
	<g>
		<path fill="#EA5F69" d="M102.452,210.055l49.952-49.951c2.805-2.805,6.257-2.805,9.061,0c2.805,2.805,2.805,6.257,0,9.062
			l-49.952,49.95c-2.805,2.805-6.041,2.589-8.846-0.216C99.863,216.096,99.647,212.861,102.452,210.055z"/>
		<path fill="#DAE4D6" d="M161.465,157.908c2.805,2.805,2.805,6.257,0,9.062c-2.804,2.805-6.257,2.805-9.061,0l-49.952-49.952
			c-2.805-2.805-2.589-6.041,0.216-8.846c2.805-2.805,6.041-3.021,8.846-0.216L161.465,157.908z"/>
		<path fill="#1C3557" d="M224.516,157.908c2.805,2.805,2.805,6.257,0,9.062s-6.257,2.805-9.062,0l-49.951-49.951
			c-2.805-2.805-2.589-6.041,0.216-8.846c2.805-2.805,6.041-3.021,8.846-0.216L224.516,157.908z"/>
		<path fill="#487C9C" d="M165.503,210.055l49.951-49.951c2.805-2.805,6.257-2.805,9.062,0c2.805,2.805,2.805,6.257,0,9.062
			l-49.951,49.951c-2.805,2.805-6.041,2.589-8.846-0.216S162.697,212.861,165.503,210.055z"/>
	</g>
</g>
</svg>
