<?xml version="1.0" encoding="utf-8"?>
<!-- Generator: Adobe Illustrator 17.0.0, SVG Export Plug-In . SVG Version: 6.00 Build 0)  -->
<!DOCTYPE svg PUBLIC "-//W3C//DTD SVG 1.1//EN" "http://www.w3.org/Graphics/SVG/1.1/DTD/svg11.dtd">
<svg version="1.1" id="cities" xmlns="http://www.w3.org/2000/svg" xmlns:xlink="http://www.w3.org/1999/xlink" x="0px" y="0px"
	 width="128px" height="128px" viewBox="0 0 128 128" enable-background="new 0 0 128 128" xml:space="preserve">
<g>
	<path fill="#E53947" d="M9.96,105.416l44.313-44.313c2.488-2.488,5.55-2.488,8.038,0c2.488,2.488,2.488,5.55,0,8.039
		l-44.313,44.313c-2.488,2.488-5.359,2.297-7.847-0.191C7.664,110.775,7.472,107.905,9.96,105.416z"/>
	<path fill="#DAE4D6" d="M62.311,59.155c2.488,2.488,2.488,5.55,0,8.039c-2.488,2.488-5.55,2.488-8.038,0L9.96,22.881
		c-2.488-2.488-2.296-5.359,0.191-7.847c2.488-2.488,5.359-2.68,7.847-0.191L62.311,59.155z"/>
	<path fill="#1C3557" d="M118.244,59.155c2.488,2.488,2.488,5.55,0,8.039c-2.488,2.488-5.55,2.488-8.039,0L65.893,22.881
		c-2.488-2.488-2.296-5.359,0.191-7.847c2.488-2.488,5.359-2.68,7.847-0.191L118.244,59.155z"/>
	<path fill="#487C9C" d="M65.893,105.416l44.313-44.313c2.488-2.488,5.551-2.488,8.039,0c2.488,2.488,2.488,5.55,0,8.039
		l-44.313,44.313c-2.488,2.488-5.359,2.297-7.847-0.191C63.596,110.775,63.405,107.905,65.893,105.416z"/>
</g>
</svg>
