<?xml version="1.0" encoding="utf-8"?>
<!-- Generator: Adobe Illustrator 17.0.0, SVG Export Plug-In . SVG Version: 6.00 Build 0)  -->
<!DOCTYPE svg PUBLIC "-//W3C//DTD SVG 1.1//EN" "http://www.w3.org/Graphics/SVG/1.1/DTD/svg11.dtd">
<svg version="1.1" id="Layer_1" xmlns="http://www.w3.org/2000/svg" xmlns:xlink="http://www.w3.org/1999/xlink" x="0px" y="0px"
	 width="65.892px" height="58.66px" viewBox="0 0 65.892 58.66" enable-background="new 0 0 65.892 58.66" xml:space="preserve">
<g transform="translate(0,-952.36218)">
	<path fill="#EA5F69" d="M24.195,952.362c-2.353,0.638-4.758,1.283-7.125,1.92c-0.434,0.121-0.696,0.657-0.525,1.072l9.201,21.624
		l-12.826,3.991l-8.726-4.464c-0.33-0.169-0.774-0.069-1,0.224l-3.05,4.115c-0.232,0.32-0.175,0.814,0.125,1.073
		c2.437,2.081,4.856,4.283,7,6.061c2.135,1.769,5.039,3.42,7.626,2.793c4.568-1.096,9.135-2.21,13.701-3.317l2.7,22.871
		c0.056,0.451,0.56,0.79,1,0.673l6.95-1.846c0.255-0.07,0.469-0.273,0.55-0.524l8.776-26.014c3.192-0.768,6.384-1.563,9.576-2.32
		c1.674-0.448,3.752-1.426,5.375-2.843c1.618-1.412,2.832-3.409,2.2-5.612c-0.725-2.719-2.923-3.614-4.775-4.04
		c-2.103-0.41-4.146-0.346-6.125,0.175c-3.174,0.968-6.352,1.96-9.526,2.943L24.77,952.587
		C24.618,952.4,24.349,952.422,24.195,952.362L24.195,952.362z M24.02,954.058l19.476,17.409l-16.201,5.038l-8.951-20.926
		L24.02,954.058z M60.622,969.347c1.798,0.388,3.139,1.226,3.55,2.893c0.086,1.784-0.68,3.106-1.7,4.016
		c-1.371,1.197-3.31,2.112-4.725,2.494c-14.409,3.482-28.82,6.982-43.228,10.475c-2.412,0.268-4.494-0.881-6.2-2.419
		c-2.145-1.871-4.3-3.742-6.45-5.612l2.2-2.968l8.401,4.315c0.184,0.093,0.404,0.111,0.6,0.05l42.178-13.094
		C57.116,969.07,58.832,969.06,60.622,969.347L60.622,969.347z M46.721,983.065l-8.276,24.642l-5.65,1.521l-2.625-22.148
		L46.721,983.065z"/>
</g>
</svg>
