<?xml version="1.0" encoding="utf-8"?>
<!-- Generator: Adobe Illustrator 17.0.0, SVG Export Plug-In . SVG Version: 6.00 Build 0)  -->
<!DOCTYPE svg PUBLIC "-//W3C//DTD SVG 1.1//EN" "http://www.w3.org/Graphics/SVG/1.1/DTD/svg11.dtd">
<svg version="1.1" id="Layer_4" xmlns="http://www.w3.org/2000/svg" xmlns:xlink="http://www.w3.org/1999/xlink" x="0px" y="0px"
	 width="327.073px" height="327.073px" viewBox="-60.036 -104.096 327.073 327.073"
	 enable-background="new -60.036 -104.096 327.073 327.073" xml:space="preserve">
<circle fill="none" stroke="#DBE5D8" stroke-width="10.0072" stroke-miterlimit="10" cx="103.5" cy="59.44" r="158.533"/>
<g>
	<path fill="#F9F9F9" d="M55.603,112.801c0,3.382-2.082,5.463-5.464,5.463s-5.464-2.081-5.464-5.463V79.251
		c0-3.382,2.082-5.204,5.464-5.204s5.464,1.821,5.464,5.204V112.801z"/>
	<path fill="#EA5F69" d="M89.906,112.801c0,3.382-2.082,5.463-5.464,5.463c-3.382,0-5.464-2.081-5.464-5.463V5.819
		c0-3.383,2.082-5.204,5.464-5.204c3.382,0,5.464,1.821,5.464,5.204V112.801z"/>
	<path fill="#E53946" d="M84.442,11.543c-3.382,0-5.464-2.081-5.464-5.463c0-3.383,2.082-5.464,5.464-5.464h36.209
		c3.383,0,5.204,2.081,5.204,5.464c0,3.382-1.821,5.463-5.204,5.463H84.442z"/>
	<path fill="#F9F9F9" d="M126.115,112.801c0,3.382-2.081,5.463-5.464,5.463c-3.382,0-5.464-2.081-5.464-5.463V5.819
		c0-3.383,2.082-5.204,5.464-5.204c3.383,0,5.464,1.821,5.464,5.204V112.801z"/>
	<path fill="#467C9D" d="M84.442,53.271c-3.382,0-5.464-2.082-5.464-5.464c0-3.383,2.082-5.464,5.464-5.464h72.679
		c3.382,0,5.204,2.081,5.204,5.464c0,3.382-1.821,5.464-5.204,5.464H84.442z"/>
	<path fill="#DBE5D8" d="M50.14,84.975c-3.382,0-5.464-2.081-5.464-5.464c0-3.382,2.082-5.464,5.464-5.464h106.981
		c3.382,0,5.204,2.082,5.204,5.464c0,3.383-1.821,5.464-5.204,5.464H50.14z"/>
	<path fill="#EA5F69" d="M162.324,112.801c0,3.382-2.082,5.463-5.464,5.463s-5.464-2.081-5.464-5.463V47.547
		c0-3.383,2.082-5.204,5.464-5.204s5.464,1.821,5.464,5.204V112.801z"/>
	<path fill="#A8D9DB" d="M50.14,118.264c-3.382,0-5.464-2.081-5.464-5.463c0-3.383,2.082-5.464,5.464-5.464h106.981
		c3.382,0,5.204,2.081,5.204,5.464c0,3.382-1.821,5.463-5.204,5.463H50.14z"/>
</g>
</svg>
