<?xml version="1.0" encoding="utf-8"?>
<!-- Generator: Adobe Illustrator 17.0.0, SVG Export Plug-In . SVG Version: 6.00 Build 0)  -->
<!DOCTYPE svg PUBLIC "-//W3C//DTD SVG 1.1//EN" "http://www.w3.org/Graphics/SVG/1.1/DTD/svg11.dtd">
<svg version="1.1" id="decentralization" xmlns="http://www.w3.org/2000/svg" xmlns:xlink="http://www.w3.org/1999/xlink" x="0px"
	 y="0px" width="327.073px" height="327.073px" viewBox="0 0 327.073 327.073" enable-background="new 0 0 327.073 327.073"
	 xml:space="preserve">
<circle fill="none" stroke="#FFFFFF" stroke-width="10.0072" stroke-miterlimit="10" cx="103.5" cy="59.44" r="158.533"/>
<g>
	<path fill="#1C3557" d="M51.359,67.902c0-4.086,3.337-7.56,7.492-7.56c4.086,0,7.56,3.474,7.56,7.56s-3.473,7.56-7.56,7.56
		C54.696,75.462,51.359,71.988,51.359,67.902z"/>
	<path fill="#EA5F69" d="M74.443,101.586c0-4.086,3.337-7.56,7.492-7.56c4.086,0,7.56,3.473,7.56,7.56s-3.473,7.56-7.56,7.56
		C77.78,109.146,74.443,105.673,74.443,101.586z"/>
	<path fill="#A8D9DB" d="M104.997,9.734c0-4.086,3.337-7.56,7.491-7.56c4.086,0,7.56,3.474,7.56,7.56s-3.474,7.56-7.56,7.56
		C108.334,17.294,104.997,13.82,104.997,9.734z"/>
	<path fill="#467C9D" d="M121.801,67.902c0-4.086,3.337-7.56,7.492-7.56c4.086,0,7.56,3.474,7.56,7.56s-3.473,7.56-7.56,7.56
		C125.138,75.462,121.801,71.988,121.801,67.902z"/>
	<path fill="#1C3557" d="M140.59,37.061c0-4.086,3.337-7.56,7.492-7.56c4.086,0,7.56,3.474,7.56,7.56s-3.473,7.56-7.56,7.56
		C143.927,44.62,140.59,41.147,140.59,37.061z"/>
	<path fill="#E53946" d="M140.59,109.146c0-4.086,3.337-7.56,7.492-7.56c4.086,0,7.56,3.474,7.56,7.56s-3.473,7.56-7.56,7.56
		C143.927,116.706,140.59,113.232,140.59,109.146z"/>
</g>
</svg>
