<?xml version="1.0" encoding="utf-8"?>
<!-- Generator: Adobe Illustrator 17.0.0, SVG Export Plug-In . SVG Version: 6.00 Build 0)  -->
<!DOCTYPE svg PUBLIC "-//W3C//DTD SVG 1.1//EN" "http://www.w3.org/Graphics/SVG/1.1/DTD/svg11.dtd">
<svg version="1.1" id="education" xmlns="http://www.w3.org/2000/svg" xmlns:xlink="http://www.w3.org/1999/xlink" x="0px" y="0px"
	 width="327.073px" height="327.073px" viewBox="0 0 327.073 327.073" enable-background="new 0 0 327.073 327.073"
	 xml:space="preserve">
<g>
	<circle fill="none" stroke="#FFFFFF" stroke-width="10.0072" stroke-miterlimit="10" cx="103.5" cy="59.44" r="158.533"/>
	<g>
		<g>
			<path fill="#F9F9F9" d="M120.712,3.968l39.018,63.236c1.758,2.849,1.087,5.685-1.763,7.443s-5.685,1.087-7.443-1.763
				L111.507,9.648c-1.758-2.849-0.951-5.465,1.898-7.223S118.954,1.119,120.712,3.968z"/>
			<path fill="#1C3557" d="M119.92,3.968c1.758,2.849,1.306,5.549-1.544,7.307L55.14,50.293c-2.849,1.758-5.685,1.087-7.443-1.763
				c-1.758-2.849-1.087-5.685,1.763-7.443L112.696,2.07C115.546,0.311,118.162,1.118,119.92,3.968z"/>
			<path fill="#E53946" d="M86.288,113.57L47.27,50.334c-1.758-2.849-1.087-5.685,1.763-7.443s5.685-1.087,7.443,1.763
				l39.018,63.236c1.758,2.849,0.951,5.465-1.898,7.223C90.746,116.872,88.046,116.419,86.288,113.57z"/>
			<path fill="#A8D9DB" d="M87.08,113.571c-1.758-2.849-1.306-5.549,1.544-7.307l63.236-39.018c2.849-1.758,5.685-1.087,7.443,1.763
				c1.758,2.849,1.087,5.685-1.763,7.443L94.304,115.47C91.454,117.227,88.838,116.42,87.08,113.571z"/>
		</g>
		<path fill="#DBE5D8" d="M134.572,67.476v42.899c0,3.348-2.06,5.408-5.408,5.408c-3.348,0-5.408-2.06-5.408-5.408V67.476
			c0-3.348,2.06-5.151,5.408-5.151C132.512,62.326,134.572,64.128,134.572,67.476z"/>
	</g>
</g>
</svg>
