<?xml version="1.0" encoding="utf-8"?>
<!-- Generator: Adobe Illustrator 17.0.0, SVG Export Plug-In . SVG Version: 6.00 Build 0)  -->
<!DOCTYPE svg PUBLIC "-//W3C//DTD SVG 1.1//EN" "http://www.w3.org/Graphics/SVG/1.1/DTD/svg11.dtd">
<svg version="1.1" id="education" xmlns="http://www.w3.org/2000/svg" xmlns:xlink="http://www.w3.org/1999/xlink" x="0px" y="0px"
	 width="327.073px" height="327.073px" viewBox="0 0 327.073 327.073" enable-background="new 0 0 327.073 327.073"
	 xml:space="preserve">
<g>
	<circle fill="none" stroke="#FFFFFF" stroke-width="10.0072" stroke-miterlimit="10" cx="163.536" cy="163.536" r="158.533"/>
	<g>
		<g>
			<path fill="#F9F9F9" d="M180.748,108.064l39.018,63.236c1.758,2.849,1.087,5.685-1.763,7.443s-5.685,1.087-7.443-1.763
				l-39.017-63.236c-1.758-2.849-0.951-5.465,1.898-7.223C176.29,104.763,178.99,105.215,180.748,108.064z"/>
			<path fill="#1C3557" d="M179.956,108.064c1.758,2.849,1.306,5.549-1.544,7.307l-63.236,39.018
				c-2.849,1.758-5.685,1.087-7.443-1.763c-1.758-2.849-1.087-5.685,1.763-7.443l63.236-39.017
				C175.582,104.407,178.198,105.214,179.956,108.064z"/>
			<path fill="#E53946" d="M146.324,217.667l-39.018-63.236c-1.758-2.849-1.087-5.685,1.763-7.443
				c2.85-1.758,5.685-1.087,7.443,1.763l39.018,63.236c1.758,2.849,0.951,5.465-1.898,7.223
				C150.783,220.969,148.082,220.516,146.324,217.667z"/>
			<path fill="#A8D9DB" d="M147.116,217.667c-1.758-2.849-1.306-5.549,1.544-7.307l63.236-39.018
				c2.849-1.758,5.685-1.087,7.443,1.763c1.758,2.849,1.087,5.685-1.763,7.443l-63.236,39.018
				C151.49,221.323,148.874,220.516,147.116,217.667z"/>
		</g>
		<path fill="#DBE5D8" d="M194.608,171.572v42.899c0,3.348-2.06,5.408-5.408,5.408c-3.348,0-5.408-2.06-5.408-5.408v-42.899
			c0-3.348,2.06-5.151,5.408-5.151C192.548,166.423,194.608,168.224,194.608,171.572z"/>
	</g>
</g>
</svg>
