<?xml version="1.0" encoding="utf-8"?>
<!-- Generator: Adobe Illustrator 17.0.0, SVG Export Plug-In . SVG Version: 6.00 Build 0)  -->
<!DOCTYPE svg PUBLIC "-//W3C//DTD SVG 1.1//EN" "http://www.w3.org/Graphics/SVG/1.1/DTD/svg11.dtd">
<svg version="1.1" id="energy" xmlns="http://www.w3.org/2000/svg" xmlns:xlink="http://www.w3.org/1999/xlink" x="0px" y="0px"
	 width="327.073px" height="327.073px" viewBox="0 0 327.073 327.073" enable-background="new 0 0 327.073 327.073"
	 xml:space="preserve">
<circle fill="none" stroke="#FFFFFF" stroke-width="10.0072" stroke-miterlimit="10" cx="163.536" cy="163.536" r="158.533"/>
<g>
	<path fill="#A8D9DB" d="M163.467,178.775c-8.375,0-15.102-7.002-15.102-15.24c0-8.238,6.727-15.24,15.102-15.24
		c8.238,0,15.24,7.002,15.24,15.24C178.707,171.773,171.705,178.775,163.467,178.775z"/>
	<path fill="#E53946" d="M168.931,111.282v16.566c0,3.34-2.055,5.395-5.395,5.395s-5.395-2.055-5.395-5.395v-16.566
		c0-3.34,2.055-5.138,5.395-5.138S168.931,107.941,168.931,111.282z"/>
	<path fill="#1C3557" d="M204.301,130.402l-11.714,11.714c-2.362,2.362-5.268,2.362-7.63,0s-2.362-5.268,0-7.63l11.714-11.714
		c2.362-2.362,5.086-2.18,7.448,0.182S206.663,128.04,204.301,130.402z"/>
	<path fill="#EA5F69" d="M215.792,168.932h-16.566c-3.34,0-5.395-2.055-5.395-5.395s2.055-5.395,5.395-5.395h16.566
		c3.34,0,5.138,2.055,5.138,5.395S219.132,168.932,215.792,168.932z"/>
	<path fill="#E53946" d="M196.671,204.301l-11.714-11.714c-2.362-2.362-2.362-5.268,0-7.63s5.268-2.362,7.63,0l11.714,11.714
		c2.362,2.362,2.18,5.086-0.182,7.448S199.033,206.663,196.671,204.301z"/>
	<path fill="#DBE5D8" d="M158.141,215.792v-16.566c0-3.34,2.055-5.395,5.395-5.395s5.395,2.055,5.395,5.395v16.566
		c0,3.34-2.055,5.138-5.395,5.138S158.141,219.132,158.141,215.792z"/>
	<path fill="#1C3557" d="M122.771,196.671l11.714-11.714c2.362-2.362,5.268-2.362,7.63,0s2.362,5.268,0,7.63l-11.714,11.714
		c-2.362,2.362-5.086,2.18-7.448-0.182C120.591,201.758,120.41,199.033,122.771,196.671z"/>
	<path fill="#EA5F69" d="M111.281,158.141h16.566c3.34,0,5.395,2.055,5.395,5.395s-2.055,5.395-5.395,5.395h-16.566
		c-3.34,0-5.138-2.055-5.138-5.395S107.941,158.141,111.281,158.141z"/>
	<path fill="#DBE5D8" d="M130.401,122.771l11.714,11.714c2.362,2.362,2.362,5.268,0,7.63s-5.268,2.362-7.63,0l-11.714-11.714
		c-2.362-2.362-2.18-5.086,0.182-7.448S128.039,120.41,130.401,122.771z"/>
</g>
</svg>
