<?xml version="1.0" encoding="utf-8"?>
<!-- Generator: Adobe Illustrator 17.0.0, SVG Export Plug-In . SVG Version: 6.00 Build 0)  -->
<!DOCTYPE svg PUBLIC "-//W3C//DTD SVG 1.1//EN" "http://www.w3.org/Graphics/SVG/1.1/DTD/svg11.dtd">
<svg version="1.1" id="energy" xmlns="http://www.w3.org/2000/svg" xmlns:xlink="http://www.w3.org/1999/xlink" x="0px" y="0px"
	 width="327.073px" height="327.073px" viewBox="0 0 327.073 327.073" enable-background="new 0 0 327.073 327.073"
	 xml:space="preserve">
<circle fill="none" stroke="#FFFFFF" stroke-width="10.0072" stroke-miterlimit="10" cx="103.5" cy="59.44" r="158.533"/>
<g>
	<path fill="#A8D9DB" d="M103.431,74.679c-8.375,0-15.102-7.002-15.102-15.24s6.727-15.24,15.102-15.24
		c8.238,0,15.24,7.002,15.24,15.24S111.669,74.679,103.431,74.679z"/>
	<path fill="#E53946" d="M108.895,7.185v16.566c0,3.34-2.055,5.395-5.395,5.395s-5.395-2.055-5.395-5.395V7.185
		c0-3.34,2.055-5.138,5.395-5.138S108.895,3.845,108.895,7.185z"/>
	<path fill="#1C3557" d="M144.265,26.305l-11.714,11.714c-2.362,2.362-5.268,2.362-7.63,0s-2.362-5.268,0-7.63l11.714-11.714
		c2.362-2.362,5.086-2.18,7.448,0.182S146.626,23.943,144.265,26.305z"/>
	<path fill="#EA5F69" d="M155.755,64.835h-16.566c-3.34,0-5.395-2.055-5.395-5.395s2.055-5.395,5.395-5.395h16.566
		c3.34,0,5.138,2.055,5.138,5.395S159.095,64.835,155.755,64.835z"/>
	<path fill="#E53946" d="M136.635,100.205l-11.714-11.714c-2.362-2.362-2.362-5.268,0-7.63s5.268-2.362,7.63,0l11.714,11.714
		c2.362,2.362,2.18,5.086-0.182,7.448S138.997,102.566,136.635,100.205z"/>
	<path fill="#DBE5D8" d="M98.105,111.695V95.129c0-3.34,2.055-5.395,5.395-5.395s5.395,2.055,5.395,5.395v16.566
		c0,3.34-2.055,5.138-5.395,5.138S98.105,115.035,98.105,111.695z"/>
	<path fill="#1C3557" d="M62.735,92.575l11.714-11.714c2.362-2.362,5.268-2.362,7.63,0s2.362,5.268,0,7.63l-11.714,11.714
		c-2.362,2.362-5.086,2.18-7.448-0.182C60.555,97.661,60.374,94.936,62.735,92.575z"/>
	<path fill="#EA5F69" d="M51.245,54.045h16.566c3.34,0,5.395,2.055,5.395,5.395s-2.055,5.395-5.395,5.395H51.245
		c-3.34,0-5.138-2.055-5.138-5.395S47.905,54.045,51.245,54.045z"/>
	<path fill="#DBE5D8" d="M70.365,18.675l11.714,11.714c2.362,2.362,2.362,5.268,0,7.63s-5.268,2.362-7.63,0L62.735,26.305
		c-2.362-2.362-2.18-5.086,0.182-7.448S68.003,16.314,70.365,18.675z"/>
</g>
</svg>
