<?xml version="1.0" encoding="utf-8"?>
<!-- Generator: Adobe Illustrator 17.0.0, SVG Export Plug-In . SVG Version: 6.00 Build 0)  -->
<!DOCTYPE svg PUBLIC "-//W3C//DTD SVG 1.1//EN" "http://www.w3.org/Graphics/SVG/1.1/DTD/svg11.dtd">
<svg version="1.1" id="Layer_4" xmlns="http://www.w3.org/2000/svg" xmlns:xlink="http://www.w3.org/1999/xlink" x="0px" y="0px"
	 width="327.073px" height="327.073px" viewBox="0 0 327.073 327.073" enable-background="new 0 0 327.073 327.073"
	 xml:space="preserve">
<circle fill="none" stroke="#FFFFFF" stroke-width="10.0072" stroke-miterlimit="10" cx="163.536" cy="163.536" r="158.533"/>
<g>
	<path fill="#A8D9DB" d="M164.348,185.006c-6.997,0-12.617-5.85-12.617-12.732s5.62-12.732,12.617-12.732
		c6.882,0,12.732,5.85,12.732,12.732S171.23,185.006,164.348,185.006z"/>
	<path fill="#467C9D" d="M113.858,210.798h101.327c3.204,0,5.175,1.971,5.175,5.175c0,3.204-1.971,5.175-5.175,5.175H113.858
		c-3.204,0-4.928-1.971-4.928-5.175C108.93,212.769,110.654,210.798,113.858,210.798z"/>
	<path fill="#1C3557" d="M166.568,107.54l50.274,50.274c2.265,2.265,2.265,5.053,0,7.318s-5.053,2.265-7.318,0l-50.275-50.273
		c-2.265-2.265-2.091-4.879,0.174-7.144S164.303,105.275,166.568,107.54z"/>
	<path fill="#DBE5D8" d="M165.83,107.715c2.265,2.265,2.439,4.879,0.174,7.144l-50.274,50.274c-2.265,2.265-5.053,2.265-7.318,0
		s-2.265-5.053,0-7.318l50.274-50.275C160.951,105.275,163.565,105.449,165.83,107.715z"/>
</g>
</svg>
