<?xml version="1.0" encoding="utf-8"?>
<!-- Generator: Adobe Illustrator 17.0.0, SVG Export Plug-In . SVG Version: 6.00 Build 0)  -->
<!DOCTYPE svg PUBLIC "-//W3C//DTD SVG 1.1//EN" "http://www.w3.org/Graphics/SVG/1.1/DTD/svg11.dtd">
<svg version="1.1" id="Layer_4" xmlns="http://www.w3.org/2000/svg" xmlns:xlink="http://www.w3.org/1999/xlink" x="0px" y="0px"
	 width="327.073px" height="327.073px" viewBox="-60.036 -104.096 327.073 327.073"
	 enable-background="new -60.036 -104.096 327.073 327.073" xml:space="preserve">
<circle fill="none" stroke="#DBE5D8" stroke-width="10.0072" stroke-miterlimit="10" cx="103.5" cy="59.44" r="158.533"/>
<g>
	<path fill="#A8D9DB" d="M104.312,80.909c-6.997,0-12.617-5.85-12.617-12.732s5.62-12.732,12.617-12.732
		c6.882,0,12.732,5.85,12.732,12.732S111.194,80.909,104.312,80.909z"/>
	<path fill="#467C9D" d="M53.822,106.701h101.327c3.204,0,5.175,1.971,5.175,5.175s-1.971,5.175-5.175,5.175H53.822
		c-3.204,0-4.928-1.971-4.928-5.175S50.618,106.701,53.822,106.701z"/>
	<path fill="#1C3557" d="M106.532,3.443l50.274,50.274c2.265,2.265,2.265,5.053,0,7.318c-2.265,2.265-5.053,2.265-7.318,0
		L99.213,10.762c-2.265-2.265-2.091-4.879,0.174-7.144S104.267,1.178,106.532,3.443z"/>
	<path fill="#DBE5D8" d="M105.794,3.618c2.265,2.265,2.439,4.879,0.174,7.144L55.694,61.036c-2.265,2.265-5.053,2.265-7.318,0
		c-2.265-2.265-2.265-5.053,0-7.318L98.65,3.443C100.915,1.178,103.529,1.352,105.794,3.618z"/>
</g>
</svg>
