<?xml version="1.0" encoding="utf-8"?>
<!-- Generator: Adobe Illustrator 17.0.0, SVG Export Plug-In . SVG Version: 6.00 Build 0)  -->
<!DOCTYPE svg PUBLIC "-//W3C//DTD SVG 1.1//EN" "http://www.w3.org/Graphics/SVG/1.1/DTD/svg11.dtd">
<svg version="1.1" id="Layer_2" xmlns="http://www.w3.org/2000/svg" xmlns:xlink="http://www.w3.org/1999/xlink" x="0px" y="0px"
	 width="327.073px" height="327.073px" viewBox="-60.036 -104.096 327.073 327.073"
	 enable-background="new -60.036 -104.096 327.073 327.073" xml:space="preserve">
<g>
	<circle fill="none" stroke="#DBE5D8" stroke-width="10.0072" stroke-miterlimit="10" cx="103.5" cy="59.44" r="158.533"/>
	<g>
		<path fill="#EA5F69" d="M42.416,105.959l49.952-49.951c2.805-2.805,6.257-2.805,9.061,0c2.805,2.805,2.805,6.257,0,9.062
			L51.477,115.02c-2.805,2.805-6.041,2.589-8.846-0.216C39.827,112,39.611,108.764,42.416,105.959z"/>
		<path fill="#DAE4D6" d="M101.429,53.811c2.805,2.805,2.805,6.257,0,9.062c-2.804,2.805-6.257,2.805-9.061,0L42.416,12.921
			c-2.805-2.805-2.589-6.041,0.216-8.846c2.805-2.805,6.041-3.021,8.846-0.216L101.429,53.811z"/>
		<path fill="#1C3557" d="M164.479,53.811c2.805,2.805,2.805,6.257,0,9.062c-2.805,2.805-6.257,2.805-9.062,0l-49.951-49.951
			c-2.805-2.805-2.589-6.041,0.216-8.846c2.805-2.805,6.041-3.021,8.846-0.216L164.479,53.811z"/>
		<path fill="#487C9C" d="M105.466,105.959l49.951-49.951c2.805-2.805,6.257-2.805,9.062,0c2.805,2.805,2.805,6.257,0,9.062
			l-49.951,49.951c-2.805,2.805-6.041,2.589-8.846-0.216C102.877,112,102.661,108.764,105.466,105.959z"/>
	</g>
</g>
</svg>
