<?xml version="1.0" encoding="utf-8"?>
<!-- Generator: Adobe Illustrator 17.0.0, SVG Export Plug-In . SVG Version: 6.00 Build 0)  -->
<!DOCTYPE svg PUBLIC "-//W3C//DTD SVG 1.1//EN" "http://www.w3.org/Graphics/SVG/1.1/DTD/svg11.dtd">
<svg version="1.1" id="Layer_3_1_" xmlns="http://www.w3.org/2000/svg" xmlns:xlink="http://www.w3.org/1999/xlink" x="0px" y="0px"
	 width="938px" height="642px" viewBox="0 1 938 642" enable-background="new 0 1 938 642" xml:space="preserve">
<g id="Layer_2_1_">
	<g id="Layer_3">
		<rect y="1" fill="#1C3557" width="938" height="642"/>
	</g>
</g>
<g>
	<path fill="#A8D9DB" d="M26.127,268.801c0-2.705,2.209-5.004,4.959-5.004c2.705,0,5.004,2.299,5.004,5.004
		s-2.299,5.005-5.004,5.005C28.336,273.805,26.127,271.506,26.127,268.801z"/>
	<path fill="#467C9D" d="M41.408,291.099c0-2.705,2.209-5.004,4.959-5.004c2.705,0,5.004,2.299,5.004,5.004
		s-2.299,5.005-5.004,5.005C43.617,296.104,41.408,293.804,41.408,291.099z"/>
	<path fill="#EA5F69" d="M61.635,230.294c0-2.705,2.209-5.004,4.959-5.004c2.705,0,5.005,2.299,5.005,5.004
		s-2.299,5.005-5.005,5.005C63.844,235.299,61.635,232.999,61.635,230.294z"/>
	<path fill="#DBE5D8" d="M72.759,268.801c0-2.705,2.209-5.004,4.959-5.004c2.705,0,5.004,2.299,5.004,5.004
		s-2.299,5.005-5.004,5.005C74.968,273.805,72.759,271.506,72.759,268.801z"/>
	<path fill="#F9F9F9" d="M85.197,248.384c0-2.705,2.209-5.005,4.959-5.005c2.705,0,5.004,2.299,5.004,5.005
		s-2.299,5.004-5.004,5.004C87.406,253.389,85.197,251.089,85.197,248.384z"/>
	<path fill="#E53946" d="M85.197,296.104c0-2.705,2.209-5.005,4.959-5.005c2.705,0,5.004,2.299,5.004,5.005
		c0,2.705-2.299,5.004-5.004,5.004C87.406,301.108,85.197,298.809,85.197,296.104z"/>
</g>
<g>
	<path fill="#F9F9F9" d="M626.95,225.821c2.178,1.325,2.805,3.313,1.48,5.491l-17.924,29.58c-1.325,2.178-3.481,2.703-5.659,1.378
		c-2.178-1.325-2.703-3.481-1.378-5.659l17.924-29.58C622.718,224.853,624.772,224.496,626.95,225.821z"/>
	<path fill="#467C9D" d="M521.483,295.365c0-2.549,1.373-4.118,3.922-4.118h34.766c2.549,0,4.118,1.569,4.118,4.118
		c0,2.549-1.569,4.118-4.118,4.118h-34.766C522.856,299.483,521.483,297.914,521.483,295.365z"/>
	<path fill="#DBE5D8" d="M525.32,228.993c0-2.549,1.373-4.118,3.922-4.118h13.644c2.549,0,4.118,1.569,4.118,4.118
		s-1.569,4.118-4.118,4.118h-13.644C526.693,233.112,525.32,231.543,525.32,228.993z"/>
	<path fill="#DBE5D8" d="M587.228,228.993c0-2.549,1.373-4.118,3.922-4.118h33.852c2.549,0,4.118,1.569,4.118,4.118
		s-1.569,4.118-4.118,4.118H591.15C588.601,233.112,587.228,231.543,587.228,228.993z"/>
	<path fill="#A8D9DB" d="M607.479,292.772c2.162,0,4.216,1.621,4.216,4.108c0,2.162-2.054,4.216-4.216,4.216
		c-17.188,0-21.62-13.296-21.62-20.755c0-2.162,1.621-4.216,4.108-4.216c2.162,0,4.216,2.054,4.216,4.216
		C594.183,290.935,603.48,292.772,607.479,292.772z"/>
	<path fill="#467C9D" d="M620.235,280.341c0-2.162,2.054-4.216,4.216-4.216c2.486,0,4.108,2.054,4.108,4.216
		c0,7.459-4.432,20.755-21.62,20.755c-2.162,0-4.216-2.054-4.216-4.216c0-2.486,2.054-4.108,4.216-4.108
		C610.938,292.772,620.235,290.935,620.235,280.341z"/>
	<path fill="#467C9D" d="M624.44,270.496c2.549,0,4.118,1.373,4.118,3.922v4.751c0,2.549-1.569,4.118-4.118,4.118
		s-4.118-1.569-4.118-4.118v-4.751C620.322,271.869,621.891,270.496,624.44,270.496z"/>
	<g>
		<path fill="#F9F9F9" d="M356.534,226.285c0,2.162-2.048,4.21-4.324,4.21h-31.632v24.578h29.129c2.276,0,4.324,2.048,4.324,4.324
			c0,2.048-2.048,4.324-4.324,4.324h-29.016v37.208h-8.875v-79.082h40.393C354.486,221.847,356.534,224.009,356.534,226.285z"/>
		<path fill="#F9F9F9" d="M425.937,302.408c-2.162,0.455-4.665-0.797-5.348-3.413l-4.892-20.141h-25.944l-4.892,20.141
			c-0.683,2.844-2.844,3.868-5.121,3.413c-2.844-0.569-4.095-2.844-3.527-5.348l17.637-75.212h17.523l17.864,75.212
			C429.806,299.563,428.213,301.952,425.937,302.408z M400.791,230.495l-9.103,39.598h21.961l-8.989-39.598H400.791L400.791,230.495
			z"/>
		<path fill="#F9F9F9" d="M490.824,259.965c7.054-3.072,8.42-12.175,8.42-16.157v-1.252c0-7.055-2.844-20.71-20.709-20.71h-23.553
			v79.082h24.123c17.751,0,21.392-13.996,21.392-20.937v-2.731C500.496,273.165,498.562,263.607,490.824,259.965z M463.743,230.495
			h14.793c4.096,0,11.948,1.365,11.948,12.062v1.024c0,10.695-6.372,12.403-11.265,12.403h-15.475L463.743,230.495L463.743,230.495z
			 M491.735,279.65c0,10.81-8.421,12.517-12.63,12.517h-15.361v-27.422h15.93c4.779,0,12.062,1.706,12.062,12.629v2.276H491.735z"/>
		<path fill="#E53946" d="M607.522,263.063c-2.162,0-4.216-1.621-4.216-4.108c0-2.162,2.054-4.216,4.216-4.216
			c17.188,0,21.62,13.296,21.62,20.755c0,2.162-1.621,4.216-4.108,4.216c-2.162,0-4.216-2.054-4.216-4.216
			C620.818,264.901,611.521,263.063,607.522,263.063z"/>
		<path fill="#EA5F69" d="M543.469,224.875c2.549,0,4.118,1.373,4.118,3.922v66.568c0,2.549-1.569,4.118-4.118,4.118
			s-4.118-1.569-4.118-4.118v-66.568C539.351,226.248,540.92,224.875,543.469,224.875z"/>
	</g>
</g>
<g>
	<path fill="#A8D9DB" d="M115.314,374.427c0-2.705,2.209-5.004,4.959-5.004c2.705,0,5.004,2.299,5.004,5.004
		s-2.299,5.005-5.004,5.005C117.523,379.432,115.314,377.132,115.314,374.427z"/>
	<path fill="#467C9D" d="M130.595,396.726c0-2.705,2.209-5.004,4.959-5.004c2.705,0,5.004,2.299,5.004,5.004
		s-2.299,5.005-5.004,5.005C132.804,401.73,130.595,399.431,130.595,396.726z"/>
	<path fill="#EA5F69" d="M150.821,335.921c0-2.705,2.209-5.004,4.959-5.004c2.705,0,5.005,2.299,5.005,5.004
		c0,2.705-2.299,5.005-5.005,5.005C153.03,340.925,150.821,338.626,150.821,335.921z"/>
	<path fill="#DBE5D8" d="M161.945,374.427c0-2.705,2.209-5.004,4.959-5.004c2.705,0,5.004,2.299,5.004,5.004
		s-2.299,5.005-5.004,5.005C164.154,379.432,161.945,377.132,161.945,374.427z"/>
	<path fill="#F9F9F9" d="M174.383,354.011c0-2.705,2.209-5.005,4.959-5.005c2.705,0,5.004,2.299,5.004,5.005
		c0,2.705-2.299,5.004-5.004,5.004C176.592,359.015,174.383,356.716,174.383,354.011z"/>
	<path fill="#E53946" d="M174.383,401.73c0-2.705,2.209-5.005,4.959-5.005c2.705,0,5.004,2.299,5.004,5.005
		c0,2.705-2.299,5.004-5.004,5.004C176.592,406.735,174.383,404.435,174.383,401.73z"/>
</g>
<g>
	<path fill="#A8D9DB" d="M115.314,480.054c0-2.705,2.209-5.004,4.959-5.004c2.705,0,5.004,2.299,5.004,5.004
		s-2.299,5.005-5.004,5.005C117.523,485.058,115.314,482.759,115.314,480.054z"/>
	<path fill="#467C9D" d="M130.595,502.352c0-2.705,2.209-5.004,4.959-5.004c2.705,0,5.004,2.299,5.004,5.004
		s-2.299,5.005-5.004,5.005C132.804,507.357,130.595,505.057,130.595,502.352z"/>
	<path fill="#EA5F69" d="M150.821,441.547c0-2.705,2.209-5.004,4.959-5.004c2.705,0,5.005,2.299,5.005,5.004
		s-2.299,5.005-5.005,5.005C153.03,446.552,150.821,444.252,150.821,441.547z"/>
	<path fill="#DBE5D8" d="M161.945,480.054c0-2.705,2.209-5.004,4.959-5.004c2.705,0,5.004,2.299,5.004,5.004
		s-2.299,5.005-5.004,5.005C164.154,485.058,161.945,482.759,161.945,480.054z"/>
	<path fill="#F9F9F9" d="M174.383,459.637c0-2.705,2.209-5.005,4.959-5.005c2.705,0,5.004,2.299,5.004,5.005
		c0,2.705-2.299,5.004-5.004,5.004C176.592,464.642,174.383,462.342,174.383,459.637z"/>
	<path fill="#E53946" d="M174.383,507.357c0-2.705,2.209-5.005,4.959-5.005c2.705,0,5.004,2.299,5.004,5.005
		c0,2.705-2.299,5.004-5.004,5.004C176.592,512.361,174.383,510.062,174.383,507.357z"/>
</g>
<g>
	<path fill="#A8D9DB" d="M666.265,480.054c0-2.705,2.209-5.004,4.959-5.004c2.705,0,5.004,2.299,5.004,5.004
		s-2.299,5.005-5.004,5.005C668.474,485.058,666.265,482.759,666.265,480.054z"/>
	<path fill="#467C9D" d="M681.547,502.352c0-2.705,2.209-5.004,4.959-5.004c2.705,0,5.004,2.299,5.004,5.004
		s-2.299,5.005-5.004,5.005C683.755,507.357,681.547,505.057,681.547,502.352z"/>
	<path fill="#EA5F69" d="M701.773,441.547c0-2.705,2.209-5.004,4.959-5.004c2.705,0,5.005,2.299,5.005,5.004
		s-2.299,5.005-5.005,5.005C703.982,446.552,701.773,444.252,701.773,441.547z"/>
	<path fill="#DBE5D8" d="M712.897,480.054c0-2.705,2.209-5.004,4.959-5.004c2.705,0,5.004,2.299,5.004,5.004
		s-2.299,5.005-5.004,5.005C715.106,485.058,712.897,482.759,712.897,480.054z"/>
	<path fill="#F9F9F9" d="M725.335,459.637c0-2.705,2.209-5.005,4.959-5.005c2.705,0,5.004,2.299,5.004,5.005
		c0,2.705-2.299,5.004-5.004,5.004C727.544,464.642,725.335,462.342,725.335,459.637z"/>
	<path fill="#E53946" d="M725.335,507.357c0-2.705,2.209-5.005,4.959-5.005c2.705,0,5.004,2.299,5.004,5.005
		c0,2.705-2.299,5.004-5.004,5.004C727.544,512.361,725.335,510.062,725.335,507.357z"/>
</g>
<g>
	<path fill="#A8D9DB" d="M752.142,480.054c0-2.705,2.209-5.004,4.959-5.004c2.705,0,5.004,2.299,5.004,5.004
		s-2.299,5.005-5.004,5.005C754.351,485.058,752.142,482.759,752.142,480.054z"/>
	<path fill="#467C9D" d="M767.423,502.352c0-2.705,2.209-5.004,4.959-5.004c2.705,0,5.004,2.299,5.004,5.004
		s-2.299,5.005-5.004,5.005C769.632,507.357,767.423,505.057,767.423,502.352z"/>
	<path fill="#EA5F69" d="M787.65,441.547c0-2.705,2.209-5.004,4.959-5.004c2.705,0,5.005,2.299,5.005,5.004
		s-2.299,5.005-5.005,5.005C789.859,446.552,787.65,444.252,787.65,441.547z"/>
	<path fill="#DBE5D8" d="M798.773,480.054c0-2.705,2.209-5.004,4.959-5.004c2.705,0,5.004,2.299,5.004,5.004
		s-2.299,5.005-5.004,5.005C800.982,485.058,798.773,482.759,798.773,480.054z"/>
	<path fill="#F9F9F9" d="M811.211,459.637c0-2.705,2.209-5.005,4.959-5.005c2.705,0,5.004,2.299,5.004,5.005
		c0,2.705-2.299,5.004-5.004,5.004C813.42,464.642,811.211,462.342,811.211,459.637z"/>
	<path fill="#E53946" d="M811.211,507.357c0-2.705,2.209-5.005,4.959-5.005c2.705,0,5.004,2.299,5.004,5.005
		c0,2.705-2.299,5.004-5.004,5.004C813.42,512.361,811.211,510.062,811.211,507.357z"/>
</g>
<g>
	<path fill="#F9F9F9" d="M119.27,294.491c0,2.249-1.384,3.633-3.633,3.633s-3.633-1.384-3.633-3.633v-22.31
		c0-2.249,1.384-3.46,3.633-3.46s3.633,1.211,3.633,3.46V294.491z"/>
	<path fill="#EA5F69" d="M142.081,294.491c0,2.249-1.384,3.633-3.633,3.633s-3.633-1.384-3.633-3.633V223.35
		c0-2.249,1.384-3.46,3.633-3.46s3.633,1.211,3.633,3.46V294.491z"/>
	<path fill="#E53946" d="M138.448,227.155c-2.249,0-3.633-1.384-3.633-3.633s1.384-3.633,3.633-3.633h24.079
		c2.249,0,3.46,1.384,3.46,3.633s-1.211,3.633-3.46,3.633H138.448z"/>
	<path fill="#F9F9F9" d="M166.159,294.491c0,2.249-1.384,3.633-3.633,3.633s-3.633-1.384-3.633-3.633V223.35
		c0-2.249,1.384-3.46,3.633-3.46s3.633,1.211,3.633,3.46V294.491z"/>
	<path fill="#467C9D" d="M138.448,254.904c-2.249,0-3.633-1.384-3.633-3.633s1.384-3.633,3.633-3.633h48.33
		c2.249,0,3.46,1.384,3.46,3.633s-1.211,3.633-3.46,3.633H138.448z"/>
	<path fill="#DBE5D8" d="M115.637,275.987c-2.249,0-3.633-1.384-3.633-3.633s1.384-3.633,3.633-3.633h71.141
		c2.249,0,3.46,1.384,3.46,3.633s-1.211,3.633-3.46,3.633H115.637z"/>
	<path fill="#EA5F69" d="M190.238,294.491c0,2.249-1.384,3.633-3.633,3.633s-3.633-1.384-3.633-3.633v-43.393
		c0-2.249,1.384-3.46,3.633-3.46s3.633,1.211,3.633,3.46V294.491z"/>
	<path fill="#A8D9DB" d="M115.637,298.124c-2.249,0-3.633-1.384-3.633-3.633s1.384-3.633,3.633-3.633h71.141
		c2.249,0,3.46,1.384,3.46,3.633s-1.211,3.633-3.46,3.633H115.637z"/>
</g>
<g>
	<path fill="#F9F9F9" d="M849.738,613.512c0,2.249-1.384,3.633-3.633,3.633s-3.633-1.384-3.633-3.633v-22.31
		c0-2.249,1.384-3.46,3.633-3.46s3.633,1.211,3.633,3.46V613.512z"/>
	<path fill="#EA5F69" d="M872.549,613.512c0,2.249-1.384,3.633-3.633,3.633s-3.633-1.384-3.633-3.633v-71.141
		c0-2.249,1.384-3.46,3.633-3.46s3.633,1.211,3.633,3.46V613.512z"/>
	<path fill="#E53946" d="M868.915,546.177c-2.249,0-3.633-1.384-3.633-3.633s1.384-3.633,3.633-3.633h24.078
		c2.249,0,3.46,1.384,3.46,3.633s-1.211,3.633-3.46,3.633H868.915z"/>
	<path fill="#F9F9F9" d="M896.627,613.512c0,2.249-1.384,3.633-3.633,3.633s-3.633-1.384-3.633-3.633v-71.141
		c0-2.249,1.384-3.46,3.633-3.46s3.633,1.211,3.633,3.46V613.512z"/>
	<path fill="#467C9D" d="M868.915,573.925c-2.249,0-3.633-1.384-3.633-3.633s1.384-3.633,3.633-3.633h48.33
		c2.249,0,3.46,1.384,3.46,3.633s-1.211,3.633-3.46,3.633H868.915z"/>
	<path fill="#DBE5D8" d="M846.104,595.008c-2.249,0-3.633-1.384-3.633-3.633s1.384-3.633,3.633-3.633h71.141
		c2.249,0,3.46,1.384,3.46,3.633s-1.211,3.633-3.46,3.633H846.104z"/>
	<path fill="#EA5F69" d="M920.706,613.512c0,2.249-1.384,3.633-3.633,3.633s-3.633-1.384-3.633-3.633v-43.393
		c0-2.249,1.384-3.46,3.633-3.46s3.633,1.211,3.633,3.46V613.512z"/>
	<path fill="#A8D9DB" d="M846.104,617.145c-2.249,0-3.633-1.384-3.633-3.633s1.384-3.633,3.633-3.633h71.141
		c2.249,0,3.46,1.384,3.46,3.633s-1.211,3.633-3.46,3.633H846.104z"/>
</g>
<g>
	<path fill="#F9F9F9" d="M214.907,505.744c0,2.249-1.384,3.633-3.633,3.633s-3.633-1.384-3.633-3.633v-22.31
		c0-2.249,1.384-3.46,3.633-3.46s3.633,1.211,3.633,3.46V505.744z"/>
	<path fill="#EA5F69" d="M237.717,505.744c0,2.249-1.384,3.633-3.633,3.633s-3.633-1.384-3.633-3.633v-71.141
		c0-2.249,1.384-3.46,3.633-3.46s3.633,1.211,3.633,3.46V505.744z"/>
	<path fill="#E53946" d="M234.084,438.409c-2.249,0-3.633-1.384-3.633-3.633s1.384-3.633,3.633-3.633h24.079
		c2.249,0,3.46,1.384,3.46,3.633s-1.211,3.633-3.46,3.633H234.084z"/>
	<path fill="#F9F9F9" d="M261.796,505.744c0,2.249-1.384,3.633-3.633,3.633s-3.633-1.384-3.633-3.633v-71.141
		c0-2.249,1.384-3.46,3.633-3.46s3.633,1.211,3.633,3.46V505.744z"/>
	<path fill="#467C9D" d="M234.084,466.157c-2.249,0-3.633-1.384-3.633-3.633s1.384-3.633,3.633-3.633h48.33
		c2.249,0,3.46,1.384,3.46,3.633s-1.211,3.633-3.46,3.633H234.084z"/>
	<path fill="#DBE5D8" d="M211.273,487.24c-2.249,0-3.633-1.384-3.633-3.633s1.384-3.633,3.633-3.633h71.141
		c2.249,0,3.46,1.384,3.46,3.633s-1.211,3.633-3.46,3.633H211.273z"/>
	<path fill="#EA5F69" d="M285.875,505.744c0,2.249-1.384,3.633-3.633,3.633s-3.633-1.384-3.633-3.633v-43.393
		c0-2.249,1.384-3.46,3.633-3.46s3.633,1.211,3.633,3.46V505.744z"/>
	<path fill="#A8D9DB" d="M211.273,509.377c-2.249,0-3.633-1.384-3.633-3.633s1.384-3.633,3.633-3.633h71.141
		c2.249,0,3.46,1.384,3.46,3.633s-1.211,3.633-3.46,3.633H211.273z"/>
</g>
<g>
	<path fill="#F9F9F9" d="M489.059,505.744c0,2.249-1.384,3.633-3.633,3.633s-3.633-1.384-3.633-3.633v-22.31
		c0-2.249,1.384-3.46,3.633-3.46s3.633,1.211,3.633,3.46V505.744z"/>
	<path fill="#EA5F69" d="M511.87,505.744c0,2.249-1.384,3.633-3.633,3.633s-3.633-1.384-3.633-3.633v-71.141
		c0-2.249,1.384-3.46,3.633-3.46s3.633,1.211,3.633,3.46V505.744z"/>
	<path fill="#E53946" d="M508.236,438.409c-2.249,0-3.633-1.384-3.633-3.633s1.384-3.633,3.633-3.633h24.079
		c2.249,0,3.46,1.384,3.46,3.633s-1.211,3.633-3.46,3.633H508.236z"/>
	<path fill="#F9F9F9" d="M535.948,505.744c0,2.249-1.384,3.633-3.633,3.633s-3.633-1.384-3.633-3.633v-71.141
		c0-2.249,1.384-3.46,3.633-3.46s3.633,1.211,3.633,3.46V505.744z"/>
	<path fill="#467C9D" d="M508.236,466.157c-2.249,0-3.633-1.384-3.633-3.633s1.384-3.633,3.633-3.633h48.33
		c2.249,0,3.46,1.384,3.46,3.633s-1.211,3.633-3.46,3.633H508.236z"/>
	<path fill="#DBE5D8" d="M485.426,487.24c-2.249,0-3.633-1.384-3.633-3.633s1.384-3.633,3.633-3.633h71.141
		c2.249,0,3.46,1.384,3.46,3.633s-1.211,3.633-3.46,3.633H485.426z"/>
	<path fill="#EA5F69" d="M560.027,505.744c0,2.249-1.384,3.633-3.633,3.633s-3.633-1.384-3.633-3.633v-43.393
		c0-2.249,1.384-3.46,3.633-3.46s3.633,1.211,3.633,3.46V505.744z"/>
	<path fill="#A8D9DB" d="M485.426,509.377c-2.249,0-3.633-1.384-3.633-3.633s1.384-3.633,3.633-3.633h71.141
		c2.249,0,3.46,1.384,3.46,3.633s-1.211,3.633-3.46,3.633H485.426z"/>
</g>
<g>
	<path fill="#F9F9F9" d="M584.068,505.744c0,2.249-1.384,3.633-3.633,3.633s-3.633-1.384-3.633-3.633v-22.31
		c0-2.249,1.384-3.46,3.633-3.46s3.633,1.211,3.633,3.46V505.744z"/>
	<path fill="#EA5F69" d="M606.879,505.744c0,2.249-1.384,3.633-3.633,3.633s-3.633-1.384-3.633-3.633v-71.141
		c0-2.249,1.384-3.46,3.633-3.46s3.633,1.211,3.633,3.46V505.744z"/>
	<path fill="#E53946" d="M603.245,438.409c-2.249,0-3.633-1.384-3.633-3.633s1.384-3.633,3.633-3.633h24.079
		c2.249,0,3.46,1.384,3.46,3.633s-1.211,3.633-3.46,3.633H603.245z"/>
	<path fill="#F9F9F9" d="M630.957,505.744c0,2.249-1.384,3.633-3.633,3.633s-3.633-1.384-3.633-3.633v-71.141
		c0-2.249,1.384-3.46,3.633-3.46s3.633,1.211,3.633,3.46V505.744z"/>
	<path fill="#467C9D" d="M603.245,466.157c-2.249,0-3.633-1.384-3.633-3.633s1.384-3.633,3.633-3.633h48.33
		c2.249,0,3.46,1.384,3.46,3.633s-1.211,3.633-3.46,3.633H603.245z"/>
	<path fill="#DBE5D8" d="M580.435,487.24c-2.249,0-3.633-1.384-3.633-3.633s1.384-3.633,3.633-3.633h71.141
		c2.249,0,3.46,1.384,3.46,3.633s-1.211,3.633-3.46,3.633H580.435z"/>
	<path fill="#EA5F69" d="M655.036,505.744c0,2.249-1.384,3.633-3.633,3.633s-3.633-1.384-3.633-3.633v-43.393
		c0-2.249,1.384-3.46,3.633-3.46s3.633,1.211,3.633,3.46V505.744z"/>
	<path fill="#A8D9DB" d="M580.435,509.377c-2.249,0-3.633-1.384-3.633-3.633s1.384-3.633,3.633-3.633h71.141
		c2.249,0,3.46,1.384,3.46,3.633s-1.211,3.633-3.46,3.633H580.435z"/>
</g>
<g>
	<path fill="#F9F9F9" d="M662.162,400.117c0,2.249-1.384,3.633-3.633,3.633s-3.633-1.384-3.633-3.633v-22.31
		c0-2.249,1.384-3.46,3.633-3.46s3.633,1.211,3.633,3.46V400.117z"/>
	<path fill="#EA5F69" d="M684.973,400.117c0,2.249-1.384,3.633-3.633,3.633s-3.633-1.384-3.633-3.633v-71.141
		c0-2.249,1.384-3.46,3.633-3.46s3.633,1.211,3.633,3.46V400.117z"/>
	<path fill="#E53946" d="M681.339,332.782c-2.249,0-3.633-1.384-3.633-3.633c0-2.249,1.384-3.633,3.633-3.633h24.079
		c2.249,0,3.46,1.384,3.46,3.633c0,2.249-1.211,3.633-3.46,3.633H681.339z"/>
	<path fill="#F9F9F9" d="M709.051,400.117c0,2.249-1.384,3.633-3.633,3.633s-3.633-1.384-3.633-3.633v-71.141
		c0-2.249,1.384-3.46,3.633-3.46s3.633,1.211,3.633,3.46V400.117z"/>
	<path fill="#467C9D" d="M681.339,360.531c-2.249,0-3.633-1.384-3.633-3.633s1.384-3.633,3.633-3.633h48.33
		c2.249,0,3.46,1.384,3.46,3.633s-1.211,3.633-3.46,3.633H681.339z"/>
	<path fill="#DBE5D8" d="M658.529,381.614c-2.249,0-3.633-1.384-3.633-3.633s1.384-3.633,3.633-3.633h71.141
		c2.249,0,3.46,1.384,3.46,3.633s-1.211,3.633-3.46,3.633H658.529z"/>
	<path fill="#EA5F69" d="M733.13,400.117c0,2.249-1.384,3.633-3.633,3.633s-3.633-1.384-3.633-3.633v-43.393
		c0-2.249,1.384-3.46,3.633-3.46s3.633,1.211,3.633,3.46V400.117z"/>
	<path fill="#A8D9DB" d="M658.529,403.75c-2.249,0-3.633-1.384-3.633-3.633s1.384-3.633,3.633-3.633h71.141
		c2.249,0,3.46,1.384,3.46,3.633s-1.211,3.633-3.46,3.633H658.529z"/>
</g>
<g>
	<path fill="#E53946" d="M27.717,503.444l28.325-28.325c1.59-1.59,3.548-1.59,5.138,0c1.591,1.591,1.591,3.548,0,5.138
		l-28.325,28.325c-1.59,1.59-3.425,1.468-5.016-0.122C26.249,506.869,26.127,505.034,27.717,503.444z"/>
	<path fill="#A8D9DB" d="M61.18,473.873c1.591,1.59,1.591,3.548,0,5.138c-1.59,1.59-3.548,1.59-5.138,0l-28.325-28.325
		c-1.59-1.591-1.468-3.426,0.122-5.016c1.591-1.591,3.426-1.713,5.016-0.122L61.18,473.873z"/>
	<path fill="#F9F9F9" d="M96.933,473.873c1.591,1.59,1.591,3.548,0,5.138c-1.59,1.59-3.548,1.59-5.138,0L63.47,450.686
		c-1.59-1.591-1.468-3.426,0.122-5.016c1.59-1.591,3.426-1.713,5.016-0.122L96.933,473.873z"/>
	<path fill="#DBE5D8" d="M63.47,503.444l28.325-28.325c1.591-1.59,3.548-1.59,5.138,0c1.591,1.591,1.591,3.548,0,5.138
		l-28.325,28.325c-1.59,1.59-3.425,1.468-5.016-0.122C62.002,506.869,61.879,505.034,63.47,503.444z"/>
</g>
<g>
	<path fill="#E53946" d="M27.717,397.817l28.325-28.325c1.59-1.59,3.548-1.59,5.138,0c1.591,1.591,1.591,3.548,0,5.138
		l-28.325,28.325c-1.59,1.59-3.425,1.468-5.016-0.122C26.249,401.243,26.127,399.408,27.717,397.817z"/>
	<path fill="#A8D9DB" d="M61.18,368.247c1.591,1.59,1.591,3.548,0,5.138c-1.59,1.59-3.548,1.59-5.138,0L27.717,345.06
		c-1.59-1.591-1.468-3.426,0.122-5.016c1.591-1.591,3.426-1.713,5.016-0.122L61.18,368.247z"/>
	<path fill="#F9F9F9" d="M96.933,368.247c1.591,1.59,1.591,3.548,0,5.138c-1.59,1.59-3.548,1.59-5.138,0L63.47,345.06
		c-1.59-1.591-1.468-3.426,0.122-5.016c1.59-1.591,3.426-1.713,5.016-0.122L96.933,368.247z"/>
	<path fill="#DBE5D8" d="M63.47,397.817l28.325-28.325c1.591-1.59,3.548-1.59,5.138,0c1.591,1.591,1.591,3.548,0,5.138
		l-28.325,28.325c-1.59,1.59-3.425,1.468-5.016-0.122C62.002,401.243,61.879,399.408,63.47,397.817z"/>
</g>
<g>
	<path fill="#E53946" d="M755.103,292.191l28.325-28.325c1.59-1.59,3.548-1.59,5.138,0c1.591,1.591,1.591,3.548,0,5.138
		l-28.325,28.325c-1.59,1.59-3.425,1.468-5.016-0.122C753.635,295.616,753.513,293.781,755.103,292.191z"/>
	<path fill="#A8D9DB" d="M788.566,262.62c1.591,1.59,1.591,3.548,0,5.138c-1.59,1.59-3.548,1.59-5.138,0l-28.325-28.325
		c-1.59-1.591-1.468-3.426,0.122-5.016c1.591-1.591,3.426-1.713,5.016-0.122L788.566,262.62z"/>
	<path fill="#F9F9F9" d="M824.319,262.62c1.591,1.59,1.591,3.548,0,5.138c-1.59,1.59-3.548,1.59-5.138,0l-28.325-28.325
		c-1.59-1.591-1.468-3.426,0.122-5.016c1.59-1.591,3.426-1.713,5.016-0.122L824.319,262.62z"/>
	<path fill="#DBE5D8" d="M790.855,292.191l28.325-28.325c1.591-1.59,3.548-1.59,5.138,0c1.591,1.591,1.591,3.548,0,5.138
		l-28.325,28.325c-1.59,1.59-3.425,1.468-5.016-0.122C789.387,295.616,789.265,293.781,790.855,292.191z"/>
</g>
<g>
	<path fill="#E53946" d="M751.775,398.372l28.325-28.325c1.59-1.59,3.548-1.59,5.138,0c1.591,1.591,1.591,3.548,0,5.138
		l-28.325,28.325c-1.59,1.59-3.425,1.468-5.016-0.122C750.307,401.797,750.185,399.962,751.775,398.372z"/>
	<path fill="#A8D9DB" d="M785.239,368.801c1.591,1.59,1.591,3.548,0,5.138c-1.59,1.59-3.548,1.59-5.138,0l-28.325-28.325
		c-1.59-1.591-1.468-3.426,0.122-5.016c1.591-1.591,3.426-1.713,5.016-0.122L785.239,368.801z"/>
	<path fill="#F9F9F9" d="M820.991,368.801c1.591,1.59,1.591,3.548,0,5.138c-1.59,1.59-3.548,1.59-5.138,0l-28.325-28.325
		c-1.59-1.591-1.468-3.426,0.122-5.016c1.59-1.591,3.426-1.713,5.016-0.122L820.991,368.801z"/>
	<path fill="#DBE5D8" d="M787.528,398.372l28.325-28.325c1.591-1.59,3.548-1.59,5.138,0c1.591,1.591,1.591,3.548,0,5.138
		l-28.325,28.325c-1.59,1.59-3.425,1.468-5.016-0.122C786.06,401.797,785.938,399.962,787.528,398.372z"/>
</g>
<g>
	<path fill="#E53946" d="M399.755,503.646l28.325-28.325c1.59-1.59,3.548-1.59,5.138,0c1.591,1.591,1.591,3.548,0,5.138
		l-28.325,28.325c-1.59,1.59-3.425,1.468-5.016-0.122C398.287,507.072,398.165,505.237,399.755,503.646z"/>
	<path fill="#A8D9DB" d="M433.218,474.076c1.591,1.59,1.591,3.548,0,5.138c-1.59,1.59-3.548,1.59-5.138,0l-28.325-28.325
		c-1.59-1.591-1.468-3.426,0.122-5.016c1.591-1.591,3.426-1.713,5.016-0.122L433.218,474.076z"/>
	<path fill="#F9F9F9" d="M468.971,474.076c1.591,1.59,1.591,3.548,0,5.138c-1.59,1.59-3.548,1.59-5.138,0l-28.325-28.325
		c-1.59-1.591-1.468-3.426,0.122-5.016c1.59-1.591,3.426-1.713,5.016-0.122L468.971,474.076z"/>
	<path fill="#DBE5D8" d="M435.507,503.646l28.325-28.325c1.591-1.59,3.548-1.59,5.138,0c1.591,1.591,1.591,3.548,0,5.138
		l-28.325,28.325c-1.59,1.59-3.425,1.468-5.016-0.122C434.04,507.072,433.917,505.237,435.507,503.646z"/>
</g>
<g>
	<path fill="#EA5F69" d="M883.448,272.161c-4.872,0-8.785-4.073-8.785-8.865s3.913-8.865,8.785-8.865
		c4.792,0,8.865,4.073,8.865,8.865S888.24,272.161,883.448,272.161z"/>
	<path fill="#DBE5D8" d="M848.291,290.12h70.554c2.231,0,3.603,1.373,3.603,3.603s-1.373,3.603-3.603,3.603h-70.554
		c-2.231,0-3.432-1.373-3.432-3.603S846.061,290.12,848.291,290.12z"/>
	<path fill="#F9F9F9" d="M884.993,218.222l35.006,35.006c1.577,1.577,1.577,3.519,0,5.096c-1.577,1.577-3.519,1.577-5.096,0
		l-35.006-35.006c-1.577-1.577-1.456-3.397,0.121-4.974C881.596,216.766,883.416,216.645,884.993,218.222z"/>
	<path fill="#E53946" d="M884.48,218.343c1.577,1.577,1.699,3.397,0.121,4.974l-35.006,35.006c-1.577,1.577-3.519,1.577-5.096,0
		s-1.577-3.519,0-5.096l35.006-35.006C881.083,216.645,882.902,216.766,884.48,218.343z"/>
</g>
<g>
	<path fill="#EA5F69" d="M879.311,377.845c-4.872,0-8.785-4.073-8.785-8.865s3.913-8.865,8.785-8.865
		c4.792,0,8.865,4.073,8.865,8.865C888.176,373.772,884.103,377.845,879.311,377.845z"/>
	<path fill="#DBE5D8" d="M844.155,395.804h70.554c2.231,0,3.603,1.373,3.603,3.603c0,2.231-1.373,3.603-3.603,3.603h-70.554
		c-2.231,0-3.432-1.373-3.432-3.603C840.723,397.177,841.924,395.804,844.155,395.804z"/>
	<path fill="#F9F9F9" d="M880.857,323.906l35.006,35.006c1.577,1.577,1.577,3.519,0,5.096s-3.519,1.577-5.096,0l-35.006-35.006
		c-1.577-1.577-1.456-3.397,0.121-4.974C877.46,322.45,879.28,322.329,880.857,323.906z"/>
	<path fill="#E53946" d="M880.343,324.027c1.577,1.577,1.699,3.397,0.121,4.974l-35.006,35.006c-1.577,1.577-3.519,1.577-5.096,0
		s-1.577-3.519,0-5.096l35.006-35.006C876.946,322.329,878.766,322.45,880.343,324.027z"/>
</g>
<g>
	<path fill="#EA5F69" d="M879.311,483.137c-4.872,0-8.785-4.073-8.785-8.865s3.913-8.865,8.785-8.865
		c4.792,0,8.865,4.073,8.865,8.865C888.176,479.064,884.103,483.137,879.311,483.137z"/>
	<path fill="#DBE5D8" d="M844.155,501.096h70.554c2.231,0,3.603,1.373,3.603,3.603c0,2.231-1.373,3.603-3.603,3.603h-70.554
		c-2.231,0-3.432-1.373-3.432-3.603S841.924,501.096,844.155,501.096z"/>
	<path fill="#F9F9F9" d="M880.857,429.198l35.006,35.006c1.577,1.577,1.577,3.519,0,5.096s-3.519,1.577-5.096,0l-35.006-35.006
		c-1.577-1.577-1.456-3.397,0.121-4.974C877.46,427.742,879.28,427.621,880.857,429.198z"/>
	<path fill="#E53946" d="M880.343,429.32c1.577,1.577,1.699,3.397,0.121,4.974L845.459,469.3c-1.577,1.577-3.519,1.577-5.096,0
		s-1.577-3.519,0-5.096l35.006-35.006C876.946,427.621,878.766,427.742,880.343,429.32z"/>
</g>
<g>
	<path fill="#EA5F69" d="M343.083,483.137c-4.872,0-8.785-4.073-8.785-8.865s3.913-8.865,8.785-8.865
		c4.792,0,8.865,4.073,8.865,8.865S347.875,483.137,343.083,483.137z"/>
	<path fill="#DBE5D8" d="M307.927,501.096h70.554c2.231,0,3.603,1.373,3.603,3.603c0,2.231-1.373,3.603-3.603,3.603h-70.554
		c-2.231,0-3.432-1.373-3.432-3.603S305.696,501.096,307.927,501.096z"/>
	<path fill="#F9F9F9" d="M344.629,429.198l35.006,35.006c1.577,1.577,1.577,3.519,0,5.096s-3.519,1.577-5.096,0l-35.006-35.006
		c-1.577-1.577-1.456-3.397,0.121-4.974C341.232,427.742,343.052,427.621,344.629,429.198z"/>
	<path fill="#E53946" d="M344.115,429.32c1.577,1.577,1.699,3.397,0.121,4.974L309.231,469.3c-1.577,1.577-3.519,1.577-5.096,0
		s-1.577-3.519,0-5.096l35.006-35.006C340.718,427.621,342.538,427.742,344.115,429.32z"/>
</g>
<g>
	<path fill="#A8D9DB" d="M115.314,170.163c0-2.705,2.209-5.004,4.959-5.004c2.705,0,5.004,2.299,5.004,5.004
		c0,2.705-2.299,5.005-5.004,5.005C117.523,175.167,115.314,172.868,115.314,170.163z"/>
	<path fill="#467C9D" d="M130.595,192.461c0-2.705,2.209-5.004,4.959-5.004c2.705,0,5.004,2.299,5.004,5.004
		s-2.299,5.005-5.004,5.005C132.804,197.466,130.595,195.166,130.595,192.461z"/>
	<path fill="#EA5F69" d="M150.821,131.656c0-2.705,2.209-5.004,4.959-5.004c2.705,0,5.005,2.299,5.005,5.004
		c0,2.705-2.299,5.005-5.005,5.005C153.03,136.661,150.821,134.361,150.821,131.656z"/>
	<path fill="#DBE5D8" d="M161.945,170.163c0-2.705,2.209-5.004,4.959-5.004c2.705,0,5.004,2.299,5.004,5.004
		c0,2.705-2.299,5.005-5.004,5.005C164.154,175.167,161.945,172.868,161.945,170.163z"/>
	<path fill="#F9F9F9" d="M174.383,149.746c0-2.705,2.209-5.005,4.959-5.005c2.705,0,5.004,2.299,5.004,5.005
		c0,2.705-2.299,5.004-5.004,5.004C176.592,154.75,174.383,152.451,174.383,149.746z"/>
	<path fill="#E53946" d="M174.383,197.466c0-2.705,2.209-5.005,4.959-5.005c2.705,0,5.004,2.299,5.004,5.005
		c0,2.705-2.299,5.004-5.004,5.004C176.592,202.47,174.383,200.17,174.383,197.466z"/>
</g>
<g>
	<path fill="#A8D9DB" d="M666.265,170.163c0-2.705,2.209-5.004,4.959-5.004c2.705,0,5.004,2.299,5.004,5.004
		c0,2.705-2.299,5.005-5.004,5.005C668.474,175.167,666.265,172.868,666.265,170.163z"/>
	<path fill="#467C9D" d="M681.547,192.461c0-2.705,2.209-5.004,4.959-5.004c2.705,0,5.004,2.299,5.004,5.004
		s-2.299,5.005-5.004,5.005C683.755,197.466,681.547,195.166,681.547,192.461z"/>
	<path fill="#EA5F69" d="M701.773,131.656c0-2.705,2.209-5.004,4.959-5.004c2.705,0,5.005,2.299,5.005,5.004
		c0,2.705-2.299,5.005-5.005,5.005C703.982,136.661,701.773,134.361,701.773,131.656z"/>
	<path fill="#DBE5D8" d="M712.897,170.163c0-2.705,2.209-5.004,4.959-5.004c2.705,0,5.004,2.299,5.004,5.004
		c0,2.705-2.299,5.005-5.004,5.005C715.106,175.167,712.897,172.868,712.897,170.163z"/>
	<path fill="#F9F9F9" d="M725.335,149.746c0-2.705,2.209-5.005,4.959-5.005c2.705,0,5.004,2.299,5.004,5.005
		c0,2.705-2.299,5.004-5.004,5.004C727.544,154.75,725.335,152.451,725.335,149.746z"/>
	<path fill="#E53946" d="M725.335,197.466c0-2.705,2.209-5.005,4.959-5.005c2.705,0,5.004,2.299,5.004,5.005
		c0,2.705-2.299,5.004-5.004,5.004C727.544,202.47,725.335,200.17,725.335,197.466z"/>
</g>
<g>
	<path fill="#A8D9DB" d="M752.142,170.163c0-2.705,2.209-5.004,4.959-5.004c2.705,0,5.004,2.299,5.004,5.004
		c0,2.705-2.299,5.005-5.004,5.005C754.351,175.167,752.142,172.868,752.142,170.163z"/>
	<path fill="#467C9D" d="M767.423,192.461c0-2.705,2.209-5.004,4.959-5.004c2.705,0,5.004,2.299,5.004,5.004
		s-2.299,5.005-5.004,5.005C769.632,197.466,767.423,195.166,767.423,192.461z"/>
	<path fill="#EA5F69" d="M787.65,131.656c0-2.705,2.209-5.004,4.959-5.004c2.705,0,5.005,2.299,5.005,5.004
		c0,2.705-2.299,5.005-5.005,5.005C789.859,136.661,787.65,134.361,787.65,131.656z"/>
	<path fill="#DBE5D8" d="M798.773,170.163c0-2.705,2.209-5.004,4.959-5.004c2.705,0,5.004,2.299,5.004,5.004
		c0,2.705-2.299,5.005-5.004,5.005C800.982,175.167,798.773,172.868,798.773,170.163z"/>
	<path fill="#F9F9F9" d="M811.211,149.746c0-2.705,2.209-5.005,4.959-5.005c2.705,0,5.004,2.299,5.004,5.005
		c0,2.705-2.299,5.004-5.004,5.004C813.42,154.75,811.211,152.451,811.211,149.746z"/>
	<path fill="#E53946" d="M811.211,197.466c0-2.705,2.209-5.005,4.959-5.005c2.705,0,5.004,2.299,5.004,5.005
		c0,2.705-2.299,5.004-5.004,5.004C813.42,202.47,811.211,200.17,811.211,197.466z"/>
</g>
<g>
	<path fill="#F9F9F9" d="M214.907,195.852c0,2.249-1.384,3.633-3.633,3.633s-3.633-1.384-3.633-3.633v-22.31
		c0-2.249,1.384-3.46,3.633-3.46s3.633,1.211,3.633,3.46V195.852z"/>
	<path fill="#EA5F69" d="M237.717,195.852c0,2.249-1.384,3.633-3.633,3.633s-3.633-1.384-3.633-3.633v-71.141
		c0-2.249,1.384-3.46,3.633-3.46s3.633,1.211,3.633,3.46V195.852z"/>
	<path fill="#E53946" d="M234.084,128.517c-2.249,0-3.633-1.384-3.633-3.633c0-2.249,1.384-3.633,3.633-3.633h24.079
		c2.249,0,3.46,1.384,3.46,3.633c0,2.249-1.211,3.633-3.46,3.633H234.084z"/>
	<path fill="#F9F9F9" d="M261.796,195.852c0,2.249-1.384,3.633-3.633,3.633s-3.633-1.384-3.633-3.633v-71.141
		c0-2.249,1.384-3.46,3.633-3.46s3.633,1.211,3.633,3.46V195.852z"/>
	<path fill="#467C9D" d="M234.084,156.266c-2.249,0-3.633-1.384-3.633-3.633s1.384-3.633,3.633-3.633h48.33
		c2.249,0,3.46,1.384,3.46,3.633c0,2.249-1.211,3.633-3.46,3.633C282.414,156.266,234.084,156.266,234.084,156.266z"/>
	<path fill="#DBE5D8" d="M211.273,177.349c-2.249,0-3.633-1.384-3.633-3.633c0-2.249,1.384-3.633,3.633-3.633h71.141
		c2.249,0,3.46,1.384,3.46,3.633c0,2.249-1.211,3.633-3.46,3.633H211.273z"/>
	<path fill="#EA5F69" d="M285.875,195.852c0,2.249-1.384,3.633-3.633,3.633s-3.633-1.384-3.633-3.633V152.46
		c0-2.249,1.384-3.46,3.633-3.46s3.633,1.211,3.633,3.46V195.852z"/>
	<path fill="#A8D9DB" d="M211.273,199.485c-2.249,0-3.633-1.384-3.633-3.633c0-2.249,1.384-3.633,3.633-3.633h71.141
		c2.249,0,3.46,1.384,3.46,3.633c0,2.249-1.211,3.633-3.46,3.633H211.273z"/>
</g>
<g>
	<path fill="#F9F9F9" d="M489.059,195.852c0,2.249-1.384,3.633-3.633,3.633s-3.633-1.384-3.633-3.633v-22.31
		c0-2.249,1.384-3.46,3.633-3.46s3.633,1.211,3.633,3.46V195.852z"/>
	<path fill="#EA5F69" d="M511.87,195.852c0,2.249-1.384,3.633-3.633,3.633s-3.633-1.384-3.633-3.633v-71.141
		c0-2.249,1.384-3.46,3.633-3.46s3.633,1.211,3.633,3.46V195.852z"/>
	<path fill="#E53946" d="M508.236,128.517c-2.249,0-3.633-1.384-3.633-3.633c0-2.249,1.384-3.633,3.633-3.633h24.079
		c2.249,0,3.46,1.384,3.46,3.633c0,2.249-1.211,3.633-3.46,3.633H508.236z"/>
	<path fill="#F9F9F9" d="M535.948,195.852c0,2.249-1.384,3.633-3.633,3.633s-3.633-1.384-3.633-3.633v-71.141
		c0-2.249,1.384-3.46,3.633-3.46s3.633,1.211,3.633,3.46V195.852z"/>
	<path fill="#467C9D" d="M508.236,156.266c-2.249,0-3.633-1.384-3.633-3.633s1.384-3.633,3.633-3.633h48.33
		c2.249,0,3.46,1.384,3.46,3.633c0,2.249-1.211,3.633-3.46,3.633C556.566,156.266,508.236,156.266,508.236,156.266z"/>
	<path fill="#DBE5D8" d="M485.426,177.349c-2.249,0-3.633-1.384-3.633-3.633c0-2.249,1.384-3.633,3.633-3.633h71.141
		c2.249,0,3.46,1.384,3.46,3.633c0,2.249-1.211,3.633-3.46,3.633H485.426z"/>
	<path fill="#EA5F69" d="M560.027,195.852c0,2.249-1.384,3.633-3.633,3.633s-3.633-1.384-3.633-3.633V152.46
		c0-2.249,1.384-3.46,3.633-3.46s3.633,1.211,3.633,3.46V195.852z"/>
	<path fill="#A8D9DB" d="M485.426,199.485c-2.249,0-3.633-1.384-3.633-3.633c0-2.249,1.384-3.633,3.633-3.633h71.141
		c2.249,0,3.46,1.384,3.46,3.633c0,2.249-1.211,3.633-3.46,3.633H485.426z"/>
</g>
<g>
	<path fill="#F9F9F9" d="M584.068,195.852c0,2.249-1.384,3.633-3.633,3.633s-3.633-1.384-3.633-3.633v-22.31
		c0-2.249,1.384-3.46,3.633-3.46s3.633,1.211,3.633,3.46V195.852z"/>
	<path fill="#EA5F69" d="M606.879,195.852c0,2.249-1.384,3.633-3.633,3.633s-3.633-1.384-3.633-3.633v-71.141
		c0-2.249,1.384-3.46,3.633-3.46s3.633,1.211,3.633,3.46V195.852z"/>
	<path fill="#E53946" d="M603.245,128.517c-2.249,0-3.633-1.384-3.633-3.633c0-2.249,1.384-3.633,3.633-3.633h24.079
		c2.249,0,3.46,1.384,3.46,3.633c0,2.249-1.211,3.633-3.46,3.633H603.245z"/>
	<path fill="#F9F9F9" d="M630.957,195.852c0,2.249-1.384,3.633-3.633,3.633s-3.633-1.384-3.633-3.633v-71.141
		c0-2.249,1.384-3.46,3.633-3.46s3.633,1.211,3.633,3.46V195.852z"/>
	<path fill="#467C9D" d="M603.245,156.266c-2.249,0-3.633-1.384-3.633-3.633s1.384-3.633,3.633-3.633h48.33
		c2.249,0,3.46,1.384,3.46,3.633c0,2.249-1.211,3.633-3.46,3.633C651.575,156.266,603.245,156.266,603.245,156.266z"/>
	<path fill="#DBE5D8" d="M580.435,177.349c-2.249,0-3.633-1.384-3.633-3.633c0-2.249,1.384-3.633,3.633-3.633h71.141
		c2.249,0,3.46,1.384,3.46,3.633c0,2.249-1.211,3.633-3.46,3.633H580.435z"/>
	<path fill="#EA5F69" d="M655.036,195.852c0,2.249-1.384,3.633-3.633,3.633s-3.633-1.384-3.633-3.633V152.46
		c0-2.249,1.384-3.46,3.633-3.46s3.633,1.211,3.633,3.46V195.852z"/>
	<path fill="#A8D9DB" d="M580.435,199.485c-2.249,0-3.633-1.384-3.633-3.633c0-2.249,1.384-3.633,3.633-3.633h71.141
		c2.249,0,3.46,1.384,3.46,3.633c0,2.249-1.211,3.633-3.46,3.633H580.435z"/>
</g>
<g>
	<path fill="#E53946" d="M27.717,193.552l28.325-28.325c1.59-1.59,3.548-1.59,5.138,0c1.591,1.591,1.591,3.548,0,5.138
		L32.855,198.69c-1.59,1.59-3.425,1.468-5.016-0.122C26.249,196.978,26.127,195.143,27.717,193.552z"/>
	<path fill="#A8D9DB" d="M61.18,163.982c1.591,1.59,1.591,3.548,0,5.138c-1.59,1.59-3.548,1.59-5.138,0l-28.325-28.325
		c-1.59-1.591-1.468-3.426,0.122-5.016c1.591-1.591,3.426-1.713,5.016-0.122L61.18,163.982z"/>
	<path fill="#F9F9F9" d="M96.933,163.982c1.591,1.59,1.591,3.548,0,5.138c-1.59,1.59-3.548,1.59-5.138,0L63.47,140.795
		c-1.59-1.591-1.468-3.426,0.122-5.016c1.59-1.591,3.426-1.713,5.016-0.122L96.933,163.982z"/>
	<path fill="#DBE5D8" d="M63.47,193.552l28.325-28.325c1.591-1.59,3.548-1.59,5.138,0c1.591,1.591,1.591,3.548,0,5.138
		L68.608,198.69c-1.59,1.59-3.425,1.468-5.016-0.122C62.002,196.978,61.879,195.143,63.47,193.552z"/>
</g>
<g>
	<path fill="#E53946" d="M399.755,193.755l28.325-28.325c1.59-1.59,3.548-1.59,5.138,0c1.591,1.591,1.591,3.548,0,5.138
		l-28.325,28.325c-1.59,1.59-3.425,1.468-5.016-0.122C398.287,197.181,398.165,195.346,399.755,193.755z"/>
	<path fill="#A8D9DB" d="M433.218,164.185c1.591,1.59,1.591,3.548,0,5.138c-1.59,1.59-3.548,1.59-5.138,0l-28.325-28.325
		c-1.59-1.591-1.468-3.426,0.122-5.016c1.591-1.591,3.426-1.713,5.016-0.122L433.218,164.185z"/>
	<path fill="#F9F9F9" d="M468.971,164.185c1.591,1.59,1.591,3.548,0,5.138c-1.59,1.59-3.548,1.59-5.138,0l-28.325-28.325
		c-1.59-1.591-1.468-3.426,0.122-5.016c1.59-1.591,3.426-1.713,5.016-0.122L468.971,164.185z"/>
	<path fill="#DBE5D8" d="M435.507,193.755l28.325-28.325c1.591-1.59,3.548-1.59,5.138,0c1.591,1.591,1.591,3.548,0,5.138
		l-28.325,28.325c-1.59,1.59-3.425,1.468-5.016-0.122C434.04,197.181,433.917,195.346,435.507,193.755z"/>
</g>
<g>
	<path fill="#EA5F69" d="M343.083,173.246c-4.872,0-8.785-4.073-8.785-8.865c0-4.792,3.913-8.865,8.785-8.865
		c4.792,0,8.865,4.073,8.865,8.865C351.948,169.173,347.875,173.246,343.083,173.246z"/>
	<path fill="#DBE5D8" d="M307.927,191.205h70.554c2.231,0,3.603,1.373,3.603,3.603s-1.373,3.603-3.603,3.603h-70.554
		c-2.231,0-3.432-1.373-3.432-3.603S305.696,191.205,307.927,191.205z"/>
	<path fill="#F9F9F9" d="M344.629,119.307l35.006,35.006c1.577,1.577,1.577,3.519,0,5.096c-1.577,1.577-3.519,1.577-5.096,0
		l-35.006-35.006c-1.577-1.577-1.456-3.397,0.121-4.974C341.232,117.851,343.052,117.73,344.629,119.307z"/>
	<path fill="#E53946" d="M344.115,119.428c1.577,1.577,1.699,3.397,0.121,4.974l-35.006,35.006c-1.577,1.577-3.519,1.577-5.096,0
		c-1.577-1.577-1.577-3.519,0-5.096l35.006-35.006C340.718,117.73,342.538,117.851,344.115,119.428z"/>
</g>
<g>
	<g>
		<path fill="#F9F9F9" d="M262.889,226.208l25.963,42.078c1.17,1.896,0.723,3.783-1.173,4.952c-1.896,1.17-3.783,0.723-4.952-1.173
			l-25.963-42.078c-1.17-1.896-0.633-3.637,1.263-4.807C259.922,224.011,261.719,224.312,262.889,226.208z"/>
		<path fill="#E53946" d="M262.362,226.208c1.17,1.896,0.869,3.693-1.027,4.862l-42.078,25.963c-1.896,1.17-3.783,0.723-4.952-1.173
			c-1.169-1.896-0.723-3.783,1.173-4.952l42.078-25.963C259.451,223.775,261.192,224.312,262.362,226.208z"/>
		<path fill="#A8D9DB" d="M239.983,299.138L214.02,257.06c-1.17-1.896-0.723-3.783,1.173-4.952s3.783-0.723,4.952,1.173
			l25.963,42.078c1.17,1.896,0.633,3.637-1.263,4.807C242.949,301.335,241.153,301.034,239.983,299.138z"/>
		<path fill="#DBE5D8" d="M240.51,299.138c-1.17-1.896-0.869-3.693,1.027-4.862l42.078-25.963c1.896-1.17,3.783-0.723,4.952,1.173
			c1.169,1.896,0.723,3.783-1.173,4.952l-42.078,25.963C243.421,301.571,241.68,301.034,240.51,299.138z"/>
	</g>
	<path fill="#EA5F69" d="M272.111,268.467v28.545c0,2.228-1.371,3.599-3.599,3.599s-3.599-1.371-3.599-3.599v-28.545
		c0-2.228,1.371-3.427,3.599-3.427S272.111,266.239,272.111,268.467z"/>
</g>
<g>
	<g>
		<path fill="#F9F9F9" d="M893.042,124.127l25.963,42.078c1.17,1.896,0.723,3.783-1.173,4.952c-1.896,1.17-3.783,0.723-4.952-1.173
			l-25.963-42.078c-1.17-1.896-0.633-3.637,1.263-4.807S891.872,122.231,893.042,124.127z"/>
		<path fill="#E53946" d="M892.514,124.126c1.17,1.896,0.869,3.693-1.027,4.862l-42.078,25.963c-1.896,1.17-3.783,0.723-4.952-1.173
			c-1.17-1.896-0.723-3.783,1.173-4.952l42.078-25.963C889.604,121.693,891.344,122.23,892.514,124.126z"/>
		<path fill="#A8D9DB" d="M870.135,197.057l-25.963-42.078c-1.17-1.896-0.723-3.783,1.173-4.952c1.896-1.17,3.783-0.723,4.952,1.173
			l25.963,42.078c1.17,1.896,0.633,3.637-1.263,4.807C873.102,199.253,871.305,198.952,870.135,197.057z"/>
		<path fill="#DBE5D8" d="M870.663,197.057c-1.17-1.896-0.869-3.693,1.027-4.862l42.078-25.963c1.896-1.17,3.783-0.723,4.952,1.173
			c1.17,1.896,0.723,3.783-1.173,4.952l-42.078,25.963C873.573,199.49,871.832,198.953,870.663,197.057z"/>
	</g>
	<path fill="#EA5F69" d="M902.264,166.385v28.545c0,2.228-1.371,3.599-3.599,3.599s-3.599-1.371-3.599-3.599v-28.545
		c0-2.228,1.371-3.427,3.599-3.427S902.264,164.158,902.264,166.385z"/>
</g>
<g>
	<path fill="#EA5F69" d="M245.209,377.974c-5.588,0-10.077-4.672-10.077-10.169s4.489-10.169,10.077-10.169
		c5.497,0,10.169,4.672,10.169,10.169C255.379,373.302,250.706,377.974,245.209,377.974z"/>
	<path fill="#DBE5D8" d="M248.855,332.936v11.054c0,2.229-1.371,3.6-3.6,3.6s-3.6-1.371-3.6-3.6v-11.054
		c0-2.229,1.371-3.429,3.6-3.429S248.855,330.708,248.855,332.936z"/>
	<path fill="#F9F9F9" d="M272.457,345.695l-7.817,7.817c-1.576,1.576-3.515,1.576-5.091,0s-1.576-3.515,0-5.091l7.817-7.817
		c1.576-1.576,3.394-1.455,4.97,0.121S274.033,344.119,272.457,345.695z"/>
	<path fill="#467C9D" d="M280.124,371.405H269.07c-2.229,0-3.6-1.371-3.6-3.6s1.371-3.6,3.6-3.6h11.054
		c2.229,0,3.429,1.371,3.429,3.6C283.553,370.034,282.353,371.405,280.124,371.405z"/>
	<path fill="#E53946" d="M267.366,395.007l-7.817-7.817c-1.576-1.576-1.576-3.515,0-5.091s3.515-1.576,5.091,0l7.817,7.817
		c1.576,1.576,1.455,3.394-0.121,4.97C270.76,396.462,268.942,396.583,267.366,395.007z"/>
	<path fill="#DBE5D8" d="M241.655,402.674V391.62c0-2.229,1.371-3.6,3.6-3.6s3.6,1.371,3.6,3.6v11.054
		c0,2.229-1.371,3.429-3.6,3.429S241.655,404.903,241.655,402.674z"/>
	<path fill="#F9F9F9" d="M218.054,389.916l7.817-7.817c1.576-1.576,3.515-1.576,5.091,0s1.576,3.515,0,5.091l-7.817,7.817
		c-1.576,1.576-3.394,1.455-4.97-0.121S216.478,391.492,218.054,389.916z"/>
	<path fill="#467C9D" d="M210.386,364.205h11.054c2.229,0,3.6,1.371,3.6,3.6s-1.371,3.6-3.6,3.6h-11.054
		c-2.229,0-3.429-1.371-3.429-3.6C206.958,365.577,208.158,364.205,210.386,364.205z"/>
	<path fill="#A8D9DB" d="M223.145,340.604l7.817,7.817c1.576,1.576,1.576,3.515,0,5.091s-3.515,1.576-5.091,0l-7.817-7.817
		c-1.576-1.576-1.455-3.394,0.121-4.97C219.751,339.149,221.569,339.028,223.145,340.604z"/>
</g>
<g>
	<path fill="#EA5F69" d="M704.006,275.517c-5.588,0-10.078-4.672-10.078-10.169s4.489-10.169,10.078-10.169
		c5.497,0,10.169,4.672,10.169,10.169S709.503,275.517,704.006,275.517z"/>
	<path fill="#DBE5D8" d="M707.652,230.479v11.054c0,2.229-1.371,3.6-3.6,3.6s-3.6-1.371-3.6-3.6v-11.054
		c0-2.229,1.371-3.429,3.6-3.429S707.652,228.25,707.652,230.479z"/>
	<path fill="#F9F9F9" d="M731.253,243.238l-7.817,7.817c-1.576,1.576-3.515,1.576-5.091,0s-1.576-3.515,0-5.091l7.817-7.817
		c1.576-1.576,3.394-1.455,4.97,0.121C732.708,239.843,732.829,241.662,731.253,243.238z"/>
	<path fill="#467C9D" d="M738.921,268.948h-11.054c-2.229,0-3.6-1.371-3.6-3.6s1.371-3.6,3.6-3.6h11.054
		c2.229,0,3.429,1.371,3.429,3.6S741.149,268.948,738.921,268.948z"/>
	<path fill="#E53946" d="M726.162,292.55l-7.817-7.817c-1.576-1.576-1.576-3.515,0-5.091s3.515-1.576,5.091,0l7.817,7.817
		c1.576,1.576,1.455,3.394-0.121,4.97C729.556,294.004,727.738,294.126,726.162,292.55z"/>
	<path fill="#DBE5D8" d="M700.452,300.217v-11.054c0-2.229,1.371-3.6,3.6-3.6s3.6,1.371,3.6,3.6v11.054
		c0,2.229-1.371,3.429-3.6,3.429S700.452,302.446,700.452,300.217z"/>
	<path fill="#F9F9F9" d="M676.85,287.459l7.817-7.817c1.576-1.576,3.515-1.576,5.091,0s1.576,3.515,0,5.091l-7.817,7.817
		c-1.576,1.576-3.394,1.455-4.97-0.121C675.396,290.853,675.274,289.034,676.85,287.459z"/>
	<path fill="#467C9D" d="M669.183,261.748h11.054c2.229,0,3.6,1.371,3.6,3.6s-1.371,3.6-3.6,3.6h-11.054
		c-2.229,0-3.429-1.371-3.429-3.6S666.954,261.748,669.183,261.748z"/>
	<path fill="#A8D9DB" d="M681.941,238.146l7.817,7.817c1.576,1.576,1.576,3.515,0,5.091s-3.515,1.576-5.091,0l-7.817-7.817
		c-1.576-1.576-1.455-3.394,0.121-4.97C678.547,236.692,680.365,236.57,681.941,238.146z"/>
</g>
<g>
	<path fill="#A8D9DB" d="M26.127,581.016c0-2.705,2.209-5.004,4.959-5.004c2.705,0,5.004,2.299,5.004,5.004
		s-2.299,5.005-5.004,5.005C28.336,586.021,26.127,583.721,26.127,581.016z"/>
	<path fill="#467C9D" d="M41.408,603.315c0-2.705,2.209-5.004,4.959-5.004c2.705,0,5.004,2.299,5.004,5.004
		s-2.299,5.005-5.004,5.005C43.617,608.319,41.408,606.02,41.408,603.315z"/>
	<path fill="#EA5F69" d="M61.635,542.51c0-2.705,2.209-5.004,4.959-5.004c2.705,0,5.005,2.299,5.005,5.004s-2.299,5.005-5.005,5.005
		C63.844,547.514,61.635,545.215,61.635,542.51z"/>
	<path fill="#DBE5D8" d="M72.759,581.016c0-2.705,2.209-5.004,4.959-5.004c2.705,0,5.004,2.299,5.004,5.004
		s-2.299,5.005-5.004,5.005C74.968,586.021,72.759,583.721,72.759,581.016z"/>
	<path fill="#F9F9F9" d="M85.197,560.6c0-2.705,2.209-5.005,4.959-5.005c2.705,0,5.004,2.299,5.004,5.005
		c0,2.706-2.299,5.004-5.004,5.004C87.406,565.604,85.197,563.305,85.197,560.6z"/>
	<path fill="#E53946" d="M85.197,608.319c0-2.705,2.209-5.005,4.959-5.005c2.705,0,5.004,2.299,5.004,5.005
		c0,2.705-2.299,5.004-5.004,5.004C87.406,613.324,85.197,611.024,85.197,608.319z"/>
</g>
<g>
	<path fill="#A8D9DB" d="M306.68,581.016c0-2.705,2.209-5.004,4.959-5.004c2.705,0,5.004,2.299,5.004,5.004
		s-2.299,5.005-5.004,5.005C308.889,586.021,306.68,583.721,306.68,581.016z"/>
	<path fill="#467C9D" d="M321.962,603.315c0-2.705,2.209-5.004,4.959-5.004c2.705,0,5.004,2.299,5.004,5.004
		s-2.299,5.005-5.004,5.005C324.171,608.319,321.962,606.02,321.962,603.315z"/>
	<path fill="#EA5F69" d="M342.188,542.51c0-2.705,2.209-5.004,4.959-5.004c2.705,0,5.005,2.299,5.005,5.004
		s-2.299,5.005-5.005,5.005C344.397,547.514,342.188,545.215,342.188,542.51z"/>
	<path fill="#DBE5D8" d="M353.312,581.016c0-2.705,2.209-5.004,4.959-5.004c2.705,0,5.004,2.299,5.004,5.004
		s-2.299,5.005-5.004,5.005C355.521,586.021,353.312,583.721,353.312,581.016z"/>
	<path fill="#F9F9F9" d="M365.75,560.6c0-2.705,2.209-5.005,4.959-5.005c2.705,0,5.004,2.299,5.004,5.005
		c0,2.706-2.299,5.004-5.004,5.004C367.959,565.604,365.75,563.305,365.75,560.6z"/>
	<path fill="#E53946" d="M365.75,608.319c0-2.705,2.209-5.005,4.959-5.005c2.705,0,5.004,2.299,5.004,5.005
		c0,2.705-2.299,5.004-5.004,5.004C367.959,613.324,365.75,611.024,365.75,608.319z"/>
</g>
<g>
	<path fill="#F9F9F9" d="M119.27,606.706c0,2.249-1.384,3.633-3.633,3.633s-3.633-1.384-3.633-3.633v-22.31
		c0-2.249,1.384-3.46,3.633-3.46s3.633,1.211,3.633,3.46V606.706z"/>
	<path fill="#EA5F69" d="M142.081,606.706c0,2.249-1.384,3.633-3.633,3.633s-3.633-1.384-3.633-3.633v-71.141
		c0-2.249,1.384-3.46,3.633-3.46s3.633,1.211,3.633,3.46V606.706z"/>
	<path fill="#E53946" d="M138.448,539.371c-2.249,0-3.633-1.384-3.633-3.633c0-2.249,1.384-3.633,3.633-3.633h24.079
		c2.249,0,3.46,1.384,3.46,3.633c0,2.249-1.211,3.633-3.46,3.633H138.448z"/>
	<path fill="#F9F9F9" d="M166.159,606.706c0,2.249-1.384,3.633-3.633,3.633s-3.633-1.384-3.633-3.633v-71.141
		c0-2.249,1.384-3.46,3.633-3.46s3.633,1.211,3.633,3.46V606.706z"/>
	<path fill="#467C9D" d="M138.448,567.12c-2.249,0-3.633-1.384-3.633-3.633s1.384-3.633,3.633-3.633h48.33
		c2.249,0,3.46,1.384,3.46,3.633s-1.211,3.633-3.46,3.633H138.448z"/>
	<path fill="#DBE5D8" d="M115.637,588.202c-2.249,0-3.633-1.384-3.633-3.633c0-2.249,1.384-3.633,3.633-3.633h71.141
		c2.249,0,3.46,1.384,3.46,3.633c0,2.249-1.211,3.633-3.46,3.633H115.637z"/>
	<path fill="#EA5F69" d="M190.238,606.706c0,2.249-1.384,3.633-3.633,3.633s-3.633-1.384-3.633-3.633v-43.393
		c0-2.249,1.384-3.46,3.633-3.46s3.633,1.211,3.633,3.46V606.706z"/>
	<path fill="#A8D9DB" d="M115.637,610.339c-2.249,0-3.633-1.384-3.633-3.633s1.384-3.633,3.633-3.633h71.141
		c2.249,0,3.46,1.384,3.46,3.633s-1.211,3.633-3.46,3.633H115.637z"/>
</g>
<g>
	<path fill="#E53946" d="M394.58,604.406l28.325-28.325c1.59-1.59,3.548-1.59,5.138,0c1.591,1.591,1.591,3.548,0,5.138
		l-28.325,28.325c-1.59,1.59-3.425,1.468-5.016-0.122C393.112,607.831,392.99,605.996,394.58,604.406z"/>
	<path fill="#A8D9DB" d="M428.044,574.836c1.591,1.59,1.591,3.548,0,5.138c-1.59,1.59-3.548,1.59-5.138,0l-28.325-28.325
		c-1.59-1.591-1.468-3.426,0.122-5.016c1.591-1.591,3.426-1.713,5.016-0.122L428.044,574.836z"/>
	<path fill="#F9F9F9" d="M463.796,574.836c1.591,1.59,1.591,3.548,0,5.138c-1.59,1.59-3.548,1.59-5.138,0l-28.325-28.325
		c-1.59-1.591-1.468-3.426,0.122-5.016c1.59-1.591,3.426-1.713,5.016-0.122L463.796,574.836z"/>
	<path fill="#DBE5D8" d="M430.333,604.406l28.325-28.325c1.591-1.59,3.548-1.59,5.138,0c1.591,1.591,1.591,3.548,0,5.138
		l-28.325,28.325c-1.59,1.59-3.425,1.468-5.016-0.122C428.865,607.831,428.742,605.996,430.333,604.406z"/>
</g>
<g>
	<path fill="#E53946" d="M755.103,604.406l28.325-28.325c1.59-1.59,3.548-1.59,5.138,0c1.591,1.591,1.591,3.548,0,5.138
		l-28.325,28.325c-1.59,1.59-3.425,1.468-5.016-0.122C753.635,607.832,753.513,605.997,755.103,604.406z"/>
	<path fill="#A8D9DB" d="M788.566,574.836c1.591,1.59,1.591,3.548,0,5.138c-1.59,1.59-3.548,1.59-5.138,0l-28.325-28.325
		c-1.59-1.591-1.468-3.426,0.122-5.016c1.591-1.591,3.426-1.713,5.016-0.122L788.566,574.836z"/>
	<path fill="#F9F9F9" d="M824.319,574.836c1.591,1.59,1.591,3.548,0,5.138c-1.59,1.59-3.548,1.59-5.138,0l-28.325-28.325
		c-1.59-1.591-1.468-3.426,0.122-5.016c1.59-1.591,3.426-1.713,5.016-0.122L824.319,574.836z"/>
	<path fill="#DBE5D8" d="M790.855,604.406l28.325-28.325c1.591-1.59,3.548-1.59,5.138,0c1.591,1.591,1.591,3.548,0,5.138
		l-28.325,28.325c-1.59,1.59-3.425,1.468-5.016-0.122C789.387,607.832,789.265,605.997,790.855,604.406z"/>
</g>
<g>
	<g>
		<path fill="#F9F9F9" d="M262.889,538.423l25.963,42.078c1.17,1.896,0.723,3.783-1.173,4.952c-1.896,1.17-3.783,0.723-4.952-1.173
			l-25.963-42.078c-1.17-1.896-0.633-3.637,1.263-4.807C259.922,536.226,261.719,536.527,262.889,538.423z"/>
		<path fill="#E53946" d="M262.362,538.423c1.17,1.896,0.869,3.693-1.027,4.862l-42.078,25.963c-1.896,1.17-3.783,0.723-4.952-1.173
			c-1.17-1.896-0.723-3.783,1.173-4.952l42.078-25.963C259.451,535.99,261.192,536.527,262.362,538.423z"/>
		<path fill="#A8D9DB" d="M239.983,611.353l-25.963-42.078c-1.17-1.896-0.723-3.783,1.173-4.952
			c1.896-1.169,3.783-0.723,4.952,1.173l25.963,42.078c1.17,1.896,0.633,3.637-1.263,4.807
			C242.949,613.55,241.153,613.249,239.983,611.353z"/>
		<path fill="#DBE5D8" d="M240.51,611.354c-1.17-1.896-0.869-3.693,1.027-4.862l42.078-25.963c1.896-1.17,3.783-0.723,4.952,1.173
			c1.17,1.896,0.723,3.783-1.173,4.952l-42.078,25.963C243.421,613.786,241.68,613.25,240.51,611.354z"/>
	</g>
	<path fill="#EA5F69" d="M272.111,580.682v28.545c0,2.228-1.371,3.599-3.599,3.599s-3.599-1.371-3.599-3.599v-28.545
		c0-2.228,1.371-3.427,3.599-3.427S272.111,578.454,272.111,580.682z"/>
</g>
<g>
	<g>
		<path fill="#F9F9F9" d="M620.222,538.423l25.963,42.078c1.17,1.896,0.723,3.783-1.173,4.952c-1.896,1.17-3.783,0.723-4.952-1.173
			l-25.963-42.078c-1.17-1.896-0.633-3.637,1.263-4.807C617.256,536.226,619.052,536.527,620.222,538.423z"/>
		<path fill="#E53946" d="M619.695,538.423c1.17,1.896,0.869,3.693-1.027,4.862l-42.078,25.963c-1.896,1.17-3.783,0.723-4.952-1.173
			c-1.17-1.896-0.723-3.783,1.173-4.952l42.078-25.963C616.784,535.99,618.525,536.527,619.695,538.423z"/>
		<path fill="#A8D9DB" d="M597.316,611.353l-25.963-42.078c-1.17-1.896-0.723-3.783,1.173-4.952
			c1.896-1.169,3.783-0.723,4.952,1.173l25.963,42.078c1.17,1.896,0.633,3.637-1.263,4.807S598.486,613.249,597.316,611.353z"/>
		<path fill="#DBE5D8" d="M597.843,611.354c-1.17-1.896-0.869-3.693,1.027-4.862l42.078-25.963c1.896-1.17,3.783-0.723,4.952,1.173
			c1.17,1.896,0.723,3.783-1.173,4.952l-42.078,25.963C600.754,613.786,599.013,613.25,597.843,611.354z"/>
	</g>
	<path fill="#EA5F69" d="M629.445,580.682v28.545c0,2.228-1.371,3.599-3.599,3.599s-3.599-1.371-3.599-3.599v-28.545
		c0-2.228,1.371-3.427,3.599-3.427S629.445,578.454,629.445,580.682z"/>
</g>
<g>
	<path fill="#EA5F69" d="M514.71,584.563c-5.588,0-10.078-4.672-10.078-10.169s4.489-10.169,10.078-10.169
		c5.497,0,10.169,4.672,10.169,10.169S520.207,584.563,514.71,584.563z"/>
	<path fill="#DBE5D8" d="M518.356,539.525v11.054c0,2.229-1.371,3.6-3.6,3.6s-3.6-1.371-3.6-3.6v-11.054
		c0-2.229,1.371-3.429,3.6-3.429S518.356,537.297,518.356,539.525z"/>
	<path fill="#F9F9F9" d="M541.958,552.284l-7.817,7.817c-1.576,1.576-3.515,1.576-5.091,0c-1.576-1.576-1.576-3.515,0-5.091
		l7.817-7.817c1.576-1.576,3.394-1.455,4.97,0.121C543.412,548.89,543.533,550.708,541.958,552.284z"/>
	<path fill="#467C9D" d="M549.625,577.994h-11.054c-2.229,0-3.6-1.371-3.6-3.6s1.371-3.6,3.6-3.6h11.054
		c2.229,0,3.429,1.371,3.429,3.6S551.854,577.994,549.625,577.994z"/>
	<path fill="#E53946" d="M536.866,601.596l-7.817-7.817c-1.576-1.576-1.576-3.515,0-5.091c1.576-1.576,3.515-1.576,5.091,0
		l7.817,7.817c1.576,1.576,1.455,3.394-0.121,4.97C540.261,603.051,538.442,603.172,536.866,601.596z"/>
	<path fill="#DBE5D8" d="M511.156,609.263v-11.054c0-2.229,1.371-3.6,3.6-3.6s3.6,1.371,3.6,3.6v11.054
		c0,2.229-1.371,3.429-3.6,3.429S511.156,611.492,511.156,609.263z"/>
	<path fill="#F9F9F9" d="M487.554,596.505l7.817-7.817c1.576-1.576,3.515-1.576,5.091,0c1.576,1.576,1.576,3.515,0,5.091
		l-7.817,7.817c-1.576,1.576-3.394,1.455-4.97-0.121C486.1,599.899,485.978,598.081,487.554,596.505z"/>
	<path fill="#467C9D" d="M479.887,570.794h11.054c2.229,0,3.6,1.371,3.6,3.6s-1.371,3.6-3.6,3.6h-11.054
		c-2.229,0-3.429-1.371-3.429-3.6C476.458,572.166,477.658,570.794,479.887,570.794z"/>
	<path fill="#A8D9DB" d="M492.645,547.193l7.817,7.817c1.576,1.576,1.576,3.515,0,5.091c-1.576,1.576-3.515,1.576-5.091,0
		l-7.817-7.817c-1.576-1.576-1.455-3.394,0.121-4.97C489.251,545.738,491.07,545.617,492.645,547.193z"/>
</g>
<g>
	<path fill="#EA5F69" d="M708.006,594.733c-5.588,0-10.078-4.672-10.078-10.169s4.489-10.169,10.078-10.169
		c5.497,0,10.169,4.672,10.169,10.169S713.503,594.733,708.006,594.733z"/>
	<path fill="#DBE5D8" d="M711.652,549.694v11.054c0,2.229-1.371,3.6-3.6,3.6s-3.6-1.371-3.6-3.6v-11.054
		c0-2.229,1.371-3.429,3.6-3.429S711.652,547.466,711.652,549.694z"/>
	<path fill="#F9F9F9" d="M735.253,562.453l-7.817,7.817c-1.576,1.576-3.515,1.576-5.091,0c-1.576-1.576-1.576-3.515,0-5.091
		l7.817-7.817c1.576-1.576,3.394-1.455,4.97,0.121C736.708,559.059,736.829,560.877,735.253,562.453z"/>
	<path fill="#467C9D" d="M742.921,588.163h-11.054c-2.229,0-3.6-1.371-3.6-3.6s1.371-3.6,3.6-3.6h11.054
		c2.229,0,3.429,1.371,3.429,3.6S745.149,588.163,742.921,588.163z"/>
	<path fill="#E53946" d="M730.162,611.765l-7.817-7.817c-1.576-1.576-1.576-3.515,0-5.091s3.515-1.576,5.091,0l7.817,7.817
		c1.576,1.576,1.455,3.394-0.121,4.97S731.738,613.341,730.162,611.765z"/>
	<path fill="#DBE5D8" d="M704.452,619.432v-11.054c0-2.229,1.371-3.6,3.6-3.6s3.6,1.371,3.6,3.6v11.054
		c0,2.229-1.371,3.429-3.6,3.429S704.452,621.661,704.452,619.432z"/>
	<path fill="#F9F9F9" d="M680.85,606.674l7.817-7.817c1.576-1.576,3.515-1.576,5.091,0s1.576,3.515,0,5.091l-7.817,7.817
		c-1.576,1.576-3.394,1.455-4.97-0.121C679.396,610.068,679.274,608.25,680.85,606.674z"/>
	<path fill="#467C9D" d="M673.183,580.963h11.054c2.229,0,3.6,1.371,3.6,3.6s-1.371,3.6-3.6,3.6h-11.054
		c-2.229,0-3.429-1.371-3.429-3.6S670.954,580.963,673.183,580.963z"/>
	<path fill="#A8D9DB" d="M685.941,557.362l7.817,7.817c1.576,1.576,1.576,3.515,0,5.091c-1.576,1.576-3.515,1.576-5.091,0
		l-7.817-7.817c-1.576-1.576-1.455-3.394,0.121-4.97C682.547,555.907,684.365,555.786,685.941,557.362z"/>
</g>
<g>
	<path fill="#F9F9F9" d="M849.738,102.491c0,2.249-1.384,3.633-3.633,3.633s-3.633-1.384-3.633-3.633v-22.31
		c0-2.249,1.384-3.46,3.633-3.46s3.633,1.211,3.633,3.46V102.491z"/>
	<path fill="#EA5F69" d="M872.549,102.491c0,2.249-1.384,3.633-3.633,3.633s-3.633-1.384-3.633-3.633V31.35
		c0-2.249,1.384-3.46,3.633-3.46s3.633,1.211,3.633,3.46V102.491z"/>
	<path fill="#E53946" d="M868.915,35.156c-2.249,0-3.633-1.384-3.633-3.633s1.384-3.633,3.633-3.633h24.078
		c2.249,0,3.46,1.384,3.46,3.633s-1.211,3.633-3.46,3.633H868.915z"/>
	<path fill="#F9F9F9" d="M896.627,102.491c0,2.249-1.384,3.633-3.633,3.633s-3.633-1.384-3.633-3.633V31.35
		c0-2.249,1.384-3.46,3.633-3.46s3.633,1.211,3.633,3.46V102.491z"/>
	<path fill="#467C9D" d="M868.915,62.904c-2.249,0-3.633-1.384-3.633-3.633s1.384-3.633,3.633-3.633h48.33
		c2.249,0,3.46,1.384,3.46,3.633s-1.211,3.633-3.46,3.633H868.915z"/>
	<path fill="#DBE5D8" d="M846.104,83.987c-2.249,0-3.633-1.384-3.633-3.633c0-2.249,1.384-3.633,3.633-3.633h71.141
		c2.249,0,3.46,1.384,3.46,3.633c0,2.249-1.211,3.633-3.46,3.633H846.104z"/>
	<path fill="#EA5F69" d="M920.706,102.491c0,2.249-1.384,3.633-3.633,3.633s-3.633-1.384-3.633-3.633V59.098
		c0-2.249,1.384-3.46,3.633-3.46s3.633,1.211,3.633,3.46V102.491z"/>
	<path fill="#A8D9DB" d="M846.104,106.124c-2.249,0-3.633-1.384-3.633-3.633c0-2.249,1.384-3.633,3.633-3.633h71.141
		c2.249,0,3.46,1.384,3.46,3.633c0,2.249-1.211,3.633-3.46,3.633H846.104z"/>
</g>
<g>
	<path fill="#A8D9DB" d="M26.127,69.995c0-2.705,2.209-5.004,4.959-5.004c2.705,0,5.004,2.299,5.004,5.004
		C36.09,72.7,33.791,75,31.086,75C28.336,75,26.127,72.7,26.127,69.995z"/>
	<path fill="#467C9D" d="M41.408,92.294c0-2.705,2.209-5.004,4.959-5.004c2.705,0,5.004,2.299,5.004,5.004s-2.299,5.005-5.004,5.005
		C43.617,97.298,41.408,94.999,41.408,92.294z"/>
	<path fill="#EA5F69" d="M61.635,31.489c0-2.705,2.209-5.004,4.959-5.004c2.705,0,5.005,2.299,5.005,5.004s-2.299,5.005-5.005,5.005
		C63.844,36.493,61.635,34.194,61.635,31.489z"/>
	<path fill="#DBE5D8" d="M72.759,69.995c0-2.705,2.209-5.004,4.959-5.004c2.705,0,5.004,2.299,5.004,5.004
		c0,2.705-2.299,5.005-5.004,5.005C74.968,75,72.759,72.7,72.759,69.995z"/>
	<path fill="#F9F9F9" d="M85.197,49.579c0-2.705,2.209-5.005,4.959-5.005c2.705,0,5.004,2.299,5.004,5.005s-2.299,5.004-5.004,5.004
		C87.406,54.583,85.197,52.284,85.197,49.579z"/>
	<path fill="#E53946" d="M85.197,97.298c0-2.705,2.209-5.005,4.959-5.005c2.705,0,5.004,2.299,5.004,5.005
		c0,2.705-2.299,5.004-5.004,5.004C87.406,102.303,85.197,100.003,85.197,97.298z"/>
</g>
<g>
	<path fill="#A8D9DB" d="M306.68,69.995c0-2.705,2.209-5.004,4.959-5.004c2.705,0,5.004,2.299,5.004,5.004
		c0,2.705-2.299,5.005-5.004,5.005C308.889,75,306.68,72.7,306.68,69.995z"/>
	<path fill="#467C9D" d="M321.962,92.294c0-2.705,2.209-5.004,4.959-5.004c2.705,0,5.004,2.299,5.004,5.004
		s-2.299,5.005-5.004,5.005C324.171,97.298,321.962,94.999,321.962,92.294z"/>
	<path fill="#EA5F69" d="M342.188,31.489c0-2.705,2.209-5.004,4.959-5.004c2.705,0,5.005,2.299,5.005,5.004
		s-2.299,5.005-5.005,5.005C344.397,36.493,342.188,34.194,342.188,31.489z"/>
	<path fill="#DBE5D8" d="M353.312,69.995c0-2.705,2.209-5.004,4.959-5.004c2.705,0,5.004,2.299,5.004,5.004
		c0,2.705-2.299,5.005-5.004,5.005C355.521,75,353.312,72.7,353.312,69.995z"/>
	<path fill="#F9F9F9" d="M365.75,49.579c0-2.705,2.209-5.005,4.959-5.005c2.705,0,5.004,2.299,5.004,5.005s-2.299,5.004-5.004,5.004
		C367.959,54.583,365.75,52.284,365.75,49.579z"/>
	<path fill="#E53946" d="M365.75,97.298c0-2.705,2.209-5.005,4.959-5.005c2.705,0,5.004,2.299,5.004,5.005
		c0,2.705-2.299,5.004-5.004,5.004C367.959,102.303,365.75,100.003,365.75,97.298z"/>
</g>
<g>
	<path fill="#F9F9F9" d="M119.27,95.685c0,2.249-1.384,3.633-3.633,3.633s-3.633-1.384-3.633-3.633v-22.31
		c0-2.249,1.384-3.46,3.633-3.46s3.633,1.211,3.633,3.46V95.685z"/>
	<path fill="#EA5F69" d="M142.081,95.685c0,2.249-1.384,3.633-3.633,3.633s-3.633-1.384-3.633-3.633V24.544
		c0-2.249,1.384-3.46,3.633-3.46s3.633,1.211,3.633,3.46V95.685z"/>
	<path fill="#E53946" d="M138.448,28.35c-2.249,0-3.633-1.384-3.633-3.633s1.384-3.633,3.633-3.633h24.079
		c2.249,0,3.46,1.384,3.46,3.633s-1.211,3.633-3.46,3.633H138.448z"/>
	<path fill="#F9F9F9" d="M166.159,95.685c0,2.249-1.384,3.633-3.633,3.633s-3.633-1.384-3.633-3.633V24.544
		c0-2.249,1.384-3.46,3.633-3.46s3.633,1.211,3.633,3.46V95.685z"/>
	<path fill="#467C9D" d="M138.448,56.099c-2.249,0-3.633-1.384-3.633-3.633c0-2.249,1.384-3.633,3.633-3.633h48.33
		c2.249,0,3.46,1.384,3.46,3.633s-1.211,3.633-3.46,3.633C186.778,56.099,138.448,56.099,138.448,56.099z"/>
	<path fill="#DBE5D8" d="M115.637,77.181c-2.249,0-3.633-1.384-3.633-3.633c0-2.249,1.384-3.633,3.633-3.633h71.141
		c2.249,0,3.46,1.384,3.46,3.633c0,2.249-1.211,3.633-3.46,3.633H115.637z"/>
	<path fill="#EA5F69" d="M190.238,95.685c0,2.249-1.384,3.633-3.633,3.633s-3.633-1.384-3.633-3.633V52.292
		c0-2.249,1.384-3.46,3.633-3.46s3.633,1.211,3.633,3.46V95.685z"/>
	<path fill="#A8D9DB" d="M115.637,99.318c-2.249,0-3.633-1.384-3.633-3.633c0-2.249,1.384-3.633,3.633-3.633h71.141
		c2.249,0,3.46,1.384,3.46,3.633c0,2.249-1.211,3.633-3.46,3.633H115.637z"/>
</g>
<g>
	<path fill="#E53946" d="M394.58,93.385l28.325-28.325c1.59-1.59,3.548-1.59,5.138,0c1.591,1.591,1.591,3.548,0,5.138
		l-28.325,28.325c-1.59,1.59-3.425,1.468-5.016-0.122C393.112,96.81,392.99,94.975,394.58,93.385z"/>
	<path fill="#A8D9DB" d="M428.044,63.815c1.591,1.59,1.591,3.548,0,5.138c-1.59,1.59-3.548,1.59-5.138,0l-28.325-28.325
		c-1.59-1.591-1.468-3.426,0.122-5.016c1.591-1.591,3.426-1.713,5.016-0.122L428.044,63.815z"/>
	<path fill="#F9F9F9" d="M463.796,63.815c1.591,1.59,1.591,3.548,0,5.138c-1.59,1.59-3.548,1.59-5.138,0l-28.325-28.325
		c-1.59-1.591-1.468-3.426,0.122-5.016c1.59-1.591,3.426-1.713,5.016-0.122L463.796,63.815z"/>
	<path fill="#DBE5D8" d="M430.333,93.385l28.325-28.325c1.591-1.59,3.548-1.59,5.138,0c1.591,1.591,1.591,3.548,0,5.138
		l-28.325,28.325c-1.59,1.59-3.425,1.468-5.016-0.122C428.865,96.81,428.742,94.975,430.333,93.385z"/>
</g>
<g>
	<path fill="#E53946" d="M755.103,93.385l28.325-28.325c1.59-1.59,3.548-1.59,5.138,0c1.591,1.591,1.591,3.548,0,5.138
		l-28.325,28.325c-1.59,1.59-3.425,1.468-5.016-0.122C753.635,96.811,753.513,94.976,755.103,93.385z"/>
	<path fill="#A8D9DB" d="M788.566,63.815c1.591,1.59,1.591,3.548,0,5.138c-1.59,1.59-3.548,1.59-5.138,0l-28.325-28.325
		c-1.59-1.591-1.468-3.426,0.122-5.016c1.591-1.591,3.426-1.713,5.016-0.122L788.566,63.815z"/>
	<path fill="#F9F9F9" d="M824.319,63.815c1.591,1.59,1.591,3.548,0,5.138c-1.59,1.59-3.548,1.59-5.138,0l-28.325-28.325
		c-1.59-1.591-1.468-3.426,0.122-5.016c1.59-1.591,3.426-1.713,5.016-0.122L824.319,63.815z"/>
	<path fill="#DBE5D8" d="M790.855,93.385L819.18,65.06c1.591-1.59,3.548-1.59,5.138,0c1.591,1.591,1.591,3.548,0,5.138
		l-28.325,28.325c-1.59,1.59-3.425,1.468-5.016-0.122C789.387,96.811,789.265,94.976,790.855,93.385z"/>
</g>
<g>
	<g>
		<path fill="#F9F9F9" d="M262.889,27.402l25.963,42.078c1.17,1.896,0.723,3.783-1.173,4.952c-1.896,1.17-3.783,0.723-4.952-1.173
			l-25.963-42.078c-1.17-1.896-0.633-3.637,1.263-4.807C259.922,25.205,261.719,25.506,262.889,27.402z"/>
		<path fill="#E53946" d="M262.362,27.402c1.17,1.896,0.869,3.693-1.027,4.862l-42.078,25.963c-1.896,1.17-3.783,0.723-4.952-1.173
			c-1.17-1.896-0.723-3.783,1.173-4.952l42.078-25.963C259.451,24.969,261.192,25.506,262.362,27.402z"/>
		<path fill="#A8D9DB" d="M239.983,100.332L214.02,58.254c-1.17-1.896-0.723-3.783,1.173-4.952c1.896-1.169,3.783-0.723,4.952,1.173
			l25.963,42.078c1.17,1.896,0.633,3.637-1.263,4.807C242.949,102.529,241.153,102.228,239.983,100.332z"/>
		<path fill="#DBE5D8" d="M240.51,100.333c-1.17-1.896-0.869-3.693,1.027-4.862l42.078-25.963c1.896-1.17,3.783-0.723,4.952,1.173
			c1.17,1.896,0.723,3.783-1.173,4.952l-42.078,25.963C243.421,102.765,241.68,102.229,240.51,100.333z"/>
	</g>
	<path fill="#EA5F69" d="M272.111,69.661v28.545c0,2.228-1.371,3.599-3.599,3.599s-3.599-1.371-3.599-3.599V69.661
		c0-2.228,1.371-3.427,3.599-3.427S272.111,67.433,272.111,69.661z"/>
</g>
<g>
	<g>
		<path fill="#F9F9F9" d="M620.222,27.402l25.963,42.078c1.17,1.896,0.723,3.783-1.173,4.952c-1.896,1.17-3.783,0.723-4.952-1.173
			l-25.963-42.078c-1.17-1.896-0.633-3.637,1.263-4.807C617.256,25.205,619.052,25.506,620.222,27.402z"/>
		<path fill="#E53946" d="M619.695,27.402c1.17,1.896,0.869,3.693-1.027,4.862L576.59,58.227c-1.896,1.17-3.783,0.723-4.952-1.173
			c-1.17-1.896-0.723-3.783,1.173-4.952l42.078-25.963C616.784,24.969,618.525,25.506,619.695,27.402z"/>
		<path fill="#A8D9DB" d="M597.316,100.332l-25.963-42.078c-1.17-1.896-0.723-3.783,1.173-4.952s3.783-0.723,4.952,1.173
			l25.963,42.078c1.17,1.896,0.633,3.637-1.263,4.807S598.486,102.228,597.316,100.332z"/>
		<path fill="#DBE5D8" d="M597.843,100.333c-1.17-1.896-0.869-3.693,1.027-4.862l42.078-25.963c1.896-1.17,3.783-0.723,4.952,1.173
			c1.17,1.896,0.723,3.783-1.173,4.952l-42.078,25.963C600.754,102.765,599.013,102.229,597.843,100.333z"/>
	</g>
	<path fill="#EA5F69" d="M629.445,69.661v28.545c0,2.228-1.371,3.599-3.599,3.599s-3.599-1.371-3.599-3.599V69.661
		c0-2.228,1.371-3.427,3.599-3.427S629.445,67.433,629.445,69.661z"/>
</g>
<g>
	<path fill="#EA5F69" d="M514.71,73.542c-5.588,0-10.078-4.672-10.078-10.169s4.489-10.169,10.078-10.169
		c5.497,0,10.169,4.672,10.169,10.169S520.207,73.542,514.71,73.542z"/>
	<path fill="#DBE5D8" d="M518.356,28.504v11.054c0,2.229-1.371,3.6-3.6,3.6s-3.6-1.371-3.6-3.6V28.504
		c0-2.229,1.371-3.429,3.6-3.429S518.356,26.276,518.356,28.504z"/>
	<path fill="#F9F9F9" d="M541.958,41.263l-7.817,7.817c-1.576,1.576-3.515,1.576-5.091,0s-1.576-3.515,0-5.091l7.817-7.817
		c1.576-1.576,3.394-1.455,4.97,0.121C543.412,37.869,543.533,39.687,541.958,41.263z"/>
	<path fill="#467C9D" d="M549.625,66.973h-11.054c-2.229,0-3.6-1.371-3.6-3.6c0-2.229,1.371-3.6,3.6-3.6h11.054
		c2.229,0,3.429,1.371,3.429,3.6C553.054,65.602,551.854,66.973,549.625,66.973z"/>
	<path fill="#E53946" d="M536.866,90.575l-7.817-7.817c-1.576-1.576-1.576-3.515,0-5.091s3.515-1.576,5.091,0l7.817,7.817
		c1.576,1.576,1.455,3.394-0.121,4.97C540.261,92.03,538.442,92.151,536.866,90.575z"/>
	<path fill="#DBE5D8" d="M511.156,98.242V87.188c0-2.229,1.371-3.6,3.6-3.6s3.6,1.371,3.6,3.6v11.054c0,2.229-1.371,3.429-3.6,3.429
		S511.156,100.471,511.156,98.242z"/>
	<path fill="#F9F9F9" d="M487.554,85.484l7.817-7.817c1.576-1.576,3.515-1.576,5.091,0s1.576,3.515,0,5.091l-7.817,7.817
		c-1.576,1.576-3.394,1.455-4.97-0.121C486.1,88.878,485.978,87.06,487.554,85.484z"/>
	<path fill="#467C9D" d="M479.887,59.773h11.054c2.229,0,3.6,1.371,3.6,3.6c0,2.229-1.371,3.6-3.6,3.6h-11.054
		c-2.229,0-3.429-1.371-3.429-3.6C476.458,61.145,477.658,59.773,479.887,59.773z"/>
	<path fill="#A8D9DB" d="M492.645,36.172l7.817,7.817c1.576,1.576,1.576,3.515,0,5.091s-3.515,1.576-5.091,0l-7.817-7.817
		c-1.576-1.576-1.455-3.394,0.121-4.97S491.07,34.596,492.645,36.172z"/>
</g>
<g>
	<path fill="#EA5F69" d="M708.006,83.712c-5.588,0-10.078-4.672-10.078-10.169s4.489-10.169,10.078-10.169
		c5.497,0,10.169,4.672,10.169,10.169S713.503,83.712,708.006,83.712z"/>
	<path fill="#DBE5D8" d="M711.652,38.673v11.054c0,2.229-1.371,3.6-3.6,3.6s-3.6-1.371-3.6-3.6V38.673
		c0-2.229,1.371-3.429,3.6-3.429S711.652,36.445,711.652,38.673z"/>
	<path fill="#F9F9F9" d="M735.253,51.432l-7.817,7.817c-1.576,1.576-3.515,1.576-5.091,0c-1.576-1.576-1.576-3.515,0-5.091
		l7.817-7.817c1.576-1.576,3.394-1.455,4.97,0.121C736.708,48.038,736.829,49.856,735.253,51.432z"/>
	<path fill="#467C9D" d="M742.921,77.142h-11.054c-2.229,0-3.6-1.371-3.6-3.6s1.371-3.6,3.6-3.6h11.054
		c2.229,0,3.429,1.371,3.429,3.6S745.149,77.142,742.921,77.142z"/>
	<path fill="#E53946" d="M730.162,100.744l-7.817-7.817c-1.576-1.576-1.576-3.515,0-5.091c1.576-1.576,3.515-1.576,5.091,0
		l7.817,7.817c1.576,1.576,1.455,3.394-0.121,4.97C733.556,102.199,731.738,102.32,730.162,100.744z"/>
	<path fill="#DBE5D8" d="M704.452,108.411V97.357c0-2.229,1.371-3.6,3.6-3.6s3.6,1.371,3.6,3.6v11.054
		c0,2.229-1.371,3.429-3.6,3.429S704.452,110.64,704.452,108.411z"/>
	<path fill="#F9F9F9" d="M680.85,95.653l7.817-7.817c1.576-1.576,3.515-1.576,5.091,0c1.576,1.576,1.576,3.515,0,5.091l-7.817,7.817
		c-1.576,1.576-3.394,1.455-4.97-0.121C679.396,99.047,679.274,97.229,680.85,95.653z"/>
	<path fill="#467C9D" d="M673.183,69.942h11.054c2.229,0,3.6,1.371,3.6,3.6s-1.371,3.6-3.6,3.6h-11.054
		c-2.229,0-3.429-1.371-3.429-3.6S670.954,69.942,673.183,69.942z"/>
	<path fill="#A8D9DB" d="M685.941,46.341l7.817,7.817c1.576,1.576,1.576,3.515,0,5.091c-1.576,1.576-3.515,1.576-5.091,0
		l-7.817-7.817c-1.576-1.576-1.455-3.394,0.121-4.97C682.547,44.886,684.365,44.765,685.941,46.341z"/>
</g>
<g>
	<path fill="#F9F9F9" stroke="#FFFFFF" stroke-width="0.5" stroke-miterlimit="10" d="M319.889,332.537
		c0-0.73-0.292-1.301-0.874-1.712c-0.521-0.365-1.165-0.548-1.932-0.548c-0.721,0-1.327,0.161-1.817,0.481
		c-0.552,0.382-0.828,0.917-0.828,1.604c0,0.855,0.46,1.559,1.38,2.108l3.726,2.2c1.564,0.92,2.346,2.292,2.346,4.117
		c0,1.304-0.483,2.338-1.449,3.105c-0.874,0.706-1.986,1.058-3.335,1.058c-1.319,0-2.415-0.395-3.289-1.185
		s-1.311-1.836-1.311-3.139c0-0.245,0.085-0.452,0.256-0.621c0.171-0.168,0.38-0.253,0.629-0.253c0.233,0,0.439,0.088,0.618,0.264
		c0.179,0.177,0.268,0.38,0.268,0.61c0,0.797,0.267,1.414,0.802,1.851c0.534,0.437,1.207,0.656,2.016,0.656
		c0.84,0,1.527-0.168,2.062-0.505c0.641-0.414,0.962-1.018,0.962-1.813c0-1.147-0.531-2.035-1.593-2.663l-3.743-2.218
		c-1.411-0.825-2.116-2.033-2.116-3.623c0-1.208,0.444-2.163,1.334-2.866c0.812-0.657,1.84-0.986,3.082-0.986
		c1.303,0,2.376,0.351,3.22,1.053c0.905,0.733,1.357,1.74,1.357,3.022c0,0.229-0.088,0.432-0.264,0.607
		c-0.177,0.175-0.38,0.263-0.61,0.263C320.188,333.405,319.889,333.116,319.889,332.537z"/>
	<path fill="#F9F9F9" stroke="#FFFFFF" stroke-width="0.5" stroke-miterlimit="10" d="M336.38,344.099
		c0,0.491-0.23,0.783-0.69,0.875c-0.583,0.123-0.943-0.108-1.081-0.693l-0.989-4.09h-5.244l-0.989,4.071
		c-0.123,0.476-0.383,0.713-0.782,0.713c-0.659,0-0.989-0.291-0.989-0.874c0-0.092,0.007-0.168,0.023-0.23l3.565-15.203h3.542
		l3.611,15.225C336.372,343.953,336.38,344.022,336.38,344.099z M330.607,330.415l-1.84,8.004h4.439l-1.817-8.004L330.607,330.415
		L330.607,330.415z"/>
	<path fill="#F9F9F9" stroke="#FFFFFF" stroke-width="0.5" stroke-miterlimit="10" d="M347.419,329.203
		c0-0.263,0.083-0.479,0.25-0.649c0.166-0.17,0.378-0.255,0.636-0.255s0.469,0.084,0.636,0.253c0.166,0.169,0.25,0.383,0.25,0.644
		v15.479h-2.737l-4.278-12.926v12.42c0,0.245-0.087,0.46-0.261,0.644c-0.174,0.184-0.382,0.276-0.624,0.276
		s-0.451-0.092-0.625-0.276s-0.261-0.398-0.261-0.644v-15.502h2.592l4.423,13.29v-12.754H347.419z"/>
	<path fill="#F9F9F9" stroke="#FFFFFF" stroke-width="0.5" stroke-miterlimit="10" d="M357.746,344.146v-13.685h-3.427
		c-0.23,0-0.437-0.088-0.621-0.265s-0.276-0.379-0.276-0.609c0-0.245,0.088-0.46,0.264-0.644c0.176-0.184,0.387-0.276,0.633-0.276
		h8.556c0.245,0,0.456,0.092,0.632,0.276c0.176,0.184,0.265,0.399,0.265,0.644c0,0.23-0.092,0.433-0.276,0.609
		c-0.184,0.176-0.391,0.265-0.621,0.265h-3.404v13.685c0,0.598-0.292,0.897-0.874,0.897
		C358.03,345.043,357.746,344.744,357.746,344.146z"/>
	<path fill="#F9F9F9" stroke="#FFFFFF" stroke-width="0.5" stroke-miterlimit="10" d="M368.326,329.575
		c0-0.242,0.081-0.454,0.241-0.636c0.161-0.181,0.364-0.272,0.61-0.272h6.394c0.245,0,0.452,0.091,0.621,0.272
		c0.169,0.182,0.253,0.394,0.253,0.636s-0.084,0.443-0.253,0.602c-0.169,0.159-0.375,0.238-0.621,0.238h-2.346v12.489h2.346
		c0.245,0,0.452,0.091,0.621,0.272s0.253,0.394,0.253,0.636s-0.084,0.442-0.253,0.602c-0.169,0.159-0.375,0.238-0.621,0.238h-6.394
		c-0.568,0-0.851-0.28-0.851-0.84c0-0.242,0.081-0.454,0.241-0.636c0.161-0.182,0.364-0.272,0.61-0.272h2.346v-12.489h-2.346
		C368.609,330.415,368.326,330.135,368.326,329.575z"/>
	<path fill="#F9F9F9" stroke="#FFFFFF" stroke-width="0.5" stroke-miterlimit="10" d="M391.579,344.099
		c0,0.491-0.23,0.783-0.69,0.875c-0.583,0.123-0.943-0.108-1.081-0.693l-0.989-4.09h-5.244l-0.989,4.071
		c-0.123,0.476-0.383,0.713-0.782,0.713c-0.659,0-0.989-0.291-0.989-0.874c0-0.092,0.007-0.168,0.023-0.23l3.565-15.203h3.542
		l3.611,15.225C391.571,343.953,391.579,344.022,391.579,344.099z M385.806,330.415l-1.84,8.004h4.439l-1.817-8.004L385.806,330.415
		L385.806,330.415z"/>
	<path fill="#F9F9F9" stroke="#FFFFFF" stroke-width="0.5" stroke-miterlimit="10" d="M402.734,332.807
		c0-0.797-0.257-1.422-0.771-1.875c-0.514-0.452-1.169-0.678-1.967-0.678c-0.813,0-1.48,0.227-2.001,0.68s-0.782,1.087-0.782,1.901
		v7.719c0,0.799,0.26,1.425,0.782,1.878c0.521,0.453,1.188,0.68,2.001,0.68c0.812,0,1.476-0.223,1.99-0.669
		c0.513-0.446,0.771-1.078,0.771-1.895v-2.979h-2.806c-0.246,0-0.449-0.088-0.609-0.265c-0.161-0.176-0.242-0.387-0.242-0.632
		c0-0.23,0.084-0.429,0.253-0.598c0.168-0.168,0.368-0.253,0.598-0.253h4.577v4.738c0,0.997-0.314,1.894-0.943,2.691
		c-0.843,1.074-2.07,1.61-3.68,1.61c-1.58,0-2.768-0.537-3.565-1.61c-0.598-0.797-0.897-1.702-0.897-2.714v-7.751
		c0-0.981,0.306-1.871,0.92-2.668c0.812-1.073,2.024-1.61,3.634-1.61c1.579,0,2.768,0.537,3.565,1.61
		c0.598,0.797,0.897,1.694,0.897,2.691c0,0.23-0.088,0.434-0.264,0.609c-0.177,0.177-0.38,0.265-0.61,0.265
		s-0.429-0.088-0.598-0.265S402.734,333.037,402.734,332.807z"/>
	<path fill="#F9F9F9" stroke="#FFFFFF" stroke-width="0.5" stroke-miterlimit="10" d="M418.328,340.558
		c0,0.997-0.314,1.894-0.943,2.691c-0.843,1.074-2.07,1.61-3.68,1.61c-1.58,0-2.768-0.537-3.565-1.61
		c-0.598-0.797-0.897-1.702-0.897-2.714v-7.751c0-0.981,0.306-1.871,0.92-2.668c0.812-1.073,2.024-1.61,3.634-1.61
		c1.579,0,2.783,0.544,3.611,1.633c0.613,0.813,0.92,1.702,0.92,2.668L418.328,340.558L418.328,340.558z M416.557,340.553v-7.719
		c0-0.814-0.257-1.448-0.771-1.901s-1.177-0.68-1.99-0.68s-1.48,0.227-2.001,0.68c-0.521,0.453-0.782,1.087-0.782,1.901v7.719
		c0,0.799,0.261,1.425,0.785,1.878c0.523,0.453,1.193,0.68,2.009,0.68c0.801,0,1.458-0.227,1.975-0.68
		C416.298,341.978,416.557,341.352,416.557,340.553z"/>
	<path fill="#F9F9F9" stroke="#FFFFFF" stroke-width="0.5" stroke-miterlimit="10" d="M445.927,340.351
		c0,1.028-0.269,1.925-0.805,2.691c-0.751,1.074-1.894,1.61-3.427,1.61h-4.853v-16.008h4.761c1.579,0,2.752,0.537,3.519,1.61
		c0.537,0.751,0.805,1.633,0.805,2.645V340.351z M444.156,340.341v-7.387c0-0.8-0.23-1.427-0.69-1.881
		c-0.46-0.454-1.081-0.681-1.863-0.681h-2.99v12.512h3.048c0.785,0,1.397-0.227,1.836-0.681
		C443.937,341.769,444.156,341.142,444.156,340.341z"/>
	<path fill="#F9F9F9" stroke="#FFFFFF" stroke-width="0.5" stroke-miterlimit="10" d="M452.436,337.085v5.819h6.391
		c0.23,0,0.435,0.092,0.611,0.276s0.266,0.391,0.266,0.621s-0.088,0.429-0.265,0.598s-0.379,0.253-0.609,0.253h-8.165v-15.985h8.165
		c0.23,0,0.433,0.092,0.609,0.276c0.176,0.184,0.265,0.391,0.265,0.621c0,0.23-0.088,0.429-0.265,0.598
		c-0.176,0.169-0.379,0.253-0.609,0.253h-6.394v4.922h5.888c0.23,0,0.433,0.088,0.61,0.264c0.176,0.177,0.264,0.38,0.264,0.61
		s-0.088,0.433-0.266,0.609c-0.177,0.176-0.38,0.265-0.611,0.265L452.436,337.085L452.436,337.085z"/>
	<path fill="#F9F9F9" stroke="#FFFFFF" stroke-width="0.5" stroke-miterlimit="10" d="M485.532,340.518
		c0-0.231,0.085-0.44,0.256-0.625c0.172-0.185,0.373-0.278,0.606-0.278c0.249,0,0.462,0.088,0.641,0.265s0.269,0.387,0.269,0.632
		c0,1.027-0.308,1.94-0.921,2.737c-0.812,1.074-2.031,1.61-3.656,1.61c-1.58,0-2.769-0.537-3.565-1.61
		c-0.598-0.797-0.896-1.702-0.896-2.714v-7.751c0-0.981,0.307-1.871,0.922-2.668c0.814-1.073,2.029-1.61,3.644-1.61
		c1.567,0,2.751,0.514,3.551,1.541c0.615,0.782,0.923,1.687,0.923,2.714c0,0.246-0.085,0.449-0.254,0.609
		c-0.17,0.161-0.377,0.242-0.623,0.242c-0.569,0-0.854-0.284-0.854-0.851c-0.016-0.782-0.277-1.395-0.785-1.84
		c-0.508-0.445-1.161-0.667-1.961-0.667c-0.815,0-1.484,0.227-2.008,0.68c-0.522,0.453-0.784,1.087-0.784,1.901v7.719
		c0,0.799,0.26,1.425,0.779,1.878s1.183,0.68,1.992,0.68s1.466-0.228,1.97-0.683C485.28,341.973,485.532,341.336,485.532,340.518z"
		/>
	<path fill="#F9F9F9" stroke="#FFFFFF" stroke-width="0.5" stroke-miterlimit="10" d="M491.927,344.146v-14.95
		c0-0.598,0.287-0.897,0.861-0.897c0.606,0,0.909,0.299,0.909,0.897v6.187h5.796v-6.187c0-0.598,0.295-0.897,0.886-0.897
		c0.59,0,0.886,0.299,0.886,0.897v14.95c0,0.598-0.296,0.897-0.886,0.897c-0.591,0-0.886-0.299-0.886-0.897v-7.015h-5.796v7.015
		c0,0.598-0.303,0.897-0.909,0.897C492.214,345.043,491.927,344.744,491.927,344.146z"/>
	<path fill="#F9F9F9" stroke="#FFFFFF" stroke-width="0.5" stroke-miterlimit="10" d="M506.324,329.575
		c0-0.242,0.08-0.454,0.241-0.636c0.161-0.181,0.364-0.272,0.609-0.272h6.395c0.245,0,0.452,0.091,0.621,0.272
		c0.168,0.182,0.253,0.394,0.253,0.636s-0.085,0.443-0.253,0.602c-0.169,0.159-0.376,0.238-0.621,0.238h-2.347v12.489h2.347
		c0.245,0,0.452,0.091,0.621,0.272c0.168,0.182,0.253,0.394,0.253,0.636s-0.085,0.442-0.253,0.602
		c-0.169,0.159-0.376,0.238-0.621,0.238h-6.395c-0.567,0-0.851-0.28-0.851-0.84c0-0.242,0.08-0.454,0.241-0.636
		s0.364-0.272,0.609-0.272h2.347v-12.489h-2.347C506.607,330.415,506.324,330.135,506.324,329.575z"/>
	<path fill="#F9F9F9" stroke="#FFFFFF" stroke-width="0.5" stroke-miterlimit="10" d="M527.806,344.629h-8.142v-15.433
		c0-0.598,0.291-0.897,0.874-0.897c0.261,0,0.475,0.084,0.644,0.253s0.253,0.384,0.253,0.645v13.684h6.371
		c0.245,0,0.456,0.091,0.633,0.272c0.176,0.182,0.265,0.394,0.265,0.636C528.703,344.349,528.404,344.629,527.806,344.629z"/>
	<path fill="#F9F9F9" stroke="#FFFFFF" stroke-width="0.5" stroke-miterlimit="10" d="M535.234,337.085v5.819h6.392
		c0.23,0,0.435,0.092,0.611,0.276s0.266,0.391,0.266,0.621s-0.089,0.429-0.265,0.598c-0.177,0.169-0.38,0.253-0.609,0.253h-8.165
		v-15.985h8.165c0.229,0,0.433,0.092,0.609,0.276c0.176,0.184,0.265,0.391,0.265,0.621c0,0.23-0.089,0.429-0.265,0.598
		c-0.177,0.169-0.38,0.253-0.609,0.253h-6.395v4.922h5.889c0.229,0,0.433,0.088,0.609,0.264c0.176,0.177,0.265,0.38,0.265,0.61
		s-0.089,0.433-0.266,0.609c-0.177,0.176-0.381,0.265-0.611,0.265L535.234,337.085L535.234,337.085z"/>
</g>
<path fill="#EA5F69" stroke="#EA5F69" stroke-width="0.25" stroke-miterlimit="10" d="M312.46,394.53c0-0.95,0.33-1.809,0.989-2.575
	c0.843-0.967,2.024-1.449,3.542-1.449c1.349,0,2.45,0.411,3.301,1.232s1.276,1.9,1.276,3.236c0,1.106-0.436,2.104-1.307,2.995
	c-0.52,0.537-1.444,1.221-2.774,2.05c-1.085,0.677-1.827,1.198-2.224,1.566c-0.688,0.631-1.032,1.283-1.032,1.959v1.336h6.833
	c0.244,0,0.451,0.091,0.619,0.272s0.252,0.394,0.252,0.636c0,0.56-0.292,0.84-0.874,0.84h-8.602v-3.06
	c0-1.088,0.368-2.031,1.104-2.828c0.521-0.553,1.357-1.181,2.507-1.887c1.288-0.782,2.162-1.38,2.622-1.794
	c0.736-0.659,1.104-1.334,1.104-2.023c0-0.89-0.246-1.576-0.736-2.059c-0.491-0.483-1.181-0.725-2.07-0.725
	c-0.506,0-1.027,0.169-1.564,0.506c-0.69,0.43-1.096,1.035-1.219,1.817c-0.092,0.552-0.391,0.827-0.897,0.827
	C312.743,395.404,312.46,395.113,312.46,394.53z"/>
<path fill="#EA5F69" stroke="#EA5F69" stroke-width="0.25" stroke-miterlimit="10" d="M335.299,402.558
	c0,1.027-0.276,1.925-0.828,2.691c-0.782,1.073-1.963,1.609-3.542,1.609c-1.564,0-2.722-0.536-3.473-1.609
	c-0.521-0.751-0.782-1.656-0.782-2.714v-7.751c0-1.027,0.268-1.917,0.805-2.668c0.767-1.073,1.947-1.61,3.542-1.61
	c1.564,0,2.722,0.537,3.473,1.61c0.537,0.767,0.805,1.663,0.805,2.69L335.299,402.558L335.299,402.558z M333.528,402.507v-7.673
	c0-0.798-0.229-1.428-0.684-1.889c-0.456-0.461-1.071-0.691-1.846-0.691c-0.79,0-1.413,0.227-1.869,0.68s-0.684,1.087-0.684,1.9
	v7.673c0,0.799,0.229,1.425,0.687,1.878s1.084,0.68,1.878,0.68c0.778,0,1.393-0.227,1.843-0.68S333.528,403.306,333.528,402.507z"/>
<path fill="#EA5F69" stroke="#EA5F69" stroke-width="0.25" stroke-miterlimit="10" d="M341.094,391.575
	c0-0.258,0.088-0.474,0.265-0.647s0.395-0.261,0.656-0.261h3.611v14.214h2.829c0.245,0,0.456,0.091,0.632,0.272
	s0.265,0.394,0.265,0.636c0,0.56-0.299,0.84-0.897,0.84h-7.337c-0.583,0-0.874-0.28-0.874-0.84c0-0.605,0.306-0.908,0.92-0.908h2.76
	v-12.466h-1.909C341.401,392.415,341.094,392.135,341.094,391.575z"/>
<path fill="#EA5F69" stroke="#EA5F69" stroke-width="0.25" stroke-miterlimit="10" d="M353.675,391.609
	c0-0.628,0.291-0.942,0.874-0.942h8.97v1.472l-5.244,14.191c-0.138,0.383-0.43,0.574-0.874,0.574c-0.23,0-0.434-0.08-0.609-0.24
	c-0.177-0.16-0.265-0.355-0.265-0.584c0-0.107,0.026-0.223,0.079-0.345l4.979-13.274h-7.034
	C353.967,392.461,353.675,392.177,353.675,391.609z"/>
<g>
	<path fill="#EA5F69" stroke="#EA5F69" stroke-width="0.25" stroke-miterlimit="10" d="M312.04,371.668
		c0-0.598,0.287-0.896,0.862-0.896c0.606,0,0.909,0.301,0.909,0.902c0,1.698,0.778,2.547,2.334,2.547
		c1.571,0,2.357-0.792,2.357-2.377v-10.318h-4.324c-0.567,0-0.851-0.28-0.851-0.84c0-0.242,0.08-0.454,0.241-0.636
		s0.364-0.272,0.609-0.272h6.049v11.914c0,1.334-0.356,2.38-1.07,3.14c-0.713,0.759-1.729,1.138-3.047,1.138
		c-1.303,0-2.315-0.398-3.036-1.195C312.384,374.022,312.04,372.987,312.04,371.668z"/>
	<path fill="#EA5F69" stroke="#EA5F69" stroke-width="0.25" stroke-miterlimit="10" d="M332.693,360.308
		c0-0.599,0.291-0.898,0.874-0.898c0.26,0,0.475,0.084,0.644,0.253c0.168,0.169,0.253,0.384,0.253,0.644v11.362
		c0,0.997-0.314,1.894-0.943,2.691c-0.843,1.073-2.07,1.609-3.68,1.609c-1.58,0-2.768-0.536-3.565-1.609
		c-0.598-0.798-0.897-1.702-0.897-2.714v-11.34c0-0.598,0.291-0.896,0.874-0.896c0.26,0,0.475,0.084,0.644,0.253
		c0.169,0.169,0.253,0.385,0.253,0.646v11.356c0,0.799,0.26,1.425,0.782,1.878c0.521,0.453,1.188,0.679,2.001,0.679
		c0.812,0,1.476-0.222,1.99-0.668c0.513-0.445,0.771-1.074,0.771-1.889V360.308z"/>
	<path fill="#EA5F69" stroke="#EA5F69" stroke-width="0.25" stroke-miterlimit="10" d="M347.344,375.739h-8.142v-15.434
		c0-0.598,0.291-0.896,0.874-0.896c0.26,0,0.475,0.084,0.644,0.253c0.168,0.169,0.253,0.385,0.253,0.646v13.684h6.371
		c0.245,0,0.456,0.091,0.632,0.272s0.265,0.394,0.265,0.636C348.241,375.459,347.942,375.739,347.344,375.739z"/>
	<path fill="#EA5F69" stroke="#EA5F69" stroke-width="0.25" stroke-miterlimit="10" d="M353.048,360.674
		c0-0.245,0.084-0.46,0.253-0.644c0.168-0.185,0.375-0.276,0.621-0.276h7.751v1.528l-3.295,4.978
		c1.121,0.168,2.016,0.624,2.684,1.365c0.668,0.742,1.002,1.664,1.002,2.767v1.171c0,1.024-0.299,1.943-0.897,2.754
		c-0.813,1.102-2.009,1.652-3.588,1.652c-1.641,0-2.867-0.534-3.68-1.603c-0.614-0.794-0.92-1.726-0.92-2.794
		c0-0.596,0.291-0.894,0.874-0.894c0.23,0,0.437,0.093,0.621,0.276c0.184,0.184,0.276,0.391,0.276,0.621
		c0,0.812,0.253,1.457,0.759,1.932c0.506,0.476,1.165,0.713,1.978,0.713c0.812,0,1.483-0.241,2.013-0.724
		c0.529-0.483,0.793-1.123,0.793-1.921v-1.127c0-0.797-0.265-1.418-0.793-1.863c-0.529-0.444-1.2-0.667-2.013-0.667h-1.219v-1.472
		l3.243-4.899h-5.589c-0.246,0-0.453-0.084-0.621-0.253C353.132,361.127,353.048,360.92,353.048,360.674z"/>
	<path fill="#EA5F69" stroke="#EA5F69" stroke-width="0.25" stroke-miterlimit="10" d="M367.629,360.686
		c0-0.258,0.088-0.474,0.265-0.647s0.395-0.261,0.656-0.261h3.611v14.214h2.829c0.245,0,0.456,0.091,0.632,0.272
		s0.265,0.394,0.265,0.636c0,0.56-0.299,0.84-0.897,0.84h-7.337c-0.583,0-0.874-0.28-0.874-0.84c0-0.605,0.306-0.908,0.92-0.908
		h2.76v-12.466h-1.909C367.936,361.525,367.629,361.245,367.629,360.686z"/>
	<path fill="#EA5F69" stroke="#EA5F69" stroke-width="0.25" stroke-miterlimit="10" d="M381.567,369.713
		c0-0.567,0.291-0.851,0.874-0.851h5.359c0.583,0,0.874,0.283,0.874,0.851s-0.292,0.852-0.874,0.852h-5.359
		C381.858,370.564,381.567,370.28,381.567,369.713z"/>
	<path fill="#EA5F69" stroke="#EA5F69" stroke-width="0.25" stroke-miterlimit="10" d="M404.314,375.209
		c0,0.491-0.23,0.783-0.69,0.875c-0.583,0.123-0.943-0.108-1.081-0.693l-0.989-4.091h-5.244l-0.989,4.071
		c-0.123,0.476-0.383,0.713-0.782,0.713c-0.659,0-0.989-0.291-0.989-0.874c0-0.092,0.007-0.168,0.023-0.229l3.565-15.203h3.542
		l3.611,15.225C404.306,375.063,404.314,375.132,404.314,375.209z M398.541,361.525l-1.84,8.004h4.439l-1.817-8.004H398.541z"/>
	<path fill="#EA5F69" stroke="#EA5F69" stroke-width="0.25" stroke-miterlimit="10" d="M415.492,360.308
		c0-0.599,0.291-0.898,0.874-0.898c0.26,0,0.475,0.084,0.644,0.253c0.168,0.169,0.253,0.384,0.253,0.644v11.362
		c0,0.997-0.314,1.894-0.943,2.691c-0.843,1.073-2.07,1.609-3.68,1.609c-1.58,0-2.768-0.536-3.565-1.609
		c-0.598-0.798-0.897-1.702-0.897-2.714v-11.34c0-0.598,0.291-0.896,0.874-0.896c0.26,0,0.475,0.084,0.644,0.253
		c0.169,0.169,0.253,0.385,0.253,0.646v11.356c0,0.799,0.26,1.425,0.782,1.878c0.521,0.453,1.188,0.679,2.001,0.679
		c0.812,0,1.476-0.222,1.99-0.668c0.513-0.445,0.771-1.074,0.771-1.889V360.308z"/>
	<path fill="#EA5F69" stroke="#EA5F69" stroke-width="0.25" stroke-miterlimit="10" d="M429.269,363.917
		c0-0.797-0.257-1.422-0.771-1.874c-0.514-0.452-1.169-0.679-1.967-0.679c-0.813,0-1.48,0.227-2.001,0.68
		c-0.521,0.453-0.782,1.087-0.782,1.9v7.719c0,0.799,0.26,1.425,0.782,1.879c0.521,0.453,1.188,0.679,2.001,0.679
		c0.812,0,1.476-0.223,1.99-0.669c0.513-0.446,0.771-1.078,0.771-1.895v-2.979h-2.806c-0.246,0-0.449-0.088-0.609-0.264
		c-0.161-0.177-0.242-0.388-0.242-0.633c0-0.23,0.084-0.43,0.253-0.599c0.168-0.168,0.368-0.253,0.598-0.253h4.577v4.738
		c0,0.997-0.314,1.894-0.943,2.691c-0.843,1.073-2.07,1.609-3.68,1.609c-1.58,0-2.768-0.536-3.565-1.609
		c-0.598-0.798-0.897-1.702-0.897-2.714v-7.751c0-0.981,0.306-1.871,0.92-2.668c0.812-1.073,2.024-1.61,3.634-1.61
		c1.579,0,2.768,0.537,3.565,1.61c0.598,0.797,0.897,1.694,0.897,2.69c0,0.23-0.088,0.434-0.264,0.609
		c-0.177,0.177-0.38,0.265-0.61,0.265s-0.429-0.088-0.598-0.265C429.353,364.351,429.269,364.147,429.269,363.917z"/>
	<path fill="#EA5F69" stroke="#EA5F69" stroke-width="0.25" stroke-miterlimit="10" d="M444.633,371.668
		c0,1.027-0.276,1.925-0.828,2.691c-0.782,1.073-1.963,1.609-3.542,1.609c-1.564,0-2.722-0.536-3.473-1.609
		c-0.521-0.751-0.782-1.656-0.782-2.714v-7.751c0-1.027,0.268-1.917,0.805-2.668c0.767-1.073,1.947-1.61,3.542-1.61
		c1.564,0,2.722,0.537,3.473,1.61c0.537,0.767,0.805,1.663,0.805,2.69V371.668z M442.862,371.617v-7.673
		c0-0.798-0.229-1.428-0.684-1.889c-0.456-0.461-1.071-0.691-1.846-0.691c-0.79,0-1.413,0.227-1.869,0.68s-0.684,1.087-0.684,1.9
		v7.673c0,0.799,0.229,1.425,0.687,1.878s1.084,0.68,1.878,0.68c0.778,0,1.393-0.227,1.843-0.68S442.862,372.416,442.862,371.617z"
		/>
	<path fill="#EA5F69" stroke="#EA5F69" stroke-width="0.25" stroke-miterlimit="10" d="M458.433,363.688
		c0,0.582-0.299,0.874-0.897,0.874c-0.537,0-0.828-0.286-0.874-0.857c-0.062-0.726-0.322-1.298-0.782-1.714
		c-0.46-0.417-1.05-0.626-1.771-0.626c-0.598,0-1.158,0.177-1.679,0.531c-0.706,0.478-1.058,1.163-1.058,2.056v2.611
		c0.767-0.659,1.709-0.989,2.829-0.989c1.579,0,2.767,0.537,3.565,1.609c0.598,0.798,0.897,1.702,0.897,2.715v1.816
		c0,0.966-0.307,1.848-0.92,2.646c-0.828,1.073-2.04,1.609-3.634,1.609c-1.58,0-2.775-0.536-3.588-1.609
		c-0.613-0.798-0.92-1.687-0.92-2.668v-7.751c0-0.967,0.314-1.863,0.943-2.691c0.828-1.089,2.047-1.633,3.657-1.633
		c1.457,0,2.576,0.506,3.358,1.518C458.141,361.901,458.433,362.752,458.433,363.688z M456.892,371.65v-1.736
		c0.015-0.802-0.242-1.436-0.771-1.898c-0.529-0.463-1.2-0.694-2.013-0.694c-0.797,0-1.453,0.239-1.966,0.718
		c-0.514,0.479-0.771,1.119-0.771,1.922v1.689c0,0.804,0.257,1.433,0.773,1.888c0.516,0.455,1.174,0.683,1.975,0.683
		c0.8,0,1.458-0.228,1.975-0.683C456.61,373.083,456.876,372.454,456.892,371.65z"/>
</g>
</svg>
