<?xml version="1.0" encoding="utf-8"?>
<!-- Generator: Adobe Illustrator 17.0.0, SVG Export Plug-In . SVG Version: 6.00 Build 0)  -->
<!DOCTYPE svg PUBLIC "-//W3C//DTD SVG 1.1//EN" "http://www.w3.org/Graphics/SVG/1.1/DTD/svg11.dtd">
<svg version="1.1" xmlns="http://www.w3.org/2000/svg" xmlns:xlink="http://www.w3.org/1999/xlink" x="0px" y="0px" width="938px"
	 height="644px" viewBox="35.5 -81 938 644" enable-background="new 35.5 -81 938 644" xml:space="preserve">
<g id="Layer_2_1_">
	<g id="Layer_3">
		<rect x="35.5" y="-81" fill="#1C3557" width="938" height="642"/>
	</g>
</g>
<g id="Layer_1">
	<g>
		<path fill="#A8D9DB" d="M61.627,186.801c0-2.705,2.209-5.004,4.959-5.004c2.705,0,5.004,2.299,5.004,5.004
			s-2.299,5.005-5.004,5.005C63.836,191.805,61.627,189.506,61.627,186.801z"/>
		<path fill="#467C9D" d="M76.908,209.099c0-2.705,2.209-5.004,4.959-5.004c2.705,0,5.004,2.299,5.004,5.004
			s-2.299,5.005-5.004,5.005C79.117,214.104,76.908,211.804,76.908,209.099z"/>
		<path fill="#EA5F69" d="M97.135,148.294c0-2.705,2.209-5.004,4.959-5.004c2.705,0,5.005,2.299,5.005,5.004
			s-2.299,5.005-5.005,5.005C99.344,153.299,97.135,150.999,97.135,148.294z"/>
		<path fill="#DBE5D8" d="M108.259,186.801c0-2.705,2.209-5.004,4.959-5.004c2.705,0,5.004,2.299,5.004,5.004
			s-2.299,5.005-5.004,5.005C110.468,191.805,108.259,189.506,108.259,186.801z"/>
		<path fill="#F9F9F9" d="M120.697,166.384c0-2.705,2.209-5.005,4.959-5.005c2.705,0,5.004,2.299,5.004,5.005
			s-2.299,5.004-5.004,5.004C122.906,171.389,120.697,169.089,120.697,166.384z"/>
		<path fill="#E53946" d="M120.697,214.104c0-2.705,2.209-5.005,4.959-5.005c2.705,0,5.004,2.299,5.004,5.005
			c0,2.705-2.299,5.004-5.004,5.004C122.906,219.108,120.697,216.809,120.697,214.104z"/>
	</g>
	<g>
		<path fill="#F9F9F9" d="M662.45,143.821c2.178,1.325,2.805,3.313,1.48,5.491l-17.924,29.58c-1.325,2.178-3.481,2.703-5.659,1.378
			s-2.703-3.481-1.378-5.659l17.924-29.58C658.218,142.853,660.272,142.496,662.45,143.821z"/>
		<path fill="#467C9D" d="M556.983,213.365c0-2.549,1.373-4.118,3.922-4.118h34.766c2.549,0,4.118,1.569,4.118,4.118
			s-1.569,4.118-4.118,4.118h-34.766C558.356,217.483,556.983,215.914,556.983,213.365z"/>
		<path fill="#DBE5D8" d="M560.82,146.993c0-2.549,1.373-4.118,3.922-4.118h13.644c2.549,0,4.118,1.569,4.118,4.118
			s-1.569,4.118-4.118,4.118h-13.644C562.193,151.112,560.82,149.543,560.82,146.993z"/>
		<path fill="#DBE5D8" d="M622.728,146.993c0-2.549,1.373-4.118,3.922-4.118h33.852c2.549,0,4.118,1.569,4.118,4.118
			s-1.569,4.118-4.118,4.118H626.65C624.101,151.112,622.728,149.543,622.728,146.993z"/>
		<path fill="#A8D9DB" d="M642.979,210.772c2.162,0,4.216,1.621,4.216,4.108c0,2.162-2.054,4.216-4.216,4.216
			c-17.188,0-21.62-13.296-21.62-20.755c0-2.162,1.621-4.216,4.108-4.216c2.162,0,4.216,2.054,4.216,4.216
			C629.683,208.935,638.98,210.772,642.979,210.772z"/>
		<path fill="#467C9D" d="M655.735,198.341c0-2.162,2.054-4.216,4.216-4.216c2.486,0,4.108,2.054,4.108,4.216
			c0,7.459-4.432,20.755-21.62,20.755c-2.162,0-4.216-2.054-4.216-4.216c0-2.486,2.054-4.108,4.216-4.108
			C646.438,210.772,655.735,208.935,655.735,198.341z"/>
		<path fill="#467C9D" d="M659.94,188.496c2.549,0,4.118,1.373,4.118,3.922v4.751c0,2.549-1.569,4.118-4.118,4.118
			s-4.118-1.569-4.118-4.118v-4.751C655.822,189.869,657.391,188.496,659.94,188.496z"/>
		<g>
			<path fill="#F9F9F9" d="M392.034,144.285c0,2.162-2.048,4.21-4.324,4.21h-31.632v24.578h29.129c2.276,0,4.324,2.048,4.324,4.324
				c0,2.048-2.048,4.324-4.324,4.324h-29.016v37.208h-8.875v-79.082h40.393C389.986,139.847,392.034,142.009,392.034,144.285z"/>
			<path fill="#F9F9F9" d="M461.437,220.408c-2.162,0.455-4.665-0.797-5.348-3.413l-4.892-20.141h-25.944l-4.892,20.141
				c-0.683,2.844-2.844,3.868-5.121,3.413c-2.844-0.569-4.095-2.844-3.527-5.348l17.637-75.212h17.523l17.864,75.212
				C465.306,217.563,463.713,219.952,461.437,220.408z M436.291,148.495l-9.103,39.598h21.961l-8.989-39.598L436.291,148.495
				L436.291,148.495z"/>
			<path fill="#F9F9F9" d="M526.324,177.965c7.054-3.072,8.42-12.175,8.42-16.157v-1.252c0-7.055-2.844-20.71-20.709-20.71h-23.553
				v79.082h24.123c17.751,0,21.392-13.996,21.392-20.937v-2.731C535.996,191.165,534.062,181.607,526.324,177.965z M499.243,148.495
				h14.793c4.096,0,11.948,1.365,11.948,12.062v1.024c0,10.695-6.372,12.403-11.265,12.403h-15.475L499.243,148.495L499.243,148.495
				z M527.235,197.65c0,10.81-8.421,12.517-12.63,12.517h-15.361v-27.422h15.93c4.779,0,12.062,1.706,12.062,12.629v2.276H527.235z"
				/>
			<path fill="#E53946" d="M643.022,181.063c-2.162,0-4.216-1.621-4.216-4.108c0-2.162,2.054-4.216,4.216-4.216
				c17.188,0,21.62,13.296,21.62,20.755c0,2.162-1.621,4.216-4.108,4.216c-2.162,0-4.216-2.054-4.216-4.216
				C656.318,182.901,647.021,181.063,643.022,181.063z"/>
			<path fill="#EA5F69" d="M578.969,142.875c2.549,0,4.118,1.373,4.118,3.922v66.568c0,2.549-1.569,4.118-4.118,4.118
				s-4.118-1.569-4.118-4.118v-66.568C574.851,144.248,576.42,142.875,578.969,142.875z"/>
		</g>
	</g>
	<g>
		<path fill="#A8D9DB" d="M150.814,292.427c0-2.705,2.209-5.004,4.959-5.004c2.705,0,5.004,2.299,5.004,5.004
			s-2.299,5.005-5.004,5.005C153.023,297.432,150.814,295.132,150.814,292.427z"/>
		<path fill="#467C9D" d="M166.095,314.726c0-2.705,2.209-5.004,4.959-5.004c2.705,0,5.004,2.299,5.004,5.004
			s-2.299,5.005-5.004,5.005C168.304,319.73,166.095,317.431,166.095,314.726z"/>
		<path fill="#EA5F69" d="M186.321,253.921c0-2.705,2.209-5.004,4.959-5.004c2.705,0,5.005,2.299,5.005,5.004
			s-2.299,5.005-5.005,5.005C188.53,258.925,186.321,256.626,186.321,253.921z"/>
		<path fill="#DBE5D8" d="M197.445,292.427c0-2.705,2.209-5.004,4.959-5.004c2.705,0,5.004,2.299,5.004,5.004
			s-2.299,5.005-5.004,5.005C199.654,297.432,197.445,295.132,197.445,292.427z"/>
		<path fill="#F9F9F9" d="M209.883,272.011c0-2.705,2.209-5.005,4.959-5.005c2.705,0,5.004,2.299,5.004,5.005
			c0,2.705-2.299,5.004-5.004,5.004C212.092,277.015,209.883,274.716,209.883,272.011z"/>
		<path fill="#E53946" d="M209.883,319.73c0-2.705,2.209-5.005,4.959-5.005c2.705,0,5.004,2.299,5.004,5.005
			c0,2.705-2.299,5.004-5.004,5.004C212.092,324.735,209.883,322.435,209.883,319.73z"/>
	</g>
	<g>
		<path fill="#A8D9DB" d="M150.814,398.054c0-2.705,2.209-5.004,4.959-5.004c2.705,0,5.004,2.299,5.004,5.004
			s-2.299,5.005-5.004,5.005C153.023,403.058,150.814,400.759,150.814,398.054z"/>
		<path fill="#467C9D" d="M166.095,420.352c0-2.705,2.209-5.004,4.959-5.004c2.705,0,5.004,2.299,5.004,5.004
			s-2.299,5.005-5.004,5.005C168.304,425.357,166.095,423.057,166.095,420.352z"/>
		<path fill="#EA5F69" d="M186.321,359.547c0-2.705,2.209-5.004,4.959-5.004c2.705,0,5.005,2.299,5.005,5.004
			s-2.299,5.005-5.005,5.005C188.53,364.552,186.321,362.252,186.321,359.547z"/>
		<path fill="#DBE5D8" d="M197.445,398.054c0-2.705,2.209-5.004,4.959-5.004c2.705,0,5.004,2.299,5.004,5.004
			s-2.299,5.005-5.004,5.005C199.654,403.058,197.445,400.759,197.445,398.054z"/>
		<path fill="#F9F9F9" d="M209.883,377.637c0-2.705,2.209-5.005,4.959-5.005c2.705,0,5.004,2.299,5.004,5.005
			c0,2.705-2.299,5.004-5.004,5.004C212.092,382.642,209.883,380.342,209.883,377.637z"/>
		<path fill="#E53946" d="M209.883,425.357c0-2.705,2.209-5.005,4.959-5.005c2.705,0,5.004,2.299,5.004,5.005
			c0,2.705-2.299,5.004-5.004,5.004C212.092,430.361,209.883,428.062,209.883,425.357z"/>
	</g>
	<g>
		<path fill="#A8D9DB" d="M701.765,398.054c0-2.705,2.209-5.004,4.959-5.004c2.705,0,5.004,2.299,5.004,5.004
			s-2.299,5.005-5.004,5.005C703.974,403.058,701.765,400.759,701.765,398.054z"/>
		<path fill="#467C9D" d="M717.047,420.352c0-2.705,2.209-5.004,4.959-5.004c2.705,0,5.004,2.299,5.004,5.004
			s-2.299,5.005-5.004,5.005C719.255,425.357,717.047,423.057,717.047,420.352z"/>
		<path fill="#EA5F69" d="M737.273,359.547c0-2.705,2.209-5.004,4.959-5.004c2.705,0,5.005,2.299,5.005,5.004
			s-2.299,5.005-5.005,5.005C739.482,364.552,737.273,362.252,737.273,359.547z"/>
		<path fill="#DBE5D8" d="M748.397,398.054c0-2.705,2.209-5.004,4.959-5.004c2.705,0,5.004,2.299,5.004,5.004
			s-2.299,5.005-5.004,5.005C750.606,403.058,748.397,400.759,748.397,398.054z"/>
		<path fill="#F9F9F9" d="M760.835,377.637c0-2.705,2.209-5.005,4.959-5.005c2.705,0,5.004,2.299,5.004,5.005
			c0,2.705-2.299,5.004-5.004,5.004C763.044,382.642,760.835,380.342,760.835,377.637z"/>
		<path fill="#E53946" d="M760.835,425.357c0-2.705,2.209-5.005,4.959-5.005c2.705,0,5.004,2.299,5.004,5.005
			c0,2.705-2.299,5.004-5.004,5.004C763.044,430.361,760.835,428.062,760.835,425.357z"/>
	</g>
	<g>
		<path fill="#A8D9DB" d="M787.642,398.054c0-2.705,2.209-5.004,4.959-5.004c2.705,0,5.004,2.299,5.004,5.004
			s-2.299,5.005-5.004,5.005C789.851,403.058,787.642,400.759,787.642,398.054z"/>
		<path fill="#467C9D" d="M802.923,420.352c0-2.705,2.209-5.004,4.959-5.004c2.705,0,5.004,2.299,5.004,5.004
			s-2.299,5.005-5.004,5.005C805.132,425.357,802.923,423.057,802.923,420.352z"/>
		<path fill="#EA5F69" d="M823.15,359.547c0-2.705,2.209-5.004,4.959-5.004c2.705,0,5.005,2.299,5.005,5.004
			s-2.299,5.005-5.005,5.005C825.359,364.552,823.15,362.252,823.15,359.547z"/>
		<path fill="#DBE5D8" d="M834.273,398.054c0-2.705,2.209-5.004,4.959-5.004c2.705,0,5.004,2.299,5.004,5.004
			s-2.299,5.005-5.004,5.005C836.482,403.058,834.273,400.759,834.273,398.054z"/>
		<path fill="#F9F9F9" d="M846.711,377.637c0-2.705,2.209-5.005,4.959-5.005c2.705,0,5.004,2.299,5.004,5.005
			c0,2.705-2.299,5.004-5.004,5.004C848.92,382.642,846.711,380.342,846.711,377.637z"/>
		<path fill="#E53946" d="M846.711,425.357c0-2.705,2.209-5.005,4.959-5.005c2.705,0,5.004,2.299,5.004,5.005
			c0,2.705-2.299,5.004-5.004,5.004C848.92,430.361,846.711,428.062,846.711,425.357z"/>
	</g>
	<g>
		<path fill="#F9F9F9" d="M154.77,212.491c0,2.249-1.384,3.633-3.633,3.633s-3.633-1.384-3.633-3.633v-22.31
			c0-2.249,1.384-3.46,3.633-3.46s3.633,1.211,3.633,3.46V212.491z"/>
		<path fill="#EA5F69" d="M177.581,212.491c0,2.249-1.384,3.633-3.633,3.633s-3.633-1.384-3.633-3.633V141.35
			c0-2.249,1.384-3.46,3.633-3.46s3.633,1.211,3.633,3.46V212.491z"/>
		<path fill="#E53946" d="M173.948,145.155c-2.249,0-3.633-1.384-3.633-3.633s1.384-3.633,3.633-3.633h24.079
			c2.249,0,3.46,1.384,3.46,3.633s-1.211,3.633-3.46,3.633H173.948z"/>
		<path fill="#F9F9F9" d="M201.659,212.491c0,2.249-1.384,3.633-3.633,3.633s-3.633-1.384-3.633-3.633V141.35
			c0-2.249,1.384-3.46,3.633-3.46s3.633,1.211,3.633,3.46V212.491z"/>
		<path fill="#467C9D" d="M173.948,172.904c-2.249,0-3.633-1.384-3.633-3.633s1.384-3.633,3.633-3.633h48.33
			c2.249,0,3.46,1.384,3.46,3.633s-1.211,3.633-3.46,3.633H173.948z"/>
		<path fill="#DBE5D8" d="M151.137,193.987c-2.249,0-3.633-1.384-3.633-3.633s1.384-3.633,3.633-3.633h71.141
			c2.249,0,3.46,1.384,3.46,3.633s-1.211,3.633-3.46,3.633H151.137z"/>
		<path fill="#EA5F69" d="M225.738,212.491c0,2.249-1.384,3.633-3.633,3.633s-3.633-1.384-3.633-3.633v-43.393
			c0-2.249,1.384-3.46,3.633-3.46s3.633,1.211,3.633,3.46V212.491z"/>
		<path fill="#A8D9DB" d="M151.137,216.124c-2.249,0-3.633-1.384-3.633-3.633s1.384-3.633,3.633-3.633h71.141
			c2.249,0,3.46,1.384,3.46,3.633s-1.211,3.633-3.46,3.633H151.137z"/>
	</g>
	<g>
		<path fill="#F9F9F9" d="M885.238,531.512c0,2.249-1.384,3.633-3.633,3.633s-3.633-1.384-3.633-3.633v-22.31
			c0-2.249,1.384-3.46,3.633-3.46s3.633,1.211,3.633,3.46V531.512z"/>
		<path fill="#EA5F69" d="M908.049,531.512c0,2.249-1.384,3.633-3.633,3.633s-3.633-1.384-3.633-3.633v-71.141
			c0-2.249,1.384-3.46,3.633-3.46s3.633,1.211,3.633,3.46V531.512z"/>
		<path fill="#E53946" d="M904.415,464.177c-2.249,0-3.633-1.384-3.633-3.633s1.384-3.633,3.633-3.633h24.078
			c2.249,0,3.46,1.384,3.46,3.633s-1.211,3.633-3.46,3.633H904.415z"/>
		<path fill="#F9F9F9" d="M932.127,531.512c0,2.249-1.384,3.633-3.633,3.633s-3.633-1.384-3.633-3.633v-71.141
			c0-2.249,1.384-3.46,3.633-3.46s3.633,1.211,3.633,3.46V531.512z"/>
		<path fill="#467C9D" d="M904.415,491.925c-2.249,0-3.633-1.384-3.633-3.633s1.384-3.633,3.633-3.633h48.33
			c2.249,0,3.46,1.384,3.46,3.633s-1.211,3.633-3.46,3.633H904.415z"/>
		<path fill="#DBE5D8" d="M881.604,513.008c-2.249,0-3.633-1.384-3.633-3.633s1.384-3.633,3.633-3.633h71.141
			c2.249,0,3.46,1.384,3.46,3.633s-1.211,3.633-3.46,3.633H881.604z"/>
		<path fill="#EA5F69" d="M956.206,531.512c0,2.249-1.384,3.633-3.633,3.633s-3.633-1.384-3.633-3.633v-43.393
			c0-2.249,1.384-3.46,3.633-3.46s3.633,1.211,3.633,3.46V531.512z"/>
		<path fill="#A8D9DB" d="M881.604,535.145c-2.249,0-3.633-1.384-3.633-3.633s1.384-3.633,3.633-3.633h71.141
			c2.249,0,3.46,1.384,3.46,3.633s-1.211,3.633-3.46,3.633H881.604z"/>
	</g>
	<g>
		<path fill="#F9F9F9" d="M250.407,423.744c0,2.249-1.384,3.633-3.633,3.633s-3.633-1.384-3.633-3.633v-22.31
			c0-2.249,1.384-3.46,3.633-3.46s3.633,1.211,3.633,3.46V423.744z"/>
		<path fill="#EA5F69" d="M273.217,423.744c0,2.249-1.384,3.633-3.633,3.633s-3.633-1.384-3.633-3.633v-71.141
			c0-2.249,1.384-3.46,3.633-3.46s3.633,1.211,3.633,3.46V423.744z"/>
		<path fill="#E53946" d="M269.584,356.409c-2.249,0-3.633-1.384-3.633-3.633s1.384-3.633,3.633-3.633h24.079
			c2.249,0,3.46,1.384,3.46,3.633s-1.211,3.633-3.46,3.633H269.584z"/>
		<path fill="#F9F9F9" d="M297.296,423.744c0,2.249-1.384,3.633-3.633,3.633s-3.633-1.384-3.633-3.633v-71.141
			c0-2.249,1.384-3.46,3.633-3.46s3.633,1.211,3.633,3.46V423.744z"/>
		<path fill="#467C9D" d="M269.584,384.157c-2.249,0-3.633-1.384-3.633-3.633s1.384-3.633,3.633-3.633h48.33
			c2.249,0,3.46,1.384,3.46,3.633s-1.211,3.633-3.46,3.633H269.584z"/>
		<path fill="#DBE5D8" d="M246.773,405.24c-2.249,0-3.633-1.384-3.633-3.633s1.384-3.633,3.633-3.633h71.141
			c2.249,0,3.46,1.384,3.46,3.633s-1.211,3.633-3.46,3.633H246.773z"/>
		<path fill="#EA5F69" d="M321.375,423.744c0,2.249-1.384,3.633-3.633,3.633s-3.633-1.384-3.633-3.633v-43.393
			c0-2.249,1.384-3.46,3.633-3.46s3.633,1.211,3.633,3.46V423.744z"/>
		<path fill="#A8D9DB" d="M246.773,427.377c-2.249,0-3.633-1.384-3.633-3.633s1.384-3.633,3.633-3.633h71.141
			c2.249,0,3.46,1.384,3.46,3.633s-1.211,3.633-3.46,3.633H246.773z"/>
	</g>
	<g>
		<path fill="#F9F9F9" d="M524.559,423.744c0,2.249-1.384,3.633-3.633,3.633s-3.633-1.384-3.633-3.633v-22.31
			c0-2.249,1.384-3.46,3.633-3.46s3.633,1.211,3.633,3.46V423.744z"/>
		<path fill="#EA5F69" d="M547.37,423.744c0,2.249-1.384,3.633-3.633,3.633s-3.633-1.384-3.633-3.633v-71.141
			c0-2.249,1.384-3.46,3.633-3.46s3.633,1.211,3.633,3.46V423.744z"/>
		<path fill="#E53946" d="M543.736,356.409c-2.249,0-3.633-1.384-3.633-3.633s1.384-3.633,3.633-3.633h24.079
			c2.249,0,3.46,1.384,3.46,3.633s-1.211,3.633-3.46,3.633H543.736z"/>
		<path fill="#F9F9F9" d="M571.448,423.744c0,2.249-1.384,3.633-3.633,3.633s-3.633-1.384-3.633-3.633v-71.141
			c0-2.249,1.384-3.46,3.633-3.46s3.633,1.211,3.633,3.46V423.744z"/>
		<path fill="#467C9D" d="M543.736,384.157c-2.249,0-3.633-1.384-3.633-3.633s1.384-3.633,3.633-3.633h48.33
			c2.249,0,3.46,1.384,3.46,3.633s-1.211,3.633-3.46,3.633H543.736z"/>
		<path fill="#DBE5D8" d="M520.926,405.24c-2.249,0-3.633-1.384-3.633-3.633s1.384-3.633,3.633-3.633h71.141
			c2.249,0,3.46,1.384,3.46,3.633s-1.211,3.633-3.46,3.633H520.926z"/>
		<path fill="#EA5F69" d="M595.527,423.744c0,2.249-1.384,3.633-3.633,3.633s-3.633-1.384-3.633-3.633v-43.393
			c0-2.249,1.384-3.46,3.633-3.46s3.633,1.211,3.633,3.46V423.744z"/>
		<path fill="#A8D9DB" d="M520.926,427.377c-2.249,0-3.633-1.384-3.633-3.633s1.384-3.633,3.633-3.633h71.141
			c2.249,0,3.46,1.384,3.46,3.633s-1.211,3.633-3.46,3.633H520.926z"/>
	</g>
	<g>
		<path fill="#F9F9F9" d="M619.568,423.744c0,2.249-1.384,3.633-3.633,3.633s-3.633-1.384-3.633-3.633v-22.31
			c0-2.249,1.384-3.46,3.633-3.46s3.633,1.211,3.633,3.46V423.744z"/>
		<path fill="#EA5F69" d="M642.379,423.744c0,2.249-1.384,3.633-3.633,3.633s-3.633-1.384-3.633-3.633v-71.141
			c0-2.249,1.384-3.46,3.633-3.46s3.633,1.211,3.633,3.46V423.744z"/>
		<path fill="#E53946" d="M638.745,356.409c-2.249,0-3.633-1.384-3.633-3.633s1.384-3.633,3.633-3.633h24.079
			c2.249,0,3.46,1.384,3.46,3.633s-1.211,3.633-3.46,3.633H638.745z"/>
		<path fill="#F9F9F9" d="M666.457,423.744c0,2.249-1.384,3.633-3.633,3.633s-3.633-1.384-3.633-3.633v-71.141
			c0-2.249,1.384-3.46,3.633-3.46s3.633,1.211,3.633,3.46V423.744z"/>
		<path fill="#467C9D" d="M638.745,384.157c-2.249,0-3.633-1.384-3.633-3.633s1.384-3.633,3.633-3.633h48.33
			c2.249,0,3.46,1.384,3.46,3.633s-1.211,3.633-3.46,3.633H638.745z"/>
		<path fill="#DBE5D8" d="M615.935,405.24c-2.249,0-3.633-1.384-3.633-3.633s1.384-3.633,3.633-3.633h71.141
			c2.249,0,3.46,1.384,3.46,3.633s-1.211,3.633-3.46,3.633H615.935z"/>
		<path fill="#EA5F69" d="M690.536,423.744c0,2.249-1.384,3.633-3.633,3.633s-3.633-1.384-3.633-3.633v-43.393
			c0-2.249,1.384-3.46,3.633-3.46s3.633,1.211,3.633,3.46V423.744z"/>
		<path fill="#A8D9DB" d="M615.935,427.377c-2.249,0-3.633-1.384-3.633-3.633s1.384-3.633,3.633-3.633h71.141
			c2.249,0,3.46,1.384,3.46,3.633s-1.211,3.633-3.46,3.633H615.935z"/>
	</g>
	<g>
		<path fill="#F9F9F9" d="M697.662,318.117c0,2.249-1.384,3.633-3.633,3.633s-3.633-1.384-3.633-3.633v-22.31
			c0-2.249,1.384-3.46,3.633-3.46s3.633,1.211,3.633,3.46V318.117z"/>
		<path fill="#EA5F69" d="M720.473,318.117c0,2.249-1.384,3.633-3.633,3.633s-3.633-1.384-3.633-3.633v-71.141
			c0-2.249,1.384-3.46,3.633-3.46s3.633,1.211,3.633,3.46V318.117z"/>
		<path fill="#E53946" d="M716.839,250.782c-2.249,0-3.633-1.384-3.633-3.633s1.384-3.633,3.633-3.633h24.079
			c2.249,0,3.46,1.384,3.46,3.633s-1.211,3.633-3.46,3.633H716.839z"/>
		<path fill="#F9F9F9" d="M744.551,318.117c0,2.249-1.384,3.633-3.633,3.633s-3.633-1.384-3.633-3.633v-71.141
			c0-2.249,1.384-3.46,3.633-3.46s3.633,1.211,3.633,3.46V318.117z"/>
		<path fill="#467C9D" d="M716.839,278.531c-2.249,0-3.633-1.384-3.633-3.633s1.384-3.633,3.633-3.633h48.33
			c2.249,0,3.46,1.384,3.46,3.633s-1.211,3.633-3.46,3.633H716.839z"/>
		<path fill="#DBE5D8" d="M694.029,299.614c-2.249,0-3.633-1.384-3.633-3.633s1.384-3.633,3.633-3.633h71.141
			c2.249,0,3.46,1.384,3.46,3.633s-1.211,3.633-3.46,3.633H694.029z"/>
		<path fill="#EA5F69" d="M768.63,318.117c0,2.249-1.384,3.633-3.633,3.633s-3.633-1.384-3.633-3.633v-43.393
			c0-2.249,1.384-3.46,3.633-3.46s3.633,1.211,3.633,3.46V318.117z"/>
		<path fill="#A8D9DB" d="M694.029,321.75c-2.249,0-3.633-1.384-3.633-3.633s1.384-3.633,3.633-3.633h71.141
			c2.249,0,3.46,1.384,3.46,3.633s-1.211,3.633-3.46,3.633H694.029z"/>
	</g>
	<g>
		<path fill="#E53946" d="M63.217,421.444l28.325-28.325c1.59-1.59,3.548-1.59,5.138,0c1.591,1.591,1.591,3.548,0,5.138
			l-28.325,28.325c-1.59,1.59-3.425,1.468-5.016-0.122C61.749,424.869,61.627,423.034,63.217,421.444z"/>
		<path fill="#A8D9DB" d="M96.68,391.873c1.591,1.59,1.591,3.548,0,5.138c-1.59,1.59-3.548,1.59-5.138,0l-28.325-28.325
			c-1.59-1.591-1.468-3.426,0.122-5.016c1.591-1.591,3.426-1.713,5.016-0.122L96.68,391.873z"/>
		<path fill="#F9F9F9" d="M132.433,391.873c1.591,1.59,1.591,3.548,0,5.138c-1.59,1.59-3.548,1.59-5.138,0L98.97,368.686
			c-1.59-1.591-1.468-3.426,0.122-5.016c1.59-1.591,3.426-1.713,5.016-0.122L132.433,391.873z"/>
		<path fill="#DBE5D8" d="M98.97,421.444l28.325-28.325c1.591-1.59,3.548-1.59,5.138,0c1.591,1.591,1.591,3.548,0,5.138
			l-28.325,28.325c-1.59,1.59-3.425,1.468-5.016-0.122C97.502,424.869,97.379,423.034,98.97,421.444z"/>
	</g>
	<g>
		<path fill="#E53946" d="M63.217,315.817l28.325-28.325c1.59-1.59,3.548-1.59,5.138,0c1.591,1.591,1.591,3.548,0,5.138
			l-28.325,28.325c-1.59,1.59-3.425,1.468-5.016-0.122C61.749,319.243,61.627,317.408,63.217,315.817z"/>
		<path fill="#A8D9DB" d="M96.68,286.247c1.591,1.59,1.591,3.548,0,5.138c-1.59,1.59-3.548,1.59-5.138,0L63.217,263.06
			c-1.59-1.591-1.468-3.426,0.122-5.016c1.591-1.591,3.426-1.713,5.016-0.122L96.68,286.247z"/>
		<path fill="#F9F9F9" d="M132.433,286.247c1.591,1.59,1.591,3.548,0,5.138c-1.59,1.59-3.548,1.59-5.138,0L98.97,263.06
			c-1.59-1.591-1.468-3.426,0.122-5.016c1.59-1.591,3.426-1.713,5.016-0.122L132.433,286.247z"/>
		<path fill="#DBE5D8" d="M98.97,315.817l28.325-28.325c1.591-1.59,3.548-1.59,5.138,0c1.591,1.591,1.591,3.548,0,5.138
			l-28.325,28.325c-1.59,1.59-3.425,1.468-5.016-0.122C97.502,319.243,97.379,317.408,98.97,315.817z"/>
	</g>
	<g>
		<path fill="#E53946" d="M790.603,210.191l28.325-28.325c1.59-1.59,3.548-1.59,5.138,0c1.591,1.591,1.591,3.548,0,5.138
			l-28.325,28.325c-1.59,1.59-3.425,1.468-5.016-0.122C789.135,213.616,789.013,211.781,790.603,210.191z"/>
		<path fill="#A8D9DB" d="M824.066,180.62c1.591,1.59,1.591,3.548,0,5.138c-1.59,1.59-3.548,1.59-5.138,0l-28.325-28.325
			c-1.59-1.591-1.468-3.426,0.122-5.016c1.591-1.591,3.426-1.713,5.016-0.122L824.066,180.62z"/>
		<path fill="#F9F9F9" d="M859.819,180.62c1.591,1.59,1.591,3.548,0,5.138c-1.59,1.59-3.548,1.59-5.138,0l-28.325-28.325
			c-1.59-1.591-1.468-3.426,0.122-5.016c1.59-1.591,3.426-1.713,5.016-0.122L859.819,180.62z"/>
		<path fill="#DBE5D8" d="M826.355,210.191l28.325-28.325c1.591-1.59,3.548-1.59,5.138,0c1.591,1.591,1.591,3.548,0,5.138
			l-28.325,28.325c-1.59,1.59-3.425,1.468-5.016-0.122C824.887,213.616,824.765,211.781,826.355,210.191z"/>
	</g>
	<g>
		<path fill="#E53946" d="M787.275,316.372l28.325-28.325c1.59-1.59,3.548-1.59,5.138,0c1.591,1.591,1.591,3.548,0,5.138
			l-28.325,28.325c-1.59,1.59-3.425,1.468-5.016-0.122C785.807,319.797,785.685,317.962,787.275,316.372z"/>
		<path fill="#A8D9DB" d="M820.739,286.801c1.591,1.59,1.591,3.548,0,5.138c-1.59,1.59-3.548,1.59-5.138,0l-28.325-28.325
			c-1.59-1.591-1.468-3.426,0.122-5.016c1.591-1.591,3.426-1.713,5.016-0.122L820.739,286.801z"/>
		<path fill="#F9F9F9" d="M856.491,286.801c1.591,1.59,1.591,3.548,0,5.138c-1.59,1.59-3.548,1.59-5.138,0l-28.325-28.325
			c-1.59-1.591-1.468-3.426,0.122-5.016c1.59-1.591,3.426-1.713,5.016-0.122L856.491,286.801z"/>
		<path fill="#DBE5D8" d="M823.028,316.372l28.325-28.325c1.591-1.59,3.548-1.59,5.138,0c1.591,1.591,1.591,3.548,0,5.138
			l-28.325,28.325c-1.59,1.59-3.425,1.468-5.016-0.122C821.56,319.797,821.438,317.962,823.028,316.372z"/>
	</g>
	<g>
		<path fill="#E53946" d="M435.255,421.646l28.325-28.325c1.59-1.59,3.548-1.59,5.138,0c1.591,1.591,1.591,3.548,0,5.138
			l-28.325,28.325c-1.59,1.59-3.425,1.468-5.016-0.122C433.787,425.072,433.665,423.237,435.255,421.646z"/>
		<path fill="#A8D9DB" d="M468.718,392.076c1.591,1.59,1.591,3.548,0,5.138c-1.59,1.59-3.548,1.59-5.138,0l-28.325-28.325
			c-1.59-1.591-1.468-3.426,0.122-5.016c1.591-1.591,3.426-1.713,5.016-0.122L468.718,392.076z"/>
		<path fill="#F9F9F9" d="M504.471,392.076c1.591,1.59,1.591,3.548,0,5.138c-1.59,1.59-3.548,1.59-5.138,0l-28.325-28.325
			c-1.59-1.591-1.468-3.426,0.122-5.016c1.59-1.591,3.426-1.713,5.016-0.122L504.471,392.076z"/>
		<path fill="#DBE5D8" d="M471.007,421.646l28.325-28.325c1.591-1.59,3.548-1.59,5.138,0c1.591,1.591,1.591,3.548,0,5.138
			l-28.325,28.325c-1.59,1.59-3.425,1.468-5.016-0.122C469.54,425.072,469.417,423.237,471.007,421.646z"/>
	</g>
	<g>
		<path fill="#EA5F69" d="M918.948,190.161c-4.872,0-8.785-4.073-8.785-8.865s3.913-8.865,8.785-8.865
			c4.792,0,8.865,4.073,8.865,8.865S923.74,190.161,918.948,190.161z"/>
		<path fill="#DBE5D8" d="M883.791,208.12h70.554c2.231,0,3.603,1.373,3.603,3.603s-1.373,3.603-3.603,3.603h-70.554
			c-2.231,0-3.432-1.373-3.432-3.603S881.561,208.12,883.791,208.12z"/>
		<path fill="#F9F9F9" d="M920.493,136.222l35.006,35.006c1.577,1.577,1.577,3.519,0,5.096s-3.519,1.577-5.096,0l-35.006-35.006
			c-1.577-1.577-1.456-3.397,0.121-4.974C917.096,134.766,918.916,134.645,920.493,136.222z"/>
		<path fill="#E53946" d="M919.98,136.343c1.577,1.577,1.699,3.397,0.121,4.974l-35.006,35.006c-1.577,1.577-3.519,1.577-5.096,0
			s-1.577-3.519,0-5.096l35.006-35.006C916.583,134.645,918.402,134.766,919.98,136.343z"/>
	</g>
	<g>
		<path fill="#EA5F69" d="M914.811,295.845c-4.872,0-8.785-4.073-8.785-8.865s3.913-8.865,8.785-8.865
			c4.792,0,8.865,4.073,8.865,8.865C923.676,291.772,919.603,295.845,914.811,295.845z"/>
		<path fill="#DBE5D8" d="M879.655,313.804h70.554c2.231,0,3.603,1.373,3.603,3.603c0,2.231-1.373,3.603-3.603,3.603h-70.554
			c-2.231,0-3.432-1.373-3.432-3.603C876.223,315.177,877.424,313.804,879.655,313.804z"/>
		<path fill="#F9F9F9" d="M916.357,241.906l35.006,35.006c1.577,1.577,1.577,3.519,0,5.096s-3.519,1.577-5.096,0l-35.006-35.006
			c-1.577-1.577-1.456-3.397,0.121-4.974C912.96,240.45,914.78,240.329,916.357,241.906z"/>
		<path fill="#E53946" d="M915.843,242.027c1.577,1.577,1.699,3.397,0.121,4.974l-35.006,35.006c-1.577,1.577-3.519,1.577-5.096,0
			s-1.577-3.519,0-5.096l35.006-35.006C912.446,240.329,914.266,240.45,915.843,242.027z"/>
	</g>
	<g>
		<path fill="#EA5F69" d="M914.811,401.137c-4.872,0-8.785-4.073-8.785-8.865s3.913-8.865,8.785-8.865
			c4.792,0,8.865,4.073,8.865,8.865C923.676,397.064,919.603,401.137,914.811,401.137z"/>
		<path fill="#DBE5D8" d="M879.655,419.096h70.554c2.231,0,3.603,1.373,3.603,3.603c0,2.231-1.373,3.603-3.603,3.603h-70.554
			c-2.231,0-3.432-1.373-3.432-3.603S877.424,419.096,879.655,419.096z"/>
		<path fill="#F9F9F9" d="M916.357,347.198l35.006,35.006c1.577,1.577,1.577,3.519,0,5.096s-3.519,1.577-5.096,0l-35.006-35.006
			c-1.577-1.577-1.456-3.397,0.121-4.974C912.96,345.742,914.78,345.621,916.357,347.198z"/>
		<path fill="#E53946" d="M915.843,347.32c1.577,1.577,1.699,3.397,0.121,4.974L880.959,387.3c-1.577,1.577-3.519,1.577-5.096,0
			s-1.577-3.519,0-5.096l35.006-35.006C912.446,345.621,914.266,345.742,915.843,347.32z"/>
	</g>
	<g>
		<path fill="#EA5F69" d="M378.583,401.137c-4.872,0-8.785-4.073-8.785-8.865s3.913-8.865,8.785-8.865
			c4.792,0,8.865,4.073,8.865,8.865S383.375,401.137,378.583,401.137z"/>
		<path fill="#DBE5D8" d="M343.427,419.096h70.554c2.231,0,3.603,1.373,3.603,3.603c0,2.231-1.373,3.603-3.603,3.603h-70.554
			c-2.231,0-3.432-1.373-3.432-3.603S341.196,419.096,343.427,419.096z"/>
		<path fill="#F9F9F9" d="M380.129,347.198l35.006,35.006c1.577,1.577,1.577,3.519,0,5.096s-3.519,1.577-5.096,0l-35.006-35.006
			c-1.577-1.577-1.456-3.397,0.121-4.974C376.732,345.742,378.552,345.621,380.129,347.198z"/>
		<path fill="#E53946" d="M379.615,347.32c1.577,1.577,1.699,3.397,0.121,4.974L344.731,387.3c-1.577,1.577-3.519,1.577-5.096,0
			s-1.577-3.519,0-5.096l35.006-35.006C376.218,345.621,378.038,345.742,379.615,347.32z"/>
	</g>
	<g>
		<path fill="#A8D9DB" d="M150.814,88.163c0-2.705,2.209-5.004,4.959-5.004c2.705,0,5.004,2.299,5.004,5.004
			c0,2.705-2.299,5.005-5.004,5.005C153.023,93.167,150.814,90.868,150.814,88.163z"/>
		<path fill="#467C9D" d="M166.095,110.461c0-2.705,2.209-5.004,4.959-5.004c2.705,0,5.004,2.299,5.004,5.004
			s-2.299,5.005-5.004,5.005C168.304,115.466,166.095,113.166,166.095,110.461z"/>
		<path fill="#EA5F69" d="M186.321,49.656c0-2.705,2.209-5.004,4.959-5.004c2.705,0,5.005,2.299,5.005,5.004
			s-2.299,5.005-5.005,5.005C188.53,54.661,186.321,52.361,186.321,49.656z"/>
		<path fill="#DBE5D8" d="M197.445,88.163c0-2.705,2.209-5.004,4.959-5.004c2.705,0,5.004,2.299,5.004,5.004
			c0,2.705-2.299,5.005-5.004,5.005C199.654,93.167,197.445,90.868,197.445,88.163z"/>
		<path fill="#F9F9F9" d="M209.883,67.746c0-2.705,2.209-5.005,4.959-5.005c2.705,0,5.004,2.299,5.004,5.005
			c0,2.705-2.299,5.004-5.004,5.004C212.092,72.75,209.883,70.451,209.883,67.746z"/>
		<path fill="#E53946" d="M209.883,115.466c0-2.705,2.209-5.005,4.959-5.005c2.705,0,5.004,2.299,5.004,5.005
			c0,2.705-2.299,5.004-5.004,5.004C212.092,120.47,209.883,118.17,209.883,115.466z"/>
	</g>
	<g>
		<path fill="#A8D9DB" d="M701.765,88.163c0-2.705,2.209-5.004,4.959-5.004c2.705,0,5.004,2.299,5.004,5.004
			c0,2.705-2.299,5.005-5.004,5.005C703.974,93.167,701.765,90.868,701.765,88.163z"/>
		<path fill="#467C9D" d="M717.047,110.461c0-2.705,2.209-5.004,4.959-5.004c2.705,0,5.004,2.299,5.004,5.004
			s-2.299,5.005-5.004,5.005C719.255,115.466,717.047,113.166,717.047,110.461z"/>
		<path fill="#EA5F69" d="M737.273,49.656c0-2.705,2.209-5.004,4.959-5.004c2.705,0,5.005,2.299,5.005,5.004
			s-2.299,5.005-5.005,5.005C739.482,54.661,737.273,52.361,737.273,49.656z"/>
		<path fill="#DBE5D8" d="M748.397,88.163c0-2.705,2.209-5.004,4.959-5.004c2.705,0,5.004,2.299,5.004,5.004
			c0,2.705-2.299,5.005-5.004,5.005C750.606,93.167,748.397,90.868,748.397,88.163z"/>
		<path fill="#F9F9F9" d="M760.835,67.746c0-2.705,2.209-5.005,4.959-5.005c2.705,0,5.004,2.299,5.004,5.005
			c0,2.705-2.299,5.004-5.004,5.004C763.044,72.75,760.835,70.451,760.835,67.746z"/>
		<path fill="#E53946" d="M760.835,115.466c0-2.705,2.209-5.005,4.959-5.005c2.705,0,5.004,2.299,5.004,5.005
			c0,2.705-2.299,5.004-5.004,5.004C763.044,120.47,760.835,118.17,760.835,115.466z"/>
	</g>
	<g>
		<path fill="#A8D9DB" d="M787.642,88.163c0-2.705,2.209-5.004,4.959-5.004c2.705,0,5.004,2.299,5.004,5.004
			c0,2.705-2.299,5.005-5.004,5.005C789.851,93.167,787.642,90.868,787.642,88.163z"/>
		<path fill="#467C9D" d="M802.923,110.461c0-2.705,2.209-5.004,4.959-5.004c2.705,0,5.004,2.299,5.004,5.004
			s-2.299,5.005-5.004,5.005C805.132,115.466,802.923,113.166,802.923,110.461z"/>
		<path fill="#EA5F69" d="M823.15,49.656c0-2.705,2.209-5.004,4.959-5.004c2.705,0,5.005,2.299,5.005,5.004
			s-2.299,5.005-5.005,5.005C825.359,54.661,823.15,52.361,823.15,49.656z"/>
		<path fill="#DBE5D8" d="M834.273,88.163c0-2.705,2.209-5.004,4.959-5.004c2.705,0,5.004,2.299,5.004,5.004
			c0,2.705-2.299,5.005-5.004,5.005C836.482,93.167,834.273,90.868,834.273,88.163z"/>
		<path fill="#F9F9F9" d="M846.711,67.746c0-2.705,2.209-5.005,4.959-5.005c2.705,0,5.004,2.299,5.004,5.005
			c0,2.705-2.299,5.004-5.004,5.004C848.92,72.75,846.711,70.451,846.711,67.746z"/>
		<path fill="#E53946" d="M846.711,115.466c0-2.705,2.209-5.005,4.959-5.005c2.705,0,5.004,2.299,5.004,5.005
			c0,2.705-2.299,5.004-5.004,5.004C848.92,120.47,846.711,118.17,846.711,115.466z"/>
	</g>
	<g>
		<path fill="#F9F9F9" d="M250.407,113.852c0,2.249-1.384,3.633-3.633,3.633s-3.633-1.384-3.633-3.633v-22.31
			c0-2.249,1.384-3.46,3.633-3.46s3.633,1.211,3.633,3.46V113.852z"/>
		<path fill="#EA5F69" d="M273.217,113.852c0,2.249-1.384,3.633-3.633,3.633s-3.633-1.384-3.633-3.633V42.711
			c0-2.249,1.384-3.46,3.633-3.46s3.633,1.211,3.633,3.46V113.852z"/>
		<path fill="#E53946" d="M269.584,46.517c-2.249,0-3.633-1.384-3.633-3.633s1.384-3.633,3.633-3.633h24.079
			c2.249,0,3.46,1.384,3.46,3.633s-1.211,3.633-3.46,3.633H269.584z"/>
		<path fill="#F9F9F9" d="M297.296,113.852c0,2.249-1.384,3.633-3.633,3.633s-3.633-1.384-3.633-3.633V42.711
			c0-2.249,1.384-3.46,3.633-3.46s3.633,1.211,3.633,3.46V113.852z"/>
		<path fill="#467C9D" d="M269.584,74.266c-2.249,0-3.633-1.384-3.633-3.633S267.335,67,269.584,67h48.33
			c2.249,0,3.46,1.384,3.46,3.633s-1.211,3.633-3.46,3.633C317.914,74.266,269.584,74.266,269.584,74.266z"/>
		<path fill="#DBE5D8" d="M246.773,95.349c-2.249,0-3.633-1.384-3.633-3.633s1.384-3.633,3.633-3.633h71.141
			c2.249,0,3.46,1.384,3.46,3.633s-1.211,3.633-3.46,3.633H246.773z"/>
		<path fill="#EA5F69" d="M321.375,113.852c0,2.249-1.384,3.633-3.633,3.633s-3.633-1.384-3.633-3.633V70.46
			c0-2.249,1.384-3.46,3.633-3.46s3.633,1.211,3.633,3.46V113.852z"/>
		<path fill="#A8D9DB" d="M246.773,117.485c-2.249,0-3.633-1.384-3.633-3.633s1.384-3.633,3.633-3.633h71.141
			c2.249,0,3.46,1.384,3.46,3.633s-1.211,3.633-3.46,3.633H246.773z"/>
	</g>
	<g>
		<path fill="#F9F9F9" d="M524.559,113.852c0,2.249-1.384,3.633-3.633,3.633s-3.633-1.384-3.633-3.633v-22.31
			c0-2.249,1.384-3.46,3.633-3.46s3.633,1.211,3.633,3.46V113.852z"/>
		<path fill="#EA5F69" d="M547.37,113.852c0,2.249-1.384,3.633-3.633,3.633s-3.633-1.384-3.633-3.633V42.711
			c0-2.249,1.384-3.46,3.633-3.46s3.633,1.211,3.633,3.46V113.852z"/>
		<path fill="#E53946" d="M543.736,46.517c-2.249,0-3.633-1.384-3.633-3.633s1.384-3.633,3.633-3.633h24.079
			c2.249,0,3.46,1.384,3.46,3.633s-1.211,3.633-3.46,3.633H543.736z"/>
		<path fill="#F9F9F9" d="M571.448,113.852c0,2.249-1.384,3.633-3.633,3.633s-3.633-1.384-3.633-3.633V42.711
			c0-2.249,1.384-3.46,3.633-3.46s3.633,1.211,3.633,3.46V113.852z"/>
		<path fill="#467C9D" d="M543.736,74.266c-2.249,0-3.633-1.384-3.633-3.633S541.487,67,543.736,67h48.33
			c2.249,0,3.46,1.384,3.46,3.633s-1.211,3.633-3.46,3.633C592.066,74.266,543.736,74.266,543.736,74.266z"/>
		<path fill="#DBE5D8" d="M520.926,95.349c-2.249,0-3.633-1.384-3.633-3.633s1.384-3.633,3.633-3.633h71.141
			c2.249,0,3.46,1.384,3.46,3.633s-1.211,3.633-3.46,3.633H520.926z"/>
		<path fill="#EA5F69" d="M595.527,113.852c0,2.249-1.384,3.633-3.633,3.633s-3.633-1.384-3.633-3.633V70.46
			c0-2.249,1.384-3.46,3.633-3.46s3.633,1.211,3.633,3.46V113.852z"/>
		<path fill="#A8D9DB" d="M520.926,117.485c-2.249,0-3.633-1.384-3.633-3.633s1.384-3.633,3.633-3.633h71.141
			c2.249,0,3.46,1.384,3.46,3.633s-1.211,3.633-3.46,3.633H520.926z"/>
	</g>
	<g>
		<path fill="#F9F9F9" d="M619.568,113.852c0,2.249-1.384,3.633-3.633,3.633s-3.633-1.384-3.633-3.633v-22.31
			c0-2.249,1.384-3.46,3.633-3.46s3.633,1.211,3.633,3.46V113.852z"/>
		<path fill="#EA5F69" d="M642.379,113.852c0,2.249-1.384,3.633-3.633,3.633s-3.633-1.384-3.633-3.633V42.711
			c0-2.249,1.384-3.46,3.633-3.46s3.633,1.211,3.633,3.46V113.852z"/>
		<path fill="#E53946" d="M638.745,46.517c-2.249,0-3.633-1.384-3.633-3.633s1.384-3.633,3.633-3.633h24.079
			c2.249,0,3.46,1.384,3.46,3.633s-1.211,3.633-3.46,3.633H638.745z"/>
		<path fill="#F9F9F9" d="M666.457,113.852c0,2.249-1.384,3.633-3.633,3.633s-3.633-1.384-3.633-3.633V42.711
			c0-2.249,1.384-3.46,3.633-3.46s3.633,1.211,3.633,3.46V113.852z"/>
		<path fill="#467C9D" d="M638.745,74.266c-2.249,0-3.633-1.384-3.633-3.633S636.496,67,638.745,67h48.33
			c2.249,0,3.46,1.384,3.46,3.633s-1.211,3.633-3.46,3.633C687.075,74.266,638.745,74.266,638.745,74.266z"/>
		<path fill="#DBE5D8" d="M615.935,95.349c-2.249,0-3.633-1.384-3.633-3.633s1.384-3.633,3.633-3.633h71.141
			c2.249,0,3.46,1.384,3.46,3.633s-1.211,3.633-3.46,3.633H615.935z"/>
		<path fill="#EA5F69" d="M690.536,113.852c0,2.249-1.384,3.633-3.633,3.633s-3.633-1.384-3.633-3.633V70.46
			c0-2.249,1.384-3.46,3.633-3.46s3.633,1.211,3.633,3.46V113.852z"/>
		<path fill="#A8D9DB" d="M615.935,117.485c-2.249,0-3.633-1.384-3.633-3.633s1.384-3.633,3.633-3.633h71.141
			c2.249,0,3.46,1.384,3.46,3.633s-1.211,3.633-3.46,3.633H615.935z"/>
	</g>
	<g>
		<path fill="#E53946" d="M63.217,111.552l28.325-28.325c1.59-1.59,3.548-1.59,5.138,0c1.591,1.591,1.591,3.548,0,5.138
			L68.355,116.69c-1.59,1.59-3.425,1.468-5.016-0.122C61.749,114.978,61.627,113.143,63.217,111.552z"/>
		<path fill="#A8D9DB" d="M96.68,81.982c1.591,1.59,1.591,3.548,0,5.138c-1.59,1.59-3.548,1.59-5.138,0L63.217,58.795
			c-1.59-1.591-1.468-3.426,0.122-5.016c1.591-1.591,3.426-1.713,5.016-0.122L96.68,81.982z"/>
		<path fill="#F9F9F9" d="M132.433,81.982c1.591,1.59,1.591,3.548,0,5.138c-1.59,1.59-3.548,1.59-5.138,0L98.97,58.795
			c-1.59-1.591-1.468-3.426,0.122-5.016c1.59-1.591,3.426-1.713,5.016-0.122L132.433,81.982z"/>
		<path fill="#DBE5D8" d="M98.97,111.552l28.325-28.325c1.591-1.59,3.548-1.59,5.138,0c1.591,1.591,1.591,3.548,0,5.138
			l-28.325,28.325c-1.59,1.59-3.425,1.468-5.016-0.122C97.502,114.978,97.379,113.143,98.97,111.552z"/>
	</g>
	<g>
		<path fill="#E53946" d="M435.255,111.755L463.58,83.43c1.59-1.59,3.548-1.59,5.138,0c1.591,1.591,1.591,3.548,0,5.138
			l-28.325,28.325c-1.59,1.59-3.425,1.468-5.016-0.122C433.787,115.181,433.665,113.346,435.255,111.755z"/>
		<path fill="#A8D9DB" d="M468.718,82.185c1.591,1.59,1.591,3.548,0,5.138c-1.59,1.59-3.548,1.59-5.138,0l-28.325-28.325
			c-1.59-1.591-1.468-3.426,0.122-5.016c1.591-1.591,3.426-1.713,5.016-0.122L468.718,82.185z"/>
		<path fill="#F9F9F9" d="M504.471,82.185c1.591,1.59,1.591,3.548,0,5.138c-1.59,1.59-3.548,1.59-5.138,0l-28.325-28.325
			c-1.59-1.591-1.468-3.426,0.122-5.016c1.59-1.591,3.426-1.713,5.016-0.122L504.471,82.185z"/>
		<path fill="#DBE5D8" d="M471.007,111.755l28.325-28.325c1.591-1.59,3.548-1.59,5.138,0c1.591,1.591,1.591,3.548,0,5.138
			l-28.325,28.325c-1.59,1.59-3.425,1.468-5.016-0.122C469.54,115.181,469.417,113.346,471.007,111.755z"/>
	</g>
	<g>
		<path fill="#EA5F69" d="M378.583,91.246c-4.872,0-8.785-4.073-8.785-8.865s3.913-8.865,8.785-8.865
			c4.792,0,8.865,4.073,8.865,8.865S383.375,91.246,378.583,91.246z"/>
		<path fill="#DBE5D8" d="M343.427,109.205h70.554c2.231,0,3.603,1.373,3.603,3.603s-1.373,3.603-3.603,3.603h-70.554
			c-2.231,0-3.432-1.373-3.432-3.603S341.196,109.205,343.427,109.205z"/>
		<path fill="#F9F9F9" d="M380.129,37.307l35.006,35.006c1.577,1.577,1.577,3.519,0,5.096s-3.519,1.577-5.096,0l-35.006-35.006
			c-1.577-1.577-1.456-3.397,0.121-4.974C376.732,35.851,378.552,35.73,380.129,37.307z"/>
		<path fill="#E53946" d="M379.615,37.428c1.577,1.577,1.699,3.397,0.121,4.974L344.73,77.408c-1.577,1.577-3.519,1.577-5.096,0
			s-1.577-3.519,0-5.096l35.006-35.006C376.218,35.73,378.038,35.851,379.615,37.428z"/>
	</g>
	<g>
		<g>
			<path fill="#F9F9F9" d="M298.389,144.208l25.963,42.078c1.17,1.896,0.723,3.783-1.173,4.952c-1.896,1.17-3.783,0.723-4.952-1.173
				l-25.963-42.078c-1.17-1.896-0.633-3.637,1.263-4.807C295.422,142.011,297.219,142.312,298.389,144.208z"/>
			<path fill="#E53946" d="M297.862,144.208c1.17,1.896,0.869,3.693-1.027,4.862l-42.078,25.963
				c-1.896,1.17-3.783,0.723-4.952-1.173s-0.723-3.783,1.173-4.952l42.078-25.963C294.951,141.775,296.692,142.312,297.862,144.208z
				"/>
			<path fill="#A8D9DB" d="M275.483,217.138L249.52,175.06c-1.17-1.896-0.723-3.783,1.173-4.952s3.783-0.723,4.952,1.173
				l25.963,42.078c1.17,1.896,0.633,3.637-1.263,4.807C278.449,219.335,276.653,219.034,275.483,217.138z"/>
			<path fill="#DBE5D8" d="M276.01,217.138c-1.17-1.896-0.869-3.693,1.027-4.862l42.078-25.963c1.896-1.17,3.783-0.723,4.952,1.173
				s0.723,3.783-1.173,4.952l-42.078,25.963C278.921,219.571,277.18,219.034,276.01,217.138z"/>
		</g>
		<path fill="#EA5F69" d="M307.611,186.467v28.545c0,2.228-1.371,3.599-3.599,3.599s-3.599-1.371-3.599-3.599v-28.545
			c0-2.228,1.371-3.427,3.599-3.427S307.611,184.239,307.611,186.467z"/>
	</g>
	<g>
		<g>
			<path fill="#F9F9F9" d="M928.542,42.127l25.963,42.078c1.17,1.896,0.723,3.783-1.173,4.952c-1.896,1.17-3.783,0.723-4.952-1.173
				l-25.963-42.078c-1.17-1.896-0.633-3.637,1.263-4.807S927.372,40.231,928.542,42.127z"/>
			<path fill="#E53946" d="M928.014,42.126c1.17,1.896,0.869,3.693-1.027,4.862l-42.078,25.963c-1.896,1.17-3.783,0.723-4.952-1.173
				c-1.17-1.896-0.723-3.783,1.173-4.952l42.078-25.963C925.104,39.693,926.844,40.23,928.014,42.126z"/>
			<path fill="#A8D9DB" d="M905.635,115.057l-25.963-42.078c-1.17-1.896-0.723-3.783,1.173-4.952
				c1.896-1.17,3.783-0.723,4.952,1.173l25.963,42.078c1.17,1.896,0.633,3.637-1.263,4.807
				C908.602,117.253,906.805,116.952,905.635,115.057z"/>
			<path fill="#DBE5D8" d="M906.163,115.057c-1.17-1.896-0.869-3.693,1.027-4.862l42.078-25.963c1.896-1.17,3.783-0.723,4.952,1.173
				c1.17,1.896,0.723,3.783-1.173,4.952l-42.078,25.963C909.073,117.49,907.332,116.953,906.163,115.057z"/>
		</g>
		<path fill="#EA5F69" d="M937.764,84.385v28.545c0,2.228-1.371,3.599-3.599,3.599s-3.599-1.371-3.599-3.599V84.385
			c0-2.228,1.371-3.427,3.599-3.427S937.764,82.158,937.764,84.385z"/>
	</g>
	<g>
		<path fill="#EA5F69" d="M280.709,295.974c-5.588,0-10.077-4.672-10.077-10.169s4.489-10.169,10.077-10.169
			c5.497,0,10.169,4.672,10.169,10.169C290.879,291.302,286.206,295.974,280.709,295.974z"/>
		<path fill="#DBE5D8" d="M284.355,250.936v11.054c0,2.229-1.371,3.6-3.6,3.6s-3.6-1.371-3.6-3.6v-11.054
			c0-2.229,1.371-3.429,3.6-3.429S284.355,248.708,284.355,250.936z"/>
		<path fill="#F9F9F9" d="M307.957,263.695l-7.817,7.817c-1.576,1.576-3.515,1.576-5.091,0s-1.576-3.515,0-5.091l7.817-7.817
			c1.576-1.576,3.394-1.455,4.97,0.121S309.533,262.119,307.957,263.695z"/>
		<path fill="#467C9D" d="M315.624,289.405H304.57c-2.229,0-3.6-1.371-3.6-3.6s1.371-3.6,3.6-3.6h11.054
			c2.229,0,3.429,1.371,3.429,3.6C319.053,288.034,317.853,289.405,315.624,289.405z"/>
		<path fill="#E53946" d="M302.866,313.007l-7.817-7.817c-1.576-1.576-1.576-3.515,0-5.091s3.515-1.576,5.091,0l7.817,7.817
			c1.576,1.576,1.455,3.394-0.121,4.97C306.26,314.462,304.442,314.583,302.866,313.007z"/>
		<path fill="#DBE5D8" d="M277.155,320.674V309.62c0-2.229,1.371-3.6,3.6-3.6s3.6,1.371,3.6,3.6v11.054
			c0,2.229-1.371,3.429-3.6,3.429S277.155,322.903,277.155,320.674z"/>
		<path fill="#F9F9F9" d="M253.554,307.916l7.817-7.817c1.576-1.576,3.515-1.576,5.091,0s1.576,3.515,0,5.091l-7.817,7.817
			c-1.576,1.576-3.394,1.455-4.97-0.121S251.978,309.492,253.554,307.916z"/>
		<path fill="#467C9D" d="M245.886,282.205h11.054c2.229,0,3.6,1.371,3.6,3.6s-1.371,3.6-3.6,3.6h-11.054
			c-2.229,0-3.429-1.371-3.429-3.6C242.458,283.577,243.658,282.205,245.886,282.205z"/>
		<path fill="#A8D9DB" d="M258.645,258.604l7.817,7.817c1.576,1.576,1.576,3.515,0,5.091s-3.515,1.576-5.091,0l-7.817-7.817
			c-1.576-1.576-1.455-3.394,0.121-4.97C255.251,257.149,257.069,257.028,258.645,258.604z"/>
	</g>
	<g>
		<path fill="#EA5F69" d="M739.506,193.517c-5.588,0-10.078-4.672-10.078-10.169s4.489-10.169,10.078-10.169
			c5.497,0,10.169,4.672,10.169,10.169S745.003,193.517,739.506,193.517z"/>
		<path fill="#DBE5D8" d="M743.152,148.479v11.054c0,2.229-1.371,3.6-3.6,3.6s-3.6-1.371-3.6-3.6v-11.054
			c0-2.229,1.371-3.429,3.6-3.429S743.152,146.25,743.152,148.479z"/>
		<path fill="#F9F9F9" d="M766.753,161.238l-7.817,7.817c-1.576,1.576-3.515,1.576-5.091,0s-1.576-3.515,0-5.091l7.817-7.817
			c1.576-1.576,3.394-1.455,4.97,0.121C768.208,157.843,768.329,159.662,766.753,161.238z"/>
		<path fill="#467C9D" d="M774.421,186.948h-11.054c-2.229,0-3.6-1.371-3.6-3.6s1.371-3.6,3.6-3.6h11.054
			c2.229,0,3.429,1.371,3.429,3.6S776.649,186.948,774.421,186.948z"/>
		<path fill="#E53946" d="M761.662,210.55l-7.817-7.817c-1.576-1.576-1.576-3.515,0-5.091s3.515-1.576,5.091,0l7.817,7.817
			c1.576,1.576,1.455,3.394-0.121,4.97C765.056,212.004,763.238,212.126,761.662,210.55z"/>
		<path fill="#DBE5D8" d="M735.952,218.217v-11.054c0-2.229,1.371-3.6,3.6-3.6s3.6,1.371,3.6,3.6v11.054
			c0,2.229-1.371,3.429-3.6,3.429S735.952,220.446,735.952,218.217z"/>
		<path fill="#F9F9F9" d="M712.35,205.459l7.817-7.817c1.576-1.576,3.515-1.576,5.091,0s1.576,3.515,0,5.091l-7.817,7.817
			c-1.576,1.576-3.394,1.455-4.97-0.121C710.896,208.853,710.774,207.034,712.35,205.459z"/>
		<path fill="#467C9D" d="M704.683,179.748h11.054c2.229,0,3.6,1.371,3.6,3.6s-1.371,3.6-3.6,3.6h-11.054
			c-2.229,0-3.429-1.371-3.429-3.6S702.454,179.748,704.683,179.748z"/>
		<path fill="#A8D9DB" d="M717.441,156.146l7.817,7.817c1.576,1.576,1.576,3.515,0,5.091s-3.515,1.576-5.091,0l-7.817-7.817
			c-1.576-1.576-1.455-3.394,0.121-4.97C714.047,154.692,715.865,154.57,717.441,156.146z"/>
	</g>
	<g>
		<path fill="#A8D9DB" d="M61.627,499.016c0-2.705,2.209-5.004,4.959-5.004c2.705,0,5.004,2.299,5.004,5.004
			s-2.299,5.005-5.004,5.005C63.836,504.021,61.627,501.721,61.627,499.016z"/>
		<path fill="#467C9D" d="M76.908,521.315c0-2.705,2.209-5.004,4.959-5.004c2.705,0,5.004,2.299,5.004,5.004
			s-2.299,5.005-5.004,5.005C79.117,526.319,76.908,524.02,76.908,521.315z"/>
		<path fill="#EA5F69" d="M97.135,460.51c0-2.705,2.209-5.004,4.959-5.004c2.705,0,5.005,2.299,5.005,5.004
			s-2.299,5.005-5.005,5.005C99.344,465.514,97.135,463.215,97.135,460.51z"/>
		<path fill="#DBE5D8" d="M108.259,499.016c0-2.705,2.209-5.004,4.959-5.004c2.705,0,5.004,2.299,5.004,5.004
			s-2.299,5.005-5.004,5.005C110.468,504.021,108.259,501.721,108.259,499.016z"/>
		<path fill="#F9F9F9" d="M120.697,478.6c0-2.705,2.209-5.005,4.959-5.005c2.705,0,5.004,2.299,5.004,5.005
			s-2.299,5.004-5.004,5.004C122.906,483.604,120.697,481.305,120.697,478.6z"/>
		<path fill="#E53946" d="M120.697,526.319c0-2.705,2.209-5.005,4.959-5.005c2.705,0,5.004,2.299,5.004,5.005
			c0,2.705-2.299,5.004-5.004,5.004C122.906,531.324,120.697,529.024,120.697,526.319z"/>
	</g>
	<g>
		<path fill="#A8D9DB" d="M342.18,499.016c0-2.705,2.209-5.004,4.959-5.004c2.705,0,5.004,2.299,5.004,5.004
			s-2.299,5.005-5.004,5.005C344.389,504.021,342.18,501.721,342.18,499.016z"/>
		<path fill="#467C9D" d="M357.462,521.315c0-2.705,2.209-5.004,4.959-5.004c2.705,0,5.004,2.299,5.004,5.004
			s-2.299,5.005-5.004,5.005C359.671,526.319,357.462,524.02,357.462,521.315z"/>
		<path fill="#EA5F69" d="M377.688,460.51c0-2.705,2.209-5.004,4.959-5.004c2.705,0,5.005,2.299,5.005,5.004
			s-2.299,5.005-5.005,5.005C379.897,465.514,377.688,463.215,377.688,460.51z"/>
		<path fill="#DBE5D8" d="M388.812,499.016c0-2.705,2.209-5.004,4.959-5.004c2.705,0,5.004,2.299,5.004,5.004
			s-2.299,5.005-5.004,5.005C391.021,504.021,388.812,501.721,388.812,499.016z"/>
		<path fill="#F9F9F9" d="M401.25,478.6c0-2.705,2.209-5.005,4.959-5.005c2.705,0,5.004,2.299,5.004,5.005s-2.299,5.004-5.004,5.004
			C403.459,483.604,401.25,481.305,401.25,478.6z"/>
		<path fill="#E53946" d="M401.25,526.319c0-2.705,2.209-5.005,4.959-5.005c2.705,0,5.004,2.299,5.004,5.005
			c0,2.705-2.299,5.004-5.004,5.004C403.459,531.324,401.25,529.024,401.25,526.319z"/>
	</g>
	<g>
		<path fill="#F9F9F9" d="M154.77,524.706c0,2.249-1.384,3.633-3.633,3.633s-3.633-1.384-3.633-3.633v-22.31
			c0-2.249,1.384-3.46,3.633-3.46s3.633,1.211,3.633,3.46V524.706z"/>
		<path fill="#EA5F69" d="M177.581,524.706c0,2.249-1.384,3.633-3.633,3.633s-3.633-1.384-3.633-3.633v-71.141
			c0-2.249,1.384-3.46,3.633-3.46s3.633,1.211,3.633,3.46V524.706z"/>
		<path fill="#E53946" d="M173.948,457.371c-2.249,0-3.633-1.384-3.633-3.633s1.384-3.633,3.633-3.633h24.079
			c2.249,0,3.46,1.384,3.46,3.633s-1.211,3.633-3.46,3.633H173.948z"/>
		<path fill="#F9F9F9" d="M201.659,524.706c0,2.249-1.384,3.633-3.633,3.633s-3.633-1.384-3.633-3.633v-71.141
			c0-2.249,1.384-3.46,3.633-3.46s3.633,1.211,3.633,3.46V524.706z"/>
		<path fill="#467C9D" d="M173.948,485.12c-2.249,0-3.633-1.384-3.633-3.633s1.384-3.633,3.633-3.633h48.33
			c2.249,0,3.46,1.384,3.46,3.633s-1.211,3.633-3.46,3.633H173.948z"/>
		<path fill="#DBE5D8" d="M151.137,506.202c-2.249,0-3.633-1.384-3.633-3.633s1.384-3.633,3.633-3.633h71.141
			c2.249,0,3.46,1.384,3.46,3.633s-1.211,3.633-3.46,3.633H151.137z"/>
		<path fill="#EA5F69" d="M225.738,524.706c0,2.249-1.384,3.633-3.633,3.633s-3.633-1.384-3.633-3.633v-43.393
			c0-2.249,1.384-3.46,3.633-3.46s3.633,1.211,3.633,3.46V524.706z"/>
		<path fill="#A8D9DB" d="M151.137,528.339c-2.249,0-3.633-1.384-3.633-3.633s1.384-3.633,3.633-3.633h71.141
			c2.249,0,3.46,1.384,3.46,3.633s-1.211,3.633-3.46,3.633H151.137z"/>
	</g>
	<g>
		<path fill="#E53946" d="M430.08,522.406l28.325-28.325c1.59-1.59,3.548-1.59,5.138,0c1.591,1.591,1.591,3.548,0,5.138
			l-28.325,28.325c-1.59,1.59-3.425,1.468-5.016-0.122C428.612,525.831,428.49,523.996,430.08,522.406z"/>
		<path fill="#A8D9DB" d="M463.544,492.836c1.591,1.59,1.591,3.548,0,5.138c-1.59,1.59-3.548,1.59-5.138,0l-28.325-28.325
			c-1.59-1.591-1.468-3.426,0.122-5.016c1.591-1.591,3.426-1.713,5.016-0.122L463.544,492.836z"/>
		<path fill="#F9F9F9" d="M499.296,492.836c1.591,1.59,1.591,3.548,0,5.138c-1.59,1.59-3.548,1.59-5.138,0l-28.325-28.325
			c-1.59-1.591-1.468-3.426,0.122-5.016c1.59-1.591,3.426-1.713,5.016-0.122L499.296,492.836z"/>
		<path fill="#DBE5D8" d="M465.833,522.406l28.325-28.325c1.591-1.59,3.548-1.59,5.138,0c1.591,1.591,1.591,3.548,0,5.138
			l-28.325,28.325c-1.59,1.59-3.425,1.468-5.016-0.122C464.365,525.831,464.242,523.996,465.833,522.406z"/>
	</g>
	<g>
		<path fill="#E53946" d="M790.603,522.406l28.325-28.325c1.59-1.59,3.548-1.59,5.138,0c1.591,1.591,1.591,3.548,0,5.138
			l-28.325,28.325c-1.59,1.59-3.425,1.468-5.016-0.122C789.135,525.832,789.013,523.997,790.603,522.406z"/>
		<path fill="#A8D9DB" d="M824.066,492.836c1.591,1.59,1.591,3.548,0,5.138c-1.59,1.59-3.548,1.59-5.138,0l-28.325-28.325
			c-1.59-1.591-1.468-3.426,0.122-5.016c1.591-1.591,3.426-1.713,5.016-0.122L824.066,492.836z"/>
		<path fill="#F9F9F9" d="M859.819,492.836c1.591,1.59,1.591,3.548,0,5.138c-1.59,1.59-3.548,1.59-5.138,0l-28.325-28.325
			c-1.59-1.591-1.468-3.426,0.122-5.016c1.59-1.591,3.426-1.713,5.016-0.122L859.819,492.836z"/>
		<path fill="#DBE5D8" d="M826.355,522.406l28.325-28.325c1.591-1.59,3.548-1.59,5.138,0c1.591,1.591,1.591,3.548,0,5.138
			l-28.325,28.325c-1.59,1.59-3.425,1.468-5.016-0.122C824.887,525.832,824.765,523.997,826.355,522.406z"/>
	</g>
	<g>
		<g>
			<path fill="#F9F9F9" d="M298.389,456.423l25.963,42.078c1.17,1.896,0.723,3.783-1.173,4.952c-1.896,1.17-3.783,0.723-4.952-1.173
				l-25.963-42.078c-1.17-1.896-0.633-3.637,1.263-4.807C295.422,454.226,297.219,454.527,298.389,456.423z"/>
			<path fill="#E53946" d="M297.862,456.423c1.17,1.896,0.869,3.693-1.027,4.862l-42.078,25.963
				c-1.896,1.17-3.783,0.723-4.952-1.173c-1.17-1.896-0.723-3.783,1.173-4.952l42.078-25.963
				C294.951,453.99,296.692,454.527,297.862,456.423z"/>
			<path fill="#A8D9DB" d="M275.483,529.353l-25.963-42.078c-1.17-1.896-0.723-3.783,1.173-4.952s3.783-0.723,4.952,1.173
				l25.963,42.078c1.17,1.896,0.633,3.637-1.263,4.807C278.449,531.55,276.653,531.249,275.483,529.353z"/>
			<path fill="#DBE5D8" d="M276.01,529.354c-1.17-1.896-0.869-3.693,1.027-4.862l42.078-25.963c1.896-1.17,3.783-0.723,4.952,1.173
				c1.17,1.896,0.723,3.783-1.173,4.952l-42.078,25.963C278.921,531.786,277.18,531.25,276.01,529.354z"/>
		</g>
		<path fill="#EA5F69" d="M307.611,498.682v28.545c0,2.228-1.371,3.599-3.599,3.599s-3.599-1.371-3.599-3.599v-28.545
			c0-2.228,1.371-3.427,3.599-3.427S307.611,496.454,307.611,498.682z"/>
	</g>
	<g>
		<g>
			<path fill="#F9F9F9" d="M655.722,456.423l25.963,42.078c1.17,1.896,0.723,3.783-1.173,4.952c-1.896,1.17-3.783,0.723-4.952-1.173
				l-25.963-42.078c-1.17-1.896-0.633-3.637,1.263-4.807C652.756,454.226,654.552,454.527,655.722,456.423z"/>
			<path fill="#E53946" d="M655.195,456.423c1.17,1.896,0.869,3.693-1.027,4.862l-42.078,25.963
				c-1.896,1.17-3.783,0.723-4.952-1.173c-1.17-1.896-0.723-3.783,1.173-4.952l42.078-25.963
				C652.284,453.99,654.025,454.527,655.195,456.423z"/>
			<path fill="#A8D9DB" d="M632.816,529.353l-25.963-42.078c-1.17-1.896-0.723-3.783,1.173-4.952s3.783-0.723,4.952,1.173
				l25.963,42.078c1.17,1.896,0.633,3.637-1.263,4.807S633.986,531.249,632.816,529.353z"/>
			<path fill="#DBE5D8" d="M633.343,529.354c-1.17-1.896-0.869-3.693,1.027-4.862l42.078-25.963c1.896-1.17,3.783-0.723,4.952,1.173
				c1.17,1.896,0.723,3.783-1.173,4.952l-42.078,25.963C636.254,531.786,634.513,531.25,633.343,529.354z"/>
		</g>
		<path fill="#EA5F69" d="M664.945,498.682v28.545c0,2.228-1.371,3.599-3.599,3.599s-3.599-1.371-3.599-3.599v-28.545
			c0-2.228,1.371-3.427,3.599-3.427S664.945,496.454,664.945,498.682z"/>
	</g>
	<g>
		<path fill="#EA5F69" d="M550.21,502.563c-5.588,0-10.078-4.672-10.078-10.169s4.489-10.169,10.078-10.169
			c5.497,0,10.169,4.672,10.169,10.169S555.707,502.563,550.21,502.563z"/>
		<path fill="#DBE5D8" d="M553.856,457.525v11.054c0,2.229-1.371,3.6-3.6,3.6s-3.6-1.371-3.6-3.6v-11.054
			c0-2.229,1.371-3.429,3.6-3.429S553.856,455.297,553.856,457.525z"/>
		<path fill="#F9F9F9" d="M577.458,470.284l-7.817,7.817c-1.576,1.576-3.515,1.576-5.091,0s-1.576-3.515,0-5.091l7.817-7.817
			c1.576-1.576,3.394-1.455,4.97,0.121C578.912,466.89,579.033,468.708,577.458,470.284z"/>
		<path fill="#467C9D" d="M585.125,495.994h-11.054c-2.229,0-3.6-1.371-3.6-3.6s1.371-3.6,3.6-3.6h11.054
			c2.229,0,3.429,1.371,3.429,3.6S587.354,495.994,585.125,495.994z"/>
		<path fill="#E53946" d="M572.366,519.596l-7.817-7.817c-1.576-1.576-1.576-3.515,0-5.091s3.515-1.576,5.091,0l7.817,7.817
			c1.576,1.576,1.455,3.394-0.121,4.97C575.761,521.051,573.942,521.172,572.366,519.596z"/>
		<path fill="#DBE5D8" d="M546.656,527.263v-11.054c0-2.229,1.371-3.6,3.6-3.6s3.6,1.371,3.6,3.6v11.054
			c0,2.229-1.371,3.429-3.6,3.429S546.656,529.492,546.656,527.263z"/>
		<path fill="#F9F9F9" d="M523.054,514.505l7.817-7.817c1.576-1.576,3.515-1.576,5.091,0s1.576,3.515,0,5.091l-7.817,7.817
			c-1.576,1.576-3.394,1.455-4.97-0.121C521.6,517.899,521.478,516.081,523.054,514.505z"/>
		<path fill="#467C9D" d="M515.387,488.794h11.054c2.229,0,3.6,1.371,3.6,3.6s-1.371,3.6-3.6,3.6h-11.054
			c-2.229,0-3.429-1.371-3.429-3.6C511.958,490.166,513.158,488.794,515.387,488.794z"/>
		<path fill="#A8D9DB" d="M528.145,465.193l7.817,7.817c1.576,1.576,1.576,3.515,0,5.091s-3.515,1.576-5.091,0l-7.817-7.817
			c-1.576-1.576-1.455-3.394,0.121-4.97S526.57,463.617,528.145,465.193z"/>
	</g>
	<g>
		<path fill="#EA5F69" d="M743.506,512.733c-5.588,0-10.078-4.672-10.078-10.169s4.489-10.169,10.078-10.169
			c5.497,0,10.169,4.672,10.169,10.169S749.003,512.733,743.506,512.733z"/>
		<path fill="#DBE5D8" d="M747.152,467.694v11.054c0,2.229-1.371,3.6-3.6,3.6s-3.6-1.371-3.6-3.6v-11.054
			c0-2.229,1.371-3.429,3.6-3.429S747.152,465.466,747.152,467.694z"/>
		<path fill="#F9F9F9" d="M770.753,480.453l-7.817,7.817c-1.576,1.576-3.515,1.576-5.091,0s-1.576-3.515,0-5.091l7.817-7.817
			c1.576-1.576,3.394-1.455,4.97,0.121C772.208,477.059,772.329,478.877,770.753,480.453z"/>
		<path fill="#467C9D" d="M778.421,506.163h-11.054c-2.229,0-3.6-1.371-3.6-3.6s1.371-3.6,3.6-3.6h11.054
			c2.229,0,3.429,1.371,3.429,3.6S780.649,506.163,778.421,506.163z"/>
		<path fill="#E53946" d="M765.662,529.765l-7.817-7.817c-1.576-1.576-1.576-3.515,0-5.091s3.515-1.576,5.091,0l7.817,7.817
			c1.576,1.576,1.455,3.394-0.121,4.97S767.238,531.341,765.662,529.765z"/>
		<path fill="#DBE5D8" d="M739.952,537.432v-11.054c0-2.229,1.371-3.6,3.6-3.6s3.6,1.371,3.6,3.6v11.054
			c0,2.229-1.371,3.429-3.6,3.429S739.952,539.661,739.952,537.432z"/>
		<path fill="#F9F9F9" d="M716.35,524.674l7.817-7.817c1.576-1.576,3.515-1.576,5.091,0s1.576,3.515,0,5.091l-7.817,7.817
			c-1.576,1.576-3.394,1.455-4.97-0.121C714.896,528.068,714.774,526.25,716.35,524.674z"/>
		<path fill="#467C9D" d="M708.683,498.963h11.054c2.229,0,3.6,1.371,3.6,3.6s-1.371,3.6-3.6,3.6h-11.054
			c-2.229,0-3.429-1.371-3.429-3.6S706.454,498.963,708.683,498.963z"/>
		<path fill="#A8D9DB" d="M721.441,475.362l7.817,7.817c1.576,1.576,1.576,3.515,0,5.091s-3.515,1.576-5.091,0l-7.817-7.817
			c-1.576-1.576-1.455-3.394,0.121-4.97C718.047,473.907,719.865,473.786,721.441,475.362z"/>
	</g>
	<g>
		<path fill="#F9F9F9" d="M885.238,20.491c0,2.249-1.384,3.633-3.633,3.633s-3.633-1.384-3.633-3.633v-22.31
			c0-2.249,1.384-3.46,3.633-3.46s3.633,1.211,3.633,3.46V20.491z"/>
		<path fill="#EA5F69" d="M908.049,20.491c0,2.249-1.384,3.633-3.633,3.633s-3.633-1.384-3.633-3.633V-50.65
			c0-2.249,1.384-3.46,3.633-3.46s3.633,1.211,3.633,3.46V20.491z"/>
		<path fill="#E53946" d="M904.415-46.844c-2.249,0-3.633-1.384-3.633-3.633s1.384-3.633,3.633-3.633h24.078
			c2.249,0,3.46,1.384,3.46,3.633s-1.211,3.633-3.46,3.633H904.415z"/>
		<path fill="#F9F9F9" d="M932.127,20.491c0,2.249-1.384,3.633-3.633,3.633s-3.633-1.384-3.633-3.633V-50.65
			c0-2.249,1.384-3.46,3.633-3.46s3.633,1.211,3.633,3.46V20.491z"/>
		<path fill="#467C9D" d="M904.415-19.096c-2.249,0-3.633-1.384-3.633-3.633s1.384-3.633,3.633-3.633h48.33
			c2.249,0,3.46,1.384,3.46,3.633s-1.211,3.633-3.46,3.633H904.415z"/>
		<path fill="#DBE5D8" d="M881.604,1.987c-2.249,0-3.633-1.384-3.633-3.633s1.384-3.633,3.633-3.633h71.141
			c2.249,0,3.46,1.384,3.46,3.633s-1.211,3.633-3.46,3.633H881.604z"/>
		<path fill="#EA5F69" d="M956.206,20.491c0,2.249-1.384,3.633-3.633,3.633s-3.633-1.384-3.633-3.633v-43.393
			c0-2.249,1.384-3.46,3.633-3.46s3.633,1.211,3.633,3.46V20.491z"/>
		<path fill="#A8D9DB" d="M881.604,24.124c-2.249,0-3.633-1.384-3.633-3.633s1.384-3.633,3.633-3.633h71.141
			c2.249,0,3.46,1.384,3.46,3.633s-1.211,3.633-3.46,3.633H881.604z"/>
	</g>
	<g>
		<path fill="#A8D9DB" d="M61.627-12.005c0-2.705,2.209-5.004,4.959-5.004c2.705,0,5.004,2.299,5.004,5.004S69.291-7,66.586-7
			C63.836-7,61.627-9.3,61.627-12.005z"/>
		<path fill="#467C9D" d="M76.908,10.294c0-2.705,2.209-5.004,4.959-5.004c2.705,0,5.004,2.299,5.004,5.004
			s-2.299,5.005-5.004,5.005C79.117,15.298,76.908,12.999,76.908,10.294z"/>
		<path fill="#EA5F69" d="M97.135-50.511c0-2.705,2.209-5.004,4.959-5.004c2.705,0,5.005,2.299,5.005,5.004
			s-2.299,5.005-5.005,5.005C99.344-45.507,97.135-47.806,97.135-50.511z"/>
		<path fill="#DBE5D8" d="M108.259-12.005c0-2.705,2.209-5.004,4.959-5.004c2.705,0,5.004,2.299,5.004,5.004S115.923-7,113.218-7
			C110.468-7,108.259-9.3,108.259-12.005z"/>
		<path fill="#F9F9F9" d="M120.697-32.421c0-2.705,2.209-5.005,4.959-5.005c2.705,0,5.004,2.299,5.004,5.005
			s-2.299,5.004-5.004,5.004C122.906-27.417,120.697-29.716,120.697-32.421z"/>
		<path fill="#E53946" d="M120.697,15.298c0-2.705,2.209-5.005,4.959-5.005c2.705,0,5.004,2.299,5.004,5.005
			c0,2.705-2.299,5.004-5.004,5.004C122.906,20.303,120.697,18.003,120.697,15.298z"/>
	</g>
	<g>
		<path fill="#A8D9DB" d="M342.18-12.005c0-2.705,2.209-5.004,4.959-5.004c2.705,0,5.004,2.299,5.004,5.004S349.844-7,347.139-7
			C344.389-7,342.18-9.3,342.18-12.005z"/>
		<path fill="#467C9D" d="M357.462,10.294c0-2.705,2.209-5.004,4.959-5.004c2.705,0,5.004,2.299,5.004,5.004
			s-2.299,5.005-5.004,5.005C359.671,15.298,357.462,12.999,357.462,10.294z"/>
		<path fill="#EA5F69" d="M377.688-50.511c0-2.705,2.209-5.004,4.959-5.004c2.705,0,5.005,2.299,5.005,5.004
			s-2.299,5.005-5.005,5.005C379.897-45.507,377.688-47.806,377.688-50.511z"/>
		<path fill="#DBE5D8" d="M388.812-12.005c0-2.705,2.209-5.004,4.959-5.004c2.705,0,5.004,2.299,5.004,5.004S396.476-7,393.771-7
			C391.021-7,388.812-9.3,388.812-12.005z"/>
		<path fill="#F9F9F9" d="M401.25-32.421c0-2.705,2.209-5.005,4.959-5.005c2.705,0,5.004,2.299,5.004,5.005
			s-2.299,5.004-5.004,5.004C403.459-27.417,401.25-29.716,401.25-32.421z"/>
		<path fill="#E53946" d="M401.25,15.298c0-2.705,2.209-5.005,4.959-5.005c2.705,0,5.004,2.299,5.004,5.005
			c0,2.705-2.299,5.004-5.004,5.004C403.459,20.303,401.25,18.003,401.25,15.298z"/>
	</g>
	<g>
		<path fill="#F9F9F9" d="M154.77,13.685c0,2.249-1.384,3.633-3.633,3.633s-3.633-1.384-3.633-3.633v-22.31
			c0-2.249,1.384-3.46,3.633-3.46s3.633,1.211,3.633,3.46V13.685z"/>
		<path fill="#EA5F69" d="M177.581,13.685c0,2.249-1.384,3.633-3.633,3.633s-3.633-1.384-3.633-3.633v-71.141
			c0-2.249,1.384-3.46,3.633-3.46s3.633,1.211,3.633,3.46V13.685z"/>
		<path fill="#E53946" d="M173.948-53.65c-2.249,0-3.633-1.384-3.633-3.633s1.384-3.633,3.633-3.633h24.079
			c2.249,0,3.46,1.384,3.46,3.633s-1.211,3.633-3.46,3.633H173.948z"/>
		<path fill="#F9F9F9" d="M201.659,13.685c0,2.249-1.384,3.633-3.633,3.633s-3.633-1.384-3.633-3.633v-71.141
			c0-2.249,1.384-3.46,3.633-3.46s3.633,1.211,3.633,3.46V13.685z"/>
		<path fill="#467C9D" d="M173.948-25.901c-2.249,0-3.633-1.384-3.633-3.633s1.384-3.633,3.633-3.633h48.33
			c2.249,0,3.46,1.384,3.46,3.633s-1.211,3.633-3.46,3.633H173.948z"/>
		<path fill="#DBE5D8" d="M151.137-4.819c-2.249,0-3.633-1.384-3.633-3.633s1.384-3.633,3.633-3.633h71.141
			c2.249,0,3.46,1.384,3.46,3.633s-1.211,3.633-3.46,3.633H151.137z"/>
		<path fill="#EA5F69" d="M225.738,13.685c0,2.249-1.384,3.633-3.633,3.633s-3.633-1.384-3.633-3.633v-43.393
			c0-2.249,1.384-3.46,3.633-3.46s3.633,1.211,3.633,3.46V13.685z"/>
		<path fill="#A8D9DB" d="M151.137,17.318c-2.249,0-3.633-1.384-3.633-3.633s1.384-3.633,3.633-3.633h71.141
			c2.249,0,3.46,1.384,3.46,3.633s-1.211,3.633-3.46,3.633H151.137z"/>
	</g>
	<g>
		<path fill="#E53946" d="M430.08,11.385l28.325-28.325c1.59-1.59,3.548-1.59,5.138,0c1.591,1.591,1.591,3.548,0,5.138
			l-28.325,28.325c-1.59,1.59-3.425,1.468-5.016-0.122C428.612,14.81,428.49,12.975,430.08,11.385z"/>
		<path fill="#A8D9DB" d="M463.544-18.185c1.591,1.59,1.591,3.548,0,5.138c-1.59,1.59-3.548,1.59-5.138,0l-28.325-28.325
			c-1.59-1.591-1.468-3.426,0.122-5.016c1.591-1.591,3.426-1.713,5.016-0.122L463.544-18.185z"/>
		<path fill="#F9F9F9" d="M499.296-18.185c1.591,1.59,1.591,3.548,0,5.138c-1.59,1.59-3.548,1.59-5.138,0l-28.325-28.325
			c-1.59-1.591-1.468-3.426,0.122-5.016c1.59-1.591,3.426-1.713,5.016-0.122L499.296-18.185z"/>
		<path fill="#DBE5D8" d="M465.833,11.385l28.325-28.325c1.591-1.59,3.548-1.59,5.138,0c1.591,1.591,1.591,3.548,0,5.138
			l-28.325,28.325c-1.59,1.59-3.425,1.468-5.016-0.122C464.365,14.81,464.242,12.975,465.833,11.385z"/>
	</g>
	<g>
		<path fill="#E53946" d="M790.603,11.385l28.325-28.325c1.59-1.59,3.548-1.59,5.138,0c1.591,1.591,1.591,3.548,0,5.138
			l-28.325,28.325c-1.59,1.59-3.425,1.468-5.016-0.122C789.135,14.811,789.013,12.976,790.603,11.385z"/>
		<path fill="#A8D9DB" d="M824.066-18.185c1.591,1.59,1.591,3.548,0,5.138c-1.59,1.59-3.548,1.59-5.138,0l-28.325-28.325
			c-1.59-1.591-1.468-3.426,0.122-5.016c1.591-1.591,3.426-1.713,5.016-0.122L824.066-18.185z"/>
		<path fill="#F9F9F9" d="M859.819-18.185c1.591,1.59,1.591,3.548,0,5.138c-1.59,1.59-3.548,1.59-5.138,0l-28.325-28.325
			c-1.59-1.591-1.468-3.426,0.122-5.016c1.59-1.591,3.426-1.713,5.016-0.122L859.819-18.185z"/>
		<path fill="#DBE5D8" d="M826.355,11.385L854.68-16.94c1.591-1.59,3.548-1.59,5.138,0c1.591,1.591,1.591,3.548,0,5.138
			l-28.325,28.325c-1.59,1.59-3.425,1.468-5.016-0.122C824.887,14.811,824.765,12.976,826.355,11.385z"/>
	</g>
	<g>
		<g>
			<path fill="#F9F9F9" d="M298.389-54.598l25.963,42.078c1.17,1.896,0.723,3.783-1.173,4.952c-1.896,1.17-3.783,0.723-4.952-1.173
				l-25.963-42.078c-1.17-1.896-0.633-3.637,1.263-4.807C295.422-56.795,297.219-56.494,298.389-54.598z"/>
			<path fill="#E53946" d="M297.862-54.598c1.17,1.896,0.869,3.693-1.027,4.862l-42.078,25.963c-1.896,1.17-3.783,0.723-4.952-1.173
				c-1.17-1.896-0.723-3.783,1.173-4.952l42.078-25.963C294.951-57.031,296.692-56.494,297.862-54.598z"/>
			<path fill="#A8D9DB" d="M275.483,18.332L249.52-23.746c-1.17-1.896-0.723-3.783,1.173-4.952s3.783-0.723,4.952,1.173
				l25.963,42.078c1.17,1.896,0.633,3.637-1.263,4.807C278.449,20.529,276.653,20.228,275.483,18.332z"/>
			<path fill="#DBE5D8" d="M276.01,18.333c-1.17-1.896-0.869-3.693,1.027-4.862l42.078-25.963c1.896-1.17,3.783-0.723,4.952,1.173
				c1.17,1.896,0.723,3.783-1.173,4.952l-42.078,25.963C278.921,20.765,277.18,20.229,276.01,18.333z"/>
		</g>
		<path fill="#EA5F69" d="M307.611-12.339v28.545c0,2.228-1.371,3.599-3.599,3.599s-3.599-1.371-3.599-3.599v-28.545
			c0-2.228,1.371-3.427,3.599-3.427S307.611-14.567,307.611-12.339z"/>
	</g>
	<g>
		<g>
			<path fill="#F9F9F9" d="M655.722-54.598l25.963,42.078c1.17,1.896,0.723,3.783-1.173,4.952c-1.896,1.17-3.783,0.723-4.952-1.173
				l-25.963-42.078c-1.17-1.896-0.633-3.637,1.263-4.807C652.756-56.795,654.552-56.494,655.722-54.598z"/>
			<path fill="#E53946" d="M655.195-54.598c1.17,1.896,0.869,3.693-1.027,4.862L612.09-23.773c-1.896,1.17-3.783,0.723-4.952-1.173
				c-1.17-1.896-0.723-3.783,1.173-4.952l42.078-25.963C652.284-57.031,654.025-56.494,655.195-54.598z"/>
			<path fill="#A8D9DB" d="M632.816,18.332l-25.963-42.078c-1.17-1.896-0.723-3.783,1.173-4.952s3.783-0.723,4.952,1.173
				l25.963,42.078c1.17,1.896,0.633,3.637-1.263,4.807S633.986,20.228,632.816,18.332z"/>
			<path fill="#DBE5D8" d="M633.343,18.333c-1.17-1.896-0.869-3.693,1.027-4.862l42.078-25.963c1.896-1.17,3.783-0.723,4.952,1.173
				c1.17,1.896,0.723,3.783-1.173,4.952l-42.078,25.963C636.254,20.765,634.513,20.229,633.343,18.333z"/>
		</g>
		<path fill="#EA5F69" d="M664.945-12.339v28.545c0,2.228-1.371,3.599-3.599,3.599s-3.599-1.371-3.599-3.599v-28.545
			c0-2.228,1.371-3.427,3.599-3.427S664.945-14.567,664.945-12.339z"/>
	</g>
	<g>
		<path fill="#EA5F69" d="M550.21-8.458c-5.588,0-10.078-4.672-10.078-10.169s4.489-10.169,10.078-10.169
			c5.497,0,10.169,4.672,10.169,10.169S555.707-8.458,550.21-8.458z"/>
		<path fill="#DBE5D8" d="M553.856-53.496v11.054c0,2.229-1.371,3.6-3.6,3.6s-3.6-1.371-3.6-3.6v-11.054
			c0-2.229,1.371-3.429,3.6-3.429S553.856-55.724,553.856-53.496z"/>
		<path fill="#F9F9F9" d="M577.458-40.737l-7.817,7.817c-1.576,1.576-3.515,1.576-5.091,0s-1.576-3.515,0-5.091l7.817-7.817
			c1.576-1.576,3.394-1.455,4.97,0.121C578.912-44.131,579.033-42.313,577.458-40.737z"/>
		<path fill="#467C9D" d="M585.125-15.027h-11.054c-2.229,0-3.6-1.371-3.6-3.6s1.371-3.6,3.6-3.6h11.054
			c2.229,0,3.429,1.371,3.429,3.6S587.354-15.027,585.125-15.027z"/>
		<path fill="#E53946" d="M572.366,8.575l-7.817-7.817c-1.576-1.576-1.576-3.515,0-5.091s3.515-1.576,5.091,0l7.817,7.817
			c1.576,1.576,1.455,3.394-0.121,4.97C575.761,10.03,573.942,10.151,572.366,8.575z"/>
		<path fill="#DBE5D8" d="M546.656,16.242V5.188c0-2.229,1.371-3.6,3.6-3.6s3.6,1.371,3.6,3.6v11.054c0,2.229-1.371,3.429-3.6,3.429
			S546.656,18.471,546.656,16.242z"/>
		<path fill="#F9F9F9" d="M523.054,3.484l7.817-7.817c1.576-1.576,3.515-1.576,5.091,0s1.576,3.515,0,5.091l-7.817,7.817
			c-1.576,1.576-3.394,1.455-4.97-0.121C521.6,6.878,521.478,5.06,523.054,3.484z"/>
		<path fill="#467C9D" d="M515.387-22.227h11.054c2.229,0,3.6,1.371,3.6,3.6s-1.371,3.6-3.6,3.6h-11.054
			c-2.229,0-3.429-1.371-3.429-3.6C511.958-20.855,513.158-22.227,515.387-22.227z"/>
		<path fill="#A8D9DB" d="M528.145-45.828l7.817,7.817c1.576,1.576,1.576,3.515,0,5.091s-3.515,1.576-5.091,0l-7.817-7.817
			c-1.576-1.576-1.455-3.394,0.121-4.97S526.57-47.404,528.145-45.828z"/>
	</g>
	<g>
		<path fill="#EA5F69" d="M743.506,1.712c-5.588,0-10.078-4.672-10.078-10.169s4.489-10.169,10.078-10.169
			c5.497,0,10.169,4.672,10.169,10.169S749.003,1.712,743.506,1.712z"/>
		<path fill="#DBE5D8" d="M747.152-43.327v11.054c0,2.229-1.371,3.6-3.6,3.6s-3.6-1.371-3.6-3.6v-11.054
			c0-2.229,1.371-3.429,3.6-3.429S747.152-45.555,747.152-43.327z"/>
		<path fill="#F9F9F9" d="M770.753-30.568l-7.817,7.817c-1.576,1.576-3.515,1.576-5.091,0s-1.576-3.515,0-5.091l7.817-7.817
			c1.576-1.576,3.394-1.455,4.97,0.121C772.208-33.962,772.329-32.144,770.753-30.568z"/>
		<path fill="#467C9D" d="M778.421-4.858h-11.054c-2.229,0-3.6-1.371-3.6-3.6s1.371-3.6,3.6-3.6h11.054
			c2.229,0,3.429,1.371,3.429,3.6S780.649-4.858,778.421-4.858z"/>
		<path fill="#E53946" d="M765.662,18.744l-7.817-7.817c-1.576-1.576-1.576-3.515,0-5.091s3.515-1.576,5.091,0l7.817,7.817
			c1.576,1.576,1.455,3.394-0.121,4.97S767.238,20.32,765.662,18.744z"/>
		<path fill="#DBE5D8" d="M739.952,26.411V15.357c0-2.229,1.371-3.6,3.6-3.6s3.6,1.371,3.6,3.6v11.054
			c0,2.229-1.371,3.429-3.6,3.429S739.952,28.64,739.952,26.411z"/>
		<path fill="#F9F9F9" d="M716.35,13.653l7.817-7.817c1.576-1.576,3.515-1.576,5.091,0s1.576,3.515,0,5.091l-7.817,7.817
			c-1.576,1.576-3.394,1.455-4.97-0.121C714.896,17.047,714.774,15.229,716.35,13.653z"/>
		<path fill="#467C9D" d="M708.683-12.058h11.054c2.229,0,3.6,1.371,3.6,3.6s-1.371,3.6-3.6,3.6h-11.054
			c-2.229,0-3.429-1.371-3.429-3.6S706.454-12.058,708.683-12.058z"/>
		<path fill="#A8D9DB" d="M721.441-35.659l7.817,7.817c1.576,1.576,1.576,3.515,0,5.091s-3.515,1.576-5.091,0l-7.817-7.817
			c-1.576-1.576-1.455-3.394,0.121-4.97C718.047-37.114,719.865-37.235,721.441-35.659z"/>
	</g>
	<g>
		<path fill="#F9F9F9" stroke="#FFFFFF" stroke-width="0.5" stroke-miterlimit="10" d="M355.389,250.537
			c0-0.73-0.292-1.301-0.874-1.712c-0.521-0.365-1.165-0.548-1.932-0.548c-0.721,0-1.327,0.161-1.817,0.481
			c-0.552,0.382-0.828,0.917-0.828,1.604c0,0.855,0.46,1.559,1.38,2.108l3.726,2.2c1.564,0.92,2.346,2.292,2.346,4.117
			c0,1.304-0.483,2.338-1.449,3.105c-0.874,0.706-1.986,1.058-3.335,1.058c-1.319,0-2.415-0.395-3.289-1.185
			c-0.874-0.79-1.311-1.836-1.311-3.139c0-0.245,0.085-0.452,0.256-0.621c0.171-0.168,0.38-0.253,0.629-0.253
			c0.233,0,0.439,0.088,0.618,0.264c0.179,0.177,0.268,0.38,0.268,0.61c0,0.797,0.267,1.414,0.802,1.851
			c0.534,0.437,1.207,0.656,2.016,0.656c0.84,0,1.527-0.168,2.062-0.505c0.641-0.414,0.962-1.018,0.962-1.813
			c0-1.147-0.531-2.035-1.593-2.663l-3.743-2.218c-1.411-0.825-2.116-2.033-2.116-3.623c0-1.208,0.444-2.163,1.334-2.866
			c0.812-0.657,1.84-0.986,3.082-0.986c1.303,0,2.376,0.351,3.22,1.053c0.905,0.733,1.357,1.74,1.357,3.022
			c0,0.229-0.088,0.432-0.264,0.607c-0.177,0.175-0.38,0.263-0.61,0.263C355.688,251.405,355.389,251.116,355.389,250.537z"/>
		<path fill="#F9F9F9" stroke="#FFFFFF" stroke-width="0.5" stroke-miterlimit="10" d="M371.88,262.099
			c0,0.491-0.23,0.783-0.69,0.875c-0.583,0.123-0.943-0.108-1.081-0.693l-0.989-4.09h-5.244l-0.989,4.071
			c-0.123,0.476-0.383,0.713-0.782,0.713c-0.659,0-0.989-0.291-0.989-0.874c0-0.092,0.007-0.168,0.023-0.23l3.565-15.203h3.542
			l3.611,15.225C371.872,261.953,371.88,262.022,371.88,262.099z M366.107,248.415l-1.84,8.004h4.439l-1.817-8.004H366.107z"/>
		<path fill="#F9F9F9" stroke="#FFFFFF" stroke-width="0.5" stroke-miterlimit="10" d="M382.919,247.203
			c0-0.263,0.083-0.479,0.25-0.649c0.166-0.17,0.378-0.255,0.636-0.255s0.469,0.084,0.636,0.253c0.166,0.169,0.25,0.383,0.25,0.644
			v15.479h-2.737l-4.278-12.926v12.42c0,0.245-0.087,0.46-0.261,0.644c-0.174,0.184-0.382,0.276-0.624,0.276
			s-0.451-0.092-0.625-0.276c-0.174-0.184-0.261-0.398-0.261-0.644v-15.502h2.592l4.423,13.29V247.203z"/>
		<path fill="#F9F9F9" stroke="#FFFFFF" stroke-width="0.5" stroke-miterlimit="10" d="M393.246,262.146v-13.685h-3.427
			c-0.23,0-0.437-0.088-0.621-0.265s-0.276-0.379-0.276-0.609c0-0.245,0.088-0.46,0.264-0.644s0.387-0.276,0.633-0.276h8.556
			c0.245,0,0.456,0.092,0.632,0.276s0.265,0.399,0.265,0.644c0,0.23-0.092,0.433-0.276,0.609c-0.184,0.176-0.391,0.265-0.621,0.265
			h-3.404v13.685c0,0.598-0.292,0.897-0.874,0.897C393.53,263.043,393.246,262.744,393.246,262.146z"/>
		<path fill="#F9F9F9" stroke="#FFFFFF" stroke-width="0.5" stroke-miterlimit="10" d="M403.826,247.575
			c0-0.242,0.081-0.454,0.241-0.636c0.161-0.181,0.364-0.272,0.61-0.272h6.394c0.245,0,0.452,0.091,0.621,0.272
			c0.169,0.182,0.253,0.394,0.253,0.636s-0.084,0.443-0.253,0.602c-0.169,0.159-0.375,0.238-0.621,0.238h-2.346v12.489h2.346
			c0.245,0,0.452,0.091,0.621,0.272s0.253,0.394,0.253,0.636s-0.084,0.442-0.253,0.602c-0.169,0.159-0.375,0.238-0.621,0.238h-6.394
			c-0.568,0-0.851-0.28-0.851-0.84c0-0.242,0.081-0.454,0.241-0.636c0.161-0.182,0.364-0.272,0.61-0.272h2.346v-12.489h-2.346
			C404.109,248.415,403.826,248.135,403.826,247.575z"/>
		<path fill="#F9F9F9" stroke="#FFFFFF" stroke-width="0.5" stroke-miterlimit="10" d="M427.079,262.099
			c0,0.491-0.23,0.783-0.69,0.875c-0.583,0.123-0.943-0.108-1.081-0.693l-0.989-4.09h-5.244l-0.989,4.071
			c-0.123,0.476-0.383,0.713-0.782,0.713c-0.659,0-0.989-0.291-0.989-0.874c0-0.092,0.007-0.168,0.023-0.23l3.565-15.203h3.542
			l3.611,15.225C427.071,261.953,427.079,262.022,427.079,262.099z M421.306,248.415l-1.84,8.004h4.439l-1.817-8.004H421.306z"/>
		<path fill="#F9F9F9" stroke="#FFFFFF" stroke-width="0.5" stroke-miterlimit="10" d="M438.234,250.807
			c0-0.797-0.257-1.422-0.771-1.875c-0.514-0.452-1.169-0.678-1.967-0.678c-0.813,0-1.48,0.227-2.001,0.68
			c-0.521,0.453-0.782,1.087-0.782,1.901v7.719c0,0.799,0.26,1.425,0.782,1.878c0.521,0.453,1.188,0.68,2.001,0.68
			c0.812,0,1.476-0.223,1.99-0.669c0.513-0.446,0.771-1.078,0.771-1.895v-2.979h-2.806c-0.246,0-0.449-0.088-0.609-0.265
			c-0.161-0.176-0.242-0.387-0.242-0.632c0-0.23,0.084-0.429,0.253-0.598c0.168-0.168,0.368-0.253,0.598-0.253h4.577v4.738
			c0,0.997-0.314,1.894-0.943,2.691c-0.843,1.074-2.07,1.61-3.68,1.61c-1.58,0-2.768-0.537-3.565-1.61
			c-0.598-0.797-0.897-1.702-0.897-2.714v-7.751c0-0.981,0.306-1.871,0.92-2.668c0.812-1.073,2.024-1.61,3.634-1.61
			c1.579,0,2.768,0.537,3.565,1.61c0.598,0.797,0.897,1.694,0.897,2.691c0,0.23-0.088,0.434-0.264,0.609
			c-0.177,0.177-0.38,0.265-0.61,0.265s-0.429-0.088-0.598-0.265C438.318,251.24,438.234,251.037,438.234,250.807z"/>
		<path fill="#F9F9F9" stroke="#FFFFFF" stroke-width="0.5" stroke-miterlimit="10" d="M453.828,258.558
			c0,0.997-0.314,1.894-0.943,2.691c-0.843,1.074-2.07,1.61-3.68,1.61c-1.58,0-2.768-0.537-3.565-1.61
			c-0.598-0.797-0.897-1.702-0.897-2.714v-7.751c0-0.981,0.306-1.871,0.92-2.668c0.812-1.073,2.024-1.61,3.634-1.61
			c1.579,0,2.783,0.544,3.611,1.633c0.613,0.813,0.92,1.702,0.92,2.668V258.558z M452.057,258.553v-7.719
			c0-0.814-0.257-1.448-0.771-1.901c-0.514-0.453-1.177-0.68-1.99-0.68c-0.813,0-1.48,0.227-2.001,0.68
			c-0.521,0.453-0.782,1.087-0.782,1.901v7.719c0,0.799,0.261,1.425,0.785,1.878c0.523,0.453,1.193,0.68,2.009,0.68
			c0.801,0,1.458-0.227,1.975-0.68C451.798,259.978,452.057,259.352,452.057,258.553z"/>
		<path fill="#F9F9F9" stroke="#FFFFFF" stroke-width="0.5" stroke-miterlimit="10" d="M481.427,258.351
			c0,1.028-0.269,1.925-0.805,2.691c-0.751,1.074-1.894,1.61-3.427,1.61h-4.853v-16.008h4.761c1.579,0,2.752,0.537,3.519,1.61
			c0.537,0.751,0.805,1.633,0.805,2.645V258.351z M479.656,258.341v-7.387c0-0.8-0.23-1.427-0.69-1.881
			c-0.46-0.454-1.081-0.681-1.863-0.681h-2.99v12.512h3.048c0.785,0,1.397-0.227,1.836-0.681
			C479.437,259.769,479.656,259.142,479.656,258.341z"/>
		<path fill="#F9F9F9" stroke="#FFFFFF" stroke-width="0.5" stroke-miterlimit="10" d="M487.936,255.085v5.819h6.391
			c0.23,0,0.435,0.092,0.611,0.276s0.266,0.391,0.266,0.621s-0.088,0.429-0.265,0.598s-0.379,0.253-0.609,0.253h-8.165v-15.985
			h8.165c0.23,0,0.433,0.092,0.609,0.276s0.265,0.391,0.265,0.621c0,0.23-0.088,0.429-0.265,0.598
			c-0.176,0.169-0.379,0.253-0.609,0.253h-6.394v4.922h5.888c0.23,0,0.433,0.088,0.61,0.264c0.176,0.177,0.264,0.38,0.264,0.61
			s-0.088,0.433-0.266,0.609c-0.177,0.176-0.38,0.265-0.611,0.265H487.936z"/>
		<path fill="#F9F9F9" stroke="#FFFFFF" stroke-width="0.5" stroke-miterlimit="10" d="M521.032,258.518
			c0-0.231,0.085-0.44,0.256-0.625c0.172-0.185,0.373-0.278,0.606-0.278c0.249,0,0.462,0.088,0.641,0.265s0.269,0.387,0.269,0.632
			c0,1.027-0.308,1.94-0.921,2.737c-0.812,1.074-2.031,1.61-3.656,1.61c-1.58,0-2.769-0.537-3.565-1.61
			c-0.598-0.797-0.896-1.702-0.896-2.714v-7.751c0-0.981,0.307-1.871,0.922-2.668c0.814-1.073,2.029-1.61,3.644-1.61
			c1.567,0,2.751,0.514,3.551,1.541c0.615,0.782,0.923,1.687,0.923,2.714c0,0.246-0.085,0.449-0.254,0.609
			c-0.17,0.161-0.377,0.242-0.623,0.242c-0.569,0-0.854-0.284-0.854-0.851c-0.016-0.782-0.277-1.395-0.785-1.84
			s-1.161-0.667-1.961-0.667c-0.815,0-1.484,0.227-2.008,0.68c-0.522,0.453-0.784,1.087-0.784,1.901v7.719
			c0,0.799,0.26,1.425,0.779,1.878c0.519,0.453,1.183,0.68,1.992,0.68s1.466-0.228,1.97-0.683
			C520.78,259.973,521.032,259.336,521.032,258.518z"/>
		<path fill="#F9F9F9" stroke="#FFFFFF" stroke-width="0.5" stroke-miterlimit="10" d="M527.427,262.146v-14.95
			c0-0.598,0.287-0.897,0.861-0.897c0.606,0,0.909,0.299,0.909,0.897v6.187h5.796v-6.187c0-0.598,0.295-0.897,0.886-0.897
			c0.59,0,0.886,0.299,0.886,0.897v14.95c0,0.598-0.296,0.897-0.886,0.897c-0.591,0-0.886-0.299-0.886-0.897v-7.015h-5.796v7.015
			c0,0.598-0.303,0.897-0.909,0.897C527.714,263.043,527.427,262.744,527.427,262.146z"/>
		<path fill="#F9F9F9" stroke="#FFFFFF" stroke-width="0.5" stroke-miterlimit="10" d="M541.824,247.575
			c0-0.242,0.08-0.454,0.241-0.636c0.161-0.181,0.364-0.272,0.609-0.272h6.395c0.245,0,0.452,0.091,0.621,0.272
			c0.168,0.182,0.253,0.394,0.253,0.636s-0.085,0.443-0.253,0.602c-0.169,0.159-0.376,0.238-0.621,0.238h-2.347v12.489h2.347
			c0.245,0,0.452,0.091,0.621,0.272c0.168,0.182,0.253,0.394,0.253,0.636s-0.085,0.442-0.253,0.602
			c-0.169,0.159-0.376,0.238-0.621,0.238h-6.395c-0.567,0-0.851-0.28-0.851-0.84c0-0.242,0.08-0.454,0.241-0.636
			s0.364-0.272,0.609-0.272h2.347v-12.489h-2.347C542.107,248.415,541.824,248.135,541.824,247.575z"/>
		<path fill="#F9F9F9" stroke="#FFFFFF" stroke-width="0.5" stroke-miterlimit="10" d="M563.306,262.629h-8.142v-15.433
			c0-0.598,0.291-0.897,0.874-0.897c0.261,0,0.475,0.084,0.644,0.253s0.253,0.384,0.253,0.645v13.684h6.371
			c0.245,0,0.456,0.091,0.633,0.272c0.176,0.182,0.265,0.394,0.265,0.636C564.203,262.349,563.904,262.629,563.306,262.629z"/>
		<path fill="#F9F9F9" stroke="#FFFFFF" stroke-width="0.5" stroke-miterlimit="10" d="M570.734,255.085v5.819h6.392
			c0.23,0,0.435,0.092,0.611,0.276s0.266,0.391,0.266,0.621s-0.089,0.429-0.265,0.598c-0.177,0.169-0.38,0.253-0.609,0.253h-8.165
			v-15.985h8.165c0.229,0,0.433,0.092,0.609,0.276c0.176,0.184,0.265,0.391,0.265,0.621c0,0.23-0.089,0.429-0.265,0.598
			c-0.177,0.169-0.38,0.253-0.609,0.253h-6.395v4.922h5.889c0.229,0,0.433,0.088,0.609,0.264c0.176,0.177,0.265,0.38,0.265,0.61
			s-0.089,0.433-0.266,0.609s-0.381,0.265-0.611,0.265H570.734z"/>
	</g>
	<path fill="#EA5F69" stroke="#EA5F69" stroke-width="0.25" stroke-miterlimit="10" d="M358.08,293.099
		c0,0.491-0.23,0.783-0.69,0.875c-0.583,0.123-0.943-0.107-1.081-0.693l-0.989-4.09h-5.244l-0.989,4.07
		c-0.123,0.476-0.383,0.713-0.782,0.713c-0.659,0-0.989-0.291-0.989-0.874c0-0.092,0.007-0.168,0.023-0.229l3.565-15.204h3.542
		l3.611,15.225C358.072,292.953,358.08,293.022,358.08,293.099z M352.307,279.415l-1.84,8.004h4.439l-1.817-8.004H352.307z"/>
	<path fill="#EA5F69" stroke="#EA5F69" stroke-width="0.25" stroke-miterlimit="10" d="M369.258,278.197
		c0-0.599,0.291-0.898,0.874-0.898c0.26,0,0.475,0.084,0.644,0.253c0.168,0.169,0.253,0.383,0.253,0.644v11.362
		c0,0.997-0.314,1.895-0.943,2.691c-0.843,1.073-2.07,1.61-3.68,1.61c-1.58,0-2.768-0.537-3.565-1.61
		c-0.598-0.797-0.897-1.702-0.897-2.714v-11.339c0-0.598,0.291-0.897,0.874-0.897c0.26,0,0.475,0.084,0.644,0.253
		c0.169,0.169,0.253,0.384,0.253,0.645v11.356c0,0.799,0.26,1.425,0.782,1.878c0.521,0.453,1.188,0.68,2.001,0.68
		c0.812,0,1.476-0.223,1.99-0.668c0.513-0.445,0.771-1.075,0.771-1.89V278.197z"/>
	<path fill="#EA5F69" stroke="#EA5F69" stroke-width="0.25" stroke-miterlimit="10" d="M383.035,281.807
		c0-0.797-0.257-1.422-0.771-1.875c-0.514-0.452-1.169-0.678-1.967-0.678c-0.813,0-1.48,0.227-2.001,0.68
		c-0.521,0.453-0.782,1.087-0.782,1.901v7.719c0,0.799,0.26,1.425,0.782,1.878c0.521,0.453,1.188,0.68,2.001,0.68
		c0.812,0,1.476-0.224,1.99-0.67c0.513-0.446,0.771-1.078,0.771-1.895v-2.979h-2.806c-0.246,0-0.449-0.089-0.609-0.265
		c-0.161-0.177-0.242-0.388-0.242-0.633c0-0.229,0.084-0.429,0.253-0.598c0.168-0.169,0.368-0.253,0.598-0.253h4.577v4.737
		c0,0.997-0.314,1.895-0.943,2.691c-0.843,1.073-2.07,1.61-3.68,1.61c-1.58,0-2.768-0.537-3.565-1.61
		c-0.598-0.797-0.897-1.702-0.897-2.714v-7.751c0-0.981,0.306-1.871,0.92-2.668c0.812-1.073,2.024-1.61,3.634-1.61
		c1.579,0,2.768,0.537,3.565,1.61c0.598,0.797,0.897,1.694,0.897,2.691c0,0.23-0.088,0.434-0.264,0.609
		c-0.177,0.177-0.38,0.265-0.61,0.265s-0.429-0.088-0.598-0.265C383.119,282.24,383.035,282.037,383.035,281.807z"/>
	<path fill="#EA5F69" stroke="#EA5F69" stroke-width="0.25" stroke-miterlimit="10" d="M389.612,278.564
		c0-0.245,0.084-0.46,0.253-0.644c0.168-0.184,0.375-0.276,0.621-0.276h7.751v1.528l-3.295,4.978
		c1.121,0.169,2.016,0.624,2.684,1.366s1.002,1.664,1.002,2.766v1.171c0,1.025-0.299,1.943-0.897,2.754
		c-0.813,1.102-2.009,1.653-3.588,1.653c-1.641,0-2.867-0.535-3.68-1.604c-0.614-0.794-0.92-1.725-0.92-2.794
		c0-0.595,0.291-0.893,0.874-0.893c0.23,0,0.437,0.092,0.621,0.275c0.184,0.185,0.276,0.392,0.276,0.621
		c0,0.813,0.253,1.457,0.759,1.933c0.506,0.475,1.165,0.713,1.978,0.713c0.812,0,1.483-0.242,2.013-0.725
		c0.529-0.483,0.793-1.123,0.793-1.921v-1.127c0-0.797-0.265-1.418-0.793-1.863c-0.529-0.444-1.2-0.667-2.013-0.667h-1.219v-1.472
		l3.243-4.899h-5.589c-0.246,0-0.453-0.084-0.621-0.253C389.696,279.016,389.612,278.809,389.612,278.564z"/>
	<path fill="#EA5F69" stroke="#EA5F69" stroke-width="0.25" stroke-miterlimit="10" d="M404.194,278.575
		c0-0.257,0.088-0.473,0.265-0.646c0.176-0.174,0.395-0.262,0.656-0.262h3.611v14.214h2.829c0.245,0,0.456,0.091,0.632,0.272
		s0.265,0.394,0.265,0.636c0,0.56-0.299,0.84-0.897,0.84h-7.337c-0.583,0-0.874-0.28-0.874-0.84c0-0.605,0.306-0.908,0.92-0.908
		h2.76v-12.466h-1.909C404.501,279.415,404.194,279.135,404.194,278.575z"/>
	<path fill="#EA5F69" stroke="#EA5F69" stroke-width="0.25" stroke-miterlimit="10" d="M418.132,287.603
		c0-0.566,0.291-0.851,0.874-0.851h5.359c0.583,0,0.874,0.284,0.874,0.851c0,0.568-0.292,0.852-0.874,0.852h-5.359
		C418.423,288.454,418.132,288.171,418.132,287.603z"/>
	<path fill="#EA5F69" stroke="#EA5F69" stroke-width="0.25" stroke-miterlimit="10" d="M431.403,289.558
		c0-0.598,0.287-0.896,0.862-0.896c0.606,0,0.909,0.301,0.909,0.903c0,1.697,0.778,2.547,2.334,2.547
		c1.571,0,2.357-0.793,2.357-2.378v-10.319h-4.324c-0.567,0-0.851-0.28-0.851-0.84c0-0.242,0.08-0.454,0.241-0.636
		c0.161-0.181,0.364-0.272,0.609-0.272h6.049v11.915c0,1.334-0.356,2.381-1.07,3.14c-0.713,0.759-1.729,1.139-3.047,1.139
		c-1.303,0-2.315-0.399-3.036-1.196C431.748,291.912,431.403,290.877,431.403,289.558z"/>
	<path fill="#EA5F69" stroke="#EA5F69" stroke-width="0.25" stroke-miterlimit="10" d="M452.057,278.197
		c0-0.599,0.291-0.898,0.874-0.898c0.26,0,0.475,0.084,0.644,0.253c0.168,0.169,0.253,0.383,0.253,0.644v11.362
		c0,0.997-0.314,1.895-0.943,2.691c-0.843,1.073-2.07,1.61-3.68,1.61c-1.58,0-2.768-0.537-3.565-1.61
		c-0.598-0.797-0.897-1.702-0.897-2.714v-11.339c0-0.598,0.291-0.897,0.874-0.897c0.26,0,0.475,0.084,0.644,0.253
		c0.169,0.169,0.253,0.384,0.253,0.645v11.356c0,0.799,0.26,1.425,0.782,1.878c0.521,0.453,1.188,0.68,2.001,0.68
		c0.812,0,1.476-0.223,1.99-0.668c0.513-0.445,0.771-1.075,0.771-1.89V278.197z"/>
	<path fill="#EA5F69" stroke="#EA5F69" stroke-width="0.25" stroke-miterlimit="10" d="M466.708,293.629h-8.142v-15.433
		c0-0.598,0.291-0.897,0.874-0.897c0.26,0,0.475,0.084,0.644,0.253c0.168,0.169,0.253,0.384,0.253,0.645v13.684h6.371
		c0.245,0,0.456,0.091,0.632,0.272s0.265,0.394,0.265,0.636C467.605,293.349,467.305,293.629,466.708,293.629z"/>
	<path fill="#EA5F69" stroke="#EA5F69" stroke-width="0.25" stroke-miterlimit="10" d="M481.197,289.558
		c0,1.027-0.276,1.925-0.828,2.691c-0.782,1.073-1.963,1.61-3.542,1.61c-1.564,0-2.722-0.537-3.473-1.61
		c-0.521-0.751-0.782-1.656-0.782-2.714v-7.751c0-1.027,0.268-1.917,0.805-2.668c0.767-1.073,1.947-1.61,3.542-1.61
		c1.564,0,2.722,0.537,3.473,1.61c0.537,0.767,0.805,1.664,0.805,2.691V289.558z M479.426,289.507v-7.672
		c0-0.799-0.229-1.429-0.684-1.889c-0.456-0.461-1.071-0.691-1.846-0.691c-0.79,0-1.413,0.227-1.869,0.68s-0.684,1.087-0.684,1.901
		v7.672c0,0.8,0.229,1.426,0.687,1.879s1.084,0.68,1.878,0.68c0.778,0,1.393-0.227,1.843-0.68S479.426,290.307,479.426,289.507z"/>
	<path fill="#EA5F69" stroke="#EA5F69" stroke-width="0.25" stroke-miterlimit="10" d="M494.997,281.577
		c0,0.583-0.299,0.875-0.897,0.875c-0.537,0-0.828-0.286-0.874-0.857c-0.062-0.726-0.322-1.297-0.782-1.714s-1.05-0.625-1.771-0.625
		c-0.598,0-1.158,0.177-1.679,0.531c-0.706,0.478-1.058,1.163-1.058,2.056v2.611c0.767-0.659,1.709-0.989,2.829-0.989
		c1.579,0,2.767,0.537,3.565,1.61c0.598,0.797,0.897,1.702,0.897,2.714v1.816c0,0.967-0.307,1.849-0.92,2.646
		c-0.828,1.073-2.04,1.61-3.634,1.61c-1.58,0-2.775-0.537-3.588-1.61c-0.613-0.797-0.92-1.687-0.92-2.668v-7.751
		c0-0.966,0.314-1.863,0.943-2.691c0.828-1.088,2.047-1.633,3.657-1.633c1.457,0,2.576,0.506,3.358,1.518
		C494.706,279.791,494.997,280.642,494.997,281.577z M493.456,289.541v-1.736c0.015-0.803-0.242-1.436-0.771-1.899
		c-0.529-0.463-1.2-0.694-2.013-0.694c-0.797,0-1.453,0.239-1.966,0.718c-0.514,0.479-0.771,1.119-0.771,1.922v1.69
		c0,0.803,0.257,1.432,0.773,1.887c0.516,0.456,1.174,0.684,1.975,0.684c0.8,0,1.458-0.228,1.975-0.684
		C493.175,290.973,493.44,290.344,493.456,289.541z"/>
	<path fill="#EA5F69" stroke="#EA5F69" stroke-width="0.25" stroke-miterlimit="10" d="M347.96,312.53
		c0-0.95,0.33-1.809,0.989-2.575c0.843-0.967,2.024-1.449,3.542-1.449c1.349,0,2.45,0.411,3.301,1.232s1.276,1.9,1.276,3.236
		c0,1.106-0.436,2.104-1.307,2.995c-0.52,0.537-1.444,1.221-2.774,2.05c-1.085,0.677-1.827,1.198-2.224,1.566
		c-0.688,0.631-1.032,1.283-1.032,1.959v1.336h6.833c0.244,0,0.451,0.091,0.619,0.272s0.252,0.394,0.252,0.636
		c0,0.56-0.292,0.84-0.874,0.84h-8.602v-3.06c0-1.088,0.368-2.031,1.104-2.828c0.521-0.553,1.357-1.181,2.507-1.887
		c1.288-0.782,2.162-1.38,2.622-1.794c0.736-0.659,1.104-1.334,1.104-2.023c0-0.89-0.246-1.576-0.736-2.059
		c-0.491-0.483-1.181-0.725-2.07-0.725c-0.506,0-1.027,0.169-1.564,0.506c-0.69,0.43-1.096,1.035-1.219,1.817
		c-0.092,0.552-0.391,0.827-0.897,0.827C348.243,313.404,347.96,313.113,347.96,312.53z"/>
	<path fill="#EA5F69" stroke="#EA5F69" stroke-width="0.25" stroke-miterlimit="10" d="M370.799,320.558
		c0,1.027-0.276,1.925-0.828,2.691c-0.782,1.073-1.963,1.609-3.542,1.609c-1.564,0-2.722-0.536-3.473-1.609
		c-0.521-0.751-0.782-1.656-0.782-2.714v-7.751c0-1.027,0.268-1.917,0.805-2.668c0.767-1.073,1.947-1.61,3.542-1.61
		c1.564,0,2.722,0.537,3.473,1.61c0.537,0.767,0.805,1.663,0.805,2.69V320.558z M369.028,320.507v-7.673
		c0-0.798-0.229-1.428-0.684-1.889c-0.456-0.461-1.071-0.691-1.846-0.691c-0.79,0-1.413,0.227-1.869,0.68s-0.684,1.087-0.684,1.9
		v7.673c0,0.799,0.229,1.425,0.687,1.878s1.084,0.68,1.878,0.68c0.778,0,1.393-0.227,1.843-0.68S369.028,321.306,369.028,320.507z"
		/>
	<path fill="#EA5F69" stroke="#EA5F69" stroke-width="0.25" stroke-miterlimit="10" d="M376.594,309.575
		c0-0.258,0.088-0.474,0.265-0.647s0.395-0.261,0.656-0.261h3.611v14.214h2.829c0.245,0,0.456,0.091,0.632,0.272
		s0.265,0.394,0.265,0.636c0,0.56-0.299,0.84-0.897,0.84h-7.337c-0.583,0-0.874-0.28-0.874-0.84c0-0.605,0.306-0.908,0.92-0.908
		h2.76v-12.466h-1.909C376.901,310.415,376.594,310.135,376.594,309.575z"/>
	<path fill="#EA5F69" stroke="#EA5F69" stroke-width="0.25" stroke-miterlimit="10" d="M389.175,309.609
		c0-0.628,0.291-0.942,0.874-0.942h8.97v1.472l-5.244,14.191c-0.138,0.383-0.43,0.574-0.874,0.574c-0.23,0-0.434-0.08-0.609-0.24
		c-0.177-0.16-0.265-0.355-0.265-0.584c0-0.107,0.026-0.223,0.079-0.345l4.979-13.274h-7.034
		C389.467,310.461,389.175,310.177,389.175,309.609z"/>
</g>
</svg>
