<?xml version="1.0" encoding="utf-8"?>
<!-- Generator: Adobe Illustrator 17.0.0, SVG Export Plug-In . SVG Version: 6.00 Build 0)  -->
<!DOCTYPE svg PUBLIC "-//W3C//DTD SVG 1.1//EN" "http://www.w3.org/Graphics/SVG/1.1/DTD/svg11.dtd">
<svg version="1.1" xmlns="http://www.w3.org/2000/svg" xmlns:xlink="http://www.w3.org/1999/xlink" x="0px" y="0px" width="1024px"
	 height="563px" viewBox="1099.445 0 1024 563" enable-background="new 1099.445 0 1024 563" xml:space="preserve">
<g id="Layer_2">
	<rect x="1099.445" fill="#1C3557" width="1024" height="563"/>
</g>
<g id="Layer_1">
	<g>
		<g>
			<path fill="#F9F9F9" d="M1238.219,140.546c0.736,0,1.399,0.7,1.399,1.436c0,0.7-0.663,1.362-1.399,1.362h-10.235v7.953h9.425
				c0.736,0,1.399,0.663,1.399,1.399c0,0.663-0.663,1.399-1.399,1.399h-9.388v12.039h-2.872v-25.588H1238.219z"/>
			<path fill="#F9F9F9" d="M1263.07,164.882c0.184,0.81-0.331,1.583-1.068,1.73c-0.699,0.147-1.509-0.258-1.73-1.105l-1.583-6.517
				h-8.394l-1.583,6.517c-0.221,0.92-0.92,1.252-1.657,1.105c-0.92-0.184-1.325-0.92-1.141-1.73l5.707-24.336h5.67L1263.07,164.882z
				 M1255.118,143.344h-1.252l-2.945,12.812h7.106L1255.118,143.344z"/>
			<path fill="#F9F9F9" d="M1277.023,166.134h-7.805v-25.588h7.621c5.78,0,6.701,4.418,6.701,6.701v0.405
				c0,1.289-0.442,4.234-2.724,5.228c2.504,1.178,3.129,4.271,3.129,5.596v0.884
				C1283.944,161.605,1282.766,166.134,1277.023,166.134z M1280.704,147.247c0-3.461-2.54-3.903-3.866-3.903h-4.786v8.247h5.007
				c1.583,0,3.645-0.552,3.645-4.013V147.247z M1281.109,158.513c0-3.534-2.356-4.087-3.903-4.087h-5.154v8.873h4.97
				c1.362,0,4.087-0.552,4.087-4.05V158.513z"/>
			<path fill="#F9F9F9" d="M1294.216,140.546h5.78v22.716h4.528c0.773,0,1.436,0.7,1.436,1.473c0,0.847-0.663,1.362-1.436,1.362
				h-11.745c-0.847,0-1.399-0.515-1.399-1.362c0-0.773,0.552-1.473,1.473-1.473h4.418v-19.881h-3.056
				c-0.884,0-1.473-0.552-1.473-1.362C1292.743,141.245,1293.332,140.546,1294.216,140.546z"/>
			<path fill="#F9F9F9" d="M1314.98,140.509h12.407v2.504l-5.265,7.916c5.044,0.81,5.891,4.749,5.891,6.627v1.878
				c0,2.356-1.436,7.069-7.179,7.069c-5.854,0-7.363-4.529-7.363-7.069c0-0.736,0.552-1.436,1.399-1.436
				c0.736,0,1.436,0.7,1.436,1.436c0,3.608,3.019,4.234,4.381,4.234s4.492-0.7,4.492-4.234v-1.804c0-3.461-3.166-4.05-4.492-4.05
				h-1.951v-2.356l5.191-7.842h-8.947c-0.81,0-1.399-0.663-1.399-1.399C1313.581,141.209,1314.17,140.509,1314.98,140.509z"/>
			<path fill="#F9F9F9" d="M1238.219,179.631c0.736,0,1.399,0.7,1.399,1.436c0,0.7-0.663,1.362-1.399,1.362h-10.235v7.952h9.425
				c0.736,0,1.399,0.663,1.399,1.399c0,0.663-0.663,1.399-1.399,1.399h-9.388v12.039h-2.872v-25.588H1238.219z"/>
			<path fill="#F9F9F9" d="M1263.07,203.967c0.184,0.81-0.331,1.583-1.068,1.73c-0.699,0.147-1.509-0.258-1.73-1.105l-1.583-6.517
				h-8.394l-1.583,6.517c-0.221,0.92-0.92,1.252-1.657,1.105c-0.92-0.184-1.325-0.92-1.141-1.73l5.707-24.336h5.67L1263.07,203.967z
				 M1255.118,182.429h-1.252l-2.945,12.812h7.106L1255.118,182.429z"/>
			<path fill="#F9F9F9" d="M1277.023,205.219h-7.805v-25.588h7.621c5.78,0,6.701,4.418,6.701,6.701v0.405
				c0,1.289-0.442,4.234-2.724,5.228c2.504,1.178,3.129,4.271,3.129,5.596v0.884
				C1283.944,200.691,1282.766,205.219,1277.023,205.219z M1280.704,186.332c0-3.461-2.54-3.903-3.866-3.903h-4.786v8.247h5.007
				c1.583,0,3.645-0.552,3.645-4.013V186.332z M1281.109,197.598c0-3.534-2.356-4.087-3.903-4.087h-5.154v8.873h4.97
				c1.362,0,4.087-0.552,4.087-4.05V197.598z"/>
			<path fill="#F9F9F9" d="M1298.339,194.505h-4.087v9.904c0,0.773-0.699,1.473-1.436,1.473c-0.773,0-1.436-0.7-1.436-1.473v-24.778
				h7.621c5.78,0,6.922,4.529,6.922,6.774v1.215c0,1.951-0.957,5.302-4.602,6.59l4.197,9.683c0.331,0.81-0.147,1.583-0.736,1.841
				c-0.626,0.258-1.546,0-1.878-0.773L1298.339,194.505z M1303.052,186.516c0-3.461-2.688-4.087-4.05-4.087h-4.786v9.278h4.86
				c1.399,0,3.976-0.589,3.976-4.124V186.516z"/>
			<path fill="#F9F9F9" d="M1315.606,179.631h10.235c0.736,0,1.399,0.7,1.399,1.473c0,0.81-0.663,1.362-1.399,1.362h-3.755v19.918
				h3.755c0.736,0,1.399,0.7,1.399,1.473c0,0.81-0.663,1.362-1.399,1.362h-10.235c-0.81,0-1.362-0.552-1.362-1.362
				c0-0.773,0.552-1.473,1.362-1.473h3.755v-19.918h-3.755c-0.81,0-1.362-0.552-1.362-1.362
				C1314.244,180.331,1314.796,179.631,1315.606,179.631z"/>
			<path fill="#F9F9F9" d="M1348.631,197.156c0.773,0,1.436,0.7,1.436,1.436c0,2.393-1.51,6.958-7.327,6.958
				c-5.707,0-7.143-4.565-7.143-6.922v-12.407c0-2.209,1.473-6.848,7.29-6.848c5.559,0,7.143,4.344,7.143,6.811
				c0,0.81-0.663,1.362-1.399,1.362c-0.773,0-1.362-0.552-1.362-1.362c-0.037-3.424-3.056-4.013-4.381-4.013
				c-1.362,0-4.455,0.589-4.455,4.124v12.334c0,3.534,3.093,4.087,4.455,4.087c1.362,0,4.381-0.589,4.381-4.124
				C1347.268,197.856,1347.857,197.156,1348.631,197.156z"/>
			<path fill="#F9F9F9" d="M1373.518,203.967c0.184,0.81-0.331,1.583-1.068,1.73c-0.7,0.147-1.51-0.258-1.73-1.105l-1.583-6.517
				h-8.394l-1.583,6.517c-0.221,0.92-0.92,1.252-1.657,1.105c-0.92-0.184-1.325-0.92-1.141-1.73l5.707-24.336h5.67L1373.518,203.967
				z M1365.566,182.429h-1.252l-2.945,12.812h7.106L1365.566,182.429z"/>
			<path fill="#F9F9F9" d="M1385.667,182.503h-5.486c-0.736,0-1.436-0.663-1.436-1.399c0-0.773,0.7-1.473,1.436-1.473h13.696
				c0.736,0,1.436,0.7,1.436,1.473c0,0.736-0.699,1.399-1.436,1.399h-5.449v21.906c0,0.847-0.589,1.436-1.399,1.436
				c-0.847,0-1.362-0.589-1.362-1.436V182.503z"/>
			<path fill="#F9F9F9" d="M1403.965,179.631h10.235c0.736,0,1.399,0.7,1.399,1.473c0,0.81-0.663,1.362-1.399,1.362h-3.755v19.918
				h3.755c0.736,0,1.399,0.7,1.399,1.473c0,0.81-0.663,1.362-1.399,1.362h-10.235c-0.81,0-1.362-0.552-1.362-1.362
				c0-0.773,0.552-1.473,1.362-1.473h3.755v-19.918h-3.755c-0.81,0-1.362-0.552-1.362-1.362
				C1402.603,180.331,1403.155,179.631,1403.965,179.631z"/>
			<path fill="#F9F9F9" d="M1436.805,179.042c0.773,0,1.436,0.589,1.436,1.436v24.778h-4.381l-6.811-20.691v19.881
				c0,0.773-0.663,1.473-1.436,1.473c-0.773,0-1.436-0.7-1.436-1.473v-24.815h4.234l6.958,21.096v-20.249
				C1435.369,179.631,1436.032,179.042,1436.805,179.042z"/>
			<path fill="#F9F9F9" d="M1453.298,182.172c-1.362,0-4.455,0.589-4.455,4.124v12.334c0,3.534,3.093,4.087,4.455,4.087
				c1.362,0,4.418-0.589,4.418-4.087v-4.749h-4.492c-0.736,0-1.362-0.663-1.362-1.436c0-0.736,0.626-1.362,1.362-1.362h7.327v7.584
				c0,2.319-1.583,6.885-7.4,6.885c-5.707,0-7.143-4.565-7.143-6.922v-12.407c0-2.209,1.473-6.848,7.29-6.848
				c5.707,0,7.143,4.602,7.143,6.885c0,0.736-0.663,1.399-1.399,1.399c-0.773,0-1.362-0.663-1.362-1.399
				C1457.679,182.761,1454.661,182.172,1453.298,182.172z"/>
			<path fill="#F9F9F9" d="M1232.218,221.257c-2.025,0-4.234,0.994-4.234,3.35c0,1.694,0.92,2.614,2.209,3.387l5.964,3.534
				c2.43,1.436,3.755,3.682,3.755,6.59c0,4.087-3.24,6.664-7.658,6.664c-4.529,0-7.363-3.093-7.363-6.922
				c0-0.736,0.589-1.399,1.399-1.399c0.736,0,1.399,0.663,1.399,1.399c0,2.651,1.988,4.013,4.528,4.013
				c2.909,0,4.86-1.325,4.86-3.719c0-1.988-0.957-3.314-2.54-4.271l-6.001-3.534c-2.025-1.215-3.387-3.277-3.387-5.817
				c0-3.608,2.835-6.185,7.069-6.185c4.381,0,7.327,2.614,7.327,6.553c0,0.736-0.7,1.399-1.399,1.399
				c-0.736,0-1.436-0.552-1.436-1.399C1236.709,222.656,1234.758,221.257,1232.218,221.257z"/>
			<path fill="#F9F9F9" d="M1254.344,244.636c-5.707,0-7.142-4.565-7.142-6.922v-12.407c0-2.209,1.473-6.848,7.29-6.848
				c5.707,0,7.253,4.639,7.253,6.885v12.407C1261.745,240.071,1260.161,244.636,1254.344,244.636z M1258.91,225.381
				c0-3.498-3.056-4.124-4.418-4.124c-1.362,0-4.455,0.589-4.455,4.124v12.334c0,3.534,3.093,4.087,4.455,4.087
				c1.362,0,4.381-0.589,4.381-4.087L1258.91,225.381z"/>
			<path fill="#F9F9F9" d="M1282.361,236.242c0.773,0,1.436,0.7,1.436,1.436c0,2.393-1.51,6.958-7.327,6.958
				c-5.707,0-7.142-4.565-7.142-6.922v-12.407c0-2.209,1.473-6.848,7.29-6.848c5.559,0,7.142,4.344,7.142,6.811
				c0,0.81-0.663,1.362-1.399,1.362c-0.773,0-1.362-0.552-1.362-1.362c-0.037-3.424-3.056-4.013-4.381-4.013
				c-1.362,0-4.455,0.589-4.455,4.124v12.334c0,3.534,3.093,4.087,4.455,4.087c1.362,0,4.381-0.589,4.381-4.124
				C1280.999,236.941,1281.588,236.242,1282.361,236.242z"/>
			<path fill="#F9F9F9" d="M1293.516,218.717h10.235c0.736,0,1.399,0.7,1.399,1.473c0,0.81-0.663,1.362-1.399,1.362h-3.755v19.918
				h3.755c0.736,0,1.399,0.7,1.399,1.473c0,0.81-0.663,1.362-1.399,1.362h-10.235c-0.81,0-1.362-0.552-1.362-1.362
				c0-0.773,0.552-1.473,1.362-1.473h3.755v-19.918h-3.755c-0.81,0-1.362-0.552-1.362-1.362
				C1292.154,219.416,1292.706,218.717,1293.516,218.717z"/>
			<path fill="#F9F9F9" d="M1316.379,241.506h10.198c0.736,0,1.399,0.7,1.399,1.436s-0.663,1.362-1.399,1.362h-13.07v-25.588h13.07
				c0.736,0,1.399,0.7,1.399,1.436c0,0.7-0.663,1.362-1.399,1.362h-10.235v7.879h9.425c0.736,0,1.399,0.663,1.399,1.399
				c0,0.663-0.663,1.399-1.399,1.399h-9.388V241.506z"/>
			<path fill="#F9F9F9" d="M1341.488,221.588h-5.486c-0.736,0-1.436-0.663-1.436-1.399c0-0.773,0.7-1.473,1.436-1.473h13.696
				c0.736,0,1.436,0.7,1.436,1.473c0,0.736-0.699,1.399-1.436,1.399h-5.449v21.906c0,0.847-0.589,1.436-1.399,1.436
				c-0.847,0-1.362-0.589-1.362-1.436V221.588z"/>
			<path fill="#F9F9F9" d="M1363.541,235.063l-6.075-14.727c-0.295-0.736,0.037-1.62,0.736-1.914c0.773-0.331,1.62,0,1.951,0.81
				l4.786,11.892l4.713-11.892c0.295-0.773,1.252-1.105,1.914-0.81c0.81,0.368,1.105,1.105,0.773,1.914l-6.038,14.727v8.431
				c0,0.847-0.589,1.436-1.399,1.436c-0.847,0-1.362-0.589-1.362-1.436V235.063z"/>
		</g>
		<path fill="#DBE5D8" d="M1187.822,156.664c-2.246,0-4.05-1.878-4.05-4.087c0-2.209,1.804-4.087,4.05-4.087
			c2.209,0,4.087,1.878,4.087,4.087C1191.908,154.787,1190.031,156.664,1187.822,156.664z"/>
		<g>
			<path fill="#467C9D" d="M1232.218,277.052c-2.025,0-4.234,0.994-4.234,3.35c0,1.694,0.92,2.614,2.209,3.387l5.964,3.534
				c2.43,1.436,3.755,3.682,3.755,6.59c0,4.087-3.24,6.664-7.658,6.664c-4.529,0-7.363-3.093-7.363-6.922
				c0-0.736,0.589-1.399,1.399-1.399c0.736,0,1.399,0.663,1.399,1.399c0,2.651,1.988,4.013,4.528,4.013
				c2.909,0,4.86-1.325,4.86-3.719c0-1.988-0.957-3.314-2.54-4.271l-6.001-3.534c-2.025-1.215-3.387-3.277-3.387-5.817
				c0-3.608,2.835-6.185,7.069-6.185c4.381,0,7.327,2.614,7.327,6.553c0,0.736-0.7,1.399-1.399,1.399
				c-0.736,0-1.436-0.552-1.436-1.399C1236.709,278.451,1234.758,277.052,1232.218,277.052z"/>
			<path fill="#467C9D" d="M1263.07,298.847c0.184,0.81-0.331,1.583-1.068,1.73c-0.699,0.147-1.509-0.258-1.73-1.105l-1.583-6.517
				h-8.394l-1.583,6.517c-0.221,0.92-0.92,1.252-1.657,1.105c-0.92-0.184-1.325-0.92-1.141-1.73l5.707-24.336h5.67L1263.07,298.847z
				 M1255.118,277.309h-1.252l-2.945,12.812h7.106L1255.118,277.309z"/>
			<path fill="#467C9D" d="M1282.177,273.922c0.773,0,1.436,0.589,1.436,1.436v24.778h-4.381l-6.811-20.691v19.881
				c0,0.773-0.663,1.473-1.436,1.473s-1.436-0.7-1.436-1.473v-24.815h4.234l6.958,21.096v-20.249
				C1280.741,274.511,1281.404,273.922,1282.177,273.922z"/>
			<path fill="#467C9D" d="M1297.308,277.383h-5.486c-0.736,0-1.436-0.663-1.436-1.399c0-0.773,0.7-1.473,1.436-1.473h13.696
				c0.736,0,1.436,0.7,1.436,1.473c0,0.736-0.699,1.399-1.436,1.399h-5.449v21.906c0,0.847-0.589,1.436-1.399,1.436
				c-0.847,0-1.362-0.589-1.362-1.436V277.383z"/>
			<path fill="#467C9D" d="M1315.606,274.511h10.235c0.736,0,1.399,0.7,1.399,1.473c0,0.81-0.663,1.362-1.399,1.362h-3.755v19.918
				h3.755c0.736,0,1.399,0.7,1.399,1.473c0,0.81-0.663,1.362-1.399,1.362h-10.235c-0.81,0-1.362-0.552-1.362-1.362
				c0-0.773,0.552-1.473,1.362-1.473h3.755v-19.918h-3.755c-0.81,0-1.362-0.552-1.362-1.362
				C1314.244,275.211,1314.796,274.511,1315.606,274.511z"/>
			<path fill="#467C9D" d="M1351.429,298.847c0.184,0.81-0.331,1.583-1.068,1.73c-0.699,0.147-1.509-0.258-1.73-1.105l-1.583-6.517
				h-8.394l-1.583,6.517c-0.221,0.92-0.921,1.252-1.657,1.105c-0.92-0.184-1.325-0.92-1.141-1.73l5.707-24.336h5.67
				L1351.429,298.847z M1343.476,277.309h-1.252l-2.945,12.812h7.106L1343.476,277.309z"/>
			<path fill="#467C9D" d="M1364.94,277.052c-1.362,0-4.455,0.589-4.455,4.124v12.334c0,3.534,3.093,4.087,4.455,4.087
				c1.362,0,4.418-0.589,4.418-4.087v-4.749h-4.492c-0.736,0-1.362-0.663-1.362-1.436c0-0.736,0.626-1.362,1.362-1.362h7.327v7.584
				c0,2.319-1.583,6.885-7.4,6.885c-5.707,0-7.143-4.565-7.143-6.922v-12.407c0-2.209,1.473-6.848,7.29-6.848
				c5.707,0,7.143,4.602,7.143,6.885c0,0.736-0.663,1.399-1.399,1.399c-0.773,0-1.362-0.663-1.362-1.399
				C1369.321,277.641,1366.302,277.052,1364.94,277.052z"/>
			<path fill="#467C9D" d="M1386.882,300.431c-5.707,0-7.142-4.565-7.142-6.922v-12.407c0-2.209,1.473-6.848,7.29-6.848
				c5.707,0,7.253,4.639,7.253,6.885v12.407C1394.282,295.865,1392.699,300.431,1386.882,300.431z M1391.447,281.175
				c0-3.498-3.056-4.124-4.418-4.124c-1.362,0-4.455,0.589-4.455,4.124v12.334c0,3.534,3.093,4.087,4.455,4.087
				c1.362,0,4.381-0.589,4.381-4.087L1391.447,281.175z"/>
			<path fill="#467C9D" d="M1238.182,331.122c0.773,0,1.436,0.7,1.436,1.436c0,2.393-1.51,6.958-7.327,6.958
				c-5.707,0-7.142-4.565-7.142-6.922v-12.407c0-2.209,1.473-6.848,7.29-6.848c5.559,0,7.142,4.344,7.142,6.811
				c0,0.81-0.663,1.362-1.399,1.362c-0.773,0-1.362-0.552-1.362-1.362c-0.037-3.424-3.056-4.013-4.381-4.013
				c-1.362,0-4.455,0.589-4.455,4.124v12.334c0,3.534,3.093,4.087,4.455,4.087c1.362,0,4.381-0.589,4.381-4.124
				C1236.82,331.821,1237.409,331.122,1238.182,331.122z"/>
			<path fill="#467C9D" d="M1247.018,314.443c0-0.847,0.515-1.436,1.362-1.436c0.81,0,1.436,0.589,1.436,1.436v9.904h9.352v-9.904
				c0-0.847,0.552-1.436,1.399-1.436c0.81,0,1.399,0.589,1.399,1.436v23.931c0,0.847-0.589,1.436-1.399,1.436
				c-0.847,0-1.399-0.589-1.399-1.436v-11.229h-9.352v11.229c0,0.847-0.626,1.436-1.436,1.436c-0.847,0-1.362-0.589-1.362-1.436
				V314.443z"/>
			<path fill="#467C9D" d="M1271.427,313.597h10.235c0.736,0,1.399,0.7,1.399,1.473c0,0.81-0.663,1.362-1.399,1.362h-3.755v19.918
				h3.755c0.736,0,1.399,0.7,1.399,1.473c0,0.81-0.663,1.362-1.399,1.362h-10.235c-0.81,0-1.362-0.552-1.362-1.362
				c0-0.773,0.552-1.473,1.362-1.473h3.755v-19.918h-3.755c-0.81,0-1.362-0.552-1.362-1.362
				C1270.064,314.296,1270.617,313.597,1271.427,313.597z"/>
			<path fill="#467C9D" d="M1291.418,339.148v-24.704c0-0.847,0.552-1.436,1.399-1.436c0.736,0,1.436,0.589,1.436,1.436v21.869
				h10.198c0.773,0,1.436,0.7,1.436,1.473c0,0.847-0.663,1.362-1.436,1.362H1291.418z"/>
			<path fill="#467C9D" d="M1316.379,336.386h10.198c0.736,0,1.399,0.7,1.399,1.436c0,0.736-0.663,1.362-1.399,1.362h-13.07v-25.588
				h13.07c0.736,0,1.399,0.7,1.399,1.436c0,0.7-0.663,1.362-1.399,1.362h-10.235v7.879h9.425c0.736,0,1.399,0.663,1.399,1.399
				c0,0.663-0.663,1.399-1.399,1.399h-9.388V336.386z"/>
		</g>
		<path fill="#467C9D" d="M1190.611,282.118l-7.916-7.989c-0.331-0.368-0.331-1.031,0-1.362c0.405-0.405,0.994-0.331,1.325,0.037
			l9.352,9.315l-9.462,9.425c-0.331,0.368-0.921,0.442-1.325,0.037c-0.368-0.331-0.368-0.994,0-1.362L1190.611,282.118z"/>
		<path fill="#EA5F69" d="M1178.01,372.704h19.624c0.479,0,0.773,0.295,0.773,0.773c0,0.479-0.295,0.773-0.773,0.773h-19.624
			c-0.479,0-0.736-0.295-0.736-0.773C1177.274,372.998,1177.531,372.704,1178.01,372.704z"/>
		<g>
			<path fill="#EA5F69" d="M1226.401,361.929h12.407v2.504l-5.265,7.916c5.044,0.81,5.891,4.749,5.891,6.627v1.878
				c0,2.356-1.436,7.069-7.179,7.069c-5.854,0-7.363-4.529-7.363-7.069c0-0.736,0.552-1.436,1.399-1.436
				c0.736,0,1.436,0.7,1.436,1.436c0,3.608,3.019,4.234,4.381,4.234c1.362,0,4.492-0.7,4.492-4.234v-1.804
				c0-3.461-3.166-4.05-4.492-4.05h-1.951v-2.356l5.191-7.842h-8.947c-0.81,0-1.399-0.663-1.399-1.399
				C1225.002,362.628,1225.591,361.929,1226.401,361.929z"/>
			<path fill="#EA5F69" d="M1249.816,361.965h5.78v22.716h4.529c0.773,0,1.436,0.7,1.436,1.473c0,0.847-0.663,1.362-1.436,1.362
				h-11.745c-0.847,0-1.399-0.515-1.399-1.362c0-0.773,0.552-1.473,1.473-1.473h4.418V364.8h-3.056
				c-0.884,0-1.473-0.552-1.473-1.362C1248.343,362.665,1248.932,361.965,1249.816,361.965z"/>
			<path fill="#EA5F69" d="M1293.259,379.564c0.81,0,1.436,0.626,1.436,1.436c0,3.387,2.246,4.05,3.755,4.05
				c1.583,0,3.792-0.663,3.792-3.792V364.8h-6.922c-0.81,0-1.362-0.552-1.362-1.362c0-0.773,0.552-1.473,1.362-1.473h9.683v19.071
				c0,4.308-2.43,6.848-6.59,6.848c-4.087,0-6.517-2.614-6.517-6.885C1291.896,380.19,1292.449,379.564,1293.259,379.564z"/>
			<path fill="#EA5F69" d="M1326.357,361.376c0.773,0,1.436,0.589,1.436,1.436V381c0,2.319-1.583,6.885-7.4,6.885
				c-5.707,0-7.142-4.565-7.142-6.922v-18.151c0-0.847,0.552-1.436,1.399-1.436c0.736,0,1.436,0.589,1.436,1.436v18.151
				c0,3.534,3.093,4.087,4.455,4.087c1.362,0,4.418-0.589,4.418-4.087v-18.151C1324.958,361.965,1325.547,361.376,1326.357,361.376z
				"/>
			<path fill="#EA5F69" d="M1335.376,387.517v-24.704c0-0.847,0.552-1.436,1.399-1.436c0.736,0,1.436,0.589,1.436,1.436v21.869
				h10.198c0.773,0,1.436,0.7,1.436,1.473c0,0.847-0.663,1.362-1.436,1.362H1335.376z"/>
			<path fill="#EA5F69" d="M1363.32,378.312l-6.075-14.727c-0.295-0.736,0.037-1.62,0.736-1.914c0.773-0.331,1.62,0,1.951,0.81
				l4.786,11.892l4.713-11.892c0.295-0.773,1.252-1.105,1.915-0.81c0.81,0.368,1.104,1.104,0.773,1.914l-6.038,14.727v8.431
				c0,0.847-0.589,1.436-1.399,1.436c-0.847,0-1.362-0.589-1.362-1.436V378.312z"/>
			<path fill="#EA5F69" d="M1232.071,426.97c-5.707,0-6.811-4.529-6.811-6.922v-12.407c0-2.246,1.141-6.848,6.958-6.848
				c5.707,0,6.848,4.565,6.848,6.885v12.407C1239.066,422.442,1237.888,426.97,1232.071,426.97z M1236.305,407.752
				c0-3.498-2.724-4.124-4.087-4.124c-1.362,0-4.124,0.626-4.124,4.124v12.26c0,3.534,2.761,4.087,4.124,4.087
				c1.362,0,4.05-0.552,4.05-4.087L1236.305,407.752z"/>
			<path fill="#EA5F69" d="M1307.028,425.387c0.184,0.81-0.331,1.583-1.068,1.73c-0.7,0.147-1.51-0.258-1.73-1.104l-1.583-6.517
				h-8.394l-1.583,6.517c-0.221,0.92-0.92,1.252-1.657,1.104c-0.92-0.184-1.325-0.92-1.141-1.73l5.707-24.336h5.67L1307.028,425.387
				z M1299.076,403.849h-1.252l-2.945,12.812h7.106L1299.076,403.849z"/>
			<path fill="#EA5F69" d="M1326.357,400.462c0.773,0,1.436,0.589,1.436,1.436v18.188c0,2.319-1.583,6.885-7.4,6.885
				c-5.707,0-7.142-4.565-7.142-6.922v-18.151c0-0.847,0.552-1.436,1.399-1.436c0.736,0,1.436,0.589,1.436,1.436v18.151
				c0,3.534,3.093,4.087,4.455,4.087c1.362,0,4.418-0.589,4.418-4.087v-18.151C1324.958,401.051,1325.547,400.462,1326.357,400.462z
				"/>
			<path fill="#EA5F69" d="M1342.629,404.591c-1.362,0-4.455,0.589-4.455,4.124v12.334c0,3.534,3.093,4.087,4.455,4.087
				c1.362,0,4.418-0.589,4.418-4.087v-4.749h-4.492c-0.736,0-1.362-0.663-1.362-1.436c0-0.736,0.626-1.362,1.362-1.362h7.327v7.584
				c0,2.319-1.583,6.885-7.4,6.885c-5.707,0-7.143-4.565-7.143-6.922v-12.407c0-2.209,1.473-6.848,7.29-6.848
				c5.707,0,7.143,4.602,7.143,6.885c0,0.736-0.663,1.399-1.399,1.399c-0.773,0-1.362-0.663-1.362-1.399
				C1347.011,405.18,1343.992,404.591,1342.629,404.591z"/>
			<path fill="#EA5F69" d="M1370.536,400.462c0.773,0,1.436,0.589,1.436,1.436v18.188c0,2.319-1.583,6.885-7.4,6.885
				c-5.707,0-7.142-4.565-7.142-6.922v-18.151c0-0.847,0.552-1.436,1.399-1.436c0.736,0,1.436,0.589,1.436,1.436v18.151
				c0,3.534,3.093,4.087,4.455,4.087c1.362,0,4.418-0.589,4.418-4.087v-18.151C1369.137,401.051,1369.726,400.462,1370.536,400.462z
				"/>
			<path fill="#EA5F69" d="M1386.624,403.591c-2.025,0-4.234,0.994-4.234,3.35c0,1.694,0.921,2.614,2.209,3.387l5.964,3.534
				c2.43,1.436,3.755,3.682,3.755,6.59c0,4.087-3.24,6.664-7.658,6.664c-4.529,0-7.364-3.093-7.364-6.922
				c0-0.736,0.589-1.399,1.399-1.399c0.736,0,1.399,0.663,1.399,1.399c0,2.651,1.988,4.013,4.528,4.013
				c2.909,0,4.86-1.325,4.86-3.719c0-1.988-0.957-3.314-2.54-4.271l-6.001-3.534c-2.025-1.215-3.387-3.277-3.387-5.817
				c0-3.608,2.835-6.185,7.069-6.185c4.381,0,7.327,2.614,7.327,6.553c0,0.736-0.7,1.399-1.399,1.399
				c-0.736,0-1.436-0.552-1.436-1.399C1391.116,404.99,1389.165,403.591,1386.624,403.591z"/>
			<path fill="#EA5F69" d="M1407.536,403.923h-5.486c-0.736,0-1.436-0.663-1.436-1.399c0-0.773,0.7-1.473,1.436-1.473h13.696
				c0.736,0,1.436,0.7,1.436,1.473c0,0.736-0.7,1.399-1.436,1.399h-5.449v21.906c0,0.847-0.589,1.436-1.399,1.436
				c-0.847,0-1.362-0.589-1.362-1.436V403.923z"/>
			<g>
				<path fill="#EA5F69" d="M1260.927,407.348c0,0.928-0.476,1.391-1.428,1.391c-0.855,0-1.319-0.455-1.392-1.365
					c-0.098-1.156-0.513-2.066-1.245-2.73c-0.732-0.664-1.672-0.996-2.82-0.996c-0.952,0-1.844,0.283-2.674,0.847
					c-1.123,0.76-1.685,1.851-1.685,3.273v4.158c1.22-1.05,2.723-1.575,4.505-1.575c2.514,0,4.406,0.855,5.677,2.564
					c0.952,1.27,1.428,2.71,1.428,4.322v2.893c0,1.539-0.489,2.943-1.465,4.212c-1.318,1.71-3.248,2.564-5.786,2.564
					c-2.515,0-4.42-0.854-5.714-2.564c-0.977-1.269-1.465-2.685-1.465-4.248V407.75c0-1.539,0.5-2.967,1.501-4.286
					c1.318-1.733,3.26-2.6,5.824-2.6c2.319,0,4.102,0.806,5.347,2.417C1260.464,404.504,1260.927,405.858,1260.927,407.348z
					 M1258.473,420.029v-2.766c0.024-1.278-0.385-2.286-1.227-3.023c-0.843-0.738-1.911-1.107-3.205-1.107
					c-1.27,0-2.314,0.381-3.132,1.144c-0.818,0.762-1.227,1.782-1.227,3.06v2.692c0,1.278,0.411,2.281,1.232,3.005
					c0.821,0.725,1.87,1.087,3.145,1.087c1.276,0,2.323-0.362,3.145-1.087C1258.026,422.31,1258.449,421.308,1258.473,420.029z"/>
			</g>
		</g>
	</g>
</g>
</svg>
