<?xml version="1.0" encoding="utf-8"?>
<!-- Generator: Adobe Illustrator 17.0.0, SVG Export Plug-In . SVG Version: 6.00 Build 0)  -->
<!DOCTYPE svg PUBLIC "-//W3C//DTD SVG 1.1//EN" "http://www.w3.org/Graphics/SVG/1.1/DTD/svg11.dtd">
<svg version="1.1" xmlns="http://www.w3.org/2000/svg" xmlns:xlink="http://www.w3.org/1999/xlink" x="0px" y="0px" width="1024px"
	 height="563px" viewBox="1099.445 0 1024 563" enable-background="new 1099.445 0 1024 563" xml:space="preserve">
<g id="Layer_2">
</g>
<g id="Layer_1">
	<rect x="1099.445" fill="#1C3557" width="1024" height="563"/>
	<g>
		<g>
			<path fill="#F9F9F9" d="M1542.787,161.793c0.626,0,1.19,0.595,1.19,1.222c0,0.595-0.564,1.159-1.19,1.159h-8.709v6.766h8.019
				c0.626,0,1.19,0.564,1.19,1.19c0,0.564-0.564,1.19-1.19,1.19h-7.988v10.244h-2.443v-21.772H1542.787z"/>
			<path fill="#F9F9F9" d="M1563.931,182.5c0.157,0.689-0.282,1.347-0.908,1.472c-0.595,0.125-1.284-0.219-1.472-0.94l-1.347-5.545
				h-7.142l-1.347,5.545c-0.188,0.783-0.783,1.065-1.41,0.94c-0.783-0.157-1.128-0.783-0.971-1.472l4.856-20.706h4.824
				L1563.931,182.5z M1557.165,164.174h-1.065l-2.506,10.901h6.046L1557.165,164.174z"/>
			<path fill="#F9F9F9" d="M1575.803,183.565h-6.641v-21.772h6.484c4.918,0,5.701,3.759,5.701,5.701v0.345
				c0,1.096-0.376,3.602-2.318,4.448c2.13,1.002,2.663,3.634,2.663,4.762v0.752C1581.692,179.712,1580.69,183.565,1575.803,183.565z
				 M1578.936,167.494c0-2.945-2.161-3.321-3.289-3.321h-4.072v7.017h4.26c1.347,0,3.101-0.47,3.101-3.415V167.494z M1579.28,177.08
				c0-3.007-2.005-3.477-3.321-3.477h-4.386v7.55h4.229c1.159,0,3.477-0.47,3.477-3.446V177.08z"/>
			<path fill="#F9F9F9" d="M1590.432,161.793h4.918v19.328h3.853c0.658,0,1.222,0.595,1.222,1.253c0,0.721-0.564,1.159-1.222,1.159
				h-9.993c-0.721,0-1.19-0.439-1.19-1.159c0-0.658,0.47-1.253,1.253-1.253h3.759v-16.916h-2.6c-0.752,0-1.253-0.47-1.253-1.159
				C1589.179,162.388,1589.68,161.793,1590.432,161.793z"/>
			<path fill="#F9F9F9" d="M1608.099,161.762h10.557v2.13l-4.48,6.735c4.292,0.689,5.012,4.041,5.012,5.639v1.598
				c0,2.005-1.222,6.015-6.109,6.015c-4.981,0-6.265-3.853-6.265-6.015c0-0.627,0.47-1.222,1.19-1.222
				c0.626,0,1.222,0.595,1.222,1.222c0,3.07,2.569,3.602,3.728,3.602s3.822-0.595,3.822-3.602v-1.535
				c0-2.945-2.694-3.446-3.822-3.446h-1.66v-2.005l4.417-6.672h-7.612c-0.689,0-1.19-0.564-1.19-1.19
				C1606.909,162.357,1607.41,161.762,1608.099,161.762z"/>
			<path fill="#F9F9F9" d="M1542.787,195.049c0.626,0,1.19,0.595,1.19,1.222c0,0.595-0.564,1.159-1.19,1.159h-8.709v6.766h8.019
				c0.626,0,1.19,0.564,1.19,1.19c0,0.564-0.564,1.19-1.19,1.19h-7.988v10.244h-2.443v-21.772H1542.787z"/>
			<path fill="#F9F9F9" d="M1563.931,215.756c0.157,0.689-0.282,1.347-0.908,1.472c-0.595,0.125-1.284-0.219-1.472-0.94
				l-1.347-5.545h-7.142l-1.347,5.545c-0.188,0.783-0.783,1.065-1.41,0.94c-0.783-0.157-1.128-0.783-0.971-1.472l4.856-20.706h4.824
				L1563.931,215.756z M1557.165,197.43h-1.065l-2.506,10.901h6.046L1557.165,197.43z"/>
			<path fill="#F9F9F9" d="M1575.803,216.821h-6.641v-21.772h6.484c4.918,0,5.701,3.759,5.701,5.701v0.345
				c0,1.096-0.376,3.602-2.318,4.448c2.13,1.002,2.663,3.634,2.663,4.762v0.752C1581.692,212.968,1580.69,216.821,1575.803,216.821z
				 M1578.936,200.75c0-2.945-2.161-3.321-3.289-3.321h-4.072v7.017h4.26c1.347,0,3.101-0.47,3.101-3.415V200.75z M1579.28,210.336
				c0-3.007-2.005-3.477-3.321-3.477h-4.386v7.55h4.229c1.159,0,3.477-0.47,3.477-3.446V210.336z"/>
			<path fill="#F9F9F9" d="M1593.94,207.705h-3.477v8.427c0,0.658-0.595,1.253-1.222,1.253c-0.658,0-1.222-0.595-1.222-1.253
				v-21.082h6.484c4.918,0,5.889,3.853,5.889,5.764v1.034c0,1.66-0.814,4.511-3.916,5.607l3.571,8.239
				c0.282,0.689-0.125,1.347-0.626,1.566c-0.533,0.219-1.316,0-1.598-0.658L1593.94,207.705z M1597.95,200.907
				c0-2.945-2.287-3.477-3.446-3.477h-4.072v7.894h4.135c1.19,0,3.383-0.501,3.383-3.509V200.907z"/>
			<path fill="#F9F9F9" d="M1608.632,195.049h8.709c0.627,0,1.19,0.595,1.19,1.253c0,0.689-0.564,1.159-1.19,1.159h-3.195v16.947
				h3.195c0.627,0,1.19,0.595,1.19,1.253c0,0.689-0.564,1.159-1.19,1.159h-8.709c-0.689,0-1.159-0.47-1.159-1.159
				c0-0.658,0.47-1.253,1.159-1.253h3.195v-16.947h-3.195c-0.689,0-1.159-0.47-1.159-1.159
				C1607.473,195.644,1607.943,195.049,1608.632,195.049z"/>
			<path fill="#F9F9F9" d="M1636.731,209.96c0.658,0,1.222,0.595,1.222,1.222c0,2.036-1.284,5.921-6.234,5.921
				c-4.856,0-6.077-3.884-6.077-5.889v-10.557c0-1.88,1.253-5.827,6.203-5.827c4.73,0,6.077,3.696,6.077,5.795
				c0,0.689-0.564,1.159-1.19,1.159c-0.658,0-1.159-0.47-1.159-1.159c-0.031-2.913-2.6-3.415-3.728-3.415
				c-1.159,0-3.79,0.501-3.79,3.509v10.494c0,3.007,2.631,3.477,3.79,3.477s3.728-0.501,3.728-3.509
				C1635.572,210.555,1636.073,209.96,1636.731,209.96z"/>
			<path fill="#F9F9F9" d="M1657.907,215.756c0.157,0.689-0.282,1.347-0.908,1.472c-0.595,0.125-1.284-0.219-1.472-0.94
				l-1.347-5.545h-7.142l-1.347,5.545c-0.188,0.783-0.783,1.065-1.41,0.94c-0.783-0.157-1.128-0.783-0.971-1.472l4.855-20.706h4.824
				L1657.907,215.756z M1651.14,197.43h-1.065l-2.506,10.901h6.046L1651.14,197.43z"/>
			<path fill="#F9F9F9" d="M1668.244,197.493h-4.667c-0.627,0-1.222-0.564-1.222-1.19c0-0.658,0.595-1.253,1.222-1.253h11.653
				c0.627,0,1.222,0.595,1.222,1.253c0,0.627-0.595,1.19-1.222,1.19h-4.636v18.639c0,0.72-0.501,1.222-1.19,1.222
				c-0.72,0-1.159-0.501-1.159-1.222V197.493z"/>
			<path fill="#F9F9F9" d="M1683.812,195.049h8.709c0.627,0,1.19,0.595,1.19,1.253c0,0.689-0.564,1.159-1.19,1.159h-3.195v16.947
				h3.195c0.627,0,1.19,0.595,1.19,1.253c0,0.689-0.564,1.159-1.19,1.159h-8.709c-0.689,0-1.159-0.47-1.159-1.159
				c0-0.658,0.47-1.253,1.159-1.253h3.195v-16.947h-3.195c-0.689,0-1.159-0.47-1.159-1.159
				C1682.653,195.644,1683.123,195.049,1683.812,195.049z"/>
			<path fill="#F9F9F9" d="M1711.755,194.548c0.658,0,1.222,0.501,1.222,1.222v21.082h-3.728l-5.795-17.605v16.916
				c0,0.658-0.564,1.253-1.222,1.253s-1.222-0.595-1.222-1.253v-21.114h3.602l5.921,17.95V195.77
				C1710.533,195.049,1711.097,194.548,1711.755,194.548z"/>
			<path fill="#F9F9F9" d="M1725.788,197.211c-1.159,0-3.79,0.501-3.79,3.509v10.494c0,3.007,2.631,3.477,3.79,3.477
				s3.759-0.501,3.759-3.477v-4.041h-3.822c-0.626,0-1.159-0.564-1.159-1.222c0-0.627,0.533-1.159,1.159-1.159h6.234v6.453
				c0,1.974-1.347,5.858-6.297,5.858c-4.856,0-6.077-3.884-6.077-5.889v-10.557c0-1.88,1.253-5.827,6.203-5.827
				c4.856,0,6.077,3.916,6.077,5.858c0,0.627-0.564,1.19-1.19,1.19c-0.658,0-1.159-0.564-1.159-1.19
				C1729.516,197.712,1726.947,197.211,1725.788,197.211z"/>
			<path fill="#F9F9F9" d="M1537.681,230.467c-1.723,0-3.602,0.846-3.602,2.851c0,1.441,0.783,2.224,1.88,2.882l5.075,3.007
				c2.068,1.222,3.195,3.133,3.195,5.607c0,3.477-2.757,5.67-6.516,5.67c-3.853,0-6.265-2.631-6.265-5.889
				c0-0.627,0.501-1.19,1.19-1.19c0.626,0,1.19,0.564,1.19,1.19c0,2.255,1.692,3.415,3.853,3.415c2.475,0,4.135-1.128,4.135-3.164
				c0-1.692-0.814-2.819-2.161-3.634l-5.106-3.007c-1.723-1.034-2.882-2.788-2.882-4.95c0-3.07,2.412-5.263,6.015-5.263
				c3.728,0,6.234,2.224,6.234,5.576c0,0.627-0.595,1.19-1.19,1.19c-0.626,0-1.222-0.47-1.222-1.19
				C1541.502,231.657,1539.842,230.467,1537.681,230.467z"/>
			<path fill="#F9F9F9" d="M1556.507,250.359c-4.856,0-6.077-3.884-6.077-5.889v-10.557c0-1.88,1.253-5.827,6.203-5.827
				c4.856,0,6.171,3.947,6.171,5.858v10.557C1562.804,246.474,1561.457,250.359,1556.507,250.359z M1560.391,233.975
				c0-2.976-2.6-3.509-3.759-3.509c-1.159,0-3.79,0.501-3.79,3.509v10.494c0,3.007,2.631,3.477,3.79,3.477
				c1.159,0,3.728-0.501,3.728-3.477L1560.391,233.975z"/>
			<path fill="#F9F9F9" d="M1580.345,243.216c0.658,0,1.222,0.595,1.222,1.222c0,2.036-1.284,5.921-6.234,5.921
				c-4.855,0-6.077-3.884-6.077-5.889v-10.557c0-1.88,1.253-5.827,6.203-5.827c4.73,0,6.077,3.696,6.077,5.795
				c0,0.689-0.564,1.159-1.19,1.159c-0.658,0-1.159-0.47-1.159-1.159c-0.031-2.913-2.6-3.415-3.728-3.415
				c-1.159,0-3.791,0.501-3.791,3.509v10.494c0,3.007,2.631,3.477,3.791,3.477s3.728-0.501,3.728-3.509
				C1579.186,243.811,1579.688,243.216,1580.345,243.216z"/>
			<path fill="#F9F9F9" d="M1589.837,228.305h8.709c0.627,0,1.19,0.595,1.19,1.253c0,0.689-0.564,1.159-1.19,1.159h-3.195v16.947
				h3.195c0.627,0,1.19,0.595,1.19,1.253c0,0.689-0.564,1.159-1.19,1.159h-8.709c-0.689,0-1.159-0.47-1.159-1.159
				c0-0.658,0.47-1.253,1.159-1.253h3.195v-16.947h-3.195c-0.689,0-1.159-0.47-1.159-1.159
				C1588.678,228.9,1589.147,228.305,1589.837,228.305z"/>
			<path fill="#F9F9F9" d="M1609.29,247.696h8.677c0.626,0,1.19,0.595,1.19,1.222c0,0.627-0.564,1.159-1.19,1.159h-11.121v-21.772
				h11.121c0.626,0,1.19,0.595,1.19,1.222c0,0.595-0.564,1.159-1.19,1.159h-8.709v6.704h8.019c0.627,0,1.19,0.564,1.19,1.19
				c0,0.564-0.564,1.19-1.19,1.19h-7.988V247.696z"/>
			<path fill="#F9F9F9" d="M1630.654,230.748h-4.668c-0.627,0-1.222-0.564-1.222-1.19c0-0.658,0.595-1.253,1.222-1.253h11.653
				c0.627,0,1.222,0.595,1.222,1.253c0,0.627-0.595,1.19-1.222,1.19h-4.636v18.639c0,0.721-0.501,1.222-1.19,1.222
				c-0.721,0-1.159-0.501-1.159-1.222V230.748z"/>
			<path fill="#F9F9F9" d="M1649.417,242.214l-5.169-12.53c-0.251-0.627,0.031-1.378,0.627-1.629c0.658-0.282,1.378,0,1.66,0.689
				l4.072,10.118l4.01-10.118c0.251-0.658,1.065-0.94,1.629-0.689c0.689,0.313,0.94,0.94,0.658,1.629l-5.137,12.53v7.174
				c0,0.721-0.501,1.222-1.19,1.222c-0.72,0-1.159-0.501-1.159-1.222V242.214z"/>
		</g>
		<path fill="#DBE5D8" d="M1499.906,175.507c-1.911,0-3.446-1.598-3.446-3.477s1.535-3.477,3.446-3.477
			c1.88,0,3.477,1.598,3.477,3.477S1501.786,175.507,1499.906,175.507z"/>
		<g>
			<path fill="#467C9D" d="M1537.681,277.94c-1.723,0-3.602,0.846-3.602,2.851c0,1.441,0.783,2.224,1.88,2.882l5.075,3.007
				c2.068,1.222,3.195,3.133,3.195,5.607c0,3.477-2.757,5.67-6.516,5.67c-3.853,0-6.265-2.631-6.265-5.889
				c0-0.627,0.501-1.19,1.19-1.19c0.626,0,1.19,0.564,1.19,1.19c0,2.255,1.692,3.415,3.853,3.415c2.475,0,4.135-1.128,4.135-3.164
				c0-1.692-0.814-2.819-2.161-3.634l-5.106-3.007c-1.723-1.034-2.882-2.788-2.882-4.95c0-3.07,2.412-5.263,6.015-5.263
				c3.728,0,6.234,2.224,6.234,5.576c0,0.627-0.595,1.19-1.19,1.19c-0.626,0-1.222-0.47-1.222-1.19
				C1541.502,279.13,1539.842,277.94,1537.681,277.94z"/>
			<path fill="#467C9D" d="M1563.931,296.485c0.157,0.689-0.282,1.347-0.908,1.472c-0.595,0.125-1.284-0.219-1.472-0.94
				l-1.347-5.545h-7.142l-1.347,5.545c-0.188,0.783-0.783,1.065-1.41,0.94c-0.783-0.157-1.128-0.783-0.971-1.472l4.856-20.706h4.824
				L1563.931,296.485z M1557.165,278.159h-1.065l-2.506,10.901h6.046L1557.165,278.159z"/>
			<path fill="#467C9D" d="M1580.189,275.277c0.658,0,1.222,0.501,1.222,1.222v21.082h-3.728l-5.795-17.605v16.916
				c0,0.658-0.564,1.253-1.222,1.253c-0.658,0-1.222-0.595-1.222-1.253v-21.114h3.603l5.921,17.95v-17.229
				C1578.967,275.778,1579.531,275.277,1580.189,275.277z"/>
			<path fill="#467C9D" d="M1593.063,278.222h-4.668c-0.626,0-1.222-0.564-1.222-1.19c0-0.658,0.595-1.253,1.222-1.253h11.653
				c0.627,0,1.222,0.595,1.222,1.253c0,0.627-0.595,1.19-1.222,1.19h-4.636v18.639c0,0.72-0.501,1.222-1.19,1.222
				c-0.72,0-1.159-0.501-1.159-1.222V278.222z"/>
			<path fill="#467C9D" d="M1608.632,275.778h8.709c0.627,0,1.19,0.595,1.19,1.253c0,0.689-0.564,1.159-1.19,1.159h-3.195v16.947
				h3.195c0.627,0,1.19,0.595,1.19,1.253c0,0.689-0.564,1.159-1.19,1.159h-8.709c-0.689,0-1.159-0.47-1.159-1.159
				c0-0.658,0.47-1.253,1.159-1.253h3.195V278.19h-3.195c-0.689,0-1.159-0.47-1.159-1.159
				C1607.473,276.373,1607.943,275.778,1608.632,275.778z"/>
			<path fill="#467C9D" d="M1639.112,296.485c0.157,0.689-0.282,1.347-0.908,1.472c-0.595,0.125-1.284-0.219-1.472-0.94
				l-1.347-5.545h-7.142l-1.347,5.545c-0.188,0.783-0.783,1.065-1.41,0.94c-0.783-0.157-1.128-0.783-0.971-1.472l4.855-20.706h4.824
				L1639.112,296.485z M1632.345,278.159h-1.065l-2.506,10.901h6.046L1632.345,278.159z"/>
			<path fill="#467C9D" d="M1650.608,277.94c-1.159,0-3.791,0.501-3.791,3.509v10.494c0,3.007,2.631,3.477,3.791,3.477
				s3.759-0.501,3.759-3.477v-4.041h-3.822c-0.626,0-1.159-0.564-1.159-1.222c0-0.627,0.533-1.159,1.159-1.159h6.234v6.453
				c0,1.974-1.347,5.858-6.297,5.858c-4.855,0-6.077-3.884-6.077-5.889v-10.557c0-1.88,1.253-5.827,6.203-5.827
				c4.855,0,6.077,3.916,6.077,5.858c0,0.627-0.564,1.19-1.19,1.19c-0.658,0-1.159-0.564-1.159-1.19
				C1654.336,278.441,1651.767,277.94,1650.608,277.94z"/>
			<path fill="#467C9D" d="M1669.277,297.832c-4.856,0-6.077-3.884-6.077-5.889v-10.557c0-1.88,1.253-5.827,6.203-5.827
				c4.856,0,6.171,3.947,6.171,5.858v10.557C1675.574,293.947,1674.227,297.832,1669.277,297.832z M1673.162,281.448
				c0-2.976-2.6-3.509-3.759-3.509s-3.79,0.501-3.79,3.509v10.494c0,3.007,2.631,3.477,3.79,3.477s3.728-0.501,3.728-3.477
				L1673.162,281.448z"/>
			<path fill="#467C9D" d="M1542.755,323.945c0.658,0,1.222,0.595,1.222,1.222c0,2.036-1.284,5.921-6.234,5.921
				c-4.855,0-6.077-3.884-6.077-5.889v-10.557c0-1.88,1.253-5.827,6.203-5.827c4.73,0,6.077,3.696,6.077,5.795
				c0,0.689-0.564,1.159-1.19,1.159c-0.658,0-1.159-0.47-1.159-1.159c-0.031-2.913-2.6-3.415-3.728-3.415
				c-1.159,0-3.79,0.501-3.79,3.509v10.494c0,3.007,2.631,3.477,3.79,3.477s3.728-0.501,3.728-3.509
				C1541.596,324.54,1542.098,323.945,1542.755,323.945z"/>
			<path fill="#467C9D" d="M1550.273,309.755c0-0.721,0.439-1.222,1.159-1.222c0.689,0,1.222,0.501,1.222,1.222v8.427h7.957v-8.427
				c0-0.721,0.47-1.222,1.19-1.222c0.689,0,1.19,0.501,1.19,1.222v20.362c0,0.72-0.501,1.222-1.19,1.222
				c-0.72,0-1.19-0.501-1.19-1.222v-9.554h-7.957v9.554c0,0.72-0.532,1.222-1.222,1.222c-0.72,0-1.159-0.501-1.159-1.222V309.755z"
				/>
			<path fill="#467C9D" d="M1571.042,309.034h8.709c0.627,0,1.19,0.595,1.19,1.253c0,0.689-0.564,1.159-1.19,1.159h-3.195v16.947
				h3.195c0.627,0,1.19,0.595,1.19,1.253c0,0.689-0.564,1.159-1.19,1.159h-8.709c-0.689,0-1.159-0.47-1.159-1.159
				c0-0.658,0.47-1.253,1.159-1.253h3.195v-16.947h-3.195c-0.689,0-1.159-0.47-1.159-1.159
				C1569.882,309.629,1570.352,309.034,1571.042,309.034z"/>
			<path fill="#467C9D" d="M1588.051,330.774v-21.02c0-0.721,0.47-1.222,1.19-1.222c0.627,0,1.222,0.501,1.222,1.222v18.608h8.677
				c0.658,0,1.222,0.595,1.222,1.253c0,0.72-0.564,1.159-1.222,1.159H1588.051z"/>
			<path fill="#467C9D" d="M1609.29,328.425h8.677c0.626,0,1.19,0.595,1.19,1.222s-0.564,1.159-1.19,1.159h-11.121v-21.772h11.121
				c0.626,0,1.19,0.595,1.19,1.222c0,0.595-0.564,1.159-1.19,1.159h-8.709v6.704h8.019c0.627,0,1.19,0.564,1.19,1.19
				c0,0.564-0.564,1.19-1.19,1.19h-7.988V328.425z"/>
		</g>
		<path fill="#467C9D" d="M1502.279,282.25l-6.735-6.798c-0.282-0.313-0.282-0.877,0-1.159c0.344-0.345,0.846-0.282,1.128,0.031
			l7.957,7.925l-8.051,8.019c-0.282,0.313-0.783,0.376-1.128,0.031c-0.313-0.282-0.313-0.846,0-1.159L1502.279,282.25z"/>
		<path fill="#EA5F69" d="M1491.558,359.325h16.697c0.407,0,0.658,0.251,0.658,0.658c0,0.407-0.251,0.658-0.658,0.658h-16.697
			c-0.407,0-0.626-0.251-0.626-0.658C1490.931,359.576,1491.15,359.325,1491.558,359.325z"/>
		<g>
			<path fill="#EA5F69" d="M1532.731,350.158h10.557v2.13l-4.48,6.735c4.292,0.689,5.012,4.041,5.012,5.639v1.598
				c0,2.005-1.222,6.015-6.109,6.015c-4.981,0-6.265-3.853-6.265-6.015c0-0.627,0.47-1.222,1.19-1.222
				c0.626,0,1.222,0.595,1.222,1.222c0,3.07,2.569,3.602,3.728,3.602s3.822-0.595,3.822-3.602v-1.535
				c0-2.945-2.694-3.446-3.822-3.446h-1.66v-2.005l4.417-6.672h-7.612c-0.689,0-1.19-0.564-1.19-1.19
				C1531.541,350.753,1532.042,350.158,1532.731,350.158z"/>
			<path fill="#EA5F69" d="M1552.654,350.189h4.918v19.328h3.853c0.658,0,1.222,0.595,1.222,1.253c0,0.721-0.564,1.159-1.222,1.159
				h-9.993c-0.72,0-1.19-0.439-1.19-1.159c0-0.658,0.47-1.253,1.253-1.253h3.759v-16.916h-2.6c-0.752,0-1.253-0.47-1.253-1.159
				C1551.401,350.784,1551.902,350.189,1552.654,350.189z"/>
			<path fill="#EA5F69" d="M1589.617,365.163c0.689,0,1.222,0.533,1.222,1.222c0,2.882,1.911,3.446,3.195,3.446
				c1.347,0,3.227-0.564,3.227-3.227v-14.003h-5.889c-0.689,0-1.159-0.47-1.159-1.159c0-0.658,0.47-1.253,1.159-1.253h8.239v16.227
				c0,3.665-2.068,5.827-5.607,5.827c-3.477,0-5.545-2.224-5.545-5.858C1588.458,365.695,1588.928,365.163,1589.617,365.163z"/>
			<path fill="#EA5F69" d="M1617.779,349.688c0.658,0,1.222,0.501,1.222,1.222v15.475c0,1.974-1.347,5.858-6.297,5.858
				c-4.855,0-6.077-3.884-6.077-5.889v-15.444c0-0.72,0.47-1.222,1.19-1.222c0.627,0,1.222,0.501,1.222,1.222v15.444
				c0,3.007,2.631,3.477,3.791,3.477s3.759-0.501,3.759-3.477v-15.444C1616.589,350.189,1617.09,349.688,1617.779,349.688z"/>
			<path fill="#EA5F69" d="M1625.453,371.929v-21.02c0-0.72,0.47-1.222,1.19-1.222c0.626,0,1.222,0.501,1.222,1.222v18.608h8.677
				c0.658,0,1.222,0.595,1.222,1.253c0,0.721-0.564,1.159-1.222,1.159H1625.453z"/>
			<path fill="#EA5F69" d="M1649.229,364.098l-5.169-12.53c-0.251-0.626,0.031-1.378,0.626-1.629c0.658-0.282,1.378,0,1.66,0.689
				l4.072,10.118l4.01-10.118c0.251-0.658,1.065-0.94,1.629-0.689c0.689,0.313,0.94,0.94,0.658,1.629l-5.137,12.53v7.174
				c0,0.72-0.501,1.222-1.19,1.222c-0.72,0-1.159-0.501-1.159-1.222V364.098z"/>
			<path fill="#EA5F69" d="M1537.555,405.498c-4.856,0-5.795-3.853-5.795-5.889v-10.557c0-1.911,0.971-5.827,5.921-5.827
				c4.856,0,5.827,3.884,5.827,5.858v10.557C1543.507,401.645,1542.505,405.498,1537.555,405.498z M1541.158,389.146
				c0-2.976-2.318-3.509-3.477-3.509s-3.509,0.533-3.509,3.509v10.432c0,3.007,2.349,3.477,3.509,3.477s3.446-0.47,3.446-3.477
				L1541.158,389.146z"/>
			<path fill="#EA5F69" d="M1601.333,404.151c0.157,0.689-0.282,1.347-0.908,1.472c-0.595,0.125-1.284-0.219-1.472-0.94
				l-1.347-5.545h-7.142l-1.347,5.545c-0.188,0.783-0.783,1.065-1.41,0.94c-0.783-0.157-1.128-0.783-0.971-1.472l4.856-20.706h4.824
				L1601.333,404.151z M1594.567,385.826h-1.065l-2.506,10.901h6.046L1594.567,385.826z"/>
			<path fill="#EA5F69" d="M1617.779,382.944c0.658,0,1.222,0.501,1.222,1.222v15.475c0,1.974-1.347,5.858-6.297,5.858
				c-4.855,0-6.077-3.884-6.077-5.889v-15.444c0-0.72,0.47-1.222,1.19-1.222c0.627,0,1.222,0.501,1.222,1.222v15.444
				c0,3.007,2.631,3.477,3.791,3.477s3.759-0.501,3.759-3.477v-15.444C1616.589,383.445,1617.09,382.944,1617.779,382.944z"/>
			<path fill="#EA5F69" d="M1631.625,386.457c-1.159,0-3.79,0.501-3.79,3.509v10.494c0,3.007,2.631,3.477,3.79,3.477
				s3.759-0.501,3.759-3.477v-4.041h-3.822c-0.627,0-1.159-0.564-1.159-1.222c0-0.627,0.532-1.159,1.159-1.159h6.234v6.453
				c0,1.974-1.347,5.858-6.297,5.858c-4.855,0-6.077-3.884-6.077-5.889v-10.557c0-1.88,1.253-5.827,6.203-5.827
				c4.855,0,6.077,3.916,6.077,5.858c0,0.627-0.564,1.19-1.19,1.19c-0.658,0-1.159-0.564-1.159-1.19
				C1635.353,386.958,1632.784,386.457,1631.625,386.457z"/>
			<path fill="#EA5F69" d="M1655.369,382.944c0.658,0,1.222,0.501,1.222,1.222v15.475c0,1.974-1.347,5.858-6.297,5.858
				c-4.856,0-6.077-3.884-6.077-5.889v-15.444c0-0.72,0.47-1.222,1.19-1.222c0.627,0,1.222,0.501,1.222,1.222v15.444
				c0,3.007,2.631,3.477,3.79,3.477s3.759-0.501,3.759-3.477v-15.444C1654.179,383.445,1654.68,382.944,1655.369,382.944z"/>
			<path fill="#EA5F69" d="M1669.058,385.606c-1.723,0-3.603,0.846-3.603,2.851c0,1.441,0.783,2.224,1.88,2.882l5.075,3.007
				c2.068,1.222,3.195,3.133,3.195,5.607c0,3.477-2.757,5.67-6.516,5.67c-3.853,0-6.265-2.631-6.265-5.889
				c0-0.627,0.501-1.19,1.19-1.19c0.627,0,1.19,0.564,1.19,1.19c0,2.255,1.692,3.415,3.853,3.415c2.475,0,4.135-1.128,4.135-3.164
				c0-1.692-0.814-2.819-2.161-3.634l-5.106-3.007c-1.723-1.034-2.882-2.788-2.882-4.95c0-3.07,2.412-5.263,6.015-5.263
				c3.728,0,6.234,2.224,6.234,5.576c0,0.627-0.595,1.19-1.19,1.19c-0.627,0-1.222-0.47-1.222-1.19
				C1672.88,386.797,1671.22,385.606,1669.058,385.606z"/>
			<path fill="#EA5F69" d="M1686.851,385.888h-4.668c-0.626,0-1.222-0.564-1.222-1.19c0-0.658,0.595-1.253,1.222-1.253h11.653
				c0.626,0,1.222,0.595,1.222,1.253c0,0.627-0.595,1.19-1.222,1.19h-4.636v18.639c0,0.72-0.501,1.222-1.19,1.222
				c-0.721,0-1.159-0.501-1.159-1.222V385.888z"/>
			<g>
				<path fill="#EA5F69" d="M1562.108,388.803c0,0.789-0.405,1.184-1.215,1.184c-0.728,0-1.122-0.387-1.184-1.161
					c-0.083-0.984-0.436-1.758-1.06-2.323c-0.623-0.565-1.423-0.848-2.399-0.848c-0.81,0-1.569,0.24-2.275,0.721
					c-0.956,0.646-1.433,1.575-1.433,2.785v3.538c1.038-0.894,2.317-1.34,3.833-1.34c2.139,0,3.749,0.727,4.83,2.181
					c0.81,1.08,1.215,2.306,1.215,3.677v2.461c0,1.309-0.416,2.504-1.247,3.584c-1.122,1.455-2.763,2.181-4.923,2.181
					c-2.14,0-3.761-0.727-4.861-2.181c-0.831-1.08-1.246-2.285-1.246-3.615v-10.502c0-1.309,0.425-2.524,1.278-3.646
					c1.122-1.475,2.774-2.212,4.955-2.212c1.973,0,3.49,0.686,4.55,2.057C1561.714,386.383,1562.108,387.535,1562.108,388.803z
					 M1560.02,399.593v-2.353c0.021-1.087-0.328-1.945-1.044-2.572c-0.717-0.628-1.626-0.942-2.727-0.942
					c-1.08,0-1.969,0.324-2.665,0.973c-0.696,0.648-1.044,1.516-1.044,2.603v2.29c0,1.088,0.349,1.94,1.048,2.557
					c0.699,0.617,1.591,0.925,2.676,0.925c1.085,0,1.977-0.308,2.676-0.925C1559.639,401.533,1560,400.68,1560.02,399.593z"/>
			</g>
		</g>
	</g>
</g>
</svg>
