<?xml version="1.0" encoding="utf-8"?>
<!-- Generator: Adobe Illustrator 21.1.0, SVG Export Plug-In . SVG Version: 6.00 Build 0)  -->
<svg version="1.1" id="Layer_1" xmlns="http://www.w3.org/2000/svg" xmlns:xlink="http://www.w3.org/1999/xlink" x="0px" y="0px"
	 viewBox="0 0 173 106" style="enable-background:new 0 0 173 106;" xml:space="preserve">
<style type="text/css">
	.st0{fill:#F9F9F9;}
	.st1{fill:#E53946;}
	.st2{fill:#EA5F69;}
	.st3{fill:#467C9D;}
	.st4{fill:#A8D9DB;}
	.st5{fill:#DBE5D8;}
</style>
<g>
	<path class="st0" d="M113.1,25.7l0,66.4c0,2.2-1.4,3.6-3.6,3.6c-2.2,0-3.6-1.4-3.6-3.6l0-66.4c0-2.2,1.4-3.4,3.6-3.4
		C111.8,22.3,113.1,23.5,113.1,25.7z"/>
	<path class="st1" d="M112.7,25.9c0,2.2-1.2,3.6-3.4,3.6l-49.4,0c-2.2,0-3.6-1.4-3.6-3.6c0-2.2,1.4-3.6,3.6-3.6l49.4,0
		C111.5,22.3,112.7,23.7,112.7,25.9z"/>
	<path class="st2" d="M101.8,45.5c0,2.2-1.2,3.6-3.4,3.6L70,49c-2.2,0-3.6-1.4-3.6-3.6c0-2.2,1.4-3.6,3.6-3.6l28.4,0
		C100.6,41.9,101.8,43.2,101.8,45.5z"/>
	<path class="st3" d="M101.8,59.7c0,2.2-1.2,3.6-3.4,3.6l-28.4,0c-2.2,0-3.6-1.4-3.6-3.6c0-2.2,1.4-3.6,3.6-3.6l28.4,0
		C100.6,56.1,101.8,57.5,101.8,59.7z"/>
	<path class="st4" d="M101.8,74.1c0,2.2-1.2,3.6-3.4,3.6l-28.4,0c-2.2,0-3.6-1.4-3.6-3.6c0-2.2,1.4-3.6,3.6-3.6l28.4,0
		C100.6,70.5,101.8,71.8,101.8,74.1z"/>
	<path class="st4" d="M55.3,92.6l0-66.4c0-2.2,1.4-3.6,3.6-3.6c2.2,0,3.6,1.4,3.6,3.6l0,66.4c0,2.2-1.4,3.4-3.6,3.4
		C56.7,96.1,55.3,94.9,55.3,92.6z"/>
	<path class="st5" d="M55.8,92.5c0-2.2,1.2-3.6,3.4-3.6l49.4,0c2.2,0,3.6,1.4,3.6,3.6c0,2.2-1.4,3.6-3.6,3.6l-49.4,0
		C57,96.1,55.8,94.7,55.8,92.5z"/>
	<path class="st0" d="M152.7,7.8l-7.8,7.8c-1.6,1.6-3.5,1.6-5.1,0s-1.6-3.5,0-5.1l7.8-7.8c1.6-1.6,3.4-1.5,5,0.1
		C154.2,4.4,154.3,6.3,152.7,7.8z"/>
	<path class="st3" d="M160.4,33.5h-11.1c-2.2,0-3.6-1.4-3.6-3.6s1.4-3.6,3.6-3.6h11.1c2.2,0,3.4,1.4,3.4,3.6S162.6,33.5,160.4,33.5z
		"/>
	<path class="st3" d="M12.6,26.3h11.1c2.2,0,3.6,1.4,3.6,3.6s-1.4,3.6-3.6,3.6H12.6c-2.2,0-3.4-1.4-3.4-3.6
		C9.2,27.7,10.4,26.3,12.6,26.3z"/>
	<path class="st4" d="M25.4,2.7l7.8,7.8c1.6,1.6,1.6,3.5,0,5.1s-3.5,1.6-5.1,0l-7.8-7.8c-1.6-1.6-1.5-3.4,0.1-5S23.8,1.2,25.4,2.7z"
		/>
</g>
</svg>
