<?xml version="1.0" encoding="utf-8"?>
<!-- Generator: Adobe Illustrator 17.0.0, SVG Export Plug-In . SVG Version: 6.00 Build 0)  -->
<!DOCTYPE svg PUBLIC "-//W3C//DTD SVG 1.1//EN" "http://www.w3.org/Graphics/SVG/1.1/DTD/svg11.dtd">
<svg version="1.1" id="Layer_1" xmlns="http://www.w3.org/2000/svg" xmlns:xlink="http://www.w3.org/1999/xlink" x="0px" y="0px"
	 width="561px" height="106px" viewBox="0 0 561 106" enable-background="new 0 0 561 106" xml:space="preserve">
<path fill="#F9F9F9" d="M309.534,25.709l-0.014,66.353c-0.001,2.228-1.372,3.599-3.6,3.597c-2.228-0.001-3.599-1.372-3.597-3.6
	l0.014-66.353c0.001-2.228,1.372-3.427,3.6-3.427C308.163,22.281,309.534,23.481,309.534,25.709z"/>
<path fill="#E53946" d="M309.085,25.894c-0.001,2.228-1.201,3.599-3.428,3.597l-49.443-0.014c-2.228-0.001-3.599-1.372-3.597-3.6
	c0.001-2.228,1.372-3.599,3.6-3.597l49.443,0.014C307.886,22.294,309.086,23.666,309.085,25.894z"/>
<path fill="#EA5F69" d="M298.165,45.467c-0.001,2.228-1.201,3.599-3.428,3.597l-28.37-0.014c-2.228-0.001-3.599-1.372-3.597-3.6
	c0.001-2.228,1.372-3.599,3.6-3.597l28.37,0.014C296.966,41.868,298.165,43.239,298.165,45.467z"/>
<path fill="#467C9D" d="M298.165,59.741c-0.001,2.228-1.201,3.599-3.428,3.597l-28.37-0.014c-2.228-0.001-3.599-1.372-3.597-3.6
	c0.001-2.228,1.372-3.599,3.6-3.597l28.37,0.014C296.966,56.142,298.165,57.513,298.165,59.741z"/>
<path fill="#A8D9DB" d="M298.165,74.075c-0.001,2.228-1.201,3.599-3.428,3.597l-28.37-0.014c-2.228-0.001-3.599-1.372-3.597-3.6
	c0.001-2.228,1.372-3.599,3.6-3.597l28.37,0.014C296.966,70.475,298.165,71.847,298.165,74.075z"/>
<path fill="#A8D9DB" d="M251.729,92.64l0.014-66.353c0.001-2.228,1.372-3.599,3.6-3.597s3.599,1.372,3.597,3.6l-0.014,66.353
	c-0.001,2.228-1.372,3.427-3.6,3.427C253.099,96.068,251.729,94.868,251.729,92.64z"/>
<path fill="#DBE5D8" d="M252.177,92.47c0.001-2.228,1.201-3.599,3.428-3.597l49.443,0.014c2.228,0.001,3.599,1.372,3.597,3.6
	c-0.001,2.228-1.372,3.599-3.6,3.597l-49.443-0.014C253.377,96.069,252.177,94.698,252.177,92.47z"/>
<path fill="#F9F9F9" d="M349.105,7.835l-7.817,7.817c-1.576,1.576-3.515,1.576-5.091,0s-1.576-3.515,0-5.091l7.817-7.817
	c1.576-1.576,3.394-1.455,4.97,0.121C350.559,4.441,350.68,6.259,349.105,7.835z"/>
<path fill="#467C9D" d="M356.772,33.545h-11.054c-2.229,0-3.6-1.371-3.6-3.6c0-2.229,1.371-3.6,3.6-3.6h11.054
	c2.229,0,3.429,1.371,3.429,3.6S359.001,33.545,356.772,33.545z"/>
<path fill="#467C9D" d="M209.034,26.345h11.054c2.229,0,3.6,1.371,3.6,3.6s-1.371,3.6-3.6,3.6h-11.054
	c-2.229,0-3.429-1.371-3.429-3.6C205.605,27.717,206.805,26.345,209.034,26.345z"/>
<path fill="#A8D9DB" d="M221.792,2.744l7.817,7.817c1.576,1.576,1.576,3.515,0,5.091s-3.515,1.576-5.091,0l-7.817-7.817
	c-1.576-1.576-1.455-3.394,0.121-4.97S220.217,1.168,221.792,2.744z"/>
</svg>
