<?xml version="1.0" encoding="utf-8"?>
<!-- Generator: Adobe Illustrator 21.1.0, SVG Export Plug-In . SVG Version: 6.00 Build 0)  -->
<svg version="1.1" id="Capa_1" xmlns="http://www.w3.org/2000/svg" xmlns:xlink="http://www.w3.org/1999/xlink" x="0px" y="0px"
	 viewBox="0 0 938 642" style="enable-background:new 0 0 938 642;" xml:space="preserve">
<style type="text/css">
	.st0{fill:#1C3557;}
	.st1{display:none;}
	.st2{display:inline;}
	.st3{fill:#A8D9DB;}
	.st4{fill:#467C9D;}
	.st5{fill:#EA5F69;}
	.st6{fill:#DBE5D8;}
	.st7{fill:#F9F9F9;}
	.st8{fill:#E53946;}
	.st9{fill:#F9F9F9;stroke:#FFFFFF;stroke-width:0.5;stroke-miterlimit:10;}
	.st10{display:inline;fill:#EA5F69;stroke:#EA5F69;stroke-width:0.25;stroke-miterlimit:10;}
	.st11{fill:#EA5F69;stroke:#EA5F69;stroke-width:0.25;stroke-miterlimit:10;}
</style>
<g id="Capa_3">
	<g id="Layer_2_1_">
		<g id="Layer_3">
			<rect y="0" class="st0" width="938" height="642"/>
		</g>
	</g>
</g>
<g id="Layer_3_1_" class="st1">
	<g class="st2">
		<path class="st3" d="M26.1,267.8c0-2.7,2.2-5,5-5c2.7,0,5,2.3,5,5s-2.3,5-5,5C28.3,272.8,26.1,270.5,26.1,267.8z"/>
		<path class="st4" d="M41.4,290.1c0-2.7,2.2-5,5-5c2.7,0,5,2.3,5,5s-2.3,5-5,5C43.6,295.1,41.4,292.8,41.4,290.1z"/>
		<path class="st5" d="M61.6,229.3c0-2.7,2.2-5,5-5c2.7,0,5,2.3,5,5s-2.3,5-5,5C63.8,234.3,61.6,232,61.6,229.3z"/>
		<path class="st6" d="M72.8,267.8c0-2.7,2.2-5,5-5c2.7,0,5,2.3,5,5s-2.3,5-5,5C75,272.8,72.8,270.5,72.8,267.8z"/>
		<path class="st7" d="M85.2,247.4c0-2.7,2.2-5,5-5c2.7,0,5,2.3,5,5s-2.3,5-5,5C87.4,252.4,85.2,250.1,85.2,247.4z"/>
		<path class="st8" d="M85.2,295.1c0-2.7,2.2-5,5-5c2.7,0,5,2.3,5,5s-2.3,5-5,5C87.4,300.1,85.2,297.8,85.2,295.1z"/>
	</g>
	<g class="st2">
		<path class="st7" d="M627,224.8c2.2,1.3,2.8,3.3,1.5,5.5l-17.9,29.6c-1.3,2.2-3.5,2.7-5.7,1.4s-2.7-3.5-1.4-5.7l17.9-29.6
			C622.7,223.9,624.8,223.5,627,224.8z"/>
		<path class="st4" d="M521.5,294.4c0-2.5,1.4-4.1,3.9-4.1h34.8c2.5,0,4.1,1.6,4.1,4.1s-1.6,4.1-4.1,4.1h-34.8
			C522.9,298.5,521.5,296.9,521.5,294.4z"/>
		<path class="st6" d="M525.3,228c0-2.5,1.4-4.1,3.9-4.1h13.6c2.5,0,4.1,1.6,4.1,4.1s-1.6,4.1-4.1,4.1h-13.6
			C526.7,232.1,525.3,230.5,525.3,228z"/>
		<path class="st6" d="M587.2,228c0-2.5,1.4-4.1,3.9-4.1H625c2.5,0,4.1,1.6,4.1,4.1s-1.6,4.1-4.1,4.1h-33.9
			C588.6,232.1,587.2,230.5,587.2,228z"/>
		<path class="st3" d="M607.5,291.8c2.2,0,4.2,1.6,4.2,4.1c0,2.2-2.1,4.2-4.2,4.2c-17.2,0-21.6-13.3-21.6-20.8
			c0-2.2,1.6-4.2,4.1-4.2c2.2,0,4.2,2.1,4.2,4.2C594.2,289.9,603.5,291.8,607.5,291.8z"/>
		<path class="st4" d="M620.2,279.3c0-2.2,2.1-4.2,4.2-4.2c2.5,0,4.1,2.1,4.1,4.2c0,7.5-4.4,20.8-21.6,20.8c-2.2,0-4.2-2.1-4.2-4.2
			c0-2.5,2.1-4.1,4.2-4.1C610.9,291.8,620.2,289.9,620.2,279.3z"/>
		<path class="st4" d="M624.4,269.5c2.5,0,4.1,1.4,4.1,3.9v4.8c0,2.5-1.6,4.1-4.1,4.1s-4.1-1.6-4.1-4.1v-4.8
			C620.3,270.9,621.9,269.5,624.4,269.5z"/>
		<g>
			<path class="st7" d="M356.5,225.3c0,2.2-2,4.2-4.3,4.2h-31.6v24.6h29.1c2.3,0,4.3,2,4.3,4.3c0,2-2,4.3-4.3,4.3h-29v37.2h-8.9
				v-79.1h40.4C354.5,220.8,356.5,223,356.5,225.3z"/>
			<path class="st7" d="M425.9,301.4c-2.2,0.5-4.7-0.8-5.3-3.4l-4.9-20.1h-25.9l-4.9,20.1c-0.7,2.8-2.8,3.9-5.1,3.4
				c-2.8-0.6-4.1-2.8-3.5-5.3l17.6-75.2h17.5l17.9,75.2C429.8,298.6,428.2,301,425.9,301.4z M400.8,229.5l-9.1,39.6h22l-9-39.6
				H400.8L400.8,229.5z"/>
			<path class="st7" d="M490.8,259c7.1-3.1,8.4-12.2,8.4-16.2v-1.3c0-7.1-2.8-20.7-20.7-20.7H455v79.1h24.1
				c17.8,0,21.4-14,21.4-20.9v-2.7C500.5,272.2,498.6,262.6,490.8,259z M463.7,229.5h14.8c4.1,0,11.9,1.4,11.9,12.1v1
				c0,10.7-6.4,12.4-11.3,12.4h-15.5L463.7,229.5L463.7,229.5z M491.7,278.6c0,10.8-8.4,12.5-12.6,12.5h-15.4v-27.4h15.9
				c4.8,0,12.1,1.7,12.1,12.6V278.6L491.7,278.6z"/>
			<path class="st8" d="M607.5,262.1c-2.2,0-4.2-1.6-4.2-4.1c0-2.2,2.1-4.2,4.2-4.2c17.2,0,21.6,13.3,21.6,20.8
				c0,2.2-1.6,4.2-4.1,4.2c-2.2,0-4.2-2.1-4.2-4.2C620.8,263.9,611.5,262.1,607.5,262.1z"/>
			<path class="st5" d="M543.5,223.9c2.5,0,4.1,1.4,4.1,3.9v66.6c0,2.5-1.6,4.1-4.1,4.1s-4.1-1.6-4.1-4.1v-66.6
				C539.4,225.2,540.9,223.9,543.5,223.9z"/>
		</g>
	</g>
	<g class="st2">
		<path class="st3" d="M115.3,373.4c0-2.7,2.2-5,5-5c2.7,0,5,2.3,5,5s-2.3,5-5,5C117.5,378.4,115.3,376.1,115.3,373.4z"/>
		<path class="st4" d="M130.6,395.7c0-2.7,2.2-5,5-5c2.7,0,5,2.3,5,5s-2.3,5-5,5C132.8,400.7,130.6,398.4,130.6,395.7z"/>
		<path class="st5" d="M150.8,334.9c0-2.7,2.2-5,5-5c2.7,0,5,2.3,5,5s-2.3,5-5,5C153,339.9,150.8,337.6,150.8,334.9z"/>
		<path class="st6" d="M161.9,373.4c0-2.7,2.2-5,5-5c2.7,0,5,2.3,5,5s-2.3,5-5,5S161.9,376.1,161.9,373.4z"/>
		<path class="st7" d="M174.4,353c0-2.7,2.2-5,5-5c2.7,0,5,2.3,5,5s-2.3,5-5,5C176.6,358,174.4,355.7,174.4,353z"/>
		<path class="st8" d="M174.4,400.7c0-2.7,2.2-5,5-5c2.7,0,5,2.3,5,5s-2.3,5-5,5C176.6,405.7,174.4,403.4,174.4,400.7z"/>
	</g>
	<g class="st2">
		<path class="st3" d="M115.3,479.1c0-2.7,2.2-5,5-5c2.7,0,5,2.3,5,5s-2.3,5-5,5C117.5,484.1,115.3,481.8,115.3,479.1z"/>
		<path class="st4" d="M130.6,501.4c0-2.7,2.2-5,5-5c2.7,0,5,2.3,5,5s-2.3,5-5,5C132.8,506.4,130.6,504.1,130.6,501.4z"/>
		<path class="st5" d="M150.8,440.5c0-2.7,2.2-5,5-5c2.7,0,5,2.3,5,5s-2.3,5-5,5C153,445.6,150.8,443.3,150.8,440.5z"/>
		<path class="st6" d="M161.9,479.1c0-2.7,2.2-5,5-5c2.7,0,5,2.3,5,5s-2.3,5-5,5S161.9,481.8,161.9,479.1z"/>
		<path class="st7" d="M174.4,458.6c0-2.7,2.2-5,5-5c2.7,0,5,2.3,5,5s-2.3,5-5,5C176.6,463.6,174.4,461.3,174.4,458.6z"/>
		<path class="st8" d="M174.4,506.4c0-2.7,2.2-5,5-5c2.7,0,5,2.3,5,5s-2.3,5-5,5C176.6,511.4,174.4,509.1,174.4,506.4z"/>
	</g>
	<g class="st2">
		<path class="st3" d="M666.3,479.1c0-2.7,2.2-5,5-5c2.7,0,5,2.3,5,5s-2.3,5-5,5C668.5,484.1,666.3,481.8,666.3,479.1z"/>
		<path class="st4" d="M681.5,501.4c0-2.7,2.2-5,5-5c2.7,0,5,2.3,5,5s-2.3,5-5,5S681.5,504.1,681.5,501.4z"/>
		<path class="st5" d="M701.8,440.5c0-2.7,2.2-5,5-5c2.7,0,5,2.3,5,5s-2.3,5-5,5C704,445.6,701.8,443.3,701.8,440.5z"/>
		<path class="st6" d="M712.9,479.1c0-2.7,2.2-5,5-5c2.7,0,5,2.3,5,5s-2.3,5-5,5C715.1,484.1,712.9,481.8,712.9,479.1z"/>
		<path class="st7" d="M725.3,458.6c0-2.7,2.2-5,5-5c2.7,0,5,2.3,5,5s-2.3,5-5,5C727.5,463.6,725.3,461.3,725.3,458.6z"/>
		<path class="st8" d="M725.3,506.4c0-2.7,2.2-5,5-5c2.7,0,5,2.3,5,5s-2.3,5-5,5C727.5,511.4,725.3,509.1,725.3,506.4z"/>
	</g>
	<g class="st2">
		<path class="st3" d="M752.1,479.1c0-2.7,2.2-5,5-5c2.7,0,5,2.3,5,5s-2.3,5-5,5C754.4,484.1,752.1,481.8,752.1,479.1z"/>
		<path class="st4" d="M767.4,501.4c0-2.7,2.2-5,5-5c2.7,0,5,2.3,5,5s-2.3,5-5,5C769.6,506.4,767.4,504.1,767.4,501.4z"/>
		<path class="st5" d="M787.7,440.5c0-2.7,2.2-5,5-5c2.7,0,5,2.3,5,5s-2.3,5-5,5C789.9,445.6,787.7,443.3,787.7,440.5z"/>
		<path class="st6" d="M798.8,479.1c0-2.7,2.2-5,5-5c2.7,0,5,2.3,5,5s-2.3,5-5,5C801,484.1,798.8,481.8,798.8,479.1z"/>
		<path class="st7" d="M811.2,458.6c0-2.7,2.2-5,5-5c2.7,0,5,2.3,5,5s-2.3,5-5,5C813.4,463.6,811.2,461.3,811.2,458.6z"/>
		<path class="st8" d="M811.2,506.4c0-2.7,2.2-5,5-5c2.7,0,5,2.3,5,5s-2.3,5-5,5C813.4,511.4,811.2,509.1,811.2,506.4z"/>
	</g>
	<g class="st2">
		<path class="st7" d="M119.3,293.5c0,2.2-1.4,3.6-3.6,3.6s-3.6-1.4-3.6-3.6v-22.3c0-2.2,1.4-3.5,3.6-3.5s3.6,1.2,3.6,3.5V293.5z"/>
		<path class="st5" d="M142.1,293.5c0,2.2-1.4,3.6-3.6,3.6s-3.6-1.4-3.6-3.6v-71.1c0-2.2,1.4-3.5,3.6-3.5s3.6,1.2,3.6,3.5V293.5z"/>
		<path class="st8" d="M138.4,226.2c-2.2,0-3.6-1.4-3.6-3.6s1.4-3.6,3.6-3.6h24.1c2.2,0,3.5,1.4,3.5,3.6s-1.2,3.6-3.5,3.6H138.4z"/>
		<path class="st7" d="M166.2,293.5c0,2.2-1.4,3.6-3.6,3.6s-3.6-1.4-3.6-3.6v-71.1c0-2.2,1.4-3.5,3.6-3.5s3.6,1.2,3.6,3.5V293.5z"/>
		<path class="st4" d="M138.4,253.9c-2.2,0-3.6-1.4-3.6-3.6s1.4-3.6,3.6-3.6h48.3c2.2,0,3.5,1.4,3.5,3.6s-1.2,3.6-3.5,3.6H138.4z"/>
		<path class="st6" d="M115.6,275c-2.2,0-3.6-1.4-3.6-3.6s1.4-3.6,3.6-3.6h71.1c2.2,0,3.5,1.4,3.5,3.6s-1.2,3.6-3.5,3.6H115.6z"/>
		<path class="st5" d="M190.2,293.5c0,2.2-1.4,3.6-3.6,3.6s-3.6-1.4-3.6-3.6v-43.4c0-2.2,1.4-3.5,3.6-3.5s3.6,1.2,3.6,3.5V293.5z"/>
		<path class="st3" d="M115.6,297.1c-2.2,0-3.6-1.4-3.6-3.6s1.4-3.6,3.6-3.6h71.1c2.2,0,3.5,1.4,3.5,3.6s-1.2,3.6-3.5,3.6H115.6z"/>
	</g>
	<g class="st2">
		<path class="st7" d="M849.7,612.5c0,2.2-1.4,3.6-3.6,3.6s-3.6-1.4-3.6-3.6v-22.3c0-2.2,1.4-3.5,3.6-3.5s3.6,1.2,3.6,3.5V612.5z"/>
		<path class="st5" d="M872.5,612.5c0,2.2-1.4,3.6-3.6,3.6s-3.6-1.4-3.6-3.6v-71.1c0-2.2,1.4-3.5,3.6-3.5s3.6,1.2,3.6,3.5V612.5z"/>
		<path class="st8" d="M868.9,545.2c-2.2,0-3.6-1.4-3.6-3.6s1.4-3.6,3.6-3.6H893c2.2,0,3.5,1.4,3.5,3.6s-1.2,3.6-3.5,3.6H868.9z"/>
		<path class="st7" d="M896.6,612.5c0,2.2-1.4,3.6-3.6,3.6s-3.6-1.4-3.6-3.6v-71.1c0-2.2,1.4-3.5,3.6-3.5s3.6,1.2,3.6,3.5V612.5z"/>
		<path class="st4" d="M868.9,572.9c-2.2,0-3.6-1.4-3.6-3.6s1.4-3.6,3.6-3.6h48.3c2.2,0,3.5,1.4,3.5,3.6s-1.2,3.6-3.5,3.6H868.9z"/>
		<path class="st6" d="M846.1,594c-2.2,0-3.6-1.4-3.6-3.6s1.4-3.6,3.6-3.6h71.1c2.2,0,3.5,1.4,3.5,3.6s-1.2,3.6-3.5,3.6H846.1z"/>
		<path class="st5" d="M920.7,612.5c0,2.2-1.4,3.6-3.6,3.6s-3.6-1.4-3.6-3.6v-43.4c0-2.2,1.4-3.5,3.6-3.5s3.6,1.2,3.6,3.5V612.5z"/>
		<path class="st3" d="M846.1,616.1c-2.2,0-3.6-1.4-3.6-3.6s1.4-3.6,3.6-3.6h71.1c2.2,0,3.5,1.4,3.5,3.6s-1.2,3.6-3.5,3.6H846.1z"/>
	</g>
	<g class="st2">
		<path class="st7" d="M214.9,504.7c0,2.2-1.4,3.6-3.6,3.6s-3.6-1.4-3.6-3.6v-22.3c0-2.2,1.4-3.5,3.6-3.5s3.6,1.2,3.6,3.5V504.7z"/>
		<path class="st5" d="M237.7,504.7c0,2.2-1.4,3.6-3.6,3.6s-3.6-1.4-3.6-3.6v-71.1c0-2.2,1.4-3.5,3.6-3.5s3.6,1.2,3.6,3.5V504.7z"/>
		<path class="st8" d="M234.1,437.4c-2.2,0-3.6-1.4-3.6-3.6s1.4-3.6,3.6-3.6h24.1c2.2,0,3.5,1.4,3.5,3.6s-1.2,3.6-3.5,3.6H234.1z"/>
		<path class="st7" d="M261.8,504.7c0,2.2-1.4,3.6-3.6,3.6s-3.6-1.4-3.6-3.6v-71.1c0-2.2,1.4-3.5,3.6-3.5s3.6,1.2,3.6,3.5V504.7z"/>
		<path class="st4" d="M234.1,465.2c-2.2,0-3.6-1.4-3.6-3.6s1.4-3.6,3.6-3.6h48.3c2.2,0,3.5,1.4,3.5,3.6s-1.2,3.6-3.5,3.6H234.1z"/>
		<path class="st6" d="M211.3,486.2c-2.2,0-3.6-1.4-3.6-3.6s1.4-3.6,3.6-3.6h71.1c2.2,0,3.5,1.4,3.5,3.6s-1.2,3.6-3.5,3.6H211.3z"/>
		<path class="st5" d="M285.9,504.7c0,2.2-1.4,3.6-3.6,3.6s-3.6-1.4-3.6-3.6v-43.4c0-2.2,1.4-3.5,3.6-3.5s3.6,1.2,3.6,3.5V504.7z"/>
		<path class="st3" d="M211.3,508.4c-2.2,0-3.6-1.4-3.6-3.6s1.4-3.6,3.6-3.6h71.1c2.2,0,3.5,1.4,3.5,3.6s-1.2,3.6-3.5,3.6H211.3z"/>
	</g>
	<g class="st2">
		<path class="st7" d="M489.1,504.7c0,2.2-1.4,3.6-3.6,3.6s-3.6-1.4-3.6-3.6v-22.3c0-2.2,1.4-3.5,3.6-3.5s3.6,1.2,3.6,3.5V504.7z"/>
		<path class="st5" d="M511.9,504.7c0,2.2-1.4,3.6-3.6,3.6s-3.6-1.4-3.6-3.6v-71.1c0-2.2,1.4-3.5,3.6-3.5s3.6,1.2,3.6,3.5V504.7z"/>
		<path class="st8" d="M508.2,437.4c-2.2,0-3.6-1.4-3.6-3.6s1.4-3.6,3.6-3.6h24.1c2.2,0,3.5,1.4,3.5,3.6s-1.2,3.6-3.5,3.6H508.2z"/>
		<path class="st7" d="M535.9,504.7c0,2.2-1.4,3.6-3.6,3.6s-3.6-1.4-3.6-3.6v-71.1c0-2.2,1.4-3.5,3.6-3.5s3.6,1.2,3.6,3.5V504.7z"/>
		<path class="st4" d="M508.2,465.2c-2.2,0-3.6-1.4-3.6-3.6s1.4-3.6,3.6-3.6h48.3c2.2,0,3.5,1.4,3.5,3.6s-1.2,3.6-3.5,3.6H508.2z"/>
		<path class="st6" d="M485.4,486.2c-2.2,0-3.6-1.4-3.6-3.6s1.4-3.6,3.6-3.6h71.1c2.2,0,3.5,1.4,3.5,3.6s-1.2,3.6-3.5,3.6H485.4z"/>
		<path class="st5" d="M560,504.7c0,2.2-1.4,3.6-3.6,3.6s-3.6-1.4-3.6-3.6v-43.4c0-2.2,1.4-3.5,3.6-3.5s3.6,1.2,3.6,3.5V504.7z"/>
		<path class="st3" d="M485.4,508.4c-2.2,0-3.6-1.4-3.6-3.6s1.4-3.6,3.6-3.6h71.1c2.2,0,3.5,1.4,3.5,3.6s-1.2,3.6-3.5,3.6H485.4z"/>
	</g>
	<g class="st2">
		<path class="st7" d="M584.1,504.7c0,2.2-1.4,3.6-3.6,3.6s-3.6-1.4-3.6-3.6v-22.3c0-2.2,1.4-3.5,3.6-3.5s3.6,1.2,3.6,3.5V504.7z"/>
		<path class="st5" d="M606.9,504.7c0,2.2-1.4,3.6-3.6,3.6s-3.6-1.4-3.6-3.6v-71.1c0-2.2,1.4-3.5,3.6-3.5s3.6,1.2,3.6,3.5V504.7z"/>
		<path class="st8" d="M603.2,437.4c-2.2,0-3.6-1.4-3.6-3.6s1.4-3.6,3.6-3.6h24.1c2.2,0,3.5,1.4,3.5,3.6s-1.2,3.6-3.5,3.6H603.2z"/>
		<path class="st7" d="M631,504.7c0,2.2-1.4,3.6-3.6,3.6s-3.6-1.4-3.6-3.6v-71.1c0-2.2,1.4-3.5,3.6-3.5s3.6,1.2,3.6,3.5V504.7z"/>
		<path class="st4" d="M603.2,465.2c-2.2,0-3.6-1.4-3.6-3.6s1.4-3.6,3.6-3.6h48.3c2.2,0,3.5,1.4,3.5,3.6s-1.2,3.6-3.5,3.6H603.2z"/>
		<path class="st6" d="M580.4,486.2c-2.2,0-3.6-1.4-3.6-3.6s1.4-3.6,3.6-3.6h71.1c2.2,0,3.5,1.4,3.5,3.6s-1.2,3.6-3.5,3.6H580.4z"/>
		<path class="st5" d="M655,504.7c0,2.2-1.4,3.6-3.6,3.6s-3.6-1.4-3.6-3.6v-43.4c0-2.2,1.4-3.5,3.6-3.5s3.6,1.2,3.6,3.5V504.7z"/>
		<path class="st3" d="M580.4,508.4c-2.2,0-3.6-1.4-3.6-3.6s1.4-3.6,3.6-3.6h71.1c2.2,0,3.5,1.4,3.5,3.6s-1.2,3.6-3.5,3.6H580.4z"/>
	</g>
	<g class="st2">
		<path class="st7" d="M662.2,399.1c0,2.2-1.4,3.6-3.6,3.6s-3.6-1.4-3.6-3.6v-22.3c0-2.2,1.4-3.5,3.6-3.5s3.6,1.2,3.6,3.5V399.1z"/>
		<path class="st5" d="M685,399.1c0,2.2-1.4,3.6-3.6,3.6s-3.6-1.4-3.6-3.6V328c0-2.2,1.4-3.5,3.6-3.5s3.6,1.2,3.6,3.5V399.1z"/>
		<path class="st8" d="M681.3,331.8c-2.2,0-3.6-1.4-3.6-3.6s1.4-3.6,3.6-3.6h24.1c2.2,0,3.5,1.4,3.5,3.6s-1.2,3.6-3.5,3.6H681.3z"/>
		<path class="st7" d="M709.1,399.1c0,2.2-1.4,3.6-3.6,3.6s-3.6-1.4-3.6-3.6V328c0-2.2,1.4-3.5,3.6-3.5s3.6,1.2,3.6,3.5V399.1z"/>
		<path class="st4" d="M681.3,359.5c-2.2,0-3.6-1.4-3.6-3.6s1.4-3.6,3.6-3.6h48.3c2.2,0,3.5,1.4,3.5,3.6s-1.2,3.6-3.5,3.6H681.3z"/>
		<path class="st6" d="M658.5,380.6c-2.2,0-3.6-1.4-3.6-3.6s1.4-3.6,3.6-3.6h71.1c2.2,0,3.5,1.4,3.5,3.6s-1.2,3.6-3.5,3.6H658.5z"/>
		<path class="st5" d="M733.1,399.1c0,2.2-1.4,3.6-3.6,3.6s-3.6-1.4-3.6-3.6v-43.4c0-2.2,1.4-3.5,3.6-3.5s3.6,1.2,3.6,3.5V399.1z"/>
		<path class="st3" d="M658.5,402.7c-2.2,0-3.6-1.4-3.6-3.6s1.4-3.6,3.6-3.6h71.1c2.2,0,3.5,1.4,3.5,3.6s-1.2,3.6-3.5,3.6H658.5z"/>
	</g>
	<g class="st2">
		<path class="st8" d="M27.7,502.4L56,474.1c1.6-1.6,3.5-1.6,5.1,0s1.6,3.5,0,5.1l-28.3,28.3c-1.6,1.6-3.4,1.5-5-0.1
			C26.2,505.9,26.1,504,27.7,502.4z"/>
		<path class="st3" d="M61.2,472.9c1.6,1.6,1.6,3.5,0,5.1s-3.5,1.6-5.1,0l-28.3-28.3c-1.6-1.6-1.5-3.4,0.1-5s3.4-1.7,5-0.1
			L61.2,472.9z"/>
		<path class="st7" d="M96.9,472.9c1.6,1.6,1.6,3.5,0,5.1s-3.5,1.6-5.1,0l-28.3-28.3c-1.6-1.6-1.5-3.4,0.1-5c1.6-1.6,3.4-1.7,5-0.1
			L96.9,472.9z"/>
		<path class="st6" d="M63.5,502.4l28.3-28.3c1.6-1.6,3.5-1.6,5.1,0s1.6,3.5,0,5.1l-28.3,28.3c-1.6,1.6-3.4,1.5-5-0.1
			C62,505.9,61.9,504,63.5,502.4z"/>
	</g>
	<g class="st2">
		<path class="st8" d="M27.7,396.8L56,368.5c1.6-1.6,3.5-1.6,5.1,0s1.6,3.5,0,5.1L32.9,402c-1.6,1.6-3.4,1.5-5-0.1
			C26.2,400.2,26.1,398.4,27.7,396.8z"/>
		<path class="st3" d="M61.2,367.2c1.6,1.6,1.6,3.5,0,5.1s-3.5,1.6-5.1,0L27.8,344c-1.6-1.6-1.5-3.4,0.1-5s3.4-1.7,5-0.1L61.2,367.2
			z"/>
		<path class="st7" d="M96.9,367.2c1.6,1.6,1.6,3.5,0,5.1s-3.5,1.6-5.1,0L63.5,344c-1.6-1.6-1.5-3.4,0.1-5s3.4-1.7,5-0.1L96.9,367.2
			z"/>
		<path class="st6" d="M63.5,396.8l28.3-28.3c1.6-1.6,3.5-1.6,5.1,0s1.6,3.5,0,5.1L68.6,402c-1.6,1.6-3.4,1.5-5-0.1
			C62,400.2,61.9,398.4,63.5,396.8z"/>
	</g>
	<g class="st2">
		<path class="st8" d="M755.1,291.2l28.3-28.3c1.6-1.6,3.5-1.6,5.1,0s1.6,3.5,0,5.1l-28.3,28.3c-1.6,1.6-3.4,1.5-5-0.1
			S753.5,292.8,755.1,291.2z"/>
		<path class="st3" d="M788.6,261.6c1.6,1.6,1.6,3.5,0,5.1s-3.5,1.6-5.1,0l-28.3-28.3c-1.6-1.6-1.5-3.4,0.1-5s3.4-1.7,5-0.1
			L788.6,261.6z"/>
		<path class="st7" d="M824.3,261.6c1.6,1.6,1.6,3.5,0,5.1s-3.5,1.6-5.1,0l-28.3-28.3c-1.6-1.6-1.5-3.4,0.1-5s3.4-1.7,5-0.1
			L824.3,261.6z"/>
		<path class="st6" d="M790.9,291.2l28.3-28.3c1.6-1.6,3.5-1.6,5.1,0s1.6,3.5,0,5.1L796,296.3c-1.6,1.6-3.4,1.5-5-0.1
			C789.4,294.6,789.3,292.8,790.9,291.2z"/>
	</g>
	<g class="st2">
		<path class="st8" d="M751.8,397.4l28.3-28.3c1.6-1.6,3.5-1.6,5.1,0s1.6,3.5,0,5.1l-28.3,28.3c-1.6,1.6-3.4,1.5-5-0.1
			S750.2,399,751.8,397.4z"/>
		<path class="st3" d="M785.2,367.8c1.6,1.6,1.6,3.5,0,5.1s-3.5,1.6-5.1,0l-28.3-28.3c-1.6-1.6-1.5-3.4,0.1-5s3.4-1.7,5-0.1
			L785.2,367.8z"/>
		<path class="st7" d="M821,367.8c1.6,1.6,1.6,3.5,0,5.1s-3.5,1.6-5.1,0l-28.3-28.3c-1.6-1.6-1.5-3.4,0.1-5s3.4-1.7,5-0.1L821,367.8
			z"/>
		<path class="st6" d="M787.5,397.4l28.3-28.3c1.6-1.6,3.5-1.6,5.1,0s1.6,3.5,0,5.1l-28.3,28.3c-1.6,1.6-3.4,1.5-5-0.1
			C786.1,400.8,785.9,399,787.5,397.4z"/>
	</g>
	<g class="st2">
		<path class="st8" d="M399.8,502.6l28.3-28.3c1.6-1.6,3.5-1.6,5.1,0s1.6,3.5,0,5.1l-28.3,28.3c-1.6,1.6-3.4,1.5-5-0.1
			C398.3,506.1,398.2,504.2,399.8,502.6z"/>
		<path class="st3" d="M433.2,473.1c1.6,1.6,1.6,3.5,0,5.1s-3.5,1.6-5.1,0l-28.3-28.3c-1.6-1.6-1.5-3.4,0.1-5s3.4-1.7,5-0.1
			L433.2,473.1z"/>
		<path class="st7" d="M469,473.1c1.6,1.6,1.6,3.5,0,5.1s-3.5,1.6-5.1,0l-28.3-28.3c-1.6-1.6-1.5-3.4,0.1-5s3.4-1.7,5-0.1L469,473.1
			z"/>
		<path class="st6" d="M435.5,502.6l28.3-28.3c1.6-1.6,3.5-1.6,5.1,0s1.6,3.5,0,5.1l-28.3,28.3c-1.6,1.6-3.4,1.5-5-0.1
			C434,506.1,433.9,504.2,435.5,502.6z"/>
	</g>
	<g class="st2">
		<path class="st5" d="M883.4,271.2c-4.9,0-8.8-4.1-8.8-8.9s3.9-8.9,8.8-8.9c4.8,0,8.9,4.1,8.9,8.9S888.2,271.2,883.4,271.2z"/>
		<path class="st6" d="M848.3,289.1h70.6c2.2,0,3.6,1.4,3.6,3.6s-1.4,3.6-3.6,3.6h-70.6c-2.2,0-3.4-1.4-3.4-3.6
			S846.1,289.1,848.3,289.1z"/>
		<path class="st7" d="M885,217.2l35,35c1.6,1.6,1.6,3.5,0,5.1c-1.6,1.6-3.5,1.6-5.1,0l-35-35c-1.6-1.6-1.5-3.4,0.1-5
			C881.6,215.8,883.4,215.6,885,217.2z"/>
		<path class="st8" d="M884.5,217.3c1.6,1.6,1.7,3.4,0.1,5l-35,35c-1.6,1.6-3.5,1.6-5.1,0c-1.6-1.6-1.6-3.5,0-5.1l35-35
			C881.1,215.6,882.9,215.8,884.5,217.3z"/>
	</g>
	<g class="st2">
		<path class="st5" d="M879.3,376.8c-4.9,0-8.8-4.1-8.8-8.9s3.9-8.9,8.8-8.9c4.8,0,8.9,4.1,8.9,8.9
			C888.2,372.8,884.1,376.8,879.3,376.8z"/>
		<path class="st6" d="M844.2,394.8h70.6c2.2,0,3.6,1.4,3.6,3.6s-1.4,3.6-3.6,3.6h-70.6c-2.2,0-3.4-1.4-3.4-3.6
			C840.7,396.2,841.9,394.8,844.2,394.8z"/>
		<path class="st7" d="M880.9,322.9l35,35c1.6,1.6,1.6,3.5,0,5.1s-3.5,1.6-5.1,0l-35-35c-1.6-1.6-1.5-3.4,0.1-5
			S879.3,321.3,880.9,322.9z"/>
		<path class="st8" d="M880.3,323c1.6,1.6,1.7,3.4,0.1,5l-35,35c-1.6,1.6-3.5,1.6-5.1,0s-1.6-3.5,0-5.1l35-35
			C876.9,321.3,878.8,321.4,880.3,323z"/>
	</g>
	<g class="st2">
		<path class="st5" d="M879.3,482.1c-4.9,0-8.8-4.1-8.8-8.9s3.9-8.9,8.8-8.9c4.8,0,8.9,4.1,8.9,8.9
			C888.2,478.1,884.1,482.1,879.3,482.1z"/>
		<path class="st6" d="M844.2,500.1h70.6c2.2,0,3.6,1.4,3.6,3.6s-1.4,3.6-3.6,3.6h-70.6c-2.2,0-3.4-1.4-3.4-3.6
			S841.9,500.1,844.2,500.1z"/>
		<path class="st7" d="M880.9,428.2l35,35c1.6,1.6,1.6,3.5,0,5.1s-3.5,1.6-5.1,0l-35-35c-1.6-1.6-1.5-3.4,0.1-5
			S879.3,426.6,880.9,428.2z"/>
		<path class="st8" d="M880.3,428.3c1.6,1.6,1.7,3.4,0.1,5l-35,35c-1.6,1.6-3.5,1.6-5.1,0s-1.6-3.5,0-5.1l35-35
			C876.9,426.6,878.8,426.7,880.3,428.3z"/>
	</g>
	<g class="st2">
		<path class="st5" d="M343.1,482.1c-4.9,0-8.8-4.1-8.8-8.9s3.9-8.9,8.8-8.9c4.8,0,8.9,4.1,8.9,8.9S347.9,482.1,343.1,482.1z"/>
		<path class="st6" d="M307.9,500.1h70.6c2.2,0,3.6,1.4,3.6,3.6s-1.4,3.6-3.6,3.6h-70.6c-2.2,0-3.4-1.4-3.4-3.6
			S305.7,500.1,307.9,500.1z"/>
		<path class="st7" d="M344.6,428.2l35,35c1.6,1.6,1.6,3.5,0,5.1s-3.5,1.6-5.1,0l-35-35c-1.6-1.6-1.5-3.4,0.1-5
			S343.1,426.6,344.6,428.2z"/>
		<path class="st8" d="M344.1,428.3c1.6,1.6,1.7,3.4,0.1,5l-35,35c-1.6,1.6-3.5,1.6-5.1,0s-1.6-3.5,0-5.1l35-35
			C340.7,426.6,342.5,426.7,344.1,428.3z"/>
	</g>
	<g class="st2">
		<path class="st3" d="M115.3,169.2c0-2.7,2.2-5,5-5c2.7,0,5,2.3,5,5s-2.3,5-5,5C117.5,174.2,115.3,171.9,115.3,169.2z"/>
		<path class="st4" d="M130.6,191.5c0-2.7,2.2-5,5-5c2.7,0,5,2.3,5,5s-2.3,5-5,5C132.8,196.5,130.6,194.2,130.6,191.5z"/>
		<path class="st5" d="M150.8,130.7c0-2.7,2.2-5,5-5c2.7,0,5,2.3,5,5s-2.3,5-5,5C153,135.7,150.8,133.4,150.8,130.7z"/>
		<path class="st6" d="M161.9,169.2c0-2.7,2.2-5,5-5c2.7,0,5,2.3,5,5s-2.3,5-5,5S161.9,171.9,161.9,169.2z"/>
		<path class="st7" d="M174.4,148.7c0-2.7,2.2-5,5-5c2.7,0,5,2.3,5,5s-2.3,5-5,5C176.6,153.7,174.4,151.5,174.4,148.7z"/>
		<path class="st8" d="M174.4,196.5c0-2.7,2.2-5,5-5c2.7,0,5,2.3,5,5s-2.3,5-5,5C176.6,201.5,174.4,199.2,174.4,196.5z"/>
	</g>
	<g class="st2">
		<path class="st3" d="M666.3,169.2c0-2.7,2.2-5,5-5c2.7,0,5,2.3,5,5s-2.3,5-5,5C668.5,174.2,666.3,171.9,666.3,169.2z"/>
		<path class="st4" d="M681.5,191.5c0-2.7,2.2-5,5-5c2.7,0,5,2.3,5,5s-2.3,5-5,5S681.5,194.2,681.5,191.5z"/>
		<path class="st5" d="M701.8,130.7c0-2.7,2.2-5,5-5c2.7,0,5,2.3,5,5s-2.3,5-5,5C704,135.7,701.8,133.4,701.8,130.7z"/>
		<path class="st6" d="M712.9,169.2c0-2.7,2.2-5,5-5c2.7,0,5,2.3,5,5s-2.3,5-5,5C715.1,174.2,712.9,171.9,712.9,169.2z"/>
		<path class="st7" d="M725.3,148.7c0-2.7,2.2-5,5-5c2.7,0,5,2.3,5,5s-2.3,5-5,5C727.5,153.7,725.3,151.5,725.3,148.7z"/>
		<path class="st8" d="M725.3,196.5c0-2.7,2.2-5,5-5c2.7,0,5,2.3,5,5s-2.3,5-5,5C727.5,201.5,725.3,199.2,725.3,196.5z"/>
	</g>
	<g class="st2">
		<path class="st3" d="M752.1,169.2c0-2.7,2.2-5,5-5c2.7,0,5,2.3,5,5s-2.3,5-5,5C754.4,174.2,752.1,171.9,752.1,169.2z"/>
		<path class="st4" d="M767.4,191.5c0-2.7,2.2-5,5-5c2.7,0,5,2.3,5,5s-2.3,5-5,5C769.6,196.5,767.4,194.2,767.4,191.5z"/>
		<path class="st5" d="M787.7,130.7c0-2.7,2.2-5,5-5c2.7,0,5,2.3,5,5s-2.3,5-5,5C789.9,135.7,787.7,133.4,787.7,130.7z"/>
		<path class="st6" d="M798.8,169.2c0-2.7,2.2-5,5-5c2.7,0,5,2.3,5,5s-2.3,5-5,5C801,174.2,798.8,171.9,798.8,169.2z"/>
		<path class="st7" d="M811.2,148.7c0-2.7,2.2-5,5-5c2.7,0,5,2.3,5,5s-2.3,5-5,5C813.4,153.7,811.2,151.5,811.2,148.7z"/>
		<path class="st8" d="M811.2,196.5c0-2.7,2.2-5,5-5c2.7,0,5,2.3,5,5s-2.3,5-5,5C813.4,201.5,811.2,199.2,811.2,196.5z"/>
	</g>
	<g class="st2">
		<path class="st7" d="M214.9,194.9c0,2.2-1.4,3.6-3.6,3.6s-3.6-1.4-3.6-3.6v-22.3c0-2.2,1.4-3.5,3.6-3.5s3.6,1.2,3.6,3.5V194.9z"/>
		<path class="st5" d="M237.7,194.9c0,2.2-1.4,3.6-3.6,3.6s-3.6-1.4-3.6-3.6v-71.1c0-2.2,1.4-3.5,3.6-3.5s3.6,1.2,3.6,3.5V194.9z"/>
		<path class="st8" d="M234.1,127.5c-2.2,0-3.6-1.4-3.6-3.6s1.4-3.6,3.6-3.6h24.1c2.2,0,3.5,1.4,3.5,3.6s-1.2,3.6-3.5,3.6H234.1z"/>
		<path class="st7" d="M261.8,194.9c0,2.2-1.4,3.6-3.6,3.6s-3.6-1.4-3.6-3.6v-71.1c0-2.2,1.4-3.5,3.6-3.5s3.6,1.2,3.6,3.5V194.9z"/>
		<path class="st4" d="M234.1,155.3c-2.2,0-3.6-1.4-3.6-3.6s1.4-3.6,3.6-3.6h48.3c2.2,0,3.5,1.4,3.5,3.6s-1.2,3.6-3.5,3.6H234.1z"/>
		<path class="st6" d="M211.3,176.3c-2.2,0-3.6-1.4-3.6-3.6s1.4-3.6,3.6-3.6h71.1c2.2,0,3.5,1.4,3.5,3.6s-1.2,3.6-3.5,3.6H211.3z"/>
		<path class="st5" d="M285.9,194.9c0,2.2-1.4,3.6-3.6,3.6s-3.6-1.4-3.6-3.6v-43.4c0-2.2,1.4-3.5,3.6-3.5s3.6,1.2,3.6,3.5V194.9z"/>
		<path class="st3" d="M211.3,198.5c-2.2,0-3.6-1.4-3.6-3.6s1.4-3.6,3.6-3.6h71.1c2.2,0,3.5,1.4,3.5,3.6s-1.2,3.6-3.5,3.6H211.3z"/>
	</g>
	<g class="st2">
		<path class="st7" d="M489.1,194.9c0,2.2-1.4,3.6-3.6,3.6s-3.6-1.4-3.6-3.6v-22.3c0-2.2,1.4-3.5,3.6-3.5s3.6,1.2,3.6,3.5V194.9z"/>
		<path class="st5" d="M511.9,194.9c0,2.2-1.4,3.6-3.6,3.6s-3.6-1.4-3.6-3.6v-71.1c0-2.2,1.4-3.5,3.6-3.5s3.6,1.2,3.6,3.5V194.9z"/>
		<path class="st8" d="M508.2,127.5c-2.2,0-3.6-1.4-3.6-3.6s1.4-3.6,3.6-3.6h24.1c2.2,0,3.5,1.4,3.5,3.6s-1.2,3.6-3.5,3.6H508.2z"/>
		<path class="st7" d="M535.9,194.9c0,2.2-1.4,3.6-3.6,3.6s-3.6-1.4-3.6-3.6v-71.1c0-2.2,1.4-3.5,3.6-3.5s3.6,1.2,3.6,3.5V194.9z"/>
		<path class="st4" d="M508.2,155.3c-2.2,0-3.6-1.4-3.6-3.6s1.4-3.6,3.6-3.6h48.3c2.2,0,3.5,1.4,3.5,3.6s-1.2,3.6-3.5,3.6H508.2z"/>
		<path class="st6" d="M485.4,176.3c-2.2,0-3.6-1.4-3.6-3.6s1.4-3.6,3.6-3.6h71.1c2.2,0,3.5,1.4,3.5,3.6s-1.2,3.6-3.5,3.6H485.4z"/>
		<path class="st5" d="M560,194.9c0,2.2-1.4,3.6-3.6,3.6s-3.6-1.4-3.6-3.6v-43.4c0-2.2,1.4-3.5,3.6-3.5s3.6,1.2,3.6,3.5V194.9z"/>
		<path class="st3" d="M485.4,198.5c-2.2,0-3.6-1.4-3.6-3.6s1.4-3.6,3.6-3.6h71.1c2.2,0,3.5,1.4,3.5,3.6s-1.2,3.6-3.5,3.6H485.4z"/>
	</g>
	<g class="st2">
		<path class="st7" d="M584.1,194.9c0,2.2-1.4,3.6-3.6,3.6s-3.6-1.4-3.6-3.6v-22.3c0-2.2,1.4-3.5,3.6-3.5s3.6,1.2,3.6,3.5V194.9z"/>
		<path class="st5" d="M606.9,194.9c0,2.2-1.4,3.6-3.6,3.6s-3.6-1.4-3.6-3.6v-71.1c0-2.2,1.4-3.5,3.6-3.5s3.6,1.2,3.6,3.5V194.9z"/>
		<path class="st8" d="M603.2,127.5c-2.2,0-3.6-1.4-3.6-3.6s1.4-3.6,3.6-3.6h24.1c2.2,0,3.5,1.4,3.5,3.6s-1.2,3.6-3.5,3.6H603.2z"/>
		<path class="st7" d="M631,194.9c0,2.2-1.4,3.6-3.6,3.6s-3.6-1.4-3.6-3.6v-71.1c0-2.2,1.4-3.5,3.6-3.5s3.6,1.2,3.6,3.5V194.9z"/>
		<path class="st4" d="M603.2,155.3c-2.2,0-3.6-1.4-3.6-3.6s1.4-3.6,3.6-3.6h48.3c2.2,0,3.5,1.4,3.5,3.6s-1.2,3.6-3.5,3.6H603.2z"/>
		<path class="st6" d="M580.4,176.3c-2.2,0-3.6-1.4-3.6-3.6s1.4-3.6,3.6-3.6h71.1c2.2,0,3.5,1.4,3.5,3.6s-1.2,3.6-3.5,3.6H580.4z"/>
		<path class="st5" d="M655,194.9c0,2.2-1.4,3.6-3.6,3.6s-3.6-1.4-3.6-3.6v-43.4c0-2.2,1.4-3.5,3.6-3.5s3.6,1.2,3.6,3.5V194.9z"/>
		<path class="st3" d="M580.4,198.5c-2.2,0-3.6-1.4-3.6-3.6s1.4-3.6,3.6-3.6h71.1c2.2,0,3.5,1.4,3.5,3.6s-1.2,3.6-3.5,3.6H580.4z"/>
	</g>
	<g class="st2">
		<path class="st8" d="M27.7,192.6L56,164.2c1.6-1.6,3.5-1.6,5.1,0s1.6,3.5,0,5.1l-28.3,28.3c-1.6,1.6-3.4,1.5-5-0.1
			C26.2,196,26.1,194.1,27.7,192.6z"/>
		<path class="st3" d="M61.2,163c1.6,1.6,1.6,3.5,0,5.1s-3.5,1.6-5.1,0l-28.3-28.3c-1.6-1.6-1.5-3.4,0.1-5s3.4-1.7,5-0.1L61.2,163z"
			/>
		<path class="st7" d="M96.9,163c1.6,1.6,1.6,3.5,0,5.1s-3.5,1.6-5.1,0l-28.3-28.3c-1.6-1.6-1.5-3.4,0.1-5c1.6-1.6,3.4-1.7,5-0.1
			L96.9,163z"/>
		<path class="st6" d="M63.5,192.6l28.3-28.3c1.6-1.6,3.5-1.6,5.1,0s1.6,3.5,0,5.1l-28.3,28.3c-1.6,1.6-3.4,1.5-5-0.1
			C62,196,61.9,194.1,63.5,192.6z"/>
	</g>
	<g class="st2">
		<path class="st8" d="M399.8,192.8l28.3-28.3c1.6-1.6,3.5-1.6,5.1,0s1.6,3.5,0,5.1l-28.3,28.3c-1.6,1.6-3.4,1.5-5-0.1
			S398.2,194.3,399.8,192.8z"/>
		<path class="st3" d="M433.2,163.2c1.6,1.6,1.6,3.5,0,5.1s-3.5,1.6-5.1,0L399.8,140c-1.6-1.6-1.5-3.4,0.1-5s3.4-1.7,5-0.1
			L433.2,163.2z"/>
		<path class="st7" d="M469,163.2c1.6,1.6,1.6,3.5,0,5.1s-3.5,1.6-5.1,0L435.5,140c-1.6-1.6-1.5-3.4,0.1-5s3.4-1.7,5-0.1L469,163.2z
			"/>
		<path class="st6" d="M435.5,192.8l28.3-28.3c1.6-1.6,3.5-1.6,5.1,0s1.6,3.5,0,5.1l-28.3,28.3c-1.6,1.6-3.4,1.5-5-0.1
			S433.9,194.3,435.5,192.8z"/>
	</g>
	<g class="st2">
		<path class="st5" d="M343.1,172.2c-4.9,0-8.8-4.1-8.8-8.9s3.9-8.9,8.8-8.9c4.8,0,8.9,4.1,8.9,8.9S347.9,172.2,343.1,172.2z"/>
		<path class="st6" d="M307.9,190.2h70.6c2.2,0,3.6,1.4,3.6,3.6s-1.4,3.6-3.6,3.6h-70.6c-2.2,0-3.4-1.4-3.4-3.6
			S305.7,190.2,307.9,190.2z"/>
		<path class="st7" d="M344.6,118.3l35,35c1.6,1.6,1.6,3.5,0,5.1s-3.5,1.6-5.1,0l-35-35c-1.6-1.6-1.5-3.4,0.1-5
			C341.2,116.9,343.1,116.7,344.6,118.3z"/>
		<path class="st8" d="M344.1,118.4c1.6,1.6,1.7,3.4,0.1,5l-35,35c-1.6,1.6-3.5,1.6-5.1,0s-1.6-3.5,0-5.1l35-35
			C340.7,116.7,342.5,116.9,344.1,118.4z"/>
	</g>
	<g class="st2">
		<g>
			<path class="st7" d="M262.9,225.2l26,42.1c1.2,1.9,0.7,3.8-1.2,5c-1.9,1.2-3.8,0.7-5-1.2l-26-42.1c-1.2-1.9-0.6-3.6,1.3-4.8
				C259.9,223,261.7,223.3,262.9,225.2z"/>
			<path class="st8" d="M262.4,225.2c1.2,1.9,0.9,3.7-1,4.9l-42.1,26c-1.9,1.2-3.8,0.7-5-1.2c-1.2-1.9-0.7-3.8,1.2-5l42.1-26
				C259.5,222.8,261.2,223.3,262.4,225.2z"/>
			<path class="st3" d="M240,298.1L214,256c-1.2-1.9-0.7-3.8,1.2-5s3.8-0.7,5,1.2l26,42.1c1.2,1.9,0.6,3.6-1.3,4.8
				C242.9,300.3,241.2,300,240,298.1z"/>
			<path class="st6" d="M240.5,298.1c-1.2-1.9-0.9-3.7,1-4.9l42.1-26c1.9-1.2,3.8-0.7,5,1.2s0.7,3.8-1.2,5l-42.1,26
				C243.4,300.6,241.7,300,240.5,298.1z"/>
		</g>
		<path class="st5" d="M272.1,267.5V296c0,2.2-1.4,3.6-3.6,3.6s-3.6-1.4-3.6-3.6v-28.5c0-2.2,1.4-3.4,3.6-3.4
			S272.1,265.2,272.1,267.5z"/>
	</g>
	<g class="st2">
		<g>
			<path class="st7" d="M893,123.1l26,42.1c1.2,1.9,0.7,3.8-1.2,5s-3.8,0.7-5-1.2l-26-42.1c-1.2-1.9-0.6-3.6,1.3-4.8
				S891.9,121.2,893,123.1z"/>
			<path class="st8" d="M892.5,123.1c1.2,1.9,0.9,3.7-1,4.9l-42.1,26c-1.9,1.2-3.8,0.7-5-1.2s-0.7-3.8,1.2-5l42.1-26
				C889.6,120.7,891.3,121.2,892.5,123.1z"/>
			<path class="st3" d="M870.1,196.1l-26-42.1c-1.2-1.9-0.7-3.8,1.2-5s3.8-0.7,5,1.2l26,42.1c1.2,1.9,0.6,3.6-1.3,4.8
				C873.1,198.3,871.3,198,870.1,196.1z"/>
			<path class="st6" d="M870.7,196.1c-1.2-1.9-0.9-3.7,1-4.9l42.1-26c1.9-1.2,3.8-0.7,5,1.2s0.7,3.8-1.2,5l-42.1,26
				C873.6,198.5,871.8,198,870.7,196.1z"/>
		</g>
		<path class="st5" d="M902.3,165.4v28.5c0,2.2-1.4,3.6-3.6,3.6s-3.6-1.4-3.6-3.6v-28.5c0-2.2,1.4-3.4,3.6-3.4
			S902.3,163.2,902.3,165.4z"/>
	</g>
	<g class="st2">
		<path class="st5" d="M245.2,377c-5.6,0-10.1-4.7-10.1-10.2s4.5-10.2,10.1-10.2c5.5,0,10.2,4.7,10.2,10.2S250.7,377,245.2,377z"/>
		<path class="st6" d="M248.9,331.9V343c0,2.2-1.4,3.6-3.6,3.6s-3.6-1.4-3.6-3.6v-11.1c0-2.2,1.4-3.4,3.6-3.4
			S248.9,329.7,248.9,331.9z"/>
		<path class="st7" d="M272.5,344.7l-7.8,7.8c-1.6,1.6-3.5,1.6-5.1,0s-1.6-3.5,0-5.1l7.8-7.8c1.6-1.6,3.4-1.5,5,0.1
			S274,343.1,272.5,344.7z"/>
		<path class="st4" d="M280.1,370.4H269c-2.2,0-3.6-1.4-3.6-3.6s1.4-3.6,3.6-3.6h11.1c2.2,0,3.4,1.4,3.4,3.6
			C283.6,369,282.4,370.4,280.1,370.4z"/>
		<path class="st8" d="M267.4,394l-7.8-7.8c-1.6-1.6-1.6-3.5,0-5.1s3.5-1.6,5.1,0l7.8,7.8c1.6,1.6,1.5,3.4-0.1,5
			S268.9,395.6,267.4,394z"/>
		<path class="st6" d="M241.7,401.7v-11.1c0-2.2,1.4-3.6,3.6-3.6s3.6,1.4,3.6,3.6v11.1c0,2.2-1.4,3.4-3.6,3.4
			S241.7,403.9,241.7,401.7z"/>
		<path class="st7" d="M218.1,388.9l7.8-7.8c1.6-1.6,3.5-1.6,5.1,0s1.6,3.5,0,5.1l-7.8,7.8c-1.6,1.6-3.4,1.5-5-0.1
			S216.5,390.5,218.1,388.9z"/>
		<path class="st4" d="M210.4,363.2h11.1c2.2,0,3.6,1.4,3.6,3.6s-1.4,3.6-3.6,3.6h-11.1c-2.2,0-3.4-1.4-3.4-3.6
			S208.2,363.2,210.4,363.2z"/>
		<path class="st3" d="M223.1,339.6l7.8,7.8c1.6,1.6,1.6,3.5,0,5.1s-3.5,1.6-5.1,0l-7.8-7.8c-1.6-1.6-1.5-3.4,0.1-5
			C219.8,338.1,221.6,338,223.1,339.6z"/>
	</g>
	<g class="st2">
		<path class="st5" d="M704,274.5c-5.6,0-10.1-4.7-10.1-10.2s4.5-10.2,10.1-10.2c5.5,0,10.2,4.7,10.2,10.2S709.5,274.5,704,274.5z"
			/>
		<path class="st6" d="M707.7,229.5v11.1c0,2.2-1.4,3.6-3.6,3.6s-3.6-1.4-3.6-3.6v-11.1c0-2.2,1.4-3.4,3.6-3.4
			S707.7,227.2,707.7,229.5z"/>
		<path class="st7" d="M731.3,242.2l-7.8,7.8c-1.6,1.6-3.5,1.6-5.1,0s-1.6-3.5,0-5.1l7.8-7.8c1.6-1.6,3.4-1.5,5,0.1
			C732.7,238.8,732.8,240.7,731.3,242.2z"/>
		<path class="st4" d="M738.9,267.9h-11.1c-2.2,0-3.6-1.4-3.6-3.6s1.4-3.6,3.6-3.6h11.1c2.2,0,3.4,1.4,3.4,3.6
			S741.1,267.9,738.9,267.9z"/>
		<path class="st8" d="M726.2,291.5l-7.8-7.8c-1.6-1.6-1.6-3.5,0-5.1s3.5-1.6,5.1,0l7.8,7.8c1.6,1.6,1.5,3.4-0.1,5
			C729.6,293,727.7,293.1,726.2,291.5z"/>
		<path class="st6" d="M700.5,299.2v-11.1c0-2.2,1.4-3.6,3.6-3.6s3.6,1.4,3.6,3.6v11.1c0,2.2-1.4,3.4-3.6,3.4
			S700.5,301.4,700.5,299.2z"/>
		<path class="st7" d="M676.8,286.5l7.8-7.8c1.6-1.6,3.5-1.6,5.1,0s1.6,3.5,0,5.1l-7.8,7.8c-1.6,1.6-3.4,1.5-5-0.1
			C675.4,289.9,675.3,288,676.8,286.5z"/>
		<path class="st4" d="M669.2,260.7h11.1c2.2,0,3.6,1.4,3.6,3.6s-1.4,3.6-3.6,3.6h-11.1c-2.2,0-3.4-1.4-3.4-3.6
			S667,260.7,669.2,260.7z"/>
		<path class="st3" d="M681.9,237.1l7.8,7.8c1.6,1.6,1.6,3.5,0,5.1s-3.5,1.6-5.1,0l-7.8-7.8c-1.6-1.6-1.5-3.4,0.1-5
			C678.5,235.7,680.4,235.6,681.9,237.1z"/>
	</g>
	<g class="st2">
		<path class="st3" d="M26.1,580c0-2.7,2.2-5,5-5c2.7,0,5,2.3,5,5s-2.3,5-5,5C28.3,585,26.1,582.7,26.1,580z"/>
		<path class="st4" d="M41.4,602.3c0-2.7,2.2-5,5-5c2.7,0,5,2.3,5,5s-2.3,5-5,5C43.6,607.3,41.4,605,41.4,602.3z"/>
		<path class="st5" d="M61.6,541.5c0-2.7,2.2-5,5-5c2.7,0,5,2.3,5,5s-2.3,5-5,5C63.8,546.5,61.6,544.2,61.6,541.5z"/>
		<path class="st6" d="M72.8,580c0-2.7,2.2-5,5-5c2.7,0,5,2.3,5,5s-2.3,5-5,5C75,585,72.8,582.7,72.8,580z"/>
		<path class="st7" d="M85.2,559.6c0-2.7,2.2-5,5-5c2.7,0,5,2.3,5,5s-2.3,5-5,5C87.4,564.6,85.2,562.3,85.2,559.6z"/>
		<path class="st8" d="M85.2,607.3c0-2.7,2.2-5,5-5c2.7,0,5,2.3,5,5s-2.3,5-5,5C87.4,612.3,85.2,610,85.2,607.3z"/>
	</g>
	<g class="st2">
		<path class="st3" d="M306.7,580c0-2.7,2.2-5,5-5c2.7,0,5,2.3,5,5s-2.3,5-5,5C308.9,585,306.7,582.7,306.7,580z"/>
		<path class="st4" d="M322,602.3c0-2.7,2.2-5,5-5c2.7,0,5,2.3,5,5s-2.3,5-5,5C324.2,607.3,322,605,322,602.3z"/>
		<path class="st5" d="M342.2,541.5c0-2.7,2.2-5,5-5c2.7,0,5,2.3,5,5s-2.3,5-5,5C344.4,546.5,342.2,544.2,342.2,541.5z"/>
		<path class="st6" d="M353.3,580c0-2.7,2.2-5,5-5c2.7,0,5,2.3,5,5s-2.3,5-5,5C355.5,585,353.3,582.7,353.3,580z"/>
		<path class="st7" d="M365.8,559.6c0-2.7,2.2-5,5-5c2.7,0,5,2.3,5,5s-2.3,5-5,5C368,564.6,365.8,562.3,365.8,559.6z"/>
		<path class="st8" d="M365.8,607.3c0-2.7,2.2-5,5-5c2.7,0,5,2.3,5,5s-2.3,5-5,5C368,612.3,365.8,610,365.8,607.3z"/>
	</g>
	<g class="st2">
		<path class="st7" d="M119.3,605.7c0,2.2-1.4,3.6-3.6,3.6s-3.6-1.4-3.6-3.6v-22.3c0-2.2,1.4-3.5,3.6-3.5s3.6,1.2,3.6,3.5V605.7z"/>
		<path class="st5" d="M142.1,605.7c0,2.2-1.4,3.6-3.6,3.6s-3.6-1.4-3.6-3.6v-71.1c0-2.2,1.4-3.5,3.6-3.5s3.6,1.2,3.6,3.5V605.7z"/>
		<path class="st8" d="M138.4,538.4c-2.2,0-3.6-1.4-3.6-3.6s1.4-3.6,3.6-3.6h24.1c2.2,0,3.5,1.4,3.5,3.6s-1.2,3.6-3.5,3.6H138.4z"/>
		<path class="st7" d="M166.2,605.7c0,2.2-1.4,3.6-3.6,3.6s-3.6-1.4-3.6-3.6v-71.1c0-2.2,1.4-3.5,3.6-3.5s3.6,1.2,3.6,3.5V605.7z"/>
		<path class="st4" d="M138.4,566.1c-2.2,0-3.6-1.4-3.6-3.6s1.4-3.6,3.6-3.6h48.3c2.2,0,3.5,1.4,3.5,3.6s-1.2,3.6-3.5,3.6H138.4z"/>
		<path class="st6" d="M115.6,587.2c-2.2,0-3.6-1.4-3.6-3.6s1.4-3.6,3.6-3.6h71.1c2.2,0,3.5,1.4,3.5,3.6s-1.2,3.6-3.5,3.6H115.6z"/>
		<path class="st5" d="M190.2,605.7c0,2.2-1.4,3.6-3.6,3.6s-3.6-1.4-3.6-3.6v-43.4c0-2.2,1.4-3.5,3.6-3.5s3.6,1.2,3.6,3.5V605.7z"/>
		<path class="st3" d="M115.6,609.3c-2.2,0-3.6-1.4-3.6-3.6s1.4-3.6,3.6-3.6h71.1c2.2,0,3.5,1.4,3.5,3.6s-1.2,3.6-3.5,3.6H115.6z"/>
	</g>
	<g class="st2">
		<path class="st8" d="M394.6,603.4l28.3-28.3c1.6-1.6,3.5-1.6,5.1,0s1.6,3.5,0,5.1l-28.3,28.3c-1.6,1.6-3.4,1.5-5-0.1
			C393.1,606.8,393,605,394.6,603.4z"/>
		<path class="st3" d="M428,573.8c1.6,1.6,1.6,3.5,0,5.1s-3.5,1.6-5.1,0l-28.3-28.3c-1.6-1.6-1.5-3.4,0.1-5s3.4-1.7,5-0.1L428,573.8
			z"/>
		<path class="st7" d="M463.8,573.8c1.6,1.6,1.6,3.5,0,5.1s-3.5,1.6-5.1,0l-28.3-28.3c-1.6-1.6-1.5-3.4,0.1-5s3.4-1.7,5-0.1
			L463.8,573.8z"/>
		<path class="st6" d="M430.3,603.4l28.3-28.3c1.6-1.6,3.5-1.6,5.1,0s1.6,3.5,0,5.1l-28.3,28.3c-1.6,1.6-3.4,1.5-5-0.1
			C428.9,606.8,428.7,605,430.3,603.4z"/>
	</g>
	<g class="st2">
		<path class="st8" d="M755.1,603.4l28.3-28.3c1.6-1.6,3.5-1.6,5.1,0s1.6,3.5,0,5.1l-28.3,28.3c-1.6,1.6-3.4,1.5-5-0.1
			C753.6,606.8,753.5,605,755.1,603.4z"/>
		<path class="st3" d="M788.6,573.8c1.6,1.6,1.6,3.5,0,5.1s-3.5,1.6-5.1,0l-28.3-28.3c-1.6-1.6-1.5-3.4,0.1-5s3.4-1.7,5-0.1
			L788.6,573.8z"/>
		<path class="st7" d="M824.3,573.8c1.6,1.6,1.6,3.5,0,5.1s-3.5,1.6-5.1,0l-28.3-28.3c-1.6-1.6-1.5-3.4,0.1-5s3.4-1.7,5-0.1
			L824.3,573.8z"/>
		<path class="st6" d="M790.9,603.4l28.3-28.3c1.6-1.6,3.5-1.6,5.1,0s1.6,3.5,0,5.1L796,608.5c-1.6,1.6-3.4,1.5-5-0.1
			C789.4,606.8,789.3,605,790.9,603.4z"/>
	</g>
	<g class="st2">
		<g>
			<path class="st7" d="M262.9,537.4l26,42.1c1.2,1.9,0.7,3.8-1.2,5c-1.9,1.2-3.8,0.7-5-1.2l-26-42.1c-1.2-1.9-0.6-3.6,1.3-4.8
				C259.9,535.2,261.7,535.5,262.9,537.4z"/>
			<path class="st8" d="M262.4,537.4c1.2,1.9,0.9,3.7-1,4.9l-42.1,26c-1.9,1.2-3.8,0.7-5-1.2s-0.7-3.8,1.2-5l42.1-26
				C259.5,535,261.2,535.5,262.4,537.4z"/>
			<path class="st3" d="M240,610.4l-26-42.1c-1.2-1.9-0.7-3.8,1.2-5s3.8-0.7,5,1.2l26,42.1c1.2,1.9,0.6,3.6-1.3,4.8
				C242.9,612.5,241.2,612.2,240,610.4z"/>
			<path class="st6" d="M240.5,610.4c-1.2-1.9-0.9-3.7,1-4.9l42.1-26c1.9-1.2,3.8-0.7,5,1.2s0.7,3.8-1.2,5l-42.1,26
				C243.4,612.8,241.7,612.2,240.5,610.4z"/>
		</g>
		<path class="st5" d="M272.1,579.7v28.5c0,2.2-1.4,3.6-3.6,3.6s-3.6-1.4-3.6-3.6v-28.5c0-2.2,1.4-3.4,3.6-3.4
			S272.1,577.5,272.1,579.7z"/>
	</g>
	<g class="st2">
		<g>
			<path class="st7" d="M620.2,537.4l26,42.1c1.2,1.9,0.7,3.8-1.2,5s-3.8,0.7-5-1.2l-26-42.1c-1.2-1.9-0.6-3.6,1.3-4.8
				C617.3,535.2,619.1,535.5,620.2,537.4z"/>
			<path class="st8" d="M619.7,537.4c1.2,1.9,0.9,3.7-1,4.9l-42.1,26c-1.9,1.2-3.8,0.7-5-1.2s-0.7-3.8,1.2-5l42.1-26
				C616.8,535,618.5,535.5,619.7,537.4z"/>
			<path class="st3" d="M597.3,610.4l-26-42.1c-1.2-1.9-0.7-3.8,1.2-5s3.8-0.7,5,1.2l26,42.1c1.2,1.9,0.6,3.6-1.3,4.8
				S598.5,612.2,597.3,610.4z"/>
			<path class="st6" d="M597.8,610.4c-1.2-1.9-0.9-3.7,1-4.9l42.1-26c1.9-1.2,3.8-0.7,5,1.2s0.7,3.8-1.2,5l-42.1,26
				C600.8,612.8,599,612.2,597.8,610.4z"/>
		</g>
		<path class="st5" d="M629.4,579.7v28.5c0,2.2-1.4,3.6-3.6,3.6s-3.6-1.4-3.6-3.6v-28.5c0-2.2,1.4-3.4,3.6-3.4
			S629.4,577.5,629.4,579.7z"/>
	</g>
	<g class="st2">
		<path class="st5" d="M514.7,583.6c-5.6,0-10.1-4.7-10.1-10.2s4.5-10.2,10.1-10.2c5.5,0,10.2,4.7,10.2,10.2
			S520.2,583.6,514.7,583.6z"/>
		<path class="st6" d="M518.4,538.5v11.1c0,2.2-1.4,3.6-3.6,3.6s-3.6-1.4-3.6-3.6v-11.1c0-2.2,1.4-3.4,3.6-3.4
			S518.4,536.3,518.4,538.5z"/>
		<path class="st7" d="M542,551.3l-7.8,7.8c-1.6,1.6-3.5,1.6-5.1,0s-1.6-3.5,0-5.1l7.8-7.8c1.6-1.6,3.4-1.5,5,0.1
			C543.4,547.9,543.5,549.7,542,551.3z"/>
		<path class="st4" d="M549.6,577h-11.1c-2.2,0-3.6-1.4-3.6-3.6s1.4-3.6,3.6-3.6h11.1c2.2,0,3.4,1.4,3.4,3.6S551.9,577,549.6,577z"
			/>
		<path class="st8" d="M536.9,600.6l-7.8-7.8c-1.6-1.6-1.6-3.5,0-5.1s3.5-1.6,5.1,0l7.8,7.8c1.6,1.6,1.5,3.4-0.1,5
			C540.3,602.1,538.4,602.2,536.9,600.6z"/>
		<path class="st6" d="M511.2,608.3v-11.1c0-2.2,1.4-3.6,3.6-3.6s3.6,1.4,3.6,3.6v11.1c0,2.2-1.4,3.4-3.6,3.4
			S511.2,610.5,511.2,608.3z"/>
		<path class="st7" d="M487.6,595.5l7.8-7.8c1.6-1.6,3.5-1.6,5.1,0s1.6,3.5,0,5.1l-7.8,7.8c-1.6,1.6-3.4,1.5-5-0.1
			S486,597.1,487.6,595.5z"/>
		<path class="st4" d="M479.9,569.8H491c2.2,0,3.6,1.4,3.6,3.6s-1.4,3.6-3.6,3.6h-11.1c-2.2,0-3.4-1.4-3.4-3.6
			S477.7,569.8,479.9,569.8z"/>
		<path class="st3" d="M492.6,546.2l7.8,7.8c1.6,1.6,1.6,3.5,0,5.1s-3.5,1.6-5.1,0l-7.8-7.8c-1.6-1.6-1.5-3.4,0.1-5
			C489.3,544.7,491.1,544.6,492.6,546.2z"/>
	</g>
	<g class="st2">
		<path class="st5" d="M708,593.7c-5.6,0-10.1-4.7-10.1-10.2s4.5-10.2,10.1-10.2c5.5,0,10.2,4.7,10.2,10.2S713.5,593.7,708,593.7z"
			/>
		<path class="st6" d="M711.7,548.7v11.1c0,2.2-1.4,3.6-3.6,3.6s-3.6-1.4-3.6-3.6v-11.1c0-2.2,1.4-3.4,3.6-3.4
			S711.7,546.5,711.7,548.7z"/>
		<path class="st7" d="M735.3,561.5l-7.8,7.8c-1.6,1.6-3.5,1.6-5.1,0s-1.6-3.5,0-5.1l7.8-7.8c1.6-1.6,3.4-1.5,5,0.1
			C736.7,558.1,736.8,559.9,735.3,561.5z"/>
		<path class="st4" d="M742.9,587.2h-11.1c-2.2,0-3.6-1.4-3.6-3.6s1.4-3.6,3.6-3.6h11.1c2.2,0,3.4,1.4,3.4,3.6
			S745.1,587.2,742.9,587.2z"/>
		<path class="st8" d="M730.2,610.8l-7.8-7.8c-1.6-1.6-1.6-3.5,0-5.1s3.5-1.6,5.1,0l7.8,7.8c1.6,1.6,1.5,3.4-0.1,5
			S731.7,612.3,730.2,610.8z"/>
		<path class="st6" d="M704.5,618.4v-11.1c0-2.2,1.4-3.6,3.6-3.6s3.6,1.4,3.6,3.6v11.1c0,2.2-1.4,3.4-3.6,3.4
			S704.5,620.7,704.5,618.4z"/>
		<path class="st7" d="M680.8,605.7l7.8-7.8c1.6-1.6,3.5-1.6,5.1,0s1.6,3.5,0,5.1l-7.8,7.8c-1.6,1.6-3.4,1.5-5-0.1
			C679.4,609.1,679.3,607.2,680.8,605.7z"/>
		<path class="st4" d="M673.2,580h11.1c2.2,0,3.6,1.4,3.6,3.6s-1.4,3.6-3.6,3.6h-11.1c-2.2,0-3.4-1.4-3.4-3.6S671,580,673.2,580z"/>
		<path class="st3" d="M685.9,556.4l7.8,7.8c1.6,1.6,1.6,3.5,0,5.1s-3.5,1.6-5.1,0l-7.8-7.8c-1.6-1.6-1.5-3.4,0.1-5
			S684.4,554.8,685.9,556.4z"/>
	</g>
	<g class="st2">
		<path class="st7" d="M849.7,101.5c0,2.2-1.4,3.6-3.6,3.6s-3.6-1.4-3.6-3.6V79.2c0-2.2,1.4-3.5,3.6-3.5s3.6,1.2,3.6,3.5V101.5z"/>
		<path class="st5" d="M872.5,101.5c0,2.2-1.4,3.6-3.6,3.6s-3.6-1.4-3.6-3.6V30.3c0-2.2,1.4-3.5,3.6-3.5s3.6,1.2,3.6,3.5V101.5z"/>
		<path class="st8" d="M868.9,34.2c-2.2,0-3.6-1.4-3.6-3.6s1.4-3.6,3.6-3.6H893c2.2,0,3.5,1.4,3.5,3.6s-1.2,3.6-3.5,3.6H868.9z"/>
		<path class="st7" d="M896.6,101.5c0,2.2-1.4,3.6-3.6,3.6s-3.6-1.4-3.6-3.6V30.3c0-2.2,1.4-3.5,3.6-3.5s3.6,1.2,3.6,3.5V101.5z"/>
		<path class="st4" d="M868.9,61.9c-2.2,0-3.6-1.4-3.6-3.6s1.4-3.6,3.6-3.6h48.3c2.2,0,3.5,1.4,3.5,3.6s-1.2,3.6-3.5,3.6H868.9z"/>
		<path class="st6" d="M846.1,83c-2.2,0-3.6-1.4-3.6-3.6s1.4-3.6,3.6-3.6h71.1c2.2,0,3.5,1.4,3.5,3.6s-1.2,3.6-3.5,3.6H846.1z"/>
		<path class="st5" d="M920.7,101.5c0,2.2-1.4,3.6-3.6,3.6s-3.6-1.4-3.6-3.6V58.1c0-2.2,1.4-3.5,3.6-3.5s3.6,1.2,3.6,3.5V101.5z"/>
		<path class="st3" d="M846.1,105.1c-2.2,0-3.6-1.4-3.6-3.6s1.4-3.6,3.6-3.6h71.1c2.2,0,3.5,1.4,3.5,3.6s-1.2,3.6-3.5,3.6H846.1z"/>
	</g>
	<g class="st2">
		<path class="st3" d="M26.1,69c0-2.7,2.2-5,5-5c2.7,0,5,2.3,5,5s-2.3,5-5,5C28.3,74,26.1,71.7,26.1,69z"/>
		<path class="st4" d="M41.4,91.3c0-2.7,2.2-5,5-5c2.7,0,5,2.3,5,5s-2.3,5-5,5C43.6,96.3,41.4,94,41.4,91.3z"/>
		<path class="st5" d="M61.6,30.5c0-2.7,2.2-5,5-5c2.7,0,5,2.3,5,5s-2.3,5-5,5C63.8,35.5,61.6,33.2,61.6,30.5z"/>
		<path class="st6" d="M72.8,69c0-2.7,2.2-5,5-5c2.7,0,5,2.3,5,5s-2.3,5-5,5C75,74,72.8,71.7,72.8,69z"/>
		<path class="st7" d="M85.2,48.6c0-2.7,2.2-5,5-5c2.7,0,5,2.3,5,5s-2.3,5-5,5C87.4,53.6,85.2,51.3,85.2,48.6z"/>
		<path class="st8" d="M85.2,96.3c0-2.7,2.2-5,5-5c2.7,0,5,2.3,5,5s-2.3,5-5,5C87.4,101.3,85.2,99,85.2,96.3z"/>
	</g>
	<g class="st2">
		<path class="st3" d="M306.7,69c0-2.7,2.2-5,5-5c2.7,0,5,2.3,5,5s-2.3,5-5,5C308.9,74,306.7,71.7,306.7,69z"/>
		<path class="st4" d="M322,91.3c0-2.7,2.2-5,5-5c2.7,0,5,2.3,5,5s-2.3,5-5,5C324.2,96.3,322,94,322,91.3z"/>
		<path class="st5" d="M342.2,30.5c0-2.7,2.2-5,5-5c2.7,0,5,2.3,5,5s-2.3,5-5,5C344.4,35.5,342.2,33.2,342.2,30.5z"/>
		<path class="st6" d="M353.3,69c0-2.7,2.2-5,5-5c2.7,0,5,2.3,5,5s-2.3,5-5,5C355.5,74,353.3,71.7,353.3,69z"/>
		<path class="st7" d="M365.8,48.6c0-2.7,2.2-5,5-5c2.7,0,5,2.3,5,5s-2.3,5-5,5C368,53.6,365.8,51.3,365.8,48.6z"/>
		<path class="st8" d="M365.8,96.3c0-2.7,2.2-5,5-5c2.7,0,5,2.3,5,5s-2.3,5-5,5C368,101.3,365.8,99,365.8,96.3z"/>
	</g>
	<g class="st2">
		<path class="st7" d="M119.3,94.7c0,2.2-1.4,3.6-3.6,3.6s-3.6-1.4-3.6-3.6V72.4c0-2.2,1.4-3.5,3.6-3.5s3.6,1.2,3.6,3.5V94.7z"/>
		<path class="st5" d="M142.1,94.7c0,2.2-1.4,3.6-3.6,3.6s-3.6-1.4-3.6-3.6V23.5c0-2.2,1.4-3.5,3.6-3.5s3.6,1.2,3.6,3.5V94.7z"/>
		<path class="st8" d="M138.4,27.3c-2.2,0-3.6-1.4-3.6-3.6s1.4-3.6,3.6-3.6h24.1c2.2,0,3.5,1.4,3.5,3.6s-1.2,3.6-3.5,3.6H138.4z"/>
		<path class="st7" d="M166.2,94.7c0,2.2-1.4,3.6-3.6,3.6s-3.6-1.4-3.6-3.6V23.5c0-2.2,1.4-3.5,3.6-3.5s3.6,1.2,3.6,3.5V94.7z"/>
		<path class="st4" d="M138.4,55.1c-2.2,0-3.6-1.4-3.6-3.6s1.4-3.6,3.6-3.6h48.3c2.2,0,3.5,1.4,3.5,3.6s-1.2,3.6-3.5,3.6H138.4z"/>
		<path class="st6" d="M115.6,76.2c-2.2,0-3.6-1.4-3.6-3.6s1.4-3.6,3.6-3.6h71.1c2.2,0,3.5,1.4,3.5,3.6s-1.2,3.6-3.5,3.6H115.6z"/>
		<path class="st5" d="M190.2,94.7c0,2.2-1.4,3.6-3.6,3.6s-3.6-1.4-3.6-3.6V51.3c0-2.2,1.4-3.5,3.6-3.5s3.6,1.2,3.6,3.5V94.7z"/>
		<path class="st3" d="M115.6,98.3c-2.2,0-3.6-1.4-3.6-3.6s1.4-3.6,3.6-3.6h71.1c2.2,0,3.5,1.4,3.5,3.6s-1.2,3.6-3.5,3.6H115.6z"/>
	</g>
	<g class="st2">
		<path class="st8" d="M394.6,92.4l28.3-28.3c1.6-1.6,3.5-1.6,5.1,0c1.6,1.6,1.6,3.5,0,5.1l-28.3,28.3c-1.6,1.6-3.4,1.5-5-0.1
			S393,94,394.6,92.4z"/>
		<path class="st3" d="M428,62.8c1.6,1.6,1.6,3.5,0,5.1s-3.5,1.6-5.1,0l-28.3-28.3c-1.6-1.6-1.5-3.4,0.1-5s3.4-1.7,5-0.1L428,62.8z"
			/>
		<path class="st7" d="M463.8,62.8c1.6,1.6,1.6,3.5,0,5.1s-3.5,1.6-5.1,0l-28.3-28.3c-1.6-1.6-1.5-3.4,0.1-5s3.4-1.7,5-0.1
			L463.8,62.8z"/>
		<path class="st6" d="M430.3,92.4l28.3-28.3c1.6-1.6,3.5-1.6,5.1,0c1.6,1.6,1.6,3.5,0,5.1l-28.3,28.3c-1.6,1.6-3.4,1.5-5-0.1
			C428.9,95.8,428.7,94,430.3,92.4z"/>
	</g>
	<g class="st2">
		<path class="st8" d="M755.1,92.4l28.3-28.3c1.6-1.6,3.5-1.6,5.1,0c1.6,1.6,1.6,3.5,0,5.1l-28.3,28.3c-1.6,1.6-3.4,1.5-5-0.1
			S753.5,94,755.1,92.4z"/>
		<path class="st3" d="M788.6,62.8c1.6,1.6,1.6,3.5,0,5.1s-3.5,1.6-5.1,0l-28.3-28.3c-1.6-1.6-1.5-3.4,0.1-5s3.4-1.7,5-0.1
			L788.6,62.8z"/>
		<path class="st7" d="M824.3,62.8c1.6,1.6,1.6,3.5,0,5.1s-3.5,1.6-5.1,0l-28.3-28.3c-1.6-1.6-1.5-3.4,0.1-5s3.4-1.7,5-0.1
			L824.3,62.8z"/>
		<path class="st6" d="M790.9,92.4l28.3-28.3c1.6-1.6,3.5-1.6,5.1,0c1.6,1.6,1.6,3.5,0,5.1L796,97.5c-1.6,1.6-3.4,1.5-5-0.1
			S789.3,94,790.9,92.4z"/>
	</g>
	<g class="st2">
		<g>
			<path class="st7" d="M262.9,26.4l26,42.1c1.2,1.9,0.7,3.8-1.2,5c-1.9,1.2-3.8,0.7-5-1.2l-26-42.1c-1.2-1.9-0.6-3.6,1.3-4.8
				C259.9,24.2,261.7,24.5,262.9,26.4z"/>
			<path class="st8" d="M262.4,26.4c1.2,1.9,0.9,3.7-1,4.9l-42.1,26c-1.9,1.2-3.8,0.7-5-1.2s-0.7-3.8,1.2-5l42.1-26
				C259.5,24,261.2,24.5,262.4,26.4z"/>
			<path class="st3" d="M240,99.3l-26-42.1c-1.2-1.9-0.7-3.8,1.2-5s3.8-0.7,5,1.2l26,42.1c1.2,1.9,0.6,3.6-1.3,4.8
				C242.9,101.5,241.2,101.2,240,99.3z"/>
			<path class="st6" d="M240.5,99.3c-1.2-1.9-0.9-3.7,1-4.9l42.1-26c1.9-1.2,3.8-0.7,5,1.2c1.2,1.9,0.7,3.8-1.2,5l-42.1,26
				C243.4,101.8,241.7,101.2,240.5,99.3z"/>
		</g>
		<path class="st5" d="M272.1,68.7v28.5c0,2.2-1.4,3.6-3.6,3.6s-3.6-1.4-3.6-3.6V68.7c0-2.2,1.4-3.4,3.6-3.4S272.1,66.4,272.1,68.7z
			"/>
	</g>
	<g class="st2">
		<g>
			<path class="st7" d="M620.2,26.4l26,42.1c1.2,1.9,0.7,3.8-1.2,5s-3.8,0.7-5-1.2l-26-42.1c-1.2-1.9-0.6-3.6,1.3-4.8
				C617.3,24.2,619.1,24.5,620.2,26.4z"/>
			<path class="st8" d="M619.7,26.4c1.2,1.9,0.9,3.7-1,4.9l-42.1,26c-1.9,1.2-3.8,0.7-5-1.2s-0.7-3.8,1.2-5l42.1-26
				C616.8,24,618.5,24.5,619.7,26.4z"/>
			<path class="st3" d="M597.3,99.3l-26-42.1c-1.2-1.9-0.7-3.8,1.2-5s3.8-0.7,5,1.2l26,42.1c1.2,1.9,0.6,3.6-1.3,4.8
				S598.5,101.2,597.3,99.3z"/>
			<path class="st6" d="M597.8,99.3c-1.2-1.9-0.9-3.7,1-4.9l42.1-26c1.9-1.2,3.8-0.7,5,1.2c1.2,1.9,0.7,3.8-1.2,5l-42.1,26
				C600.8,101.8,599,101.2,597.8,99.3z"/>
		</g>
		<path class="st5" d="M629.4,68.7v28.5c0,2.2-1.4,3.6-3.6,3.6s-3.6-1.4-3.6-3.6V68.7c0-2.2,1.4-3.4,3.6-3.4S629.4,66.4,629.4,68.7z
			"/>
	</g>
	<g class="st2">
		<path class="st5" d="M514.7,72.5c-5.6,0-10.1-4.7-10.1-10.2s4.5-10.2,10.1-10.2c5.5,0,10.2,4.7,10.2,10.2
			C524.9,67.8,520.2,72.5,514.7,72.5z"/>
		<path class="st6" d="M518.4,27.5v11.1c0,2.2-1.4,3.6-3.6,3.6s-3.6-1.4-3.6-3.6V27.5c0-2.2,1.4-3.4,3.6-3.4S518.4,25.3,518.4,27.5z
			"/>
		<path class="st7" d="M542,40.3l-7.8,7.8c-1.6,1.6-3.5,1.6-5.1,0s-1.6-3.5,0-5.1l7.8-7.8c1.6-1.6,3.4-1.5,5,0.1
			C543.4,36.9,543.5,38.7,542,40.3z"/>
		<path class="st4" d="M549.6,66h-11.1c-2.2,0-3.6-1.4-3.6-3.6s1.4-3.6,3.6-3.6h11.1c2.2,0,3.4,1.4,3.4,3.6
			C553,64.6,551.9,66,549.6,66z"/>
		<path class="st8" d="M536.9,89.6l-7.8-7.8c-1.6-1.6-1.6-3.5,0-5.1s3.5-1.6,5.1,0l7.8,7.8c1.6,1.6,1.5,3.4-0.1,5
			C540.3,91,538.4,91.2,536.9,89.6z"/>
		<path class="st6" d="M511.2,97.2v-11c0-2.2,1.4-3.6,3.6-3.6s3.6,1.4,3.6,3.6v11.1c0,2.2-1.4,3.4-3.6,3.4S511.2,99.5,511.2,97.2z"
			/>
		<path class="st7" d="M487.6,84.5l7.8-7.8c1.6-1.6,3.5-1.6,5.1,0s1.6,3.5,0,5.1l-7.8,7.8c-1.6,1.6-3.4,1.5-5-0.1
			S486,86.1,487.6,84.5z"/>
		<path class="st4" d="M479.9,58.8H491c2.2,0,3.6,1.4,3.6,3.6c0,2.2-1.4,3.6-3.6,3.6h-11.1c-2.2,0-3.4-1.4-3.4-3.6
			C476.5,60.1,477.7,58.8,479.9,58.8z"/>
		<path class="st3" d="M492.6,35.2l7.8,7.8c1.6,1.6,1.6,3.5,0,5.1s-3.5,1.6-5.1,0l-7.8-7.8c-1.6-1.6-1.5-3.4,0.1-5
			S491.1,33.6,492.6,35.2z"/>
	</g>
	<g class="st2">
		<path class="st5" d="M708,82.7c-5.6,0-10.1-4.7-10.1-10.2s4.5-10.2,10.1-10.2c5.5,0,10.2,4.7,10.2,10.2S713.5,82.7,708,82.7z"/>
		<path class="st6" d="M711.7,37.7v11.1c0,2.2-1.4,3.6-3.6,3.6s-3.6-1.4-3.6-3.6V37.7c0-2.2,1.4-3.4,3.6-3.4S711.7,35.4,711.7,37.7z
			"/>
		<path class="st7" d="M735.3,50.4l-7.8,7.8c-1.6,1.6-3.5,1.6-5.1,0s-1.6-3.5,0-5.1l7.8-7.8c1.6-1.6,3.4-1.5,5,0.1
			C736.7,47,736.8,48.9,735.3,50.4z"/>
		<path class="st4" d="M742.9,76.1h-11.1c-2.2,0-3.6-1.4-3.6-3.6s1.4-3.6,3.6-3.6h11.1c2.2,0,3.4,1.4,3.4,3.6S745.1,76.1,742.9,76.1
			z"/>
		<path class="st8" d="M730.2,99.7l-7.8-7.8c-1.6-1.6-1.6-3.5,0-5.1s3.5-1.6,5.1,0l7.8,7.8c1.6,1.6,1.5,3.4-0.1,5
			C733.6,101.2,731.7,101.3,730.2,99.7z"/>
		<path class="st6" d="M704.5,107.4v-11c0-2.2,1.4-3.6,3.6-3.6s3.6,1.4,3.6,3.6v11.1c0,2.2-1.4,3.4-3.6,3.4S704.5,109.6,704.5,107.4
			z"/>
		<path class="st7" d="M680.8,94.7l7.8-7.8c1.6-1.6,3.5-1.6,5.1,0s1.6,3.5,0,5.1l-7.8,7.8c-1.6,1.6-3.4,1.5-5-0.1
			C679.4,98,679.3,96.2,680.8,94.7z"/>
		<path class="st4" d="M673.2,68.9h11.1c2.2,0,3.6,1.4,3.6,3.6s-1.4,3.6-3.6,3.6h-11.1c-2.2,0-3.4-1.4-3.4-3.6S671,68.9,673.2,68.9z
			"/>
		<path class="st3" d="M685.9,45.3l7.8,7.8c1.6,1.6,1.6,3.5,0,5.1s-3.5,1.6-5.1,0l-7.8-7.8c-1.6-1.6-1.5-3.4,0.1-5
			C682.5,43.9,684.4,43.8,685.9,45.3z"/>
	</g>
	<g class="st2">
		<path class="st9" d="M319.9,331.5c0-0.7-0.3-1.3-0.9-1.7c-0.5-0.4-1.2-0.5-1.9-0.5c-0.7,0-1.3,0.2-1.8,0.5
			c-0.6,0.4-0.8,0.9-0.8,1.6c0,0.9,0.5,1.6,1.4,2.1l3.7,2.2c1.6,0.9,2.3,2.3,2.3,4.1c0,1.3-0.5,2.3-1.4,3.1c-0.9,0.7-2,1.1-3.3,1.1
			s-2.4-0.4-3.3-1.2s-1.3-1.8-1.3-3.1c0-0.2,0.1-0.5,0.3-0.6c0.2-0.2,0.4-0.3,0.6-0.3s0.4,0.1,0.6,0.3c0.2,0.2,0.3,0.4,0.3,0.6
			c0,0.8,0.3,1.4,0.8,1.9c0.5,0.4,1.2,0.7,2,0.7s1.5-0.2,2.1-0.5c0.6-0.4,1-1,1-1.8c0-1.1-0.5-2-1.6-2.7l-3.7-2.2
			c-1.4-0.8-2.1-2-2.1-3.6c0-1.2,0.4-2.2,1.3-2.9c0.8-0.7,1.8-1,3.1-1c1.3,0,2.4,0.4,3.2,1.1c0.9,0.7,1.4,1.7,1.4,3
			c0,0.2-0.1,0.4-0.3,0.6c-0.2,0.2-0.4,0.3-0.6,0.3C320.2,332.4,319.9,332.1,319.9,331.5z"/>
		<path class="st9" d="M336.4,343.1c0,0.5-0.2,0.8-0.7,0.9c-0.6,0.1-0.9-0.1-1.1-0.7l-1-4.1h-5.2l-1,4.1c-0.1,0.5-0.4,0.7-0.8,0.7
			c-0.7,0-1-0.3-1-0.9c0-0.1,0-0.2,0-0.2l3.6-15.2h3.5l3.6,15.2C336.4,343,336.4,343,336.4,343.1z M330.6,329.4l-1.8,8h4.4l-1.8-8
			H330.6L330.6,329.4z"/>
		<path class="st9" d="M347.4,328.2c0-0.3,0.1-0.5,0.3-0.6c0.2-0.2,0.4-0.3,0.6-0.3s0.5,0.1,0.6,0.3c0.2,0.2,0.3,0.4,0.3,0.6v15.5
			h-2.7l-4.3-12.9v12.4c0,0.2-0.1,0.5-0.3,0.6c-0.2,0.2-0.4,0.3-0.6,0.3s-0.5-0.1-0.6-0.3s-0.3-0.4-0.3-0.6v-15.5h2.6l4.4,13.3
			V328.2L347.4,328.2L347.4,328.2z"/>
		<path class="st9" d="M357.7,343.1v-13.7h-3.4c-0.2,0-0.4-0.1-0.6-0.3s-0.3-0.4-0.3-0.6s0.1-0.5,0.3-0.6c0.2-0.2,0.4-0.3,0.6-0.3
			h8.6c0.2,0,0.5,0.1,0.6,0.3s0.3,0.4,0.3,0.6s-0.1,0.4-0.3,0.6s-0.4,0.3-0.6,0.3h-3.4v13.7c0,0.6-0.3,0.9-0.9,0.9
			C358,344,357.7,343.7,357.7,343.1z"/>
		<path class="st9" d="M368.3,328.6c0-0.2,0.1-0.5,0.2-0.6c0.2-0.2,0.4-0.3,0.6-0.3h6.4c0.2,0,0.5,0.1,0.6,0.3
			c0.2,0.2,0.3,0.4,0.3,0.6s-0.1,0.4-0.3,0.6c-0.2,0.2-0.4,0.2-0.6,0.2h-2.3v12.5h2.3c0.2,0,0.5,0.1,0.6,0.3s0.3,0.4,0.3,0.6
			s-0.1,0.4-0.3,0.6c-0.2,0.2-0.4,0.2-0.6,0.2h-6.4c-0.6,0-0.9-0.3-0.9-0.8c0-0.2,0.1-0.5,0.2-0.6c0.2-0.2,0.4-0.3,0.6-0.3h2.3
			v-12.5H369C368.6,329.4,368.3,329.1,368.3,328.6z"/>
		<path class="st9" d="M391.6,343.1c0,0.5-0.2,0.8-0.7,0.9c-0.6,0.1-0.9-0.1-1.1-0.7l-1-4.1h-5.2l-1,4.1c-0.1,0.5-0.4,0.7-0.8,0.7
			c-0.7,0-1-0.3-1-0.9c0-0.1,0-0.2,0-0.2l3.6-15.2h3.5l3.6,15.2C391.6,343,391.6,343,391.6,343.1z M385.8,329.4l-1.8,8h4.4l-1.8-8
			H385.8L385.8,329.4z"/>
		<path class="st9" d="M402.7,331.8c0-0.8-0.3-1.4-0.8-1.9s-1.2-0.7-2-0.7s-1.5,0.2-2,0.7s-0.8,1.1-0.8,1.9v7.7
			c0,0.8,0.3,1.4,0.8,1.9s1.2,0.7,2,0.7s1.5-0.2,2-0.7c0.5-0.4,0.8-1.1,0.8-1.9v-3H400c-0.2,0-0.4-0.1-0.6-0.3
			c-0.2-0.2-0.2-0.4-0.2-0.6s0.1-0.4,0.3-0.6c0.2-0.2,0.4-0.3,0.6-0.3h4.6v4.7c0,1-0.3,1.9-0.9,2.7c-0.8,1.1-2.1,1.6-3.7,1.6
			s-2.8-0.5-3.6-1.6c-0.6-0.8-0.9-1.7-0.9-2.7v-7.8c0-1,0.3-1.9,0.9-2.7c0.8-1.1,2-1.6,3.6-1.6s2.8,0.5,3.6,1.6
			c0.6,0.8,0.9,1.7,0.9,2.7c0,0.2-0.1,0.4-0.3,0.6c-0.2,0.2-0.4,0.3-0.6,0.3s-0.4-0.1-0.6-0.3S402.7,332,402.7,331.8z"/>
		<path class="st9" d="M418.3,339.6c0,1-0.3,1.9-0.9,2.7c-0.8,1.1-2.1,1.6-3.7,1.6s-2.8-0.5-3.6-1.6c-0.6-0.8-0.9-1.7-0.9-2.7v-7.8
			c0-1,0.3-1.9,0.9-2.7c0.8-1.1,2-1.6,3.6-1.6s2.8,0.5,3.6,1.6c0.6,0.8,0.9,1.7,0.9,2.7L418.3,339.6L418.3,339.6z M416.6,339.6v-7.7
			c0-0.8-0.3-1.4-0.8-1.9s-1.2-0.7-2-0.7s-1.5,0.2-2,0.7s-0.8,1.1-0.8,1.9v7.7c0,0.8,0.3,1.4,0.8,1.9s1.2,0.7,2,0.7s1.5-0.2,2-0.7
			C416.3,341,416.6,340.4,416.6,339.6z"/>
		<path class="st9" d="M445.9,339.4c0,1-0.3,1.9-0.8,2.7c-0.8,1.1-1.9,1.6-3.4,1.6h-4.9v-16h4.8c1.6,0,2.8,0.5,3.5,1.6
			c0.5,0.8,0.8,1.6,0.8,2.6V339.4z M444.2,339.3V332c0-0.8-0.2-1.4-0.7-1.9s-1.1-0.7-1.9-0.7h-3v12.5h3c0.8,0,1.4-0.2,1.8-0.7
			C443.9,340.8,444.2,340.1,444.2,339.3z"/>
		<path class="st9" d="M452.4,336.1v5.8h6.4c0.2,0,0.4,0.1,0.6,0.3s0.3,0.4,0.3,0.6s-0.1,0.4-0.3,0.6s-0.4,0.3-0.6,0.3h-8.2v-16h8.2
			c0.2,0,0.4,0.1,0.6,0.3s0.3,0.4,0.3,0.6s-0.1,0.4-0.3,0.6c-0.2,0.2-0.4,0.3-0.6,0.3h-6.4v4.9h5.9c0.2,0,0.4,0.1,0.6,0.3
			c0.2,0.2,0.3,0.4,0.3,0.6s-0.1,0.4-0.3,0.6c-0.2,0.2-0.4,0.3-0.6,0.3L452.4,336.1L452.4,336.1z"/>
		<path class="st9" d="M485.5,339.5c0-0.2,0.1-0.4,0.3-0.6c0.2-0.2,0.4-0.3,0.6-0.3s0.5,0.1,0.6,0.3s0.3,0.4,0.3,0.6
			c0,1-0.3,1.9-0.9,2.7c-0.8,1.1-2,1.6-3.7,1.6c-1.6,0-2.8-0.5-3.6-1.6c-0.6-0.8-0.9-1.7-0.9-2.7v-7.8c0-1,0.3-1.9,0.9-2.7
			c0.8-1.1,2-1.6,3.6-1.6s2.8,0.5,3.6,1.5c0.6,0.8,0.9,1.7,0.9,2.7c0,0.2-0.1,0.4-0.3,0.6c-0.2,0.2-0.4,0.2-0.6,0.2
			c-0.6,0-0.9-0.3-0.9-0.9c0-0.8-0.3-1.4-0.8-1.8s-1.2-0.7-2-0.7s-1.5,0.2-2,0.7s-0.8,1.1-0.8,1.9v7.7c0,0.8,0.3,1.4,0.8,1.9
			s1.2,0.7,2,0.7s1.5-0.2,2-0.7C485.3,341,485.5,340.3,485.5,339.5z"/>
		<path class="st9" d="M491.9,343.1v-15c0-0.6,0.3-0.9,0.9-0.9s0.9,0.3,0.9,0.9v6.2h5.8v-6.2c0-0.6,0.3-0.9,0.9-0.9s0.9,0.3,0.9,0.9
			v15c0,0.6-0.3,0.9-0.9,0.9s-0.9-0.3-0.9-0.9v-7h-5.8v7c0,0.6-0.3,0.9-0.9,0.9C492.2,344,491.9,343.7,491.9,343.1z"/>
		<path class="st9" d="M506.3,328.6c0-0.2,0.1-0.5,0.2-0.6c0.2-0.2,0.4-0.3,0.6-0.3h6.4c0.2,0,0.5,0.1,0.6,0.3
			c0.2,0.2,0.3,0.4,0.3,0.6s-0.1,0.4-0.3,0.6s-0.4,0.2-0.6,0.2h-2.3v12.5h2.3c0.2,0,0.5,0.1,0.6,0.3c0.2,0.2,0.3,0.4,0.3,0.6
			s-0.1,0.4-0.3,0.6s-0.4,0.2-0.6,0.2h-6.4c-0.6,0-0.9-0.3-0.9-0.8c0-0.2,0.1-0.5,0.2-0.6s0.4-0.3,0.6-0.3h2.3v-12.5H507
			C506.6,329.4,506.3,329.1,506.3,328.6z"/>
		<path class="st9" d="M527.8,343.6h-8.1v-15.4c0-0.6,0.3-0.9,0.9-0.9c0.3,0,0.5,0.1,0.6,0.3s0.3,0.4,0.3,0.6v13.7h6.4
			c0.2,0,0.5,0.1,0.6,0.3c0.2,0.2,0.3,0.4,0.3,0.6C528.7,343.3,528.4,343.6,527.8,343.6z"/>
		<path class="st9" d="M535.2,336.1v5.8h6.4c0.2,0,0.4,0.1,0.6,0.3s0.3,0.4,0.3,0.6s-0.1,0.4-0.3,0.6s-0.4,0.3-0.6,0.3h-8.2v-16h8.2
			c0.2,0,0.4,0.1,0.6,0.3s0.3,0.4,0.3,0.6s-0.1,0.4-0.3,0.6s-0.4,0.3-0.6,0.3h-6.4v4.9h5.9c0.2,0,0.4,0.1,0.6,0.3
			c0.2,0.2,0.3,0.4,0.3,0.6s-0.1,0.4-0.3,0.6s-0.4,0.3-0.6,0.3L535.2,336.1L535.2,336.1z"/>
	</g>
	<path class="st10" d="M312.5,393.5c0-1,0.3-1.8,1-2.6c0.8-1,2-1.4,3.5-1.4c1.3,0,2.5,0.4,3.3,1.2s1.3,1.9,1.3,3.2
		c0,1.1-0.4,2.1-1.3,3c-0.5,0.5-1.4,1.2-2.8,2c-1.1,0.7-1.8,1.2-2.2,1.6c-0.7,0.6-1,1.3-1,2v1.3h6.8c0.2,0,0.5,0.1,0.6,0.3
		s0.3,0.4,0.3,0.6c0,0.6-0.3,0.8-0.9,0.8h-8.6v-3.1c0-1.1,0.4-2,1.1-2.8c0.5-0.6,1.4-1.2,2.5-1.9c1.3-0.8,2.2-1.4,2.6-1.8
		c0.7-0.7,1.1-1.3,1.1-2c0-0.9-0.2-1.6-0.7-2.1s-1.2-0.7-2.1-0.7c-0.5,0-1,0.2-1.6,0.5c-0.7,0.4-1.1,1-1.2,1.8
		c-0.1,0.6-0.4,0.8-0.9,0.8C312.7,394.4,312.5,394.1,312.5,393.5z"/>
	<path class="st10" d="M335.3,401.6c0,1-0.3,1.9-0.8,2.7c-0.8,1.1-2,1.6-3.5,1.6c-1.6,0-2.7-0.5-3.5-1.6c-0.5-0.8-0.8-1.7-0.8-2.7
		v-7.8c0-1,0.3-1.9,0.8-2.7c0.8-1.1,1.9-1.6,3.5-1.6s2.7,0.5,3.5,1.6c0.5,0.8,0.8,1.7,0.8,2.7V401.6L335.3,401.6z M333.5,401.5v-7.7
		c0-0.8-0.2-1.4-0.7-1.9s-1.1-0.7-1.8-0.7c-0.8,0-1.4,0.2-1.9,0.7s-0.7,1.1-0.7,1.9v7.7c0,0.8,0.2,1.4,0.7,1.9s1.1,0.7,1.9,0.7
		s1.4-0.2,1.8-0.7S333.5,402.3,333.5,401.5z"/>
	<path class="st10" d="M341.1,390.6c0-0.3,0.1-0.5,0.3-0.6s0.4-0.3,0.7-0.3h3.6v14.2h2.8c0.2,0,0.5,0.1,0.6,0.3s0.3,0.4,0.3,0.6
		c0,0.6-0.3,0.8-0.9,0.8h-7.3c-0.6,0-0.9-0.3-0.9-0.8c0-0.6,0.3-0.9,0.9-0.9h2.8v-12.5h-2C341.4,391.4,341.1,391.1,341.1,390.6z"/>
	<path class="st10" d="M353.7,390.6c0-0.6,0.3-0.9,0.9-0.9h9v1.5l-5.2,14.2c-0.1,0.4-0.4,0.6-0.9,0.6c-0.2,0-0.4-0.1-0.6-0.2
		c-0.2-0.2-0.3-0.4-0.3-0.6c0-0.1,0-0.2,0.1-0.3l5-13.3h-7C354,391.5,353.7,391.2,353.7,390.6z"/>
	<g class="st2">
		<path class="st11" d="M312,370.7c0-0.6,0.3-0.9,0.9-0.9s0.9,0.3,0.9,0.9c0,1.7,0.8,2.5,2.3,2.5c1.6,0,2.4-0.8,2.4-2.4v-10.3h-4.3
			c-0.6,0-0.9-0.3-0.9-0.8c0-0.2,0.1-0.5,0.2-0.6s0.4-0.3,0.6-0.3h6v11.9c0,1.3-0.4,2.4-1.1,3.1c-0.7,0.8-1.7,1.1-3,1.1
			s-2.3-0.4-3-1.2C312.4,373,312,372,312,370.7z"/>
		<path class="st11" d="M332.7,359.3c0-0.6,0.3-0.9,0.9-0.9c0.3,0,0.5,0.1,0.6,0.3c0.2,0.2,0.3,0.4,0.3,0.6v11.4
			c0,1-0.3,1.9-0.9,2.7c-0.8,1.1-2.1,1.6-3.7,1.6s-2.8-0.5-3.6-1.6c-0.6-0.8-0.9-1.7-0.9-2.7v-11.3c0-0.6,0.3-0.9,0.9-0.9
			c0.3,0,0.5,0.1,0.6,0.3c0.2,0.2,0.3,0.4,0.3,0.6v11.4c0,0.8,0.3,1.4,0.8,1.9s1.2,0.7,2,0.7s1.5-0.2,2-0.7c0.5-0.4,0.8-1.1,0.8-1.9
			L332.7,359.3L332.7,359.3z"/>
		<path class="st11" d="M347.3,374.7h-8.1v-15.4c0-0.6,0.3-0.9,0.9-0.9c0.3,0,0.5,0.1,0.6,0.3c0.2,0.2,0.3,0.4,0.3,0.6V373h6.4
			c0.2,0,0.5,0.1,0.6,0.3s0.3,0.4,0.3,0.6C348.2,374.5,347.9,374.7,347.3,374.7z"/>
		<path class="st11" d="M353,359.7c0-0.2,0.1-0.5,0.3-0.6c0.2-0.2,0.4-0.3,0.6-0.3h7.8v1.5l-3.3,5c1.1,0.2,2,0.6,2.7,1.4
			c0.7,0.7,1,1.7,1,2.8v1.2c0,1-0.3,1.9-0.9,2.8c-0.8,1.1-2,1.7-3.6,1.7s-2.9-0.5-3.7-1.6c-0.6-0.8-0.9-1.7-0.9-2.8
			c0-0.6,0.3-0.9,0.9-0.9c0.2,0,0.4,0.1,0.6,0.3c0.2,0.2,0.3,0.4,0.3,0.6c0,0.8,0.3,1.5,0.8,1.9c0.5,0.5,1.2,0.7,2,0.7
			s1.5-0.2,2-0.7s0.8-1.1,0.8-1.9v-1.1c0-0.8-0.3-1.4-0.8-1.9c-0.5-0.4-1.2-0.7-2-0.7h-1.2v-1.5l3.2-4.9H354c-0.2,0-0.5-0.1-0.6-0.3
			C353.1,360.1,353,359.9,353,359.7z"/>
		<path class="st11" d="M367.6,359.7c0-0.3,0.1-0.5,0.3-0.6s0.4-0.3,0.7-0.3h3.6V373h2.8c0.2,0,0.5,0.1,0.6,0.3s0.3,0.4,0.3,0.6
			c0,0.6-0.3,0.8-0.9,0.8h-7.3c-0.6,0-0.9-0.3-0.9-0.8c0-0.6,0.3-0.9,0.9-0.9h2.8v-12.5h-1.9C367.9,360.5,367.6,360.2,367.6,359.7z"
			/>
		<path class="st11" d="M381.6,368.7c0-0.6,0.3-0.9,0.9-0.9h5.4c0.6,0,0.9,0.3,0.9,0.9s-0.3,0.9-0.9,0.9h-5.4
			C381.9,369.6,381.6,369.3,381.6,368.7z"/>
		<path class="st11" d="M404.3,374.2c0,0.5-0.2,0.8-0.7,0.9c-0.6,0.1-0.9-0.1-1.1-0.7l-1-4.1h-5.2l-1,4.1c-0.1,0.5-0.4,0.7-0.8,0.7
			c-0.7,0-1-0.3-1-0.9c0-0.1,0-0.2,0-0.2l3.6-15.2h3.5l3.6,15.2C404.3,374.1,404.3,374.1,404.3,374.2z M398.5,360.5l-1.8,8h4.4
			l-1.8-8H398.5z"/>
		<path class="st11" d="M415.5,359.3c0-0.6,0.3-0.9,0.9-0.9c0.3,0,0.5,0.1,0.6,0.3c0.2,0.2,0.3,0.4,0.3,0.6v11.4
			c0,1-0.3,1.9-0.9,2.7c-0.8,1.1-2.1,1.6-3.7,1.6s-2.8-0.5-3.6-1.6c-0.6-0.8-0.9-1.7-0.9-2.7v-11.3c0-0.6,0.3-0.9,0.9-0.9
			c0.3,0,0.5,0.1,0.6,0.3c0.2,0.2,0.3,0.4,0.3,0.6v11.4c0,0.8,0.3,1.4,0.8,1.9s1.2,0.7,2,0.7s1.5-0.2,2-0.7c0.5-0.4,0.8-1.1,0.8-1.9
			L415.5,359.3L415.5,359.3z"/>
		<path class="st11" d="M429.3,362.9c0-0.8-0.3-1.4-0.8-1.9s-1.2-0.7-2-0.7s-1.5,0.2-2,0.7s-0.8,1.1-0.8,1.9v7.7
			c0,0.8,0.3,1.4,0.8,1.9s1.2,0.7,2,0.7s1.5-0.2,2-0.7c0.5-0.4,0.8-1.1,0.8-1.9v-3h-2.8c-0.2,0-0.4-0.1-0.6-0.3
			c-0.2-0.2-0.2-0.4-0.2-0.6s0.1-0.4,0.3-0.6c0.2-0.2,0.4-0.3,0.6-0.3h4.6v4.7c0,1-0.3,1.9-0.9,2.7c-0.8,1.1-2.1,1.6-3.7,1.6
			s-2.8-0.5-3.6-1.6c-0.6-0.8-0.9-1.7-0.9-2.7v-7.8c0-1,0.3-1.9,0.9-2.7c0.8-1.1,2-1.6,3.6-1.6s2.8,0.5,3.6,1.6
			c0.6,0.8,0.9,1.7,0.9,2.7c0,0.2-0.1,0.4-0.3,0.6c-0.2,0.2-0.4,0.3-0.6,0.3s-0.4-0.1-0.6-0.3C429.4,363.4,429.3,363.1,429.3,362.9z
			"/>
		<path class="st11" d="M444.6,370.7c0,1-0.3,1.9-0.8,2.7c-0.8,1.1-2,1.6-3.5,1.6c-1.6,0-2.7-0.5-3.5-1.6c-0.5-0.8-0.8-1.7-0.8-2.7
			v-7.8c0-1,0.3-1.9,0.8-2.7c0.8-1.1,1.9-1.6,3.5-1.6s2.7,0.5,3.5,1.6c0.5,0.8,0.8,1.7,0.8,2.7V370.7L444.6,370.7z M442.9,370.6
			v-7.7c0-0.8-0.2-1.4-0.7-1.9s-1.1-0.7-1.8-0.7c-0.8,0-1.4,0.2-1.9,0.7s-0.7,1.1-0.7,1.9v7.7c0,0.8,0.2,1.4,0.7,1.9
			s1.1,0.7,1.9,0.7s1.4-0.2,1.8-0.7S442.9,371.4,442.9,370.6z"/>
		<path class="st11" d="M458.4,362.7c0,0.6-0.3,0.9-0.9,0.9c-0.5,0-0.8-0.3-0.9-0.9c-0.1-0.7-0.3-1.3-0.8-1.7
			c-0.5-0.4-1-0.6-1.8-0.6c-0.6,0-1.2,0.2-1.7,0.5c-0.7,0.5-1.1,1.2-1.1,2.1v2.6c0.8-0.7,1.7-1,2.8-1c1.6,0,2.8,0.5,3.6,1.6
			c0.6,0.8,0.9,1.7,0.9,2.7v1.8c0,1-0.3,1.8-0.9,2.6c-0.8,1.1-2,1.6-3.6,1.6s-2.8-0.5-3.6-1.6c-0.6-0.8-0.9-1.7-0.9-2.7v-7.8
			c0-1,0.3-1.9,0.9-2.7c0.8-1.1,2-1.6,3.7-1.6c1.5,0,2.6,0.5,3.4,1.5C458.1,360.9,458.4,361.8,458.4,362.7z M456.9,370.6v-1.7
			c0-0.8-0.2-1.4-0.8-1.9c-0.5-0.5-1.2-0.7-2-0.7s-1.5,0.2-2,0.7s-0.8,1.1-0.8,1.9v1.7c0,0.8,0.3,1.4,0.8,1.9s1.2,0.7,2,0.7
			s1.5-0.2,2-0.7C456.6,372.1,456.9,371.5,456.9,370.6z"/>
	</g>
</g>
<g id="Capa_2">
	<g>
		<g id="Layer_1">
			<g>
				<g>
					<path class="st5" d="M652.7,275.3c-3.9,0-7-3.3-7-7.1c0-3.8,3.1-7.1,7-7.1c3.8,0,7.1,3.3,7.1,7.1
						C659.8,272.1,656.6,275.3,652.7,275.3z"/>
					<path class="st6" d="M624.6,289.7H681c1.8,0,2.9,1.1,2.9,2.9s-1.1,2.9-2.9,2.9h-56.5c-1.8,0-2.7-1.1-2.7-2.9
						S622.8,289.7,624.6,289.7z"/>
					<path class="st7" d="M653.9,232.2l28,28c1.3,1.3,1.3,2.8,0,4.1s-2.8,1.3-4.1,0l-28-28c-1.3-1.3-1.2-2.7,0.1-4
						C651.2,231,652.6,230.9,653.9,232.2z"/>
					<path class="st8" d="M653.5,232.3c1.3,1.3,1.4,2.7,0.1,4l-28,28c-1.3,1.3-2.8,1.3-4.1,0s-1.3-2.8,0-4.1l28-28
						C650.8,230.9,652.2,231,653.5,232.3z"/>
				</g>
				<g>
					<path class="st3" d="M409.8,267.9c0-2.2,1.8-4,4-4c2.2,0,4,1.8,4,4s-1.8,4-4,4C411.5,271.9,409.8,270,409.8,267.9z"/>
					<path class="st4" d="M422,285.7c0-2.2,1.8-4,4-4c2.2,0,4,1.8,4,4c0,2.2-1.8,4-4,4C423.8,289.7,422,287.9,422,285.7z"/>
					<path class="st5" d="M438.2,237.1c0-2.2,1.8-4,4-4c2.2,0,4,1.8,4,4c0,2.2-1.8,4-4,4C439.9,241.1,438.2,239.2,438.2,237.1z"/>
					<path class="st6" d="M447,267.9c0-2.2,1.8-4,4-4c2.2,0,4,1.8,4,4s-1.8,4-4,4C448.8,271.9,447,270,447,267.9z"/>
					<path class="st7" d="M457,251.5c0-2.2,1.8-4,4-4c2.2,0,4,1.8,4,4s-1.8,4-4,4C458.8,255.5,457,253.7,457,251.5z"/>
					<path class="st8" d="M457,289.7c0-2.2,1.8-4,4-4c2.2,0,4,1.8,4,4c0,2.2-1.8,4-4,4C458.8,293.7,457,291.9,457,289.7z"/>
				</g>
				<g>
					<path class="st7" d="M259.8,291.8c0,1.8-1.1,2.9-2.9,2.9c-1.8,0-2.9-1.1-2.9-2.9v-17.8c0-1.8,1.1-2.8,2.9-2.8s2.9,1,2.9,2.8
						V291.8z"/>
					<path class="st5" d="M278.1,291.8c0,1.8-1.1,2.9-2.9,2.9s-2.9-1.1-2.9-2.9v-56.9c0-1.8,1.1-2.8,2.9-2.8s2.9,1,2.9,2.8V291.8z"
						/>
					<path class="st8" d="M275.2,237.9c-1.8,0-2.9-1.1-2.9-2.9c0-1.8,1.1-2.9,2.9-2.9h19.3c1.8,0,2.8,1.1,2.8,2.9
						c0,1.8-1,2.9-2.8,2.9H275.2z"/>
					<path class="st7" d="M297.4,291.8c0,1.8-1.1,2.9-2.9,2.9c-1.8,0-2.9-1.1-2.9-2.9v-56.9c0-1.8,1.1-2.8,2.9-2.8s2.9,1,2.9,2.8
						V291.8z"/>
					<path class="st4" d="M275.2,260.1c-1.8,0-2.9-1.1-2.9-2.9s1.1-2.9,2.9-2.9h38.6c1.8,0,2.8,1.1,2.8,2.9s-1,2.9-2.8,2.9H275.2z"
						/>
					<path class="st6" d="M257,277c-1.8,0-2.9-1.1-2.9-2.9s1.1-2.9,2.9-2.9h56.9c1.8,0,2.8,1.1,2.8,2.9s-1,2.9-2.8,2.9H257z"/>
					<path class="st5" d="M316.6,291.8c0,1.8-1.1,2.9-2.9,2.9s-2.9-1.1-2.9-2.9v-34.7c0-1.8,1.1-2.8,2.9-2.8s2.9,1,2.9,2.8V291.8z"
						/>
					<path class="st3" d="M257,294.7c-1.8,0-2.9-1.1-2.9-2.9s1.1-2.9,2.9-2.9h56.9c1.8,0,2.8,1.1,2.8,2.9s-1,2.9-2.8,2.9H257z"/>
				</g>
				<g>
					<path class="st8" d="M480.1,284.5l22.6-22.6c1.3-1.3,2.8-1.3,4.1,0c1.3,1.3,1.3,2.8,0,4.1l-22.6,22.6c-1.3,1.3-2.7,1.2-4-0.1
						C478.9,287.2,478.8,285.8,480.1,284.5z"/>
					<path class="st3" d="M506.9,260.8c1.3,1.3,1.3,2.8,0,4.1c-1.3,1.3-2.8,1.3-4.1,0l-22.6-22.6c-1.3-1.3-1.2-2.7,0.1-4
						c1.3-1.3,2.7-1.4,4-0.1L506.9,260.8z"/>
					<path class="st7" d="M535.4,260.8c1.3,1.3,1.3,2.8,0,4.1s-2.8,1.3-4.1,0l-22.6-22.6c-1.3-1.3-1.2-2.7,0.1-4
						c1.3-1.3,2.7-1.4,4-0.1L535.4,260.8z"/>
					<path class="st6" d="M508.7,284.5l22.6-22.6c1.3-1.3,2.8-1.3,4.1,0s1.3,2.8,0,4.1l-22.6,22.6c-1.3,1.3-2.7,1.2-4-0.1
						C507.5,287.2,507.4,285.8,508.7,284.5z"/>
				</g>
				<g>
					<g>
						<path class="st7" d="M374.7,234.2l20.8,33.7c1,1.5,0.6,3-1,4c-1.5,1-3,0.6-4-1l-20.8-33.7c-1-1.5-0.5-2.9,1-3.8
							C372.3,232.4,373.8,232.7,374.7,234.2z"/>
						<path class="st8" d="M374.3,234.2c1,1.5,0.7,3-0.8,3.9l-33.7,20.8c-1.5,1-3,0.6-4-1s-0.6-3,1-4l33.7-20.8
							C372,232.3,373.4,232.7,374.3,234.2z"/>
						<path class="st3" d="M356.4,292.6l-20.8-33.7c-1-1.5-0.6-3,1-4c1.5-1,3-0.6,4,1l20.8,33.7c1,1.5,0.5,2.9-1,3.8
							C358.8,294.3,357.4,294,356.4,292.6z"/>
						<path class="st6" d="M356.8,292.6c-1-1.5-0.7-3,0.8-3.9l33.7-20.8c1.5-1,3-0.6,4,1c1,1.5,0.6,3-1,4l-33.7,20.8
							C359.1,294.5,357.8,294.1,356.8,292.6z"/>
					</g>
					<path class="st5" d="M382.1,268v22.8c0,1.8-1.1,2.9-2.9,2.9s-2.9-1.1-2.9-2.9V268c0-1.8,1.1-2.7,2.9-2.7
						C381,265.3,382.1,266.3,382.1,268z"/>
				</g>
				<g>
					<path class="st5" d="M576.2,271.5c-4.5,0-8.1-3.8-8.1-8.2s3.6-8.2,8.1-8.2c4.4,0,8.2,3.8,8.2,8.2S580.6,271.5,576.2,271.5z"/>
					<path class="st6" d="M579.1,235.5v8.9c0,1.8-1.1,2.9-2.9,2.9s-2.9-1.1-2.9-2.9v-8.9c0-1.8,1.1-2.7,2.9-2.7
						S579.1,233.7,579.1,235.5z"/>
					<path class="st7" d="M598,245.7l-6.2,6.2c-1.3,1.3-2.8,1.3-4.1,0c-1.3-1.3-1.3-2.8,0-4.1l6.2-6.2c1.3-1.3,2.7-1.2,4,0.1
						C599.1,243,599.3,244.4,598,245.7z"/>
					<path class="st4" d="M604.1,266.3h-8.9c-1.8,0-2.9-1.1-2.9-2.9s1.1-2.9,2.9-2.9h8.9c1.8,0,2.7,1.1,2.7,2.9
						S605.9,266.3,604.1,266.3z"/>
					<path class="st8" d="M593.9,285.1l-6.2-6.2c-1.3-1.3-1.3-2.8,0-4.1c1.3-1.3,2.8-1.3,4.1,0l6.2,6.2c1.3,1.3,1.2,2.7-0.1,4
						C596.6,286.3,595.2,286.4,593.9,285.1z"/>
					<path class="st6" d="M573.4,291.3v-8.9c0-1.8,1.1-2.9,2.9-2.9s2.9,1.1,2.9,2.9v8.9c0,1.8-1.1,2.7-2.9,2.7
						S573.4,293.1,573.4,291.3z"/>
					<path class="st7" d="M554.5,281.1l6.2-6.2c1.3-1.3,2.8-1.3,4.1,0c1.3,1.3,1.3,2.8,0,4.1l-6.2,6.2c-1.3,1.3-2.7,1.2-4-0.1
						C553.3,283.8,553.2,282.3,554.5,281.1z"/>
					<path class="st4" d="M548.3,260.5h8.9c1.8,0,2.9,1.1,2.9,2.9s-1.1,2.9-2.9,2.9h-8.9c-1.8,0-2.7-1.1-2.7-2.9
						S546.6,260.5,548.3,260.5z"/>
					<path class="st3" d="M558.6,241.6l6.2,6.2c1.3,1.3,1.3,2.8,0,4.1c-1.3,1.3-2.8,1.3-4.1,0l-6.2-6.2c-1.3-1.3-1.2-2.7,0.1-4
						C555.8,240.4,557.3,240.3,558.6,241.6z"/>
				</g>
			</g>
		</g>
		<g>
			<path class="st7" d="M389.5,330c0-0.6,0.2-0.8,0.8-0.8h1.6l0.6-2.6h-1.2c-0.6,0-0.8-0.2-0.8-0.8c0-0.2,0.1-0.4,0.2-0.6
				s0.3-0.2,0.6-0.2h1.6l0.8-3.3c0.1-0.2,0.2-0.4,0.4-0.5c0.2-0.1,0.4-0.2,0.6-0.1c0.5,0.2,0.6,0.4,0.6,0.8c0,0.1,0,0.2,0,0.2
				l-0.7,2.9h2.2l0.7-3.3c0.1-0.4,0.4-0.6,0.8-0.6c0.6,0,0.9,0.2,0.9,0.8c0,0.1,0,0.2-0.1,0.2l-0.6,2.9h1c0.2,0,0.4,0.1,0.6,0.2
				c0.2,0.2,0.2,0.4,0.2,0.6c0,0.2-0.1,0.4-0.2,0.6c-0.2,0.2-0.3,0.2-0.6,0.2h-1.4l-0.6,2.6h1c0.2,0,0.4,0.1,0.6,0.2
				s0.2,0.3,0.2,0.6c0,0.6-0.2,0.8-0.8,0.8h-1.4l-1,3.9c-0.1,0.4-0.4,0.6-0.8,0.6c-0.2,0-0.5-0.1-0.6-0.3c-0.2-0.2-0.2-0.5-0.2-0.7
				l0.9-3.4h-2.2l-0.9,3.9c-0.1,0.4-0.4,0.6-0.9,0.6c-0.2,0-0.5-0.1-0.6-0.3s-0.2-0.5-0.2-0.7l0.8-3.4h-1.2
				C389.8,330.8,389.5,330.6,389.5,330z M394.3,326.6l-0.6,2.6h2.2l0.6-2.6H394.3z"/>
			<path class="st7" d="M404.1,320.5h7.9c0.2,0,0.4,0.1,0.6,0.2c0.2,0.2,0.2,0.4,0.2,0.6s-0.1,0.4-0.2,0.6c-0.2,0.2-0.4,0.2-0.6,0.2
				h-6.2v4.8h5.8c0.2,0,0.4,0.1,0.6,0.2c0.2,0.2,0.2,0.4,0.2,0.6c0,0.2-0.1,0.4-0.2,0.6c-0.2,0.2-0.4,0.2-0.6,0.2h-5.8v7.4H404
				L404.1,320.5L404.1,320.5z"/>
			<path class="st7" d="M427.2,335.5c0,0.5-0.2,0.8-0.6,0.9c-0.6,0.1-0.9-0.1-1-0.6l-1-4h-5.2l-1,4c-0.1,0.5-0.4,0.7-0.8,0.7
				c-0.6,0-1-0.3-1-0.9c0-0.1,0-0.2,0-0.2l3.5-14.9h3.4l3.5,14.8C427.1,335.4,427.2,335.5,427.2,335.5z M421.5,322.2l-1.8,7.8h4.3
				l-1.8-7.8H421.5z"/>
			<path class="st7" d="M439.8,331.9c0,1-0.2,1.8-0.8,2.6c-0.7,1-1.8,1.5-3.4,1.5h-4.7v-15.5h4.6c1.3,0,2.3,0.4,3,1.1s1,1.8,1,3v0.2
				c0,0.6-0.2,1.3-0.4,1.8c-0.3,0.6-0.7,1.1-1.3,1.4c0.6,0.3,1.2,0.9,1.5,1.7c0.2,0.6,0.4,1.2,0.4,1.8L439.8,331.9L439.8,331.9z
				 M437.8,324.7v-0.2c0-1.6-0.8-2.4-2.3-2.4h-2.9v5h3C437.1,327.2,437.8,326.4,437.8,324.7z M438.1,331.9v-0.5
				c0-1.7-0.8-2.5-2.4-2.5h-3.1v5.4h3c0.8,0,1.4-0.2,1.8-0.6C437.9,333.3,438.1,332.7,438.1,331.9z"/>
			<path class="st7" d="M451.4,335.9l-2.8-6.4h-2.5v6c0,0.2-0.1,0.5-0.2,0.6c-0.2,0.2-0.4,0.2-0.6,0.2s-0.4-0.1-0.6-0.2
				c-0.2-0.2-0.2-0.4-0.2-0.6v-15h4.6c1.5,0,2.7,0.5,3.4,1.5c0.6,0.7,0.8,1.6,0.8,2.6v0.7c0,1-0.2,1.8-0.7,2.5s-1.2,1.2-2.1,1.5
				l2.6,5.9c0.1,0.1,0.1,0.2,0.1,0.3c0,0.2-0.1,0.4-0.2,0.6c-0.2,0.2-0.4,0.2-0.6,0.2C451.8,336.5,451.5,336.3,451.4,335.9z
				 M451.5,325.3v-0.6c0-0.8-0.2-1.4-0.6-1.8s-1-0.6-1.8-0.6h-3v5.7h3c0.8,0,1.4-0.2,1.8-0.6C451.3,326.7,451.5,326.1,451.5,325.3z"
				/>
			<path class="st7" d="M458.2,321.4c0-0.2,0.1-0.5,0.2-0.6c0.2-0.2,0.3-0.2,0.6-0.2h6.2c0.2,0,0.5,0.1,0.6,0.2s0.2,0.4,0.2,0.6
				s-0.1,0.4-0.2,0.6c-0.2,0.2-0.4,0.2-0.6,0.2H463v12.2h2.3c0.2,0,0.5,0.1,0.6,0.2s0.2,0.4,0.2,0.6s-0.1,0.4-0.2,0.6
				c-0.2,0.2-0.4,0.2-0.6,0.2H459c-0.6,0-0.8-0.2-0.8-0.8c0-0.2,0.1-0.5,0.2-0.6c0.2-0.2,0.3-0.2,0.6-0.2h2.3v-12.2H459
				C458.6,322.2,458.2,321.9,458.2,321.4z"/>
			<path class="st7" d="M478.3,332c0-0.2,0.1-0.4,0.2-0.6c0.2-0.2,0.4-0.2,0.6-0.2c0.2,0,0.5,0.1,0.6,0.2c0.2,0.2,0.2,0.4,0.2,0.6
				c0,1-0.3,1.9-0.9,2.6c-0.8,1-2,1.6-3.6,1.6c-1.5,0-2.7-0.6-3.4-1.6c-0.6-0.8-0.9-1.7-0.9-2.6v-7.5c0-1,0.3-1.8,0.9-2.6
				c0.8-1,2-1.6,3.5-1.6s2.6,0.5,3.4,1.5c0.6,0.8,0.9,1.7,0.9,2.6c0,0.2-0.1,0.4-0.2,0.6c-0.2,0.2-0.4,0.2-0.6,0.2
				c-0.6,0-0.8-0.2-0.8-0.8c0-0.8-0.2-1.4-0.8-1.8c-0.6-0.4-1.1-0.6-1.9-0.6c-0.8,0-1.4,0.2-1.9,0.6s-0.8,1-0.8,1.8v7.5
				c0,0.8,0.2,1.4,0.7,1.8c0.5,0.5,1.1,0.6,1.9,0.6c0.8,0,1.4-0.2,1.9-0.6C478.1,333.5,478.3,332.8,478.3,332z"/>
			<path class="st7" d="M494.4,335.5c0,0.5-0.2,0.8-0.6,0.9c-0.6,0.1-0.9-0.1-1-0.6l-1-4h-5.2l-1,4c-0.1,0.5-0.4,0.7-0.8,0.7
				c-0.6,0-1-0.3-1-0.9c0-0.1,0-0.2,0-0.2l3.5-14.9h3.4l3.5,14.8C494.3,335.4,494.4,335.5,494.4,335.5z M488.7,322.2l-1.8,7.8h4.3
				l-1.8-7.8H488.7z"/>
			<path class="st7" d="M501.8,335.5v-13.4h-3.4c-0.2,0-0.4-0.1-0.6-0.2c-0.2-0.2-0.2-0.4-0.2-0.6c0-0.2,0.1-0.5,0.2-0.6
				c0.2-0.2,0.4-0.2,0.6-0.2h8.3c0.2,0,0.5,0.1,0.6,0.2s0.2,0.4,0.2,0.6s-0.1,0.4-0.2,0.6c-0.2,0.2-0.4,0.2-0.6,0.2h-3.3v13.4
				c0,0.6-0.3,0.9-0.9,0.9C502,336.4,501.8,336.2,501.8,335.5z"/>
			<path class="st7" d="M512,321.4c0-0.2,0.1-0.5,0.2-0.6c0.2-0.2,0.3-0.2,0.6-0.2h6.2c0.2,0,0.5,0.1,0.6,0.2s0.2,0.4,0.2,0.6
				s-0.1,0.4-0.2,0.6c-0.2,0.2-0.4,0.2-0.6,0.2h-2.3v12.2h2.3c0.2,0,0.5,0.1,0.6,0.2s0.2,0.4,0.2,0.6s-0.1,0.4-0.2,0.6
				s-0.4,0.2-0.6,0.2h-6.2c-0.6,0-0.8-0.2-0.8-0.8c0-0.2,0.1-0.5,0.2-0.6c0.2-0.2,0.3-0.2,0.6-0.2h2.3v-12.2h-2.3
				C512.3,322.2,512,321.9,512,321.4z"/>
			<path class="st7" d="M532,321c0-0.2,0.1-0.5,0.2-0.6c0.2-0.2,0.4-0.2,0.6-0.2s0.5,0.1,0.6,0.2c0.2,0.2,0.2,0.4,0.2,0.6v15h-2.6
				l-4.2-12.6v12.1c0,0.2-0.1,0.5-0.2,0.6c-0.2,0.2-0.4,0.2-0.6,0.2s-0.4-0.1-0.6-0.2c-0.2-0.2-0.2-0.4-0.2-0.6v-15h2.6l4.3,13
				L532,321L532,321z"/>
			<path class="st7" d="M545.5,324.5c0-0.8-0.2-1.4-0.7-1.8c-0.5-0.4-1.1-0.6-1.9-0.6s-1.4,0.2-1.9,0.6s-0.8,1-0.8,1.8v7.5
				c0,0.8,0.2,1.4,0.8,1.8s1.1,0.6,1.9,0.6s1.4-0.2,1.9-0.6s0.7-1,0.7-1.8v-2.9h-2.7c-0.2,0-0.4-0.1-0.6-0.2
				c-0.2-0.2-0.2-0.4-0.2-0.6s0.1-0.4,0.2-0.6c0.2-0.2,0.3-0.2,0.6-0.2h4.5v4.6c0,1-0.3,1.8-0.9,2.6c-0.8,1-2,1.6-3.6,1.6
				c-1.5,0-2.7-0.6-3.4-1.6c-0.6-0.8-0.9-1.7-0.9-2.6v-7.6c0-1,0.3-1.8,0.9-2.6c0.8-1,2-1.6,3.5-1.6s2.7,0.6,3.4,1.6
				c0.6,0.8,0.9,1.7,0.9,2.6c0,0.2-0.1,0.4-0.2,0.6s-0.4,0.2-0.6,0.2c-0.2,0-0.4-0.1-0.6-0.2C545.6,325,545.5,324.7,545.5,324.5z"/>
			<path class="st7" d="M431.3,351.1c0-0.7-0.3-1.3-0.9-1.7c-0.5-0.3-1.1-0.6-1.9-0.6c-0.7,0-1.3,0.2-1.8,0.5
				c-0.6,0.4-0.8,0.9-0.8,1.6c0,0.8,0.5,1.5,1.4,2.1l3.6,2.2c1.5,0.9,2.3,2.2,2.3,4c0,1.3-0.5,2.2-1.4,3c-0.9,0.7-1.9,1-3.3,1
				c-1.3,0-2.3-0.4-3.2-1.1c-0.9-0.8-1.3-1.8-1.3-3c0-0.2,0.1-0.4,0.2-0.6c0.2-0.2,0.4-0.2,0.6-0.2s0.4,0.1,0.6,0.2
				c0.2,0.2,0.2,0.4,0.2,0.6c0,0.8,0.2,1.4,0.8,1.8c0.6,0.4,1.2,0.6,2,0.6c0.8,0,1.5-0.2,2-0.5c0.6-0.4,1-1,1-1.8
				c0-1.1-0.5-2-1.5-2.6l-3.7-2.2c-1.4-0.8-2.1-2-2.1-3.5c0-1.2,0.4-2.1,1.3-2.8c0.8-0.6,1.8-1,3-1c1.3,0,2.3,0.3,3.1,1
				c0.9,0.7,1.4,1.7,1.4,3c0,0.2-0.1,0.4-0.2,0.6c-0.2,0.2-0.4,0.2-0.6,0.2C431.5,352,431.3,351.7,431.3,351.1z"/>
			<path class="st7" d="M446.5,359c0,1-0.3,1.8-0.9,2.6c-0.8,1-2,1.6-3.6,1.6c-1.5,0-2.7-0.6-3.4-1.6c-0.6-0.8-0.9-1.7-0.9-2.6v-7.5
				c0-1,0.3-1.8,0.9-2.6c0.8-1,2-1.6,3.5-1.6s2.7,0.6,3.5,1.6c0.6,0.8,0.9,1.7,0.9,2.6V359z M444.8,359v-7.5c0-0.8-0.2-1.4-0.7-1.8
				c-0.5-0.5-1.1-0.6-1.9-0.6c-0.8,0-1.4,0.2-1.9,0.6s-0.8,1-0.8,1.8v7.5c0,0.8,0.2,1.4,0.8,1.8c0.5,0.5,1.2,0.6,1.9,0.6
				c0.8,0,1.4-0.2,1.9-0.6C444.5,360.3,444.8,359.7,444.8,359z"/>
			<path class="st7" d="M458.2,358.9c0-0.2,0.1-0.4,0.2-0.6c0.2-0.2,0.4-0.2,0.6-0.2c0.2,0,0.5,0.1,0.6,0.2c0.2,0.2,0.2,0.4,0.2,0.6
				c0,1-0.3,1.9-0.9,2.6c-0.8,1-2,1.6-3.6,1.6c-1.5,0-2.7-0.6-3.4-1.6c-0.6-0.8-0.9-1.7-0.9-2.6v-7.5c0-1,0.3-1.8,0.9-2.6
				c0.8-1,2-1.6,3.5-1.6s2.6,0.5,3.4,1.5c0.6,0.8,0.9,1.7,0.9,2.6c0,0.2-0.1,0.4-0.2,0.6c-0.2,0.2-0.4,0.2-0.6,0.2
				c-0.6,0-0.8-0.2-0.8-0.8c0-0.8-0.2-1.4-0.8-1.8c-0.6-0.4-1.1-0.6-1.9-0.6c-0.8,0-1.4,0.2-1.9,0.6s-0.8,1-0.8,1.8v7.5
				c0,0.8,0.2,1.4,0.7,1.8c0.5,0.5,1.1,0.6,1.9,0.6c0.8,0,1.4-0.2,1.9-0.6C457.9,360.3,458.2,359.7,458.2,358.9z"/>
			<path class="st7" d="M465,348.3c0-0.2,0.1-0.5,0.2-0.6c0.2-0.2,0.3-0.2,0.6-0.2h6.2c0.2,0,0.5,0.1,0.6,0.2s0.2,0.4,0.2,0.6
				s-0.1,0.4-0.2,0.6c-0.2,0.2-0.4,0.2-0.6,0.2h-2.2v12.2h2.3c0.2,0,0.5,0.1,0.6,0.2c0.2,0.2,0.2,0.4,0.2,0.6s-0.1,0.4-0.2,0.6
				s-0.4,0.2-0.6,0.2h-6.2c-0.6,0-0.8-0.2-0.8-0.8c0-0.2,0.1-0.5,0.2-0.6c0.2-0.2,0.3-0.2,0.6-0.2h2.3v-12.2h-2.3
				C465.3,349.1,465,348.8,465,348.3z"/>
			<path class="st7" d="M479.7,355.5v5.7h6.2c0.2,0,0.4,0.1,0.6,0.2s0.2,0.4,0.2,0.6s-0.1,0.4-0.2,0.6c-0.2,0.2-0.4,0.2-0.6,0.2H478
				v-15.6h7.9c0.2,0,0.4,0.1,0.6,0.2s0.2,0.4,0.2,0.6s-0.1,0.4-0.2,0.6s-0.4,0.2-0.6,0.2h-6.2v4.8h5.8c0.2,0,0.4,0.1,0.6,0.2
				s0.2,0.4,0.2,0.6c0,0.2-0.1,0.4-0.2,0.6c-0.2,0.2-0.4,0.2-0.6,0.2h-5.8V355.5z"/>
			<path class="st7" d="M495,362.4v-13.4h-3.4c-0.2,0-0.4-0.1-0.6-0.2c-0.2-0.2-0.2-0.4-0.2-0.6c0-0.2,0.1-0.5,0.2-0.6
				c0.2-0.2,0.4-0.2,0.6-0.2h8.3c0.2,0,0.5,0.1,0.6,0.2c0.2,0.2,0.2,0.4,0.2,0.6s-0.1,0.4-0.2,0.6c-0.2,0.2-0.4,0.2-0.6,0.2h-3.3
				v13.4c0,0.6-0.3,0.9-0.9,0.9C495.3,363.3,495,363.1,495,362.4z"/>
			<path class="st7" d="M508.4,362.4v-5.1l-3.7-9c-0.1-0.1-0.1-0.2-0.1-0.3c0-0.2,0.1-0.5,0.2-0.6c0.2-0.2,0.4-0.2,0.6-0.2
				c0.4,0,0.6,0.2,0.8,0.6l3,7.3l2.9-7.3c0.2-0.4,0.4-0.6,0.9-0.6c0.2,0,0.5,0.1,0.6,0.2s0.2,0.4,0.2,0.6c0,0.1,0,0.2-0.1,0.4
				l-3.7,9v5.1c0,0.6-0.3,0.9-0.9,0.9C508.7,363.3,508.4,363.1,508.4,362.4z"/>
		</g>
	</g>
</g>
</svg>
