<?xml version="1.0" encoding="utf-8"?>
<!-- Generator: Adobe Illustrator 17.0.0, SVG Export Plug-In . SVG Version: 6.00 Build 0)  -->
<!DOCTYPE svg PUBLIC "-//W3C//DTD SVG 1.1//EN" "http://www.w3.org/Graphics/SVG/1.1/DTD/svg11.dtd">
<svg version="1.1" xmlns="http://www.w3.org/2000/svg" xmlns:xlink="http://www.w3.org/1999/xlink" x="0px" y="0px" width="561px"
	 height="106px" viewBox="35.5 -81 561 106" enable-background="new 35.5 -81 561 106" xml:space="preserve">
<g id="Layer_2_1_">
</g>
<g id="Layer_1">
	<g>
		<g>
			<path fill="#EA5F69" d="M549.812-15.804c-4.872,0-8.785-4.073-8.785-8.865s3.913-8.865,8.785-8.865
				c4.792,0,8.865,4.073,8.865,8.865S554.604-15.804,549.812-15.804z"/>
			<path fill="#DBE5D8" d="M514.656,2.155h70.554c2.231,0,3.603,1.373,3.603,3.603s-1.373,3.603-3.603,3.603h-70.554
				c-2.231,0-3.432-1.373-3.432-3.603S512.426,2.155,514.656,2.155z"/>
			<path fill="#F9F9F9" d="M551.359-69.743l35.006,35.006c1.577,1.577,1.577,3.519,0,5.096c-1.577,1.577-3.519,1.577-5.096,0
				l-35.006-35.006c-1.577-1.577-1.456-3.397,0.121-4.974C547.961-71.199,549.781-71.32,551.359-69.743z"/>
			<path fill="#E53946" d="M550.844-69.622c1.577,1.577,1.699,3.397,0.121,4.974L515.96-29.642c-1.577,1.577-3.519,1.577-5.096,0
				s-1.577-3.519,0-5.096l35.006-35.006C547.448-71.32,549.268-71.199,550.844-69.622z"/>
		</g>
		<g>
			<path fill="#A8D9DB" d="M246.146-25.151c0-2.705,2.209-5.004,4.959-5.004c2.705,0,5.004,2.299,5.004,5.004
				s-2.299,5.005-5.004,5.005C248.355-20.146,246.146-22.446,246.146-25.151z"/>
			<path fill="#467C9D" d="M261.428-2.852c0-2.705,2.209-5.004,4.959-5.004c2.705,0,5.004,2.299,5.004,5.004
				s-2.299,5.005-5.004,5.005C263.637,2.152,261.428-0.147,261.428-2.852z"/>
			<path fill="#EA5F69" d="M281.654-63.657c0-2.705,2.209-5.004,4.959-5.004c2.705,0,5.005,2.299,5.005,5.004
				s-2.299,5.005-5.005,5.005C283.863-58.653,281.654-60.952,281.654-63.657z"/>
			<path fill="#DBE5D8" d="M292.778-25.151c0-2.705,2.209-5.004,4.959-5.004c2.705,0,5.004,2.299,5.004,5.004
				s-2.299,5.005-5.004,5.005C294.987-20.146,292.778-22.446,292.778-25.151z"/>
			<path fill="#F9F9F9" d="M305.216-45.567c0-2.705,2.209-5.005,4.959-5.005c2.705,0,5.004,2.299,5.004,5.005
				s-2.299,5.004-5.004,5.004C307.425-40.563,305.216-42.862,305.216-45.567z"/>
			<path fill="#E53946" d="M305.216,2.152c0-2.705,2.209-5.005,4.959-5.005c2.705,0,5.004,2.299,5.004,5.005
				c0,2.705-2.299,5.004-5.004,5.004C307.425,7.157,305.216,4.857,305.216,2.152z"/>
		</g>
		<g>
			<path fill="#F9F9F9" d="M58.736,4.731c0,2.249-1.384,3.633-3.633,3.633S51.47,6.98,51.47,4.731v-22.31
				c0-2.249,1.384-3.46,3.633-3.46s3.633,1.211,3.633,3.46V4.731z"/>
			<path fill="#EA5F69" d="M81.547,4.731c0,2.249-1.384,3.633-3.633,3.633s-3.633-1.384-3.633-3.633V-66.41
				c0-2.249,1.384-3.46,3.633-3.46s3.633,1.211,3.633,3.46V4.731z"/>
			<path fill="#E53946" d="M77.914-62.604c-2.249,0-3.633-1.384-3.633-3.633s1.384-3.633,3.633-3.633h24.079
				c2.249,0,3.46,1.384,3.46,3.633s-1.211,3.633-3.46,3.633H77.914z"/>
			<path fill="#F9F9F9" d="M105.625,4.731c0,2.249-1.384,3.633-3.633,3.633s-3.633-1.384-3.633-3.633V-66.41
				c0-2.249,1.384-3.46,3.633-3.46s3.633,1.211,3.633,3.46V4.731z"/>
			<path fill="#467C9D" d="M77.914-34.855c-2.249,0-3.633-1.384-3.633-3.633s1.384-3.633,3.633-3.633h48.33
				c2.249,0,3.46,1.384,3.46,3.633s-1.211,3.633-3.46,3.633H77.914z"/>
			<path fill="#DBE5D8" d="M55.103-13.773c-2.249,0-3.633-1.384-3.633-3.633s1.384-3.633,3.633-3.633h71.141
				c2.249,0,3.46,1.384,3.46,3.633s-1.211,3.633-3.46,3.633H55.103z"/>
			<path fill="#EA5F69" d="M129.704,4.731c0,2.249-1.384,3.633-3.633,3.633c-2.249,0-3.633-1.384-3.633-3.633v-43.393
				c0-2.249,1.384-3.46,3.633-3.46c2.249,0,3.633,1.211,3.633,3.46V4.731z"/>
			<path fill="#A8D9DB" d="M55.103,8.364c-2.249,0-3.633-1.384-3.633-3.633s1.384-3.633,3.633-3.633h71.141
				c2.249,0,3.46,1.384,3.46,3.633s-1.211,3.633-3.46,3.633H55.103z"/>
		</g>
		<g>
			<path fill="#E53946" d="M334.046-4.374l28.325-28.325c1.59-1.59,3.548-1.59,5.138,0c1.591,1.591,1.591,3.548,0,5.138
				L339.184,0.764c-1.59,1.59-3.425,1.468-5.016-0.122C332.578-0.949,332.456-2.784,334.046-4.374z"/>
			<path fill="#A8D9DB" d="M367.51-33.944c1.591,1.59,1.591,3.548,0,5.138c-1.59,1.59-3.548,1.59-5.138,0l-28.325-28.325
				c-1.59-1.591-1.468-3.426,0.122-5.016c1.591-1.591,3.426-1.713,5.016-0.122L367.51-33.944z"/>
			<path fill="#F9F9F9" d="M403.262-33.944c1.591,1.59,1.591,3.548,0,5.138c-1.59,1.59-3.548,1.59-5.138,0l-28.325-28.325
				c-1.59-1.591-1.468-3.426,0.122-5.016c1.59-1.591,3.426-1.713,5.016-0.122L403.262-33.944z"/>
			<path fill="#DBE5D8" d="M369.799-4.374l28.325-28.325c1.591-1.59,3.548-1.59,5.138,0c1.591,1.591,1.591,3.548,0,5.138
				L374.937,0.764c-1.59,1.59-3.425,1.468-5.016-0.122C368.331-0.949,368.208-2.784,369.799-4.374z"/>
		</g>
		<g>
			<g>
				<path fill="#F9F9F9" d="M202.355-67.218l25.963,42.078c1.17,1.896,0.723,3.783-1.173,4.952c-1.896,1.17-3.783,0.723-4.952-1.173
					L196.23-63.439c-1.17-1.896-0.633-3.637,1.263-4.807C199.388-69.415,201.185-69.114,202.355-67.218z"/>
				<path fill="#E53946" d="M201.828-67.218c1.17,1.896,0.869,3.693-1.027,4.862l-42.078,25.963
					c-1.896,1.17-3.783,0.723-4.952-1.173c-1.17-1.896-0.723-3.783,1.173-4.952l42.078-25.963
					C198.917-69.651,200.658-69.114,201.828-67.218z"/>
				<path fill="#A8D9DB" d="M179.449,5.712l-25.963-42.078c-1.17-1.896-0.723-3.783,1.173-4.952s3.783-0.723,4.952,1.173
					l25.963,42.078c1.17,1.896,0.633,3.637-1.263,4.807C182.415,7.909,180.619,7.608,179.449,5.712z"/>
				<path fill="#DBE5D8" d="M179.976,5.713c-1.17-1.896-0.869-3.693,1.027-4.862l42.078-25.963c1.896-1.17,3.783-0.723,4.952,1.173
					c1.17,1.896,0.723,3.783-1.173,4.952L184.782,6.976C182.887,8.145,181.146,7.609,179.976,5.713z"/>
			</g>
			<path fill="#EA5F69" d="M211.577-24.959V3.586c0,2.228-1.371,3.599-3.599,3.599s-3.599-1.371-3.599-3.599v-28.545
				c0-2.228,1.371-3.427,3.599-3.427S211.577-27.187,211.577-24.959z"/>
		</g>
		<g>
			<path fill="#EA5F69" d="M454.176-20.584c-5.588,0-10.078-4.672-10.078-10.169s4.489-10.169,10.078-10.169
				c5.497,0,10.169,4.672,10.169,10.169S459.673-20.584,454.176-20.584z"/>
			<path fill="#DBE5D8" d="M457.822-65.622v11.054c0,2.229-1.371,3.6-3.6,3.6s-3.6-1.371-3.6-3.6v-11.054
				c0-2.229,1.371-3.429,3.6-3.429S457.822-67.85,457.822-65.622z"/>
			<path fill="#F9F9F9" d="M481.424-52.863l-7.817,7.817c-1.576,1.576-3.515,1.576-5.091,0s-1.576-3.515,0-5.091l7.817-7.817
				c1.576-1.576,3.394-1.455,4.97,0.121C482.878-56.257,482.999-54.439,481.424-52.863z"/>
			<path fill="#467C9D" d="M489.091-27.153h-11.054c-2.229,0-3.6-1.371-3.6-3.6s1.371-3.6,3.6-3.6h11.054
				c2.229,0,3.429,1.371,3.429,3.6S491.32-27.153,489.091-27.153z"/>
			<path fill="#E53946" d="M476.332-3.551l-7.817-7.817c-1.576-1.576-1.576-3.515,0-5.091s3.515-1.576,5.091,0l7.817,7.817
				c1.576,1.576,1.455,3.394-0.121,4.97C479.727-2.096,477.908-1.975,476.332-3.551z"/>
			<path fill="#DBE5D8" d="M450.622,4.116V-6.938c0-2.229,1.371-3.6,3.6-3.6s3.6,1.371,3.6,3.6V4.116c0,2.229-1.371,3.429-3.6,3.429
				S450.622,6.345,450.622,4.116z"/>
			<path fill="#F9F9F9" d="M427.02-8.642l7.817-7.817c1.576-1.576,3.515-1.576,5.091,0s1.576,3.515,0,5.091l-7.817,7.817
				c-1.576,1.576-3.394,1.455-4.97-0.121C425.566-5.248,425.444-7.066,427.02-8.642z"/>
			<path fill="#467C9D" d="M419.353-34.353h11.054c2.229,0,3.6,1.371,3.6,3.6s-1.371,3.6-3.6,3.6h-11.054
				c-2.229,0-3.429-1.371-3.429-3.6C415.924-32.981,417.124-34.353,419.353-34.353z"/>
			<path fill="#A8D9DB" d="M432.111-57.954l7.817,7.817c1.576,1.576,1.576,3.515,0,5.091s-3.515,1.576-5.091,0l-7.817-7.817
				c-1.576-1.576-1.455-3.394,0.121-4.97S430.536-59.53,432.111-57.954z"/>
		</g>
	</g>
</g>
</svg>
