<?xml version="1.0" encoding="utf-8"?>
<!-- Generator: Adobe Illustrator 21.1.0, SVG Export Plug-In . SVG Version: 6.00 Build 0)  -->
<svg version="1.1" id="Capa_1" xmlns="http://www.w3.org/2000/svg" xmlns:xlink="http://www.w3.org/1999/xlink" x="0px" y="0px"
	 viewBox="0 0 1024 401" style="enable-background:new 0 0 1024 401;" xml:space="preserve">
<style type="text/css">
	.st0{fill:#FFFFFF;}
	.st1{display:none;}
	.st2{display:inline;}
	.st3{fill:#A8D9DB;}
	.st4{fill:#467C9D;}
	.st5{fill:#EA5F69;}
	.st6{fill:#DBE5D8;}
	.st7{fill:#F9F9F9;}
	.st8{fill:#E53946;}
	.st9{fill:#1D3557;}
	.st10{fill:#457B9D;}
	.st11{fill:#E63946;}
	.st12{fill:#DCE6DA;}
	.st13{fill:#A8DADC;}
	.st14{fill:#EC5F69;}
</style>
<g>
	<polygon id="path-3_3_" class="st0" points="1024,119.8 1024,128.4 1020.6,128.4 1020.6,119.8 	"/>
</g>
<g id="Capa_1_1_" class="st1">
	<g class="st2">
		<path class="st3" d="M10.4,73.8c0-2.2,1.9-4.2,4.2-4.2c2.2,0,4.2,1.9,4.2,4.2S16.9,78,14.6,78C12.3,77.9,10.4,76,10.4,73.8z"/>
		<path class="st4" d="M23.3,92.5c0-2.2,1.9-4.2,4.2-4.2c2.2,0,4.2,1.9,4.2,4.2s-1.9,4.2-4.2,4.2C25.1,96.7,23.3,94.7,23.3,92.5z"/>
		<path class="st5" d="M40.2,41.4c0-2.2,1.9-4.2,4.2-4.2c2.2,0,4.2,1.9,4.2,4.2c0,2.2-1.9,4.2-4.2,4.2
			C42.1,45.6,40.2,43.6,40.2,41.4z"/>
		<path class="st6" d="M49.6,73.8c0-2.2,1.9-4.2,4.2-4.2c2.2,0,4.2,1.9,4.2,4.2S56.1,78,53.8,78C51.5,77.9,49.6,76,49.6,73.8z"/>
		<path class="st7" d="M60.1,56.6c0-2.2,1.9-4.2,4.2-4.2c2.2,0,4.2,1.9,4.2,4.2c0,2.2-1.9,4.2-4.2,4.2
			C61.9,60.8,60.1,58.9,60.1,56.6z"/>
		<path class="st8" d="M60.1,96.7c0-2.2,1.9-4.2,4.2-4.2c2.2,0,4.2,1.9,4.2,4.2s-1.9,4.2-4.2,4.2C61.9,100.8,60.1,99,60.1,96.7z"/>
	</g>
	<g class="st2">
		<path class="st3" d="M10.4,341.7c0-2.2,1.9-4.2,4.2-4.2c2.2,0,4.2,1.9,4.2,4.2s-1.9,4.2-4.2,4.2C12.3,345.9,10.4,344,10.4,341.7z"
			/>
		<path class="st4" d="M23.3,360.5c0-2.2,1.9-4.2,4.2-4.2c2.2,0,4.2,1.9,4.2,4.2s-1.9,4.2-4.2,4.2C25.1,364.6,23.3,362.7,23.3,360.5
			z"/>
		<path class="st5" d="M40.2,309.4c0-2.2,1.9-4.2,4.2-4.2c2.2,0,4.2,1.9,4.2,4.2s-1.9,4.2-4.2,4.2C42.1,313.6,40.2,311.6,40.2,309.4
			z"/>
		<path class="st6" d="M49.6,341.7c0-2.2,1.9-4.2,4.2-4.2c2.2,0,4.2,1.9,4.2,4.2s-1.9,4.2-4.2,4.2C51.5,345.9,49.6,344,49.6,341.7z"
			/>
		<path class="st7" d="M60.1,324.6c0-2.2,1.9-4.2,4.2-4.2c2.2,0,4.2,1.9,4.2,4.2c0,2.2-1.9,4.2-4.2,4.2
			C61.9,328.8,60.1,326.8,60.1,324.6z"/>
		<path class="st8" d="M60.1,364.6c0-2.2,1.9-4.2,4.2-4.2c2.2,0,4.2,1.9,4.2,4.2s-1.9,4.2-4.2,4.2C61.9,368.8,60.1,367,60.1,364.6z"
			/>
	</g>
	<g class="st2">
		<path class="st3" d="M177,158.7c0-2.2,1.9-4.2,4.2-4.2c2.2,0,4.2,1.9,4.2,4.2c0,2.2-1.9,4.2-4.2,4.2
			C178.9,162.8,177,160.9,177,158.7z"/>
		<path class="st4" d="M189.9,177.4c0-2.2,1.9-4.2,4.2-4.2c2.2,0,4.2,1.9,4.2,4.2c0,2.2-1.9,4.2-4.2,4.2
			C191.7,181.5,189.9,179.6,189.9,177.4z"/>
		<path class="st5" d="M206.8,126.3c0-2.2,1.9-4.2,4.2-4.2c2.2,0,4.2,1.9,4.2,4.2c0,2.3-1.9,4.2-4.2,4.2S206.8,128.5,206.8,126.3z"
			/>
		<path class="st6" d="M216.2,158.7c0-2.2,1.9-4.2,4.2-4.2c2.2,0,4.2,1.9,4.2,4.2c0,2.2-1.9,4.2-4.2,4.2
			C218.1,162.8,216.2,160.9,216.2,158.7z"/>
		<path class="st7" d="M226.7,141.5c0-2.2,1.9-4.2,4.2-4.2c2.2,0,4.2,1.9,4.2,4.2c0,2.2-1.9,4.2-4.2,4.2
			C228.5,145.7,226.7,143.7,226.7,141.5z"/>
		<path class="st8" d="M226.7,181.5c0-2.2,1.9-4.2,4.2-4.2c2.2,0,4.2,1.9,4.2,4.2s-1.9,4.2-4.2,4.2
			C228.5,185.7,226.7,183.9,226.7,181.5z"/>
	</g>
	<g class="st2">
		<path class="st3" d="M870.6,158.7c0-2.2,1.9-4.2,4.2-4.2c2.2,0,4.2,1.9,4.2,4.2c0,2.2-1.9,4.2-4.2,4.2
			C872.4,162.8,870.6,160.9,870.6,158.7z"/>
		<path class="st4" d="M883.5,177.4c0-2.2,1.9-4.2,4.2-4.2c2.2,0,4.2,1.9,4.2,4.2s-1.9,4.2-4.2,4.2
			C885.3,181.5,883.5,179.6,883.5,177.4z"/>
		<path class="st5" d="M900.4,126.3c0-2.2,1.9-4.2,4.2-4.2c2.2,0,4.2,1.9,4.2,4.2c0,2.2-1.9,4.2-4.2,4.2
			C902.3,130.5,900.4,128.5,900.4,126.3z"/>
		<path class="st6" d="M909.8,158.7c0-2.2,1.9-4.2,4.2-4.2c2.2,0,4.2,1.9,4.2,4.2c0,2.2-1.9,4.2-4.2,4.2
			C911.7,162.8,909.8,160.9,909.8,158.7z"/>
		<path class="st7" d="M920.2,141.5c0-2.2,1.9-4.2,4.2-4.2c2.2,0,4.2,1.9,4.2,4.2c0,2.2-1.9,4.2-4.2,4.2
			C922.1,145.7,920.2,143.7,920.2,141.5z"/>
		<path class="st8" d="M920.2,181.5c0-2.2,1.9-4.2,4.2-4.2c2.2,0,4.2,1.9,4.2,4.2c0,2.2-1.9,4.2-4.2,4.2
			C922.1,185.7,920.2,183.9,920.2,181.5z"/>
	</g>
	<g class="st2">
		<path class="st3" d="M241.9,73.8c0-2.2,1.9-4.2,4.2-4.2c2.2,0,4.2,1.9,4.2,4.2s-1.9,4.2-4.2,4.2C243.7,77.9,241.9,76,241.9,73.8z"
			/>
		<path class="st4" d="M254.7,92.5c0-2.2,1.9-4.2,4.2-4.2c2.2,0,4.2,1.9,4.2,4.2s-1.9,4.2-4.2,4.2C256.5,96.7,254.7,94.7,254.7,92.5
			z"/>
		<path class="st5" d="M271.7,41.4c0-2.2,1.9-4.2,4.2-4.2c2.2,0,4.2,1.9,4.2,4.2c0,2.2-1.9,4.2-4.2,4.2
			C273.5,45.6,271.7,43.6,271.7,41.4z"/>
		<path class="st6" d="M281,73.8c0-2.2,1.9-4.2,4.2-4.2c2.2,0,4.2,1.9,4.2,4.2s-1.9,4.2-4.2,4.2C282.9,77.9,281,76,281,73.8z"/>
		<path class="st7" d="M291.4,56.6c0-2.2,1.9-4.2,4.2-4.2c2.2,0,4.2,1.9,4.2,4.2c0,2.2-1.9,4.2-4.2,4.2S291.4,58.9,291.4,56.6z"/>
		<path class="st8" d="M291.4,96.7c0-2.2,1.9-4.2,4.2-4.2c2.2,0,4.2,1.9,4.2,4.2s-1.9,4.2-4.2,4.2C293.3,100.8,291.4,99,291.4,96.7z
			"/>
	</g>
	<g class="st2">
		<path class="st7" d="M88.6,95.3c0,1.9-1.2,3.1-3.1,3.1s-3.1-1.2-3.1-3.1V76.6c0-1.9,1.2-2.9,3.1-2.9s3.1,1,3.1,2.9V95.3z"/>
		<path class="st5" d="M107.8,95.3c0,1.9-1.2,3.1-3.1,3.1s-3.1-1.2-3.1-3.1V35.6c0-1.9,1.2-2.9,3.1-2.9s3.1,1,3.1,2.9V95.3z"/>
		<path class="st8" d="M104.7,38.8c-1.9,0-3.1-1.2-3.1-3.1c0-1.9,1.2-3.1,3.1-3.1h20.2c1.9,0,2.9,1.2,2.9,3.1c0,1.9-1,3.1-2.9,3.1
			H104.7z"/>
		<path class="st7" d="M128.1,95.3c0,1.9-1.2,3.1-3.1,3.1s-3.1-1.2-3.1-3.1V35.6c0-1.9,1.2-2.9,3.1-2.9s3.1,1,3.1,2.9V95.3z"/>
		<path class="st4" d="M104.7,62.1c-1.9,0-3.1-1.2-3.1-3.1c0-1.9,1.2-3.1,3.1-3.1h40.6c1.9,0,2.9,1.2,2.9,3.1c0,1.9-1,3.1-2.9,3.1
			H104.7z"/>
		<path class="st6" d="M85.6,79.8c-1.9,0-3.1-1.2-3.1-3.1s1.2-3.1,3.1-3.1h59.7c1.9,0,2.9,1.2,2.9,3.1s-1,3.1-2.9,3.1H85.6z"/>
		<path class="st5" d="M148.3,95.3c0,1.9-1.2,3.1-3.1,3.1c-1.9,0-3.1-1.2-3.1-3.1V58.9c0-1.9,1.2-2.9,3.1-2.9c1.9,0,3.1,1,3.1,2.9
			V95.3z"/>
		<path class="st3" d="M85.6,98.4c-1.9,0-3.1-1.2-3.1-3.1s1.2-3.1,3.1-3.1h59.7c1.9,0,2.9,1.2,2.9,3.1s-1,3.1-2.9,3.1H85.6z"/>
	</g>
	<g class="st2">
		<path class="st7" d="M88.6,268.8c0,1.9-1.2,3.1-3.1,3.1s-3.1-1.2-3.1-3.1v-18.7c0-1.9,1.2-2.9,3.1-2.9s3.1,1,3.1,2.9V268.8z"/>
		<path class="st5" d="M107.8,268.8c0,1.9-1.2,3.1-3.1,3.1s-3.1-1.2-3.1-3.1v-59.7c0-1.9,1.2-2.9,3.1-2.9s3.1,1,3.1,2.9V268.8z"/>
		<path class="st8" d="M104.7,212.3c-1.9,0-3.1-1.2-3.1-3.1c0-1.9,1.2-3.1,3.1-3.1h20.2c1.9,0,2.9,1.2,2.9,3.1c0,1.9-1,3.1-2.9,3.1
			H104.7z"/>
		<path class="st7" d="M128.1,268.8c0,1.9-1.2,3.1-3.1,3.1s-3.1-1.2-3.1-3.1v-59.7c0-1.9,1.2-2.9,3.1-2.9s3.1,1,3.1,2.9V268.8z"/>
		<path class="st4" d="M104.7,235.6c-1.9,0-3.1-1.2-3.1-3.1c0-1.9,1.2-3.1,3.1-3.1h40.6c1.9,0,2.9,1.2,2.9,3.1c0,1.9-1,3.1-2.9,3.1
			H104.7z"/>
		<path class="st6" d="M85.6,253.3c-1.9,0-3.1-1.2-3.1-3.1s1.2-3.1,3.1-3.1h59.7c1.9,0,2.9,1.2,2.9,3.1s-1,3.1-2.9,3.1H85.6z"/>
		<path class="st5" d="M148.3,268.8c0,1.9-1.2,3.1-3.1,3.1c-1.9,0-3.1-1.2-3.1-3.1v-36.5c0-1.9,1.2-2.9,3.1-2.9c1.9,0,3.1,1,3.1,2.9
			V268.8z"/>
		<path class="st3" d="M85.6,271.9c-1.9,0-3.1-1.2-3.1-3.1s1.2-3.1,3.1-3.1h59.7c1.9,0,2.9,1.2,2.9,3.1s-1,3.1-2.9,3.1H85.6z"/>
	</g>
	<g class="st2">
		<path class="st8" d="M315.7,93.4l23.8-23.8c1.3-1.3,3-1.3,4.3,0s1.3,3,0,4.3L320,97.7c-1.3,1.3-2.9,1.3-4.2-0.1
			C314.4,96.3,314.3,94.7,315.7,93.4z"/>
		<path class="st3" d="M343.8,68.5c1.3,1.3,1.3,3,0,4.3s-3,1.3-4.3,0L315.7,49c-1.3-1.3-1.3-2.9,0.1-4.2c1.3-1.3,2.9-1.4,4.2-0.1
			L343.8,68.5z"/>
		<path class="st7" d="M373.7,68.5c1.3,1.3,1.3,3,0,4.3s-3,1.3-4.3,0L345.6,49c-1.3-1.3-1.3-2.9,0.1-4.2c1.3-1.3,2.9-1.4,4.2-0.1
			L373.7,68.5z"/>
		<path class="st6" d="M345.7,93.4l23.8-23.8c1.3-1.3,3-1.3,4.3,0s1.3,3,0,4.3L350,97.7c-1.3,1.3-2.9,1.3-4.2-0.1
			C344.4,96.3,344.4,94.7,345.7,93.4z"/>
	</g>
	<g class="st2">
		<path class="st8" d="M13,176l23.8-23.8c1.3-1.3,3-1.3,4.3,0s1.3,3,0,4.3l-23.8,23.8c-1.3,1.3-2.9,1.3-4.2-0.1
			C11.7,178.9,11.6,177.4,13,176z"/>
		<path class="st3" d="M41.1,151.2c1.3,1.3,1.3,3,0,4.3s-3,1.3-4.3,0L13,131.7c-1.3-1.3-1.3-2.9,0.1-4.2c1.3-1.3,2.9-1.4,4.2-0.1
			L41.1,151.2z"/>
		<path class="st7" d="M71,151.2c1.3,1.3,1.3,3,0,4.3s-3,1.3-4.3,0l-23.8-23.8c-1.3-1.3-1.3-2.9,0.1-4.2c1.3-1.3,2.9-1.4,4.2-0.1
			L71,151.2z"/>
		<path class="st6" d="M43,176l23.8-23.8c1.3-1.3,3-1.3,4.3,0s1.3,3,0,4.3l-23.8,23.8c-1.3,1.3-2.9,1.3-4.2-0.1
			C41.7,178.9,41.7,177.4,43,176z"/>
	</g>
	<g class="st2">
		<path class="st8" d="M86.3,359.1l23.8-23.8c1.3-1.3,3-1.3,4.3,0s1.3,3,0,4.3l-23.8,23.8c-1.3,1.3-2.9,1.3-4.2-0.1
			C85,362,85,360.5,86.3,359.1z"/>
		<path class="st3" d="M114.4,334.3c1.3,1.3,1.3,3,0,4.3s-3,1.3-4.3,0l-23.8-23.8c-1.3-1.3-1.3-2.9,0.1-4.2c1.3-1.3,2.9-1.4,4.2-0.1
			L114.4,334.3z"/>
		<path class="st7" d="M144.4,334.3c1.3,1.3,1.3,3,0,4.3s-3,1.3-4.3,0l-23.8-23.8c-1.3-1.3-1.3-2.9,0.1-4.2c1.3-1.3,2.9-1.4,4.2-0.1
			L144.4,334.3z"/>
		<path class="st6" d="M116.3,359.1l23.8-23.8c1.3-1.3,3-1.3,4.3,0s1.3,3,0,4.3l-23.8,23.8c-1.3,1.3-2.9,1.3-4.2-0.1
			C115.1,362,115,360.5,116.3,359.1z"/>
	</g>
	<g class="st2">
		<path class="st8" d="M870.5,93.4l23.8-23.8c1.3-1.3,3-1.3,4.3,0s1.3,3,0,4.3l-23.8,23.8c-1.3,1.3-2.9,1.3-4.2-0.1
			C869.3,96.3,869.1,94.7,870.5,93.4z"/>
		<path class="st3" d="M898.6,68.5c1.3,1.3,1.3,3,0,4.3s-3,1.3-4.3,0L870.5,49c-1.3-1.3-1.3-2.9,0.1-4.2c1.3-1.3,2.9-1.4,4.2-0.1
			L898.6,68.5z"/>
		<path class="st7" d="M928.6,68.5c1.3,1.3,1.3,3,0,4.3s-3,1.3-4.3,0L900.5,49c-1.3-1.3-1.3-2.9,0.1-4.2c1.3-1.3,2.9-1.4,4.2-0.1
			L928.6,68.5z"/>
		<path class="st6" d="M900.5,93.4l23.8-23.8c1.3-1.3,3-1.3,4.3,0s1.3,3,0,4.3l-23.8,23.8c-1.3,1.3-2.9,1.3-4.2-0.1
			C899.3,96.3,899.2,94.7,900.5,93.4z"/>
	</g>
	<g class="st2">
		<path class="st8" d="M796.8,176l23.8-23.8c1.3-1.3,3-1.3,4.3,0s1.3,3,0,4.3l-23.8,23.8c-1.3,1.3-2.9,1.3-4.2-0.1
			C795.6,178.9,795.5,177.4,796.8,176z"/>
		<path class="st3" d="M824.9,151.2c1.3,1.3,1.3,3,0,4.3s-3,1.3-4.3,0l-23.8-23.8c-1.3-1.3-1.3-2.9,0.1-4.2c1.3-1.3,2.9-1.4,4.2-0.1
			L824.9,151.2z"/>
		<path class="st7" d="M855,151.2c1.3,1.3,1.3,3,0,4.3s-3,1.3-4.3,0l-23.8-23.8c-1.3-1.3-1.3-2.9,0.1-4.2c1.3-1.3,2.9-1.4,4.2-0.1
			L855,151.2z"/>
		<path class="st6" d="M826.9,176l23.8-23.8c1.3-1.3,3-1.3,4.3,0s1.3,3,0,4.3l-23.8,23.8c-1.3,1.3-2.9,1.3-4.2-0.1
			C825.6,178.9,825.5,177.4,826.9,176z"/>
	</g>
	<g class="st2">
		<path class="st5" d="M978.3,76.5c-4.1,0-7.4-3.4-7.4-7.5s3.3-7.5,7.4-7.5c4,0,7.5,3.4,7.5,7.5S982.3,76.5,978.3,76.5z"/>
		<path class="st6" d="M948.8,91.7h59.3c1.9,0,3.1,1.1,3.1,3.1s-1.1,3.1-3.1,3.1h-59.3c-1.9,0-2.9-1.1-2.9-3.1
			S946.9,91.7,948.8,91.7z"/>
		<path class="st7" d="M979.6,31.3l29.4,29.4c1.3,1.3,1.3,3,0,4.2c-1.3,1.3-3,1.3-4.2,0l-29.4-29.4c-1.3-1.3-1.2-2.8,0.1-4.2
			C976.7,30,978.2,29.9,979.6,31.3z"/>
		<path class="st8" d="M979.1,31.3c1.3,1.3,1.4,2.8,0.1,4.2l-29.4,29.4c-1.3,1.3-3,1.3-4.2,0c-1.3-1.3-1.3-3,0-4.2L975,31.3
			C976.3,29.9,977.8,30.1,979.1,31.3z"/>
	</g>
	<g class="st2">
		<path class="st5" d="M903,349.5c-4.1,0-7.4-3.4-7.4-7.5c0-4,3.3-7.5,7.4-7.5c4,0,7.5,3.4,7.5,7.5S907,349.5,903,349.5z"/>
		<path class="st6" d="M873.5,364.6h59.3c1.9,0,3.1,1.1,3.1,3.1c0,1.9-1.1,3.1-3.1,3.1h-59.3c-1.9,0-2.9-1.1-2.9-3.1
			C870.6,365.8,871.6,364.6,873.5,364.6z"/>
		<path class="st7" d="M904.3,304.2l29.4,29.4c1.3,1.3,1.3,3,0,4.2c-1.3,1.3-3,1.3-4.3,0L900,308.5c-1.3-1.3-1.2-2.8,0.1-4.2
			C901.4,303,902.9,302.9,904.3,304.2z"/>
		<path class="st8" d="M903.8,304.3c1.3,1.3,1.4,2.8,0.1,4.2l-29.4,29.4c-1.3,1.3-3,1.3-4.2,0c-1.3-1.3-1.3-3,0-4.2l29.4-29.4
			C901,302.9,902.6,303.1,903.8,304.3z"/>
	</g>
	<g class="st2">
		<g>
			<path class="st7" d="M209.3,38L231,73.3c1,1.6,0.6,3.2-1,4.2s-3.2,0.6-4.2-1L204,41.1c-1-1.6-0.5-3.1,1-4
				C206.8,36.1,208.3,36.4,209.3,38z"/>
			<path class="st8" d="M208.8,38c1,1.6,0.7,3.1-0.9,4.1l-35.3,21.8c-1.6,1-3.2,0.6-4.2-1s-0.6-3.2,1-4.2l35.3-21.8
				C206.4,35.9,207.9,36.4,208.8,38z"/>
			<path class="st3" d="M190,99.2l-21.8-35.3c-1-1.6-0.6-3.2,1-4.2s3.2-0.6,4.2,1l21.8,35.4c1,1.6,0.5,3.1-1,4
				C192.5,101.1,191,100.8,190,99.2z"/>
			<path class="st6" d="M190.5,99.2c-1-1.6-0.7-3.1,0.9-4.1l35.3-21.8c1.6-1,3.2-0.6,4.2,1s0.6,3.2-1,4.2l-35.3,21.8
				C192.9,101.3,191.4,100.8,190.5,99.2z"/>
		</g>
		<path class="st5" d="M217,73.5v23.9c0,1.9-1.1,3.1-3.1,3.1c-1.9,0-3.1-1.1-3.1-3.1V73.5c0-1.9,1.1-2.9,3.1-2.9S217,71.6,217,73.5z
			"/>
	</g>
	<g class="st2">
		<path class="st3" d="M786.8,73.8c0-2.2,1.9-4.2,4.2-4.2c2.2,0,4.2,1.9,4.2,4.2S793.3,78,791,78C788.6,77.9,786.8,76,786.8,73.8z"
			/>
		<path class="st4" d="M799.6,92.5c0-2.2,1.9-4.2,4.2-4.2c2.2,0,4.2,1.9,4.2,4.2s-1.9,4.2-4.2,4.2S799.6,94.7,799.6,92.5z"/>
		<path class="st5" d="M816.6,41.4c0-2.2,1.9-4.2,4.2-4.2c2.2,0,4.2,1.9,4.2,4.2c0,2.2-1.9,4.2-4.2,4.2
			C818.5,45.6,816.6,43.6,816.6,41.4z"/>
		<path class="st6" d="M825.9,73.8c0-2.2,1.9-4.2,4.2-4.2c2.2,0,4.2,1.9,4.2,4.2s-1.9,4.2-4.2,4.2C827.8,77.9,825.9,76,825.9,73.8z"
			/>
		<path class="st7" d="M836.4,56.6c0-2.2,1.9-4.2,4.2-4.2c2.2,0,4.2,1.9,4.2,4.2c0,2.2-1.9,4.2-4.2,4.2
			C838.2,60.8,836.4,58.9,836.4,56.6z"/>
		<path class="st8" d="M836.4,96.7c0-2.2,1.9-4.2,4.2-4.2c2.2,0,4.2,1.9,4.2,4.2s-1.9,4.2-4.2,4.2C838.2,100.8,836.4,99,836.4,96.7z
			"/>
	</g>
	<g class="st2">
		<path class="st7" d="M633.6,95.3c0,1.9-1.2,3.1-3.1,3.1s-3.1-1.2-3.1-3.1V76.6c0-1.9,1.2-2.9,3.1-2.9s3.1,1,3.1,2.9V95.3z"/>
		<path class="st5" d="M652.7,95.3c0,1.9-1.2,3.1-3.1,3.1c-1.9,0-3.1-1.2-3.1-3.1V35.6c0-1.9,1.2-2.9,3.1-2.9c1.9,0,3.1,1,3.1,2.9
			V95.3z"/>
		<path class="st8" d="M649.7,38.8c-1.9,0-3.1-1.2-3.1-3.1c0-1.9,1.2-3.1,3.1-3.1h20.2c1.9,0,2.9,1.2,2.9,3.1c0,1.9-1,3.1-2.9,3.1
			H649.7z"/>
		<path class="st7" d="M673,95.3c0,1.9-1.2,3.1-3.1,3.1s-3.1-1.2-3.1-3.1V35.6c0-1.9,1.2-2.9,3.1-2.9s3.1,1,3.1,2.9V95.3z"/>
		<path class="st4" d="M649.7,62.1c-1.9,0-3.1-1.2-3.1-3.1c0-1.9,1.2-3.1,3.1-3.1h40.6c1.9,0,2.9,1.2,2.9,3.1c0,1.9-1,3.1-2.9,3.1
			H649.7z"/>
		<path class="st6" d="M630.6,79.8c-1.9,0-3.1-1.2-3.1-3.1s1.2-3.1,3.1-3.1h59.7c1.9,0,2.9,1.2,2.9,3.1s-1,3.1-2.9,3.1H630.6z"/>
		<path class="st5" d="M693.2,95.3c0,1.9-1.2,3.1-3.1,3.1s-3.1-1.2-3.1-3.1V58.9c0-1.9,1.2-2.9,3.1-2.9s3.1,1,3.1,2.9V95.3z"/>
		<path class="st3" d="M630.6,98.4c-1.9,0-3.1-1.2-3.1-3.1s1.2-3.1,3.1-3.1h59.7c1.9,0,2.9,1.2,2.9,3.1s-1,3.1-2.9,3.1H630.6z"/>
	</g>
	<g class="st2">
		<path class="st7" d="M951.6,366.8c0,1.9-1.2,3.1-3.1,3.1s-3.1-1.2-3.1-3.1v-18.7c0-1.9,1.2-2.9,3.1-2.9s3.1,1,3.1,2.9V366.8z"/>
		<path class="st5" d="M970.7,366.8c0,1.9-1.2,3.1-3.1,3.1s-3.1-1.2-3.1-3.1v-59.7c0-1.9,1.2-2.9,3.1-2.9s3.1,1,3.1,2.9V366.8z"/>
		<path class="st8" d="M967.7,310.3c-1.9,0-3.1-1.2-3.1-3.1s1.2-3.1,3.1-3.1h20.2c1.9,0,2.9,1.2,2.9,3.1s-1,3.1-2.9,3.1H967.7z"/>
		<path class="st7" d="M991,366.8c0,1.9-1.2,3.1-3.1,3.1s-3.1-1.2-3.1-3.1v-59.7c0-1.9,1.2-2.9,3.1-2.9s3.1,1,3.1,2.9V366.8z"/>
		<path class="st4" d="M967.7,333.5c-1.9,0-3.1-1.2-3.1-3.1s1.2-3.1,3.1-3.1h40.6c1.9,0,2.9,1.2,2.9,3.1s-1,3.1-2.9,3.1H967.7z"/>
		<path class="st6" d="M948.6,351.3c-1.9,0-3.1-1.2-3.1-3.1s1.2-3.1,3.1-3.1h59.7c1.9,0,2.9,1.2,2.9,3.1s-1,3.1-2.9,3.1H948.6z"/>
		<path class="st5" d="M1011.2,366.8c0,1.9-1.2,3.1-3.1,3.1s-3.1-1.2-3.1-3.1v-36.5c0-1.9,1.2-2.9,3.1-2.9s3.1,1,3.1,2.9V366.8z"/>
		<path class="st3" d="M948.6,369.9c-1.9,0-3.1-1.2-3.1-3.1s1.2-3.1,3.1-3.1h59.7c1.9,0,2.9,1.2,2.9,3.1s-1,3.1-2.9,3.1H948.6z"/>
	</g>
	<g class="st2">
		<g>
			<path class="st7" d="M754.2,38L776,73.3c1,1.6,0.6,3.2-1,4.2s-3.2,0.6-4.2-1L749,41.1c-1-1.6-0.5-3.1,1-4
				C751.7,36.1,753.2,36.4,754.2,38z"/>
			<path class="st8" d="M753.7,38c1,1.6,0.7,3.1-0.9,4.1l-35.3,21.8c-1.6,1-3.2,0.6-4.2-1c-1-1.6-0.6-3.2,1-4.2l35.3-21.8
				C751.3,35.9,752.8,36.4,753.7,38z"/>
			<path class="st3" d="M735,99.2l-21.8-35.3c-1-1.6-0.6-3.2,1-4.2s3.2-0.6,4.2,1l21.8,35.4c1,1.6,0.5,3.1-1,4
				C737.4,101.1,735.9,100.8,735,99.2z"/>
			<path class="st6" d="M735.4,99.2c-1-1.6-0.7-3.1,0.9-4.1l35.3-21.8c1.6-1,3.2-0.6,4.2,1s0.6,3.2-1,4.2l-35.3,21.8
				C737.9,101.3,736.4,100.8,735.4,99.2z"/>
		</g>
		<path class="st5" d="M762,73.5v23.9c0,1.9-1.1,3.1-3.1,3.1s-3.1-1.1-3.1-3.1V73.5c0-1.9,1.1-2.9,3.1-2.9S762,71.6,762,73.5z"/>
	</g>
	<g class="st2">
		<g>
			<path class="st7" d="M990.7,212.7l21.8,35.3c1,1.6,0.6,3.2-1,4.2s-3.2,0.6-4.2-1l-21.8-35.4c-1-1.6-0.5-3.1,1-4
				C988.3,210.8,989.8,211.1,990.7,212.7z"/>
			<path class="st8" d="M990.3,212.7c1,1.6,0.7,3.1-0.9,4.1l-35.3,21.8c-1.6,1-3.2,0.6-4.2-1s-0.6-3.2,1-4.2l35.3-21.8
				C987.8,210.6,989.3,211.1,990.3,212.7z"/>
			<path class="st3" d="M971.5,273.9l-21.8-35.3c-1-1.6-0.6-3.2,1-4.2s3.2-0.6,4.2,1l21.8,35.3c1,1.6,0.5,3.1-1,4
				C974,275.7,972.5,275.5,971.5,273.9z"/>
			<path class="st6" d="M972,273.9c-1-1.6-0.7-3.1,0.9-4.1l35.3-21.8c1.6-1,3.2-0.6,4.2,1s0.6,3.2-1,4.2L976.1,275
				C974.4,276,972.9,275.5,972,273.9z"/>
		</g>
		<path class="st5" d="M998.5,248.1V272c0,1.9-1.1,3.1-3.1,3.1s-3.1-1.1-3.1-3.1v-23.9c0-1.9,1.1-2.9,3.1-2.9
			S998.5,246.3,998.5,248.1z"/>
	</g>
	<g class="st2">
		<g>
			<path class="st7" d="M46.7,212.7L68.5,248c1,1.6,0.6,3.2-1,4.2s-3.2,0.6-4.2-1l-21.8-35.4c-1-1.6-0.5-3.1,1-4
				C44.3,210.8,45.8,211.1,46.7,212.7z"/>
			<path class="st8" d="M46.3,212.7c1,1.6,0.7,3.1-0.9,4.1L10,238.5c-1.6,1-3.2,0.6-4.2-1s-0.6-3.2,1-4.2l35.3-21.8
				C43.8,210.6,45.3,211.1,46.3,212.7z"/>
			<path class="st3" d="M27.5,273.9L5.7,238.5c-1-1.6-0.6-3.2,1-4.2s3.2-0.6,4.2,1l21.8,35.4c1,1.6,0.5,3.1-1,4
				C30,275.7,28.5,275.5,27.5,273.9z"/>
			<path class="st6" d="M27.9,273.9c-1-1.6-0.7-3.1,0.9-4.1L64.1,248c1.6-1,3.2-0.6,4.2,1s0.6,3.2-1,4.2L32,274.9
				C30.4,276,28.9,275.5,27.9,273.9z"/>
		</g>
		<path class="st5" d="M54.5,248.1V272c0,1.9-1.1,3.1-3.1,3.1c-1.9,0-3.1-1.1-3.1-3.1v-23.9c0-1.9,1.1-2.9,3.1-2.9
			C53.4,245.2,54.5,246.3,54.5,248.1z"/>
	</g>
	<g class="st2">
		<g>
			<path class="st7" d="M505.1,38L527,73.3c1,1.6,0.6,3.2-1,4.2s-3.2,0.6-4.2-1L500,41.2c-1-1.6-0.5-3.1,1-4
				C502.7,36.1,504.2,36.4,505.1,38z"/>
			<path class="st8" d="M504.7,38c1,1.6,0.7,3.1-0.9,4.1l-35.3,21.8c-1.6,1-3.2,0.6-4.2-1s-0.6-3.2,1-4.2l35.3-21.8
				C502.2,35.9,503.7,36.4,504.7,38z"/>
			<path class="st3" d="M485.9,99.2l-21.8-35.3c-1-1.6-0.6-3.2,1-4.2s3.2-0.6,4.2,1L491,96c1,1.6,0.5,3.1-1,4
				C488.4,101.1,486.9,100.8,485.9,99.2z"/>
			<path class="st6" d="M486.3,99.2c-1-1.6-0.7-3.1,0.9-4.1l35.3-21.8c1.6-1,3.2-0.6,4.2,1s0.6,3.2-1,4.2l-35.3,21.8
				C488.8,101.3,487.3,100.8,486.3,99.2z"/>
		</g>
		<path class="st5" d="M512.9,73.5v23.9c0,1.9-1.1,3.1-3.1,3.1c-1.9,0-3.1-1.1-3.1-3.1V73.5c0-1.9,1.1-2.9,3.1-2.9
			C511.8,70.6,512.9,71.6,512.9,73.5z"/>
	</g>
	<g class="st2">
		<path class="st5" d="M416.5,76.8c-4.7,0-8.4-4-8.4-8.6s3.8-8.6,8.4-8.6s8.6,4,8.6,8.6S421.2,76.8,416.5,76.8z"/>
		<path class="st6" d="M419.6,38.9v9.3c0,1.9-1.1,3.1-3.1,3.1c-1.9,0-3.1-1.1-3.1-3.1v-9.3c0-1.9,1.1-2.9,3.1-2.9
			C418.4,36,419.6,37,419.6,38.9z"/>
		<path class="st7" d="M439.4,49.6l-6.6,6.6c-1.3,1.3-3,1.3-4.2,0c-1.3-1.3-1.3-3,0-4.2l6.6-6.6c1.3-1.3,2.8-1.2,4.2,0.1
			C440.7,46.7,440.7,48.3,439.4,49.6z"/>
		<path class="st4" d="M445.8,71.2h-9.3c-1.9,0-3.1-1.1-3.1-3.1c0-1.9,1.1-3.1,3.1-3.1h9.3c1.9,0,2.9,1.1,2.9,3.1
			C448.8,70,447.7,71.2,445.8,71.2z"/>
		<path class="st8" d="M435.1,91l-6.6-6.6c-1.3-1.3-1.3-3,0-4.2c1.3-1.3,3-1.3,4.2,0l6.6,6.6c1.3,1.3,1.2,2.8-0.1,4.2
			C438,92.3,436.5,92.3,435.1,91z"/>
		<path class="st6" d="M413.6,97.5v-9.3c0-1.9,1.1-3.1,3.1-3.1c1.9,0,3.1,1.1,3.1,3.1v9.3c0,1.9-1.1,2.9-3.1,2.9
			C414.7,100.3,413.6,99.3,413.6,97.5z"/>
		<path class="st7" d="M393.7,86.7l6.6-6.6c1.3-1.3,3-1.3,4.2,0c1.3,1.3,1.3,3,0,4.2L398,91c-1.3,1.3-2.8,1.2-4.2-0.1
			C392.5,89.6,392.4,88.1,393.7,86.7z"/>
		<path class="st4" d="M387.3,65.1h9.3c1.9,0,3.1,1.1,3.1,3.1c0,1.9-1.1,3.1-3.1,3.1h-9.3c-1.9,0-2.9-1.1-2.9-3.1
			C384.4,66.3,385.5,65.1,387.3,65.1z"/>
		<path class="st3" d="M398,45.4l6.6,6.6c1.3,1.3,1.3,3,0,4.2c-1.3,1.3-3,1.3-4.2,0l-6.6-6.6c-1.3-1.3-1.2-2.8,0.1-4.2
			C395.1,44.1,396.7,44,398,45.4z"/>
	</g>
	<g class="st2">
		<path class="st5" d="M122,162.5c-4.7,0-8.4-4-8.4-8.6s3.8-8.6,8.4-8.6s8.6,4,8.6,8.6S126.7,162.5,122,162.5z"/>
		<path class="st6" d="M125.1,124.6v9.3c0,1.9-1.1,3.1-3.1,3.1c-1.9,0-3.1-1.1-3.1-3.1v-9.3c0-1.9,1.1-2.9,3.1-2.9
			C124,121.7,125.1,122.8,125.1,124.6z"/>
		<path class="st7" d="M144.9,135.4l-6.6,6.6c-1.3,1.3-3,1.3-4.2,0c-1.3-1.3-1.3-3,0-4.2l6.6-6.6c1.3-1.3,2.8-1.2,4.2,0.1
			S146.2,134,144.9,135.4z"/>
		<path class="st4" d="M151.3,157H142c-1.9,0-3.1-1.1-3.1-3.1c0-1.9,1.1-3.1,3.1-3.1h9.3c1.9,0,2.9,1.1,2.9,3.1S153.2,157,151.3,157
			z"/>
		<path class="st8" d="M140.6,176.7l-6.6-6.6c-1.3-1.3-1.3-3,0-4.2c1.3-1.3,3-1.3,4.2,0l6.6,6.6c1.3,1.3,1.2,2.8-0.1,4.2
			C143.5,178,141.9,178.1,140.6,176.7z"/>
		<path class="st6" d="M119.1,183.2v-9.3c0-1.9,1.1-3.1,3.1-3.1c1.9,0,3.1,1.1,3.1,3.1v9.3c0,1.9-1.1,2.9-3.1,2.9
			C120.2,186.1,119.1,185.1,119.1,183.2z"/>
		<path class="st7" d="M99.2,172.5l6.6-6.6c1.3-1.3,3-1.3,4.2,0c1.3,1.3,1.3,3,0,4.2l-6.6,6.6c-1.3,1.3-2.8,1.2-4.2-0.1
			C98,175.3,97.9,173.8,99.2,172.5z"/>
		<path class="st4" d="M92.8,150.9h9.3c1.9,0,3.1,1.1,3.1,3.1c0,1.9-1.1,3.1-3.1,3.1h-9.3c-1.9,0-2.9-1.1-2.9-3.1
			S90.9,150.9,92.8,150.9z"/>
		<path class="st3" d="M103.5,131.1l6.6,6.6c1.3,1.3,1.3,3,0,4.2c-1.3,1.3-3,1.3-4.2,0l-6.6-6.6c-1.3-1.3-1.2-2.8,0.1-4.2
			S102.2,129.8,103.5,131.1z"/>
	</g>
	<g class="st2">
		<path class="st5" d="M570.4,76.8c-4.7,0-8.4-4-8.4-8.6s3.8-8.6,8.4-8.6s8.6,4,8.6,8.6S575,76.8,570.4,76.8z"/>
		<path class="st6" d="M573.4,38.9v9.3c0,1.9-1.1,3.1-3.1,3.1c-1.9,0-3.1-1.1-3.1-3.1v-9.3c0-1.9,1.1-2.9,3.1-2.9
			C572.3,36,573.4,37,573.4,38.9z"/>
		<path class="st7" d="M593.3,49.6l-6.6,6.6c-1.3,1.3-3,1.3-4.2,0c-1.3-1.3-1.3-3,0-4.2l6.6-6.6c1.3-1.3,2.8-1.2,4.2,0.1
			C594.5,46.7,594.6,48.3,593.3,49.6z"/>
		<path class="st4" d="M599.7,71.2h-9.3c-1.9,0-3.1-1.1-3.1-3.1c0-1.9,1.1-3.1,3.1-3.1h9.3c1.9,0,2.9,1.1,2.9,3.1
			C602.6,70,601.6,71.2,599.7,71.2z"/>
		<path class="st8" d="M589,91l-6.6-6.6c-1.3-1.3-1.3-3,0-4.2c1.3-1.3,3-1.3,4.2,0l6.6,6.6c1.3,1.3,1.2,2.8-0.1,4.2
			C591.9,92.3,590.3,92.3,589,91z"/>
		<path class="st6" d="M567.4,97.5v-9.3c0-1.9,1.1-3.1,3.1-3.1c1.9,0,3.1,1.1,3.1,3.1v9.3c0,1.9-1.1,2.9-3.1,2.9
			C568.6,100.3,567.4,99.3,567.4,97.5z"/>
		<path class="st7" d="M547.6,86.7l6.6-6.6c1.3-1.3,3-1.3,4.2,0c1.3,1.3,1.3,3,0,4.2l-6.6,6.6c-1.3,1.3-2.8,1.2-4.2-0.1
			C546.4,89.6,546.3,88.1,547.6,86.7z"/>
		<path class="st4" d="M541.1,65.1h9.3c1.9,0,3.1,1.1,3.1,3.1c0,1.9-1.1,3.1-3.1,3.1h-9.3c-1.9,0-2.9-1.1-2.9-3.1
			C538.3,66.3,539.3,65.1,541.1,65.1z"/>
		<path class="st3" d="M551.9,45.4l6.6,6.6c1.3,1.3,1.3,3,0,4.2c-1.3,1.3-3,1.3-4.2,0l-6.6-6.6c-1.3-1.3-1.2-2.8,0.1-4.2
			C549,44.1,550.5,44,551.9,45.4z"/>
	</g>
	<g class="st2">
		<path class="st5" d="M899.5,250.3c-4.7,0-8.4-4-8.4-8.6s3.8-8.6,8.4-8.6s8.6,4,8.6,8.6S904.1,250.3,899.5,250.3z"/>
		<path class="st6" d="M902.6,212.5v9.3c0,1.9-1.1,3.1-3.1,3.1c-1.9,0-3.1-1.1-3.1-3.1v-9.3c0-1.9,1.1-2.9,3.1-2.9
			C901.4,209.6,902.6,210.6,902.6,212.5z"/>
		<path class="st7" d="M922.4,223.2l-6.6,6.6c-1.3,1.3-3,1.3-4.2,0c-1.3-1.3-1.3-3,0-4.2l6.6-6.6c1.3-1.3,2.8-1.2,4.2,0.1
			C923.7,220.3,923.7,221.9,922.4,223.2z"/>
		<path class="st4" d="M928.9,244.8h-9.3c-1.9,0-3.1-1.1-3.1-3.1c0-1.9,1.1-3.1,3.1-3.1h9.3c1.9,0,2.9,1.1,2.9,3.1
			C931.7,243.6,930.7,244.8,928.9,244.8z"/>
		<path class="st8" d="M918.1,264.6l-6.6-6.6c-1.3-1.3-1.3-3,0-4.2c1.3-1.3,3-1.3,4.2,0l6.6,6.6c1.3,1.3,1.2,2.8-0.1,4.2
			C921,265.8,919.5,265.9,918.1,264.6z"/>
		<path class="st6" d="M896.5,271.1v-9.3c0-1.9,1.1-3.1,3.1-3.1c1.9,0,3.1,1.1,3.1,3.1v9.3c0,1.9-1.1,2.9-3.1,2.9
			C897.7,273.9,896.5,272.9,896.5,271.1z"/>
		<path class="st7" d="M876.8,260.3l6.6-6.6c1.3-1.3,3-1.3,4.2,0c1.3,1.3,1.3,3,0,4.2l-6.6,6.6c-1.3,1.3-2.8,1.2-4.2-0.1
			C875.5,263.2,875.4,261.7,876.8,260.3z"/>
		<path class="st4" d="M870.3,238.7h9.3c1.9,0,3.1,1.1,3.1,3.1c0,1.9-1.1,3.1-3.1,3.1h-9.3c-1.9,0-2.9-1.1-2.9-3.1
			C867.4,239.9,868.4,238.7,870.3,238.7z"/>
		<path class="st3" d="M881,218.9l6.6,6.6c1.3,1.3,1.3,3,0,4.2c-1.3,1.3-3,1.3-4.2,0l-6.6-6.6c-1.3-1.3-1.2-2.8,0.1-4.2
			C878.2,217.7,879.7,217.6,881,218.9z"/>
	</g>
	<g class="st2">
		<path class="st5" d="M979.8,162.5c-4.7,0-8.4-4-8.4-8.6s3.8-8.6,8.4-8.6c4.6,0,8.6,4,8.6,8.6C988.4,158.5,984.4,162.5,979.8,162.5
			z"/>
		<path class="st6" d="M982.8,124.6v9.3c0,1.9-1.1,3.1-3.1,3.1c-1.9,0-3.1-1.1-3.1-3.1v-9.3c0-1.9,1.1-2.9,3.1-2.9
			C981.7,121.8,982.8,122.8,982.8,124.6z"/>
		<path class="st7" d="M1002.7,135.4l-6.6,6.6c-1.3,1.3-3,1.3-4.2,0c-1.3-1.3-1.3-3,0-4.2l6.6-6.6c1.3-1.3,2.8-1.2,4.2,0.1
			C1003.9,132.4,1004,134,1002.7,135.4z"/>
		<path class="st4" d="M1009.2,157h-9.3c-1.9,0-3.1-1.1-3.1-3.1c0-1.9,1.1-3.1,3.1-3.1h9.3c1.9,0,2.9,1.1,2.9,3.1
			C1012.1,155.9,1011,157,1009.2,157z"/>
		<path class="st8" d="M998.4,176.7l-6.6-6.6c-1.3-1.3-1.3-3,0-4.2c1.3-1.3,3-1.3,4.2,0l6.6,6.6c1.3,1.3,1.2,2.8-0.1,4.2
			C1001.3,178,999.8,178.1,998.4,176.7z"/>
		<path class="st6" d="M976.8,183.2v-9.3c0-1.9,1.1-3.1,3.1-3.1c1.9,0,3.1,1.1,3.1,3.1v9.3c0,1.9-1.1,2.9-3.1,2.9
			C978,186.1,976.8,185.1,976.8,183.2z"/>
		<path class="st7" d="M957,172.5l6.6-6.6c1.3-1.3,3-1.3,4.2,0c1.3,1.3,1.3,3,0,4.2l-6.6,6.6c-1.3,1.3-2.8,1.2-4.2-0.1
			C955.8,175.3,955.7,173.8,957,172.5z"/>
		<path class="st4" d="M950.6,150.9h9.3c1.9,0,3.1,1.1,3.1,3.1c0,1.9-1.1,3.1-3.1,3.1h-9.3c-1.9,0-2.9-1.1-2.9-3.1
			C947.6,152,948.7,150.9,950.6,150.9z"/>
		<path class="st3" d="M961.3,131.1l6.6,6.6c1.3,1.3,1.3,3,0,4.2c-1.3,1.3-3,1.3-4.2,0l-6.6-6.6c-1.3-1.3-1.2-2.8,0.1-4.2
			C958.5,129.8,959.9,129.8,961.3,131.1z"/>
	</g>
</g>
<path id="Fill-1" class="st9" d="M163.8,23.4c-1.3,0-2.3-1.1-2.3-2.4s1-2.4,2.3-2.4s2.4,1.1,2.4,2.4
	C166.1,22.4,165.1,23.4,163.8,23.4"/>
<path id="Fill-3" class="st10" d="M760.1,255.8c-1.3,0-2.3-1.1-2.3-2.4c0-1.3,1-2.4,2.3-2.4s2.4,1.1,2.4,2.4
	C762.4,254.8,761.3,255.8,760.1,255.8"/>
<path id="Fill-10" class="st11" d="M842.3,278.4c-1.3,0-2.3-1.1-2.3-2.4s1-2.4,2.3-2.4s2.4,1.1,2.4,2.4S843.6,278.4,842.3,278.4"/>
<path id="Fill-12" class="st12" d="M51.1,103.8c-1.3,0-2.3-1.1-2.3-2.4s1-2.4,2.3-2.4s2.4,1.1,2.4,2.4
	C53.4,102.8,52.4,103.8,51.1,103.8"/>
<path id="Fill-14" class="st13" d="M186.3,210.2c-2.3,0-4.2-1.9-4.2-4.2s1.9-4.2,4.2-4.2s4.2,1.9,4.2,4.2S188.6,210.2,186.3,210.2"
	/>
<path id="Fill-16" class="st10" d="M915.6,177.8h33.5c1.1,0,1.7,0.7,1.7,1.7c0,1.1-0.7,1.7-1.7,1.7h-33.5c-1.1,0-1.6-0.7-1.6-1.7
	C914,178.4,914.6,177.8,915.6,177.8"/>
<path id="Fill-16_3_" class="st10" d="M134.5,302.7H168c1.1,0,1.7,0.7,1.7,1.7c0,1.1-0.7,1.7-1.7,1.7h-33.5c-1.1,0-1.6-0.7-1.6-1.7
	C132.9,303.3,133.5,302.7,134.5,302.7"/>
<path id="Fill-18" class="st9" d="M224.3,156.3l16.6,16.6c0.8,0.7,0.8,1.7,0,2.4c-0.7,0.8-1.7,0.8-2.4,0l-16.6-16.6
	c-0.8-0.7-0.7-1.6,0.1-2.4C222.7,155.6,223.5,155.5,224.3,156.3"/>
<path id="Fill-20" class="st11" d="M150.7,148.3c0.8,0.7,0.8,1.6,0.1,2.4l-16.6,16.6c-0.8,0.8-1.7,0.8-2.4,0c-0.8-0.8-0.8-1.7,0-2.4
	l16.6-16.6C149.1,147.5,150,147.5,150.7,148.3"/>
<g id="Group-24" transform="translate(0.000000, 280.060772)">
	<path id="Fill-22" class="st12" d="M0.5-218.6l13.4,13.4c0.7,0.7,0.7,1.7,0,2.4c-0.7,0.8-1.7,0.8-2.4,0l-13.4-13.4
		c-0.8-0.7-0.7-1.6,0.1-2.4C-1.1-219.3-0.2-219.4,0.5-218.6"/>
</g>
<path id="Fill-25" class="st9" d="M23.1,45.3l13.4,13.4c0.8,0.7,0.8,1.7,0,2.4c-0.7,0.7-1.7,0.7-2.4,0L20.6,47.8
	c-0.8-0.7-0.7-1.6,0.1-2.4C21.5,44.6,22.3,44.6,23.1,45.3"/>
<path id="Fill-27" class="st11" d="M835.9,219.8c-0.7-0.7-0.7-1.6-0.1-2.4l12-13.4c0.6-0.8,1.5-0.8,2.1,0c0.7,0.7,0.7,1.7,0,2.4
	l-12,13.4C837.4,220.6,836.6,220.6,835.9,219.8"/>
<path id="Fill-27_4_" class="st11" d="M516.2,34.4c-0.7-0.7-0.7-1.6-0.1-2.4l12-13.4c0.6-0.8,1.5-0.8,2.1,0c0.7,0.7,0.7,1.7,0,2.4
	l-12,13.4C517.6,35.2,516.8,35.2,516.2,34.4"/>
<path id="Fill-31" class="st9" d="M936.7,150.4v10.5c0,1.1-0.7,1.7-1.7,1.7c-1.1,0-1.7-0.7-1.7-1.7v-10.5c0-1.1,0.7-1.6,1.7-1.6
	C936,148.8,936.7,149.3,936.7,150.4"/>
<path id="Fill-33" class="st9" d="M120.4,229.4V263c0,1.1-0.7,1.7-1.7,1.7c-1.1,0-1.7-0.7-1.7-1.7v-33.6c0-1.1,0.7-1.6,1.7-1.6
	C119.8,227.8,120.4,228.3,120.4,229.4"/>
<path id="Fill-35" class="st13" d="M75.3,237.4V271c0,1.1-0.7,1.7-1.7,1.7c-1.1,0-1.7-0.7-1.7-1.7v-33.6c0-1.1,0.7-1.6,1.7-1.6
	C74.7,235.8,75.3,236.4,75.3,237.4"/>
<path id="Fill-37" class="st13" d="M911.6,209.4v20.5c0,1.1-0.7,1.7-1.7,1.7c-1.1,0-1.7-0.7-1.7-1.7v-20.5c0-1.1,0.7-1.6,1.7-1.6
	C911,207.8,911.6,208.4,911.6,209.4"/>
<path id="Fill-39" class="st14" d="M238.6,336.3h-22.8c-1.1,0-1.7-0.7-1.7-1.7c0-1.1,0.7-1.7,1.7-1.7h22.8c1.1,0,1.6,0.7,1.6,1.7
	C240.2,335.7,239.7,336.3,238.6,336.3"/>
<path id="Fill-43" class="st10" d="M974.3,109.2h-33.5c-1.1,0-1.7-0.7-1.7-1.7c0-1.1,0.7-1.7,1.7-1.7h33.5c1.1,0,1.6,0.7,1.6,1.7
	C975.9,108.5,975.4,109.2,974.3,109.2"/>
<path id="Fill-45" class="st12" d="M904.2,237.5h-33.5c-1.1,0-1.7-0.7-1.7-1.7c0-1.1,0.7-1.7,1.7-1.7h33.5c1.1,0,1.6,0.7,1.6,1.7
	C905.8,236.9,905.2,237.5,904.2,237.5"/>
<path id="Fill-47" class="st13" d="M822.2,88.2c-2.7,0-4.8-2.2-4.8-4.8c0-2.6,2.1-4.8,4.8-4.8c2.6,0,4.8,2.2,4.8,4.8
	C827.1,86,824.9,88.2,822.2,88.2"/>
<path id="Fill-47_2_" class="st13" d="M989.3,352.9c-2.7,0-4.8-2.2-4.8-4.8c0-2.6,2.1-4.8,4.8-4.8c2.6,0,4.8,2.2,4.8,4.8
	C994.1,350.7,991.9,352.9,989.3,352.9"/>
<path id="Fill-49" class="st13" d="M22.6,164c-2.7,0-4.8-2.2-4.8-4.8s2.1-4.8,4.8-4.8c2.6,0,4.8,2.2,4.8,4.8
	C27.5,161.8,25.2,164,22.6,164"/>
<path id="Fill-51" class="st10" d="M239,57.8v5.3c0,1.1-0.7,1.7-1.7,1.7c-1.1,0-1.7-0.7-1.7-1.7v-5.3c0-1.1,0.7-1.6,1.7-1.6
	C238.4,56.2,239,56.8,239,57.8"/>
<path id="Fill-55" class="st14" d="M892.6,60.9h-5.3c-1.1,0-1.7-0.7-1.7-1.7c0-1.1,0.7-1.7,1.7-1.7h5.3c1.1,0,1.6,0.7,1.6,1.7
	C894.2,60.3,893.6,60.9,892.6,60.9"/>
<path id="Fill-57" class="st11" d="M868,118.6l-3.7-3.7c-0.8-0.8-0.8-1.7,0-2.4c0.7-0.8,1.7-0.8,2.4,0l3.7,3.7
	c0.8,0.7,0.7,1.6-0.1,2.4C869.6,119.3,868.8,119.3,868,118.6"/>
<path id="Fill-59" class="st10" d="M863.1,262.6v-5.3c0-1.1,0.7-1.7,1.7-1.7c1.1,0,1.7,0.7,1.7,1.7v5.3c0,1.1-0.7,1.6-1.7,1.6
	S863.1,263.6,863.1,262.6"/>
<path id="Fill-61" class="st9" d="M796.6,140.3l3.7-3.7c0.8-0.8,1.7-0.8,2.4,0c0.8,0.7,0.8,1.7,0,2.4l-3.7,3.7
	c-0.7,0.8-1.6,0.7-2.4-0.1C795.9,141.9,795.9,141,796.6,140.3"/>
<path id="Fill-63" class="st14" d="M805.2,219.6h4.7c1,0,1.5,0.7,1.5,1.7c0,1.1-0.6,1.7-1.5,1.7h-4.7c-1,0-1.4-0.7-1.4-1.7
	S804.2,219.6,805.2,219.6"/>
<path id="Fill-3_2_" class="st10" d="M860.7,70.4c-1.3,0-2.3-1.1-2.3-2.4c0-1.3,1-2.4,2.3-2.4c1.3,0,2.4,1.1,2.4,2.4
	C863,69.4,861.9,70.4,860.7,70.4"/>
<path id="Fill-27_3_" class="st11" d="M936.5,34.4c-0.7-0.7-0.7-1.6-0.1-2.4l12-13.4c0.6-0.8,1.5-0.8,2.1,0c0.7,0.7,0.7,1.7,0,2.4
	l-12,13.4C938,35.2,937.2,35.2,936.5,34.4"/>
<path id="Fill-45_2_" class="st12" d="M1004.8,52.1h-33.5c-1.1,0-1.7-0.7-1.7-1.7c0-1.1,0.7-1.7,1.7-1.7h33.5c1.1,0,1.6,0.7,1.6,1.7
	C1006.4,51.5,1005.8,52.1,1004.8,52.1"/>
<path id="Fill-59_2_" class="st10" d="M963.7,77.2v-5.3c0-1.1,0.7-1.7,1.7-1.7c1.1,0,1.7,0.7,1.7,1.7v5.3c0,1.1-0.7,1.6-1.7,1.6
	S963.7,78.2,963.7,77.2"/>
<path id="Fill-63_3_" class="st14" d="M905.8,34.2h4.7c1,0,1.5,0.7,1.5,1.7c0,1.1-0.6,1.7-1.5,1.7h-4.7c-1,0-1.4-0.7-1.4-1.7
	S904.8,34.2,905.8,34.2"/>
<path id="Fill-3_1_" class="st10" d="M57.1,76.9c-1.3,0-2.3-1.1-2.3-2.4c0-1.3,1-2.4,2.3-2.4s2.4,1.1,2.4,2.4
	C59.4,75.9,58.3,76.9,57.1,76.9"/>
<path id="Fill-10_2_" class="st11" d="M139.3,99.5c-1.3,0-2.3-1.1-2.3-2.4s1-2.4,2.3-2.4s2.4,1.1,2.4,2.4S140.6,99.5,139.3,99.5"/>
<path id="Fill-27_2_" class="st11" d="M134,40.9c-0.8-0.7-0.8-1.6-0.1-2.4l13.4-13.4c0.7-0.8,1.7-0.8,2.4,0c0.8,0.7,0.8,1.7,0,2.4
	l-13.4,13.4C135.6,41.7,134.7,41.7,134,40.9"/>
<path id="Fill-63_2_" class="st14" d="M99.5,40.7h5.3c1.1,0,1.7,0.7,1.7,1.7c0,1.1-0.7,1.7-1.7,1.7h-5.3c-1.1,0-1.6-0.7-1.6-1.7
	S98.4,40.7,99.5,40.7"/>
<path id="Fill-65" class="st12" d="M208.2,10l3.7,3.7c0.8,0.8,0.8,1.7,0,2.4c-0.7,0.7-1.7,0.7-2.4,0l-3.7-3.7
	c-0.8-0.7-0.7-1.6,0.1-2.4C206.6,9.3,207.5,9.2,208.2,10"/>
<path id="Fill-67" class="st9" d="M983.1,99.5c-0.9-0.9-0.9-2.4,0-3.3s2.4-0.9,3.3,0c0.9,0.9,0.9,2.4,0,3.3
	C985.5,100.4,984,100.4,983.1,99.5"/>
<path id="Fill-67_1_" class="st9" d="M92.9,167.5c-0.9-0.9-0.9-2.4,0-3.3c0.9-0.9,2.4-0.9,3.3,0s0.9,2.4,0,3.3
	C95.4,168.4,93.8,168.4,92.9,167.5"/>
<path id="Fill-69" class="st13" d="M958,28.9c-0.9-0.9-0.9-2.4,0-3.3s2.4-0.9,3.3,0c0.9,0.9,0.9,2.4,0,3.3
	C960.4,29.8,958.9,29.8,958,28.9"/>
<path id="Fill-71" class="st12" d="M846.5,76.6c-0.9-0.9-0.9-2.4,0-3.3s2.4-0.9,3.3,0c0.9,0.9,0.9,2.4,0,3.3
	C849,77.5,847.4,77.5,846.5,76.6"/>
<path id="Fill-71_2_" class="st12" d="M180.5,120.8c-0.9-0.9-0.9-2.4,0-3.3s2.4-0.9,3.3,0c0.9,0.9,0.9,2.4,0,3.3
	C182.9,121.7,181.4,121.7,180.5,120.8"/>
<g id="Group-75" transform="translate(2634.763441, 393.158694)">
	<g id="Clip-74">
	</g>
	<path id="Fill-73" class="st12" d="M-1610.8-271.8v5.3c0,1.1-0.7,1.7-1.7,1.7c-1.1,0-1.7-0.7-1.7-1.7v-5.3c0-1.1,0.7-1.6,1.7-1.6
		C-1611.4-273.4-1610.8-272.9-1610.8-271.8"/>
</g>
<path id="Fill-76" class="st9" d="M830.4,305.2l12.4,20c0.6,0.9,0.3,1.8-0.6,2.4c-0.9,0.6-1.8,0.3-2.4-0.6l-12.4-20
	c-0.6-0.9-0.3-1.7,0.6-2.3C829,304.2,829.9,304.3,830.4,305.2"/>
<path id="Fill-76_2_" class="st9" d="M934.3,313.6l12.4,20c0.6,0.9,0.3,1.8-0.6,2.4c-0.9,0.6-1.8,0.3-2.4-0.6l-12.4-20
	c-0.6-0.9-0.3-1.7,0.6-2.3C932.9,312.6,933.8,312.7,934.3,313.6"/>
<path id="Fill-78" class="st11" d="M265.4,142.7c0.6,0.9,0.4,1.8-0.5,2.3l-20,12.4c-0.9,0.6-1.8,0.3-2.4-0.6
	c-0.6-0.9-0.3-1.8,0.6-2.4l20-12.4C264,141.5,264.8,141.8,265.4,142.7"/>
<path id="Fill-14_1_" class="st13" d="M19.5,188.6c-2.3,0-4.2-1.9-4.2-4.2s1.9-4.2,4.2-4.2s4.2,1.9,4.2,4.2S21.8,188.6,19.5,188.6"
	/>
<path id="Fill-18_1_" class="st9" d="M57.5,134.7l16.6,16.6c0.8,0.7,0.8,1.7,0,2.4c-0.7,0.8-1.7,0.8-2.4,0l-16.6-16.6
	c-0.8-0.7-0.7-1.6,0.1-2.4C55.9,134,56.7,133.9,57.5,134.7"/>
<path id="Fill-78_2_" class="st11" d="M98.6,121.1c0.6,0.9,0.4,1.8-0.5,2.3l-20,12.4c-0.9,0.6-1.8,0.3-2.4-0.6
	c-0.6-0.9-0.3-1.8,0.6-2.4l20-12.4C97.2,119.9,98,120.2,98.6,121.1"/>
<path id="Fill-80" class="st12" d="M91.4,347.3l-12.4-20c-0.6-0.9-0.3-1.8,0.6-2.4s1.8-0.3,2.4,0.6l12.4,20c0.6,0.9,0.3,1.7-0.6,2.3
	C92.8,348.3,92,348.2,91.4,347.3"/>
<path id="Fill-82" class="st10" d="M966.1,275c-0.6-0.9-0.4-1.8,0.5-2.3l20-12.4c0.9-0.6,1.8-0.3,2.4,0.6c0.6,0.9,0.3,1.8-0.6,2.4
	l-20,12.4C967.5,276.2,966.7,275.9,966.1,275"/>
<path id="Fill-82_2_" class="st10" d="M42,370.5c-0.6-0.9-0.4-1.8,0.5-2.3l20-12.4c0.9-0.6,1.8-0.3,2.4,0.6s0.3,1.8-0.6,2.4
	l-20,12.4C43.4,371.6,42.6,371.4,42,370.5"/>
<path id="Fill-82_1_" class="st10" d="M902.6,378.4c-0.6-0.9-0.4-1.8,0.5-2.3l20-12.4c0.9-0.6,1.8-0.3,2.4,0.6
	c0.6,0.9,0.3,1.8-0.6,2.4l-20,12.4C904,379.6,903.1,379.3,902.6,378.4"/>
<path id="Fill-84" class="st13" d="M1001.8,245v13.6c0,1.1-0.7,1.7-1.7,1.7c-1.1,0-1.7-0.7-1.7-1.7V245c0-1.1,0.7-1.6,1.7-1.6
	S1001.8,244,1001.8,245"/>
<path id="Fill-10_1_" class="st11" d="M356.6,20.5c0,1.3,1.1,2.3,2.4,2.3s2.4-1,2.4-2.3s-1.1-2.4-2.4-2.4S356.6,19.2,356.6,20.5"/>
<path id="Fill-16_1_" class="st10" d="M599.7,46.9V13.3c0-1.1-0.7-1.7-1.7-1.7c-1.1,0-1.7,0.7-1.7,1.7v33.5c0,1.1,0.7,1.6,1.7,1.6
	C599.1,48.5,599.7,47.9,599.7,46.9"/>
<path id="Fill-16_2_" class="st10" d="M19.5,263v-33.5c0-1.1-0.7-1.7-1.7-1.7c-1.1,0-1.7,0.7-1.7,1.7V263c0,1.1,0.7,1.6,1.7,1.6
	C18.9,264.7,19.5,264.1,19.5,263"/>
<path id="Fill-27_1_" class="st11" d="M415.1,25.8c0.7,0.8,1.6,0.8,2.4,0.1l13.4-13.4c0.8-0.7,0.8-1.7,0-2.4c-0.7-0.8-1.7-0.8-2.4,0
	l-13.4,13.4C414.3,24.2,414.4,25,415.1,25.8"/>
<path id="Fill-29" class="st10" d="M573.8,57.9c0.8,0.7,1.6,0.8,2.4,0.1l13.4-13.4c0.7-0.7,0.7-1.7,0-2.4c-0.8-0.7-1.7-0.7-2.4,0
	l-13.4,13.4C573,56.3,573,57.2,573.8,57.9"/>
<path id="Fill-31_1_" class="st9" d="M627.1,25.8h-10.5c-1.1,0-1.7,0.7-1.7,1.7c0,1.1,0.7,1.7,1.7,1.7h10.5c1.1,0,1.6-0.7,1.6-1.7
	C628.7,26.5,628.2,25.8,627.1,25.8"/>
<path id="Fill-37_1_" class="st13" d="M568.1,50.9h-20.5c-1.1,0-1.7,0.7-1.7,1.7c0,1.1,0.7,1.7,1.7,1.7h20.5c1.1,0,1.6-0.7,1.6-1.7
	C569.7,51.5,569.1,50.9,568.1,50.9"/>
<path id="Fill-39_1_" class="st14" d="M382,37.5v22.8c0,1.1,0.7,1.7,1.7,1.7c1.1,0,1.7-0.7,1.7-1.7V37.5c0-1.1-0.7-1.6-1.7-1.6
	C382.7,35.8,382,36.4,382,37.5"/>
<path id="Fill-45_1_" class="st12" d="M129.5,69.3v33.5c0,1.1,0.7,1.7,1.7,1.7c1.1,0,1.7-0.7,1.7-1.7V69.3c0-1.1-0.7-1.6-1.7-1.6
	C130.1,67.7,129.5,68.3,129.5,69.3"/>
<path id="Fill-47_1_" class="st13" d="M732.2,30.2c0,2.7,2.2,4.8,4.8,4.8s4.8-2.1,4.8-4.8c0-2.6-2.2-4.8-4.8-4.8
	C734.4,25.3,732.2,27.6,732.2,30.2"/>
<path id="Fill-59_1_" class="st10" d="M340.7,43.1h5.3c1.1,0,1.7-0.7,1.7-1.7c0-1.1-0.7-1.7-1.7-1.7h-5.3c-1.1,0-1.6,0.7-1.6,1.7
	C339.1,42.5,339.7,43.1,340.7,43.1"/>
<path id="Fill-61_1_" class="st9" d="M680.1,55.8l3.7-3.7c0.8-0.8,0.8-1.7,0-2.4c-0.7-0.8-1.7-0.8-2.4,0l-3.7,3.7
	c-0.8,0.7-0.7,1.6,0.1,2.4C678.5,56.5,679.3,56.5,680.1,55.8"/>
<path id="Fill-63_1_" class="st14" d="M415.4,60.3V55c0-1.1-0.7-1.7-1.7-1.7c-1.1,0-1.7,0.7-1.7,1.7v5.3c0,1.1,0.7,1.6,1.7,1.6
	C414.7,61.9,415.4,61.3,415.4,60.3"/>
<path id="Fill-65_1_" class="st12" d="M435.2,18.2l-3.7-3.7c-0.8-0.8-1.7-0.8-2.4,0c-0.7,0.7-0.7,1.7,0,2.4l3.7,3.7
	c0.7,0.8,1.6,0.7,2.4-0.1C435.8,19.8,435.9,18.9,435.2,18.2"/>
<path id="Fill-71_1_" class="st12" d="M743.8,5.9c0.9,0.9,2.4,0.9,3.3,0c0.9-0.9,0.9-2.4,0-3.3s-2.4-0.9-3.3,0
	C742.9,3.4,742.9,5,743.8,5.9"/>
<path id="Fill-76_1_" class="st9" d="M801.8,43.9l-20-12.4c-0.9-0.6-1.8-0.3-2.4,0.6c-0.6,0.9-0.3,1.8,0.6,2.4l20,12.4
	c0.9,0.6,1.7,0.3,2.3-0.6C802.9,45.3,802.7,44.4,801.8,43.9"/>
<path id="Fill-47_3_" class="st13" d="M50.8,337.3c-2.7,0-4.8-2.2-4.8-4.8s2.1-4.8,4.8-4.8c2.6,0,4.8,2.2,4.8,4.8
	C55.7,335.1,53.5,337.3,50.8,337.3"/>
<path id="Fill-55_1_" class="st14" d="M121.2,310h-5.3c-1.1,0-1.7-0.7-1.7-1.7c0-1.1,0.7-1.7,1.7-1.7h5.3c1.1,0,1.6,0.7,1.6,1.7
	C122.8,309.4,122.2,310,121.2,310"/>
<path id="Fill-57_1_" class="st11" d="M96.6,367.7l-3.7-3.7c-0.8-0.8-0.8-1.7,0-2.4c0.7-0.8,1.7-0.8,2.4,0l3.7,3.7
	c0.8,0.7,0.7,1.6-0.1,2.4C98.2,368.4,97.4,368.4,96.6,367.7"/>
<path id="Fill-61_2_" class="st9" d="M25.2,389.4l3.7-3.7c0.8-0.8,1.7-0.8,2.4,0c0.8,0.7,0.8,1.7,0,2.4l-3.7,3.7
	c-0.7,0.8-1.6,0.7-2.4-0.1C24.5,391,24.5,390.1,25.2,389.4"/>
<path id="Fill-71_3_" class="st12" d="M75.1,325.7c-0.9-0.9-0.9-2.4,0-3.3c0.9-0.9,2.4-0.9,3.3,0c0.9,0.9,0.9,2.4,0,3.3
	C77.6,326.6,76,326.6,75.1,325.7"/>
<path id="Fill-76_3_" class="st9" d="M30.4,293l-20-12.4c-0.9-0.6-1.8-0.3-2.4,0.6c-0.6,0.9-0.3,1.8,0.6,2.4l20,12.4
	c0.9,0.6,1.7,0.3,2.3-0.6C31.5,294.4,31.3,293.5,30.4,293"/>
<path id="Fill-78_1_" class="st11" d="M318.6,41.7c-0.9-0.6-1.8-0.4-2.3,0.5l-12.4,20c-0.6,0.9-0.3,1.8,0.6,2.4s1.8,0.3,2.4-0.6
	l12.4-20C319.8,43.1,319.5,42.3,318.6,41.7"/>
<path id="Fill-80_1_" class="st12" d="M280.7,47.9l20,12.4c0.9,0.6,1.8,0.3,2.4-0.6c0.6-0.9,0.3-1.8-0.6-2.4l-20-12.4
	c-0.9-0.6-1.7-0.3-2.3,0.6C279.7,46.5,279.8,47.3,280.7,47.9"/>
<path id="Fill-84_1_" class="st13" d="M675.5,93.7h-13.6c-1.1,0-1.7,0.7-1.7,1.7c0,1.1,0.7,1.7,1.7,1.7h13.6c1.1,0,1.6-0.7,1.6-1.7
	C677.1,94.4,676.6,93.7,675.5,93.7"/>
</svg>
