<?xml version="1.0" encoding="utf-8"?>
<!-- Generator: Adobe Illustrator 17.0.0, SVG Export Plug-In . SVG Version: 6.00 Build 0)  -->
<!DOCTYPE svg PUBLIC "-//W3C//DTD SVG 1.1//EN" "http://www.w3.org/Graphics/SVG/1.1/DTD/svg11.dtd">
<svg version="1.1" id="Layer_1" xmlns="http://www.w3.org/2000/svg" xmlns:xlink="http://www.w3.org/1999/xlink" x="0px" y="0px"
	 width="33.527px" height="8.537px" viewBox="0 0 33.527 8.537" enable-background="new 0 0 33.527 8.537" xml:space="preserve">
<g>
	<path fill="#1C3557" d="M0,0.012h4.26c0.12,0,0.226,0.048,0.318,0.144C4.67,0.252,4.716,0.36,4.716,0.48S4.67,0.704,4.578,0.792
		C4.486,0.88,4.38,0.924,4.26,0.924H0.924v2.592h3.072c0.12,0,0.226,0.046,0.318,0.138c0.092,0.092,0.138,0.198,0.138,0.318
		S4.406,4.198,4.313,4.29C4.221,4.382,4.115,4.428,3.995,4.428h-3.07v3.924H0V0.012z"/>
	<path fill="#1C3557" d="M12.372,8.063c0,0.256-0.12,0.409-0.36,0.457c-0.304,0.064-0.492-0.056-0.564-0.362l-0.516-2.134H8.196
		L7.68,8.148C7.616,8.396,7.48,8.52,7.272,8.52c-0.344,0-0.516-0.152-0.516-0.456c0-0.048,0.004-0.088,0.012-0.12l1.86-7.932h1.848
		l1.884,7.943C12.368,7.987,12.372,8.023,12.372,8.063z M9.36,0.924L8.4,5.1h2.316L9.768,0.924H9.36z"/>
	<path fill="#1C3557" d="M19.164,6.144c0,0.528-0.14,0.988-0.42,1.38c-0.392,0.552-1.004,0.828-1.836,0.828h-2.544v-8.34h2.484
		c0.688,0,1.224,0.194,1.608,0.582s0.576,0.922,0.576,1.602v0.132c0,0.36-0.068,0.688-0.204,0.984
		c-0.16,0.352-0.388,0.592-0.684,0.72c0.36,0.168,0.632,0.464,0.816,0.888c0.136,0.32,0.204,0.632,0.204,0.936V6.144z M18.107,2.304
		V2.196c0-0.848-0.42-1.272-1.26-1.272h-1.56v2.688h1.632C17.711,3.612,18.107,3.176,18.107,2.304z M18.24,6.109V5.867
		c0-0.896-0.424-1.343-1.272-1.343h-1.68V7.44h1.62c0.416,0,0.742-0.117,0.978-0.351C18.122,6.855,18.24,6.529,18.24,6.109z"/>
	<path fill="#1C3557" d="M22.031,0.486c0-0.134,0.046-0.247,0.138-0.337c0.092-0.091,0.206-0.136,0.342-0.136h1.884v7.416h1.476
		c0.128,0,0.238,0.047,0.33,0.142s0.138,0.205,0.138,0.332c0,0.292-0.156,0.438-0.468,0.438h-3.828
		c-0.304,0-0.456-0.146-0.456-0.438c0-0.316,0.16-0.474,0.48-0.474h1.44V0.924h-0.996C22.191,0.924,22.031,0.778,22.031,0.486z"/>
	<path fill="#1C3557" d="M28.823,0.48c0-0.128,0.044-0.24,0.132-0.336C29.043,0.048,29.151,0,29.279,0h4.044v0.797l-1.719,2.597
		c0.585,0.088,1.051,0.326,1.4,0.713s0.523,0.868,0.523,1.443v0.611c0,0.535-0.156,1.014-0.468,1.437
		c-0.424,0.575-1.048,0.862-1.872,0.862c-0.856,0-1.496-0.279-1.92-0.836c-0.32-0.414-0.48-0.9-0.48-1.458
		c0-0.311,0.152-0.466,0.456-0.466c0.12,0,0.228,0.048,0.324,0.144c0.096,0.096,0.144,0.204,0.144,0.324
		c0,0.424,0.132,0.76,0.396,1.008s0.608,0.372,1.032,0.372c0.424,0,0.774-0.126,1.05-0.378s0.414-0.586,0.414-1.002V5.58
		c0-0.416-0.138-0.74-0.414-0.972c-0.276-0.232-0.626-0.348-1.05-0.348h-0.636V3.492l1.692-2.556h-2.916
		c-0.128,0-0.236-0.044-0.324-0.132C28.867,0.716,28.823,0.608,28.823,0.48z"/>
</g>
</svg>
