<?xml version="1.0" encoding="utf-8"?>
<!-- Generator: Adobe Illustrator 17.0.0, SVG Export Plug-In . SVG Version: 6.00 Build 0)  -->
<!DOCTYPE svg PUBLIC "-//W3C//DTD SVG 1.1//EN" "http://www.w3.org/Graphics/SVG/1.1/DTD/svg11.dtd">
<svg version="1.1" id="Layer_4" xmlns="http://www.w3.org/2000/svg" xmlns:xlink="http://www.w3.org/1999/xlink" x="0px" y="0px"
	 width="500px" height="250px" viewBox="0 0 500 250" enable-background="new 0 0 500 250" xml:space="preserve">
<g>
	<g>
		<g>
			<path fill="#471049" d="M48.602,64.16l0.025,20.244l34.967-0.044l0.019,14.723l-34.967,0.044l0.042,33.127l-18.404,0.023
				L30.18,49.46l58.892-0.074l0.019,14.723L48.602,64.16z"/>
			<path fill="#471049" d="M167.291,110.053l0.028,22.05l-18.404,0.023l-0.024-19.398l-0.879-4.526l-31.638,0.04l-2.449,4.53
				l0.024,19.398l-16.563,0.021l-0.028-22.05l25.944-60.799l17.505-0.022L167.291,110.053z M121.43,93.514l21.369-0.027
				l-10.424-25.752l-0.593,0.001L121.43,93.514z"/>
			<path fill="#471049" d="M181.937,49.269l37.454-0.047c13.875-0.017,21.444,5.198,21.461,18.609l0.009,7.243
				c0.008,6.033-2.756,12.201-9.881,14.256c7.13,2.049,9.909,8.201,9.917,14.243l0.011,8.673
				c0.017,13.411-7.538,19.776-21.412,19.793l-37.454,0.047L181.937,49.269z M217.136,82.351c5.313-0.007,7.167-2.913,7.162-7.387
				l-0.005-4.099c-0.006-4.466-1.748-6.924-7.18-6.918l-18.594,0.023l0.023,18.404L217.136,82.351z M217.178,115.478
				c5.431-0.007,7.169-1.997,7.163-6.468l-0.007-5.417c-0.006-4.473-1.866-6.525-7.179-6.519l-18.594,0.023l0.023,18.404
				L217.178,115.478z"/>
		</g>
		<g>
			<path fill="#EE3045" d="M30.264,165.496l5.642-0.007c0.33,2.412,2.213,4.004,4.952,4c2.412-0.003,4.087-0.905,4.085-2.867
				c-0.002-1.594-0.943-2.493-2.948-3.022l-4.826-1.302c-4.376-1.18-6.547-4.244-6.552-8.455c-0.007-5.724,4.487-8.346,9.475-8.352
				c5.724-0.007,9.285,3.341,9.905,8.205l-5.642,0.007c-0.493-1.921-2.497-2.777-4.337-2.775c-2.289,0.003-3.924,0.904-3.921,2.908
				c0.002,1.676,1.311,2.411,2.865,2.817l4.662,1.262c4.417,1.18,6.792,3.875,6.798,8.7c0.006,5.151-3.342,8.304-9.556,8.311
				C34.61,174.935,30.557,171.179,30.264,165.496z"/>
			<path fill="#EE3045" d="M70.263,145.862l5.478-0.007l0.036,28.619l-5.478,0.007l-0.015-11.734l-10.63,0.013l0.015,11.734
				l-5.478,0.007l-0.036-28.619l5.478-0.007l0.014,11.447l10.63-0.013L70.263,145.862z"/>
			<path fill="#EE3045" d="M86.547,157.289l11.938-0.015l0.007,5.438l-11.938,0.015l0.008,6.296l11.938-0.015l0.007,5.438
				l-17.417,0.022l-0.036-28.619l17.417-0.022l0.007,5.438l-11.938,0.015L86.547,157.289z"/>
			<path fill="#EE3045" d="M124.752,174.413l-5.478,0.007l-10.653-18.425l0.023,18.439l-5.478,0.007l-0.036-28.619l5.478-0.007
				l10.653,18.425l-0.023-18.439l5.478-0.007L124.752,174.413z"/>
			<path fill="#EE3045" d="M128.389,174.408l-0.007-5.438l14.287-17.762l-14.105,0.018l-0.007-5.438l21.383-0.027l0.007,5.438
				l-14.287,17.762l14.514-0.018l0.007,5.438L128.389,174.408z"/>
			<path fill="#EE3045" d="M169.971,145.737l5.478-0.007l0.036,28.619l-5.478,0.007l-0.015-11.734l-10.63,0.013l0.015,11.734
				l-5.478,0.007l-0.036-28.619l5.478-0.007l0.014,11.448l10.63-0.013L169.971,145.737z"/>
			<path fill="#EE3045" d="M186.255,157.164l11.938-0.015l0.007,5.438l-11.938,0.015l0.008,6.296l11.938-0.015l0.007,5.438
				l-17.417,0.022l-0.036-28.619l17.417-0.022l0.007,5.438l-11.938,0.015L186.255,157.164z"/>
			<path fill="#EE3045" d="M224.461,174.287l-5.478,0.007l-10.653-18.425l0.023,18.439l-5.478,0.007l-0.036-28.619l5.478-0.007
				l10.653,18.425l-0.023-18.439l5.478-0.007L224.461,174.287z"/>
		</g>
	</g>
	<g>
		<polygon fill="#471049" points="292.569,73.064 277.401,81.821 277.401,64.416 292.569,55.658 		"/>
		<polygon fill="#471049" points="277.401,64.416 262.158,55.685 277.306,46.955 292.569,55.658 		"/>
		<polygon fill="#F1C233" points="277.401,81.821 262.233,73.064 262.158,55.685 277.401,64.416 		"/>
	</g>
	<g>
		<polygon fill="#471049" points="307.775,81.766 292.607,90.524 292.607,73.118 307.775,64.361 		"/>
		<polygon fill="#471049" points="292.607,73.118 277.363,64.388 292.512,55.658 307.775,64.361 		"/>
		<polygon fill="#471049" points="292.607,90.524 277.438,81.766 277.363,64.388 292.607,73.118 		"/>
	</g>
	<g>
		<polygon fill="#EE3045" points="292.569,55.617 277.401,64.375 277.401,46.969 292.569,38.212 		"/>
		<polygon fill="#471049" points="277.401,46.969 262.158,38.239 277.306,29.509 292.569,38.212 		"/>
		<polygon fill="#F1C233" points="277.401,64.375 262.233,55.617 262.158,38.239 277.401,46.969 		"/>
	</g>
	<g>
		<polygon fill="#EE3045" points="265.281,76.146 250.113,84.903 250.113,67.498 265.281,58.74 		"/>
		<polygon fill="#471049" points="250.113,67.498 234.87,58.768 250.018,50.038 265.281,58.74 		"/>
		<polygon fill="#F1C233" points="250.113,84.903 234.945,76.146 234.87,58.768 250.113,67.498 		"/>
	</g>
	<g>
		<polygon fill="#471049" points="307.775,64.32 292.607,73.077 292.607,55.672 307.775,46.914 		"/>
		<polygon fill="#471049" points="292.607,55.672 277.363,46.942 292.512,38.212 307.775,46.914 		"/>
		<polygon fill="#471049" points="292.607,73.077 277.438,64.32 277.363,46.942 292.607,55.672 		"/>
	</g>
	<g>
		<polygon fill="#471049" points="292.607,72.995 277.438,81.753 277.438,64.347 292.607,55.59 		"/>
		<polygon fill="#471049" points="277.438,64.347 262.195,55.617 277.344,46.887 292.607,55.59 		"/>
		<polygon fill="#F1C233" points="277.438,81.753 262.27,72.995 262.195,55.617 277.438,64.347 		"/>
	</g>
	<g>
		<polygon fill="#471049" points="295.328,52.332 280.16,61.089 280.16,43.684 295.328,34.926 		"/>
		<polygon fill="#471049" points="280.16,43.684 264.917,34.954 280.065,26.224 295.328,34.926 		"/>
		<polygon fill="#F1C233" points="280.16,61.089 264.992,52.332 264.917,34.954 280.16,43.684 		"/>
	</g>
	<g>
		<polygon fill="#471049" points="292.513,178.215 277.345,186.972 277.345,169.567 292.513,160.809 		"/>
		<polygon fill="#471049" points="277.345,169.567 262.102,160.836 277.25,152.106 292.513,160.809 		"/>
		<polygon fill="#F1C233" points="277.345,186.972 262.176,178.215 262.102,160.836 277.345,169.567 		"/>
	</g>
	<g>
		<polygon fill="#EE3045" points="277.345,186.89 262.176,195.648 262.176,178.242 277.345,169.485 		"/>
		<polygon fill="#471049" points="262.176,178.242 246.933,169.512 262.082,160.782 277.345,169.485 		"/>
		<polygon fill="#F1C233" points="262.176,195.648 247.008,186.89 246.933,169.512 262.176,178.242 		"/>
	</g>
	<g>
		<polygon fill="#471049" points="307.719,186.917 292.551,195.675 292.551,178.269 307.719,169.512 		"/>
		<polygon fill="#471049" points="292.551,178.269 277.307,169.539 292.456,160.809 307.719,169.512 		"/>
		<polygon fill="#471049" points="292.551,195.675 277.382,186.917 277.307,169.539 292.551,178.269 		"/>
	</g>
	<g>
		<polygon fill="#471049" points="277.438,204.453 262.27,213.21 262.27,195.805 277.438,187.047 		"/>
		<polygon fill="#471049" points="262.27,195.805 247.027,187.075 262.175,178.344 277.438,187.047 		"/>
		<polygon fill="#F1C233" points="262.27,213.21 247.101,204.453 247.027,187.075 262.27,195.805 		"/>
	</g>
	<g>
		<polygon fill="#EE3045" points="292.513,160.768 277.345,169.526 277.345,152.12 292.513,143.363 		"/>
		<polygon fill="#471049" points="277.345,152.12 262.102,143.39 277.25,134.66 292.513,143.363 		"/>
		<polygon fill="#F1C233" points="277.345,169.526 262.176,160.768 262.102,143.39 277.345,152.12 		"/>
	</g>
	<g>
		<polygon fill="#EE3045" points="275.334,167.835 260.166,176.592 260.166,159.187 275.334,150.429 		"/>
		<polygon fill="#471049" points="260.166,159.187 244.922,150.457 260.071,141.726 275.334,150.429 		"/>
		<polygon fill="#F1C233" points="260.166,176.592 244.997,167.835 244.922,150.457 260.166,159.187 		"/>
	</g>
	<g>
		<polygon fill="#471049" points="307.719,169.471 292.551,178.228 292.551,160.823 307.719,152.065 		"/>
		<polygon fill="#471049" points="292.551,160.823 277.307,152.093 292.456,143.363 307.719,152.065 		"/>
		<polygon fill="#471049" points="292.551,178.228 277.382,169.471 277.307,152.093 292.551,160.823 		"/>
	</g>
	<g>
		<polygon fill="#471049" points="292.55,178.146 277.382,186.904 277.382,169.498 292.55,160.741 		"/>
		<polygon fill="#471049" points="277.382,169.498 262.139,160.768 277.287,152.038 292.55,160.741 		"/>
		<polygon fill="#F1C233" points="277.382,186.904 262.214,178.146 262.139,160.768 277.382,169.498 		"/>
	</g>
	<g>
		<polygon fill="#471049" points="322.887,195.675 307.719,204.432 307.719,187.027 322.887,178.269 		"/>
		<polygon fill="#471049" points="307.719,187.027 292.476,178.297 307.624,169.567 322.887,178.269 		"/>
		<polygon fill="#F1C233" points="307.719,204.432 292.551,195.675 292.476,178.297 307.719,187.027 		"/>
	</g>
	<g>
		<polygon fill="#EE3045" points="307.719,204.35 292.55,213.108 292.55,195.702 307.719,186.945 		"/>
		<polygon fill="#471049" points="292.55,195.702 277.307,186.972 292.456,178.242 307.719,186.945 		"/>
		<polygon fill="#F1C233" points="292.55,213.108 277.382,204.35 277.307,186.972 292.55,195.702 		"/>
	</g>
	<g>
		<polygon fill="#471049" points="338.093,204.378 322.925,213.135 322.925,195.73 338.093,186.972 		"/>
		<polygon fill="#471049" points="322.925,195.73 307.682,186.999 322.83,178.269 338.093,186.972 		"/>
		<polygon fill="#471049" points="322.925,213.135 307.756,204.378 307.682,186.999 322.925,195.73 		"/>
	</g>
	<g>
		<polygon fill="#471049" points="322.925,213.053 307.756,221.811 307.756,204.405 322.925,195.648 		"/>
		<polygon fill="#471049" points="307.756,204.405 292.513,195.675 307.662,186.945 322.925,195.648 		"/>
		<polygon fill="#F1C233" points="307.756,221.811 292.588,213.053 292.513,195.675 307.756,204.405 		"/>
	</g>
	<g>
		<polygon fill="#EE3045" points="322.887,178.228 307.719,186.986 307.719,169.58 322.887,160.823 		"/>
		<polygon fill="#471049" points="307.719,169.58 292.476,160.85 307.624,152.12 322.887,160.823 		"/>
		<polygon fill="#F1C233" points="307.719,186.986 292.551,178.228 292.476,160.85 307.719,169.58 		"/>
	</g>
	<g>
		<polygon fill="#EE3045" points="307.719,186.904 292.55,195.661 292.55,178.256 307.719,169.498 		"/>
		<polygon fill="#471049" points="292.55,178.256 277.307,169.526 292.456,160.795 307.719,169.498 		"/>
		<polygon fill="#F1C233" points="292.55,195.661 277.382,186.904 277.307,169.526 292.55,178.256 		"/>
	</g>
	<g>
		<polygon fill="#471049" points="338.093,186.931 322.925,195.689 322.925,178.283 338.093,169.526 		"/>
		<polygon fill="#471049" points="322.925,178.283 307.682,169.553 322.83,160.823 338.093,169.526 		"/>
		<polygon fill="#471049" points="322.925,195.689 307.756,186.931 307.682,169.553 322.925,178.283 		"/>
	</g>
	<g>
		<polygon fill="#471049" points="318.903,199.944 303.734,208.702 303.734,191.296 318.903,182.539 		"/>
		<polygon fill="#471049" points="303.734,191.296 288.491,182.566 303.64,173.836 318.903,182.539 		"/>
		<polygon fill="#F1C233" points="303.734,208.702 288.566,199.944 288.491,182.566 303.734,191.296 		"/>
	</g>
	<g>
		<polygon fill="#471049" points="322.887,160.672 307.719,169.43 307.719,152.024 322.887,143.267 		"/>
		<polygon fill="#471049" points="307.719,152.024 292.476,143.294 307.624,134.564 322.887,143.267 		"/>
		<polygon fill="#F1C233" points="307.719,169.43 292.551,160.672 292.476,143.294 307.719,152.024 		"/>
	</g>
	<g>
		<polygon fill="#EE3045" points="307.719,169.348 292.55,178.105 292.55,160.7 307.719,151.942 		"/>
		<polygon fill="#471049" points="292.55,160.7 277.307,151.97 292.456,143.239 307.719,151.942 		"/>
		<polygon fill="#F1C233" points="292.55,178.105 277.382,169.348 277.307,151.97 292.55,160.7 		"/>
	</g>
	<g>
		<polygon fill="#471049" points="338.093,169.375 322.925,178.133 322.925,160.727 338.093,151.97 		"/>
		<polygon fill="#471049" points="322.925,160.727 307.682,151.997 322.83,143.267 338.093,151.97 		"/>
		<polygon fill="#471049" points="322.925,178.133 307.756,169.375 307.682,151.997 322.925,160.727 		"/>
	</g>
	<g>
		<polygon fill="#471049" points="322.925,178.051 307.756,186.808 307.756,169.402 322.925,160.645 		"/>
		<polygon fill="#471049" points="307.756,169.402 292.513,160.672 307.662,151.942 322.925,160.645 		"/>
		<polygon fill="#F1C233" points="307.756,186.808 292.588,178.051 292.513,160.672 307.756,169.402 		"/>
	</g>
	<g>
		<polygon fill="#EE3045" points="322.887,143.226 307.719,151.983 307.719,134.578 322.887,125.82 		"/>
		<polygon fill="#471049" points="307.719,134.578 292.476,125.848 307.624,117.117 322.887,125.82 		"/>
		<polygon fill="#F1C233" points="307.719,151.983 292.551,143.226 292.476,125.848 307.719,134.578 		"/>
	</g>
	<g>
		<polygon fill="#EE3045" points="307.719,151.901 292.55,160.659 292.55,143.253 307.719,134.496 		"/>
		<polygon fill="#471049" points="292.55,143.253 277.307,134.523 292.456,125.793 307.719,134.496 		"/>
		<polygon fill="#F1C233" points="292.55,160.659 277.382,151.901 277.307,134.523 292.55,143.253 		"/>
	</g>
	<g>
		<polygon fill="#471049" points="338.093,151.929 322.925,160.686 322.925,143.281 338.093,134.523 		"/>
		<polygon fill="#471049" points="322.925,143.281 307.682,134.55 322.83,125.82 338.093,134.523 		"/>
		<polygon fill="#471049" points="322.925,160.686 307.756,151.929 307.682,134.55 322.925,143.281 		"/>
	</g>
	<g>
		<polygon fill="#471049" points="322.925,160.604 307.756,169.362 307.756,151.956 322.925,143.198 		"/>
		<polygon fill="#471049" points="307.756,151.956 292.513,143.226 307.662,134.496 322.925,143.198 		"/>
		<polygon fill="#F1C233" points="307.756,169.362 292.588,160.604 292.513,143.226 307.756,151.956 		"/>
	</g>
	<g>
		<polygon fill="#471049" points="322.887,125.67 307.719,134.427 307.719,117.022 322.887,108.264 		"/>
		<polygon fill="#471049" points="307.719,117.022 292.476,108.292 307.624,99.562 322.887,108.264 		"/>
		<polygon fill="#F1C233" points="307.719,134.427 292.551,125.67 292.476,108.292 307.719,117.022 		"/>
	</g>
	<g>
		<polygon fill="#EE3045" points="300.228,134.318 285.06,143.075 285.06,125.67 300.228,116.912 		"/>
		<polygon fill="#471049" points="285.06,125.67 269.817,116.94 284.965,108.21 300.228,116.912 		"/>
		<polygon fill="#F1C233" points="285.06,143.075 269.891,134.318 269.817,116.94 285.06,125.67 		"/>
	</g>
	<g>
		<polygon fill="#471049" points="338.093,134.373 322.925,143.13 322.925,125.725 338.093,116.967 		"/>
		<polygon fill="#471049" points="322.925,125.725 307.682,116.994 322.83,108.264 338.093,116.967 		"/>
		<polygon fill="#471049" points="322.925,143.13 307.756,134.373 307.682,116.994 322.925,125.725 		"/>
	</g>
	<g>
		<polygon fill="#471049" points="322.925,143.048 307.756,151.806 307.756,134.4 322.925,125.643 		"/>
		<polygon fill="#471049" points="307.756,134.4 292.513,125.67 307.662,116.94 322.925,125.643 		"/>
		<polygon fill="#F1C233" points="307.756,151.806 292.588,143.048 292.513,125.67 307.756,134.4 		"/>
	</g>
	<g>
		<polygon fill="#EE3045" points="322.887,108.223 307.719,116.981 307.719,99.575 322.887,90.818 		"/>
		<polygon fill="#471049" points="307.719,99.575 292.476,90.845 307.624,82.115 322.887,90.818 		"/>
		<polygon fill="#F1C233" points="307.719,116.981 292.551,108.223 292.476,90.845 307.719,99.575 		"/>
	</g>
	<g>
		<polygon fill="#EE3045" points="307.719,116.899 292.55,125.656 292.55,108.251 307.719,99.493 		"/>
		<polygon fill="#471049" points="292.55,108.251 277.307,99.521 292.456,90.79 307.719,99.493 		"/>
		<polygon fill="#F1C233" points="292.55,125.656 277.382,116.899 277.307,99.521 292.55,108.251 		"/>
	</g>
	<g>
		<polygon fill="#471049" points="338.093,116.926 322.925,125.684 322.925,108.278 338.093,99.521 		"/>
		<polygon fill="#471049" points="322.925,108.278 307.682,99.548 322.83,90.818 338.093,99.521 		"/>
		<polygon fill="#471049" points="322.925,125.684 307.756,116.926 307.682,99.548 322.925,108.278 		"/>
	</g>
	<g>
		<polygon fill="#471049" points="325.74,122.384 310.571,131.142 310.571,113.736 325.74,104.979 		"/>
		<polygon fill="#471049" points="310.571,113.736 295.328,105.006 310.477,96.276 325.74,104.979 		"/>
		<polygon fill="#F1C233" points="310.571,131.142 295.403,122.384 295.328,105.006 310.571,113.736 		"/>
	</g>
	<g>
		<polygon fill="#471049" points="322.887,90.667 307.719,99.425 307.719,82.019 322.887,73.262 		"/>
		<polygon fill="#471049" points="307.719,82.019 292.476,73.289 307.624,64.559 322.887,73.262 		"/>
		<polygon fill="#F1C233" points="307.719,99.425 292.551,90.667 292.476,73.289 307.719,82.019 		"/>
	</g>
	<g>
		<polygon fill="#EE3045" points="307.719,99.343 292.55,108.1 292.55,90.695 307.719,81.937 		"/>
		<polygon fill="#471049" points="292.55,90.695 277.307,81.965 292.456,73.235 307.719,81.937 		"/>
		<polygon fill="#F1C233" points="292.55,108.1 277.382,99.343 277.307,81.965 292.55,90.695 		"/>
	</g>
	<g>
		<polygon fill="#471049" points="338.093,99.37 322.925,108.128 322.925,90.722 338.093,81.965 		"/>
		<polygon fill="#471049" points="322.925,90.722 307.682,81.992 322.83,73.262 338.093,81.965 		"/>
		<polygon fill="#471049" points="322.925,108.128 307.756,99.37 307.682,81.992 322.925,90.722 		"/>
	</g>
	<g>
		<polygon fill="#471049" points="322.925,108.046 307.756,116.803 307.756,99.398 322.925,90.64 		"/>
		<polygon fill="#471049" points="307.756,99.398 292.513,90.667 307.662,81.937 322.925,90.64 		"/>
		<polygon fill="#F1C233" points="307.756,116.803 292.588,108.046 292.513,90.667 307.756,99.398 		"/>
	</g>
	<g>
		<polygon fill="#EE3045" points="322.887,73.221 307.719,81.978 307.719,64.573 322.887,55.815 		"/>
		<polygon fill="#471049" points="307.719,64.573 292.476,55.843 307.624,47.113 322.887,55.815 		"/>
		<polygon fill="#F1C233" points="307.719,81.978 292.551,73.221 292.476,55.843 307.719,64.573 		"/>
	</g>
	<g>
		<polygon fill="#EE3045" points="307.719,81.896 292.55,90.654 292.55,73.248 307.719,64.491 		"/>
		<polygon fill="#471049" points="292.55,73.248 277.307,64.518 292.456,55.788 307.719,64.491 		"/>
		<polygon fill="#F1C233" points="292.55,90.654 277.382,81.896 277.307,64.518 292.55,73.248 		"/>
	</g>
	<g>
		<polygon fill="#471049" points="338.093,81.924 322.925,90.681 322.925,73.276 338.093,64.518 		"/>
		<polygon fill="#471049" points="322.925,73.276 307.682,64.545 322.83,55.815 338.093,64.518 		"/>
		<polygon fill="#471049" points="322.925,90.681 307.756,81.924 307.682,64.545 322.925,73.276 		"/>
	</g>
	<g>
		<polygon fill="#471049" points="322.925,90.599 307.756,99.357 307.756,81.951 322.925,73.194 		"/>
		<polygon fill="#471049" points="307.756,81.951 292.513,73.221 307.662,64.491 322.925,73.194 		"/>
		<polygon fill="#F1C233" points="307.756,99.357 292.588,90.599 292.513,73.221 307.756,81.951 		"/>
	</g>
	<g>
		<polygon fill="#471049" points="322.887,55.665 307.719,64.422 307.719,47.017 322.887,38.259 		"/>
		<polygon fill="#471049" points="307.719,47.017 292.476,38.287 307.624,29.557 322.887,38.259 		"/>
		<polygon fill="#F1C233" points="307.719,64.422 292.551,55.665 292.476,38.287 307.719,47.017 		"/>
	</g>
	<g>
		<polygon fill="#EE3045" points="307.719,64.34 292.55,73.098 292.55,55.692 307.719,46.935 		"/>
		<polygon fill="#471049" points="292.55,55.692 277.307,46.962 292.456,38.232 307.719,46.935 		"/>
		<polygon fill="#F1C233" points="292.55,73.098 277.382,64.34 277.307,46.962 292.55,55.692 		"/>
	</g>
	<g>
		<polygon fill="#471049" points="338.093,64.368 322.925,73.125 322.925,55.72 338.093,46.962 		"/>
		<polygon fill="#471049" points="322.925,55.72 307.682,46.99 322.83,38.259 338.093,46.962 		"/>
		<polygon fill="#471049" points="322.925,73.125 307.756,64.368 307.682,46.989 322.925,55.72 		"/>
	</g>
	<g>
		<polygon fill="#471049" points="322.925,73.043 307.756,81.801 307.756,64.395 322.925,55.638 		"/>
		<polygon fill="#471049" points="307.756,64.395 292.513,55.665 307.662,46.935 322.925,55.638 		"/>
		<polygon fill="#F1C233" points="307.756,81.801 292.588,73.043 292.513,55.665 307.756,64.395 		"/>
	</g>
	<g>
		<polygon fill="#EE3045" points="322.887,38.218 307.719,46.976 307.719,29.57 322.887,20.813 		"/>
		<polygon fill="#471049" points="307.719,29.57 292.476,20.84 307.624,12.11 322.887,20.813 		"/>
		<polygon fill="#F1C233" points="307.719,46.976 292.551,38.218 292.476,20.84 307.719,29.57 		"/>
	</g>
	<g>
		<polygon fill="#EE3045" points="307.719,44.079 292.55,52.836 292.55,35.43 307.719,26.673 		"/>
		<polygon fill="#471049" points="292.55,35.43 277.307,26.7 292.456,17.97 307.719,26.673 		"/>
		<polygon fill="#F1C233" points="292.55,52.836 277.382,44.079 277.307,26.7 292.55,35.43 		"/>
	</g>
	<g>
		<polygon fill="#471049" points="338.093,46.921 322.925,55.679 322.925,38.273 338.093,29.516 		"/>
		<polygon fill="#471049" points="322.925,38.273 307.682,29.543 322.83,20.813 338.093,29.516 		"/>
		<polygon fill="#471049" points="322.925,55.679 307.756,46.921 307.682,29.543 322.925,38.273 		"/>
	</g>
	<g>
		<polygon fill="#471049" points="322.925,55.597 307.756,64.354 307.756,46.948 322.925,38.191 		"/>
		<polygon fill="#471049" points="307.756,46.948 292.513,38.218 307.662,29.488 322.925,38.191 		"/>
		<polygon fill="#F1C233" points="307.756,64.354 292.588,55.597 292.513,38.218 307.756,46.948 		"/>
	</g>
	<g>
		<polygon fill="#EE3045" points="429.222,169.478 414.054,178.235 414.054,160.83 429.222,152.072 		"/>
		<polygon fill="#471049" points="414.054,160.83 398.811,152.099 413.959,143.369 429.222,152.072 		"/>
		<polygon fill="#471049" points="414.054,178.235 398.885,169.478 398.811,152.099 414.054,160.83 		"/>
	</g>
	<g>
		<polygon fill="#EE3045" points="444.353,160.83 429.185,169.587 429.185,152.181 444.353,143.424 		"/>
		<polygon fill="#471049" points="429.185,152.181 413.942,143.451 429.09,134.721 444.353,143.424 		"/>
		<polygon fill="#471049" points="429.185,169.587 414.016,160.83 413.942,143.451 429.185,152.181 		"/>
	</g>
	<g>
		<polygon fill="#EE3045" points="459.578,169.56 444.409,178.317 444.409,160.912 459.578,152.154 		"/>
		<polygon fill="#471049" points="444.409,160.912 429.166,152.181 444.315,143.451 459.578,152.154 		"/>
		<polygon fill="#471049" points="444.409,178.317 429.241,169.56 429.166,152.181 444.409,160.912 		"/>
	</g>
	<g>
		<polygon fill="#EE3045" points="444.372,178.29 429.203,187.047 429.203,169.642 444.372,160.884 		"/>
		<polygon fill="#471049" points="429.203,169.642 413.96,160.912 429.109,152.181 444.372,160.884 		"/>
		<polygon fill="#471049" points="429.203,187.047 414.035,178.29 413.96,160.912 429.203,169.642 		"/>
	</g>
	<g>
		<polygon fill="#EE3045" points="444.353,143.369 429.185,152.127 429.185,134.721 444.353,125.964 		"/>
		<polygon fill="#471049" points="429.185,134.721 413.942,125.991 429.09,117.261 444.353,125.964 		"/>
		<polygon fill="#471049" points="429.185,152.127 414.016,143.369 413.942,125.991 429.185,134.721 		"/>
	</g>
	<g>
		<polygon fill="#EE3045" points="429.147,152.099 413.979,160.857 413.979,143.451 429.147,134.694 		"/>
		<polygon fill="#471049" points="413.979,143.451 398.736,134.721 413.884,125.991 429.147,134.694 		"/>
		<polygon fill="#471049" points="413.979,160.857 398.811,152.099 398.736,134.721 413.979,143.451 		"/>
	</g>
	<g>
		<polygon fill="#EE3045" points="461.991,152.099 446.822,160.857 446.822,143.451 461.991,134.694 		"/>
		<polygon fill="#471049" points="446.822,143.451 431.579,134.721 446.728,125.991 461.991,134.694 		"/>
		<polygon fill="#471049" points="446.822,160.857 431.654,152.099 431.579,134.721 446.822,143.451 		"/>
	</g>
	<g>
		<polygon fill="#EE3045" points="444.372,160.83 429.203,169.587 429.203,152.181 444.372,143.424 		"/>
		<polygon fill="#471049" points="429.203,152.181 413.96,143.451 429.109,134.721 444.372,143.424 		"/>
		<polygon fill="#471049" points="429.203,169.587 414.035,160.83 413.96,143.451 429.203,152.181 		"/>
	</g>
	<g>
		<polygon fill="#EE3045" points="429.222,64.853 414.054,73.61 414.054,56.205 429.222,47.447 		"/>
		<polygon fill="#471049" points="414.054,56.205 398.811,47.475 413.959,38.745 429.222,47.447 		"/>
		<polygon fill="#471049" points="414.054,73.61 398.885,64.853 398.811,47.475 414.054,56.205 		"/>
	</g>
	<g>
		<polygon fill="#EE3045" points="444.353,56.205 429.185,64.962 429.185,47.557 444.353,38.799 		"/>
		<polygon fill="#471049" points="429.185,47.557 413.942,38.827 429.09,30.096 444.353,38.799 		"/>
		<polygon fill="#471049" points="429.185,64.962 414.016,56.205 413.942,38.827 429.185,47.557 		"/>
	</g>
	<g>
		<polygon fill="#EE3045" points="469.82,71.467 454.651,80.224 454.651,62.819 469.82,54.061 		"/>
		<polygon fill="#471049" points="454.651,62.819 439.408,54.089 454.557,45.359 469.82,54.061 		"/>
		<polygon fill="#471049" points="454.651,80.224 439.483,71.467 439.408,54.089 454.651,62.819 		"/>
	</g>
	<g>
		<polygon fill="#EE3045" points="444.372,73.665 429.203,82.423 429.203,65.017 444.372,56.26 		"/>
		<polygon fill="#471049" points="429.203,65.017 413.96,56.287 429.109,47.557 444.372,56.26 		"/>
		<polygon fill="#471049" points="429.203,82.423 414.035,73.665 413.96,56.287 429.203,65.017 		"/>
	</g>
	<g>
		<polygon fill="#EE3045" points="444.353,38.745 429.185,47.502 429.185,30.096 444.353,21.339 		"/>
		<polygon fill="#471049" points="429.185,30.096 413.942,21.366 429.09,12.636 444.353,21.339 		"/>
		<polygon fill="#471049" points="429.185,47.502 414.016,38.745 413.942,21.366 429.185,30.096 		"/>
	</g>
	<g>
		<polygon fill="#EE3045" points="429.147,47.475 413.979,56.232 413.979,38.827 429.147,30.069 		"/>
		<polygon fill="#471049" points="413.979,38.827 398.736,30.097 413.884,21.366 429.147,30.069 		"/>
		<polygon fill="#471049" points="413.979,56.232 398.811,47.475 398.736,30.096 413.979,38.827 		"/>
	</g>
	<g>
		<polygon fill="#EE3045" points="459.578,47.475 444.409,56.232 444.409,38.827 459.578,30.069 		"/>
		<polygon fill="#471049" points="444.409,38.827 429.166,30.097 444.315,21.366 459.578,30.069 		"/>
		<polygon fill="#471049" points="444.409,56.232 429.241,47.475 429.166,30.097 444.409,38.827 		"/>
	</g>
	<g>
		<polygon fill="#EE3045" points="444.372,56.205 429.203,64.962 429.203,47.557 444.372,38.799 		"/>
		<polygon fill="#471049" points="429.203,47.557 413.96,38.827 429.109,30.097 444.372,38.799 		"/>
		<polygon fill="#471049" points="429.203,64.962 414.035,56.205 413.96,38.827 429.203,47.557 		"/>
	</g>
	<g>
		<polygon fill="#EE3045" points="444.372,38.481 429.203,47.238 429.203,29.833 444.372,21.075 		"/>
		<polygon fill="#471049" points="429.203,29.833 413.96,21.103 429.109,12.373 444.372,21.075 		"/>
		<polygon fill="#471049" points="429.203,47.238 414.035,38.481 413.96,21.103 429.203,29.833 		"/>
	</g>
	<g>
		<polygon fill="#EE3045" points="398.876,186.911 383.708,195.668 383.708,178.262 398.876,169.505 		"/>
		<polygon fill="#471049" points="383.708,178.262 368.465,169.532 383.613,160.802 398.876,169.505 		"/>
		<polygon fill="#471049" points="383.708,195.668 368.539,186.911 368.465,169.532 383.708,178.262 		"/>
	</g>
	<g>
		<polygon fill="#EE3045" points="414.007,178.262 398.839,187.02 398.839,169.614 414.007,160.857 		"/>
		<polygon fill="#471049" points="398.839,169.614 383.596,160.884 398.744,152.154 414.007,160.857 		"/>
		<polygon fill="#471049" points="398.839,187.02 383.67,178.262 383.596,160.884 398.839,169.614 		"/>
	</g>
	<g>
		<polygon fill="#EE3045" points="429.231,186.993 414.063,195.75 414.063,178.344 429.231,169.587 		"/>
		<polygon fill="#471049" points="414.063,178.344 398.82,169.614 413.968,160.884 429.231,169.587 		"/>
		<polygon fill="#471049" points="414.063,195.75 398.895,186.993 398.82,169.614 414.063,178.344 		"/>
	</g>
	<g>
		<polygon fill="#EE3045" points="416.841,196.929 401.673,205.687 401.673,188.281 416.841,179.524 		"/>
		<polygon fill="#471049" points="401.673,188.281 386.43,179.551 401.578,170.821 416.841,179.524 		"/>
		<polygon fill="#471049" points="401.673,205.687 386.504,196.929 386.43,179.551 401.673,188.281 		"/>
	</g>
	<g>
		<polygon fill="#EE3045" points="414.007,160.802 398.839,169.56 398.839,152.154 414.007,143.397 		"/>
		<polygon fill="#471049" points="398.839,152.154 383.596,143.424 398.744,134.694 414.007,143.397 		"/>
		<polygon fill="#471049" points="398.839,169.56 383.67,160.802 383.596,143.424 398.839,152.154 		"/>
	</g>
	<g>
		<polygon fill="#EE3045" points="398.801,169.532 383.633,178.29 383.633,160.884 398.801,152.127 		"/>
		<polygon fill="#471049" points="383.633,160.884 368.39,152.154 383.538,143.424 398.801,152.127 		"/>
		<polygon fill="#471049" points="383.633,178.29 368.465,169.532 368.39,152.154 383.633,160.884 		"/>
	</g>
	<g>
		<polygon fill="#EE3045" points="433.061,173.362 417.893,182.119 417.893,164.714 433.061,155.956 		"/>
		<polygon fill="#471049" points="417.893,164.714 402.65,155.984 417.798,147.253 433.061,155.956 		"/>
		<polygon fill="#471049" points="417.893,182.119 402.724,173.362 402.65,155.984 417.893,164.714 		"/>
	</g>
	<g>
		<polygon fill="#EE3045" points="414.026,178.262 398.857,187.02 398.857,169.614 414.026,160.857 		"/>
		<polygon fill="#471049" points="398.857,169.614 383.614,160.884 398.763,152.154 414.026,160.857 		"/>
		<polygon fill="#471049" points="398.857,187.02 383.689,178.262 383.614,160.884 398.857,169.614 		"/>
	</g>
	<g>
		<polygon fill="#EE3045" points="398.876,117.179 383.708,125.936 383.708,108.531 398.876,99.773 		"/>
		<polygon fill="#471049" points="383.708,108.531 368.465,99.801 383.613,91.071 398.876,99.773 		"/>
		<polygon fill="#471049" points="383.708,125.936 368.539,117.179 368.465,99.801 383.708,108.531 		"/>
	</g>
	<g>
		<polygon fill="#EE3045" points="414.007,108.531 398.839,117.288 398.839,99.883 414.007,91.125 		"/>
		<polygon fill="#471049" points="398.839,99.883 383.596,91.153 398.744,82.423 414.007,91.125 		"/>
		<polygon fill="#471049" points="398.839,117.288 383.67,108.531 383.596,91.153 398.839,99.883 		"/>
	</g>
	<g>
		<polygon fill="#EE3045" points="429.231,117.261 414.063,126.018 414.063,108.613 429.231,99.855 		"/>
		<polygon fill="#471049" points="414.063,108.613 398.82,99.883 413.968,91.153 429.231,99.855 		"/>
		<polygon fill="#471049" points="414.063,126.018 398.895,117.261 398.82,99.883 414.063,108.613 		"/>
	</g>
	<g>
		<polygon fill="#EE3045" points="414.026,125.991 398.857,134.749 398.857,117.343 414.026,108.586 		"/>
		<polygon fill="#471049" points="398.857,117.343 383.614,108.613 398.763,99.883 414.026,108.586 		"/>
		<polygon fill="#471049" points="398.857,134.749 383.689,125.991 383.614,108.613 398.857,117.343 		"/>
	</g>
	<g>
		<polygon fill="#EE3045" points="414.007,91.071 398.839,99.828 398.839,82.423 414.007,73.665 		"/>
		<polygon fill="#471049" points="398.839,82.423 383.596,73.692 398.744,64.962 414.007,73.665 		"/>
		<polygon fill="#471049" points="398.839,99.828 383.67,91.071 383.596,73.692 398.839,82.423 		"/>
	</g>
	<g>
		<polygon fill="#EE3045" points="398.801,99.801 383.633,108.558 383.633,91.153 398.801,82.395 		"/>
		<polygon fill="#471049" points="383.633,91.153 368.39,82.423 383.538,73.692 398.801,82.395 		"/>
		<polygon fill="#471049" points="383.633,108.558 368.465,99.801 368.39,82.423 383.633,91.153 		"/>
	</g>
	<g>
		<polygon fill="#EE3045" points="429.231,99.801 414.063,108.558 414.063,91.153 429.231,82.395 		"/>
		<polygon fill="#471049" points="414.063,91.153 398.82,82.423 413.968,73.692 429.231,82.395 		"/>
		<polygon fill="#471049" points="414.063,108.558 398.895,99.801 398.82,82.423 414.063,91.153 		"/>
	</g>
	<g>
		<polygon fill="#EE3045" points="414.026,108.531 398.857,117.288 398.857,99.883 414.026,91.125 		"/>
		<polygon fill="#471049" points="398.857,99.883 383.614,91.153 398.763,82.423 414.026,91.125 		"/>
		<polygon fill="#471049" points="398.857,117.288 383.689,108.531 383.614,91.153 398.857,99.883 		"/>
	</g>
	<g>
		<polygon fill="#EE3045" points="398.876,47.42 383.708,56.178 383.708,38.772 398.876,30.015 		"/>
		<polygon fill="#471049" points="383.708,38.772 368.465,30.042 383.613,21.312 398.876,30.015 		"/>
		<polygon fill="#471049" points="383.708,56.178 368.539,47.42 368.465,30.042 383.708,38.772 		"/>
	</g>
	<g>
		<polygon fill="#EE3045" points="414.007,38.772 398.839,47.529 398.839,30.124 414.007,21.366 		"/>
		<polygon fill="#471049" points="398.839,30.124 383.596,21.394 398.744,12.664 414.007,21.366 		"/>
		<polygon fill="#471049" points="398.839,47.529 383.67,38.772 383.596,21.394 398.839,30.124 		"/>
	</g>
	<g>
		<polygon fill="#EE3045" points="429.231,47.502 414.063,56.26 414.063,38.854 429.231,30.097 		"/>
		<polygon fill="#471049" points="414.063,38.854 398.82,30.124 413.968,21.394 429.231,30.097 		"/>
		<polygon fill="#471049" points="414.063,56.26 398.895,47.502 398.82,30.124 414.063,38.854 		"/>
	</g>
	<g>
		<polygon fill="#EE3045" points="414.026,56.232 398.857,64.99 398.857,47.584 414.026,38.827 		"/>
		<polygon fill="#471049" points="398.857,47.584 383.614,38.854 398.763,30.124 414.026,38.827 		"/>
		<polygon fill="#471049" points="398.857,64.99 383.689,56.232 383.614,38.854 398.857,47.584 		"/>
	</g>
	<g>
		<polygon fill="#EE3045" points="412.006,27.652 396.838,36.41 396.838,19.004 412.006,10.247 		"/>
		<polygon fill="#471049" points="396.838,19.004 381.595,10.274 396.743,1.544 412.006,10.247 		"/>
		<polygon fill="#471049" points="396.838,36.41 381.67,27.652 381.595,10.274 396.838,19.004 		"/>
	</g>
	<g>
		<polygon fill="#EE3045" points="398.801,34.899 383.633,43.657 383.633,26.251 398.801,17.494 		"/>
		<polygon fill="#471049" points="383.633,26.251 368.39,17.521 383.538,8.791 398.801,17.494 		"/>
		<polygon fill="#471049" points="383.633,43.657 368.465,34.899 368.39,17.521 383.633,26.251 		"/>
	</g>
	<g>
		<polygon fill="#EE3045" points="432.723,26.55 417.555,35.307 417.555,17.902 432.723,9.144 		"/>
		<polygon fill="#471049" points="417.555,17.902 402.312,9.172 417.46,0.442 432.723,9.144 		"/>
		<polygon fill="#471049" points="417.555,35.307 402.387,26.55 402.312,9.172 417.555,17.902 		"/>
	</g>
	<g>
		<polygon fill="#EE3045" points="414.026,38.772 398.857,47.529 398.857,30.124 414.026,21.366 		"/>
		<polygon fill="#471049" points="398.857,30.124 383.614,21.394 398.763,12.664 414.026,21.366 		"/>
		<polygon fill="#471049" points="398.857,47.529 383.689,38.772 383.614,21.394 398.857,30.124 		"/>
	</g>
	<g>
		<polygon fill="#EE3045" points="368.605,64.908 353.436,73.665 353.436,56.26 368.605,47.502 		"/>
		<polygon fill="#471049" points="353.436,56.26 338.193,47.529 353.342,38.799 368.605,47.502 		"/>
		<polygon fill="#471049" points="353.436,73.665 338.268,64.908 338.193,47.529 353.436,56.26 		"/>
	</g>
	<g>
		<polygon fill="#EE3045" points="383.736,56.26 368.567,65.017 368.567,47.611 383.736,38.854 		"/>
		<polygon fill="#471049" points="368.567,47.611 353.324,38.881 368.473,30.151 383.736,38.854 		"/>
		<polygon fill="#471049" points="368.567,65.017 353.399,56.26 353.324,38.881 368.567,47.611 		"/>
	</g>
	<g>
		<polygon fill="#EE3045" points="398.96,64.99 383.792,73.747 383.792,56.342 398.96,47.584 		"/>
		<polygon fill="#471049" points="383.792,56.342 368.549,47.611 383.697,38.881 398.96,47.584 		"/>
		<polygon fill="#471049" points="383.792,73.747 368.623,64.99 368.549,47.611 383.792,56.342 		"/>
	</g>
	<g>
		<polygon fill="#EE3045" points="383.754,73.72 368.586,82.477 368.586,65.072 383.754,56.314 		"/>
		<polygon fill="#471049" points="368.586,65.072 353.343,56.342 368.491,47.611 383.754,56.314 		"/>
		<polygon fill="#471049" points="368.586,82.477 353.418,73.72 353.343,56.342 368.586,65.072 		"/>
	</g>
	<g>
		<polygon fill="#EE3045" points="383.736,38.799 368.567,47.557 368.567,30.151 383.736,21.394 		"/>
		<polygon fill="#471049" points="368.567,30.151 353.324,21.421 368.473,12.691 383.736,21.394 		"/>
		<polygon fill="#471049" points="368.567,47.557 353.399,38.799 353.324,21.421 368.567,30.151 		"/>
	</g>
	<g>
		<polygon fill="#EE3045" points="368.53,30.015 353.362,38.772 353.362,21.366 368.53,12.609 		"/>
		<polygon fill="#471049" points="353.362,21.366 338.119,12.636 353.267,3.906 368.53,12.609 		"/>
		<polygon fill="#471049" points="353.362,38.772 338.193,30.015 338.119,12.636 353.362,21.366 		"/>
	</g>
	<g>
		<polygon fill="#EE3045" points="398.96,47.529 383.792,56.287 383.792,38.881 398.96,30.124 		"/>
		<polygon fill="#471049" points="383.792,38.881 368.549,30.151 383.697,21.421 398.96,30.124 		"/>
		<polygon fill="#471049" points="383.792,56.287 368.623,47.529 368.549,30.151 383.792,38.881 		"/>
	</g>
	<g>
		<polygon fill="#EE3045" points="383.754,56.26 368.586,65.017 368.586,47.611 383.754,38.854 		"/>
		<polygon fill="#471049" points="368.586,47.611 353.343,38.881 368.491,30.151 383.754,38.854 		"/>
		<polygon fill="#471049" points="368.586,65.017 353.418,56.26 353.343,38.881 368.586,47.611 		"/>
	</g>
	<g>
		<polygon fill="#EE3045" points="368.53,204.343 353.362,213.101 353.362,195.695 368.53,186.938 		"/>
		<polygon fill="#471049" points="353.362,195.695 338.119,186.965 353.267,178.235 368.53,186.938 		"/>
		<polygon fill="#471049" points="353.362,213.101 338.193,204.343 338.119,186.965 353.362,195.695 		"/>
	</g>
	<g>
		<polygon fill="#EE3045" points="383.661,195.695 368.493,204.453 368.493,187.047 383.661,178.29 		"/>
		<polygon fill="#471049" points="368.493,187.047 353.25,178.317 368.398,169.587 383.661,178.29 		"/>
		<polygon fill="#471049" points="368.493,204.453 353.324,195.695 353.25,178.317 368.493,187.047 		"/>
	</g>
	<g>
		<polygon fill="#EE3045" points="398.885,204.425 383.717,213.183 383.717,195.777 398.885,187.02 		"/>
		<polygon fill="#471049" points="383.717,195.777 368.474,187.047 383.622,178.317 398.885,187.02 		"/>
		<polygon fill="#471049" points="383.717,213.183 368.549,204.425 368.474,187.047 383.717,195.777 		"/>
	</g>
	<g>
		<polygon fill="#EE3045" points="387.682,217.548 372.513,226.305 372.513,208.9 387.682,200.142 		"/>
		<polygon fill="#471049" points="372.513,208.9 357.27,200.17 372.419,191.44 387.682,200.142 		"/>
		<polygon fill="#471049" points="372.513,226.305 357.345,217.548 357.27,200.17 372.513,208.9 		"/>
	</g>
	<g>
		<polygon fill="#EE3045" points="383.661,178.235 368.493,186.993 368.493,169.587 383.661,160.83 		"/>
		<polygon fill="#471049" points="368.493,169.587 353.25,160.857 368.398,152.127 383.661,160.83 		"/>
		<polygon fill="#471049" points="368.493,186.993 353.324,178.235 353.25,160.857 368.493,169.587 		"/>
	</g>
	<g>
		<polygon fill="#EE3045" points="368.455,186.965 353.287,195.723 353.287,178.317 368.455,169.56 		"/>
		<polygon fill="#471049" points="353.287,178.317 338.044,169.587 353.192,160.857 368.455,169.56 		"/>
		<polygon fill="#471049" points="353.287,195.723 338.119,186.965 338.044,169.587 353.287,178.317 		"/>
	</g>
	<g>
		<polygon fill="#EE3045" points="398.885,186.965 383.717,195.723 383.717,178.317 398.885,169.56 		"/>
		<polygon fill="#471049" points="383.717,178.317 368.474,169.587 383.622,160.857 398.885,169.56 		"/>
		<polygon fill="#471049" points="383.717,195.723 368.549,186.965 368.474,169.587 383.717,178.317 		"/>
	</g>
	<g>
		<polygon fill="#EE3045" points="383.68,195.695 368.511,204.453 368.511,187.047 383.68,178.29 		"/>
		<polygon fill="#471049" points="368.511,187.047 353.268,178.317 368.417,169.587 383.68,178.29 		"/>
		<polygon fill="#471049" points="368.511,204.453 353.343,195.695 353.268,178.317 368.511,187.047 		"/>
	</g>
	<g>
		<polygon fill="#EE3045" points="368.53,169.505 353.362,178.262 353.362,160.857 368.53,152.099 		"/>
		<polygon fill="#471049" points="353.362,160.857 338.119,152.127 353.267,143.397 368.53,152.099 		"/>
		<polygon fill="#471049" points="353.362,178.262 338.193,169.505 338.119,152.127 353.362,160.857 		"/>
	</g>
	<g>
		<polygon fill="#EE3045" points="383.661,160.857 368.493,169.614 368.493,152.209 383.661,143.451 		"/>
		<polygon fill="#471049" points="368.493,152.209 353.25,143.479 368.398,134.749 383.661,143.451 		"/>
		<polygon fill="#471049" points="368.493,169.614 353.324,160.857 353.25,143.479 368.493,152.209 		"/>
	</g>
	<g>
		<polygon fill="#EE3045" points="398.885,169.587 383.717,178.344 383.717,160.939 398.885,152.181 		"/>
		<polygon fill="#471049" points="383.717,160.939 368.474,152.209 383.622,143.479 398.885,152.181 		"/>
		<polygon fill="#471049" points="383.717,178.344 368.549,169.587 368.474,152.209 383.717,160.939 		"/>
	</g>
	<g>
		<polygon fill="#EE3045" points="383.68,178.317 368.511,187.075 368.511,169.669 383.68,160.912 		"/>
		<polygon fill="#471049" points="368.511,169.669 353.268,160.939 368.417,152.209 383.68,160.912 		"/>
		<polygon fill="#471049" points="368.511,187.075 353.343,178.317 353.268,160.939 368.511,169.669 		"/>
	</g>
	<g>
		<polygon fill="#EE3045" points="383.661,143.397 368.493,152.154 368.493,134.749 383.661,125.991 		"/>
		<polygon fill="#471049" points="368.493,134.749 353.25,126.018 368.398,117.288 383.661,125.991 		"/>
		<polygon fill="#471049" points="368.493,152.154 353.324,143.397 353.25,126.018 368.493,134.749 		"/>
	</g>
	<g>
		<polygon fill="#EE3045" points="368.455,152.127 353.287,160.884 353.287,143.479 368.455,134.721 		"/>
		<polygon fill="#471049" points="353.287,143.479 338.044,134.749 353.192,126.018 368.455,134.721 		"/>
		<polygon fill="#471049" points="353.287,160.884 338.119,152.127 338.044,134.749 353.287,143.479 		"/>
	</g>
	<g>
		<polygon fill="#EE3045" points="398.885,152.127 383.717,160.884 383.717,143.479 398.885,134.721 		"/>
		<polygon fill="#471049" points="383.717,143.479 368.474,134.749 383.622,126.018 398.885,134.721 		"/>
		<polygon fill="#471049" points="383.717,160.884 368.549,152.127 368.474,134.749 383.717,143.479 		"/>
	</g>
	<g>
		<polygon fill="#EE3045" points="398.885,134.318 383.717,143.075 383.717,125.67 398.885,116.912 		"/>
		<polygon fill="#471049" points="383.717,125.67 368.474,116.94 383.622,108.21 398.885,116.912 		"/>
		<polygon fill="#471049" points="383.717,143.075 368.549,134.318 368.474,116.94 383.717,125.67 		"/>
	</g>
	<g>
		<polygon fill="#EE3045" points="338.184,117.097 323.016,125.854 323.016,108.449 338.184,99.691 		"/>
		<polygon fill="#471049" points="323.016,108.449 307.773,99.719 322.921,90.989 338.184,99.691 		"/>
		<polygon fill="#471049" points="323.016,125.854 307.847,117.097 307.773,99.719 323.016,108.449 		"/>
	</g>
	<g>
		<polygon fill="#EE3045" points="353.315,108.449 338.147,117.206 338.147,99.801 353.315,91.043 		"/>
		<polygon fill="#471049" points="338.147,99.801 322.904,91.071 338.052,82.341 353.315,91.043 		"/>
		<polygon fill="#471049" points="338.147,117.206 322.978,108.449 322.904,91.071 338.147,99.801 		"/>
	</g>
	<g>
		<polygon fill="#EE3045" points="368.539,117.179 353.371,125.936 353.371,108.531 368.539,99.773 		"/>
		<polygon fill="#471049" points="353.371,108.531 338.128,99.801 353.276,91.071 368.539,99.773 		"/>
		<polygon fill="#471049" points="353.371,125.936 338.203,117.179 338.128,99.801 353.371,108.531 		"/>
	</g>
	<g>
		<polygon fill="#EE3045" points="353.334,125.909 338.165,134.667 338.165,117.261 353.334,108.504 		"/>
		<polygon fill="#471049" points="338.165,117.261 322.922,108.531 338.071,99.801 353.334,108.504 		"/>
		<polygon fill="#471049" points="338.165,134.667 322.997,125.909 322.922,108.531 338.165,117.261 		"/>
	</g>
	<g>
		<polygon fill="#EE3045" points="353.315,90.989 338.147,99.746 338.147,82.341 353.315,73.583 		"/>
		<polygon fill="#471049" points="338.147,82.341 322.904,73.61 338.052,64.88 353.315,73.583 		"/>
		<polygon fill="#471049" points="338.147,99.746 322.978,90.989 322.904,73.61 338.147,82.341 		"/>
	</g>
	<g>
		<polygon fill="#EE3045" points="338.109,99.719 322.941,108.476 322.941,91.071 338.109,82.313 		"/>
		<polygon fill="#471049" points="322.941,91.071 307.698,82.341 322.846,73.61 338.109,82.313 		"/>
		<polygon fill="#471049" points="322.941,108.476 307.773,99.719 307.698,82.341 322.941,91.071 		"/>
	</g>
	<g>
		<polygon fill="#EE3045" points="368.539,99.719 353.371,108.476 353.371,91.071 368.539,82.313 		"/>
		<polygon fill="#471049" points="353.371,91.071 338.128,82.341 353.276,73.61 368.539,82.313 		"/>
		<polygon fill="#471049" points="353.371,108.476 338.203,99.719 338.128,82.341 353.371,91.071 		"/>
	</g>
	<g>
		<polygon fill="#EE3045" points="353.334,108.449 338.165,117.206 338.165,99.801 353.334,91.043 		"/>
		<polygon fill="#471049" points="338.165,99.801 322.922,91.071 338.071,82.341 353.334,91.043 		"/>
		<polygon fill="#471049" points="338.165,117.206 322.997,108.449 322.922,91.071 338.165,99.801 		"/>
	</g>
	<g>
		<polygon fill="#EE3045" points="353.257,213.046 338.088,221.804 338.088,204.398 353.257,195.641 		"/>
		<polygon fill="#471049" points="338.088,204.398 322.845,195.668 337.994,186.938 353.257,195.641 		"/>
		<polygon fill="#F1C233" points="338.088,221.804 322.92,213.046 322.845,195.668 338.088,204.398 		"/>
	</g>
	<g>
		<polygon fill="#EE3045" points="338.088,221.722 322.92,230.479 322.92,213.074 338.088,204.316 		"/>
		<polygon fill="#471049" points="322.92,213.074 307.677,204.343 322.825,195.613 338.088,204.316 		"/>
		<polygon fill="#F1C233" points="322.92,230.479 307.752,221.722 307.677,204.343 322.92,213.074 		"/>
	</g>
	<g>
		<polygon fill="#EE3045" points="368.462,221.749 353.294,230.506 353.294,213.101 368.462,204.343 		"/>
		<polygon fill="#471049" points="353.294,213.101 338.051,204.371 353.199,195.641 368.462,204.343 		"/>
		<polygon fill="#F1C233" points="353.294,230.506 338.126,221.749 338.051,204.371 353.294,213.101 		"/>
	</g>
	<g>
		<polygon fill="#EE3045" points="353.294,240.801 338.126,249.559 338.126,232.153 353.294,223.395 		"/>
		<polygon fill="#471049" points="338.126,232.153 322.883,223.423 338.031,214.693 353.294,223.395 		"/>
		<polygon fill="#F1C233" points="338.126,249.559 322.957,240.801 322.883,223.423 338.126,232.153 		"/>
	</g>
	<g>
		<polygon fill="#EE3045" points="353.257,195.6 338.088,204.357 338.088,186.952 353.257,178.194 		"/>
		<polygon fill="#471049" points="338.088,186.952 322.845,178.221 337.994,169.491 353.257,178.194 		"/>
		<polygon fill="#F1C233" points="338.088,204.357 322.92,195.6 322.845,178.221 338.088,186.952 		"/>
	</g>
	<g>
		<polygon fill="#EE3045" points="338.088,204.275 322.92,213.033 322.92,195.627 338.088,186.87 		"/>
		<polygon fill="#471049" points="322.92,195.627 307.677,186.897 322.825,178.167 338.088,186.87 		"/>
		<polygon fill="#F1C233" points="322.92,213.033 307.752,204.275 307.677,186.897 322.92,195.627 		"/>
	</g>
	<g>
		<polygon fill="#EE3045" points="368.462,204.302 353.294,213.06 353.294,195.654 368.462,186.897 		"/>
		<polygon fill="#471049" points="353.294,195.654 338.051,186.924 353.199,178.194 368.462,186.897 		"/>
		<polygon fill="#F1C233" points="353.294,213.06 338.126,204.302 338.051,186.924 353.294,195.654 		"/>
	</g>
	<g>
		<polygon fill="#EE3045" points="353.294,212.978 338.126,221.735 338.126,204.33 353.294,195.572 		"/>
		<polygon fill="#471049" points="338.126,204.33 322.883,195.6 338.031,186.87 353.294,195.572 		"/>
		<polygon fill="#F1C233" points="338.126,221.735 322.957,212.978 322.883,195.6 338.126,204.33 		"/>
	</g>
	<g>
		<polygon fill="#EE3045" points="368.455,82.423 353.287,91.18 353.287,73.774 368.455,65.017 		"/>
		<polygon fill="#471049" points="353.287,73.774 338.044,65.044 353.192,56.314 368.455,65.017 		"/>
		<polygon fill="#471049" points="353.287,91.18 338.119,82.423 338.044,65.044 353.287,73.774 		"/>
	</g>
	<g>
		<polygon fill="#EE3045" points="368.455,186.965 353.287,195.723 353.287,178.317 368.455,169.56 		"/>
		<polygon fill="#471049" points="353.287,178.317 338.044,169.587 353.192,160.857 368.455,169.56 		"/>
		<polygon fill="#471049" points="353.287,195.723 338.119,186.965 338.044,169.587 353.287,178.317 		"/>
	</g>
	<g>
		<polygon fill="#EE3045" points="380.06,164.632 364.892,173.389 364.892,155.984 380.06,147.226 		"/>
		<polygon fill="#471049" points="364.892,155.984 349.649,147.253 364.797,138.523 380.06,147.226 		"/>
		<polygon fill="#471049" points="364.892,173.389 349.723,164.632 349.649,147.253 364.892,155.984 		"/>
	</g>
	<g>
		<g>
			<path fill="#EE3045" d="M33.582,195.528h6.779v2.348h-6.779v6.647h-2.371v-15.51h9.15v2.349h-6.779V195.528z"/>
			<path fill="#EE3045" d="M44.489,196.635h-2.371c0.399-3.036,2.859-3.855,4.697-3.855c1.994,0,4.763,0.975,4.763,4.741v7.002
				h-2.326v-1.086c-0.732,0.886-1.906,1.308-3.412,1.308c-2.083,0-3.9-1.041-3.9-3.39c0-1.307,0.576-2.836,2.482-3.434
				c1.374-0.421,2.88-0.532,4.808-0.665v-0.023c-0.111-1.484-1.064-2.216-2.415-2.216C45.663,195.017,44.8,195.549,44.489,196.635z
				 M49.253,199.959v-0.643c-2.038,0.134-3.59,0.266-4.432,0.776c-0.288,0.177-0.554,0.488-0.554,1.063
				c0,0.931,0.709,1.352,1.95,1.352C47.547,202.507,49.253,202.086,49.253,199.959z"/>
			<path fill="#EE3045" d="M63.424,200.003c0,3.523-2.57,4.742-4.542,4.742c-1.196,0-2.326-0.643-2.658-1.308v1.086h-2.327v-15.51
				h2.327v5.074c0.332-0.665,1.462-1.307,2.658-1.307c1.972,0,4.542,1.218,4.542,4.741V200.003z M61.098,197.565
				c0-1.728-0.997-2.525-2.438-2.525c-1.44,0-2.437,0.798-2.437,2.525v2.393c0,1.728,0.997,2.525,2.437,2.525
				c1.441,0,2.438-0.798,2.438-2.525V197.565z"/>
			<path fill="#EE3045" d="M70.319,195.151c-1.441,0-2.438,0.798-2.438,2.525v6.846h-2.327V193.09h2.327v1.108
				c0.332-0.665,1.462-1.308,2.659-1.308h0.886v2.261H70.319z"/>
			<path fill="#EE3045" d="M75.28,191.384h-2.327v-2.371h2.327V191.384z M75.28,204.522h-2.327V193.09h2.327V204.522z"/>
			<path fill="#EE3045" d="M82.187,204.745c-1.994,0-4.763-0.975-4.763-4.742v-2.482c0-3.766,2.769-4.741,4.763-4.741
				c1.883,0,4.454,0.864,4.742,4.12h-2.371c-0.221-1.263-1.13-1.883-2.371-1.883c-1.44,0-2.437,0.82-2.437,2.548v2.393
				c0,1.728,0.997,2.548,2.437,2.548c1.241,0,2.171-0.62,2.393-1.883h2.348C86.641,203.88,84.07,204.745,82.187,204.745z"/>
			<path fill="#EE3045" d="M91.134,196.635h-2.371c0.399-3.036,2.858-3.855,4.697-3.855c1.993,0,4.763,0.975,4.763,4.741v7.002
				h-2.327v-1.086c-0.732,0.886-1.906,1.308-3.412,1.308c-2.083,0-3.899-1.041-3.899-3.39c0-1.307,0.576-2.836,2.481-3.434
				c1.374-0.421,2.88-0.532,4.808-0.665v-0.023c-0.11-1.484-1.063-2.216-2.414-2.216C92.308,195.017,91.444,195.549,91.134,196.635z
				 M95.898,199.959v-0.643c-2.038,0.134-3.589,0.266-4.431,0.776c-0.288,0.177-0.554,0.488-0.554,1.063
				c0,0.931,0.709,1.352,1.95,1.352C94.191,202.507,95.898,202.086,95.898,199.959z"/>
			<path fill="#EE3045" d="M103.59,201.2c0,0.842,0.155,1.086,1.063,1.086h1.75v2.237h-2.414c-1.906,0-2.726-0.93-2.726-2.725
				v-6.514h-1.618v-2.194h1.618v-2.592h2.327v2.592h2.813v2.194h-2.813V201.2z"/>
			<path fill="#EE3045" d="M110.506,191.384h-2.327v-2.371h2.327V191.384z M110.506,204.522h-2.327V193.09h2.327V204.522z"/>
			<path fill="#EE3045" d="M115.231,204.522h-2.327V193.09h2.327v0.997c0.332-0.665,1.462-1.307,2.658-1.307
				c1.972,0,4.542,1.218,4.542,4.741v7.002h-2.326v-6.957c0-1.728-0.997-2.525-2.438-2.525c-1.44,0-2.437,0.798-2.437,2.525V204.522
				z"/>
			<path fill="#EE3045" d="M131.548,204.036v-1.263c-0.332,0.665-1.462,1.308-2.659,1.308c-1.972,0-4.542-1.219-4.542-4.742v-1.817
				c0-3.522,2.57-4.741,4.542-4.741c1.197,0,2.327,0.642,2.659,1.307v-0.997h2.327v10.99c0,3.766-2.77,4.741-4.763,4.741
				c-1.884,0-4.409-0.864-4.72-4.076h2.349c0.244,1.24,1.152,1.839,2.371,1.839C130.551,206.583,131.548,205.763,131.548,204.036z
				 M126.674,199.294c0,1.728,0.997,2.525,2.438,2.525c1.44,0,2.437-0.798,2.437-2.525v-1.729c0-1.728-0.997-2.525-2.437-2.525
				c-1.441,0-2.438,0.798-2.438,2.525V199.294z"/>
			<path fill="#EE3045" d="M144.727,201.2c0,0.842,0.155,1.086,1.064,1.086h1.75v2.237h-2.415c-1.906,0-2.725-0.93-2.725-2.725
				v-6.514h-1.618v-2.194h1.618v-2.592h2.326v2.592h2.814v2.194h-2.814V201.2z"/>
			<path fill="#EE3045" d="M151.643,204.522h-2.327v-15.51h2.327v5.074c0.332-0.665,1.462-1.307,2.659-1.307
				c1.972,0,4.542,1.218,4.542,4.741v7.002h-2.327v-6.957c0-1.728-0.997-2.525-2.437-2.525c-1.441,0-2.438,0.798-2.438,2.525
				V204.522z"/>
			<path fill="#EE3045" d="M167.936,200.889h2.371c-0.398,3.036-2.858,3.856-4.697,3.856c-1.994,0-4.764-0.975-4.764-4.742v-2.482
				c0-3.766,2.77-4.741,4.764-4.741c1.994,0,4.763,0.975,4.763,4.741v2.061h-7.201v0.377c0,1.728,0.997,2.548,2.438,2.548
				C166.762,202.507,167.627,201.975,167.936,200.889z M163.173,197.499v0.022h4.875v-0.022c-0.022-1.662-1.019-2.482-2.437-2.482
				C164.17,195.017,163.173,195.837,163.173,197.499z"/>
			<path fill="#EE3045" d="M179.454,195.528h6.78v2.348h-6.78v6.647h-2.37v-15.51h9.15v2.349h-6.78V195.528z"/>
			<path fill="#EE3045" d="M190.404,199.959c0,1.728,0.997,2.525,2.371,2.525c1.374,0,2.371-0.798,2.371-2.525v-6.869h2.326v11.433
				h-2.326v-1.086c-0.332,0.665-1.462,1.308-2.659,1.308c-1.972,0-4.409-1.374-4.409-4.742v-6.913h2.327V199.959z"/>
			<path fill="#EE3045" d="M203.05,201.2c0,0.842,0.155,1.086,1.064,1.086h1.75v2.237h-2.415c-1.906,0-2.725-0.93-2.725-2.725
				v-6.514h-1.618v-2.194h1.618v-2.592h2.326v2.592h2.814v2.194h-2.814V201.2z"/>
			<path fill="#EE3045" d="M209.89,199.959c0,1.728,0.997,2.525,2.371,2.525c1.374,0,2.371-0.798,2.371-2.525v-6.869h2.327v11.433
				h-2.327v-1.086c-0.332,0.665-1.462,1.308-2.659,1.308c-1.972,0-4.409-1.374-4.409-4.742v-6.913h2.326V199.959z"/>
			<path fill="#EE3045" d="M224.142,195.151c-1.441,0-2.438,0.798-2.438,2.525v6.846h-2.327V193.09h2.327v1.108
				c0.332-0.665,1.462-1.308,2.659-1.308h0.886v2.261H224.142z"/>
			<path fill="#EE3045" d="M233.545,200.889h2.371c-0.399,3.036-2.859,3.856-4.697,3.856c-1.994,0-4.763-0.975-4.763-4.742v-2.482
				c0-3.766,2.769-4.741,4.763-4.741c1.994,0,4.763,0.975,4.763,4.741v2.061h-7.2v0.377c0,1.728,0.997,2.548,2.437,2.548
				C232.371,202.507,233.236,201.975,233.545,200.889z M228.782,197.499v0.022h4.875v-0.022c-0.023-1.662-1.02-2.482-2.438-2.482
				C229.779,195.017,228.782,195.837,228.782,197.499z"/>
		</g>
	</g>
</g>
</svg>
