<?xml version="1.0" encoding="utf-8"?>
<!-- Generator: Adobe Illustrator 18.0.0, SVG Export Plug-In . SVG Version: 6.00 Build 0)  -->
<!DOCTYPE svg PUBLIC "-//W3C//DTD SVG 1.1//EN" "http://www.w3.org/Graphics/SVG/1.1/DTD/svg11.dtd">
<svg version="1.1" id="Layer_4" xmlns="http://www.w3.org/2000/svg" xmlns:xlink="http://www.w3.org/1999/xlink" x="0px" y="0px"
	 viewBox="0 0 186 230" enable-background="new 0 0 186 230" xml:space="preserve">
<g>
	<g>
		<path fill="#FFFFFF" d="M21.3,219.3V209c0-0.2,0.2-0.4,0.4-0.4h0.8c0.2,0,0.4,0.2,0.4,0.4v8.7c0,0.2,0.2,0.4,0.4,0.4h5.4
			c0.2,0,0.4,0.2,0.4,0.4v0.7c0,0.2-0.2,0.4-0.4,0.4h-7.1C21.4,219.7,21.3,219.5,21.3,219.3z"/>
		<path fill="#FFFFFF" d="M44.7,217v2.3c0,0.2-0.2,0.4-0.4,0.4h-0.8c-0.2,0-0.4-0.2-0.4-0.4v-2c0-0.1,0-0.1,0-0.2l-0.3-0.6
			c-0.1-0.1-0.2-0.2-0.4-0.2H38c-0.2,0-0.3,0.1-0.4,0.2l-0.3,0.6c0,0.1,0,0.1,0,0.2v2c0,0.2-0.2,0.4-0.4,0.4h-0.8
			c-0.2,0-0.4-0.2-0.4-0.4V217c0-0.1,0-0.1,0-0.2l3.5-7.9c0.1-0.1,0.2-0.2,0.4-0.2h1.2c0.2,0,0.3,0.1,0.4,0.2l3.5,7.9
			C44.6,216.9,44.7,216.9,44.7,217z M38.9,214.8h2.6c0.3,0,0.5-0.3,0.4-0.5l-1.6-3.7h-0.1l-1.6,3.7
			C38.4,214.5,38.6,214.8,38.9,214.8z"/>
		<path fill="#FFFFFF" d="M51.6,209c0-0.2,0.2-0.4,0.4-0.4h4.7c1.8,0,2.6,0.7,2.6,2.3v1.2c0,0.7-0.2,1.2-0.6,1.5
			c-0.2,0.2-0.2,0.5,0,0.6c0.4,0.3,0.6,0.9,0.6,1.6v1.4c0,1.7-0.9,2.4-2.6,2.4H52c-0.2,0-0.4-0.2-0.4-0.4V209z M56.5,213.3
			c1,0,1.2-0.4,1.2-1.2v-0.9c0-0.8-0.3-1.1-1.2-1.1h-2.9c-0.2,0-0.4,0.2-0.4,0.4v2.4c0,0.2,0.2,0.4,0.4,0.4H56.5z M56.5,218.2
			c1,0,1.2-0.3,1.2-1.1v-1.1c0-0.8-0.3-1.1-1.2-1.1h-2.9c-0.2,0-0.4,0.2-0.4,0.4v2.6c0,0.2,0.2,0.4,0.4,0.4H56.5z"/>
		<path fill="#FFFFFF" d="M69.1,219.7c-1.8,0-2.6-0.7-2.6-2.4V211c0-1.7,0.9-2.3,2.6-2.3h3c1.8,0,2.6,0.7,2.6,2.3v6.3
			c0,1.7-0.9,2.4-2.6,2.4H69.1z M71.9,218.2c1,0,1.2-0.3,1.2-1.1v-5.7c0-0.8-0.3-1.1-1.2-1.1h-2.6c-1,0-1.2,0.3-1.2,1.1v5.7
			c0,0.8,0.3,1.1,1.2,1.1H71.9z"/>
		<path fill="#FFFFFF" d="M88.2,219.3v-1.6c0-0.1,0-0.2-0.1-0.2l-1.6-2.2c-0.1-0.1-0.2-0.2-0.3-0.2h-2.1c-0.2,0-0.4,0.2-0.4,0.4v3.8
			c0,0.2-0.2,0.4-0.4,0.4h-0.8c-0.2,0-0.4-0.2-0.4-0.4V209c0-0.2,0.2-0.4,0.4-0.4h4.7c1.8,0,2.6,0.7,2.6,2.3v1.6c0,1-0.4,1.7-1.2,2
			c-0.2,0.1-0.4,0.4-0.2,0.6l1.3,1.8c0,0.1,0.1,0.1,0.1,0.2v2c0,0.2-0.2,0.4-0.4,0.4h-0.8C88.4,219.7,88.2,219.5,88.2,219.3z
			 M87,213.6c1,0,1.2-0.3,1.2-1.1v-1.2c0-0.8-0.3-1.1-1.2-1.1h-2.9c-0.2,0-0.4,0.2-0.4,0.4v2.7c0,0.2,0.2,0.4,0.4,0.4H87z"/>
		<path fill="#FFFFFF" d="M105.6,217v2.3c0,0.2-0.2,0.4-0.4,0.4h-0.8c-0.2,0-0.4-0.2-0.4-0.4v-2c0-0.1,0-0.1,0-0.2l-0.3-0.6
			c-0.1-0.1-0.2-0.2-0.4-0.2h-4.3c-0.2,0-0.3,0.1-0.4,0.2l-0.3,0.6c0,0.1,0,0.1,0,0.2v2c0,0.2-0.2,0.4-0.4,0.4H97
			c-0.2,0-0.4-0.2-0.4-0.4V217c0-0.1,0-0.1,0-0.2l3.5-7.9c0.1-0.1,0.2-0.2,0.4-0.2h1.2c0.2,0,0.3,0.1,0.4,0.2l3.5,7.9
			C105.6,216.9,105.6,216.9,105.6,217z M99.8,214.8h2.6c0.3,0,0.5-0.3,0.4-0.5l-1.6-3.7h-0.1l-1.6,3.7
			C99.3,214.5,99.5,214.8,99.8,214.8z"/>
		<path fill="#FFFFFF" d="M117.1,210.5v8.7c0,0.2-0.2,0.4-0.4,0.4h-0.8c-0.2,0-0.4-0.2-0.4-0.4v-8.7c0-0.2-0.2-0.4-0.4-0.4h-2.9
			c-0.2,0-0.4-0.2-0.4-0.4V209c0-0.2,0.2-0.4,0.4-0.4h8.2c0.2,0,0.4,0.2,0.4,0.4v0.7c0,0.2-0.2,0.4-0.4,0.4h-2.9
			C117.3,210.2,117.1,210.3,117.1,210.5z"/>
		<path fill="#FFFFFF" d="M130.1,219.7c-1.8,0-2.6-0.7-2.6-2.4V211c0-1.7,0.9-2.3,2.6-2.3h3c1.8,0,2.6,0.7,2.6,2.3v6.3
			c0,1.7-0.9,2.4-2.6,2.4H130.1z M132.9,218.2c1,0,1.2-0.3,1.2-1.1v-5.7c0-0.8-0.3-1.1-1.2-1.1h-2.6c-1,0-1.2,0.3-1.2,1.1v5.7
			c0,0.8,0.3,1.1,1.2,1.1H132.9z"/>
		<path fill="#FFFFFF" d="M149.1,219.3v-1.6c0-0.1,0-0.2-0.1-0.2l-1.6-2.2c-0.1-0.1-0.2-0.2-0.3-0.2H145c-0.2,0-0.4,0.2-0.4,0.4v3.8
			c0,0.2-0.2,0.4-0.4,0.4h-0.8c-0.2,0-0.4-0.2-0.4-0.4V209c0-0.2,0.2-0.4,0.4-0.4h4.7c1.8,0,2.6,0.7,2.6,2.3v1.6c0,1-0.4,1.7-1.2,2
			c-0.2,0.1-0.4,0.4-0.2,0.6l1.3,1.8c0,0.1,0.1,0.1,0.1,0.2v2c0,0.2-0.2,0.4-0.4,0.4h-0.8C149.3,219.7,149.1,219.5,149.1,219.3z
			 M147.9,213.6c1,0,1.2-0.3,1.2-1.1v-1.2c0-0.8-0.3-1.1-1.2-1.1H145c-0.2,0-0.4,0.2-0.4,0.4v2.7c0,0.2,0.2,0.4,0.4,0.4H147.9z"/>
		<path fill="#FFFFFF" d="M162.9,215v4.2c0,0.2-0.2,0.4-0.4,0.4h-0.8c-0.2,0-0.4-0.2-0.4-0.4V215c0-0.1,0-0.2-0.1-0.3l-3.2-3
			c-0.1-0.1-0.1-0.2-0.1-0.3V209c0-0.2,0.2-0.4,0.4-0.4h0.8c0.2,0,0.4,0.2,0.4,0.4v1.8c0,0.1,0,0.2,0.1,0.3l2.2,2.1
			c0.2,0.1,0.4,0.1,0.5,0l2.2-2.1c0.1-0.1,0.1-0.2,0.1-0.3V209c0-0.2,0.2-0.4,0.4-0.4h0.8c0.2,0,0.4,0.2,0.4,0.4v2.5
			c0,0.1,0,0.2-0.1,0.3l-3.2,3C162.9,214.8,162.9,214.9,162.9,215z"/>
	</g>
	<g>
		<path fill="#FFFFFF" d="M28.3,203.5v-2.1c0-0.1,0-0.2-0.1-0.2l-1.8-2.5c-0.1-0.1-0.2-0.2-0.3-0.2h-2c-0.2,0-0.4,0.2-0.4,0.4v4.6
			c0,0.2-0.2,0.4-0.4,0.4h-2.2c-0.2,0-0.4-0.2-0.4-0.4V190c0-0.2,0.2-0.4,0.4-0.4h6.3c2.4,0,3.8,1,3.8,3.3v2.1
			c0,1.2-0.6,2.2-1.6,2.6c-0.2,0.1-0.3,0.4-0.2,0.6l1.7,2.2c0.1,0.1,0.1,0.2,0.1,0.2v2.8c0,0.2-0.2,0.4-0.4,0.4h-2.1
			C28.4,203.9,28.3,203.7,28.3,203.5z M27,195.9c0.9,0,1.3-0.4,1.3-1.1v-1.3c0-0.8-0.3-1.1-1.3-1.1H24c-0.2,0-0.4,0.2-0.4,0.4v2.8
			c0,0.2,0.2,0.4,0.4,0.4H27z"/>
		<path fill="#FFFFFF" d="M40.2,203.5V190c0-0.2,0.2-0.4,0.4-0.4h9.2c0.2,0,0.4,0.2,0.4,0.4v1.9c0,0.2-0.2,0.4-0.4,0.4h-6.2
			c-0.2,0-0.4,0.2-0.4,0.4v2.2c0,0.2,0.2,0.4,0.4,0.4h4.9c0.2,0,0.4,0.2,0.4,0.4v1.9c0,0.2-0.2,0.4-0.4,0.4h-4.9
			c-0.2,0-0.4,0.2-0.4,0.4v2.5c0,0.2,0.2,0.4,0.4,0.4h6.2c0.2,0,0.4,0.2,0.4,0.4v2c0,0.2-0.2,0.4-0.4,0.4h-9.2
			C40.3,203.9,40.2,203.7,40.2,203.5z"/>
		<path fill="#FFFFFF" d="M62.2,200c0,0.8,0.3,1.1,1.3,1.1h2.1c0.9,0,1.3-0.4,1.3-1.1v-0.9c0-0.8-0.3-1.1-1.3-1.1h-2.7
			c-2.4,0-3.7-1.1-3.7-3.4V193c0-2.3,1.6-3.4,4-3.4h2.7c2.4,0,3.8,1,3.8,3.3v0.3l-2.9,0.8v-0.5c0-0.8-0.3-1.1-1.3-1.1h-2.1
			c-0.9,0-1.3,0.4-1.3,1.1v0.8c0,0.8,0.3,1.1,1.3,1.1h2.6c2.4,0,3.7,1,3.7,3.4v1.8c0,2.3-1.5,3.4-4,3.4H63c-2.4,0-3.8-1-3.8-3.3
			v-0.4l2.9-0.8V200z"/>
		<path fill="#FFFFFF" d="M78.8,203.5V190c0-0.2,0.2-0.4,0.4-0.4h9.2c0.2,0,0.4,0.2,0.4,0.4v1.9c0,0.2-0.2,0.4-0.4,0.4h-6.2
			c-0.2,0-0.4,0.2-0.4,0.4v2.2c0,0.2,0.2,0.4,0.4,0.4h4.9c0.2,0,0.4,0.2,0.4,0.4v1.9c0,0.2-0.2,0.4-0.4,0.4h-4.9
			c-0.2,0-0.4,0.2-0.4,0.4v2.5c0,0.2,0.2,0.4,0.4,0.4h6.2c0.2,0,0.4,0.2,0.4,0.4v2c0,0.2-0.2,0.4-0.4,0.4h-9.2
			C79,203.9,78.8,203.7,78.8,203.5z"/>
		<path fill="#FFFFFF" d="M109.1,200.3v3.2c0,0.2-0.2,0.4-0.4,0.4h-2.1c-0.2,0-0.4-0.2-0.4-0.4v-2.8c0-0.1,0-0.1,0-0.2l-0.1-0.3
			c-0.1-0.1-0.2-0.2-0.4-0.2h-5c-0.2,0-0.3,0.1-0.4,0.2l-0.1,0.3c0,0,0,0.1,0,0.2v2.8c0,0.2-0.2,0.4-0.4,0.4h-2.2
			c-0.2,0-0.4-0.2-0.4-0.4v-3.2c0-0.1,0-0.1,0-0.2l4.3-10.3c0.1-0.1,0.2-0.2,0.4-0.2h2.5c0.2,0,0.3,0.1,0.4,0.2l4.3,10.3
			C109.1,200.2,109.1,200.2,109.1,200.3z M101.9,197.4h2.5c0.3,0,0.5-0.3,0.4-0.5l-1.6-3.9h-0.1l-1.6,3.9
			C101.4,197.1,101.6,197.4,101.9,197.4z"/>
		<path fill="#FFFFFF" d="M124.9,203.5v-2.1c0-0.1,0-0.2-0.1-0.2l-1.8-2.5c-0.1-0.1-0.2-0.2-0.3-0.2h-2c-0.2,0-0.4,0.2-0.4,0.4v4.6
			c0,0.2-0.2,0.4-0.4,0.4h-2.2c-0.2,0-0.4-0.2-0.4-0.4V190c0-0.2,0.2-0.4,0.4-0.4h6.3c2.4,0,3.8,1,3.8,3.3v2.1
			c0,1.2-0.6,2.2-1.6,2.6c-0.2,0.1-0.3,0.4-0.2,0.6l1.7,2.2c0.1,0.1,0.1,0.2,0.1,0.2v2.8c0,0.2-0.2,0.4-0.4,0.4h-2.1
			C125.1,203.9,124.9,203.7,124.9,203.5z M123.6,195.9c0.9,0,1.3-0.4,1.3-1.1v-1.3c0-0.8-0.3-1.1-1.3-1.1h-2.9
			c-0.2,0-0.4,0.2-0.4,0.4v2.8c0,0.2,0.2,0.4,0.4,0.4H123.6z"/>
		<path fill="#FFFFFF" d="M147.2,200.6c0,2.3-1.4,3.3-3.8,3.3h-3.1c-2.4,0-3.8-1-3.8-3.3v-7.7c0-2.3,1.4-3.3,3.8-3.3h3.1
			c2.4,0,3.8,1,3.8,3.3v0.8c0,0.2-0.1,0.3-0.3,0.4l-2.1,0.6c-0.2,0.1-0.5-0.1-0.5-0.4v-0.8c0-0.8-0.3-1.1-1.3-1.1h-2.3
			c-0.9,0-1.3,0.4-1.3,1.1v6.6c0,0.8,0.3,1.1,1.3,1.1h2.3c0.9,0,1.3-0.4,1.3-1.1v-1c0-0.3,0.2-0.4,0.5-0.4l2.1,0.6
			c0.2,0,0.3,0.2,0.3,0.4V200.6z"/>
		<path fill="#FFFFFF" d="M163.7,203.5v-5.1c0-0.2-0.2-0.4-0.4-0.4h-4.4c-0.2,0-0.4,0.2-0.4,0.4v5.1c0,0.2-0.2,0.4-0.4,0.4H156
			c-0.2,0-0.4-0.2-0.4-0.4V190c0-0.2,0.2-0.4,0.4-0.4h2.1c0.2,0,0.4,0.2,0.4,0.4v4.9c0,0.2,0.2,0.4,0.4,0.4h4.4
			c0.2,0,0.4-0.2,0.4-0.4V190c0-0.2,0.2-0.4,0.4-0.4h2.2c0.2,0,0.4,0.2,0.4,0.4v13.5c0,0.2-0.2,0.4-0.4,0.4h-2.2
			C163.9,203.9,163.7,203.7,163.7,203.5z"/>
	</g>
	<g>
		<g>
			<path fill="#FFFFFF" d="M132.3,80.4c0.7,0.4,1.3,1,1.7,1.6c0.7-0.9,1-2,1-3.2v-42c0-2-1.1-3.8-2.8-4.8L96,11.1
				c-1.7-1-3.8-1-5.5,0l-36.4,21c-1.7,1-2.8,2.8-2.8,4.8v42c0,1.2,0.4,2.3,1,3.2c0.5-0.6,1-1.2,1.7-1.6l36.4-21c1.7-1,3.8-1,5.5,0
				L132.3,80.4z M54.1,132c-1.7-1-2.8-2.8-2.8-4.8v-42c0-0.8,0.2-1.6,0.5-2.3c-1.1-0.1-2.3,0.1-3.3,0.7l-36.4,21
				c-1.7,1-2.8,2.8-2.8,4.8v42c0,2,1.1,3.8,2.8,4.8l36.4,21c1.7,1,3.8,1,5.5,0l36.4-21c1-0.6,1.8-1.5,2.2-2.5
				c-0.8-0.1-1.5-0.3-2.2-0.7L54.1,132z M174.2,104.6l-36.4-21c-1-0.6-2.2-0.8-3.3-0.7c0.3,0.7,0.5,1.5,0.5,2.3v42
				c0,2-1.1,3.8-2.8,4.8L96,153c-0.7,0.4-1.5,0.6-2.2,0.7c0.5,1,1.2,1.9,2.2,2.5l36.4,21c1.7,1,3.8,1,5.5,0l36.4-21
				c1.7-1,2.8-2.8,2.8-4.8v-42C177,107.4,176,105.6,174.2,104.6z"/>
		</g>
	</g>
	<g>
		<g>
			<path fill="#FFFFFF" d="M71.5,90.5v3.6c0,0.3,0.3,0.6,0.6,0.6h7.4c0.3,0,0.6,0.3,0.6,0.6v2.5c0,0.3-0.3,0.6-0.6,0.6h-7.4
				c-0.3,0-0.6,0.3-0.6,0.6v6.5c0,0.3-0.3,0.6-0.6,0.6h-2.9c-0.3,0-0.6-0.3-0.6-0.6v-19c0-0.3,0.3-0.6,0.6-0.6h13.2
				c0.3,0,0.6,0.3,0.6,0.6v2.6c0,0.3-0.3,0.6-0.6,0.6h-9C71.7,89.9,71.5,90.1,71.5,90.5z"/>
			<path fill="#FFFFFF" d="M101.6,101.2v4.5c0,0.3-0.3,0.6-0.6,0.6h-2.9c-0.3,0-0.6-0.3-0.6-0.6v-3.8c0-0.1,0-0.2,0-0.2l-0.2-0.4
				c-0.1-0.2-0.3-0.4-0.6-0.4h-6.9c-0.3,0-0.5,0.2-0.6,0.4l-0.2,0.4c0,0.1,0,0.2,0,0.2v3.8c0,0.3-0.3,0.6-0.6,0.6h-2.9
				c-0.3,0-0.6-0.3-0.6-0.6v-4.5c0-0.1,0-0.2,0-0.2l6.1-14.5c0.1-0.2,0.3-0.4,0.6-0.4h3.5c0.3,0,0.5,0.2,0.6,0.4l6.1,14.5
				C101.6,101,101.6,101.1,101.6,101.2z M91.5,97.1h3.4c0.4,0,0.7-0.5,0.6-0.9l-2.2-5.4h-0.1l-2.2,5.4
				C90.8,96.6,91.1,97.1,91.5,97.1z"/>
			<path fill="#FFFFFF" d="M105.4,86.7c0-0.3,0.3-0.6,0.6-0.6h8.7c3.4,0,5.4,1.4,5.4,4.7v1.8c0,1.1-0.4,2.3-1.4,3
				c-0.4,0.3-0.4,0.8,0,1c1,0.7,1.4,1.9,1.4,3v2.1c0,3.3-2,4.7-5.4,4.7H106c-0.3,0-0.6-0.3-0.6-0.6V86.7z M114.1,94.1
				c1.3,0,1.8-0.6,1.8-1.7v-1c0-1.1-0.4-1.6-1.8-1.6h-3.9c-0.3,0-0.6,0.3-0.6,0.6v3c0,0.3,0.3,0.6,0.6,0.6H114.1z M114.1,102.4
				c1.3,0,1.8-0.5,1.8-1.6v-1.3c0-1.1-0.5-1.6-1.8-1.6h-3.9c-0.3,0-0.6,0.3-0.6,0.6v3.3c0,0.3,0.3,0.6,0.6,0.6H114.1z"/>
		</g>
	</g>
	<g>
		<g>
			<path fill="#FFFFFF" d="M77.7,123.3c0,2.3-1.2,3.2-3.6,3.2h-3.6c-2.4,0-3.6-0.9-3.6-3.2v-8.6c0-2.2,1.2-3.2,3.6-3.2h3.6
				c2.4,0,3.6,1,3.6,3.2v0.4c0,0.3-0.2,0.5-0.5,0.6l-1,0.3c-0.4,0.1-0.8-0.2-0.8-0.6V115c0-1.1-0.4-1.6-1.7-1.6h-3
				c-1.3,0-1.7,0.5-1.7,1.6v7.8c0,1.1,0.4,1.6,1.7,1.6h3c1.3,0,1.7-0.5,1.7-1.6v-0.4c0-0.4,0.4-0.7,0.8-0.6l1,0.3
				c0.3,0.1,0.4,0.3,0.4,0.6V123.3z"/>
			<path fill="#FFFFFF" d="M81.6,124.4h2.9c0.3,0,0.6-0.3,0.6-0.6v-9.7c0-0.3-0.3-0.6-0.6-0.6h-2.7c-0.3,0-0.6-0.3-0.6-0.6v-0.8
				c0-0.3,0.3-0.6,0.6-0.6h8.8c0.3,0,0.6,0.3,0.6,0.6v0.8c0,0.3-0.3,0.6-0.6,0.6H88c-0.3,0-0.6,0.3-0.6,0.6v9.7
				c0,0.3,0.3,0.6,0.6,0.6h2.9c0.3,0,0.6,0.3,0.6,0.6v0.8c0,0.3-0.3,0.6-0.6,0.6h-9.3c-0.3,0-0.6-0.3-0.6-0.6v-0.8
				C80.9,124.7,81.2,124.4,81.6,124.4z"/>
			<path fill="#FFFFFF" d="M101.3,114.1v11.8c0,0.3-0.3,0.6-0.6,0.6h-1c-0.3,0-0.6-0.3-0.6-0.6v-11.8c0-0.3-0.3-0.6-0.6-0.6h-3.8
				c-0.3,0-0.6-0.3-0.6-0.6v-0.8c0-0.3,0.3-0.6,0.6-0.6h11c0.3,0,0.6,0.3,0.6,0.6v0.8c0,0.3-0.3,0.6-0.6,0.6h-3.8
				C101.6,113.5,101.3,113.8,101.3,114.1z"/>
			<path fill="#FFFFFF" d="M115.2,120.2v5.7c0,0.3-0.3,0.6-0.6,0.6h-1c-0.3,0-0.6-0.3-0.6-0.6v-5.7c0-0.2-0.1-0.3-0.2-0.5l-4.3-4
				c-0.1-0.1-0.2-0.3-0.2-0.5v-3.2c0-0.3,0.3-0.6,0.6-0.6h1c0.3,0,0.6,0.3,0.6,0.6v2.4c0,0.2,0.1,0.3,0.2,0.5l2.9,2.8
				c0.2,0.2,0.6,0.2,0.9,0l2.9-2.8c0.1-0.1,0.2-0.3,0.2-0.5v-2.4c0-0.3,0.3-0.6,0.6-0.6h1c0.3,0,0.6,0.3,0.6,0.6v3.2
				c0,0.2-0.1,0.3-0.2,0.5l-4.3,4C115.3,119.9,115.2,120,115.2,120.2z"/>
		</g>
	</g>
</g>
</svg>
