<?xml version="1.0" encoding="utf-8"?>
<!-- Generator: Adobe Illustrator 17.0.0, SVG Export Plug-In . SVG Version: 6.00 Build 0)  -->
<!DOCTYPE svg PUBLIC "-//W3C//DTD SVG 1.1//EN" "http://www.w3.org/Graphics/SVG/1.1/DTD/svg11.dtd">
<svg version="1.1" id="Layer_1" xmlns="http://www.w3.org/2000/svg" xmlns:xlink="http://www.w3.org/1999/xlink" x="0px" y="0px"
	 width="300px" height="300px" viewBox="0 0 300 300" enable-background="new 0 0 300 300" xml:space="preserve">
<g>
	<g>
		<path fill="#0AAA64" d="M153.563,163.485l46.723-26.973c2.197-1.268,4.903-1.268,7.1,0l46.723,26.973
			c2.197,1.268,3.551,3.613,3.551,6.15v53.951c0,2.537-1.353,4.881-3.55,6.149l-46.723,26.978c-2.197,1.269-4.904,1.269-7.101,0
			l-46.723-26.978c-2.197-1.268-3.55-3.613-3.55-6.149v-53.951C150.012,167.098,151.366,164.753,153.563,163.485z"/>
		<path fill="#EE3045" d="M45.89,163.485l46.723-26.973c2.197-1.268,4.903-1.268,7.1,0l46.723,26.973
			c2.197,1.268,3.551,3.613,3.551,6.15v53.951c0,2.537-1.353,4.881-3.55,6.149l-46.723,26.978c-2.197,1.269-4.904,1.269-7.101,0
			L45.89,229.734c-2.197-1.268-3.55-3.613-3.55-6.149v-53.951C42.34,167.098,43.693,164.753,45.89,163.485z"/>
		<path fill="#1B459B" d="M99.715,70.261l46.723-26.973c2.197-1.268,4.903-1.268,7.1,0l46.723,26.973
			c2.197,1.268,3.551,3.613,3.551,6.15v53.951c0,2.537-1.353,4.881-3.55,6.149l-46.723,26.978c-2.197,1.269-4.904,1.269-7.101,0
			L99.714,136.51c-2.197-1.268-3.55-3.613-3.55-6.149V76.41C96.164,73.873,97.517,71.529,99.715,70.261z"/>
		<path fill="#221E20" d="M99.716,132.416l46.723-26.973c2.197-1.268,4.903-1.268,7.1,0l46.723,26.973
			c2.197,1.268,3.551,3.613,3.551,6.15v53.951c0,2.537-1.353,4.881-3.55,6.149l-46.723,26.978c-2.197,1.269-4.904,1.269-7.101,0
			l-46.723-26.978c-2.197-1.268-3.55-3.613-3.55-6.149v-53.951C96.165,136.028,97.518,133.684,99.716,132.416z"/>
	</g>
	<g>
		<g>
			<path fill="#FFFFFF" d="M122.044,145.317v4.645c0,0.453,0.368,0.821,0.821,0.821h9.481c0.453,0,0.821,0.368,0.821,0.821v3.195
				c0,0.453-0.368,0.821-0.821,0.821h-9.481c-0.453,0-0.821,0.368-0.821,0.821v8.377c0,0.453-0.368,0.821-0.821,0.821h-3.73
				c-0.453,0-0.821-0.368-0.821-0.821v-24.413c0-0.453,0.368-0.821,0.821-0.821h16.871c0.453,0,0.821,0.368,0.821,0.821v3.271
				c0,0.453-0.368,0.821-0.821,0.821h-11.499C122.412,144.495,122.044,144.863,122.044,145.317z"/>
			<path fill="#FFFFFF" d="M160.819,159.06v5.757c0,0.453-0.368,0.821-0.821,0.821h-3.691c-0.453,0-0.821-0.368-0.821-0.821v-5.084
				l-0.495-1.181h-9.981l-0.495,1.181v5.084c0,0.453-0.368,0.821-0.821,0.821h-3.729c-0.453,0-0.821-0.368-0.821-0.821v-5.757
				c0-0.109,0.022-0.216,0.064-0.317l7.801-18.656c0.128-0.305,0.426-0.504,0.758-0.504h4.43c0.331,0,0.63,0.199,0.758,0.504
				l7.801,18.656C160.798,158.843,160.819,158.951,160.819,159.06z M147.83,153.791h4.305c0.583,0,0.98-0.59,0.761-1.13
				l-2.818-6.946h-0.191l-2.818,6.946C146.85,153.201,147.247,153.791,147.83,153.791z"/>
			<path fill="#FFFFFF" d="M165.617,140.404c0-0.453,0.368-0.821,0.821-0.821h11.102c4.381,0,6.933,1.791,6.933,6.018v2.286
				c0,1.469-0.522,2.962-1.793,3.865c-0.419,0.298-0.419,0.963,0,1.261c1.271,0.902,1.792,2.395,1.792,3.864v2.744
				c0,4.227-2.552,6.018-6.933,6.018h-11.102c-0.453,0-0.821-0.368-0.821-0.821V140.404z M176.816,149.981
				c1.676,0,2.285-0.723,2.285-2.132v-1.296c0-1.409-0.571-2.058-2.285-2.058h-5.046c-0.453,0-0.821,0.368-0.821,0.821v3.844
				c0,0.453,0.368,0.821,0.821,0.821H176.816z M176.816,160.647c1.714,0,2.285-0.647,2.285-2.056v-1.715
				c0-1.409-0.609-2.056-2.285-2.056h-5.046c-0.453,0-0.821,0.368-0.821,0.821v4.185c0,0.453,0.368,0.821,0.821,0.821H176.816z"/>
		</g>
	</g>
	<g>
		<path fill="#FFFFFF" d="M125.791,171.819h-5.177c-3.146,0-4.549,1.299-4.549,4.21v11.767c0,2.912,1.403,4.21,4.549,4.21h5.177
			c3.146,0,4.549-1.298,4.549-4.21v-1.215l-2.593-0.794v1.727c0,1.532-0.315,2.041-2.182,2.041h-4.724
			c-1.867,0-2.183-0.51-2.183-2.041v-11.202c0-1.578,0.301-2.069,2.183-2.069h4.724c1.882,0,2.182,0.491,2.182,2.069v1.605
			l2.593-0.753v-1.135C130.34,173.118,128.937,171.819,125.791,171.819z"/>
		<path fill="#FFFFFF" d="M142.367,189.153v-14.509c0-0.221,0.18-0.401,0.402-0.401h4.888v-2.424h-13.2v2.424h4.916
			c0.221,0,0.401,0.18,0.401,0.401v14.509c0,0.221-0.18,0.402-0.401,0.402h-5.256v2.451h13.879v-2.451h-5.228
			C142.547,189.555,142.367,189.375,142.367,189.153z"/>
		<path fill="#FFFFFF" d="M150.811,174.243h6.472c0.221,0,0.402,0.18,0.402,0.401v17.362h2.593v-17.362
			c0-0.221,0.18-0.401,0.402-0.401h6.444v-2.424h-16.312V174.243z"/>
		<path fill="#FFFFFF" d="M181.847,171.819v4.473c0,0.112-0.047,0.219-0.13,0.295l-4.553,4.194c-0.149,0.137-0.396,0.137-0.544,0
			l-4.554-4.194c-0.082-0.076-0.129-0.183-0.129-0.295v-4.473h-2.593v5.121c0,0.347,0.147,0.681,0.404,0.915l5.718,5.227
			c0.082,0.075,0.13,0.183,0.13,0.295v8.628h2.593v-8.629c0-0.112,0.047-0.22,0.13-0.296l5.692-5.226
			c0.255-0.234,0.401-0.568,0.401-0.914v-5.122H181.847z"/>
	</g>
</g>
</svg>
