<?xml version="1.0" encoding="utf-8"?>
<!-- Generator: Adobe Illustrator 17.0.0, SVG Export Plug-In . SVG Version: 6.00 Build 0)  -->
<!DOCTYPE svg PUBLIC "-//W3C//DTD SVG 1.1//EN" "http://www.w3.org/Graphics/SVG/1.1/DTD/svg11.dtd">
<svg version="1.1" id="Layer_1" xmlns="http://www.w3.org/2000/svg" xmlns:xlink="http://www.w3.org/1999/xlink" x="0px" y="0px"
	 width="640px" height="116px" viewBox="0 0 640 116" enable-background="new 0 0 640 116" xml:space="preserve">
<path fill="#0AAA64" d="M44.738,102.204V99.35c0-0.231-0.123-0.444-0.322-0.561l-5.861-3.417c-0.2-0.116-0.322-0.33-0.322-0.561
	V87.16c0.245-0.098,0.494-0.209,0.727-0.345c3.853-2.183,4.341-8.581,1.096-14.273c-3.235-5.698-8.985-8.541-12.832-6.348
	c-3.851,2.181-4.343,8.576-1.094,14.271c0.463,0.815,0.977,1.572,1.525,2.26c0.09,0.112,0.138,0.248,0.138,0.392v4.865
	c0,0.501-0.543,0.813-0.975,0.561l-7.079-4.119c-0.2-0.116-0.323-0.33-0.323-0.561V55.512c0-0.232-0.124-0.446-0.324-0.562
	l-1.842-1.064c-0.325-0.188-0.749-0.065-0.915,0.271c-2.203,4.453-3.436,9.448-3.436,14.751
	C12.898,86.82,27.013,101.431,44.738,102.204"/>
<path fill="#EE3045" d="M27.131,49.049c0.201-0.115,0.447-0.115,0.648,0.001l6.624,3.826c-0.039,0.265-0.056,0.536-0.056,0.809
	c-0.026,4.427,5.257,8.048,11.81,8.093c6.552,0.037,11.89-3.518,11.916-7.947c0.025-4.425-5.267-8.043-11.817-8.09
	c-0.933-0.006-1.844,0.063-2.716,0.199c-0.143,0.022-0.287-0.004-0.412-0.076l-4.21-2.434c-0.433-0.25-0.432-0.876,0.002-1.125
	l7.104-4.076c0.201-0.115,0.447-0.115,0.648,0.001L71.37,52.495c0.201,0.116,0.448,0.116,0.649,0l1.776-1.025
	c0.324-0.187,0.43-0.613,0.224-0.925c-2.762-4.194-6.496-7.798-11.141-10.474c-15.357-8.869-34.817-4.14-44.456,10.456
	c-0.206,0.312-0.102,0.739,0.222,0.926l1.816,1.049c0.2,0.116,0.447,0.116,0.647,0.001L27.131,49.049z"/>
<path fill="#1B459B" d="M72.99,62.322c-0.001,0.231-0.124,0.444-0.324,0.559l-6.624,3.828c-0.209-0.172-0.426-0.325-0.665-0.463
	c-3.819-2.232-9.607,0.533-12.914,6.189c-3.309,5.655-2.9,12.053,0.919,14.289c3.819,2.237,9.6-0.531,12.911-6.192
	c0.474-0.801,0.872-1.622,1.188-2.443c0.052-0.135,0.146-0.247,0.272-0.319l4.22-2.43c0.434-0.25,0.975,0.064,0.973,0.565
	l-0.031,8.186c-0.001,0.231-0.124,0.444-0.324,0.56l-24.537,14.17c-0.201,0.116-0.324,0.33-0.324,0.562v2.13
	c0,0.376,0.318,0.681,0.693,0.657c4.952-0.321,9.887-1.748,14.472-4.393c15.316-8.849,20.961-27.979,13.224-43.609
	c-0.166-0.336-0.589-0.46-0.914-0.273l-1.863,1.074c-0.2,0.115-0.324,0.329-0.325,0.56L72.99,62.322z"/>
<g>
	<rect x="83.837" y="42.908" fill="none" width="561.582" height="53.55"/>
	<text transform="matrix(1 0 0 1 83.8373 90.0659)"><tspan x="0" y="0" fill="#231E20" font-family="'HelveticaNeueLTStd-Bd'" font-size="66.0488" letter-spacing="-1">FAB</tspan><tspan x="126.548" y="0" fill="#C0BFBF" font-family="'HelveticaNeueLTStd-Roman'" font-size="66.0488">FOUNDATION</tspan></text>
</g>
</svg>
