<?xml version="1.0" encoding="utf-8"?>
<!-- Generator: Adobe Illustrator 18.0.0, SVG Export Plug-In . SVG Version: 6.00 Build 0)  -->
<!DOCTYPE svg PUBLIC "-//W3C//DTD SVG 1.0//EN" "http://www.w3.org/TR/2001/REC-SVG-20010904/DTD/svg10.dtd">
<svg version="1.0" id="Layer_1" xmlns="http://www.w3.org/2000/svg" xmlns:xlink="http://www.w3.org/1999/xlink" x="0px" y="0px"
	 viewBox="0 0 500.1 92" enable-background="new 0 0 500.1 92" xml:space="preserve">
<path fill="#FFFFFF" d="M34,34h24v24H34V34z M34,63h29V34h24v53H34V63z M5,5h82v24H58.6H29v28.3V87H5V5z M0,0v92h29.2h5.2H92V33.3
	v-5.2V0H0z"/>
<polygon fill="#FFFFFF" points="107.5,90.6 107.5,28.9 139.8,28.9 139.8,34.5 114.1,34.5 114.1,52.6 134.7,52.6 134.7,58.1 
	114.1,58.1 114.1,90.6 "/>
<path fill="#FFFFFF" d="M133.8,90.6l27.7-62.5h1.2l27.3,62.5h-7.2l-6.5-15.2h-28.7L141,90.6H133.8z M149.9,70h24L162,41.8L149.9,70z
	"/>
<g>
	<defs>
		<rect id="SVGID_1_" width="500.1" height="92"/>
	</defs>
	<clipPath id="SVGID_2_">
		<use xlink:href="#SVGID_1_"  overflow="visible"/>
	</clipPath>
	<path clip-path="url(#SVGID_2_)" fill="#FFFFFF" d="M193.7,29.1c3.3-0.5,6.9-1,10.6-1c10.5,0,21,3.3,21,15.5c0,5.8-3.5,10.3-6.5,12
		c7.3,1.3,13.6,7.8,13.6,16.8c0,14.8-13.4,19-26.9,19c-3.9,0-7.8-0.3-11.9-0.8V29.1z M200.3,54.3h8.8c5.6-0.3,9.7-5,9.7-10.4
		c0-8.1-7.3-10.1-13.4-10.1c-1.8,0-3.6,0.2-5,0.4V54.3z M200.3,85c2.1,0.4,4.4,0.5,6.5,0.5c9.8,0,18.8-3.5,18.8-13.3
		c0-9.5-7.8-12.8-14.8-12.8h-10.5V85z"/>
	<polygon clip-path="url(#SVGID_2_)" fill="#FFFFFF" points="273.1,90.6 241.8,90.6 241.8,28.9 248.4,28.9 248.4,85.1 273.1,85.1 	
		"/>
	<path clip-path="url(#SVGID_2_)" fill="#FFFFFF" d="M278.6,90.6l27.7-62.5h1.2l27.3,62.5h-7.2l-6.5-15.2h-28.7l-6.6,15.2H278.6z
		 M294.7,70h24l-11.9-28.3L294.7,70z"/>
	<path clip-path="url(#SVGID_2_)" fill="#FFFFFF" d="M342.8,29.1c3.3-0.5,6.9-1,10.6-1c10.5,0,21,3.3,21,15.5c0,5.8-3.5,10.3-6.5,12
		c7.3,1.3,13.6,7.8,13.6,16.8c0,14.8-13.4,19-26.9,19c-3.9,0-7.8-0.3-11.9-0.8V29.1z M349.5,54.3h8.8c5.6-0.3,9.7-5,9.7-10.4
		c0-8.1-7.3-10.1-13.4-10.1c-1.8,0-3.6,0.2-5,0.4V54.3z M349.5,85c2.1,0.4,4.4,0.5,6.5,0.5c9.8,0,18.8-3.5,18.8-13.3
		c0-9.5-7.8-12.8-14.8-12.8h-10.5V85z"/>
	<path clip-path="url(#SVGID_2_)" fill="#FFFFFF" d="M389.6,28.7h14.5v39.2c0,6.6,5,10.9,10.4,10.9c5.4,0,10.5-4.3,10.5-10.9V28.7
		h14.5v39.9c0,12.6-8.7,23.3-25.1,23.3c-16.3,0-24.9-10.7-24.9-23.3V28.7z"/>
	<path clip-path="url(#SVGID_2_)" fill="#FFFFFF" d="M500.1,82c-4.1,4.6-10.9,9.9-24.7,9.9c-18.3,0-32.7-13.6-32.7-32.4
		c0-19.6,16.1-31.9,33.2-31.9c12.3,0,20.7,6.1,24.2,9.5l-8.9,10.5c-1.6-1.7-6.7-7-15-7c-10.4,0-17.9,8.6-17.9,18.9
		c0,10,6.6,19.1,18.4,19.1c6.9,0,12.1-3.6,14.7-6.3L500.1,82z"/>
</g>
</svg>
