<?xml version="1.0" encoding="utf-8"?>
<!-- Generator: Adobe Illustrator 17.0.0, SVG Export Plug-In . SVG Version: 6.00 Build 0)  -->
<!DOCTYPE svg PUBLIC "-//W3C//DTD SVG 1.1//EN" "http://www.w3.org/Graphics/SVG/1.1/DTD/svg11.dtd">
<svg version="1.1" id="Layer_1" xmlns="http://www.w3.org/2000/svg" xmlns:xlink="http://www.w3.org/1999/xlink" x="0px" y="0px"
	 width="317.87px" height="199.853px" viewBox="0 0 317.87 199.853" enable-background="new 0 0 317.87 199.853"
	 xml:space="preserve">
<g>
	<path fill="#1C3557" d="M315.699,56.618c2.178,1.325,2.805,3.313,1.48,5.491l-17.923,29.579c-1.325,2.178-3.481,2.703-5.658,1.378
		s-2.703-3.481-1.378-5.658l17.923-29.579C311.467,55.65,313.521,55.293,315.699,56.618z"/>
	<path fill="#EA5F69" d="M210.238,126.158c0-2.549,1.373-4.118,3.922-4.118h34.764c2.549,0,4.118,1.569,4.118,4.118
		c0,2.549-1.569,4.118-4.118,4.118H214.16C211.611,130.276,210.238,128.708,210.238,126.158z"/>
	<path fill="#467C9D" d="M214.075,59.791c0-2.549,1.373-4.118,3.922-4.118h13.644c2.549,0,4.118,1.569,4.118,4.118
		s-1.569,4.118-4.118,4.118h-13.644C215.447,63.908,214.075,62.34,214.075,59.791z"/>
	<path fill="#467C9D" d="M275.98,59.791c0-2.549,1.373-4.118,3.922-4.118h33.85c2.549,0,4.118,1.569,4.118,4.118
		s-1.569,4.118-4.118,4.118h-33.85C277.352,63.908,275.98,62.34,275.98,59.791z"/>
	<path fill="#1C3557" d="M44.715,57.082c0,2.162-2.048,4.209-4.324,4.209H8.761v24.577h29.128c2.276,0,4.323,2.048,4.323,4.324
		c0,2.048-2.048,4.323-4.323,4.323H8.874v37.206H0V52.644h40.391C42.668,52.644,44.715,54.807,44.715,57.082z"/>
	<path fill="#1C3557" d="M114.115,133.201c-2.162,0.455-4.664-0.797-5.348-3.413l-4.892-20.14H77.932l-4.892,20.14
		c-0.683,2.844-2.844,3.868-5.121,3.413c-2.844-0.569-4.095-2.844-3.526-5.348l17.636-75.208h17.522l17.863,75.208
		C117.983,130.356,116.39,132.746,114.115,133.201z M88.97,61.292l-9.103,39.595h21.959l-8.989-39.595H88.97z"/>
	<path fill="#1C3557" d="M178.998,90.761c7.054-3.072,8.419-12.175,8.419-16.156v-1.252c0-7.055-2.844-20.709-20.708-20.709h-23.553
		v79.077h24.121c17.75,0,21.391-13.995,21.391-20.936v-2.731C188.669,103.959,186.735,94.402,178.998,90.761z M151.918,61.292
		h14.792c4.096,0,11.947,1.365,11.947,12.061v1.024c0,10.695-6.372,12.402-11.265,12.402h-15.474V61.292z M179.908,110.445
		c0,10.809-8.42,12.516-12.63,12.516h-15.361V95.54h15.929c4.779,0,12.061,1.706,12.061,12.629V110.445z"/>
	<path fill="#DBE5D8" d="M296.23,123.566c2.162,0,4.216,1.621,4.216,4.107c0,2.162-2.054,4.216-4.216,4.216
		c-17.187,0-21.618-13.295-21.618-20.754c0-2.162,1.621-4.216,4.107-4.216c2.162,0,4.216,2.054,4.216,4.216
		C282.934,121.729,292.23,123.566,296.23,123.566z"/>
	<path fill="#E53946" d="M295.689,93.859c-2.162,0-4.216-1.621-4.216-4.107c0-2.162,2.054-4.216,4.216-4.216
		c17.187,0,21.618,13.295,21.618,20.754c0,2.162-1.621,4.216-4.107,4.216c-2.162,0-4.216-2.054-4.216-4.216
		C308.984,95.696,299.689,93.859,295.689,93.859z"/>
	<path fill="#EA5F69" d="M308.984,111.136c0-2.162,2.054-4.216,4.216-4.216c2.486,0,4.107,2.054,4.107,4.216
		c0,7.458-4.432,20.754-21.618,20.754c-2.162,0-4.216-2.054-4.216-4.216c0-2.486,2.054-4.107,4.216-4.107
		C299.689,123.566,308.984,121.729,308.984,111.136z"/>
	<path fill="#EA5F69" d="M313.19,101.291c2.549,0,4.118,1.373,4.118,3.922v4.751c0,2.549-1.569,4.118-4.118,4.118
		c-2.549,0-4.118-1.569-4.118-4.118v-4.751C309.072,102.664,310.64,101.291,313.19,101.291z"/>
	<path fill="#A8D9DB" d="M231.64,55.673c2.549,0,4.118,1.373,4.118,3.922v66.564c0,2.549-1.569,4.118-4.118,4.118
		c-2.549,0-4.118-1.569-4.118-4.118V59.594C227.522,57.045,229.091,55.673,231.64,55.673z"/>
</g>
<g>
	<path fill="#1C3557" d="M64.031,193.808c-1.37-0.45-2.465-1.055-3.285-1.815c-0.3-0.28-0.45-0.63-0.45-1.05
		c0-0.28,0.08-0.525,0.24-0.735c0.16-0.21,0.35-0.315,0.57-0.315c0.26,0,0.54,0.11,0.84,0.33c1.86,1.44,3.979,2.16,6.36,2.16
		c1.72,0,3.04-0.33,3.96-0.99c0.919-0.66,1.38-1.6,1.38-2.82c0-0.7-0.22-1.265-0.66-1.695c-0.44-0.43-1.02-0.774-1.74-1.035
		c-0.72-0.26-1.69-0.53-2.91-0.81c-1.64-0.38-2.985-0.78-4.035-1.2c-1.05-0.42-1.9-1.02-2.55-1.8c-0.65-0.78-0.975-1.8-0.975-3.06
		c0-1.2,0.325-2.265,0.975-3.195c0.65-0.93,1.56-1.65,2.73-2.16c1.17-0.51,2.505-0.765,4.005-0.765c1.4,0,2.705,0.215,3.915,0.645
		c1.21,0.431,2.225,1.045,3.045,1.845c0.319,0.32,0.48,0.67,0.48,1.05c0,0.28-0.081,0.525-0.24,0.735
		c-0.16,0.21-0.35,0.315-0.57,0.315c-0.22,0-0.51-0.11-0.87-0.33c-0.98-0.8-1.89-1.36-2.73-1.68c-0.84-0.32-1.85-0.48-3.03-0.48
		c-1.66,0-2.95,0.345-3.87,1.035c-0.92,0.69-1.38,1.655-1.38,2.895c0,1.06,0.405,1.855,1.215,2.385
		c0.81,0.53,2.055,0.995,3.735,1.395c1.82,0.44,3.25,0.845,4.29,1.215c1.04,0.371,1.905,0.926,2.595,1.665
		c0.69,0.74,1.035,1.73,1.035,2.97c0,1.18-0.325,2.22-0.975,3.12s-1.565,1.6-2.745,2.1c-1.181,0.5-2.53,0.75-4.05,0.75
		C66.836,194.483,65.401,194.258,64.031,193.808z"/>
	<path fill="#1C3557" d="M91.196,185.033v8.16c0,0.36-0.105,0.65-0.315,0.87c-0.21,0.22-0.495,0.33-0.855,0.33s-0.65-0.11-0.87-0.33
		c-0.22-0.22-0.33-0.51-0.33-0.87v-1.44c-0.38,0.86-0.96,1.525-1.74,1.995c-0.78,0.47-1.68,0.705-2.7,0.705
		c-0.94,0-1.805-0.19-2.595-0.57c-0.791-0.38-1.416-0.91-1.875-1.59c-0.46-0.68-0.69-1.43-0.69-2.25c0-1.1,0.28-1.955,0.84-2.565
		c0.56-0.61,1.48-1.05,2.76-1.32s3.06-0.405,5.34-0.405h0.66v-0.99c0-1.2-0.245-2.08-0.735-2.64c-0.49-0.56-1.285-0.84-2.385-0.84
		c-1.36,0-2.741,0.37-4.14,1.11c-0.54,0.34-0.92,0.51-1.14,0.51c-0.24,0-0.44-0.09-0.6-0.27c-0.16-0.18-0.24-0.41-0.24-0.69
		s0.085-0.525,0.255-0.735s0.445-0.424,0.825-0.645c0.7-0.4,1.495-0.715,2.385-0.945c0.89-0.229,1.775-0.345,2.655-0.345
		C89.366,179.272,91.196,181.193,91.196,185.033z M87.671,191.318c0.77-0.81,1.155-1.855,1.155-3.135v-0.87h-0.54
		c-1.76,0-3.1,0.075-4.02,0.225s-1.575,0.4-1.965,0.75c-0.39,0.35-0.585,0.865-0.585,1.545c0,0.78,0.285,1.425,0.855,1.935
		c0.57,0.51,1.285,0.765,2.145,0.765C85.916,192.533,86.901,192.127,87.671,191.318z"/>
	<path fill="#1C3557" d="M108.236,185.062v8.13c0,0.38-0.105,0.675-0.315,0.885s-0.505,0.315-0.885,0.315s-0.68-0.105-0.9-0.315
		c-0.22-0.21-0.33-0.505-0.33-0.885v-7.98c0-1.36-0.265-2.35-0.795-2.97c-0.53-0.62-1.375-0.93-2.535-0.93
		c-1.34,0-2.41,0.41-3.21,1.23c-0.8,0.82-1.2,1.931-1.2,3.33v7.32c0,0.38-0.105,0.675-0.315,0.885
		c-0.21,0.21-0.505,0.315-0.885,0.315c-0.38,0-0.68-0.105-0.9-0.315c-0.22-0.21-0.33-0.505-0.33-0.885v-12.66
		c0-0.36,0.11-0.65,0.33-0.87c0.22-0.22,0.52-0.33,0.9-0.33c0.36,0,0.645,0.11,0.855,0.33c0.21,0.22,0.315,0.5,0.315,0.84v1.53
		c0.48-0.9,1.15-1.585,2.01-2.055c0.859-0.47,1.84-0.705,2.94-0.705C106.485,179.272,108.236,181.203,108.236,185.062z"/>
	<path fill="#1C3557" d="M120.475,193.433c0,0.34-0.125,0.595-0.375,0.765c-0.25,0.169-0.625,0.235-1.125,0.195l-0.81-0.06
		c-1.601-0.12-2.78-0.6-3.54-1.44c-0.761-0.84-1.14-2.11-1.14-3.81v-7.53h-2.01c-0.34,0-0.605-0.085-0.795-0.255
		c-0.19-0.17-0.285-0.395-0.285-0.675c0-0.3,0.094-0.54,0.285-0.72c0.19-0.18,0.455-0.27,0.795-0.27h2.01v-3.39
		c0-0.38,0.11-0.675,0.33-0.885c0.22-0.21,0.52-0.315,0.9-0.315c0.36,0,0.649,0.105,0.87,0.315c0.22,0.21,0.33,0.505,0.33,0.885
		v3.39h3.33c0.32,0,0.575,0.09,0.765,0.27c0.19,0.18,0.285,0.42,0.285,0.72c0,0.28-0.095,0.505-0.285,0.675
		c-0.19,0.17-0.445,0.255-0.765,0.255h-3.33v7.65c0,1.1,0.225,1.895,0.675,2.385s1.125,0.765,2.025,0.825l0.81,0.06
		C120.125,192.533,120.475,192.853,120.475,193.433z"/>
	<path fill="#1C3557" d="M122.935,175.763c-0.3-0.28-0.45-0.65-0.45-1.11c0-0.44,0.15-0.8,0.45-1.08c0.3-0.28,0.69-0.42,1.17-0.42
		s0.87,0.14,1.17,0.42c0.3,0.28,0.45,0.64,0.45,1.08c0,0.46-0.15,0.83-0.45,1.11c-0.3,0.28-0.69,0.42-1.17,0.42
		S123.235,176.043,122.935,175.763z M123.22,194.078c-0.23-0.21-0.345-0.505-0.345-0.885v-12.66c0-0.38,0.115-0.675,0.345-0.885
		c0.229-0.21,0.525-0.315,0.885-0.315s0.65,0.105,0.87,0.315c0.22,0.21,0.33,0.505,0.33,0.885v12.66c0,0.4-0.11,0.7-0.33,0.9
		c-0.22,0.2-0.51,0.3-0.87,0.3S123.45,194.288,123.22,194.078z"/>
	<path fill="#1C3557" d="M141.295,185.033v8.16c0,0.36-0.105,0.65-0.315,0.87c-0.21,0.22-0.495,0.33-0.855,0.33
		s-0.65-0.11-0.87-0.33c-0.22-0.22-0.33-0.51-0.33-0.87v-1.44c-0.38,0.86-0.96,1.525-1.74,1.995c-0.78,0.47-1.68,0.705-2.7,0.705
		c-0.94,0-1.805-0.19-2.595-0.57c-0.791-0.38-1.416-0.91-1.875-1.59c-0.46-0.68-0.69-1.43-0.69-2.25c0-1.1,0.28-1.955,0.84-2.565
		c0.56-0.61,1.48-1.05,2.76-1.32s3.06-0.405,5.34-0.405h0.66v-0.99c0-1.2-0.245-2.08-0.735-2.64c-0.49-0.56-1.285-0.84-2.385-0.84
		c-1.36,0-2.741,0.37-4.14,1.11c-0.54,0.34-0.92,0.51-1.14,0.51c-0.24,0-0.44-0.09-0.6-0.27c-0.16-0.18-0.24-0.41-0.24-0.69
		s0.085-0.525,0.255-0.735s0.445-0.424,0.825-0.645c0.7-0.4,1.495-0.715,2.385-0.945c0.89-0.229,1.775-0.345,2.655-0.345
		C139.465,179.272,141.295,181.193,141.295,185.033z M137.77,191.318c0.77-0.81,1.155-1.855,1.155-3.135v-0.87h-0.54
		c-1.76,0-3.1,0.075-4.02,0.225s-1.575,0.4-1.965,0.75c-0.39,0.35-0.585,0.865-0.585,1.545c0,0.78,0.285,1.425,0.855,1.935
		c0.57,0.51,1.285,0.765,2.145,0.765C136.015,192.533,137,192.127,137.77,191.318z"/>
	<path fill="#1C3557" d="M158.485,179.663c0.22,0.22,0.33,0.51,0.33,0.87v12.72c0,2.18-0.56,3.825-1.68,4.935
		c-1.12,1.11-2.78,1.665-4.98,1.665c-2.14,0-3.92-0.42-5.34-1.26c-0.72-0.4-1.08-0.86-1.08-1.38c0-0.281,0.075-0.51,0.225-0.69
		c0.15-0.18,0.345-0.27,0.585-0.27c0.2,0,0.56,0.14,1.08,0.42c0.7,0.36,1.39,0.649,2.07,0.87c0.68,0.22,1.49,0.33,2.43,0.33
		c1.42,0,2.49-0.375,3.21-1.125c0.72-0.75,1.08-1.845,1.08-3.285v-2.58c-0.42,0.94-1.065,1.66-1.935,2.16
		c-0.87,0.5-1.896,0.75-3.075,0.75c-1.28,0-2.415-0.3-3.405-0.9c-0.99-0.6-1.76-1.45-2.31-2.55c-0.55-1.1-0.825-2.37-0.825-3.81
		s0.275-2.71,0.825-3.81c0.55-1.1,1.32-1.95,2.31-2.55c0.99-0.6,2.125-0.9,3.405-0.9c1.16,0,2.17,0.25,3.03,0.75
		c0.859,0.5,1.51,1.21,1.95,2.13v-1.62c0-0.36,0.105-0.65,0.315-0.87c0.21-0.22,0.505-0.33,0.885-0.33
		C157.964,179.333,158.264,179.443,158.485,179.663z M155.185,190.388c0.799-0.93,1.2-2.215,1.2-3.855
		c0-1.62-0.395-2.895-1.185-3.825c-0.79-0.93-1.895-1.395-3.315-1.395c-1.42,0-2.535,0.465-3.345,1.395
		c-0.81,0.93-1.215,2.205-1.215,3.825c0,1.64,0.405,2.925,1.215,3.855s1.924,1.395,3.345,1.395
		C153.284,191.783,154.385,191.318,155.185,190.388z"/>
	<path fill="#1C3557" d="M165.73,193.522c-1.05-0.62-1.86-1.504-2.43-2.655c-0.57-1.15-0.855-2.485-0.855-4.005
		s0.285-2.855,0.855-4.005c0.57-1.15,1.38-2.035,2.43-2.655c1.05-0.62,2.265-0.93,3.645-0.93s2.6,0.311,3.66,0.93
		c1.06,0.62,1.875,1.505,2.445,2.655s0.855,2.485,0.855,4.005s-0.285,2.855-0.855,4.005c-0.57,1.15-1.385,2.035-2.445,2.655
		c-1.061,0.621-2.28,0.93-3.66,0.93S166.78,194.143,165.73,193.522z M172.69,191.018c0.77-0.95,1.155-2.335,1.155-4.155
		c0-1.78-0.39-3.155-1.17-4.125c-0.78-0.97-1.88-1.455-3.3-1.455c-1.42,0-2.52,0.485-3.3,1.455c-0.78,0.97-1.17,2.345-1.17,4.125
		c0,1.8,0.385,3.18,1.155,4.14c0.77,0.96,1.875,1.44,3.315,1.44S171.92,191.968,172.69,191.018z"/>
	<path fill="#1C3557" d="M181.81,191.588c0.31,0.39,0.465,0.975,0.465,1.755c0,1.58-0.51,2.91-1.53,3.99
		c-0.2,0.22-0.43,0.33-0.69,0.33c-0.2,0-0.38-0.075-0.54-0.225c-0.16-0.15-0.24-0.325-0.24-0.525c0-0.22,0.08-0.41,0.24-0.57
		c0.52-0.54,0.85-1.21,0.99-2.01c-0.44-0.04-0.805-0.205-1.095-0.495c-0.29-0.29-0.435-0.665-0.435-1.125
		c0-0.5,0.155-0.91,0.465-1.23s0.695-0.48,1.155-0.48C181.095,191.002,181.5,191.198,181.81,191.588z"/>
	<path fill="#1C3557" d="M198.204,193.178c-1.46-0.87-2.585-2.12-3.375-3.75c-0.791-1.63-1.185-3.555-1.185-5.775
		c0-2.2,0.395-4.115,1.185-5.745c0.79-1.63,1.915-2.88,3.375-3.75c1.459-0.87,3.19-1.305,5.19-1.305c1.34,0,2.605,0.215,3.795,0.645
		c1.189,0.431,2.225,1.045,3.105,1.845c0.32,0.3,0.48,0.65,0.48,1.05c0,0.28-0.08,0.525-0.24,0.735
		c-0.161,0.21-0.351,0.315-0.57,0.315c-0.24,0-0.53-0.11-0.87-0.33c-1.02-0.8-1.945-1.36-2.775-1.68
		c-0.83-0.32-1.785-0.48-2.865-0.48c-2.32,0-4.105,0.755-5.355,2.265c-1.25,1.51-1.875,3.655-1.875,6.435
		c0,2.8,0.625,4.955,1.875,6.465c1.25,1.51,3.035,2.265,5.355,2.265c1.06,0,2.01-0.16,2.85-0.48c0.84-0.32,1.77-0.88,2.79-1.68
		c0.34-0.22,0.63-0.33,0.87-0.33c0.22,0,0.41,0.101,0.57,0.3c0.16,0.2,0.24,0.45,0.24,0.75c0,0.4-0.16,0.75-0.48,1.05
		c-0.88,0.8-1.916,1.415-3.105,1.845c-1.19,0.43-2.455,0.645-3.795,0.645C201.394,194.483,199.664,194.048,198.204,193.178z"/>
	<path fill="#1C3557" d="M225.654,180.728c0.88,0.97,1.32,2.415,1.32,4.335v8.13c0,0.38-0.11,0.675-0.33,0.885
		c-0.22,0.21-0.51,0.315-0.87,0.315c-0.38,0-0.68-0.105-0.9-0.315c-0.22-0.21-0.33-0.505-0.33-0.885v-8.07
		c0-1.3-0.265-2.26-0.795-2.88c-0.53-0.62-1.375-0.93-2.535-0.93c-1.34,0-2.41,0.41-3.21,1.23c-0.8,0.82-1.2,1.931-1.2,3.33v7.32
		c0,0.38-0.105,0.675-0.315,0.885c-0.21,0.21-0.505,0.315-0.885,0.315c-0.38,0-0.68-0.105-0.9-0.315
		c-0.22-0.21-0.33-0.505-0.33-0.885v-19.08c0-0.34,0.115-0.62,0.345-0.84c0.229-0.22,0.525-0.33,0.885-0.33
		c0.38,0,0.675,0.105,0.885,0.315c0.21,0.21,0.315,0.495,0.315,0.855v7.86c0.48-0.88,1.15-1.55,2.01-2.01s1.84-0.69,2.94-0.69
		C223.473,179.272,224.774,179.758,225.654,180.728z"/>
	<path fill="#1C3557" d="M231.473,175.763c-0.3-0.28-0.45-0.65-0.45-1.11c0-0.44,0.15-0.8,0.45-1.08c0.3-0.28,0.69-0.42,1.17-0.42
		s0.87,0.14,1.17,0.42c0.3,0.28,0.45,0.64,0.45,1.08c0,0.46-0.15,0.83-0.45,1.11c-0.3,0.28-0.69,0.42-1.17,0.42
		S231.773,176.043,231.473,175.763z M231.759,194.078c-0.23-0.21-0.345-0.505-0.345-0.885v-12.66c0-0.38,0.115-0.675,0.345-0.885
		c0.229-0.21,0.525-0.315,0.885-0.315s0.65,0.105,0.87,0.315c0.22,0.21,0.33,0.505,0.33,0.885v12.66c0,0.4-0.11,0.7-0.33,0.9
		c-0.22,0.2-0.51,0.3-0.87,0.3S231.988,194.288,231.759,194.078z"/>
	<path fill="#1C3557" d="M238.719,194.078c-0.23-0.21-0.345-0.505-0.345-0.885v-19.05c0-0.379,0.115-0.675,0.345-0.885
		c0.229-0.21,0.525-0.315,0.885-0.315c0.34,0,0.625,0.105,0.855,0.315c0.229,0.21,0.345,0.505,0.345,0.885v19.05
		c0,0.38-0.116,0.675-0.345,0.885c-0.23,0.21-0.515,0.315-0.855,0.315C239.243,194.393,238.948,194.288,238.719,194.078z"/>
	<path fill="#1C3557" d="M257.213,191.123c0.16,0.18,0.24,0.41,0.24,0.69c0,0.5-0.35,0.96-1.05,1.38
		c-0.72,0.42-1.48,0.735-2.28,0.945c-0.8,0.21-1.58,0.315-2.34,0.315c-2.261,0-4.045-0.67-5.355-2.01
		c-1.311-1.34-1.965-3.19-1.965-5.55c0-1.5,0.29-2.825,0.87-3.975c0.58-1.149,1.395-2.044,2.445-2.685
		c1.05-0.64,2.245-0.96,3.585-0.96c1.9,0,3.41,0.621,4.53,1.86c1.12,1.24,1.68,2.92,1.68,5.04c0,0.4-0.081,0.69-0.24,0.87
		c-0.16,0.18-0.42,0.27-0.78,0.27h-9.66c0.18,3.44,1.81,5.16,4.89,5.16c0.78,0,1.45-0.105,2.01-0.315
		c0.56-0.21,1.16-0.495,1.8-0.855c0.52-0.3,0.87-0.45,1.05-0.45C256.863,190.853,257.053,190.943,257.213,191.123z M248.318,182.363
		c-0.77,0.8-1.225,1.93-1.365,3.39h8.49c-0.04-1.479-0.41-2.614-1.11-3.405c-0.7-0.79-1.68-1.185-2.94-1.185
		C250.113,181.163,249.088,181.563,248.318,182.363z"/>
</g>
<g>
	<path fill="#1C3557" d="M70.566,9.337c0.418,0.551,0.627,1.245,0.627,2.081c0,1.166-0.408,2.083-1.226,2.755
		c-0.817,0.671-1.922,1.007-3.315,1.007c-0.823,0-1.612-0.133-2.365-0.399c-0.754-0.266-1.391-0.633-1.91-1.102
		c-0.253-0.202-0.38-0.456-0.38-0.76c0-0.228,0.063-0.421,0.19-0.58c0.126-0.158,0.278-0.237,0.456-0.237
		c0.19,0,0.405,0.083,0.646,0.247c0.544,0.406,1.08,0.713,1.605,0.922c0.525,0.209,1.092,0.313,1.701,0.313
		c1.798,0,2.698-0.766,2.698-2.299c0-0.747-0.237-1.308-0.712-1.681s-1.194-0.561-2.157-0.561h-1.045
		c-0.241,0-0.431-0.079-0.57-0.238C64.669,8.647,64.6,8.46,64.6,8.245c0-0.203,0.069-0.383,0.209-0.542
		c0.139-0.159,0.329-0.238,0.57-0.238h0.741c0.924,0,1.631-0.193,2.118-0.58c0.488-0.386,0.732-0.953,0.732-1.7
		c0-0.659-0.2-1.171-0.599-1.539c-0.399-0.367-0.959-0.551-1.682-0.551c-1.064,0-2.128,0.412-3.192,1.235
		c-0.241,0.165-0.456,0.247-0.646,0.247c-0.178,0-0.33-0.079-0.456-0.237c-0.127-0.158-0.19-0.352-0.19-0.58
		c0-0.304,0.126-0.557,0.38-0.76c0.52-0.469,1.149-0.836,1.891-1.102C65.217,1.633,65.98,1.5,66.766,1.5
		c1.254,0,2.251,0.311,2.992,0.931c0.741,0.621,1.112,1.463,1.112,2.527c0,0.76-0.187,1.422-0.561,1.985
		c-0.374,0.564-0.902,0.972-1.586,1.226C69.533,8.397,70.148,8.786,70.566,9.337z"/>
	<path fill="#1C3557" d="M82.612,13.641c0.152,0.139,0.228,0.335,0.228,0.589c0,0.544-0.304,0.817-0.912,0.817h-6.346
		c-0.621,0-0.931-0.272-0.931-0.817c0-0.253,0.079-0.45,0.237-0.589c0.159-0.14,0.39-0.209,0.694-0.209h2.185V3.951L75.81,5.186
		C75.683,5.262,75.556,5.3,75.429,5.3c-0.215,0-0.402-0.095-0.56-0.285c-0.159-0.19-0.238-0.405-0.238-0.646
		c0-0.291,0.126-0.519,0.38-0.684l2.926-1.862c0.291-0.177,0.57-0.266,0.836-0.266c0.278,0,0.506,0.089,0.684,0.266
		C79.635,2,79.724,2.241,79.724,2.545v10.887h2.204C82.232,13.432,82.46,13.501,82.612,13.641z"/>
	<path fill="#1C3557" d="M88.995,14.971c-0.203-0.139-0.304-0.348-0.304-0.627c0-0.494,0.272-0.76,0.817-0.798l0.589-0.038
		c0.595-0.025,1.038-0.206,1.33-0.542c0.292-0.335,0.437-0.864,0.437-1.586V2.545c0-0.292,0.092-0.529,0.276-0.712
		c0.183-0.184,0.421-0.276,0.712-0.276c0.304,0,0.544,0.092,0.722,0.276s0.266,0.421,0.266,0.712v8.835
		c0,1.191-0.282,2.093-0.845,2.708c-0.564,0.615-1.41,0.953-2.537,1.017l-0.589,0.038C89.489,15.167,89.198,15.11,88.995,14.971z"/>
	<path fill="#1C3557" d="M104.604,5.832c0.171,0.165,0.256,0.393,0.256,0.684v7.733c0,0.266-0.089,0.481-0.266,0.646
		s-0.412,0.247-0.703,0.247c-0.266,0-0.482-0.08-0.646-0.238c-0.165-0.158-0.247-0.371-0.247-0.636v-0.722
		c-0.292,0.532-0.693,0.938-1.207,1.216c-0.513,0.279-1.086,0.418-1.72,0.418c-2.254,0-3.382-1.241-3.382-3.724v-4.94
		c0-0.292,0.085-0.52,0.256-0.684c0.171-0.165,0.409-0.247,0.713-0.247c0.291,0,0.522,0.083,0.693,0.247s0.256,0.393,0.256,0.684
		v4.921c0,0.748,0.152,1.298,0.456,1.653c0.304,0.355,0.772,0.532,1.406,0.532c0.747,0,1.346-0.241,1.795-0.722
		c0.449-0.481,0.674-1.121,0.674-1.919V6.516c0-0.279,0.088-0.504,0.266-0.675c0.177-0.171,0.412-0.256,0.703-0.256
		C104.201,5.585,104.433,5.667,104.604,5.832z"/>
	<path fill="#1C3557" d="M107.814,14.914c-0.184-0.152-0.275-0.38-0.275-0.684V2.488c0-0.304,0.092-0.535,0.275-0.693
		c0.184-0.158,0.415-0.238,0.693-0.238s0.507,0.08,0.684,0.238c0.177,0.159,0.266,0.39,0.266,0.693V14.23
		c0,0.304-0.089,0.532-0.266,0.684c-0.177,0.152-0.405,0.228-0.684,0.228S107.998,15.066,107.814,14.914z"/>
	<path fill="#1C3557" d="M119.062,5.737c0.146-0.088,0.301-0.133,0.466-0.133c0.24,0,0.453,0.083,0.636,0.247
		s0.275,0.361,0.275,0.589c0,0.126-0.025,0.247-0.076,0.361l-5.282,11.21c-0.076,0.177-0.187,0.313-0.333,0.409
		c-0.146,0.095-0.301,0.143-0.465,0.143c-0.228,0-0.434-0.076-0.618-0.228c-0.184-0.152-0.275-0.342-0.275-0.57
		c0-0.102,0.031-0.228,0.095-0.38l1.311-2.793l-3.667-7.79c-0.051-0.101-0.076-0.215-0.076-0.342c0-0.241,0.101-0.443,0.304-0.608
		s0.431-0.247,0.684-0.247c0.38,0,0.652,0.177,0.817,0.532l2.945,6.536l2.926-6.517C118.805,5.965,118.916,5.826,119.062,5.737z"/>
</g>
<g>
	<g>
		<path fill="#1C3557" d="M162.646,7.057c0.634,0.361,1.124,0.865,1.473,1.511s0.522,1.387,0.522,2.223
			c0,0.836-0.189,1.586-0.569,2.251s-0.902,1.185-1.567,1.558c-0.665,0.374-1.423,0.561-2.271,0.561c-1.66,0-2.936-0.566-3.829-1.7
			c-0.893-1.134-1.339-2.752-1.339-4.854c0-1.482,0.209-2.758,0.627-3.829s1.02-1.891,1.805-2.46
			c0.785-0.57,1.716-0.855,2.793-0.855c0.722,0,1.444,0.133,2.166,0.399s1.336,0.633,1.843,1.102c0.253,0.215,0.38,0.469,0.38,0.76
			c0,0.228-0.063,0.421-0.189,0.58c-0.127,0.159-0.279,0.237-0.456,0.237c-0.114,0-0.219-0.019-0.313-0.057
			c-0.096-0.038-0.206-0.102-0.333-0.19c-1.063-0.823-2.077-1.235-3.04-1.235c-1.051,0-1.868,0.485-2.451,1.454
			c-0.582,0.969-0.873,2.321-0.873,4.057v0.038c0.278-0.646,0.731-1.156,1.358-1.53c0.627-0.374,1.333-0.561,2.118-0.561
			C161.297,6.516,162.013,6.696,162.646,7.057z M162.029,12.814c0.476-0.5,0.713-1.162,0.713-1.986c0-0.81-0.237-1.466-0.713-1.966
			c-0.475-0.5-1.105-0.75-1.891-0.75c-0.798,0-1.447,0.25-1.947,0.75s-0.75,1.156-0.75,1.966c0,0.824,0.246,1.485,0.74,1.986
			s1.146,0.75,1.957,0.75C160.923,13.565,161.554,13.315,162.029,12.814z"/>
		<path fill="#1C3557" d="M183.983,14.249c0,0.241-0.099,0.443-0.295,0.608s-0.415,0.247-0.655,0.247
			c-0.164,0-0.319-0.048-0.465-0.143c-0.146-0.095-0.257-0.231-0.333-0.409l-1.254-2.85h-6.954l-1.254,2.85
			c-0.076,0.178-0.19,0.313-0.342,0.409c-0.152,0.095-0.311,0.143-0.476,0.143c-0.253,0-0.478-0.083-0.674-0.247
			c-0.197-0.165-0.295-0.367-0.295-0.608c0-0.102,0.031-0.228,0.095-0.38l5.358-11.723c0.089-0.203,0.231-0.361,0.428-0.475
			c0.196-0.114,0.401-0.171,0.617-0.171s0.421,0.057,0.617,0.171c0.196,0.114,0.339,0.272,0.428,0.475l5.358,11.723
			C183.951,14.021,183.983,14.147,183.983,14.249z M174.73,10.145h5.567l-2.793-6.289L174.73,10.145z"/>
		<path fill="#1C3557" d="M193.663,5.794c0.171,0.165,0.256,0.393,0.256,0.684v7.733c0,0.266-0.089,0.481-0.266,0.646
			c-0.178,0.165-0.412,0.247-0.703,0.247c-0.266,0-0.481-0.08-0.646-0.238c-0.165-0.158-0.247-0.371-0.247-0.636v-0.722
			c-0.292,0.532-0.693,0.938-1.207,1.216c-0.513,0.279-1.086,0.418-1.72,0.418c-2.254,0-3.382-1.241-3.382-3.724v-4.94
			c0-0.292,0.086-0.52,0.257-0.684s0.408-0.247,0.713-0.247c0.291,0,0.522,0.083,0.693,0.247s0.256,0.393,0.256,0.684v4.921
			c0,0.748,0.152,1.298,0.456,1.653c0.305,0.355,0.772,0.532,1.406,0.532c0.747,0,1.346-0.241,1.796-0.722
			c0.449-0.481,0.674-1.121,0.674-1.919V6.478c0-0.279,0.089-0.504,0.267-0.675c0.177-0.171,0.411-0.256,0.703-0.256
			C193.261,5.547,193.492,5.629,193.663,5.794z"/>
		<path fill="#1C3557" d="M204.968,5.803c0.171,0.171,0.256,0.396,0.256,0.675v7.79c0,1.418-0.377,2.489-1.13,3.211
			c-0.754,0.722-1.865,1.083-3.335,1.083c-1.368,0-2.508-0.26-3.42-0.779c-0.469-0.266-0.703-0.583-0.703-0.95
			c0-0.216,0.06-0.393,0.181-0.532c0.12-0.14,0.269-0.209,0.446-0.209c0.165,0,0.425,0.095,0.779,0.285
			c0.456,0.215,0.88,0.383,1.272,0.503c0.393,0.12,0.861,0.18,1.406,0.18c1.748,0,2.622-0.88,2.622-2.641v-1.463
			c-0.266,0.557-0.672,0.991-1.216,1.301c-0.545,0.311-1.178,0.465-1.9,0.465c-0.811,0-1.532-0.19-2.166-0.57
			c-0.633-0.38-1.124-0.918-1.473-1.615c-0.348-0.696-0.522-1.501-0.522-2.413c0-0.912,0.178-1.716,0.532-2.413
			s0.846-1.238,1.473-1.625s1.346-0.58,2.156-0.58c0.71,0,1.333,0.152,1.872,0.456c0.538,0.304,0.946,0.735,1.226,1.292V6.459
			c0-0.279,0.085-0.5,0.256-0.665s0.402-0.247,0.693-0.247C204.566,5.547,204.796,5.632,204.968,5.803z M202.621,12.387
			c0.468-0.544,0.703-1.298,0.703-2.261c0-0.95-0.231-1.701-0.694-2.251c-0.462-0.551-1.111-0.827-1.947-0.827
			s-1.491,0.272-1.966,0.817c-0.476,0.545-0.713,1.298-0.713,2.261c0,0.962,0.24,1.716,0.722,2.261
			c0.481,0.545,1.134,0.817,1.957,0.817S202.153,12.932,202.621,12.387z"/>
		<path fill="#1C3557" d="M221.839,13.603c0.158,0.139,0.237,0.335,0.237,0.589c0,0.544-0.311,0.817-0.931,0.817h-7.334
			c-0.279,0-0.498-0.079-0.656-0.237s-0.237-0.358-0.237-0.599c0-0.292,0.114-0.557,0.342-0.798l4.466-4.883
			c0.595-0.646,1.025-1.235,1.292-1.767c0.266-0.532,0.398-1.057,0.398-1.577c0-0.671-0.193-1.188-0.579-1.549
			c-0.387-0.361-0.935-0.542-1.644-0.542c-1.077,0-2.147,0.412-3.211,1.235c-0.14,0.088-0.257,0.155-0.352,0.199
			c-0.096,0.044-0.193,0.066-0.295,0.066c-0.178,0-0.329-0.082-0.456-0.247s-0.189-0.361-0.189-0.589c0-0.316,0.126-0.57,0.38-0.76
			c0.532-0.456,1.171-0.82,1.919-1.093c0.747-0.272,1.501-0.408,2.261-0.408c1.254,0,2.252,0.32,2.992,0.959
			c0.741,0.64,1.112,1.504,1.112,2.593c0,0.773-0.168,1.508-0.504,2.204c-0.336,0.697-0.896,1.476-1.682,2.337l-3.591,3.838h5.567
			C221.45,13.394,221.68,13.463,221.839,13.603z"/>
		<path fill="#1C3557" d="M225.126,13.413c-0.817-1.165-1.226-2.862-1.226-5.092c0-2.242,0.408-3.945,1.226-5.111
			c0.816-1.166,2.004-1.748,3.562-1.748c1.558,0,2.745,0.58,3.562,1.738c0.816,1.159,1.225,2.859,1.225,5.102
			s-0.408,3.946-1.225,5.111c-0.817,1.166-2.005,1.748-3.562,1.748C227.13,15.161,225.943,14.578,225.126,13.413z M230.835,12.311
			c0.456-0.848,0.684-2.185,0.684-4.009c0-1.824-0.228-3.157-0.684-4c-0.456-0.842-1.172-1.264-2.146-1.264
			c-0.976,0-1.691,0.421-2.147,1.264c-0.456,0.843-0.684,2.176-0.684,4c0,1.812,0.228,3.145,0.684,4s1.172,1.283,2.147,1.283
			C229.663,13.584,230.379,13.16,230.835,12.311z"/>
		<path fill="#1C3557" d="M244.496,13.603c0.151,0.139,0.228,0.335,0.228,0.589c0,0.544-0.304,0.817-0.912,0.817h-6.346
			c-0.621,0-0.931-0.272-0.931-0.817c0-0.253,0.079-0.45,0.237-0.589c0.158-0.14,0.39-0.209,0.693-0.209h2.186V3.913l-1.957,1.235
			c-0.127,0.076-0.254,0.114-0.381,0.114c-0.215,0-0.401-0.095-0.56-0.285c-0.159-0.19-0.238-0.405-0.238-0.646
			c0-0.291,0.127-0.519,0.38-0.684l2.927-1.862c0.291-0.177,0.569-0.266,0.836-0.266c0.278,0,0.506,0.089,0.684,0.266
			c0.178,0.178,0.267,0.418,0.267,0.722v10.887h2.203C244.117,13.394,244.344,13.463,244.496,13.603z"/>
		<path fill="#1C3557" d="M255.982,1.842c0.146,0.152,0.219,0.349,0.219,0.589c0,0.228-0.07,0.469-0.209,0.722l-6.213,11.476
			c-0.203,0.354-0.482,0.532-0.837,0.532c-0.24,0-0.459-0.085-0.655-0.256s-0.294-0.383-0.294-0.637c0-0.152,0.05-0.329,0.151-0.532
			l5.72-10.507h-6.176c-0.304,0-0.531-0.07-0.684-0.209c-0.152-0.14-0.229-0.336-0.229-0.589c0-0.544,0.305-0.817,0.912-0.817h7.657
			C255.623,1.614,255.836,1.69,255.982,1.842z"/>
	</g>
</g>
<line fill="none" stroke="#000000" stroke-linecap="round" stroke-miterlimit="10" x1="126.935" y1="9.224" x2="146.935" y2="9.224"/>
</svg>
