<?xml version="1.0" encoding="utf-8"?>
<!-- Generator: Adobe Illustrator 19.1.0, SVG Export Plug-In . SVG Version: 6.00 Build 0)  -->
<svg version="1.1" id="Layer_1" xmlns="http://www.w3.org/2000/svg" xmlns:xlink="http://www.w3.org/1999/xlink" x="0px" y="0px"
	 viewBox="0 0 150 60.5" style="enable-background:new 0 0 150 60.5;" xml:space="preserve">
<style type="text/css">
	.st0{fill:#0063AE;}
	.st1{fill:#076DB4;}
	.st2{fill:#E74346;}
</style>
<g>
	<g>
		<path class="st0" d="M126.4,60.5c6.4-0.4,11.9-2.8,16.3-7.2c4.9-4.8,7.3-10.9,7.3-18.3c0-6.7-1.9-12.5-6-17
			c-0.1-0.1-0.3-0.2-0.5-0.2c-0.4,0-0.7,0.3-0.7,0.7c0,0.1,0,0.1,0,0.2c3,8.1,1.3,16.3-4.1,18.4c-3.7,1.5-8.2-0.3-11.8-4.3
			c-0.3-0.3-0.7-0.3-1,0c-0.2,0.2-0.3,0.6-0.1,0.9c0,0,0.1,0.1,0.1,0.1c3.1,3.5,4.7,7.8,4.7,12.8c0,5-1.5,9.3-4.6,12.7
			c-0.1,0.1-0.2,0.3-0.2,0.5C125.8,60.2,126.1,60.5,126.4,60.5z"/>
		<path class="st0" d="M76.6,58.3c-0.5-0.8-1.3-1.9-2.1-3.5c-1.4-2.5-2.5-4.2-3.3-5.2c-0.8-1-1.6-1.8-2.4-2.3
			c1.4-0.6,2.7-1.4,3.4-2.6c0.7-1.2,1.1-2.5,1.1-4.1c0-2.3-0.8-4.2-2.3-5.5c-1.5-1.4-3.8-2-6.4-2h-6.4v27.2h4V48.4h0.3
			c1.2,0,2.1,0.1,2.6,0.4c0.5,0.3,1.1,0.8,1.7,1.4c0.6,0.7,1.3,1.5,2.1,2.7L70,55l1.1,2l0.7,1.1c0.1,0.2,0.2,0.3,0.2,0.3l1.1,1.8
			h4.7L76.6,58.3z M67.2,44.1c-0.6,0.3-2,0.5-3.7,0.5h-1.3v-7.8h1c1.6,0,3,0.1,3.8,0.4c0.7,0.3,1.3,0.7,1.6,1.3
			c0.4,0.6,0.6,1.3,0.6,2.1c0,0.8-0.2,1.5-0.5,2.1C68.3,43.3,67.8,43.7,67.2,44.1z"/>
		<path class="st0" d="M81.2,33h13.6v3.8h-9.6v6.9h9.6v3.8h-9.6v12.7h-4V33z"/>
		<path class="st0" d="M50,36.6c-2.6-2.7-5.9-4-9.9-4c-4,0-7.2,1.3-9.8,4c-2.6,2.7-3.9,6-3.9,10.1c0,4,1.3,7.3,3.9,9.9
			c2.6,2.6,5.8,3.9,9.6,3.9c4,0,7.4-1.3,10-3.9c2.7-2.6,4-6,4-10C54,42.6,52.6,39.3,50,36.6z M47,54c-1.8,2-4.1,3-6.9,3
			c-2.7,0-5-1-6.8-2.9c-1.8-2-2.7-4.4-2.7-7.3c0-3,0.9-5.5,2.7-7.5c1.8-2,4.1-2.9,6.9-2.9c2.7,0,4.9,1,6.8,3c1.8,2,2.8,4.4,2.8,7.3
			C49.8,49.5,48.9,52,47,54z"/>
		<path class="st0" d="M122.1,36.6c-2.6-2.7-5.9-4-9.9-4c-4,0-7.2,1.3-9.8,4c-2.6,2.7-3.9,6-3.9,10.1c0,4,1.3,7.3,3.9,9.9
			c2.6,2.6,5.8,3.9,9.6,3.9c4,0,7.4-1.3,10-3.9c2.7-2.6,4-6,4-10C126.1,42.6,124.8,39.3,122.1,36.6z M119.1,54c-1.8,2-4.1,3-6.9,3
			c-2.7,0-5-1-6.8-2.9c-1.8-2-2.7-4.4-2.7-7.3c0-3,0.9-5.5,2.7-7.5c1.8-2,4.1-2.9,6.9-2.9c2.7,0,4.9,1,6.8,3c1.8,2,2.8,4.4,2.8,7.3
			C121.9,49.5,121,52,119.1,54z"/>
		<path class="st0" d="M22.7,54c-2.1,2-4.7,3-7.8,3c-3.1,0-5.7-1-7.8-2.9c-2.1-2-3.1-4.4-3.1-7.3c0-3,1-5.5,3.1-7.5
			c2.1-2,4.7-2.9,7.9-2.9c3,0,5.6,1,7.7,3c0,0,0,0,0.1,0.1v-0.2v-3.8v-0.4c-3.3-1.5-6.3-2.2-9-2.2c-3.9,0-7.2,1.4-9.8,4.1
			c-2.7,2.7-4,6-4,10c0,2.5,0.6,4.8,1.7,6.9c1.2,2.1,2.7,3.8,4.7,5c2,1.2,4.4,1.8,7.3,1.8c3.5,0,6.6-0.8,9.3-2.3v-0.4v-3.9v-0.2
			c0,0,0,0,0,0C22.9,53.8,22.8,53.9,22.7,54z"/>
		<path class="st0" d="M139.7,26.9c-0.9-0.9-2.1-1.4-3.5-1.4s-2.6,0.5-3.5,1.4c-0.9,0.9-1.4,2.1-1.4,3.6c0,1.4,0.5,2.6,1.4,3.5
			c0.9,0.9,2.1,1.4,3.4,1.4c1.4,0,2.6-0.5,3.6-1.4c0.9-0.9,1.4-2.1,1.4-3.5C141.1,29,140.7,27.8,139.7,26.9z"/>
	</g>
	<g>
		<rect y="0" class="st1" width="56.7" height="13.1"/>
		<rect x="56.7" y="0" class="st2" width="69.4" height="13.1"/>
	</g>
</g>
</svg>
