<?xml version="1.0" encoding="utf-8"?>
<!-- Generator: Adobe Illustrator 17.0.0, SVG Export Plug-In . SVG Version: 6.00 Build 0)  -->
<!DOCTYPE svg PUBLIC "-//W3C//DTD SVG 1.1//EN" "http://www.w3.org/Graphics/SVG/1.1/DTD/svg11.dtd">
<svg version="1.1" id="Layer_1" xmlns="http://www.w3.org/2000/svg" xmlns:xlink="http://www.w3.org/1999/xlink" x="0px" y="0px"
	 width="86.613px" height="22.053px" viewBox="0 0 86.613 22.053" enable-background="new 0 0 86.613 22.053" xml:space="preserve">
<g>
	<path fill="#1C3557" d="M0,0.031h11.006c0.31,0,0.583,0.124,0.821,0.372c0.237,0.248,0.356,0.527,0.356,0.837
		s-0.119,0.579-0.356,0.806c-0.238,0.228-0.512,0.341-0.821,0.341H2.388v6.696h7.936c0.311,0,0.584,0.12,0.821,0.357
		c0.237,0.238,0.356,0.511,0.356,0.821s-0.119,0.584-0.357,0.821c-0.238,0.238-0.513,0.357-0.824,0.357H2.388v10.137H0V0.031z"/>
	<path fill="#1C3557" d="M31.961,20.831c0,0.663-0.31,1.056-0.93,1.18c-0.786,0.165-1.271-0.146-1.457-0.935l-1.333-5.514h-7.068
		l-1.333,5.487c-0.165,0.641-0.517,0.961-1.054,0.961c-0.889,0-1.333-0.393-1.333-1.178c0-0.124,0.01-0.227,0.031-0.31l4.805-20.491
		h4.773l4.867,20.52C31.95,20.634,31.961,20.727,31.961,20.831z M24.18,2.387L21.7,13.175h5.982L25.234,2.387H24.18z"/>
	<path fill="#1C3557" d="M49.507,15.872c0,1.364-0.362,2.553-1.085,3.565c-1.013,1.426-2.594,2.139-4.743,2.139h-6.572V0.031h6.417
		c1.777,0,3.162,0.501,4.154,1.503c0.992,1.003,1.488,2.382,1.488,4.139v0.341c0,0.93-0.176,1.778-0.527,2.542
		c-0.414,0.91-1.003,1.53-1.767,1.86c0.93,0.434,1.632,1.199,2.107,2.294c0.352,0.827,0.527,1.633,0.527,2.418V15.872z
		 M46.778,5.952V5.673c0-2.19-1.085-3.286-3.255-3.286h-4.03v6.944h4.217C45.756,9.331,46.778,8.205,46.778,5.952z M47.119,15.782
		v-0.625c0-2.313-1.095-3.47-3.285-3.47h-4.341v7.533h4.186c1.074,0,1.917-0.302,2.526-0.906S47.119,16.866,47.119,15.782z"/>
	<path fill="#1C3557" d="M56.915,1.255c0-0.347,0.119-0.638,0.356-0.872s0.532-0.352,0.884-0.352h4.867v19.158h3.812
		c0.331,0,0.615,0.123,0.853,0.367s0.356,0.53,0.356,0.856c0,0.755-0.402,1.132-1.209,1.132h-9.889
		c-0.786,0-1.178-0.377-1.178-1.132c0-0.815,0.413-1.224,1.239-1.224h3.721V2.387h-2.573C57.328,2.387,56.915,2.01,56.915,1.255z"/>
	<path fill="#1C3557" d="M74.461,1.24c0-0.331,0.113-0.62,0.341-0.868S75.308,0,75.639,0h10.447v2.06l-4.44,6.709
		c1.511,0.227,2.716,0.841,3.616,1.841c0.9,1,1.352,2.243,1.352,3.728v1.578c0,1.382-0.403,2.619-1.209,3.712
		c-1.096,1.485-2.708,2.228-4.837,2.228c-2.211,0-3.864-0.721-4.96-2.161c-0.826-1.069-1.239-2.325-1.239-3.766
		c0-0.802,0.392-1.204,1.178-1.204c0.31,0,0.589,0.124,0.837,0.372s0.372,0.527,0.372,0.837c0,1.096,0.341,1.964,1.022,2.604
		c0.683,0.641,1.571,0.961,2.666,0.961c1.096,0,2-0.325,2.713-0.976c0.713-0.651,1.069-1.514,1.069-2.589v-1.519
		c0-1.074-0.356-1.911-1.069-2.511c-0.713-0.599-1.617-0.899-2.713-0.899h-1.643V9.021l4.371-6.603h-7.533
		c-0.331,0-0.609-0.114-0.837-0.341C74.574,1.85,74.461,1.571,74.461,1.24z"/>
</g>
</svg>
