<?xml version="1.0" encoding="utf-8"?>
<!-- Generator: Adobe Illustrator 20.1.0, SVG Export Plug-In . SVG Version: 6.00 Build 0)  -->
<svg version="1.1" id="Layer_1" xmlns="http://www.w3.org/2000/svg" xmlns:xlink="http://www.w3.org/1999/xlink" x="0px" y="0px"
	 viewBox="0 0 316 60" style="enable-background:new 0 0 316 60;" xml:space="preserve">
<g>
	<path d="M82.5,37.1l-7.6-8.5c4.7-1,6.3-4.4,6.3-7.8c0-4.3-3.2-8.2-9.1-8.3c-4,0-7.7,0-12,0v24.8h5v-8.1h4.4l7.3,8.1h5.7V37.1z
		 M65.2,25v-8.1h7c3,0,4.3,2,4.3,4c0,2-1.3,4-4.3,4H65.2z"/>
	<path d="M104.4,32.7H90.6v-5.4h13.5v-4.6H90.6v-5.8h13.9v-4.2H86c0,8.1,0,16.5,0,24.6h18.5V32.7z"/>
	<path d="M131.8,24.8c-0.1-6.2-3.9-12.1-12.5-12.1c-3.1,0-6.8,0-9.9,0v24.6c3.1,0,6.8,0,9.9,0C128,37.3,131.9,31.1,131.8,24.8z
		 M114.1,16.9h5.2c5.4,0,7.7,4,7.8,7.9c0.1,4.1-2.1,8.3-7.8,8.3h-5.2V16.9z"/>
	<path d="M157.8,38c3.6,0,6.9-1.2,9.5-3.7l-3.2-3.2c-1.6,1.6-4.1,2.5-6.3,2.5c-6.2,0-8.6-4.3-8.6-8.5c0-4.2,2.6-8.7,8.6-8.7
		c2.2,0,4.4,0.7,6,2.4l3.1-3c-2.6-2.5-5.8-3.8-9.2-3.8c-9,0-13.3,6.6-13.2,13.2C144.6,31.6,148.5,38,157.8,38z"/>
	<polygon points="176.4,27.3 188.7,27.3 188.7,37.3 193.3,37.3 193.3,12.7 188.7,12.7 188.7,23.1 176.4,23.1 176.4,12.7 171.4,12.7 
		171.4,37.3 176.4,37.3 	"/>
	<rect x="199.1" y="12.7" width="5" height="24.6"/>
	<polygon points="227.6,33.1 214.5,33.1 214.5,12.7 209.9,12.7 209.9,37.3 227.6,37.3 	"/>
	<path d="M251.1,32.7h-13.9v-5.4h13.5v-4.6h-13.5v-5.8h13.9v-4.2h-18.9c0,8.1,0,16.5,0,24.6h18.9V32.7z"/>
	<polygon points="278,12.3 273.4,12.3 273.4,28 261.2,12.7 257.2,12.7 257.2,37.3 262.2,37.3 262.2,20.6 275.3,37.5 275.3,37.3 
		278,37.3 	"/>
	<path d="M297.8,12.7h-5.1l-11.2,24.6h5.1l2.1-4.6h13.1l2.1,4.6h5.1L297.8,12.7z M290.6,28.5l4.6-10.6l4.6,10.6H290.6z"/>
	<path d="M62.8,43.9c-0.8,0-1.8,0-2.6,0V50c0.8,0,1.8,0,2.6,0c2.2,0,3.2-1.5,3.1-3.1C65.9,45.3,64.9,43.9,62.8,43.9z M62.8,48.9
		h-1.4V45h1.4c1.4,0,1.9,0.9,2,1.9C64.8,47.9,64.2,48.9,62.8,48.9z"/>
	<path d="M68.3,50h4.6v-1.2h-3.5v-1.5h3.5v-1.2h-3.5V45h3.5v-1.2h-4.6C68.3,45.8,68.3,48.1,68.3,50z"/>
	<path d="M81.3,43.7c-0.8,0-1.9,0-2.7,0V50h1.2v-1.9h1.5C84.4,48.1,84.4,43.7,81.3,43.7z M81.3,46.9h-1.5V45h1.5
		C82.9,45,82.9,46.9,81.3,46.9z"/>
	<polygon points="87.1,43.9 86,43.9 86,50 90.6,50 90.6,48.9 87.1,48.9 	"/>
	<path d="M95,43.9L92.2,50h1.3l0.5-1.2h3.3l0.5,1.2h1.3l-2.8-6.2H95z M94.5,47.7l1.2-2.7l1.2,2.7H94.5z"/>
	<path d="M99.8,44.6h1.9V50h1.2v-5.4h1.9v-0.8c-1.5,0-3.1,0-5,0V44.6z"/>
	<path d="M109.3,43.9l-2.8,6.2h1.3l0.5-1.2h3.3l0.5,1.2h1.3l-2.8-6.2H109.3z M108.8,47.7L110,45l1.2,2.7H108.8z"/>
	<polygon points="115.2,50 116.4,50 116.4,47.7 119.8,47.7 119.8,46.5 116.4,46.5 116.4,45 119.8,45 119.8,43.9 115.2,43.9 	"/>
	<path d="M125.3,43.6c-2.2,0-3.2,1.7-3.2,3.3c0,1.7,1,3.2,3.2,3.2c2.2,0,3.2-1.6,3.2-3.3C128.5,45.3,127.5,43.6,125.3,43.6z
		 M125.3,49.1c-1.5,0-2-1.1-2.1-2.1c0-1.1,0.6-2.3,2.1-2.3c1.5,0,2.1,1.2,2.1,2.2C127.3,48,126.8,49.1,125.3,49.1z"/>
	<path d="M136.1,45.8c0-1.1-0.7-2.1-2.2-2.1c-1,0-2.2,0-2.9,0V50h1.2v-1.9h1.1L135,50h1.3v-0.1l-1.9-2.1
		C135.7,47.5,136.1,46.7,136.1,45.8z M132.1,46.9V45h1.7c0.7,0,1.1,0.5,1.1,1c0,0.5-0.3,1-1.1,1H132.1z"/>
	<polygon points="141.8,46.6 139.8,43.9 138.3,43.9 138.3,50 139.5,50 139.5,45.5 141.6,48.1 141.9,48.1 144.1,45.5 144.1,50 
		145.2,50 145.2,43.9 143.7,43.9 	"/>
	<path d="M149.9,43.9L147,50h1.3l0.5-1.2h3.3l0.5,1.2h1.3l-2.8-6.2H149.9z M149.3,47.7l1.2-2.7l1.2,2.7H149.3z"/>
	<path d="M158.4,46.2c-0.8-0.1-1.4-0.2-1.4-0.8c0-0.5,0.4-0.8,1.3-0.8c0.7,0,1.3,0.3,1.5,0.7l0.9-0.5c-0.5-1-1.5-1.2-2.5-1.2
		c-1.2,0-2.4,0.5-2.4,1.8c0,1.4,1.2,1.8,2.5,1.9c0.8,0.1,1.5,0.3,1.5,0.9c0,0.7-0.7,0.9-1.4,0.9c-0.8,0-1.5-0.3-1.8-1l-1,0.5
		c0.5,1.1,1.5,1.5,2.7,1.5c1.4,0,2.6-0.6,2.6-2C160.9,46.7,159.7,46.3,158.4,46.2z"/>
	<path d="M169,43.9c-0.8,0-1.8,0-2.6,0V50c0.8,0,1.8,0,2.6,0c2.2,0,3.2-1.5,3.1-3.1C172.1,45.3,171.1,43.9,169,43.9z M169,48.9h-1.4
		V45h1.4c1.4,0,1.9,0.9,2,1.9C171,47.9,170.4,48.9,169,48.9z"/>
	<path d="M174.5,50h4.6v-1.2h-3.5v-1.5h3.5v-1.2h-3.5V45h3.5v-1.2h-4.6C174.5,45.8,174.5,48.1,174.5,50z"/>
	<polygon points="184.9,50 186,50 186,47.7 189.1,47.7 189.1,46.5 186,46.5 186,45 189.1,45 189.1,43.9 184.9,43.9 	"/>
	<path d="M193.8,43.9l-2.8,6.2h1.3l0.5-1.2h3.3l0.5,1.2h1.3l-2.8-6.2H193.8z M193.2,47.7l1.2-2.7l1.2,2.7H193.2z"/>
	<path d="M204.1,46.8c0.6-0.3,0.8-0.7,0.8-1.2c0-1.3-0.9-1.8-2.2-1.8c-1,0-2.1,0-2.9,0V50c0.8,0,1.9,0,2.9,0c1.3,0,2.4-0.4,2.4-1.8
		C205.1,47.8,204.8,47,204.1,46.8z M201,44.6h1.7c0.8,0,1,0.5,1,0.8c0,0.4-0.2,0.7-1,0.7H201V44.6z M202.7,48.9H201v-1.5h1.7
		c0.5,0,1.2,0.3,1.2,0.8C203.9,48.7,203.2,48.9,202.7,48.9z"/>
	<path d="M212.7,45.8c0-1.1-0.7-2.1-2.2-2.1c-1,0-2.1,0-2.9,0V50h1.2v-1.9h1l1.8,1.9h1.4v-0.1l-1.9-2.1
		C212.3,47.5,212.7,46.7,212.7,45.8z M208.7,46.9V45h1.7c0.7,0,1.1,0.5,1.1,1c0,0.5-0.3,1-1.1,1H208.7z"/>
	<rect x="214.9" y="43.9" width="1.2" height="6.2"/>
	<path d="M221.9,49c-1.6,0-2.2-1.1-2.2-2.1c0-1.1,0.6-2.2,2.2-2.2c0.5,0,1.1,0.2,1.5,0.6l0.8-0.8c-0.6-0.6-1.5-1-2.3-1
		c-2.3,0-3.3,1.7-3.3,3.3c0,1.6,1,3.2,3.3,3.2c0.9,0,1.7-0.3,2.4-0.9l-0.8-0.8C223.1,48.8,222.4,49,221.9,49z"/>
	<path d="M228.3,43.9l-2.8,6.2h1.3l0.5-1.2h3.3l0.5,1.2h1.3l-2.8-6.2H228.3z M227.8,47.7L229,45l1.2,2.7H227.8z"/>
	<path d="M237.2,49c-1.6,0-2.2-1.1-2.2-2.1c0-1.1,0.6-2.2,2.2-2.2c0.5,0,1.1,0.2,1.5,0.6l0.8-0.8c-0.6-0.6-1.5-1-2.3-1
		c-2.3,0-3.3,1.7-3.3,3.3c0,1.6,1,3.2,3.3,3.2c0.9,0,1.7-0.3,2.4-0.9l-0.8-0.8C238.4,48.8,237.8,49,237.2,49z"/>
	<rect x="241.8" y="43.9" width="1.2" height="6.2"/>
	<polygon points="248.4,43.1 249.2,43.1 250.3,41.8 250.3,41.9 248.8,41.9 248.4,43 	"/>
	<path d="M248.7,43.6c-2.2,0-3.2,1.7-3.2,3.3c0,1.7,1,3.2,3.2,3.2c2.2,0,3.2-1.6,3.2-3.3C251.9,45.3,250.9,43.6,248.7,43.6z
		 M248.7,49.1c-1.5,0-2-1.1-2.1-2.1c0-1.1,0.6-2.3,2.1-2.3c1.5,0,2.1,1.2,2.1,2.2C250.7,48,250.2,49.1,248.7,49.1z"/>
	<polygon points="258.4,47.6 255.3,43.9 254.5,43.9 254.5,50 255.7,50 255.7,45.8 258.8,50 258.8,50 259.5,50 259.5,43.9 
		258.4,43.9 	"/>
	<path d="M267.8,43.9c-0.8,0-1.8,0-2.5,0V50c0.8,0,1.8,0,2.5,0c2.2,0,3.2-1.5,3.1-3.1C271,45.3,270,43.9,267.8,43.9z M267.8,48.9
		h-1.4V45h1.4c1.4,0,1.9,0.9,2,1.9C269.8,47.9,269.3,48.9,267.8,48.9z"/>
	<rect x="273.4" y="43.9" width="1.2" height="6.2"/>
	<path d="M279.9,47.3h1.5v1.2c-0.4,0.4-0.9,0.5-1.3,0.5c-1.6,0-2.1-1.1-2.1-2.1c0-1.3,0.8-2.3,2.2-2.3c0.5,0,1.2,0.2,1.6,0.6
		l0.7-0.8c-0.6-0.6-1.5-1-2.3-1c-2.2,0-3.3,1.6-3.3,3.4c0,1.7,0.9,3.2,3.3,3.2c1.1,0,2.1-0.4,2.5-1.1v-2.5h-2.7V47.3z"/>
	<rect x="285.3" y="43.9" width="1.2" height="6.2"/>
	<path d="M288.8,44.6h1.9V50h1.2v-5.4h2.3v-0.8c-1.9,0-3.5,0-5.4,0V44.6z"/>
	<path d="M298.4,43.9l-2.8,6.2h1.3l0.5-1.2h3.3l0.5,1.2h1.3l-2.8-6.2H298.4z M297.9,47.7L299,45l1.2,2.7H297.9z"/>
	<polygon points="305.7,43.9 304.6,43.9 304.6,50 309.2,50 309.2,48.9 305.7,48.9 	"/>
	<path d="M41.4,16.8c-0.3,0-0.6,0.1-0.8,0.2L29,2.6c0.3-0.3,0.4-0.6,0.4-1.1c0-0.9-0.7-1.6-1.6-1.6c-0.9,0-1.6,0.7-1.6,1.6
		c0,0.2,0,0.3,0.1,0.5L13.5,8.6c-0.3-0.4-0.7-0.7-1.3-0.7c-0.9,0-1.6,0.7-1.6,1.6c0,0.7,0.5,1.3,1.1,1.5L8.4,34.4
		c-0.9,0-1.5,0.7-1.5,1.6c0,0.9,0.7,1.6,1.6,1.6c0.3,0,0.6-0.1,0.9-0.3l18.5,20.2c-0.2,0.3-0.4,0.6-0.4,1c0,0.9,0.7,1.6,1.6,1.6
		c0.9,0,1.6-0.7,1.6-1.6c0-0.8-0.6-1.4-1.3-1.5l0.3-16.8c0.8-0.1,1.4-0.8,1.4-1.5c0-0.5-0.2-0.9-0.6-1.2l10.6-17.5
		c0.2,0.1,0.4,0.1,0.6,0.1c0.9,0,1.6-0.7,1.6-1.6C43,17.5,42.3,16.8,41.4,16.8z M27.8,3.1c0.3,0,0.6-0.1,0.8-0.2l11.7,14.4
		c-0.3,0.3-0.4,0.6-0.4,1.1c0,0.2,0,0.4,0.1,0.6L21.5,30.6c-0.2-0.2-0.4-0.3-0.6-0.4l6.8-27.1C27.7,3.1,27.8,3.1,27.8,3.1z
		 M8.8,34.4L12.2,11c0.9,0,1.5-0.7,1.5-1.6c0-0.2,0-0.3-0.1-0.5l12.9-6.5C26.7,2.7,27,2.9,27.2,3l-6.8,27.1c0,0-0.1,0-0.2,0
		c-0.9,0-1.6,0.7-1.6,1.6c0,0.1,0,0.2,0,0.3l-9,3.3C9.6,34.8,9.2,34.5,8.8,34.4z M28,57.2L9.6,36.9c0.2-0.3,0.3-0.6,0.3-1
		c0-0.1,0-0.2,0-0.3l9-3.3c0.3,0.5,0.8,0.8,1.4,0.8c0.1,0,0.2,0,0.3,0L28.2,57C28.2,57.1,28.1,57.1,28,57.2z M28.7,56.9
		C28.7,56.9,28.7,56.9,28.7,56.9L21,33c0.1-0.1,0.3-0.2,0.4-0.3l6.6,5c-0.1,0.2-0.2,0.5-0.2,0.8c0,0.8,0.6,1.4,1.3,1.5L28.7,56.9z
		 M29.9,37.1C29.7,37,29.5,37,29.3,37c-0.4,0-0.8,0.2-1.1,0.4l-6.6-5c0.1-0.2,0.2-0.5,0.2-0.8c0-0.2,0-0.4-0.1-0.6l18.5-11.6
		c0.1,0.1,0.1,0.1,0.2,0.2L29.9,37.1z"/>
</g>
</svg>
