<?xml version="1.0" encoding="utf-8"?>
<!-- Generator: Adobe Illustrator 17.0.0, SVG Export Plug-In . SVG Version: 6.00 Build 0)  -->
<!DOCTYPE svg PUBLIC "-//W3C//DTD SVG 1.1//EN" "http://www.w3.org/Graphics/SVG/1.1/DTD/svg11.dtd">
<svg version="1.1" id="Layer_1" xmlns="http://www.w3.org/2000/svg" xmlns:xlink="http://www.w3.org/1999/xlink" x="0px" y="0px"
	 width="1024px" height="71.999px" viewBox="0 0 1024 71.999" enable-background="new 0 0 1024 71.999" xml:space="preserve">
<g>
	<path fill="#EB5F69" d="M73.036,4.959c0,2.705-2.3,5.004-5.005,5.004s-5.004-2.299-5.004-5.004c0-2.75,2.299-4.959,5.004-4.959
		S73.035,2.209,73.036,4.959z"/>
	<path fill="#EB5F69" d="M95.335,20.24c0,2.705-2.3,5.004-5.005,5.004s-5.004-2.299-5.004-5.004c0-2.75,2.299-4.959,5.004-4.959
		S95.335,17.49,95.335,20.24z"/>
	<path fill="#EB5F69" d="M34.529,40.467c0,2.706-2.3,5.005-5.005,5.005s-5.004-2.3-5.004-5.005c0-2.75,2.299-4.959,5.004-4.959
		S34.529,37.717,34.529,40.467z"/>
	<path fill="#EB5F69" d="M73.036,51.591c0,2.705-2.3,5.004-5.005,5.004s-5.004-2.299-5.004-5.004c0-2.75,2.299-4.959,5.004-4.959
		S73.035,48.841,73.036,51.591z"/>
	<path fill="#EB5F69" d="M52.618,64.029c0,2.705-2.298,5.004-5.004,5.004s-5.005-2.299-5.005-5.004c0-2.75,2.3-4.959,5.005-4.959
		S52.62,61.279,52.618,64.029z"/>
	<path fill="#EB5F69" d="M100.339,64.029c0,2.705-2.299,5.004-5.004,5.004c-2.706,0-5.005-2.299-5.005-5.004
		c0-2.75,2.3-4.959,5.005-4.959S100.339,61.279,100.339,64.029z"/>
</g>
<g>
	<path fill="#EB5F69" d="M307.69,1.712c1.59,1.591,1.712,3.426,0.122,5.016l-28.325,28.325c-1.59,1.591-3.547,1.591-5.138,0
		c-1.59-1.59-1.59-3.548,0-5.138L302.674,1.59C304.264,0,306.099,0.122,307.69,1.712z"/>
	<path fill="#EB5F69" d="M244.779,6.728c-1.591-1.59-1.469-3.425,0.122-5.016c1.59-1.59,3.425-1.712,5.016-0.122l28.325,28.325
		c1.59,1.59,1.59,3.548,0,5.138c-1.59,1.591-3.548,1.591-5.138,0L244.779,6.728z"/>
	<path fill="#EB5F69" d="M244.779,42.481c-1.591-1.59-1.469-3.426,0.122-5.016c1.59-1.59,3.425-1.712,5.016-0.122l28.325,28.325
		c1.59,1.59,1.59,3.548,0,5.138c-1.59,1.591-3.548,1.591-5.138,0L244.779,42.481z"/>
	<path fill="#EB5F69" d="M307.69,37.465c1.59,1.591,1.712,3.426,0.122,5.016l-28.325,28.325c-1.59,1.591-3.547,1.591-5.138,0
		c-1.59-1.59-1.59-3.547,0-5.138l28.325-28.325C304.264,35.752,306.099,35.875,307.69,37.465z"/>
</g>
<g>
	<path fill="#EB5F69" d="M202.064,1.712c1.59,1.591,1.712,3.426,0.122,5.016l-28.325,28.325c-1.59,1.591-3.547,1.591-5.138,0
		c-1.59-1.59-1.59-3.548,0-5.138L197.048,1.59C198.638,0,200.474,0.122,202.064,1.712z"/>
	<path fill="#EB5F69" d="M139.152,6.728c-1.591-1.59-1.469-3.425,0.122-5.016c1.59-1.59,3.425-1.712,5.016-0.122l28.325,28.325
		c1.59,1.59,1.59,3.548,0,5.138c-1.59,1.591-3.548,1.591-5.138,0L139.152,6.728z"/>
	<path fill="#EB5F69" d="M139.152,42.481c-1.591-1.59-1.469-3.426,0.122-5.016c1.59-1.59,3.425-1.712,5.016-0.122l28.325,28.325
		c1.59,1.59,1.59,3.548,0,5.138c-1.59,1.591-3.548,1.591-5.138,0L139.152,42.481z"/>
	<path fill="#EB5F69" d="M202.064,37.465c1.59,1.591,1.712,3.426,0.122,5.016l-28.325,28.325c-1.59,1.591-3.547,1.591-5.138,0
		c-1.59-1.59-1.59-3.547,0-5.138l28.325-28.325C198.638,35.752,200.474,35.875,202.064,37.465z"/>
</g>
<g>
	<path fill="#EB5F69" d="M-2.202,1.712c1.59,1.591,1.712,3.426,0.122,5.016l-28.325,28.325c-1.59,1.591-3.547,1.591-5.138,0
		c-1.59-1.59-1.59-3.548,0-5.138L-7.218,1.59C-5.627,0-3.792,0.122-2.202,1.712z"/>
	<path fill="#EB5F69" d="M-65.113,6.728c-1.591-1.59-1.469-3.425,0.122-5.016c1.59-1.59,3.425-1.712,5.016-0.122l28.325,28.325
		c1.59,1.59,1.59,3.548,0,5.138c-1.59,1.591-3.548,1.591-5.138,0L-65.113,6.728z"/>
	<path fill="#EB5F69" d="M-65.113,42.481c-1.591-1.59-1.469-3.426,0.122-5.016c1.59-1.59,3.425-1.712,5.016-0.122l28.325,28.325
		c1.59,1.59,1.59,3.548,0,5.138c-1.59,1.591-3.548,1.591-5.138,0L-65.113,42.481z"/>
	<path fill="#EB5F69" d="M-2.202,37.465c1.59,1.591,1.712,3.426,0.122,5.016l-28.325,28.325c-1.59,1.591-3.547,1.591-5.138,0
		c-1.59-1.59-1.59-3.547,0-5.138l28.325-28.325C-5.627,35.752-3.792,35.875-2.202,37.465z"/>
</g>
<g>
	<path fill="#EB5F69" d="M728.036,4.959c0,2.705-2.3,5.004-5.005,5.004s-5.004-2.299-5.004-5.004c0-2.75,2.299-4.959,5.004-4.959
		S728.035,2.209,728.036,4.959z"/>
	<path fill="#EB5F69" d="M750.334,20.24c0,2.705-2.3,5.004-5.005,5.004s-5.004-2.299-5.004-5.004c0-2.75,2.299-4.959,5.004-4.959
		S750.334,17.49,750.334,20.24z"/>
	<path fill="#EB5F69" d="M689.529,40.467c0,2.706-2.3,5.005-5.005,5.005s-5.004-2.3-5.004-5.005c0-2.75,2.299-4.959,5.004-4.959
		S689.529,37.717,689.529,40.467z"/>
	<path fill="#EB5F69" d="M728.036,51.591c0,2.705-2.3,5.004-5.005,5.004s-5.004-2.299-5.004-5.004c0-2.75,2.299-4.959,5.004-4.959
		S728.035,48.841,728.036,51.591z"/>
	<path fill="#EB5F69" d="M707.618,64.029c0,2.705-2.298,5.004-5.004,5.004s-5.005-2.299-5.005-5.004c0-2.75,2.3-4.959,5.005-4.959
		S707.62,61.279,707.618,64.029z"/>
	<path fill="#EB5F69" d="M755.339,64.029c0,2.705-2.299,5.004-5.004,5.004c-2.706,0-5.005-2.299-5.005-5.004
		c0-2.75,2.3-4.959,5.005-4.959C753.039,59.07,755.339,61.279,755.339,64.029z"/>
</g>
<g>
	<path fill="#EB5F69" d="M962.69,1.712c1.59,1.591,1.712,3.426,0.122,5.016l-28.325,28.325c-1.59,1.591-3.547,1.591-5.138,0
		c-1.59-1.59-1.59-3.548,0-5.138L957.674,1.59C959.264,0,961.099,0.122,962.69,1.712z"/>
	<path fill="#EB5F69" d="M899.779,6.728c-1.591-1.59-1.469-3.425,0.122-5.016c1.59-1.59,3.425-1.712,5.016-0.122l28.325,28.325
		c1.59,1.59,1.59,3.548,0,5.138c-1.59,1.591-3.548,1.591-5.138,0L899.779,6.728z"/>
	<path fill="#EB5F69" d="M899.779,42.481c-1.591-1.59-1.469-3.426,0.122-5.016c1.59-1.59,3.425-1.712,5.016-0.122l28.325,28.325
		c1.59,1.59,1.59,3.548,0,5.138c-1.59,1.591-3.548,1.591-5.138,0L899.779,42.481z"/>
	<path fill="#EB5F69" d="M962.69,37.465c1.59,1.591,1.712,3.426,0.122,5.016l-28.325,28.325c-1.59,1.591-3.547,1.591-5.138,0
		c-1.59-1.59-1.59-3.547,0-5.138l28.325-28.325C959.264,35.752,961.099,35.875,962.69,37.465z"/>
</g>
<g>
	<path fill="#EB5F69" d="M857.063,1.712c1.59,1.591,1.712,3.426,0.122,5.016L828.86,35.053c-1.59,1.591-3.547,1.591-5.138,0
		c-1.59-1.59-1.59-3.548,0-5.138L852.047,1.59C853.638,0,855.474,0.122,857.063,1.712z"/>
	<path fill="#EB5F69" d="M794.152,6.728c-1.591-1.59-1.469-3.425,0.122-5.016c1.59-1.59,3.425-1.712,5.016-0.122l28.325,28.325
		c1.59,1.59,1.59,3.548,0,5.138c-1.59,1.591-3.548,1.591-5.138,0L794.152,6.728z"/>
	<path fill="#EB5F69" d="M794.152,42.481c-1.591-1.59-1.469-3.426,0.122-5.016c1.59-1.59,3.425-1.712,5.016-0.122l28.325,28.325
		c1.59,1.59,1.59,3.548,0,5.138c-1.59,1.591-3.548,1.591-5.138,0L794.152,42.481z"/>
	<path fill="#EB5F69" d="M857.063,37.465c1.59,1.591,1.712,3.426,0.122,5.016L828.86,70.806c-1.59,1.591-3.547,1.591-5.138,0
		c-1.59-1.59-1.59-3.547,0-5.138l28.325-28.325C853.638,35.752,855.474,35.875,857.063,37.465z"/>
</g>
<g>
	<path fill="#EB5F69" d="M1040.251,4.959c0,2.705-2.3,5.004-5.005,5.004s-5.004-2.299-5.004-5.004c0-2.75,2.299-4.959,5.004-4.959
		C1037.952,0,1040.251,2.209,1040.251,4.959z"/>
	<path fill="#EB5F69" d="M1062.551,20.24c0,2.705-2.3,5.004-5.005,5.004s-5.004-2.299-5.004-5.004c0-2.75,2.299-4.959,5.004-4.959
		C1060.25,15.281,1062.549,17.49,1062.551,20.24z"/>
	<path fill="#EB5F69" d="M1001.745,40.467c0,2.706-2.3,5.005-5.005,5.005s-5.004-2.3-5.004-5.005c0-2.75,2.299-4.959,5.004-4.959
		S1001.745,37.717,1001.745,40.467z"/>
	<path fill="#EB5F69" d="M1040.251,51.591c0,2.705-2.3,5.004-5.005,5.004s-5.004-2.299-5.004-5.004c0-2.75,2.299-4.959,5.004-4.959
		C1037.952,46.632,1040.251,48.841,1040.251,51.591z"/>
	<path fill="#EB5F69" d="M1019.834,64.029c0,2.705-2.298,5.004-5.004,5.004s-5.005-2.299-5.005-5.004c0-2.75,2.3-4.959,5.005-4.959
		S1019.834,61.279,1019.834,64.029z"/>
	<path fill="#EB5F69" d="M1067.553,64.029c0,2.705-2.299,5.004-5.004,5.004c-2.706,0-5.005-2.299-5.005-5.004
		c0-2.75,2.3-4.959,5.005-4.959C1065.255,59.07,1067.554,61.279,1067.553,64.029z"/>
</g>
</svg>
