<?xml version="1.0" encoding="utf-8"?>
<!-- Generator: Adobe Illustrator 17.0.0, SVG Export Plug-In . SVG Version: 6.00 Build 0)  -->
<!DOCTYPE svg PUBLIC "-//W3C//DTD SVG 1.1//EN" "http://www.w3.org/Graphics/SVG/1.1/DTD/svg11.dtd">
<svg version="1.1" id="Layer_1" xmlns="http://www.w3.org/2000/svg" xmlns:xlink="http://www.w3.org/1999/xlink" x="0px" y="0px"
	 width="1024px" height="71.543px" viewBox="0 94.858 1024 71.543" enable-background="new 0 94.858 1024 71.543"
	 xml:space="preserve">
<g>
	<path fill="#DBE5D8" d="M73.036,99.36c0,2.705-2.3,5.004-5.005,5.004s-5.004-2.299-5.004-5.004c0-2.75,2.299-4.959,5.004-4.959
		S73.035,96.61,73.036,99.36z"/>
	<path fill="#DBE5D8" d="M95.335,114.641c0,2.705-2.3,5.004-5.005,5.004s-5.004-2.299-5.004-5.004c0-2.75,2.299-4.959,5.004-4.959
		S95.335,111.891,95.335,114.641z"/>
	<path fill="#DBE5D8" d="M34.529,134.868c0,2.706-2.3,5.005-5.005,5.005s-5.004-2.3-5.004-5.005c0-2.75,2.299-4.959,5.004-4.959
		S34.529,132.118,34.529,134.868z"/>
	<path fill="#DBE5D8" d="M73.036,145.992c0,2.705-2.3,5.004-5.005,5.004s-5.004-2.299-5.004-5.004c0-2.75,2.299-4.959,5.004-4.959
		S73.035,143.242,73.036,145.992z"/>
	<path fill="#DBE5D8" d="M52.618,158.43c0,2.705-2.298,5.004-5.004,5.004s-5.005-2.299-5.005-5.004c0-2.75,2.3-4.959,5.005-4.959
		S52.62,155.68,52.618,158.43z"/>
	<path fill="#DBE5D8" d="M100.339,158.43c0,2.705-2.299,5.004-5.004,5.004c-2.706,0-5.005-2.299-5.005-5.004
		c0-2.75,2.3-4.959,5.005-4.959S100.339,155.68,100.339,158.43z"/>
</g>
<g>
	<path fill="#DBE5D8" d="M307.69,96.113c1.59,1.591,1.712,3.426,0.122,5.016l-28.325,28.325c-1.59,1.591-3.547,1.591-5.138,0
		c-1.59-1.59-1.59-3.548,0-5.138l28.325-28.325C304.264,94.401,306.099,94.523,307.69,96.113z"/>
	<path fill="#DBE5D8" d="M244.779,101.129c-1.591-1.59-1.469-3.425,0.122-5.016c1.59-1.59,3.425-1.712,5.016-0.122l28.325,28.325
		c1.59,1.59,1.59,3.548,0,5.138c-1.59,1.591-3.548,1.591-5.138,0L244.779,101.129z"/>
	<path fill="#DBE5D8" d="M244.779,136.882c-1.591-1.59-1.469-3.426,0.122-5.016c1.59-1.59,3.425-1.712,5.016-0.122l28.325,28.325
		c1.59,1.59,1.59,3.548,0,5.138c-1.59,1.591-3.548,1.591-5.138,0L244.779,136.882z"/>
	<path fill="#DBE5D8" d="M307.69,131.866c1.59,1.591,1.712,3.426,0.122,5.016l-28.325,28.325c-1.59,1.591-3.547,1.591-5.138,0
		c-1.59-1.59-1.59-3.547,0-5.138l28.325-28.325C304.264,130.153,306.099,130.276,307.69,131.866z"/>
</g>
<g>
	<path fill="#DBE5D8" d="M202.064,96.113c1.59,1.591,1.712,3.426,0.122,5.016l-28.325,28.325c-1.59,1.591-3.547,1.591-5.138,0
		c-1.59-1.59-1.59-3.548,0-5.138l28.325-28.325C198.638,94.401,200.474,94.523,202.064,96.113z"/>
	<path fill="#DBE5D8" d="M139.152,101.129c-1.591-1.59-1.469-3.425,0.122-5.016c1.59-1.59,3.425-1.712,5.016-0.122l28.325,28.325
		c1.59,1.59,1.59,3.548,0,5.138c-1.59,1.591-3.548,1.591-5.138,0L139.152,101.129z"/>
	<path fill="#DBE5D8" d="M139.152,136.882c-1.591-1.59-1.469-3.426,0.122-5.016c1.59-1.59,3.425-1.712,5.016-0.122l28.325,28.325
		c1.59,1.59,1.59,3.548,0,5.138c-1.59,1.591-3.548,1.591-5.138,0L139.152,136.882z"/>
	<path fill="#DBE5D8" d="M202.064,131.866c1.59,1.591,1.712,3.426,0.122,5.016l-28.325,28.325c-1.59,1.591-3.547,1.591-5.138,0
		c-1.59-1.59-1.59-3.547,0-5.138l28.325-28.325C198.638,130.153,200.474,130.276,202.064,131.866z"/>
</g>
<g>
	<path fill="#DBE5D8" d="M-2.202,96.113c1.59,1.591,1.712,3.426,0.122,5.016l-28.325,28.325c-1.59,1.591-3.547,1.591-5.138,0
		c-1.59-1.59-1.59-3.548,0-5.138l28.325-28.325C-5.627,94.401-3.792,94.523-2.202,96.113z"/>
	<path fill="#DBE5D8" d="M-65.113,101.129c-1.591-1.59-1.469-3.425,0.122-5.016c1.59-1.59,3.425-1.712,5.016-0.122l28.325,28.325
		c1.59,1.59,1.59,3.548,0,5.138c-1.59,1.591-3.548,1.591-5.138,0L-65.113,101.129z"/>
	<path fill="#DBE5D8" d="M-65.113,136.882c-1.591-1.59-1.469-3.426,0.122-5.016c1.59-1.59,3.425-1.712,5.016-0.122l28.325,28.325
		c1.59,1.59,1.59,3.548,0,5.138c-1.59,1.591-3.548,1.591-5.138,0L-65.113,136.882z"/>
	<path fill="#DBE5D8" d="M-2.202,131.866c1.59,1.591,1.712,3.426,0.122,5.016l-28.325,28.325c-1.59,1.591-3.547,1.591-5.138,0
		c-1.59-1.59-1.59-3.547,0-5.138l28.325-28.325C-5.627,130.153-3.792,130.276-2.202,131.866z"/>
</g>
<g>
	<path fill="#DBE5D8" d="M728.036,99.36c0,2.705-2.3,5.004-5.005,5.004s-5.004-2.299-5.004-5.004c0-2.75,2.299-4.959,5.004-4.959
		S728.035,96.61,728.036,99.36z"/>
	<path fill="#DBE5D8" d="M750.334,114.641c0,2.705-2.3,5.004-5.005,5.004s-5.004-2.299-5.004-5.004c0-2.75,2.299-4.959,5.004-4.959
		S750.334,111.891,750.334,114.641z"/>
	<path fill="#DBE5D8" d="M689.529,134.868c0,2.706-2.3,5.005-5.005,5.005s-5.004-2.3-5.004-5.005c0-2.75,2.299-4.959,5.004-4.959
		S689.529,132.118,689.529,134.868z"/>
	<path fill="#DBE5D8" d="M728.036,145.992c0,2.705-2.3,5.004-5.005,5.004s-5.004-2.299-5.004-5.004c0-2.75,2.299-4.959,5.004-4.959
		S728.035,143.242,728.036,145.992z"/>
	<path fill="#DBE5D8" d="M707.618,158.43c0,2.705-2.298,5.004-5.004,5.004s-5.005-2.299-5.005-5.004c0-2.75,2.3-4.959,5.005-4.959
		S707.62,155.68,707.618,158.43z"/>
	<path fill="#DBE5D8" d="M755.339,158.43c0,2.705-2.299,5.004-5.004,5.004c-2.706,0-5.005-2.299-5.005-5.004
		c0-2.75,2.3-4.959,5.005-4.959C753.039,153.471,755.339,155.68,755.339,158.43z"/>
</g>
<g>
	<path fill="#DBE5D8" d="M962.69,96.113c1.59,1.591,1.712,3.426,0.122,5.016l-28.325,28.325c-1.59,1.591-3.547,1.591-5.138,0
		c-1.59-1.59-1.59-3.548,0-5.138l28.325-28.325C959.264,94.401,961.099,94.523,962.69,96.113z"/>
	<path fill="#DBE5D8" d="M899.779,101.129c-1.591-1.59-1.469-3.425,0.122-5.016c1.59-1.59,3.425-1.712,5.016-0.122l28.325,28.325
		c1.59,1.59,1.59,3.548,0,5.138c-1.59,1.591-3.548,1.591-5.138,0L899.779,101.129z"/>
	<path fill="#DBE5D8" d="M899.779,136.882c-1.591-1.59-1.469-3.426,0.122-5.016c1.59-1.59,3.425-1.712,5.016-0.122l28.325,28.325
		c1.59,1.59,1.59,3.548,0,5.138c-1.59,1.591-3.548,1.591-5.138,0L899.779,136.882z"/>
	<path fill="#DBE5D8" d="M962.69,131.866c1.59,1.591,1.712,3.426,0.122,5.016l-28.325,28.325c-1.59,1.591-3.547,1.591-5.138,0
		c-1.59-1.59-1.59-3.547,0-5.138l28.325-28.325C959.264,130.153,961.099,130.276,962.69,131.866z"/>
</g>
<g>
	<path fill="#DBE5D8" d="M857.063,96.113c1.59,1.591,1.712,3.426,0.122,5.016l-28.325,28.325c-1.59,1.591-3.547,1.591-5.138,0
		c-1.59-1.59-1.59-3.548,0-5.138l28.325-28.325C853.638,94.401,855.474,94.523,857.063,96.113z"/>
	<path fill="#DBE5D8" d="M794.152,101.129c-1.591-1.59-1.469-3.425,0.122-5.016c1.59-1.59,3.425-1.712,5.016-0.122l28.325,28.325
		c1.59,1.59,1.59,3.548,0,5.138c-1.59,1.591-3.548,1.591-5.138,0L794.152,101.129z"/>
	<path fill="#DBE5D8" d="M794.152,136.882c-1.591-1.59-1.469-3.426,0.122-5.016c1.59-1.59,3.425-1.712,5.016-0.122l28.325,28.325
		c1.59,1.59,1.59,3.548,0,5.138c-1.59,1.591-3.548,1.591-5.138,0L794.152,136.882z"/>
	<path fill="#DBE5D8" d="M857.063,131.866c1.59,1.591,1.712,3.426,0.122,5.016l-28.325,28.325c-1.59,1.591-3.547,1.591-5.138,0
		c-1.59-1.59-1.59-3.547,0-5.138l28.325-28.325C853.638,130.153,855.474,130.276,857.063,131.866z"/>
</g>
<g>
	<path fill="#DBE5D8" d="M1040.251,99.36c0,2.705-2.3,5.004-5.005,5.004s-5.004-2.299-5.004-5.004c0-2.75,2.299-4.959,5.004-4.959
		C1037.952,94.401,1040.251,96.61,1040.251,99.36z"/>
	<path fill="#DBE5D8" d="M1062.551,114.641c0,2.705-2.3,5.004-5.005,5.004s-5.004-2.299-5.004-5.004c0-2.75,2.299-4.959,5.004-4.959
		C1060.25,109.682,1062.549,111.891,1062.551,114.641z"/>
	<path fill="#DBE5D8" d="M1001.745,134.868c0,2.706-2.3,5.005-5.005,5.005s-5.004-2.3-5.004-5.005c0-2.75,2.299-4.959,5.004-4.959
		S1001.745,132.118,1001.745,134.868z"/>
	<path fill="#DBE5D8" d="M1040.251,145.992c0,2.705-2.3,5.004-5.005,5.004s-5.004-2.299-5.004-5.004c0-2.75,2.299-4.959,5.004-4.959
		C1037.952,141.033,1040.251,143.242,1040.251,145.992z"/>
	<path fill="#DBE5D8" d="M1019.834,158.43c0,2.705-2.298,5.004-5.004,5.004s-5.005-2.299-5.005-5.004c0-2.75,2.3-4.959,5.005-4.959
		S1019.834,155.68,1019.834,158.43z"/>
	<path fill="#DBE5D8" d="M1067.553,158.43c0,2.705-2.299,5.004-5.004,5.004c-2.706,0-5.005-2.299-5.005-5.004
		c0-2.75,2.3-4.959,5.005-4.959C1065.255,153.471,1067.554,155.68,1067.553,158.43z"/>
</g>
</svg>
