<?xml version="1.0" encoding="utf-8"?>
<!-- Generator: Adobe Illustrator 17.0.0, SVG Export Plug-In . SVG Version: 6.00 Build 0)  -->
<!DOCTYPE svg PUBLIC "-//W3C//DTD SVG 1.1//EN" "http://www.w3.org/Graphics/SVG/1.1/DTD/svg11.dtd">
<svg version="1.1" id="Layer_1" xmlns="http://www.w3.org/2000/svg" xmlns:xlink="http://www.w3.org/1999/xlink" x="0px" y="0px"
	 width="1024px" height="563px" viewBox="0 0 1024 563" enable-background="new 0 0 1024 563" xml:space="preserve">
<g>
	<path fill="#A8D9DB" d="M66.627,186.801c0-2.705,2.209-5.004,4.959-5.004c2.705,0,5.004,2.299,5.004,5.004
		c0,2.705-2.299,5.005-5.004,5.005C68.836,191.805,66.627,189.506,66.627,186.801z"/>
	<path fill="#467C9D" d="M81.908,209.099c0-2.705,2.209-5.004,4.959-5.004c2.705,0,5.004,2.299,5.004,5.004
		c0,2.705-2.299,5.005-5.004,5.005C84.117,214.104,81.908,211.804,81.908,209.099z"/>
	<path fill="#EA5F69" d="M102.135,148.294c0-2.705,2.209-5.004,4.959-5.004c2.705,0,5.005,2.299,5.005,5.004
		c0,2.705-2.299,5.005-5.005,5.005C104.344,153.299,102.135,150.999,102.135,148.294z"/>
	<path fill="#DBE5D8" d="M113.259,186.801c0-2.705,2.209-5.004,4.959-5.004c2.705,0,5.004,2.299,5.004,5.004
		c0,2.705-2.299,5.005-5.004,5.005C115.468,191.805,113.259,189.506,113.259,186.801z"/>
	<path fill="#F9F9F9" d="M125.697,166.384c0-2.705,2.209-5.005,4.959-5.005c2.705,0,5.004,2.299,5.004,5.005
		s-2.299,5.004-5.004,5.004C127.906,171.389,125.697,169.089,125.697,166.384z"/>
	<path fill="#E53946" d="M125.697,214.104c0-2.705,2.209-5.005,4.959-5.005c2.705,0,5.004,2.299,5.004,5.005
		c0,2.705-2.299,5.004-5.004,5.004C127.906,219.108,125.697,216.809,125.697,214.104z"/>
</g>
<path fill="#F9F9F9" d="M668.471,246.483c2.178,1.325,2.805,3.313,1.48,5.491l-17.924,29.58c-1.325,2.178-3.481,2.703-5.659,1.378
	c-2.178-1.325-2.703-3.481-1.378-5.659l17.924-29.58C664.239,245.515,666.293,245.158,668.471,246.483z"/>
<path fill="#467C9D" d="M563.004,316.027c0-2.549,1.373-4.118,3.922-4.118h34.766c2.549,0,4.118,1.569,4.118,4.118
	c0,2.549-1.569,4.118-4.118,4.118h-34.766C564.377,320.145,563.004,318.576,563.004,316.027z"/>
<path fill="#DBE5D8" d="M566.841,249.655c0-2.549,1.373-4.118,3.922-4.118h13.644c2.549,0,4.118,1.569,4.118,4.118
	c0,2.549-1.569,4.118-4.118,4.118h-13.644C568.214,253.774,566.841,252.205,566.841,249.655z"/>
<path fill="#DBE5D8" d="M628.749,249.655c0-2.549,1.373-4.118,3.922-4.118h33.852c2.549,0,4.118,1.569,4.118,4.118
	c0,2.549-1.569,4.118-4.118,4.118h-33.852C630.122,253.774,628.749,252.205,628.749,249.655z"/>
<path fill="#F9F9F9" d="M397.472,246.947c0,2.162-2.048,4.21-4.324,4.21h-31.632v24.578h29.129c2.276,0,4.324,2.048,4.324,4.324
	c0,2.048-2.048,4.324-4.324,4.324h-29.016v37.208h-8.875v-79.082h40.393C395.424,242.509,397.472,244.671,397.472,246.947z"/>
<path fill="#F9F9F9" d="M466.875,323.07c-2.162,0.455-4.665-0.797-5.348-3.413l-4.892-20.141h-25.944l-4.892,20.141
	c-0.683,2.844-2.844,3.868-5.121,3.413c-2.844-0.569-4.095-2.844-3.527-5.348l17.637-75.212h17.523l17.864,75.212
	C470.744,320.225,469.151,322.614,466.875,323.07z M441.729,251.157l-9.103,39.598h21.961l-8.989-39.598H441.729z"/>
<path fill="#F9F9F9" d="M531.762,280.627c7.054-3.072,8.42-12.175,8.42-16.157v-1.252c0-7.055-2.844-20.71-20.709-20.71H495.92
	v79.082h24.123c17.751,0,21.392-13.996,21.392-20.937v-2.731C541.434,293.827,539.5,284.269,531.762,280.627z M504.681,251.157
	h14.793c4.096,0,11.948,1.365,11.948,12.062v1.024c0,10.695-6.372,12.403-11.265,12.403h-15.475V251.157z M532.673,300.312
	c0,10.81-8.421,12.517-12.63,12.517h-15.361v-27.422h15.93c4.779,0,12.062,1.706,12.062,12.629V300.312z"/>
<path fill="#A8D9DB" d="M649,313.434c2.162,0,4.216,1.621,4.216,4.108c0,2.162-2.054,4.216-4.216,4.216
	c-17.188,0-21.62-13.296-21.62-20.755c0-2.162,1.621-4.216,4.108-4.216c2.162,0,4.216,2.054,4.216,4.216
	C635.704,311.597,645.001,313.434,649,313.434z"/>
<path fill="#E53946" d="M648.46,283.725c-2.162,0-4.216-1.621-4.216-4.108c0-2.162,2.054-4.216,4.216-4.216
	c17.188,0,21.62,13.296,21.62,20.755c0,2.162-1.621,4.216-4.108,4.216c-2.162,0-4.216-2.054-4.216-4.216
	C661.756,285.563,652.459,283.725,648.46,283.725z"/>
<path fill="#467C9D" d="M661.756,301.003c0-2.162,2.054-4.216,4.216-4.216c2.486,0,4.108,2.054,4.108,4.216
	c0,7.459-4.432,20.755-21.62,20.755c-2.162,0-4.216-2.054-4.216-4.216c0-2.486,2.054-4.108,4.216-4.108
	C652.459,313.434,661.756,311.597,661.756,301.003z"/>
<path fill="#467C9D" d="M665.961,291.158c2.549,0,4.118,1.373,4.118,3.922v4.751c0,2.549-1.569,4.118-4.118,4.118
	c-2.549,0-4.118-1.569-4.118-4.118v-4.751C661.843,292.531,663.412,291.158,665.961,291.158z"/>
<path fill="#EA5F69" d="M584.407,245.537c2.549,0,4.118,1.373,4.118,3.922v66.568c0,2.549-1.569,4.118-4.118,4.118
	c-2.549,0-4.118-1.569-4.118-4.118v-66.568C580.289,246.91,581.858,245.537,584.407,245.537z"/>
<g>
	<path fill="#A8D9DB" d="M155.814,292.427c0-2.705,2.209-5.004,4.959-5.004c2.705,0,5.004,2.299,5.004,5.004
		c0,2.705-2.299,5.005-5.004,5.005C158.023,297.432,155.814,295.132,155.814,292.427z"/>
	<path fill="#467C9D" d="M171.095,314.726c0-2.705,2.209-5.004,4.959-5.004c2.705,0,5.004,2.299,5.004,5.004
		c0,2.705-2.299,5.005-5.004,5.005C173.304,319.73,171.095,317.431,171.095,314.726z"/>
	<path fill="#EA5F69" d="M191.321,253.921c0-2.705,2.209-5.004,4.959-5.004c2.705,0,5.005,2.299,5.005,5.004
		c0,2.705-2.299,5.005-5.005,5.005C193.53,258.925,191.321,256.626,191.321,253.921z"/>
	<path fill="#DBE5D8" d="M202.445,292.427c0-2.705,2.209-5.004,4.959-5.004c2.705,0,5.004,2.299,5.004,5.004
		c0,2.705-2.299,5.005-5.004,5.005C204.654,297.432,202.445,295.132,202.445,292.427z"/>
	<path fill="#F9F9F9" d="M214.883,272.011c0-2.705,2.209-5.005,4.959-5.005c2.705,0,5.004,2.299,5.004,5.005
		c0,2.705-2.299,5.004-5.004,5.004C217.092,277.015,214.883,274.716,214.883,272.011z"/>
	<path fill="#E53946" d="M214.883,319.73c0-2.705,2.209-5.005,4.959-5.005c2.705,0,5.004,2.299,5.004,5.005
		c0,2.705-2.299,5.004-5.004,5.004C217.092,324.735,214.883,322.435,214.883,319.73z"/>
</g>
<g>
	<path fill="#A8D9DB" d="M155.814,398.054c0-2.705,2.209-5.004,4.959-5.004c2.705,0,5.004,2.299,5.004,5.004
		c0,2.705-2.299,5.005-5.004,5.005C158.023,403.058,155.814,400.759,155.814,398.054z"/>
	<path fill="#467C9D" d="M171.095,420.352c0-2.705,2.209-5.004,4.959-5.004c2.705,0,5.004,2.299,5.004,5.004
		c0,2.705-2.299,5.005-5.004,5.005C173.304,425.357,171.095,423.057,171.095,420.352z"/>
	<path fill="#EA5F69" d="M191.321,359.547c0-2.705,2.209-5.004,4.959-5.004c2.705,0,5.005,2.299,5.005,5.004
		c0,2.705-2.299,5.005-5.005,5.005C193.53,364.552,191.321,362.252,191.321,359.547z"/>
	<path fill="#DBE5D8" d="M202.445,398.054c0-2.705,2.209-5.004,4.959-5.004c2.705,0,5.004,2.299,5.004,5.004
		c0,2.705-2.299,5.005-5.004,5.005C204.654,403.058,202.445,400.759,202.445,398.054z"/>
	<path fill="#F9F9F9" d="M214.883,377.637c0-2.705,2.209-5.005,4.959-5.005c2.705,0,5.004,2.299,5.004,5.005
		c0,2.705-2.299,5.004-5.004,5.004C217.092,382.642,214.883,380.342,214.883,377.637z"/>
	<path fill="#E53946" d="M214.883,425.357c0-2.705,2.209-5.005,4.959-5.005c2.705,0,5.004,2.299,5.004,5.005
		c0,2.705-2.299,5.004-5.004,5.004C217.092,430.361,214.883,428.062,214.883,425.357z"/>
</g>
<g>
	<path fill="#A8D9DB" d="M342.18,186.801c0-2.705,2.209-5.004,4.959-5.004c2.705,0,5.004,2.299,5.004,5.004
		c0,2.705-2.299,5.005-5.004,5.005C344.389,191.805,342.18,189.506,342.18,186.801z"/>
	<path fill="#467C9D" d="M357.462,209.099c0-2.705,2.209-5.004,4.959-5.004c2.705,0,5.004,2.299,5.004,5.004
		c0,2.705-2.299,5.005-5.004,5.005C359.671,214.104,357.462,211.804,357.462,209.099z"/>
	<path fill="#EA5F69" d="M377.688,148.294c0-2.705,2.209-5.004,4.959-5.004c2.705,0,5.005,2.299,5.005,5.004
		c0,2.705-2.299,5.005-5.005,5.005C379.897,153.299,377.688,150.999,377.688,148.294z"/>
	<path fill="#DBE5D8" d="M388.812,186.801c0-2.705,2.209-5.004,4.959-5.004c2.705,0,5.004,2.299,5.004,5.004
		c0,2.705-2.299,5.005-5.004,5.005C391.021,191.805,388.812,189.506,388.812,186.801z"/>
	<path fill="#F9F9F9" d="M401.25,166.384c0-2.705,2.209-5.005,4.959-5.005c2.705,0,5.004,2.299,5.004,5.005
		s-2.299,5.004-5.004,5.004C403.459,171.389,401.25,169.089,401.25,166.384z"/>
	<path fill="#E53946" d="M401.25,214.104c0-2.705,2.209-5.005,4.959-5.005c2.705,0,5.004,2.299,5.004,5.005
		c0,2.705-2.299,5.004-5.004,5.004C403.459,219.108,401.25,216.809,401.25,214.104z"/>
</g>
<g>
	<path fill="#A8D9DB" d="M701.765,398.054c0-2.705,2.209-5.004,4.959-5.004c2.705,0,5.004,2.299,5.004,5.004
		c0,2.705-2.299,5.005-5.004,5.005C703.974,403.058,701.765,400.759,701.765,398.054z"/>
	<path fill="#467C9D" d="M717.047,420.352c0-2.705,2.209-5.004,4.959-5.004c2.705,0,5.004,2.299,5.004,5.004
		c0,2.705-2.299,5.005-5.004,5.005C719.255,425.357,717.047,423.057,717.047,420.352z"/>
	<path fill="#EA5F69" d="M737.273,359.547c0-2.705,2.209-5.004,4.959-5.004c2.705,0,5.005,2.299,5.005,5.004
		c0,2.705-2.299,5.005-5.005,5.005C739.482,364.552,737.273,362.252,737.273,359.547z"/>
	<path fill="#DBE5D8" d="M748.397,398.054c0-2.705,2.209-5.004,4.959-5.004c2.705,0,5.004,2.299,5.004,5.004
		c0,2.705-2.299,5.005-5.004,5.005C750.606,403.058,748.397,400.759,748.397,398.054z"/>
	<path fill="#F9F9F9" d="M760.835,377.637c0-2.705,2.209-5.005,4.959-5.005c2.705,0,5.004,2.299,5.004,5.005
		c0,2.705-2.299,5.004-5.004,5.004C763.044,382.642,760.835,380.342,760.835,377.637z"/>
	<path fill="#E53946" d="M760.835,425.357c0-2.705,2.209-5.005,4.959-5.005c2.705,0,5.004,2.299,5.004,5.005
		c0,2.705-2.299,5.004-5.004,5.004C763.044,430.361,760.835,428.062,760.835,425.357z"/>
</g>
<g>
	<path fill="#A8D9DB" d="M787.642,398.054c0-2.705,2.209-5.004,4.959-5.004c2.705,0,5.004,2.299,5.004,5.004
		c0,2.705-2.299,5.005-5.004,5.005C789.851,403.058,787.642,400.759,787.642,398.054z"/>
	<path fill="#467C9D" d="M802.923,420.352c0-2.705,2.209-5.004,4.959-5.004c2.705,0,5.004,2.299,5.004,5.004
		c0,2.705-2.299,5.005-5.004,5.005C805.132,425.357,802.923,423.057,802.923,420.352z"/>
	<path fill="#EA5F69" d="M823.15,359.547c0-2.705,2.209-5.004,4.959-5.004c2.705,0,5.005,2.299,5.005,5.004
		c0,2.705-2.299,5.005-5.005,5.005C825.359,364.552,823.15,362.252,823.15,359.547z"/>
	<path fill="#DBE5D8" d="M834.273,398.054c0-2.705,2.209-5.004,4.959-5.004c2.705,0,5.004,2.299,5.004,5.004
		c0,2.705-2.299,5.005-5.004,5.005C836.482,403.058,834.273,400.759,834.273,398.054z"/>
	<path fill="#F9F9F9" d="M846.711,377.637c0-2.705,2.209-5.005,4.959-5.005c2.705,0,5.004,2.299,5.004,5.005
		c0,2.705-2.299,5.004-5.004,5.004C848.92,382.642,846.711,380.342,846.711,377.637z"/>
	<path fill="#E53946" d="M846.711,425.357c0-2.705,2.209-5.005,4.959-5.005c2.705,0,5.004,2.299,5.004,5.005
		c0,2.705-2.299,5.004-5.004,5.004C848.92,430.361,846.711,428.062,846.711,425.357z"/>
</g>
<g>
	<path fill="#F9F9F9" d="M159.77,212.491c0,2.249-1.384,3.633-3.633,3.633s-3.633-1.384-3.633-3.633v-22.31
		c0-2.249,1.384-3.46,3.633-3.46s3.633,1.211,3.633,3.46V212.491z"/>
	<path fill="#EA5F69" d="M182.581,212.491c0,2.249-1.384,3.633-3.633,3.633s-3.633-1.384-3.633-3.633v-71.141
		c0-2.249,1.384-3.46,3.633-3.46s3.633,1.211,3.633,3.46V212.491z"/>
	<path fill="#E53946" d="M178.948,145.155c-2.249,0-3.633-1.384-3.633-3.633c0-2.249,1.384-3.633,3.633-3.633h24.079
		c2.249,0,3.46,1.384,3.46,3.633c0,2.249-1.211,3.633-3.46,3.633H178.948z"/>
	<path fill="#F9F9F9" d="M206.659,212.491c0,2.249-1.384,3.633-3.633,3.633c-2.249,0-3.633-1.384-3.633-3.633v-71.141
		c0-2.249,1.384-3.46,3.633-3.46c2.249,0,3.633,1.211,3.633,3.46V212.491z"/>
	<path fill="#467C9D" d="M178.948,172.904c-2.249,0-3.633-1.384-3.633-3.633c0-2.249,1.384-3.633,3.633-3.633h48.33
		c2.249,0,3.46,1.384,3.46,3.633c0,2.249-1.211,3.633-3.46,3.633H178.948z"/>
	<path fill="#DBE5D8" d="M156.137,193.987c-2.249,0-3.633-1.384-3.633-3.633c0-2.249,1.384-3.633,3.633-3.633h71.141
		c2.249,0,3.46,1.384,3.46,3.633c0,2.249-1.211,3.633-3.46,3.633H156.137z"/>
	<path fill="#EA5F69" d="M230.738,212.491c0,2.249-1.384,3.633-3.633,3.633c-2.249,0-3.633-1.384-3.633-3.633v-43.393
		c0-2.249,1.384-3.46,3.633-3.46c2.249,0,3.633,1.211,3.633,3.46V212.491z"/>
	<path fill="#A8D9DB" d="M156.137,216.124c-2.249,0-3.633-1.384-3.633-3.633c0-2.249,1.384-3.633,3.633-3.633h71.141
		c2.249,0,3.46,1.384,3.46,3.633c0,2.249-1.211,3.633-3.46,3.633H156.137z"/>
</g>
<g>
	<path fill="#F9F9F9" d="M885.238,531.512c0,2.249-1.384,3.633-3.633,3.633s-3.633-1.384-3.633-3.633v-22.31
		c0-2.249,1.384-3.46,3.633-3.46s3.633,1.211,3.633,3.46V531.512z"/>
	<path fill="#EA5F69" d="M908.049,531.512c0,2.249-1.384,3.633-3.633,3.633c-2.249,0-3.633-1.384-3.633-3.633v-71.141
		c0-2.249,1.384-3.46,3.633-3.46c2.249,0,3.633,1.211,3.633,3.46V531.512z"/>
	<path fill="#E53946" d="M904.415,464.177c-2.249,0-3.633-1.384-3.633-3.633c0-2.249,1.384-3.633,3.633-3.633h24.078
		c2.249,0,3.46,1.384,3.46,3.633c0,2.249-1.211,3.633-3.46,3.633H904.415z"/>
	<path fill="#F9F9F9" d="M932.127,531.512c0,2.249-1.384,3.633-3.633,3.633c-2.249,0-3.633-1.384-3.633-3.633v-71.141
		c0-2.249,1.384-3.46,3.633-3.46c2.249,0,3.633,1.211,3.633,3.46V531.512z"/>
	<path fill="#467C9D" d="M904.415,491.925c-2.249,0-3.633-1.384-3.633-3.633c0-2.249,1.384-3.633,3.633-3.633h48.33
		c2.249,0,3.46,1.384,3.46,3.633c0,2.249-1.211,3.633-3.46,3.633H904.415z"/>
	<path fill="#DBE5D8" d="M881.604,513.008c-2.249,0-3.633-1.384-3.633-3.633c0-2.249,1.384-3.633,3.633-3.633h71.141
		c2.249,0,3.46,1.384,3.46,3.633c0,2.249-1.211,3.633-3.46,3.633H881.604z"/>
	<path fill="#EA5F69" d="M956.206,531.512c0,2.249-1.384,3.633-3.633,3.633c-2.249,0-3.633-1.384-3.633-3.633v-43.393
		c0-2.249,1.384-3.46,3.633-3.46c2.249,0,3.633,1.211,3.633,3.46V531.512z"/>
	<path fill="#A8D9DB" d="M881.604,535.145c-2.249,0-3.633-1.384-3.633-3.633c0-2.249,1.384-3.633,3.633-3.633h71.141
		c2.249,0,3.46,1.384,3.46,3.633c0,2.249-1.211,3.633-3.46,3.633H881.604z"/>
</g>
<g>
	<path fill="#F9F9F9" d="M255.407,423.744c0,2.249-1.384,3.633-3.633,3.633c-2.249,0-3.633-1.384-3.633-3.633v-22.31
		c0-2.249,1.384-3.46,3.633-3.46c2.249,0,3.633,1.211,3.633,3.46V423.744z"/>
	<path fill="#EA5F69" d="M278.217,423.744c0,2.249-1.384,3.633-3.633,3.633s-3.633-1.384-3.633-3.633v-71.141
		c0-2.249,1.384-3.46,3.633-3.46s3.633,1.211,3.633,3.46V423.744z"/>
	<path fill="#E53946" d="M274.584,356.409c-2.249,0-3.633-1.384-3.633-3.633c0-2.249,1.384-3.633,3.633-3.633h24.079
		c2.249,0,3.46,1.384,3.46,3.633c0,2.249-1.211,3.633-3.46,3.633H274.584z"/>
	<path fill="#F9F9F9" d="M302.296,423.744c0,2.249-1.384,3.633-3.633,3.633c-2.249,0-3.633-1.384-3.633-3.633v-71.141
		c0-2.249,1.384-3.46,3.633-3.46c2.249,0,3.633,1.211,3.633,3.46V423.744z"/>
	<path fill="#467C9D" d="M274.584,384.157c-2.249,0-3.633-1.384-3.633-3.633c0-2.249,1.384-3.633,3.633-3.633h48.33
		c2.249,0,3.46,1.384,3.46,3.633c0,2.249-1.211,3.633-3.46,3.633H274.584z"/>
	<path fill="#DBE5D8" d="M251.773,405.24c-2.249,0-3.633-1.384-3.633-3.633c0-2.249,1.384-3.633,3.633-3.633h71.141
		c2.249,0,3.46,1.384,3.46,3.633c0,2.249-1.211,3.633-3.46,3.633H251.773z"/>
	<path fill="#EA5F69" d="M326.375,423.744c0,2.249-1.384,3.633-3.633,3.633c-2.249,0-3.633-1.384-3.633-3.633v-43.393
		c0-2.249,1.384-3.46,3.633-3.46c2.249,0,3.633,1.211,3.633,3.46V423.744z"/>
	<path fill="#A8D9DB" d="M251.773,427.377c-2.249,0-3.633-1.384-3.633-3.633c0-2.249,1.384-3.633,3.633-3.633h71.141
		c2.249,0,3.46,1.384,3.46,3.633c0,2.249-1.211,3.633-3.46,3.633H251.773z"/>
</g>
<g>
	<path fill="#F9F9F9" d="M524.559,423.744c0,2.249-1.384,3.633-3.633,3.633s-3.633-1.384-3.633-3.633v-22.31
		c0-2.249,1.384-3.46,3.633-3.46s3.633,1.211,3.633,3.46V423.744z"/>
	<path fill="#EA5F69" d="M547.37,423.744c0,2.249-1.384,3.633-3.633,3.633s-3.633-1.384-3.633-3.633v-71.141
		c0-2.249,1.384-3.46,3.633-3.46s3.633,1.211,3.633,3.46V423.744z"/>
	<path fill="#E53946" d="M543.736,356.409c-2.249,0-3.633-1.384-3.633-3.633c0-2.249,1.384-3.633,3.633-3.633h24.079
		c2.249,0,3.46,1.384,3.46,3.633c0,2.249-1.211,3.633-3.46,3.633H543.736z"/>
	<path fill="#F9F9F9" d="M571.448,423.744c0,2.249-1.384,3.633-3.633,3.633c-2.249,0-3.633-1.384-3.633-3.633v-71.141
		c0-2.249,1.384-3.46,3.633-3.46c2.249,0,3.633,1.211,3.633,3.46V423.744z"/>
	<path fill="#467C9D" d="M543.736,384.157c-2.249,0-3.633-1.384-3.633-3.633c0-2.249,1.384-3.633,3.633-3.633h48.33
		c2.249,0,3.46,1.384,3.46,3.633c0,2.249-1.211,3.633-3.46,3.633H543.736z"/>
	<path fill="#DBE5D8" d="M520.926,405.24c-2.249,0-3.633-1.384-3.633-3.633c0-2.249,1.384-3.633,3.633-3.633h71.141
		c2.249,0,3.46,1.384,3.46,3.633c0,2.249-1.211,3.633-3.46,3.633H520.926z"/>
	<path fill="#EA5F69" d="M595.527,423.744c0,2.249-1.384,3.633-3.633,3.633s-3.633-1.384-3.633-3.633v-43.393
		c0-2.249,1.384-3.46,3.633-3.46s3.633,1.211,3.633,3.46V423.744z"/>
	<path fill="#A8D9DB" d="M520.926,427.377c-2.249,0-3.633-1.384-3.633-3.633c0-2.249,1.384-3.633,3.633-3.633h71.141
		c2.249,0,3.46,1.384,3.46,3.633c0,2.249-1.211,3.633-3.46,3.633H520.926z"/>
</g>
<g>
	<path fill="#F9F9F9" d="M619.568,423.744c0,2.249-1.384,3.633-3.633,3.633s-3.633-1.384-3.633-3.633v-22.31
		c0-2.249,1.384-3.46,3.633-3.46s3.633,1.211,3.633,3.46V423.744z"/>
	<path fill="#EA5F69" d="M642.379,423.744c0,2.249-1.384,3.633-3.633,3.633s-3.633-1.384-3.633-3.633v-71.141
		c0-2.249,1.384-3.46,3.633-3.46s3.633,1.211,3.633,3.46V423.744z"/>
	<path fill="#E53946" d="M638.745,356.409c-2.249,0-3.633-1.384-3.633-3.633c0-2.249,1.384-3.633,3.633-3.633h24.079
		c2.249,0,3.46,1.384,3.46,3.633c0,2.249-1.211,3.633-3.46,3.633H638.745z"/>
	<path fill="#F9F9F9" d="M666.457,423.744c0,2.249-1.384,3.633-3.633,3.633c-2.249,0-3.633-1.384-3.633-3.633v-71.141
		c0-2.249,1.384-3.46,3.633-3.46c2.249,0,3.633,1.211,3.633,3.46V423.744z"/>
	<path fill="#467C9D" d="M638.745,384.157c-2.249,0-3.633-1.384-3.633-3.633c0-2.249,1.384-3.633,3.633-3.633h48.33
		c2.249,0,3.46,1.384,3.46,3.633c0,2.249-1.211,3.633-3.46,3.633H638.745z"/>
	<path fill="#DBE5D8" d="M615.935,405.24c-2.249,0-3.633-1.384-3.633-3.633c0-2.249,1.384-3.633,3.633-3.633h71.141
		c2.249,0,3.46,1.384,3.46,3.633c0,2.249-1.211,3.633-3.46,3.633H615.935z"/>
	<path fill="#EA5F69" d="M690.536,423.744c0,2.249-1.384,3.633-3.633,3.633s-3.633-1.384-3.633-3.633v-43.393
		c0-2.249,1.384-3.46,3.633-3.46s3.633,1.211,3.633,3.46V423.744z"/>
	<path fill="#A8D9DB" d="M615.935,427.377c-2.249,0-3.633-1.384-3.633-3.633c0-2.249,1.384-3.633,3.633-3.633h71.141
		c2.249,0,3.46,1.384,3.46,3.633c0,2.249-1.211,3.633-3.46,3.633H615.935z"/>
</g>
<g>
	<path fill="#F9F9F9" d="M697.662,318.117c0,2.249-1.384,3.633-3.633,3.633c-2.249,0-3.633-1.384-3.633-3.633v-22.31
		c0-2.249,1.384-3.46,3.633-3.46c2.249,0,3.633,1.211,3.633,3.46V318.117z"/>
	<path fill="#EA5F69" d="M720.473,318.117c0,2.249-1.384,3.633-3.633,3.633s-3.633-1.384-3.633-3.633v-71.141
		c0-2.249,1.384-3.46,3.633-3.46s3.633,1.211,3.633,3.46V318.117z"/>
	<path fill="#E53946" d="M716.839,250.782c-2.249,0-3.633-1.384-3.633-3.633c0-2.249,1.384-3.633,3.633-3.633h24.079
		c2.249,0,3.46,1.384,3.46,3.633c0,2.249-1.211,3.633-3.46,3.633H716.839z"/>
	<path fill="#F9F9F9" d="M744.551,318.117c0,2.249-1.384,3.633-3.633,3.633c-2.249,0-3.633-1.384-3.633-3.633v-71.141
		c0-2.249,1.384-3.46,3.633-3.46c2.249,0,3.633,1.211,3.633,3.46V318.117z"/>
	<path fill="#467C9D" d="M716.839,278.531c-2.249,0-3.633-1.384-3.633-3.633c0-2.249,1.384-3.633,3.633-3.633h48.33
		c2.249,0,3.46,1.384,3.46,3.633c0,2.249-1.211,3.633-3.46,3.633H716.839z"/>
	<path fill="#DBE5D8" d="M694.029,299.614c-2.249,0-3.633-1.384-3.633-3.633c0-2.249,1.384-3.633,3.633-3.633h71.141
		c2.249,0,3.46,1.384,3.46,3.633c0,2.249-1.211,3.633-3.46,3.633H694.029z"/>
	<path fill="#EA5F69" d="M768.63,318.117c0,2.249-1.384,3.633-3.633,3.633s-3.633-1.384-3.633-3.633v-43.393
		c0-2.249,1.384-3.46,3.633-3.46s3.633,1.211,3.633,3.46V318.117z"/>
	<path fill="#A8D9DB" d="M694.029,321.75c-2.249,0-3.633-1.384-3.633-3.633c0-2.249,1.384-3.633,3.633-3.633h71.141
		c2.249,0,3.46,1.384,3.46,3.633c0,2.249-1.211,3.633-3.46,3.633H694.029z"/>
</g>
<g>
	<path fill="#E53946" d="M68.217,421.444l28.325-28.325c1.59-1.59,3.548-1.59,5.138,0c1.591,1.591,1.591,3.548,0,5.138
		l-28.325,28.325c-1.59,1.59-3.425,1.468-5.016-0.122C66.749,424.869,66.627,423.034,68.217,421.444z"/>
	<path fill="#A8D9DB" d="M101.68,391.873c1.591,1.59,1.591,3.548,0,5.138c-1.59,1.59-3.548,1.59-5.138,0l-28.325-28.325
		c-1.59-1.591-1.468-3.426,0.122-5.016c1.591-1.591,3.426-1.713,5.016-0.122L101.68,391.873z"/>
	<path fill="#F9F9F9" d="M137.433,391.873c1.591,1.59,1.591,3.548,0,5.138c-1.59,1.59-3.548,1.59-5.138,0l-28.325-28.325
		c-1.59-1.591-1.468-3.426,0.122-5.016c1.59-1.591,3.426-1.713,5.016-0.122L137.433,391.873z"/>
	<path fill="#DBE5D8" d="M103.97,421.444l28.325-28.325c1.591-1.59,3.548-1.59,5.138,0c1.591,1.591,1.591,3.548,0,5.138
		l-28.325,28.325c-1.59,1.59-3.425,1.468-5.016-0.122C102.502,424.869,102.379,423.034,103.97,421.444z"/>
</g>
<g>
	<path fill="#E53946" d="M68.217,315.817l28.325-28.325c1.59-1.59,3.548-1.59,5.138,0c1.591,1.591,1.591,3.548,0,5.138
		l-28.325,28.325c-1.59,1.59-3.425,1.468-5.016-0.122C66.749,319.243,66.627,317.408,68.217,315.817z"/>
	<path fill="#A8D9DB" d="M101.68,286.247c1.591,1.59,1.591,3.548,0,5.138c-1.59,1.59-3.548,1.59-5.138,0L68.217,263.06
		c-1.59-1.591-1.468-3.426,0.122-5.016c1.591-1.591,3.426-1.713,5.016-0.122L101.68,286.247z"/>
	<path fill="#F9F9F9" d="M137.433,286.247c1.591,1.59,1.591,3.548,0,5.138c-1.59,1.59-3.548,1.59-5.138,0L103.97,263.06
		c-1.59-1.591-1.468-3.426,0.122-5.016c1.59-1.591,3.426-1.713,5.016-0.122L137.433,286.247z"/>
	<path fill="#DBE5D8" d="M103.97,315.817l28.325-28.325c1.591-1.59,3.548-1.59,5.138,0c1.591,1.591,1.591,3.548,0,5.138
		l-28.325,28.325c-1.59,1.59-3.425,1.468-5.016-0.122C102.502,319.243,102.379,317.408,103.97,315.817z"/>
</g>
<g>
	<path fill="#E53946" d="M430.08,210.19l28.325-28.325c1.59-1.59,3.548-1.59,5.138,0c1.591,1.591,1.591,3.548,0,5.138
		l-28.325,28.325c-1.59,1.59-3.425,1.468-5.016-0.122C428.612,213.616,428.49,211.781,430.08,210.19z"/>
	<path fill="#A8D9DB" d="M463.544,180.62c1.591,1.59,1.591,3.548,0,5.138c-1.59,1.59-3.548,1.59-5.138,0l-28.325-28.325
		c-1.59-1.591-1.468-3.426,0.122-5.016c1.591-1.591,3.426-1.713,5.016-0.122L463.544,180.62z"/>
	<path fill="#F9F9F9" d="M499.296,180.62c1.591,1.59,1.591,3.548,0,5.138c-1.59,1.59-3.548,1.59-5.138,0l-28.325-28.325
		c-1.59-1.591-1.468-3.426,0.122-5.016c1.59-1.591,3.426-1.713,5.016-0.122L499.296,180.62z"/>
	<path fill="#DBE5D8" d="M465.833,210.19l28.325-28.325c1.591-1.59,3.548-1.59,5.138,0c1.591,1.591,1.591,3.548,0,5.138
		l-28.325,28.325c-1.59,1.59-3.425,1.468-5.016-0.122C464.365,213.616,464.242,211.781,465.833,210.19z"/>
</g>
<g>
	<path fill="#E53946" d="M790.603,210.191l28.325-28.325c1.59-1.59,3.548-1.59,5.138,0c1.591,1.591,1.591,3.548,0,5.138
		l-28.325,28.325c-1.59,1.59-3.425,1.468-5.016-0.122C789.135,213.616,789.013,211.781,790.603,210.191z"/>
	<path fill="#A8D9DB" d="M824.066,180.62c1.591,1.59,1.591,3.548,0,5.138c-1.59,1.59-3.548,1.59-5.138,0l-28.325-28.325
		c-1.59-1.591-1.468-3.426,0.122-5.016c1.591-1.591,3.426-1.713,5.016-0.122L824.066,180.62z"/>
	<path fill="#F9F9F9" d="M859.819,180.62c1.591,1.59,1.591,3.548,0,5.138c-1.59,1.59-3.548,1.59-5.138,0l-28.325-28.325
		c-1.59-1.591-1.468-3.426,0.122-5.016c1.59-1.591,3.426-1.713,5.016-0.122L859.819,180.62z"/>
	<path fill="#DBE5D8" d="M826.355,210.191l28.325-28.325c1.591-1.59,3.548-1.59,5.138,0c1.591,1.591,1.591,3.548,0,5.138
		l-28.325,28.325c-1.59,1.59-3.425,1.468-5.016-0.122C824.887,213.616,824.765,211.781,826.355,210.191z"/>
</g>
<g>
	<path fill="#E53946" d="M787.275,316.372l28.325-28.325c1.59-1.59,3.548-1.59,5.138,0c1.591,1.591,1.591,3.548,0,5.138
		l-28.325,28.325c-1.59,1.59-3.425,1.468-5.016-0.122C785.807,319.797,785.685,317.962,787.275,316.372z"/>
	<path fill="#A8D9DB" d="M820.739,286.801c1.591,1.59,1.591,3.548,0,5.138c-1.59,1.59-3.548,1.59-5.138,0l-28.325-28.325
		c-1.59-1.591-1.468-3.426,0.122-5.016c1.591-1.591,3.426-1.713,5.016-0.122L820.739,286.801z"/>
	<path fill="#F9F9F9" d="M856.491,286.801c1.591,1.59,1.591,3.548,0,5.138c-1.59,1.59-3.548,1.59-5.138,0l-28.325-28.325
		c-1.59-1.591-1.468-3.426,0.122-5.016c1.59-1.591,3.426-1.713,5.016-0.122L856.491,286.801z"/>
	<path fill="#DBE5D8" d="M823.028,316.372l28.325-28.325c1.591-1.59,3.548-1.59,5.138,0c1.591,1.591,1.591,3.548,0,5.138
		l-28.325,28.325c-1.59,1.59-3.425,1.468-5.016-0.122C821.56,319.797,821.438,317.962,823.028,316.372z"/>
</g>
<g>
	<path fill="#E53946" d="M435.255,421.646l28.325-28.325c1.59-1.59,3.548-1.59,5.138,0c1.591,1.591,1.591,3.548,0,5.138
		l-28.325,28.325c-1.59,1.59-3.425,1.468-5.016-0.122C433.787,425.072,433.665,423.237,435.255,421.646z"/>
	<path fill="#A8D9DB" d="M468.718,392.076c1.591,1.59,1.591,3.548,0,5.138c-1.59,1.59-3.548,1.59-5.138,0l-28.325-28.325
		c-1.59-1.591-1.468-3.426,0.122-5.016c1.591-1.591,3.426-1.713,5.016-0.122L468.718,392.076z"/>
	<path fill="#F9F9F9" d="M504.471,392.076c1.591,1.59,1.591,3.548,0,5.138c-1.59,1.59-3.548,1.59-5.138,0l-28.325-28.325
		c-1.59-1.591-1.468-3.426,0.122-5.016c1.59-1.591,3.426-1.713,5.016-0.122L504.471,392.076z"/>
	<path fill="#DBE5D8" d="M471.007,421.646l28.325-28.325c1.591-1.59,3.548-1.59,5.138,0c1.591,1.591,1.591,3.548,0,5.138
		l-28.325,28.325c-1.59,1.59-3.425,1.468-5.016-0.122C469.54,425.072,469.417,423.237,471.007,421.646z"/>
</g>
<g>
	<path fill="#EA5F69" d="M918.948,190.161c-4.872,0-8.785-4.073-8.785-8.865s3.913-8.865,8.785-8.865
		c4.792,0,8.865,4.073,8.865,8.865S923.74,190.161,918.948,190.161z"/>
	<path fill="#DBE5D8" d="M883.791,208.12h70.554c2.231,0,3.603,1.373,3.603,3.603s-1.373,3.603-3.603,3.603h-70.554
		c-2.231,0-3.432-1.373-3.432-3.603S881.561,208.12,883.791,208.12z"/>
	<path fill="#F9F9F9" d="M920.493,136.222l35.006,35.006c1.577,1.577,1.577,3.519,0,5.096c-1.577,1.577-3.519,1.577-5.096,0
		l-35.006-35.006c-1.577-1.577-1.456-3.397,0.121-4.974C917.096,134.766,918.916,134.645,920.493,136.222z"/>
	<path fill="#E53946" d="M919.98,136.343c1.577,1.577,1.699,3.397,0.121,4.974l-35.006,35.006c-1.577,1.577-3.519,1.577-5.096,0
		c-1.577-1.577-1.577-3.519,0-5.096l35.006-35.006C916.583,134.645,918.402,134.766,919.98,136.343z"/>
</g>
<g>
	<path fill="#EA5F69" d="M914.811,295.845c-4.872,0-8.785-4.073-8.785-8.865c0-4.792,3.913-8.865,8.785-8.865
		c4.792,0,8.865,4.073,8.865,8.865C923.676,291.772,919.603,295.845,914.811,295.845z"/>
	<path fill="#DBE5D8" d="M879.655,313.804h70.554c2.231,0,3.603,1.373,3.603,3.603c0,2.231-1.373,3.603-3.603,3.603h-70.554
		c-2.231,0-3.432-1.373-3.432-3.603C876.223,315.177,877.424,313.804,879.655,313.804z"/>
	<path fill="#F9F9F9" d="M916.357,241.906l35.006,35.006c1.577,1.577,1.577,3.519,0,5.096s-3.519,1.577-5.096,0l-35.006-35.006
		c-1.577-1.577-1.456-3.397,0.121-4.974C912.96,240.45,914.78,240.329,916.357,241.906z"/>
	<path fill="#E53946" d="M915.843,242.027c1.577,1.577,1.699,3.397,0.121,4.974l-35.006,35.006c-1.577,1.577-3.519,1.577-5.096,0
		s-1.577-3.519,0-5.096l35.006-35.006C912.446,240.329,914.266,240.45,915.843,242.027z"/>
</g>
<g>
	<path fill="#EA5F69" d="M914.811,401.137c-4.872,0-8.785-4.073-8.785-8.865c0-4.792,3.913-8.865,8.785-8.865
		c4.792,0,8.865,4.073,8.865,8.865C923.676,397.064,919.603,401.137,914.811,401.137z"/>
	<path fill="#DBE5D8" d="M879.655,419.096h70.554c2.231,0,3.603,1.373,3.603,3.603c0,2.231-1.373,3.603-3.603,3.603h-70.554
		c-2.231,0-3.432-1.373-3.432-3.603C876.223,420.469,877.424,419.096,879.655,419.096z"/>
	<path fill="#F9F9F9" d="M916.357,347.198l35.006,35.006c1.577,1.577,1.577,3.519,0,5.096s-3.519,1.577-5.096,0l-35.006-35.006
		c-1.577-1.577-1.456-3.397,0.121-4.974C912.96,345.742,914.78,345.621,916.357,347.198z"/>
	<path fill="#E53946" d="M915.843,347.32c1.577,1.577,1.699,3.397,0.121,4.974L880.959,387.3c-1.577,1.577-3.519,1.577-5.096,0
		s-1.577-3.519,0-5.096l35.006-35.006C912.446,345.621,914.266,345.742,915.843,347.32z"/>
</g>
<g>
	<path fill="#EA5F69" d="M378.583,401.137c-4.872,0-8.785-4.073-8.785-8.865c0-4.792,3.913-8.865,8.785-8.865
		c4.792,0,8.865,4.073,8.865,8.865C387.448,397.064,383.375,401.137,378.583,401.137z"/>
	<path fill="#DBE5D8" d="M343.427,419.096h70.554c2.231,0,3.603,1.373,3.603,3.603c0,2.231-1.373,3.603-3.603,3.603h-70.554
		c-2.231,0-3.432-1.373-3.432-3.603C339.995,420.469,341.196,419.096,343.427,419.096z"/>
	<path fill="#F9F9F9" d="M380.129,347.198l35.006,35.006c1.577,1.577,1.577,3.519,0,5.096s-3.519,1.577-5.096,0l-35.006-35.006
		c-1.577-1.577-1.456-3.397,0.121-4.974C376.732,345.742,378.552,345.621,380.129,347.198z"/>
	<path fill="#E53946" d="M379.615,347.32c1.577,1.577,1.699,3.397,0.121,4.974L344.731,387.3c-1.577,1.577-3.519,1.577-5.096,0
		s-1.577-3.519,0-5.096l35.006-35.006C376.218,345.621,378.038,345.742,379.615,347.32z"/>
</g>
<g>
	<path fill="#A8D9DB" d="M155.814,88.163c0-2.705,2.209-5.004,4.959-5.004c2.705,0,5.004,2.299,5.004,5.004
		c0,2.705-2.299,5.005-5.004,5.005C158.023,93.167,155.814,90.868,155.814,88.163z"/>
	<path fill="#467C9D" d="M171.095,110.461c0-2.705,2.209-5.004,4.959-5.004c2.705,0,5.004,2.299,5.004,5.004
		s-2.299,5.005-5.004,5.005C173.304,115.466,171.095,113.166,171.095,110.461z"/>
	<path fill="#EA5F69" d="M191.321,49.656c0-2.705,2.209-5.004,4.959-5.004c2.705,0,5.005,2.299,5.005,5.004
		c0,2.705-2.299,5.005-5.005,5.005C193.53,54.661,191.321,52.361,191.321,49.656z"/>
	<path fill="#DBE5D8" d="M202.445,88.163c0-2.705,2.209-5.004,4.959-5.004c2.705,0,5.004,2.299,5.004,5.004
		c0,2.705-2.299,5.005-5.004,5.005C204.654,93.167,202.445,90.868,202.445,88.163z"/>
	<path fill="#F9F9F9" d="M214.883,67.746c0-2.705,2.209-5.005,4.959-5.005c2.705,0,5.004,2.299,5.004,5.005
		c0,2.705-2.299,5.004-5.004,5.004C217.092,72.75,214.883,70.451,214.883,67.746z"/>
	<path fill="#E53946" d="M214.883,115.466c0-2.705,2.209-5.005,4.959-5.005c2.705,0,5.004,2.299,5.004,5.005
		c0,2.705-2.299,5.004-5.004,5.004C217.092,120.47,214.883,118.17,214.883,115.466z"/>
</g>
<g>
	<path fill="#A8D9DB" d="M701.765,88.163c0-2.705,2.209-5.004,4.959-5.004c2.705,0,5.004,2.299,5.004,5.004
		c0,2.705-2.299,5.005-5.004,5.005C703.974,93.167,701.765,90.868,701.765,88.163z"/>
	<path fill="#467C9D" d="M717.047,110.461c0-2.705,2.209-5.004,4.959-5.004c2.705,0,5.004,2.299,5.004,5.004
		s-2.299,5.005-5.004,5.005C719.255,115.466,717.047,113.166,717.047,110.461z"/>
	<path fill="#EA5F69" d="M737.273,49.656c0-2.705,2.209-5.004,4.959-5.004c2.705,0,5.005,2.299,5.005,5.004
		c0,2.705-2.299,5.005-5.005,5.005C739.482,54.661,737.273,52.361,737.273,49.656z"/>
	<path fill="#DBE5D8" d="M748.397,88.163c0-2.705,2.209-5.004,4.959-5.004c2.705,0,5.004,2.299,5.004,5.004
		c0,2.705-2.299,5.005-5.004,5.005C750.606,93.167,748.397,90.868,748.397,88.163z"/>
	<path fill="#F9F9F9" d="M760.835,67.746c0-2.705,2.209-5.005,4.959-5.005c2.705,0,5.004,2.299,5.004,5.005
		c0,2.705-2.299,5.004-5.004,5.004C763.044,72.75,760.835,70.451,760.835,67.746z"/>
	<path fill="#E53946" d="M760.835,115.466c0-2.705,2.209-5.005,4.959-5.005c2.705,0,5.004,2.299,5.004,5.005
		c0,2.705-2.299,5.004-5.004,5.004C763.044,120.47,760.835,118.17,760.835,115.466z"/>
</g>
<g>
	<path fill="#A8D9DB" d="M787.642,88.163c0-2.705,2.209-5.004,4.959-5.004c2.705,0,5.004,2.299,5.004,5.004
		c0,2.705-2.299,5.005-5.004,5.005C789.851,93.167,787.642,90.868,787.642,88.163z"/>
	<path fill="#467C9D" d="M802.923,110.461c0-2.705,2.209-5.004,4.959-5.004c2.705,0,5.004,2.299,5.004,5.004
		s-2.299,5.005-5.004,5.005C805.132,115.466,802.923,113.166,802.923,110.461z"/>
	<path fill="#EA5F69" d="M823.15,49.656c0-2.705,2.209-5.004,4.959-5.004c2.705,0,5.005,2.299,5.005,5.004
		c0,2.705-2.299,5.005-5.005,5.005C825.359,54.661,823.15,52.361,823.15,49.656z"/>
	<path fill="#DBE5D8" d="M834.273,88.163c0-2.705,2.209-5.004,4.959-5.004c2.705,0,5.004,2.299,5.004,5.004
		c0,2.705-2.299,5.005-5.004,5.005C836.482,93.167,834.273,90.868,834.273,88.163z"/>
	<path fill="#F9F9F9" d="M846.711,67.746c0-2.705,2.209-5.005,4.959-5.005c2.705,0,5.004,2.299,5.004,5.005
		c0,2.705-2.299,5.004-5.004,5.004C848.92,72.75,846.711,70.451,846.711,67.746z"/>
	<path fill="#E53946" d="M846.711,115.466c0-2.705,2.209-5.005,4.959-5.005c2.705,0,5.004,2.299,5.004,5.005
		c0,2.705-2.299,5.004-5.004,5.004C848.92,120.47,846.711,118.17,846.711,115.466z"/>
</g>
<g>
	<path fill="#F9F9F9" d="M255.407,113.852c0,2.249-1.384,3.633-3.633,3.633c-2.249,0-3.633-1.384-3.633-3.633v-22.31
		c0-2.249,1.384-3.46,3.633-3.46c2.249,0,3.633,1.211,3.633,3.46V113.852z"/>
	<path fill="#EA5F69" d="M278.217,113.852c0,2.249-1.384,3.633-3.633,3.633s-3.633-1.384-3.633-3.633V42.711
		c0-2.249,1.384-3.46,3.633-3.46s3.633,1.211,3.633,3.46V113.852z"/>
	<path fill="#E53946" d="M274.584,46.517c-2.249,0-3.633-1.384-3.633-3.633c0-2.249,1.384-3.633,3.633-3.633h24.079
		c2.249,0,3.46,1.384,3.46,3.633c0,2.249-1.211,3.633-3.46,3.633H274.584z"/>
	<path fill="#F9F9F9" d="M302.296,113.852c0,2.249-1.384,3.633-3.633,3.633c-2.249,0-3.633-1.384-3.633-3.633V42.711
		c0-2.249,1.384-3.46,3.633-3.46c2.249,0,3.633,1.211,3.633,3.46V113.852z"/>
	<path fill="#467C9D" d="M274.584,74.266c-2.249,0-3.633-1.384-3.633-3.633c0-2.249,1.384-3.633,3.633-3.633h48.33
		c2.249,0,3.46,1.384,3.46,3.633c0,2.249-1.211,3.633-3.46,3.633H274.584z"/>
	<path fill="#DBE5D8" d="M251.773,95.349c-2.249,0-3.633-1.384-3.633-3.633c0-2.249,1.384-3.633,3.633-3.633h71.141
		c2.249,0,3.46,1.384,3.46,3.633c0,2.249-1.211,3.633-3.46,3.633H251.773z"/>
	<path fill="#EA5F69" d="M326.375,113.852c0,2.249-1.384,3.633-3.633,3.633c-2.249,0-3.633-1.384-3.633-3.633V70.46
		c0-2.249,1.384-3.46,3.633-3.46c2.249,0,3.633,1.211,3.633,3.46V113.852z"/>
	<path fill="#A8D9DB" d="M251.773,117.485c-2.249,0-3.633-1.384-3.633-3.633c0-2.249,1.384-3.633,3.633-3.633h71.141
		c2.249,0,3.46,1.384,3.46,3.633c0,2.249-1.211,3.633-3.46,3.633H251.773z"/>
</g>
<g>
	<path fill="#F9F9F9" d="M524.559,113.852c0,2.249-1.384,3.633-3.633,3.633s-3.633-1.384-3.633-3.633v-22.31
		c0-2.249,1.384-3.46,3.633-3.46s3.633,1.211,3.633,3.46V113.852z"/>
	<path fill="#EA5F69" d="M547.37,113.852c0,2.249-1.384,3.633-3.633,3.633s-3.633-1.384-3.633-3.633V42.711
		c0-2.249,1.384-3.46,3.633-3.46s3.633,1.211,3.633,3.46V113.852z"/>
	<path fill="#E53946" d="M543.736,46.517c-2.249,0-3.633-1.384-3.633-3.633c0-2.249,1.384-3.633,3.633-3.633h24.079
		c2.249,0,3.46,1.384,3.46,3.633c0,2.249-1.211,3.633-3.46,3.633H543.736z"/>
	<path fill="#F9F9F9" d="M571.448,113.852c0,2.249-1.384,3.633-3.633,3.633c-2.249,0-3.633-1.384-3.633-3.633V42.711
		c0-2.249,1.384-3.46,3.633-3.46c2.249,0,3.633,1.211,3.633,3.46V113.852z"/>
	<path fill="#467C9D" d="M543.736,74.266c-2.249,0-3.633-1.384-3.633-3.633c0-2.249,1.384-3.633,3.633-3.633h48.33
		c2.249,0,3.46,1.384,3.46,3.633c0,2.249-1.211,3.633-3.46,3.633H543.736z"/>
	<path fill="#DBE5D8" d="M520.926,95.349c-2.249,0-3.633-1.384-3.633-3.633c0-2.249,1.384-3.633,3.633-3.633h71.141
		c2.249,0,3.46,1.384,3.46,3.633c0,2.249-1.211,3.633-3.46,3.633H520.926z"/>
	<path fill="#EA5F69" d="M595.527,113.852c0,2.249-1.384,3.633-3.633,3.633s-3.633-1.384-3.633-3.633V70.46
		c0-2.249,1.384-3.46,3.633-3.46s3.633,1.211,3.633,3.46V113.852z"/>
	<path fill="#A8D9DB" d="M520.926,117.485c-2.249,0-3.633-1.384-3.633-3.633c0-2.249,1.384-3.633,3.633-3.633h71.141
		c2.249,0,3.46,1.384,3.46,3.633c0,2.249-1.211,3.633-3.46,3.633H520.926z"/>
</g>
<g>
	<path fill="#F9F9F9" d="M619.568,113.852c0,2.249-1.384,3.633-3.633,3.633s-3.633-1.384-3.633-3.633v-22.31
		c0-2.249,1.384-3.46,3.633-3.46s3.633,1.211,3.633,3.46V113.852z"/>
	<path fill="#EA5F69" d="M642.379,113.852c0,2.249-1.384,3.633-3.633,3.633s-3.633-1.384-3.633-3.633V42.711
		c0-2.249,1.384-3.46,3.633-3.46s3.633,1.211,3.633,3.46V113.852z"/>
	<path fill="#E53946" d="M638.745,46.517c-2.249,0-3.633-1.384-3.633-3.633c0-2.249,1.384-3.633,3.633-3.633h24.079
		c2.249,0,3.46,1.384,3.46,3.633c0,2.249-1.211,3.633-3.46,3.633H638.745z"/>
	<path fill="#F9F9F9" d="M666.457,113.852c0,2.249-1.384,3.633-3.633,3.633c-2.249,0-3.633-1.384-3.633-3.633V42.711
		c0-2.249,1.384-3.46,3.633-3.46c2.249,0,3.633,1.211,3.633,3.46V113.852z"/>
	<path fill="#467C9D" d="M638.745,74.266c-2.249,0-3.633-1.384-3.633-3.633c0-2.249,1.384-3.633,3.633-3.633h48.33
		c2.249,0,3.46,1.384,3.46,3.633c0,2.249-1.211,3.633-3.46,3.633H638.745z"/>
	<path fill="#DBE5D8" d="M615.935,95.349c-2.249,0-3.633-1.384-3.633-3.633c0-2.249,1.384-3.633,3.633-3.633h71.141
		c2.249,0,3.46,1.384,3.46,3.633c0,2.249-1.211,3.633-3.46,3.633H615.935z"/>
	<path fill="#EA5F69" d="M690.536,113.852c0,2.249-1.384,3.633-3.633,3.633s-3.633-1.384-3.633-3.633V70.46
		c0-2.249,1.384-3.46,3.633-3.46s3.633,1.211,3.633,3.46V113.852z"/>
	<path fill="#A8D9DB" d="M615.935,117.485c-2.249,0-3.633-1.384-3.633-3.633c0-2.249,1.384-3.633,3.633-3.633h71.141
		c2.249,0,3.46,1.384,3.46,3.633c0,2.249-1.211,3.633-3.46,3.633H615.935z"/>
</g>
<g>
	<path fill="#E53946" d="M68.217,111.552l28.325-28.325c1.59-1.59,3.548-1.59,5.138,0c1.591,1.591,1.591,3.548,0,5.138
		l-28.325,28.325c-1.59,1.59-3.425,1.468-5.016-0.122C66.749,114.978,66.627,113.143,68.217,111.552z"/>
	<path fill="#A8D9DB" d="M101.68,81.982c1.591,1.59,1.591,3.548,0,5.138c-1.59,1.59-3.548,1.59-5.138,0L68.217,58.795
		c-1.59-1.591-1.468-3.426,0.122-5.016c1.591-1.591,3.426-1.713,5.016-0.122L101.68,81.982z"/>
	<path fill="#F9F9F9" d="M137.433,81.982c1.591,1.59,1.591,3.548,0,5.138c-1.59,1.59-3.548,1.59-5.138,0L103.97,58.795
		c-1.59-1.591-1.468-3.426,0.122-5.016c1.59-1.591,3.426-1.713,5.016-0.122L137.433,81.982z"/>
	<path fill="#DBE5D8" d="M103.97,111.552l28.325-28.325c1.591-1.59,3.548-1.59,5.138,0c1.591,1.591,1.591,3.548,0,5.138
		l-28.325,28.325c-1.59,1.59-3.425,1.468-5.016-0.122C102.502,114.978,102.379,113.143,103.97,111.552z"/>
</g>
<g>
	<path fill="#E53946" d="M435.255,111.755L463.58,83.43c1.59-1.59,3.548-1.59,5.138,0c1.591,1.591,1.591,3.548,0,5.138
		l-28.325,28.325c-1.59,1.59-3.425,1.468-5.016-0.122C433.787,115.181,433.665,113.346,435.255,111.755z"/>
	<path fill="#A8D9DB" d="M468.718,82.185c1.591,1.59,1.591,3.548,0,5.138c-1.59,1.59-3.548,1.59-5.138,0l-28.325-28.325
		c-1.59-1.591-1.468-3.426,0.122-5.016c1.591-1.591,3.426-1.713,5.016-0.122L468.718,82.185z"/>
	<path fill="#F9F9F9" d="M504.471,82.185c1.591,1.59,1.591,3.548,0,5.138c-1.59,1.59-3.548,1.59-5.138,0l-28.325-28.325
		c-1.59-1.591-1.468-3.426,0.122-5.016c1.59-1.591,3.426-1.713,5.016-0.122L504.471,82.185z"/>
	<path fill="#DBE5D8" d="M471.007,111.755l28.325-28.325c1.591-1.59,3.548-1.59,5.138,0c1.591,1.591,1.591,3.548,0,5.138
		l-28.325,28.325c-1.59,1.59-3.425,1.468-5.016-0.122C469.54,115.181,469.417,113.346,471.007,111.755z"/>
</g>
<g>
	<path fill="#EA5F69" d="M378.583,91.246c-4.872,0-8.785-4.073-8.785-8.865s3.913-8.865,8.785-8.865
		c4.792,0,8.865,4.073,8.865,8.865S383.375,91.246,378.583,91.246z"/>
	<path fill="#DBE5D8" d="M343.427,109.205h70.554c2.231,0,3.603,1.373,3.603,3.603s-1.373,3.603-3.603,3.603h-70.554
		c-2.231,0-3.432-1.373-3.432-3.603S341.196,109.205,343.427,109.205z"/>
	<path fill="#F9F9F9" d="M380.129,37.307l35.006,35.006c1.577,1.577,1.577,3.519,0,5.096s-3.519,1.577-5.096,0l-35.006-35.006
		c-1.577-1.577-1.456-3.397,0.121-4.974C376.732,35.851,378.552,35.73,380.129,37.307z"/>
	<path fill="#E53946" d="M379.615,37.428c1.577,1.577,1.699,3.397,0.121,4.974l-35.006,35.006c-1.577,1.577-3.519,1.577-5.096,0
		s-1.577-3.519,0-5.096l35.006-35.006C376.218,35.73,378.038,35.851,379.615,37.428z"/>
</g>
<g>
	<g>
		<path fill="#F9F9F9" d="M303.389,144.208l25.963,42.078c1.17,1.896,0.723,3.783-1.173,4.952c-1.896,1.17-3.783,0.723-4.952-1.173
			l-25.963-42.078c-1.17-1.896-0.633-3.637,1.263-4.807C300.422,142.011,302.219,142.312,303.389,144.208z"/>
		<path fill="#E53946" d="M302.862,144.208c1.17,1.896,0.869,3.693-1.027,4.862l-42.078,25.963c-1.896,1.17-3.783,0.723-4.952-1.173
			s-0.723-3.783,1.173-4.952l42.078-25.963C299.951,141.775,301.692,142.312,302.862,144.208z"/>
		<path fill="#A8D9DB" d="M280.483,217.138L254.52,175.06c-1.17-1.896-0.723-3.783,1.173-4.952s3.783-0.723,4.952,1.173
			l25.963,42.078c1.17,1.896,0.633,3.637-1.263,4.807C283.449,219.335,281.653,219.034,280.483,217.138z"/>
		<path fill="#DBE5D8" d="M281.01,217.138c-1.17-1.896-0.869-3.693,1.027-4.862l42.078-25.963c1.896-1.17,3.783-0.723,4.952,1.173
			s0.723,3.783-1.173,4.952l-42.078,25.963C283.921,219.571,282.18,219.034,281.01,217.138z"/>
	</g>
	<path fill="#EA5F69" d="M312.611,186.467v28.545c0,2.228-1.371,3.599-3.599,3.599s-3.599-1.371-3.599-3.599v-28.545
		c0-2.228,1.371-3.427,3.599-3.427S312.611,184.239,312.611,186.467z"/>
</g>
<g>
	<g>
		<path fill="#F9F9F9" d="M928.542,42.127l25.963,42.078c1.17,1.896,0.723,3.783-1.173,4.952c-1.896,1.17-3.783,0.723-4.952-1.173
			l-25.963-42.078c-1.17-1.896-0.633-3.637,1.263-4.807S927.372,40.231,928.542,42.127z"/>
		<path fill="#E53946" d="M928.014,42.126c1.17,1.896,0.869,3.693-1.027,4.862l-42.078,25.963c-1.896,1.17-3.783,0.723-4.952-1.173
			c-1.17-1.896-0.723-3.783,1.173-4.952l42.078-25.963C925.104,39.693,926.844,40.23,928.014,42.126z"/>
		<path fill="#A8D9DB" d="M905.635,115.057l-25.963-42.078c-1.17-1.896-0.723-3.783,1.173-4.952c1.896-1.17,3.783-0.723,4.952,1.173
			l25.963,42.078c1.17,1.896,0.633,3.637-1.263,4.807C908.602,117.253,906.805,116.952,905.635,115.057z"/>
		<path fill="#DBE5D8" d="M906.163,115.057c-1.17-1.896-0.869-3.693,1.027-4.862l42.078-25.963c1.896-1.17,3.783-0.723,4.952,1.173
			c1.17,1.896,0.723,3.783-1.173,4.952l-42.078,25.963C909.073,117.49,907.332,116.953,906.163,115.057z"/>
	</g>
	<path fill="#EA5F69" d="M937.764,84.385v28.545c0,2.228-1.371,3.599-3.599,3.599s-3.599-1.371-3.599-3.599V84.385
		c0-2.228,1.371-3.427,3.599-3.427S937.764,82.158,937.764,84.385z"/>
</g>
<g>
	<g>
		<path fill="#F9F9F9" d="M655.722,144.208l25.963,42.078c1.17,1.896,0.723,3.783-1.173,4.952c-1.896,1.17-3.783,0.723-4.952-1.173
			l-25.963-42.078c-1.17-1.896-0.633-3.637,1.263-4.807C652.756,142.011,654.552,142.312,655.722,144.208z"/>
		<path fill="#E53946" d="M655.195,144.208c1.17,1.896,0.869,3.693-1.027,4.862l-42.078,25.963c-1.896,1.17-3.783,0.723-4.952-1.173
			c-1.17-1.896-0.723-3.783,1.173-4.952l42.078-25.963C652.284,141.775,654.025,142.312,655.195,144.208z"/>
		<path fill="#A8D9DB" d="M632.816,217.138l-25.963-42.078c-1.17-1.896-0.723-3.783,1.173-4.952s3.783-0.723,4.952,1.173
			l25.963,42.078c1.17,1.896,0.633,3.637-1.263,4.807S633.986,219.034,632.816,217.138z"/>
		<path fill="#DBE5D8" d="M633.343,217.138c-1.17-1.896-0.869-3.693,1.027-4.862l42.078-25.963c1.896-1.17,3.783-0.723,4.952,1.173
			c1.17,1.896,0.723,3.783-1.173,4.952l-42.078,25.963C636.254,219.571,634.513,219.034,633.343,217.138z"/>
	</g>
	<path fill="#EA5F69" d="M664.945,186.467v28.545c0,2.228-1.371,3.599-3.599,3.599s-3.599-1.371-3.599-3.599v-28.545
		c0-2.228,1.371-3.427,3.599-3.427S664.945,184.239,664.945,186.467z"/>
</g>
<g>
	<path fill="#EA5F69" d="M285.709,295.974c-5.588,0-10.077-4.672-10.077-10.169c0-5.497,4.489-10.169,10.077-10.169
		c5.497,0,10.169,4.672,10.169,10.169C295.879,291.302,291.206,295.974,285.709,295.974z"/>
	<path fill="#DBE5D8" d="M289.355,250.936v11.054c0,2.229-1.371,3.6-3.6,3.6s-3.6-1.371-3.6-3.6v-11.054
		c0-2.229,1.371-3.429,3.6-3.429S289.355,248.708,289.355,250.936z"/>
	<path fill="#F9F9F9" d="M312.957,263.695l-7.817,7.817c-1.576,1.576-3.515,1.576-5.091,0c-1.576-1.576-1.576-3.515,0-5.091
		l7.817-7.817c1.576-1.576,3.394-1.455,4.97,0.121C314.412,260.301,314.533,262.119,312.957,263.695z"/>
	<path fill="#467C9D" d="M320.624,289.405H309.57c-2.229,0-3.6-1.371-3.6-3.6c0-2.229,1.371-3.6,3.6-3.6h11.054
		c2.229,0,3.429,1.371,3.429,3.6C324.053,288.034,322.853,289.405,320.624,289.405z"/>
	<path fill="#E53946" d="M307.866,313.007l-7.817-7.817c-1.576-1.576-1.576-3.515,0-5.091c1.576-1.576,3.515-1.576,5.091,0
		l7.817,7.817c1.576,1.576,1.455,3.394-0.121,4.97C311.26,314.462,309.442,314.583,307.866,313.007z"/>
	<path fill="#DBE5D8" d="M282.155,320.674V309.62c0-2.229,1.371-3.6,3.6-3.6s3.6,1.371,3.6,3.6v11.054
		c0,2.229-1.371,3.429-3.6,3.429S282.155,322.903,282.155,320.674z"/>
	<path fill="#F9F9F9" d="M258.554,307.916l7.817-7.817c1.576-1.576,3.515-1.576,5.091,0c1.576,1.576,1.576,3.515,0,5.091
		l-7.817,7.817c-1.576,1.576-3.394,1.455-4.97-0.121C257.099,311.31,256.978,309.492,258.554,307.916z"/>
	<path fill="#467C9D" d="M250.886,282.205h11.054c2.229,0,3.6,1.371,3.6,3.6c0,2.229-1.371,3.6-3.6,3.6h-11.054
		c-2.229,0-3.429-1.371-3.429-3.6C247.458,283.577,248.658,282.205,250.886,282.205z"/>
	<path fill="#A8D9DB" d="M263.645,258.604l7.817,7.817c1.576,1.576,1.576,3.515,0,5.091c-1.576,1.576-3.515,1.576-5.091,0
		l-7.817-7.817c-1.576-1.576-1.455-3.394,0.121-4.97C260.251,257.149,262.069,257.028,263.645,258.604z"/>
</g>
<g>
	<path fill="#EA5F69" d="M550.21,190.348c-5.588,0-10.078-4.672-10.078-10.169c0-5.497,4.489-10.169,10.078-10.169
		c5.497,0,10.169,4.672,10.169,10.169C560.379,185.676,555.707,190.348,550.21,190.348z"/>
	<path fill="#DBE5D8" d="M553.856,145.31v11.054c0,2.229-1.371,3.6-3.6,3.6s-3.6-1.371-3.6-3.6V145.31
		c0-2.229,1.371-3.429,3.6-3.429S553.856,143.081,553.856,145.31z"/>
	<path fill="#F9F9F9" d="M577.458,158.068l-7.817,7.817c-1.576,1.576-3.515,1.576-5.091,0c-1.576-1.576-1.576-3.515,0-5.091
		l7.817-7.817c1.576-1.576,3.394-1.455,4.97,0.121C578.912,154.674,579.033,156.493,577.458,158.068z"/>
	<path fill="#467C9D" d="M585.125,183.779h-11.054c-2.229,0-3.6-1.371-3.6-3.6c0-2.229,1.371-3.6,3.6-3.6h11.054
		c2.229,0,3.429,1.371,3.429,3.6C588.554,182.408,587.354,183.779,585.125,183.779z"/>
	<path fill="#E53946" d="M572.366,207.381l-7.817-7.817c-1.576-1.576-1.576-3.515,0-5.091c1.576-1.576,3.515-1.576,5.091,0
		l7.817,7.817c1.576,1.576,1.455,3.394-0.121,4.97C575.761,208.835,573.942,208.956,572.366,207.381z"/>
	<path fill="#DBE5D8" d="M546.656,215.048v-11.054c0-2.229,1.371-3.6,3.6-3.6s3.6,1.371,3.6,3.6v11.054
		c0,2.229-1.371,3.429-3.6,3.429S546.656,217.276,546.656,215.048z"/>
	<path fill="#F9F9F9" d="M523.054,202.289l7.817-7.817c1.576-1.576,3.515-1.576,5.091,0s1.576,3.515,0,5.091l-7.817,7.817
		c-1.576,1.576-3.394,1.455-4.97-0.121S521.478,203.865,523.054,202.289z"/>
	<path fill="#467C9D" d="M515.387,176.579h11.054c2.229,0,3.6,1.371,3.6,3.6c0,2.229-1.371,3.6-3.6,3.6h-11.054
		c-2.229,0-3.429-1.371-3.429-3.6C511.958,177.95,513.158,176.579,515.387,176.579z"/>
	<path fill="#A8D9DB" d="M528.145,152.977l7.817,7.817c1.576,1.576,1.576,3.515,0,5.091s-3.515,1.576-5.091,0l-7.817-7.817
		c-1.576-1.576-1.455-3.394,0.121-4.97S526.57,151.401,528.145,152.977z"/>
</g>
<g>
	<path fill="#EA5F69" d="M743.506,200.517c-5.588,0-10.078-4.672-10.078-10.169s4.489-10.169,10.078-10.169
		c5.497,0,10.169,4.672,10.169,10.169S749.003,200.517,743.506,200.517z"/>
	<path fill="#DBE5D8" d="M747.152,155.479v11.054c0,2.229-1.371,3.6-3.6,3.6s-3.6-1.371-3.6-3.6v-11.054
		c0-2.229,1.371-3.429,3.6-3.429S747.152,153.25,747.152,155.479z"/>
	<path fill="#F9F9F9" d="M770.753,168.238l-7.817,7.817c-1.576,1.576-3.515,1.576-5.091,0c-1.576-1.576-1.576-3.515,0-5.091
		l7.817-7.817c1.576-1.576,3.394-1.455,4.97,0.121C772.208,164.843,772.329,166.662,770.753,168.238z"/>
	<path fill="#467C9D" d="M778.421,193.948h-11.054c-2.229,0-3.6-1.371-3.6-3.6s1.371-3.6,3.6-3.6h11.054
		c2.229,0,3.429,1.371,3.429,3.6S780.649,193.948,778.421,193.948z"/>
	<path fill="#E53946" d="M765.662,217.55l-7.817-7.817c-1.576-1.576-1.576-3.515,0-5.091c1.576-1.576,3.515-1.576,5.091,0
		l7.817,7.817c1.576,1.576,1.455,3.394-0.121,4.97C769.056,219.004,767.238,219.126,765.662,217.55z"/>
	<path fill="#DBE5D8" d="M739.952,225.217v-11.054c0-2.229,1.371-3.6,3.6-3.6s3.6,1.371,3.6,3.6v11.054
		c0,2.229-1.371,3.429-3.6,3.429S739.952,227.446,739.952,225.217z"/>
	<path fill="#F9F9F9" d="M716.35,212.459l7.817-7.817c1.576-1.576,3.515-1.576,5.091,0c1.576,1.576,1.576,3.515,0,5.091
		l-7.817,7.817c-1.576,1.576-3.394,1.455-4.97-0.121C714.896,215.853,714.774,214.034,716.35,212.459z"/>
	<path fill="#467C9D" d="M708.683,186.748h11.054c2.229,0,3.6,1.371,3.6,3.6s-1.371,3.6-3.6,3.6h-11.054
		c-2.229,0-3.429-1.371-3.429-3.6S706.454,186.748,708.683,186.748z"/>
	<path fill="#A8D9DB" d="M721.441,163.146l7.817,7.817c1.576,1.576,1.576,3.515,0,5.091c-1.576,1.576-3.515,1.576-5.091,0
		l-7.817-7.817c-1.576-1.576-1.455-3.394,0.121-4.97C718.047,161.692,719.865,161.57,721.441,163.146z"/>
</g>
<g>
	<path fill="#A8D9DB" d="M66.627,499.016c0-2.705,2.209-5.004,4.959-5.004c2.705,0,5.004,2.299,5.004,5.004
		c0,2.705-2.299,5.005-5.004,5.005C68.836,504.021,66.627,501.721,66.627,499.016z"/>
	<path fill="#467C9D" d="M81.908,521.315c0-2.705,2.209-5.004,4.959-5.004c2.705,0,5.004,2.299,5.004,5.004
		s-2.299,5.005-5.004,5.005C84.117,526.319,81.908,524.02,81.908,521.315z"/>
	<path fill="#EA5F69" d="M102.135,460.51c0-2.705,2.209-5.004,4.959-5.004c2.705,0,5.005,2.299,5.005,5.004
		c0,2.705-2.299,5.005-5.005,5.005C104.344,465.514,102.135,463.215,102.135,460.51z"/>
	<path fill="#DBE5D8" d="M113.259,499.016c0-2.705,2.209-5.004,4.959-5.004c2.705,0,5.004,2.299,5.004,5.004
		c0,2.705-2.299,5.005-5.004,5.005C115.468,504.021,113.259,501.721,113.259,499.016z"/>
	<path fill="#F9F9F9" d="M125.697,478.6c0-2.705,2.209-5.005,4.959-5.005c2.705,0,5.004,2.299,5.004,5.005s-2.299,5.004-5.004,5.004
		C127.906,483.604,125.697,481.305,125.697,478.6z"/>
	<path fill="#E53946" d="M125.697,526.319c0-2.705,2.209-5.005,4.959-5.005c2.705,0,5.004,2.299,5.004,5.005
		c0,2.705-2.299,5.004-5.004,5.004C127.906,531.324,125.697,529.024,125.697,526.319z"/>
</g>
<g>
	<path fill="#A8D9DB" d="M342.18,499.016c0-2.705,2.209-5.004,4.959-5.004c2.705,0,5.004,2.299,5.004,5.004
		c0,2.705-2.299,5.005-5.004,5.005C344.389,504.021,342.18,501.721,342.18,499.016z"/>
	<path fill="#467C9D" d="M357.462,521.315c0-2.705,2.209-5.004,4.959-5.004c2.705,0,5.004,2.299,5.004,5.004
		s-2.299,5.005-5.004,5.005C359.671,526.319,357.462,524.02,357.462,521.315z"/>
	<path fill="#EA5F69" d="M377.688,460.51c0-2.705,2.209-5.004,4.959-5.004c2.705,0,5.005,2.299,5.005,5.004
		c0,2.705-2.299,5.005-5.005,5.005C379.897,465.514,377.688,463.215,377.688,460.51z"/>
	<path fill="#DBE5D8" d="M388.812,499.016c0-2.705,2.209-5.004,4.959-5.004c2.705,0,5.004,2.299,5.004,5.004
		c0,2.705-2.299,5.005-5.004,5.005C391.021,504.021,388.812,501.721,388.812,499.016z"/>
	<path fill="#F9F9F9" d="M401.25,478.6c0-2.705,2.209-5.005,4.959-5.005c2.705,0,5.004,2.299,5.004,5.005s-2.299,5.004-5.004,5.004
		C403.459,483.604,401.25,481.305,401.25,478.6z"/>
	<path fill="#E53946" d="M401.25,526.319c0-2.705,2.209-5.005,4.959-5.005c2.705,0,5.004,2.299,5.004,5.005
		c0,2.705-2.299,5.004-5.004,5.004C403.459,531.324,401.25,529.024,401.25,526.319z"/>
</g>
<g>
	<path fill="#F9F9F9" d="M159.77,524.706c0,2.249-1.384,3.633-3.633,3.633s-3.633-1.384-3.633-3.633v-22.31
		c0-2.249,1.384-3.46,3.633-3.46s3.633,1.211,3.633,3.46V524.706z"/>
	<path fill="#EA5F69" d="M182.581,524.706c0,2.249-1.384,3.633-3.633,3.633s-3.633-1.384-3.633-3.633v-71.141
		c0-2.249,1.384-3.46,3.633-3.46s3.633,1.211,3.633,3.46V524.706z"/>
	<path fill="#E53946" d="M178.948,457.371c-2.249,0-3.633-1.384-3.633-3.633c0-2.249,1.384-3.633,3.633-3.633h24.079
		c2.249,0,3.46,1.384,3.46,3.633c0,2.249-1.211,3.633-3.46,3.633H178.948z"/>
	<path fill="#F9F9F9" d="M206.659,524.706c0,2.249-1.384,3.633-3.633,3.633c-2.249,0-3.633-1.384-3.633-3.633v-71.141
		c0-2.249,1.384-3.46,3.633-3.46c2.249,0,3.633,1.211,3.633,3.46V524.706z"/>
	<path fill="#467C9D" d="M178.948,485.12c-2.249,0-3.633-1.384-3.633-3.633c0-2.249,1.384-3.633,3.633-3.633h48.33
		c2.249,0,3.46,1.384,3.46,3.633c0,2.249-1.211,3.633-3.46,3.633H178.948z"/>
	<path fill="#DBE5D8" d="M156.137,506.202c-2.249,0-3.633-1.384-3.633-3.633c0-2.249,1.384-3.633,3.633-3.633h71.141
		c2.249,0,3.46,1.384,3.46,3.633c0,2.249-1.211,3.633-3.46,3.633H156.137z"/>
	<path fill="#EA5F69" d="M230.738,524.706c0,2.249-1.384,3.633-3.633,3.633c-2.249,0-3.633-1.384-3.633-3.633v-43.393
		c0-2.249,1.384-3.46,3.633-3.46c2.249,0,3.633,1.211,3.633,3.46V524.706z"/>
	<path fill="#A8D9DB" d="M156.137,528.339c-2.249,0-3.633-1.384-3.633-3.633c0-2.249,1.384-3.633,3.633-3.633h71.141
		c2.249,0,3.46,1.384,3.46,3.633c0,2.249-1.211,3.633-3.46,3.633H156.137z"/>
</g>
<g>
	<path fill="#E53946" d="M430.08,522.406l28.325-28.325c1.59-1.59,3.548-1.59,5.138,0c1.591,1.591,1.591,3.548,0,5.138
		l-28.325,28.325c-1.59,1.59-3.425,1.468-5.016-0.122C428.612,525.831,428.49,523.996,430.08,522.406z"/>
	<path fill="#A8D9DB" d="M463.544,492.836c1.591,1.59,1.591,3.548,0,5.138c-1.59,1.59-3.548,1.59-5.138,0l-28.325-28.325
		c-1.59-1.591-1.468-3.426,0.122-5.016c1.591-1.591,3.426-1.713,5.016-0.122L463.544,492.836z"/>
	<path fill="#F9F9F9" d="M499.296,492.836c1.591,1.59,1.591,3.548,0,5.138c-1.59,1.59-3.548,1.59-5.138,0l-28.325-28.325
		c-1.59-1.591-1.468-3.426,0.122-5.016c1.59-1.591,3.426-1.713,5.016-0.122L499.296,492.836z"/>
	<path fill="#DBE5D8" d="M465.833,522.406l28.325-28.325c1.591-1.59,3.548-1.59,5.138,0c1.591,1.591,1.591,3.548,0,5.138
		l-28.325,28.325c-1.59,1.59-3.425,1.468-5.016-0.122C464.365,525.831,464.242,523.996,465.833,522.406z"/>
</g>
<g>
	<path fill="#E53946" d="M790.603,522.406l28.325-28.325c1.59-1.59,3.548-1.59,5.138,0c1.591,1.591,1.591,3.548,0,5.138
		l-28.325,28.325c-1.59,1.59-3.425,1.468-5.016-0.122C789.135,525.832,789.013,523.997,790.603,522.406z"/>
	<path fill="#A8D9DB" d="M824.066,492.836c1.591,1.59,1.591,3.548,0,5.138c-1.59,1.59-3.548,1.59-5.138,0l-28.325-28.325
		c-1.59-1.591-1.468-3.426,0.122-5.016c1.591-1.591,3.426-1.713,5.016-0.122L824.066,492.836z"/>
	<path fill="#F9F9F9" d="M859.819,492.836c1.591,1.59,1.591,3.548,0,5.138c-1.59,1.59-3.548,1.59-5.138,0l-28.325-28.325
		c-1.59-1.591-1.468-3.426,0.122-5.016c1.59-1.591,3.426-1.713,5.016-0.122L859.819,492.836z"/>
	<path fill="#DBE5D8" d="M826.355,522.406l28.325-28.325c1.591-1.59,3.548-1.59,5.138,0c1.591,1.591,1.591,3.548,0,5.138
		l-28.325,28.325c-1.59,1.59-3.425,1.468-5.016-0.122C824.887,525.832,824.765,523.997,826.355,522.406z"/>
</g>
<g>
	<g>
		<path fill="#F9F9F9" d="M303.389,456.423l25.963,42.078c1.17,1.896,0.723,3.783-1.173,4.952c-1.896,1.17-3.783,0.723-4.952-1.173
			l-25.963-42.078c-1.17-1.896-0.633-3.637,1.263-4.807C300.422,454.226,302.219,454.527,303.389,456.423z"/>
		<path fill="#E53946" d="M302.862,456.423c1.17,1.896,0.869,3.693-1.027,4.862l-42.078,25.963c-1.896,1.17-3.783,0.723-4.952-1.173
			c-1.17-1.896-0.723-3.783,1.173-4.952l42.078-25.963C299.951,453.99,301.692,454.527,302.862,456.423z"/>
		<path fill="#A8D9DB" d="M280.483,529.353l-25.963-42.078c-1.17-1.896-0.723-3.783,1.173-4.952s3.783-0.723,4.952,1.173
			l25.963,42.078c1.17,1.896,0.633,3.637-1.263,4.807C283.449,531.55,281.653,531.249,280.483,529.353z"/>
		<path fill="#DBE5D8" d="M281.01,529.354c-1.17-1.896-0.869-3.693,1.027-4.862l42.078-25.963c1.896-1.17,3.783-0.723,4.952,1.173
			c1.17,1.896,0.723,3.783-1.173,4.952l-42.078,25.963C283.921,531.786,282.18,531.25,281.01,529.354z"/>
	</g>
	<path fill="#EA5F69" d="M312.611,498.682v28.545c0,2.228-1.371,3.599-3.599,3.599s-3.599-1.371-3.599-3.599v-28.545
		c0-2.228,1.371-3.427,3.599-3.427S312.611,496.454,312.611,498.682z"/>
</g>
<g>
	<g>
		<path fill="#F9F9F9" d="M655.722,456.423l25.963,42.078c1.17,1.896,0.723,3.783-1.173,4.952c-1.896,1.17-3.783,0.723-4.952-1.173
			l-25.963-42.078c-1.17-1.896-0.633-3.637,1.263-4.807C652.756,454.226,654.552,454.527,655.722,456.423z"/>
		<path fill="#E53946" d="M655.195,456.423c1.17,1.896,0.869,3.693-1.027,4.862l-42.078,25.963c-1.896,1.17-3.783,0.723-4.952-1.173
			c-1.17-1.896-0.723-3.783,1.173-4.952l42.078-25.963C652.284,453.99,654.025,454.527,655.195,456.423z"/>
		<path fill="#A8D9DB" d="M632.816,529.353l-25.963-42.078c-1.17-1.896-0.723-3.783,1.173-4.952s3.783-0.723,4.952,1.173
			l25.963,42.078c1.17,1.896,0.633,3.637-1.263,4.807S633.986,531.249,632.816,529.353z"/>
		<path fill="#DBE5D8" d="M633.343,529.354c-1.17-1.896-0.869-3.693,1.027-4.862l42.078-25.963c1.896-1.17,3.783-0.723,4.952,1.173
			c1.17,1.896,0.723,3.783-1.173,4.952l-42.078,25.963C636.254,531.786,634.513,531.25,633.343,529.354z"/>
	</g>
	<path fill="#EA5F69" d="M664.945,498.682v28.545c0,2.228-1.371,3.599-3.599,3.599s-3.599-1.371-3.599-3.599v-28.545
		c0-2.228,1.371-3.427,3.599-3.427S664.945,496.454,664.945,498.682z"/>
</g>
<g>
	<path fill="#EA5F69" d="M550.21,502.563c-5.588,0-10.078-4.672-10.078-10.169c0-5.497,4.489-10.169,10.078-10.169
		c5.497,0,10.169,4.672,10.169,10.169C560.379,497.891,555.707,502.563,550.21,502.563z"/>
	<path fill="#DBE5D8" d="M553.856,457.525v11.054c0,2.229-1.371,3.6-3.6,3.6s-3.6-1.371-3.6-3.6v-11.054
		c0-2.229,1.371-3.429,3.6-3.429S553.856,455.297,553.856,457.525z"/>
	<path fill="#F9F9F9" d="M577.458,470.284l-7.817,7.817c-1.576,1.576-3.515,1.576-5.091,0c-1.576-1.576-1.576-3.515,0-5.091
		l7.817-7.817c1.576-1.576,3.394-1.455,4.97,0.121C578.912,466.89,579.033,468.708,577.458,470.284z"/>
	<path fill="#467C9D" d="M585.125,495.994h-11.054c-2.229,0-3.6-1.371-3.6-3.6c0-2.229,1.371-3.6,3.6-3.6h11.054
		c2.229,0,3.429,1.371,3.429,3.6C588.554,494.623,587.354,495.994,585.125,495.994z"/>
	<path fill="#E53946" d="M572.366,519.596l-7.817-7.817c-1.576-1.576-1.576-3.515,0-5.091c1.576-1.576,3.515-1.576,5.091,0
		l7.817,7.817c1.576,1.576,1.455,3.394-0.121,4.97C575.761,521.051,573.942,521.172,572.366,519.596z"/>
	<path fill="#DBE5D8" d="M546.656,527.263v-11.054c0-2.229,1.371-3.6,3.6-3.6s3.6,1.371,3.6,3.6v11.054
		c0,2.229-1.371,3.429-3.6,3.429S546.656,529.492,546.656,527.263z"/>
	<path fill="#F9F9F9" d="M523.054,514.505l7.817-7.817c1.576-1.576,3.515-1.576,5.091,0c1.576,1.576,1.576,3.515,0,5.091
		l-7.817,7.817c-1.576,1.576-3.394,1.455-4.97-0.121C521.6,517.899,521.478,516.081,523.054,514.505z"/>
	<path fill="#467C9D" d="M515.387,488.794h11.054c2.229,0,3.6,1.371,3.6,3.6c0,2.229-1.371,3.6-3.6,3.6h-11.054
		c-2.229,0-3.429-1.371-3.429-3.6C511.958,490.166,513.158,488.794,515.387,488.794z"/>
	<path fill="#A8D9DB" d="M528.145,465.193l7.817,7.817c1.576,1.576,1.576,3.515,0,5.091c-1.576,1.576-3.515,1.576-5.091,0
		l-7.817-7.817c-1.576-1.576-1.455-3.394,0.121-4.97C524.751,463.738,526.57,463.617,528.145,465.193z"/>
</g>
<g>
	<path fill="#EA5F69" d="M743.506,512.733c-5.588,0-10.078-4.672-10.078-10.169s4.489-10.169,10.078-10.169
		c5.497,0,10.169,4.672,10.169,10.169S749.003,512.733,743.506,512.733z"/>
	<path fill="#DBE5D8" d="M747.152,467.694v11.054c0,2.229-1.371,3.6-3.6,3.6s-3.6-1.371-3.6-3.6v-11.054
		c0-2.229,1.371-3.429,3.6-3.429S747.152,465.466,747.152,467.694z"/>
	<path fill="#F9F9F9" d="M770.753,480.453l-7.817,7.817c-1.576,1.576-3.515,1.576-5.091,0c-1.576-1.576-1.576-3.515,0-5.091
		l7.817-7.817c1.576-1.576,3.394-1.455,4.97,0.121C772.208,477.059,772.329,478.877,770.753,480.453z"/>
	<path fill="#467C9D" d="M778.421,506.163h-11.054c-2.229,0-3.6-1.371-3.6-3.6s1.371-3.6,3.6-3.6h11.054
		c2.229,0,3.429,1.371,3.429,3.6S780.649,506.163,778.421,506.163z"/>
	<path fill="#E53946" d="M765.662,529.765l-7.817-7.817c-1.576-1.576-1.576-3.515,0-5.091c1.576-1.576,3.515-1.576,5.091,0
		l7.817,7.817c1.576,1.576,1.455,3.394-0.121,4.97C769.056,531.22,767.238,531.341,765.662,529.765z"/>
	<path fill="#DBE5D8" d="M739.952,537.432v-11.054c0-2.229,1.371-3.6,3.6-3.6s3.6,1.371,3.6,3.6v11.054
		c0,2.229-1.371,3.429-3.6,3.429S739.952,539.661,739.952,537.432z"/>
	<path fill="#F9F9F9" d="M716.35,524.674l7.817-7.817c1.576-1.576,3.515-1.576,5.091,0c1.576,1.576,1.576,3.515,0,5.091
		l-7.817,7.817c-1.576,1.576-3.394,1.455-4.97-0.121C714.896,528.068,714.774,526.25,716.35,524.674z"/>
	<path fill="#467C9D" d="M708.683,498.963h11.054c2.229,0,3.6,1.371,3.6,3.6s-1.371,3.6-3.6,3.6h-11.054
		c-2.229,0-3.429-1.371-3.429-3.6S706.454,498.963,708.683,498.963z"/>
	<path fill="#A8D9DB" d="M721.441,475.362l7.817,7.817c1.576,1.576,1.576,3.515,0,5.091c-1.576,1.576-3.515,1.576-5.091,0
		l-7.817-7.817c-1.576-1.576-1.455-3.394,0.121-4.97C718.047,473.907,719.865,473.786,721.441,475.362z"/>
</g>
</svg>
