<?xml version="1.0" encoding="utf-8"?>
<!-- Generator: Adobe Illustrator 17.0.0, SVG Export Plug-In . SVG Version: 6.00 Build 0)  -->
<!DOCTYPE svg PUBLIC "-//W3C//DTD SVG 1.1//EN" "http://www.w3.org/Graphics/SVG/1.1/DTD/svg11.dtd">
<svg version="1.1" id="Layer_1" xmlns="http://www.w3.org/2000/svg" xmlns:xlink="http://www.w3.org/1999/xlink" x="0px" y="0px"
	 width="1024px" height="563px" viewBox="0 0 1024 563" enable-background="new 0 0 1024 563" xml:space="preserve">
<g>
	<path fill="#EA5F69" d="M66.627,186.801c0-2.705,2.209-5.004,4.959-5.004c2.705,0,5.004,2.299,5.004,5.004
		c0,2.705-2.299,5.005-5.004,5.005C68.836,191.805,66.627,189.506,66.627,186.801z"/>
	<path fill="#EA5F69" d="M81.908,209.099c0-2.705,2.209-5.004,4.959-5.004c2.705,0,5.004,2.299,5.004,5.004
		c0,2.705-2.299,5.005-5.004,5.005C84.117,214.104,81.908,211.804,81.908,209.099z"/>
	<path fill="#EA5F69" d="M102.135,148.294c0-2.705,2.209-5.004,4.959-5.004c2.705,0,5.005,2.299,5.005,5.004
		c0,2.705-2.299,5.005-5.005,5.005C104.344,153.299,102.135,150.999,102.135,148.294z"/>
	<path fill="#EA5F69" d="M113.259,186.801c0-2.705,2.209-5.004,4.959-5.004c2.705,0,5.004,2.299,5.004,5.004
		c0,2.705-2.299,5.005-5.004,5.005C115.468,191.805,113.259,189.506,113.259,186.801z"/>
	<path fill="#EA5F69" d="M125.697,166.384c0-2.705,2.209-5.005,4.959-5.005c2.705,0,5.004,2.299,5.004,5.005
		s-2.299,5.004-5.004,5.004C127.906,171.389,125.697,169.089,125.697,166.384z"/>
	<path fill="#EA5F69" d="M125.697,214.104c0-2.705,2.209-5.005,4.959-5.005c2.705,0,5.004,2.299,5.004,5.005
		c0,2.705-2.299,5.004-5.004,5.004C127.906,219.108,125.697,216.809,125.697,214.104z"/>
</g>
<g>
	<path fill="#EA5F69" d="M68.217,421.444l28.325-28.325c1.59-1.59,3.548-1.59,5.138,0c1.591,1.591,1.591,3.548,0,5.138
		l-28.325,28.325c-1.59,1.59-3.425,1.468-5.016-0.122C66.749,424.869,66.627,423.034,68.217,421.444z"/>
	<path fill="#EA5F69" d="M101.68,391.873c1.591,1.59,1.591,3.548,0,5.138c-1.59,1.59-3.548,1.59-5.138,0l-28.325-28.325
		c-1.59-1.591-1.468-3.426,0.122-5.016c1.591-1.591,3.426-1.713,5.016-0.122L101.68,391.873z"/>
	<path fill="#EA5F69" d="M137.433,391.873c1.591,1.59,1.591,3.548,0,5.138c-1.59,1.59-3.548,1.59-5.138,0l-28.325-28.325
		c-1.59-1.591-1.468-3.426,0.122-5.016c1.59-1.591,3.426-1.713,5.016-0.122L137.433,391.873z"/>
	<path fill="#EA5F69" d="M103.97,421.444l28.325-28.325c1.591-1.59,3.548-1.59,5.138,0c1.591,1.591,1.591,3.548,0,5.138
		l-28.325,28.325c-1.59,1.59-3.425,1.468-5.016-0.122C102.502,424.869,102.379,423.034,103.97,421.444z"/>
</g>
<g>
	<path fill="#EA5F69" d="M68.217,315.817l28.325-28.325c1.59-1.59,3.548-1.59,5.138,0c1.591,1.591,1.591,3.548,0,5.138
		l-28.325,28.325c-1.59,1.59-3.425,1.468-5.016-0.122C66.749,319.243,66.627,317.408,68.217,315.817z"/>
	<path fill="#EA5F69" d="M101.68,286.247c1.591,1.59,1.591,3.548,0,5.138c-1.59,1.59-3.548,1.59-5.138,0L68.217,263.06
		c-1.59-1.591-1.468-3.426,0.122-5.016c1.591-1.591,3.426-1.713,5.016-0.122L101.68,286.247z"/>
	<path fill="#EA5F69" d="M137.433,286.247c1.591,1.59,1.591,3.548,0,5.138c-1.59,1.59-3.548,1.59-5.138,0L103.97,263.06
		c-1.59-1.591-1.468-3.426,0.122-5.016c1.59-1.591,3.426-1.713,5.016-0.122L137.433,286.247z"/>
	<path fill="#EA5F69" d="M103.97,315.817l28.325-28.325c1.591-1.59,3.548-1.59,5.138,0c1.591,1.591,1.591,3.548,0,5.138
		l-28.325,28.325c-1.59,1.59-3.425,1.468-5.016-0.122C102.502,319.243,102.379,317.408,103.97,315.817z"/>
</g>
<g>
	<path fill="#EA5F69" d="M68.217,111.552l28.325-28.325c1.59-1.59,3.548-1.59,5.138,0c1.591,1.591,1.591,3.548,0,5.138
		l-28.325,28.325c-1.59,1.59-3.425,1.468-5.016-0.122C66.749,114.978,66.627,113.143,68.217,111.552z"/>
	<path fill="#EA5F69" d="M101.68,81.982c1.591,1.59,1.591,3.548,0,5.138c-1.59,1.59-3.548,1.59-5.138,0L68.217,58.795
		c-1.59-1.591-1.468-3.426,0.122-5.016c1.591-1.591,3.426-1.713,5.016-0.122L101.68,81.982z"/>
	<path fill="#EA5F69" d="M137.433,81.982c1.591,1.59,1.591,3.548,0,5.138c-1.59,1.59-3.548,1.59-5.138,0L103.97,58.795
		c-1.59-1.591-1.468-3.426,0.122-5.016c1.59-1.591,3.426-1.713,5.016-0.122L137.433,81.982z"/>
	<path fill="#EA5F69" d="M103.97,111.552l28.325-28.325c1.591-1.59,3.548-1.59,5.138,0c1.591,1.591,1.591,3.548,0,5.138
		l-28.325,28.325c-1.59,1.59-3.425,1.468-5.016-0.122C102.502,114.978,102.379,113.143,103.97,111.552z"/>
</g>
<g>
	<path fill="#EA5F69" d="M66.627,499.016c0-2.705,2.209-5.004,4.959-5.004c2.705,0,5.004,2.299,5.004,5.004
		c0,2.705-2.299,5.005-5.004,5.005C68.836,504.021,66.627,501.721,66.627,499.016z"/>
	<path fill="#EA5F69" d="M81.908,521.315c0-2.705,2.209-5.004,4.959-5.004c2.705,0,5.004,2.299,5.004,5.004
		s-2.299,5.005-5.004,5.005C84.117,526.319,81.908,524.02,81.908,521.315z"/>
	<path fill="#EA5F69" d="M102.135,460.51c0-2.705,2.209-5.004,4.959-5.004c2.705,0,5.005,2.299,5.005,5.004
		c0,2.705-2.299,5.005-5.005,5.005C104.344,465.514,102.135,463.215,102.135,460.51z"/>
	<path fill="#EA5F69" d="M113.259,499.016c0-2.705,2.209-5.004,4.959-5.004c2.705,0,5.004,2.299,5.004,5.004
		c0,2.705-2.299,5.005-5.004,5.005C115.468,504.021,113.259,501.721,113.259,499.016z"/>
	<path fill="#EA5F69" d="M125.697,478.6c0-2.705,2.209-5.005,4.959-5.005c2.705,0,5.004,2.299,5.004,5.005s-2.299,5.004-5.004,5.004
		C127.906,483.604,125.697,481.305,125.697,478.6z"/>
	<path fill="#EA5F69" d="M125.697,526.319c0-2.705,2.209-5.005,4.959-5.005c2.705,0,5.004,2.299,5.004,5.005
		c0,2.705-2.299,5.004-5.004,5.004C127.906,531.324,125.697,529.024,125.697,526.319z"/>
</g>
</svg>
