<?xml version="1.0" encoding="utf-8"?>
<!-- Generator: Adobe Illustrator 17.0.0, SVG Export Plug-In . SVG Version: 6.00 Build 0)  -->
<!DOCTYPE svg PUBLIC "-//W3C//DTD SVG 1.1//EN" "http://www.w3.org/Graphics/SVG/1.1/DTD/svg11.dtd">
<svg version="1.1" id="Layer_1" xmlns="http://www.w3.org/2000/svg" xmlns:xlink="http://www.w3.org/1999/xlink" x="0px" y="0px"
	 width="1017px" height="265px" viewBox="0 0 1017 265" enable-background="new 0 0 1017 265" xml:space="preserve">
<path id="Fill-3" fill="#FFFFFF" d="M709.704,250.918c-2.541,0-4.581-2.125-4.581-4.625c0-2.498,2.04-4.623,4.581-4.623
	c2.499,0,4.623,2.125,4.623,4.623C714.327,248.793,712.203,250.918,709.704,250.918"/>
<g id="Group-7" transform="translate(1760.638710, 942.950979)">
	<g id="Clip-6">
	</g>
	<defs>
		<filter id="Adobe_OpacityMaskFilter" filterUnits="userSpaceOnUse" x="-1099.677" y="-606.762" width="9.204" height="9.248">
			<feColorMatrix  type="matrix" values="1 0 0 0 0  0 1 0 0 0  0 0 1 0 0  0 0 0 1 0"/>
		</filter>
	</defs>
	<mask maskUnits="userSpaceOnUse" x="-1099.677" y="-606.762" width="9.204" height="9.248" id="mask-2_2_">
		<g filter="url(#Adobe_OpacityMaskFilter)">
			<polygon id="path-1_2_" fill="#FFFFFF" points="-1090.473,-597.514 -1099.677,-597.514 -1099.677,-606.762 -1090.473,-606.762 
							"/>
		</g>
	</mask>
	<path id="Fill-5" mask="url(#mask-2_2_)" fill="#FFFFFF" d="M-1095.096-597.514c-2.541,0-4.581-2.125-4.581-4.625
		c0-2.498,2.04-4.623,4.581-4.623c2.499,0,4.623,2.125,4.623,4.623C-1090.473-599.639-1092.597-597.514-1095.096-597.514"/>
</g>
<path id="Fill-10" fill="#FFFFFF" d="M870.77,295.036c-2.541,0-4.581-2.125-4.581-4.625s2.04-4.625,4.581-4.625
	c2.499,0,4.623,2.125,4.623,4.625S873.269,295.036,870.77,295.036"/>
<path id="Fill-12" fill="#FFFFFF" d="M-52.727-62.639c-2.541,0-4.581-2.125-4.581-4.625c0-2.498,2.04-4.623,4.581-4.623
	c2.499,0,4.623,2.125,4.623,4.623C-48.104-64.764-50.228-62.639-52.727-62.639"/>
<path id="Fill-14" fill="#FFFFFF" d="M212.226,145.788c-4.537,0-8.182-3.796-8.182-8.26c0-4.464,3.645-8.258,8.182-8.258
	c4.462,0,8.256,3.794,8.256,8.258S216.688,145.788,212.226,145.788"/>
<path id="Fill-16" fill="#FFFFFF" d="M1014.505,98.016h65.705c2.078,0,3.357,1.279,3.357,3.358c0,2.077-1.279,3.357-3.357,3.357
	h-65.705c-2.078,0-3.196-1.279-3.196-3.357C1011.308,99.295,1012.426,98.016,1014.505,98.016"/>
<path id="Fill-18" fill="#FFFFFF" d="M286.632,40.053l32.599,32.616c1.47,1.469,1.47,3.278,0,4.747
	c-1.468,1.471-3.275,1.471-4.745,0L281.887,44.8c-1.47-1.469-1.357-3.163,0.113-4.634C283.469,38.697,285.162,38.584,286.632,40.053
	"/>
<path id="Fill-20" fill="#FFFFFF" d="M142.528,24.413c1.47,1.469,1.583,3.165,0.113,4.634l-32.599,32.616
	c-1.47,1.471-3.278,1.471-4.747,0c-1.47-1.471-1.47-3.278,0-4.749l32.601-32.615C139.364,22.83,141.058,22.943,142.528,24.413"/>
<path id="Fill-27" fill="#FFFFFF" d="M860.354,180.394c-1.47-1.469-1.583-3.165-0.113-4.634l26.161-26.173
	c1.468-1.471,3.277-1.471,4.745,0c1.47,1.469,1.47,3.278,0,4.747l-26.161,26.173C863.518,181.978,861.822,181.865,860.354,180.394"
	/>
<path id="Fill-31" fill="#FFFFFF" d="M1055.723,44.36v20.615c0,2.079-1.279,3.357-3.355,3.357c-2.078,0-3.357-1.277-3.357-3.357
	V44.36c0-2.079,1.279-3.196,3.357-3.196C1054.444,41.164,1055.723,42.281,1055.723,44.36"/>
<path id="Fill-33" fill="#FFFFFF" d="M83.135,183.346v65.736c0,2.079-1.279,3.358-3.355,3.358c-2.078,0-3.357-1.279-3.357-3.358
	v-65.736c0-2.079,1.279-3.198,3.357-3.198C81.856,180.148,83.135,181.267,83.135,183.346"/>
<path id="Fill-35" fill="#FFFFFF" d="M-5.188,199.098v65.738c0,2.077-1.279,3.357-3.357,3.357c-2.076,0-3.355-1.279-3.355-3.357
	v-65.738c0-2.077,1.279-3.196,3.355-3.196C-6.467,195.902-5.188,197.021-5.188,199.098"/>
<path id="Fill-37" fill="#FFFFFF" d="M1006.631,160.011v40.095c0,2.079-1.279,3.358-3.355,3.358c-2.078,0-3.357-1.279-3.357-3.358
	v-40.095c0-2.079,1.279-3.198,3.357-3.198C1005.352,156.813,1006.631,157.932,1006.631,160.011"/>
<path id="Fill-39" fill="#FFFFFF" d="M314.695,392.879h-44.636c-2.078,0-3.357-1.279-3.357-3.357c0-2.079,1.279-3.358,3.357-3.358
	h44.637c2.078,0,3.195,1.279,3.195,3.358C317.89,391.6,316.773,392.879,314.695,392.879"/>
<path id="Fill-43" fill="#FFFFFF" d="M1129.461-36.414h-65.704c-2.078,0-3.357-1.279-3.357-3.357c0-2.079,1.279-3.358,3.357-3.358
	h65.704c2.078,0,3.197,1.279,3.197,3.358C1132.658-37.693,1131.54-36.414,1129.461-36.414"/>
<path id="Fill-45" fill="#FFFFFF" d="M992.047,215.003h-65.706c-2.076,0-3.355-1.279-3.355-3.357c0-2.079,1.279-3.358,3.355-3.358
	h65.706c2.076,0,3.195,1.279,3.195,3.358C995.241,213.724,994.123,215.003,992.047,215.003"/>
<path id="Fill-47" fill="#FFFFFF" d="M831.517-77.547c-5.209,0-9.393-4.357-9.393-9.483c0-5.128,4.184-9.485,9.393-9.485
	c5.124,0,9.479,4.357,9.479,9.485C840.996-81.904,836.641-77.547,831.517-77.547"/>
<path id="Fill-49" fill="#FFFFFF" d="M-108.478,55.216c-5.209,0-9.395-4.357-9.395-9.483s4.186-9.483,9.395-9.483
	c5.124,0,9.478,4.357,9.478,9.483C-98.999,50.859-103.354,55.216-108.478,55.216"/>
<path id="Fill-57" fill="#FFFFFF" d="M921.181-17.972l-7.286-7.289c-1.47-1.471-1.47-3.278,0-4.749c1.468-1.471,3.275-1.471,4.745,0
	l7.285,7.291c1.47,1.469,1.357,3.163-0.113,4.634C924.345-16.616,922.649-16.503,921.181-17.972"/>
<path id="Fill-59" fill="#FFFFFF" d="M911.596,264.139v-10.308c0-2.079,1.279-3.358,3.355-3.358c2.078,0,3.357,1.279,3.357,3.358
	v10.308c0,2.079-1.279,3.196-3.357,3.196C912.875,267.336,911.596,266.219,911.596,264.139"/>
<path id="Fill-61" fill="#FFFFFF" d="M781.355,24.54l7.286-7.289c1.47-1.471,3.277-1.471,4.745,0c1.47,1.469,1.47,3.278,0,4.747
	l-7.286,7.289c-1.468,1.471-3.162,1.358-4.632-0.113C779.998,27.705,779.885,26.01,781.355,24.54"/>
<path id="Fill-63" fill="#FFFFFF" d="M792.816,179.924h10.303c2.078,0,3.357,1.279,3.357,3.357c0,2.079-1.279,3.358-3.357,3.358
	h-10.303c-2.078,0-3.195-1.279-3.195-3.358C789.621,181.203,790.738,179.924,792.816,179.924"/>
<path id="Fill-67" fill="#FFFFFF" d="M1146.582-55.458c-1.796-1.797-1.738-4.743,0.029-6.509c1.767-1.768,4.712-1.828,6.506-0.031
	c1.769,1.768,1.769,4.772,0,6.54C1151.353-53.69,1148.349-53.69,1146.582-55.458"/>
<g id="Group-75" transform="translate(2634.763441, 393.158694)">
	<g id="Clip-74">
	</g>
	<defs>
		<filter id="Adobe_OpacityMaskFilter_1_" filterUnits="userSpaceOnUse" x="-1414.667" y="-408.918" width="6.712" height="16.864">
			<feColorMatrix  type="matrix" values="1 0 0 0 0  0 1 0 0 0  0 0 1 0 0  0 0 0 1 0"/>
		</filter>
	</defs>
	<mask maskUnits="userSpaceOnUse" x="-1414.667" y="-408.918" width="6.712" height="16.864" id="mask-4_2_">
		<g filter="url(#Adobe_OpacityMaskFilter_1_)">
			<polygon id="path-3_2_" fill="#FFFFFF" points="-1407.955,-408.918 -1407.955,-392.053 -1414.667,-392.053 -1414.667,-408.918 
							"/>
		</g>
	</mask>
	<path id="Fill-73" mask="url(#mask-4_2_)" fill="#FFFFFF" d="M-1407.955-405.72v10.308c0,2.077-1.279,3.358-3.355,3.358
		c-2.078,0-3.357-1.281-3.357-3.358v-10.308c0-2.079,1.279-3.198,3.357-3.198C-1409.233-408.918-1407.955-407.799-1407.955-405.72"
		/>
</g>
<path id="Fill-76" fill="#FFFFFF" d="M847.51,347.651l24.21,39.255c1.091,1.769,0.674,3.53-1.095,4.621
	c-1.768,1.09-3.528,0.674-4.617-1.095l-24.21-39.255c-1.091-1.769-0.59-3.393,1.177-4.485
	C844.743,345.601,846.419,345.883,847.51,347.651"/>
<path id="Fill-78" fill="#FFFFFF" d="M367.132,13.454c1.091,1.769,0.811,3.446-0.958,4.536l-39.236,24.221
	c-1.769,1.092-3.526,0.674-4.617-1.093c-1.091-1.769-0.674-3.53,1.093-4.621l39.236-24.22
	C364.418,11.184,366.041,11.685,367.132,13.454"/>
<path id="Fill-80" fill="#FFFFFF" d="M26.294,414.316l-24.21-39.255c-1.091-1.769-0.674-3.53,1.095-4.621
	c1.767-1.09,3.526-0.674,4.617,1.095l24.21,39.255c1.091,1.769,0.59,3.393-1.178,4.485
	C29.061,416.366,27.385,416.083,26.294,414.316"/>
<path id="Fill-82" fill="#FFFFFF" d="M1113.376,288.46c-1.091-1.769-0.809-3.446,0.958-4.537l39.236-24.22
	c1.769-1.091,3.526-0.674,4.619,1.093c1.089,1.769,0.674,3.53-1.095,4.619l-39.236,24.221
	C1116.09,290.729,1114.467,290.228,1113.376,288.46"/>
<path id="Fill-84" fill="#FFFFFF" d="M1183.278,229.757v26.63c0,2.077-1.279,3.357-3.355,3.357c-2.078,0-3.357-1.279-3.357-3.357
	v-26.63c0-2.079,1.279-3.198,3.357-3.198C1181.999,226.559,1183.278,227.678,1183.278,229.757"/>
<rect fill="none" width="1017" height="265"/>
</svg>
