<?xml version="1.0" encoding="utf-8"?>
<!-- Generator: Adobe Illustrator 17.0.0, SVG Export Plug-In . SVG Version: 6.00 Build 0)  -->
<!DOCTYPE svg PUBLIC "-//W3C//DTD SVG 1.1//EN" "http://www.w3.org/Graphics/SVG/1.1/DTD/svg11.dtd">
<svg version="1.1" id="particles1" xmlns="http://www.w3.org/2000/svg" xmlns:xlink="http://www.w3.org/1999/xlink" x="0px" y="0px"
	 width="1200px" height="664.554px" viewBox="0 0 1200 664.554" enable-background="new 0 0 1200 664.554" xml:space="preserve">
<path id="Fill-3" fill="#FAFBF9" d="M724.015,243.183c-2.541,0-4.581-2.125-4.581-4.625c0-2.498,2.04-4.623,4.581-4.623
	c2.499,0,4.623,2.125,4.623,4.623C728.638,241.058,726.514,243.183,724.015,243.183"/>
<g id="Group-7" transform="translate(1760.638710, 942.950979)">
	<g id="Clip-6">
	</g>
	<defs>
		<filter id="Adobe_OpacityMaskFilter" filterUnits="userSpaceOnUse" x="-1085.366" y="-614.497" width="9.204" height="9.248">
			<feColorMatrix  type="matrix" values="1 0 0 0 0  0 1 0 0 0  0 0 1 0 0  0 0 0 1 0"/>
		</filter>
	</defs>
	<mask maskUnits="userSpaceOnUse" x="-1085.366" y="-614.497" width="9.204" height="9.248" id="mask-2_4_">
		<g filter="url(#Adobe_OpacityMaskFilter)">
			<polygon id="path-1_4_" fill="#FFFFFF" points="-1076.162,-605.249 -1085.366,-605.249 -1085.366,-614.497 -1076.162,-614.497 
							"/>
		</g>
	</mask>
	<path id="Fill-5" mask="url(#mask-2_4_)" fill="#FAFBF9" d="M-1080.785-605.249c-2.541,0-4.581-2.125-4.581-4.625
		c0-2.498,2.04-4.623,4.581-4.623c2.499,0,4.623,2.125,4.623,4.623C-1076.162-607.374-1078.286-605.249-1080.785-605.249"/>
</g>
<path id="Fill-10" fill="#FAFBF9" d="M885.081,287.301c-2.541,0-4.581-2.125-4.581-4.625s2.04-4.625,4.581-4.625
	c2.499,0,4.623,2.125,4.623,4.625S887.58,287.301,885.081,287.301"/>
<path id="Fill-14" fill="#FAFBF9" d="M226.537,138.053c-4.537,0-8.182-3.796-8.182-8.26c0-4.464,3.645-8.258,8.182-8.258
	c4.462,0,8.256,3.794,8.256,8.258S230.999,138.053,226.537,138.053"/>
<path id="Fill-16" fill="#FAFBF9" d="M1028.816,90.281h65.705c2.078,0,3.357,1.279,3.357,3.358c0,2.077-1.279,3.357-3.357,3.357
	h-65.705c-2.078,0-3.196-1.279-3.196-3.357C1025.619,91.56,1026.737,90.281,1028.816,90.281"/>
<path id="Fill-18" fill="#FAFBF9" d="M300.943,32.318l32.599,32.616c1.47,1.469,1.47,3.278,0,4.747
	c-1.468,1.471-3.275,1.471-4.745,0l-32.599-32.616c-1.47-1.469-1.357-3.163,0.113-4.634
	C297.78,30.962,299.473,30.849,300.943,32.318"/>
<path id="Fill-20" fill="#FAFBF9" d="M156.839,16.678c1.47,1.469,1.583,3.165,0.113,4.634l-32.599,32.616
	c-1.47,1.471-3.278,1.471-4.747,0c-1.47-1.471-1.47-3.278,0-4.749l32.601-32.615C153.675,15.095,155.369,15.208,156.839,16.678"/>
<path id="Fill-27" fill="#FAFBF9" d="M874.665,172.659c-1.47-1.469-1.583-3.165-0.113-4.634l26.161-26.173
	c1.468-1.471,3.277-1.471,4.745,0c1.47,1.469,1.47,3.278,0,4.747l-26.161,26.173C877.829,174.243,876.133,174.13,874.665,172.659"/>
<path id="Fill-31" fill="#FAFBF9" d="M1070.034,36.625V57.24c0,2.079-1.279,3.357-3.355,3.357c-2.078,0-3.357-1.277-3.357-3.357
	V36.625c0-2.079,1.279-3.196,3.357-3.196C1068.755,33.429,1070.034,34.546,1070.034,36.625"/>
<path id="Fill-33" fill="#FAFBF9" d="M97.446,175.611v65.736c0,2.079-1.279,3.358-3.355,3.358c-2.078,0-3.357-1.279-3.357-3.358
	v-65.736c0-2.079,1.279-3.198,3.357-3.198C96.167,172.413,97.446,173.532,97.446,175.611"/>
<path id="Fill-35" fill="#FAFBF9" d="M9.123,191.363v65.738c0,2.077-1.279,3.357-3.357,3.357c-2.076,0-3.355-1.279-3.355-3.357
	v-65.738c0-2.077,1.279-3.196,3.355-3.196C7.844,188.167,9.123,189.286,9.123,191.363"/>
<path id="Fill-37" fill="#FAFBF9" d="M1020.942,152.276v40.095c0,2.079-1.279,3.358-3.355,3.358c-2.078,0-3.357-1.279-3.357-3.358
	v-40.095c0-2.079,1.279-3.198,3.357-3.198C1019.663,149.078,1020.942,150.197,1020.942,152.276"/>
<path id="Fill-39" fill="#FAFBF9" d="M329.006,385.144H284.37c-2.078,0-3.357-1.279-3.357-3.357c0-2.079,1.279-3.358,3.357-3.358
	h44.637c2.078,0,3.195,1.279,3.195,3.358C332.201,383.865,331.084,385.144,329.006,385.144"/>
<path id="Fill-45" fill="#FAFBF9" d="M1006.358,207.268h-65.706c-2.076,0-3.355-1.279-3.355-3.357c0-2.079,1.279-3.358,3.355-3.358
	h65.706c2.076,0,3.195,1.279,3.195,3.358C1009.552,205.989,1008.434,207.268,1006.358,207.268"/>
<path id="Fill-59" fill="#FAFBF9" d="M925.907,256.404v-10.308c0-2.079,1.279-3.358,3.355-3.358c2.078,0,3.357,1.279,3.357,3.358
	v10.308c0,2.079-1.279,3.196-3.357,3.196C927.186,259.601,925.907,258.484,925.907,256.404"/>
<path id="Fill-61" fill="#FAFBF9" d="M795.666,16.805l7.286-7.289c1.47-1.471,3.277-1.471,4.745,0c1.47,1.469,1.47,3.278,0,4.747
	l-7.286,7.289c-1.468,1.471-3.162,1.358-4.632-0.113C794.309,19.97,794.196,18.275,795.666,16.805"/>
<path id="Fill-63" fill="#FAFBF9" d="M807.127,172.189h10.303c2.078,0,3.357,1.279,3.357,3.357c0,2.079-1.279,3.358-3.357,3.358
	h-10.303c-2.078,0-3.195-1.279-3.195-3.358C803.932,173.468,805.049,172.189,807.127,172.189"/>
<path id="Fill-76" fill="#FAFBF9" d="M861.821,339.916l24.21,39.255c1.091,1.769,0.674,3.53-1.095,4.621
	c-1.768,1.09-3.528,0.674-4.617-1.095l-24.21-39.255c-1.091-1.769-0.59-3.393,1.177-4.485
	C859.054,337.866,860.73,338.148,861.821,339.916"/>
<path id="Fill-80" fill="#FAFBF9" d="M40.605,406.581l-24.21-39.255c-1.091-1.769-0.674-3.53,1.095-4.621
	c1.767-1.09,3.526-0.674,4.617,1.095l24.21,39.255c1.091,1.769,0.59,3.393-1.178,4.485
	C43.372,408.631,41.696,408.348,40.605,406.581"/>
<path id="Fill-82" fill="#FAFBF9" d="M1127.687,280.725c-1.091-1.769-0.809-3.446,0.958-4.537l39.236-24.22
	c1.769-1.091,3.526-0.674,4.619,1.093c1.089,1.769,0.674,3.53-1.095,4.619l-39.236,24.221
	C1130.401,282.994,1128.778,282.493,1127.687,280.725"/>
<path id="Fill-84" fill="#FAFBF9" d="M1197.589,222.022v26.63c0,2.077-1.279,3.357-3.355,3.357c-2.078,0-3.357-1.279-3.357-3.357
	v-26.63c0-2.079,1.279-3.198,3.357-3.198C1196.31,218.824,1197.589,219.943,1197.589,222.022"/>
</svg>
