<?xml version="1.0" encoding="utf-8"?>
<!-- Generator: Adobe Illustrator 17.0.0, SVG Export Plug-In . SVG Version: 6.00 Build 0)  -->
<!DOCTYPE svg PUBLIC "-//W3C//DTD SVG 1.1//EN" "http://www.w3.org/Graphics/SVG/1.1/DTD/svg11.dtd">
<svg version="1.1" id="particles1" xmlns="http://www.w3.org/2000/svg" xmlns:xlink="http://www.w3.org/1999/xlink" x="0px" y="0px"
	 width="1200px" height="664.554px" viewBox="0 0 1200 664.554" enable-background="new 0 0 1200 664.554" xml:space="preserve">
<path id="Fill-1" fill="#FAFBF9" d="M216.628-66.62c-2.541,0-4.581-2.125-4.581-4.625c0-2.498,2.04-4.623,4.581-4.623
	c2.499,0,4.623,2.125,4.623,4.623C221.251-68.745,219.127-66.62,216.628-66.62"/>
<path id="Fill-3" fill="#FAFBF9" d="M758.251,404.468c-2.541,0-4.581-2.125-4.581-4.625c0-2.498,2.04-4.623,4.581-4.623
	c2.499,0,4.623,2.125,4.623,4.623C762.874,402.343,760.75,404.468,758.251,404.468"/>
<g id="Group-7" transform="translate(1760.638710, 942.950979)">
	<g id="Clip-6">
	</g>
	<defs>
		<filter id="Adobe_OpacityMaskFilter" filterUnits="userSpaceOnUse" x="-1051.13" y="-453.212" width="9.204" height="9.248">
			<feColorMatrix  type="matrix" values="1 0 0 0 0  0 1 0 0 0  0 0 1 0 0  0 0 0 1 0"/>
		</filter>
	</defs>
	<mask maskUnits="userSpaceOnUse" x="-1051.13" y="-453.212" width="9.204" height="9.248" id="mask-2_4_">
		<g filter="url(#Adobe_OpacityMaskFilter)">
			<polygon id="path-1_4_" fill="#FFFFFF" points="-1041.926,-443.964 -1051.13,-443.964 -1051.13,-453.212 -1041.926,-453.212 			
				"/>
		</g>
	</mask>
	<path id="Fill-5" mask="url(#mask-2_4_)" fill="#FAFBF9" d="M-1046.549-443.964c-2.541,0-4.581-2.125-4.581-4.625
		c0-2.498,2.04-4.623,4.581-4.623c2.499,0,4.623,2.125,4.623,4.623C-1041.926-446.089-1044.05-443.964-1046.549-443.964"/>
</g>
<path id="Fill-8" fill="#FAFBF9" d="M84.143-129.633c-2.541,0-4.581-2.125-4.581-4.625c0-2.498,2.04-4.623,4.581-4.623
	c2.499,0,4.623,2.125,4.623,4.623C88.766-131.758,86.642-129.633,84.143-129.633"/>
<path id="Fill-10" fill="#FAFBF9" d="M919.317,448.586c-2.541,0-4.581-2.125-4.581-4.625s2.04-4.625,4.581-4.625
	c2.499,0,4.623,2.125,4.623,4.625S921.816,448.586,919.317,448.586"/>
<path id="Fill-12" fill="#FAFBF9" d="M-4.18,90.911c-2.541,0-4.581-2.125-4.581-4.625c0-2.498,2.04-4.623,4.581-4.623
	c2.499,0,4.623,2.125,4.623,4.623C0.443,88.786-1.681,90.911-4.18,90.911"/>
<path id="Fill-14" fill="#FAFBF9" d="M260.773,299.338c-4.537,0-8.182-3.796-8.182-8.26c0-4.464,3.645-8.258,8.182-8.258
	c4.462,0,8.256,3.794,8.256,8.258S265.235,299.338,260.773,299.338"/>
<path id="Fill-16" fill="#FAFBF9" d="M1063.052,251.566h65.705c2.078,0,3.357,1.279,3.357,3.358c0,2.077-1.279,3.357-3.357,3.357
	h-65.705c-2.078,0-3.196-1.279-3.196-3.357C1059.855,252.845,1060.973,251.566,1063.052,251.566"/>
<path id="Fill-18" fill="#FAFBF9" d="M335.179,193.603l32.599,32.616c1.47,1.469,1.47,3.278,0,4.747
	c-1.468,1.471-3.275,1.471-4.745,0l-32.599-32.616c-1.47-1.469-1.357-3.163,0.113-4.634
	C332.016,192.247,333.709,192.134,335.179,193.603"/>
<path id="Fill-20" fill="#FAFBF9" d="M191.075,177.963c1.47,1.469,1.583,3.165,0.113,4.634l-32.599,32.616
	c-1.47,1.471-3.278,1.471-4.747,0c-1.47-1.471-1.47-3.278,0-4.749l32.601-32.615C187.911,176.38,189.605,176.493,191.075,177.963"/>
<g id="Group-24" transform="translate(0.000000, 280.060772)">
	<path id="Fill-22" fill="#FAFBF9" d="M-103.217-272.274l26.161,26.173c1.468,1.469,1.468,3.278,0,4.747
		c-1.468,1.471-3.277,1.471-4.745,0l-26.161-26.173c-1.47-1.469-1.357-3.165,0.113-4.634
		C-106.381-273.632-104.685-273.745-103.217-272.274"/>
</g>
<path id="Fill-25" fill="#FAFBF9" d="M-59.056-23.72l26.161,26.173c1.47,1.469,1.47,3.278,0,4.749c-1.468,1.469-3.277,1.469-4.745,0
	L-63.8-18.973c-1.47-1.469-1.357-3.163,0.113-4.634C-62.22-25.076-60.524-25.189-59.056-23.72"/>
<path id="Fill-27" fill="#FAFBF9" d="M908.901,333.944c-1.47-1.469-1.583-3.165-0.113-4.634l26.161-26.173
	c1.468-1.471,3.277-1.471,4.745,0c1.47,1.469,1.47,3.278,0,4.747l-26.161,26.173C912.065,335.528,910.369,335.415,908.901,333.944"
	/>
<path id="Fill-31" fill="#FAFBF9" d="M1104.27,197.91v20.615c0,2.079-1.279,3.357-3.355,3.357c-2.078,0-3.357-1.277-3.357-3.357
	V197.91c0-2.079,1.279-3.196,3.357-3.196C1102.991,194.714,1104.27,195.831,1104.27,197.91"/>
<path id="Fill-33" fill="#FAFBF9" d="M131.682,336.896v65.736c0,2.079-1.279,3.358-3.355,3.358c-2.078,0-3.357-1.279-3.357-3.358
	v-65.736c0-2.079,1.279-3.198,3.357-3.198C130.403,333.698,131.682,334.817,131.682,336.896"/>
<path id="Fill-35" fill="#FAFBF9" d="M43.359,352.648v65.738c0,2.077-1.279,3.357-3.357,3.357c-2.076,0-3.355-1.279-3.355-3.357
	v-65.738c0-2.077,1.279-3.196,3.355-3.196C42.08,349.452,43.359,350.571,43.359,352.648"/>
<path id="Fill-37" fill="#FAFBF9" d="M1055.178,313.561v40.095c0,2.079-1.279,3.358-3.355,3.358c-2.078,0-3.357-1.279-3.357-3.358
	v-40.095c0-2.079,1.279-3.198,3.357-3.198C1053.899,310.363,1055.178,311.482,1055.178,313.561"/>
<path id="Fill-39" fill="#FAFBF9" d="M363.242,546.429h-44.636c-2.078,0-3.357-1.279-3.357-3.357c0-2.079,1.279-3.358,3.357-3.358
	h44.637c2.078,0,3.195,1.279,3.195,3.358C366.437,545.15,365.32,546.429,363.242,546.429"/>
<path id="Fill-41" fill="#FAFBF9" d="M492.818-146.653h-22.239c-2.078,0-3.355-1.279-3.355-3.357c0-2.079,1.277-3.358,3.355-3.358
	h22.239c2.078,0,3.195,1.279,3.195,3.358C496.013-147.932,494.896-146.653,492.818-146.653"/>
<path id="Fill-43" fill="#FAFBF9" d="M1178.008,117.136h-65.704c-2.078,0-3.357-1.279-3.357-3.357c0-2.079,1.279-3.358,3.357-3.358
	h65.704c2.078,0,3.197,1.279,3.197,3.358C1181.205,115.857,1180.087,117.136,1178.008,117.136"/>
<path id="Fill-45" fill="#FAFBF9" d="M1040.594,368.553h-65.706c-2.076,0-3.355-1.279-3.355-3.357c0-2.079,1.279-3.358,3.355-3.358
	h65.706c2.076,0,3.195,1.279,3.195,3.358C1043.788,367.274,1042.67,368.553,1040.594,368.553"/>
<path id="Fill-47" fill="#FAFBF9" d="M880.064,76.003c-5.209,0-9.393-4.357-9.393-9.483c0-5.128,4.184-9.485,9.393-9.485
	c5.124,0,9.479,4.357,9.479,9.485C889.543,71.646,885.188,76.003,880.064,76.003"/>
<path id="Fill-49" fill="#FAFBF9" d="M-59.931,208.766c-5.209,0-9.395-4.357-9.395-9.483s4.186-9.483,9.395-9.483
	c5.124,0,9.478,4.357,9.478,9.483C-50.452,204.409-54.807,208.766-59.931,208.766"/>
<path id="Fill-51" fill="#FAFBF9" d="M364.05,0.762V11.07c0,2.077-1.279,3.358-3.355,3.358c-2.078,0-3.357-1.281-3.357-3.358V0.762
	c0-2.079,1.279-3.198,3.357-3.198C362.772-2.436,364.05-1.317,364.05,0.762"/>
<path id="Fill-53" fill="#FAFBF9" d="M753.665-108.064l-7.286,7.289c-1.47,1.471-3.277,1.471-4.746,0
	c-1.47-1.469-1.47-3.276,0-4.747l7.287-7.289c1.468-1.471,3.162-1.358,4.632,0.113C755.021-111.229,755.133-109.533,753.665-108.064
	"/>
<path id="Fill-55" fill="#FAFBF9" d="M1017.824,22.617h-10.304c-2.078,0-3.357-1.279-3.357-3.358c0-2.077,1.279-3.357,3.357-3.357
	h10.304c2.076,0,3.195,1.279,3.195,3.357C1021.018,21.338,1019.9,22.617,1017.824,22.617"/>
<path id="Fill-57" fill="#FAFBF9" d="M969.728,135.578l-7.286-7.289c-1.47-1.471-1.47-3.278,0-4.749
	c1.468-1.471,3.275-1.471,4.745,0l7.285,7.291c1.47,1.469,1.357,3.163-0.113,4.634C972.892,136.934,971.196,137.047,969.728,135.578
	"/>
<path id="Fill-59" fill="#FAFBF9" d="M960.143,417.689v-10.308c0-2.079,1.279-3.358,3.355-3.358c2.078,0,3.357,1.279,3.357,3.358
	v10.308c0,2.079-1.279,3.196-3.357,3.196C961.422,420.886,960.143,419.769,960.143,417.689"/>
<path id="Fill-61" fill="#FAFBF9" d="M829.902,178.09l7.286-7.289c1.47-1.471,3.277-1.471,4.745,0c1.47,1.469,1.47,3.278,0,4.747
	l-7.286,7.289c-1.468,1.471-3.162,1.358-4.632-0.113C828.545,181.255,828.432,179.56,829.902,178.09"/>
<path id="Fill-63" fill="#FAFBF9" d="M841.363,333.474h10.303c2.078,0,3.357,1.279,3.357,3.357c0,2.079-1.279,3.358-3.357,3.358
	h-10.303c-2.078,0-3.195-1.279-3.195-3.358C838.168,334.753,839.285,333.474,841.363,333.474"/>
<path id="Fill-65" fill="#FAFBF9" d="M303.674-93.044l7.286,7.289c1.47,1.471,1.47,3.278,0,4.749c-1.468,1.469-3.275,1.469-4.745,0
	l-7.286-7.291c-1.47-1.469-1.357-3.163,0.113-4.634C300.51-94.401,302.206-94.514,303.674-93.044"/>
<path id="Fill-67" fill="#FAFBF9" d="M1195.129,98.092c-1.796-1.797-1.738-4.743,0.029-6.509c1.767-1.768,4.712-1.828,6.506-0.031
	c1.769,1.768,1.769,4.772,0,6.54C1199.9,99.86,1196.896,99.86,1195.129,98.092"/>
<path id="Fill-69" fill="#FAFBF9" d="M1145.984-40.19c-1.796-1.797-1.738-4.743,0.029-6.511c1.767-1.766,4.712-1.826,6.506-0.029
	c1.768,1.768,1.768,4.772,0,6.54C1150.754-38.422,1147.751-38.422,1145.984-40.19"/>
<path id="Fill-71" fill="#FAFBF9" d="M927.656,53.275c-1.796-1.797-1.738-4.743,0.029-6.509c1.767-1.768,4.712-1.828,6.508-0.029
	c1.767,1.766,1.767,4.771,0,6.538C932.426,55.042,929.422,55.042,927.656,53.275"/>
<g id="Group-75" transform="translate(2634.763441, 393.158694)">
	<g id="Clip-74">
	</g>
	<defs>
		<filter id="Adobe_OpacityMaskFilter_1_" filterUnits="userSpaceOnUse" x="-1366.12" y="-255.368" width="6.712" height="16.864">
			<feColorMatrix  type="matrix" values="1 0 0 0 0  0 1 0 0 0  0 0 1 0 0  0 0 0 1 0"/>
		</filter>
	</defs>
	<mask maskUnits="userSpaceOnUse" x="-1366.12" y="-255.368" width="6.712" height="16.864" id="mask-4_4_">
		<g filter="url(#Adobe_OpacityMaskFilter_1_)">
			<polygon id="path-3_4_" fill="#FFFFFF" points="-1359.408,-255.368 -1359.408,-238.503 -1366.12,-238.503 -1366.12,-255.368 			
				"/>
		</g>
	</mask>
	<path id="Fill-73" mask="url(#mask-4_4_)" fill="#FAFBF9" d="M-1359.408-252.17v10.308c0,2.077-1.279,3.358-3.355,3.358
		c-2.078,0-3.357-1.281-3.357-3.358v-10.308c0-2.079,1.279-3.198,3.357-3.198C-1360.686-255.368-1359.408-254.249-1359.408-252.17"
		/>
</g>
<path id="Fill-76" fill="#FAFBF9" d="M896.057,501.201l24.21,39.255c1.091,1.769,0.674,3.53-1.095,4.621
	c-1.768,1.09-3.528,0.674-4.617-1.095l-24.21-39.255c-1.091-1.769-0.59-3.393,1.177-4.485
	C893.29,499.151,894.966,499.433,896.057,501.201"/>
<path id="Fill-78" fill="#FAFBF9" d="M415.679,167.004c1.091,1.769,0.811,3.446-0.958,4.536l-39.236,24.221
	c-1.769,1.092-3.526,0.674-4.617-1.093c-1.091-1.769-0.674-3.53,1.093-4.621l39.236-24.22
	C412.965,164.734,414.588,165.235,415.679,167.004"/>
<path id="Fill-80" fill="#FAFBF9" d="M74.841,567.866l-24.21-39.255c-1.091-1.769-0.674-3.53,1.095-4.621
	c1.767-1.09,3.526-0.674,4.617,1.095l24.21,39.255c1.091,1.769,0.59,3.393-1.178,4.485
	C77.608,569.916,75.932,569.633,74.841,567.866"/>
<path id="Fill-82" fill="#FAFBF9" d="M1161.923,442.01c-1.091-1.769-0.809-3.446,0.958-4.537l39.236-24.22
	c1.769-1.091,3.526-0.674,4.619,1.093c1.089,1.769,0.674,3.53-1.095,4.619l-39.236,24.221
	C1164.637,444.279,1163.014,443.778,1161.923,442.01"/>
<path id="Fill-84" fill="#FAFBF9" d="M1231.825,383.307v26.63c0,2.077-1.279,3.357-3.355,3.357c-2.078,0-3.357-1.279-3.357-3.357
	v-26.63c0-2.079,1.279-3.198,3.357-3.198C1230.546,380.109,1231.825,381.228,1231.825,383.307"/>
</svg>
