<?xml version="1.0" encoding="utf-8"?>
<!-- Generator: Adobe Illustrator 17.0.0, SVG Export Plug-In . SVG Version: 6.00 Build 0)  -->
<!DOCTYPE svg PUBLIC "-//W3C//DTD SVG 1.1//EN" "http://www.w3.org/Graphics/SVG/1.1/DTD/svg11.dtd">
<svg version="1.1" id="particles1" xmlns="http://www.w3.org/2000/svg" xmlns:xlink="http://www.w3.org/1999/xlink" x="0px" y="0px"
	 width="1200px" height="1228.46px" viewBox="0 0 1200 1228.46" enable-background="new 0 0 1200 1228.46" xml:space="preserve">
<path id="Fill-1" fill="#1D3557" d="M-85.883,114.173c-2.541,0-4.581-2.125-4.581-4.625c0-2.498,2.04-4.623,4.581-4.623
	c2.499,0,4.623,2.125,4.623,4.623C-81.26,112.048-83.384,114.173-85.883,114.173"/>
<path id="Fill-3" fill="#457B9D" d="M1082.416,569.487c-2.541,0-4.581-2.125-4.581-4.625c0-2.498,2.04-4.623,4.581-4.623
	c2.499,0,4.623,2.125,4.623,4.623C1087.039,567.362,1084.915,569.487,1082.416,569.487"/>
<g id="Group-7" transform="translate(1760.638710, 942.950979)">
	<g id="Clip-6">
	</g>
	<defs>
		<filter id="Adobe_OpacityMaskFilter" filterUnits="userSpaceOnUse" x="-726.965" y="-288.193" width="9.204" height="9.248">
			<feColorMatrix  type="matrix" values="1 0 0 0 0  0 1 0 0 0  0 0 1 0 0  0 0 0 1 0"/>
		</filter>
	</defs>
	<mask maskUnits="userSpaceOnUse" x="-726.965" y="-288.193" width="9.204" height="9.248" id="mask-2_4_">
		<g filter="url(#Adobe_OpacityMaskFilter)">
			<polygon id="path-1_4_" fill="#FFFFFF" points="-717.761,-278.945 -726.965,-278.945 -726.965,-288.193 -717.761,-288.193 			"/>
		</g>
	</mask>
	<path id="Fill-5" mask="url(#mask-2_4_)" fill="#EC5F69" d="M-722.384-278.945c-2.541,0-4.581-2.125-4.581-4.625
		c0-2.498,2.04-4.623,4.581-4.623c2.499,0,4.623,2.125,4.623,4.623C-717.761-281.07-719.885-278.945-722.384-278.945"/>
</g>
<path id="Fill-8" fill="#A8DADC" d="M-218.368,51.16c-2.541,0-4.581-2.125-4.581-4.625c0-2.498,2.04-4.623,4.581-4.623
	c2.499,0,4.623,2.125,4.623,4.623C-213.745,49.035-215.869,51.16-218.368,51.16"/>
<path id="Fill-10" fill="#E63946" d="M1243.482,613.605c-2.541,0-4.581-2.125-4.581-4.625s2.04-4.625,4.581-4.625
	c2.499,0,4.623,2.125,4.623,4.625S1245.981,613.605,1243.482,613.605"/>
<path id="Fill-12" fill="#DCE6DA" d="M-306.691,271.704c-2.541,0-4.581-2.125-4.581-4.625c0-2.498,2.04-4.623,4.581-4.623
	c2.499,0,4.623,2.125,4.623,4.623C-302.068,269.579-304.192,271.704-306.691,271.704"/>
<path id="Fill-14" fill="#A8DADC" d="M-41.738,480.131c-4.537,0-8.182-3.796-8.182-8.26c0-4.464,3.645-8.258,8.182-8.258
	c4.462,0,8.256,3.794,8.256,8.258S-37.276,480.131-41.738,480.131"/>
<path id="Fill-16" fill="#457B9D" d="M1387.217,416.585h65.705c2.078,0,3.357,1.279,3.357,3.358c0,2.077-1.279,3.357-3.357,3.357
	h-65.705c-2.078,0-3.196-1.279-3.196-3.357C1384.02,417.864,1385.138,416.585,1387.217,416.585"/>
<path id="Fill-18" fill="#1D3557" d="M32.668,374.396l32.599,32.616c1.47,1.469,1.47,3.278,0,4.747
	c-1.468,1.471-3.275,1.471-4.745,0l-32.599-32.616c-1.47-1.469-1.357-3.163,0.113-4.634
	C29.505,373.04,31.198,372.927,32.668,374.396"/>
<path id="Fill-20" fill="#E63946" d="M-111.436,358.756c1.47,1.469,1.583,3.165,0.113,4.634l-32.599,32.616
	c-1.47,1.471-3.278,1.471-4.747,0c-1.47-1.471-1.47-3.278,0-4.749l32.601-32.615C-114.6,357.173-112.906,357.286-111.436,358.756"/>
<g id="Group-24" transform="translate(0.000000, 280.060772)">
	<path id="Fill-22" fill="#DCE6DA" d="M-405.728-91.481l26.161,26.173c1.468,1.469,1.468,3.278,0,4.747
		c-1.468,1.471-3.277,1.471-4.745,0l-26.161-26.173c-1.47-1.469-1.357-3.165,0.113-4.634
		C-408.892-92.839-407.196-92.952-405.728-91.481"/>
</g>
<path id="Fill-25" fill="#1D3557" d="M-361.567,157.073l26.161,26.173c1.47,1.469,1.47,3.278,0,4.749
	c-1.468,1.469-3.277,1.469-4.745,0l-26.16-26.175c-1.47-1.469-1.357-3.163,0.113-4.634
	C-364.731,155.717-363.035,155.604-361.567,157.073"/>
<path id="Fill-27" fill="#E63946" d="M1233.066,498.963c-1.47-1.469-1.583-3.165-0.113-4.634l26.161-26.173
	c1.468-1.471,3.277-1.471,4.745,0c1.47,1.469,1.47,3.278,0,4.747l-26.161,26.173C1236.23,500.547,1234.534,500.434,1233.066,498.963
	"/>
<path id="Fill-31" fill="#1D3557" d="M1428.435,362.929v20.615c0,2.079-1.279,3.357-3.355,3.357c-2.078,0-3.357-1.277-3.357-3.357
	v-20.615c0-2.079,1.279-3.196,3.357-3.196C1427.156,359.733,1428.435,360.85,1428.435,362.929"/>
<path id="Fill-33" fill="#1D3557" d="M-170.829,517.689v65.736c0,2.079-1.279,3.358-3.355,3.358c-2.078,0-3.357-1.279-3.357-3.358
	v-65.736c0-2.079,1.279-3.198,3.357-3.198C-172.108,514.491-170.829,515.61-170.829,517.689"/>
<path id="Fill-35" fill="#A8DADC" d="M-259.152,533.441v65.738c0,2.077-1.279,3.357-3.357,3.357c-2.076,0-3.355-1.279-3.355-3.357
	v-65.738c0-2.077,1.279-3.196,3.355-3.196C-260.431,530.245-259.152,531.364-259.152,533.441"/>
<path id="Fill-37" fill="#A8DADC" d="M1379.343,478.58v40.095c0,2.079-1.279,3.358-3.355,3.358c-2.078,0-3.357-1.279-3.357-3.358
	V478.58c0-2.079,1.279-3.198,3.357-3.198C1378.064,475.382,1379.343,476.501,1379.343,478.58"/>
<path id="Fill-39" fill="#EC5F69" d="M60.731,727.222H16.095c-2.078,0-3.357-1.279-3.357-3.357c0-2.079,1.279-3.358,3.357-3.358
	h44.637c2.078,0,3.195,1.279,3.195,3.358C63.926,725.943,62.809,727.222,60.731,727.222"/>
<path id="Fill-41" fill="#E63946" d="M190.307,34.14h-22.239c-2.078,0-3.355-1.279-3.355-3.357c0-2.079,1.277-3.358,3.355-3.358
	h22.239c2.078,0,3.195,1.279,3.195,3.358C193.502,32.861,192.385,34.14,190.307,34.14"/>
<path id="Fill-43" fill="#457B9D" d="M1502.173,282.155h-65.704c-2.078,0-3.357-1.279-3.357-3.357c0-2.079,1.279-3.358,3.357-3.358
	h65.704c2.078,0,3.197,1.279,3.197,3.358C1505.37,280.876,1504.252,282.155,1502.173,282.155"/>
<path id="Fill-45" fill="#DCE6DA" d="M1364.759,533.572h-65.706c-2.076,0-3.355-1.279-3.355-3.357c0-2.079,1.279-3.358,3.355-3.358
	h65.706c2.076,0,3.195,1.279,3.195,3.358C1367.953,532.293,1366.835,533.572,1364.759,533.572"/>
<path id="Fill-47" fill="#A8DADC" d="M1204.229,241.022c-5.209,0-9.393-4.357-9.393-9.483c0-5.128,4.184-9.485,9.393-9.485
	c5.124,0,9.479,4.357,9.479,9.485C1213.708,236.665,1209.353,241.022,1204.229,241.022"/>
<path id="Fill-49" fill="#A8DADC" d="M-362.442,389.559c-5.209,0-9.395-4.357-9.395-9.483s4.186-9.483,9.395-9.483
	c5.124,0,9.478,4.357,9.478,9.483C-352.963,385.202-357.318,389.559-362.442,389.559"/>
<path id="Fill-51" fill="#457B9D" d="M61.539,181.555v10.308c0,2.077-1.279,3.358-3.355,3.358c-2.078,0-3.357-1.281-3.357-3.358
	v-10.308c0-2.079,1.279-3.198,3.357-3.198C60.261,178.357,61.539,179.476,61.539,181.555"/>
<path id="Fill-53" fill="#1D3557" d="M1077.83,56.955l-7.286,7.289c-1.47,1.471-3.277,1.471-4.746,0c-1.47-1.469-1.47-3.276,0-4.747
	l7.287-7.289c1.468-1.471,3.162-1.358,4.632,0.113C1079.186,53.79,1079.298,55.486,1077.83,56.955"/>
<path id="Fill-55" fill="#EC5F69" d="M1341.989,187.636h-10.304c-2.078,0-3.357-1.279-3.357-3.358c0-2.077,1.279-3.357,3.357-3.357
	h10.304c2.076,0,3.195,1.279,3.195,3.357C1345.183,186.357,1344.065,187.636,1341.989,187.636"/>
<path id="Fill-57" fill="#E63946" d="M1293.893,300.597l-7.286-7.289c-1.47-1.471-1.47-3.278,0-4.749
	c1.468-1.471,3.275-1.471,4.745,0l7.285,7.291c1.47,1.469,1.357,3.163-0.113,4.634
	C1297.057,301.953,1295.361,302.066,1293.893,300.597"/>
<path id="Fill-59" fill="#457B9D" d="M1284.308,582.708V572.4c0-2.079,1.279-3.358,3.355-3.358c2.078,0,3.357,1.279,3.357,3.358
	v10.308c0,2.079-1.279,3.196-3.357,3.196C1285.587,585.905,1284.308,584.788,1284.308,582.708"/>
<path id="Fill-61" fill="#1D3557" d="M1154.067,343.109l7.286-7.289c1.47-1.471,3.277-1.471,4.745,0c1.47,1.469,1.47,3.278,0,4.747
	l-7.286,7.289c-1.468,1.471-3.162,1.358-4.632-0.113C1152.71,346.274,1152.597,344.579,1154.067,343.109"/>
<path id="Fill-63" fill="#EC5F69" d="M1165.528,498.493h10.303c2.078,0,3.357,1.279,3.357,3.357c0,2.079-1.279,3.358-3.357,3.358
	h-10.303c-2.078,0-3.195-1.279-3.195-3.358C1162.333,499.772,1163.45,498.493,1165.528,498.493"/>
<path id="Fill-65" fill="#DCE6DA" d="M1.163,87.749l7.286,7.289c1.47,1.471,1.47,3.278,0,4.749c-1.468,1.469-3.275,1.469-4.745,0
	l-7.286-7.291c-1.47-1.469-1.357-3.163,0.113-4.634C-2.001,86.392-0.305,86.279,1.163,87.749"/>
<path id="Fill-67" fill="#1D3557" d="M1519.294,263.111c-1.796-1.797-1.738-4.743,0.029-6.509c1.767-1.768,4.712-1.828,6.506-0.031
	c1.769,1.768,1.769,4.772,0,6.54C1524.065,264.879,1521.061,264.879,1519.294,263.111"/>
<path id="Fill-69" fill="#A8DADC" d="M1470.149,124.829c-1.796-1.797-1.738-4.743,0.029-6.511c1.767-1.766,4.712-1.826,6.506-0.029
	c1.768,1.768,1.768,4.772,0,6.54C1474.919,126.597,1471.916,126.597,1470.149,124.829"/>
<path id="Fill-71" fill="#DCE6DA" d="M1251.821,218.294c-1.796-1.797-1.738-4.743,0.029-6.509c1.767-1.768,4.712-1.828,6.508-0.029
	c1.767,1.766,1.767,4.771,0,6.538C1256.591,220.061,1253.587,220.061,1251.821,218.294"/>
<g id="Group-75" transform="translate(2634.763441, 393.158694)">
	<g id="Clip-74">
	</g>
	<defs>
		<filter id="Adobe_OpacityMaskFilter_1_" filterUnits="userSpaceOnUse" x="-1041.955" y="-90.349" width="6.712" height="16.864">
			<feColorMatrix  type="matrix" values="1 0 0 0 0  0 1 0 0 0  0 0 1 0 0  0 0 0 1 0"/>
		</filter>
	</defs>
	<mask maskUnits="userSpaceOnUse" x="-1041.955" y="-90.349" width="6.712" height="16.864" id="mask-4_4_">
		<g filter="url(#Adobe_OpacityMaskFilter_1_)">
			<polygon id="path-3_4_" fill="#FFFFFF" points="-1035.243,-90.349 -1035.243,-73.484 -1041.955,-73.484 -1041.955,-90.349 			"/>
		</g>
	</mask>
	<path id="Fill-73" mask="url(#mask-4_4_)" fill="#DCE6DA" d="M-1035.243-87.151v10.308c0,2.077-1.279,3.358-3.355,3.358
		c-2.078,0-3.357-1.281-3.357-3.358v-10.308c0-2.079,1.279-3.198,3.357-3.198C-1036.521-90.349-1035.243-89.23-1035.243-87.151"/>
</g>
<path id="Fill-76" fill="#1D3557" d="M1220.222,666.22l24.21,39.255c1.091,1.769,0.674,3.53-1.095,4.621
	c-1.768,1.09-3.528,0.674-4.617-1.095l-24.21-39.255c-1.091-1.769-0.59-3.393,1.177-4.485
	C1217.455,664.17,1219.131,664.452,1220.222,666.22"/>
<path id="Fill-78" fill="#E63946" d="M113.168,347.797c1.091,1.769,0.811,3.446-0.958,4.536l-39.236,24.221
	c-1.769,1.092-3.526,0.674-4.617-1.093c-1.091-1.769-0.674-3.53,1.093-4.621l39.236-24.22
	C110.454,345.527,112.077,346.028,113.168,347.797"/>
<path id="Fill-80" fill="#DCE6DA" d="M-227.67,748.659l-24.21-39.255c-1.091-1.769-0.674-3.53,1.095-4.621
	c1.767-1.09,3.526-0.674,4.617,1.095l24.21,39.255c1.091,1.769,0.59,3.393-1.178,4.485
	C-224.903,750.709-226.579,750.426-227.67,748.659"/>
<path id="Fill-82" fill="#457B9D" d="M1486.088,607.029c-1.091-1.769-0.809-3.446,0.958-4.537l39.236-24.22
	c1.769-1.091,3.526-0.674,4.619,1.093c1.089,1.769,0.674,3.53-1.095,4.619l-39.236,24.221
	C1488.802,609.298,1487.179,608.797,1486.088,607.029"/>
<path id="Fill-84" fill="#A8DADC" d="M1555.99,548.326v26.63c0,2.077-1.279,3.357-3.355,3.357c-2.078,0-3.357-1.279-3.357-3.357
	v-26.63c0-2.079,1.279-3.198,3.357-3.198C1554.711,545.128,1555.99,546.247,1555.99,548.326"/>
<path id="Fill-1_1_" fill="#1D3557" d="M1211.467,995.588c2.541,0,4.581-2.125,4.581-4.625c0-2.498-2.04-4.623-4.581-4.623
	c-2.499,0-4.623,2.125-4.623,4.623C1206.844,993.463,1208.968,995.588,1211.467,995.588"/>
<path id="Fill-3_1_" fill="#457B9D" d="M809.04,972.802c2.541,0,4.581-2.125,4.581-4.625c0-2.498-2.04-4.623-4.581-4.623
	c-2.499,0-4.623,2.125-4.623,4.623C804.417,970.678,806.541,972.802,809.04,972.802"/>
<path id="Fill-8_1_" fill="#A8DADC" d="M1343.952,932.575c2.541,0,4.581-2.125,4.581-4.625c0-2.498-2.04-4.623-4.581-4.623
	c-2.499,0-4.623,2.125-4.623,4.623C1339.329,930.451,1341.453,932.575,1343.952,932.575"/>
<path id="Fill-41_1_" fill="#E63946" d="M1218.261,885.248h22.239c2.078,0,3.355-1.279,3.355-3.357c0-2.079-1.277-3.358-3.355-3.358
	h-22.239c-2.078,0-3.195,1.279-3.195,3.358C1215.067,883.969,1216.183,885.248,1218.261,885.248"/>
<path id="Fill-51_1_" fill="#457B9D" d="M64.093,881.968v10.308c0,2.077,1.279,3.358,3.355,3.358c2.078,0,3.357-1.281,3.357-3.358
	v-10.308c0-2.079-1.279-3.198-3.357-3.198C65.371,878.77,64.093,879.888,64.093,881.968"/>
<path id="Fill-53_1_" fill="#1D3557" d="M139.102,955.57l7.286,7.289c1.47,1.471,3.277,1.471,4.746,0c1.47-1.469,1.47-3.276,0-4.747
	l-7.287-7.289c-1.468-1.471-3.162-1.358-4.632,0.113C137.747,952.405,137.634,954.101,139.102,955.57"/>
<path id="Fill-65_1_" fill="#DCE6DA" d="M1124.421,969.164l-7.286,7.289c-1.47,1.471-1.47,3.278,0,4.749
	c1.468,1.469,3.275,1.469,4.745,0l7.286-7.291c1.47-1.469,1.357-3.163-0.113-4.634
	C1127.585,967.807,1125.889,967.694,1124.421,969.164"/>
<path id="Fill-69_1_" fill="#A8DADC" d="M-253.216,1023.444c1.796-1.797,1.738-4.743-0.029-6.511
	c-1.767-1.766-4.712-1.826-6.506-0.029c-1.768,1.768-1.768,4.773,0,6.54C-257.986,1025.212-254.983,1025.212-253.216,1023.444"/>
</svg>
