<?xml version="1.0" encoding="utf-8"?>
<!-- Generator: Adobe Illustrator 17.0.0, SVG Export Plug-In . SVG Version: 6.00 Build 0)  -->
<!DOCTYPE svg PUBLIC "-//W3C//DTD SVG 1.1//EN" "http://www.w3.org/Graphics/SVG/1.1/DTD/svg11.dtd">
<svg version="1.1" id="particles1" xmlns="http://www.w3.org/2000/svg" xmlns:xlink="http://www.w3.org/1999/xlink" x="0px" y="0px"
	 width="1200px" height="1228.46px" viewBox="0 0 1200 1228.46" enable-background="new 0 0 1200 1228.46" xml:space="preserve">
<g>
	<path id="Fill-1" fill="#FAFBF9" d="M-85.883,114.173c-2.541,0-4.581-2.125-4.581-4.625c0-2.498,2.04-4.623,4.581-4.623
		c2.499,0,4.623,2.125,4.623,4.623C-81.26,112.048-83.384,114.173-85.883,114.173"/>
	<path id="Fill-3" fill="#FAFBF9" d="M1082.416,569.487c-2.541,0-4.581-2.125-4.581-4.625c0-2.498,2.04-4.623,4.581-4.623
		c2.499,0,4.623,2.125,4.623,4.623C1087.039,567.362,1084.915,569.487,1082.416,569.487"/>
	<g id="Group-7" transform="translate(1760.638710, 942.950979)">
		<g id="Clip-6">
		</g>
		<defs>
			<filter id="Adobe_OpacityMaskFilter" filterUnits="userSpaceOnUse" x="-726.965" y="-288.193" width="9.204" height="9.248">
				<feColorMatrix  type="matrix" values="1 0 0 0 0  0 1 0 0 0  0 0 1 0 0  0 0 0 1 0"/>
			</filter>
		</defs>
		<mask maskUnits="userSpaceOnUse" x="-726.965" y="-288.193" width="9.204" height="9.248" id="mask-2_4_">
			<g filter="url(#Adobe_OpacityMaskFilter)">
				<polygon id="path-1_4_" fill="#FFFFFF" points="-717.761,-278.945 -726.965,-278.945 -726.965,-288.193 -717.761,-288.193 				
					"/>
			</g>
		</mask>
		<path id="Fill-5" mask="url(#mask-2_4_)" fill="#FAFBF9" d="M-722.384-278.945c-2.541,0-4.581-2.125-4.581-4.625
			c0-2.498,2.04-4.623,4.581-4.623c2.499,0,4.623,2.125,4.623,4.623C-717.761-281.07-719.885-278.945-722.384-278.945"/>
	</g>
	<path id="Fill-8" fill="#FAFBF9" d="M-218.368,51.16c-2.541,0-4.581-2.125-4.581-4.625c0-2.498,2.04-4.623,4.581-4.623
		c2.499,0,4.623,2.125,4.623,4.623C-213.745,49.035-215.869,51.16-218.368,51.16"/>
	<path id="Fill-10" fill="#FAFBF9" d="M1243.482,613.605c-2.541,0-4.581-2.125-4.581-4.625s2.04-4.625,4.581-4.625
		c2.499,0,4.623,2.125,4.623,4.625S1245.981,613.605,1243.482,613.605"/>
	<path id="Fill-12" fill="#FAFBF9" d="M-306.691,271.704c-2.541,0-4.581-2.125-4.581-4.625c0-2.498,2.04-4.623,4.581-4.623
		c2.499,0,4.623,2.125,4.623,4.623C-302.068,269.579-304.192,271.704-306.691,271.704"/>
	<path id="Fill-14" fill="#FAFBF9" d="M-41.738,480.131c-4.537,0-8.182-3.796-8.182-8.26c0-4.464,3.645-8.258,8.182-8.258
		c4.462,0,8.256,3.794,8.256,8.258S-37.276,480.131-41.738,480.131"/>
	<path id="Fill-16" fill="#FAFBF9" d="M1387.217,416.585h65.705c2.078,0,3.357,1.279,3.357,3.358c0,2.077-1.279,3.357-3.357,3.357
		h-65.705c-2.078,0-3.196-1.279-3.196-3.357C1384.02,417.864,1385.138,416.585,1387.217,416.585"/>
	<path id="Fill-18" fill="#FAFBF9" d="M32.668,374.396l32.599,32.616c1.47,1.469,1.47,3.278,0,4.747
		c-1.468,1.471-3.275,1.471-4.745,0l-32.599-32.616c-1.47-1.469-1.357-3.163,0.113-4.634
		C29.505,373.04,31.198,372.927,32.668,374.396"/>
	<path id="Fill-20" fill="#FAFBF9" d="M-111.436,358.756c1.47,1.469,1.583,3.165,0.113,4.634l-32.599,32.616
		c-1.47,1.471-3.278,1.471-4.747,0c-1.47-1.471-1.47-3.278,0-4.749l32.601-32.615C-114.6,357.173-112.906,357.286-111.436,358.756"
		/>
	<g id="Group-24" transform="translate(0.000000, 280.060772)">
		<path id="Fill-22" fill="#FAFBF9" d="M-405.728-91.481l26.161,26.173c1.468,1.469,1.468,3.278,0,4.747
			c-1.468,1.471-3.277,1.471-4.745,0l-26.161-26.173c-1.47-1.469-1.357-3.165,0.113-4.634
			C-408.892-92.839-407.196-92.952-405.728-91.481"/>
	</g>
	<path id="Fill-25" fill="#FAFBF9" d="M-361.567,157.073l26.161,26.173c1.47,1.469,1.47,3.278,0,4.749
		c-1.468,1.469-3.277,1.469-4.745,0l-26.16-26.175c-1.47-1.469-1.357-3.163,0.113-4.634
		C-364.731,155.717-363.035,155.604-361.567,157.073"/>
	<path id="Fill-27" fill="#FAFBF9" d="M1233.066,498.963c-1.47-1.469-1.583-3.165-0.113-4.634l26.161-26.173
		c1.468-1.471,3.277-1.471,4.745,0c1.47,1.469,1.47,3.278,0,4.747l-26.161,26.173
		C1236.23,500.547,1234.534,500.434,1233.066,498.963"/>
	<path id="Fill-31" fill="#FAFBF9" d="M1428.435,362.929v20.615c0,2.079-1.279,3.357-3.355,3.357c-2.078,0-3.357-1.277-3.357-3.357
		v-20.615c0-2.079,1.279-3.196,3.357-3.196C1427.156,359.733,1428.435,360.85,1428.435,362.929"/>
	<path id="Fill-33" fill="#FAFBF9" d="M-170.829,517.689v65.736c0,2.079-1.279,3.358-3.355,3.358c-2.078,0-3.357-1.279-3.357-3.358
		v-65.736c0-2.079,1.279-3.198,3.357-3.198C-172.108,514.491-170.829,515.61-170.829,517.689"/>
	<path id="Fill-35" fill="#FAFBF9" d="M-259.152,533.441v65.738c0,2.077-1.279,3.357-3.357,3.357c-2.076,0-3.355-1.279-3.355-3.357
		v-65.738c0-2.077,1.279-3.196,3.355-3.196C-260.431,530.245-259.152,531.364-259.152,533.441"/>
	<path id="Fill-37" fill="#FAFBF9" d="M1379.343,478.58v40.095c0,2.079-1.279,3.358-3.355,3.358c-2.078,0-3.357-1.279-3.357-3.358
		V478.58c0-2.079,1.279-3.198,3.357-3.198C1378.064,475.382,1379.343,476.501,1379.343,478.58"/>
	<path id="Fill-39" fill="#FAFBF9" d="M60.731,727.222H16.095c-2.078,0-3.357-1.279-3.357-3.357c0-2.079,1.279-3.358,3.357-3.358
		h44.637c2.078,0,3.195,1.279,3.195,3.358C63.926,725.943,62.809,727.222,60.731,727.222"/>
	<path id="Fill-41" fill="#FAFBF9" d="M190.307,34.14h-22.239c-2.078,0-3.355-1.279-3.355-3.357c0-2.079,1.277-3.358,3.355-3.358
		h22.239c2.078,0,3.195,1.279,3.195,3.358C193.502,32.861,192.385,34.14,190.307,34.14"/>
	<path id="Fill-43" fill="#FAFBF9" d="M1502.173,282.155h-65.704c-2.078,0-3.357-1.279-3.357-3.357c0-2.079,1.279-3.358,3.357-3.358
		h65.704c2.078,0,3.197,1.279,3.197,3.358C1505.37,280.876,1504.252,282.155,1502.173,282.155"/>
	<path id="Fill-45" fill="#FAFBF9" d="M1364.759,533.572h-65.706c-2.076,0-3.355-1.279-3.355-3.357c0-2.079,1.279-3.358,3.355-3.358
		h65.706c2.076,0,3.195,1.279,3.195,3.358C1367.953,532.293,1366.835,533.572,1364.759,533.572"/>
	<path id="Fill-47" fill="#FAFBF9" d="M1204.229,241.022c-5.209,0-9.393-4.357-9.393-9.483c0-5.128,4.184-9.485,9.393-9.485
		c5.124,0,9.479,4.357,9.479,9.485C1213.708,236.665,1209.353,241.022,1204.229,241.022"/>
	<path id="Fill-49" fill="#FAFBF9" d="M-362.442,389.559c-5.209,0-9.395-4.357-9.395-9.483s4.186-9.483,9.395-9.483
		c5.124,0,9.478,4.357,9.478,9.483C-352.963,385.202-357.318,389.559-362.442,389.559"/>
	<path id="Fill-51" fill="#FAFBF9" d="M61.539,181.555v10.308c0,2.077-1.279,3.358-3.355,3.358c-2.078,0-3.357-1.281-3.357-3.358
		v-10.308c0-2.079,1.279-3.198,3.357-3.198C60.261,178.357,61.539,179.476,61.539,181.555"/>
	<path id="Fill-53" fill="#FAFBF9" d="M1077.83,56.955l-7.286,7.289c-1.47,1.471-3.277,1.471-4.746,0
		c-1.47-1.469-1.47-3.276,0-4.747l7.287-7.289c1.468-1.471,3.162-1.358,4.632,0.113C1079.186,53.79,1079.298,55.486,1077.83,56.955"
		/>
	<path id="Fill-55" fill="#FAFBF9" d="M1341.989,187.636h-10.304c-2.078,0-3.357-1.279-3.357-3.358c0-2.077,1.279-3.357,3.357-3.357
		h10.304c2.076,0,3.195,1.279,3.195,3.357C1345.183,186.357,1344.065,187.636,1341.989,187.636"/>
	<path id="Fill-57" fill="#FAFBF9" d="M1293.893,300.597l-7.286-7.289c-1.47-1.471-1.47-3.278,0-4.749
		c1.468-1.471,3.275-1.471,4.745,0l7.285,7.291c1.47,1.469,1.357,3.163-0.113,4.634
		C1297.057,301.953,1295.361,302.066,1293.893,300.597"/>
	<path id="Fill-59" fill="#FAFBF9" d="M1284.308,582.708V572.4c0-2.079,1.279-3.358,3.355-3.358c2.078,0,3.357,1.279,3.357,3.358
		v10.308c0,2.079-1.279,3.196-3.357,3.196C1285.587,585.905,1284.308,584.788,1284.308,582.708"/>
	<path id="Fill-61" fill="#FAFBF9" d="M1154.067,343.109l7.286-7.289c1.47-1.471,3.277-1.471,4.745,0c1.47,1.469,1.47,3.278,0,4.747
		l-7.286,7.289c-1.468,1.471-3.162,1.358-4.632-0.113C1152.71,346.274,1152.597,344.579,1154.067,343.109"/>
	<path id="Fill-63" fill="#FAFBF9" d="M1165.528,498.493h10.303c2.078,0,3.357,1.279,3.357,3.357c0,2.079-1.279,3.358-3.357,3.358
		h-10.303c-2.078,0-3.195-1.279-3.195-3.358C1162.333,499.772,1163.45,498.493,1165.528,498.493"/>
	<path id="Fill-65" fill="#FAFBF9" d="M1.163,87.749l7.286,7.289c1.47,1.471,1.47,3.278,0,4.749c-1.468,1.469-3.275,1.469-4.745,0
		l-7.286-7.291c-1.47-1.469-1.357-3.163,0.113-4.634C-2.001,86.392-0.305,86.279,1.163,87.749"/>
	<path id="Fill-67" fill="#FAFBF9" d="M1519.294,263.111c-1.796-1.797-1.738-4.743,0.029-6.509c1.767-1.768,4.712-1.828,6.506-0.031
		c1.769,1.768,1.769,4.772,0,6.54C1524.065,264.879,1521.061,264.879,1519.294,263.111"/>
	<path id="Fill-69" fill="#FAFBF9" d="M1470.149,124.829c-1.796-1.797-1.738-4.743,0.029-6.511c1.767-1.766,4.712-1.826,6.506-0.029
		c1.768,1.768,1.768,4.772,0,6.54C1474.919,126.597,1471.916,126.597,1470.149,124.829"/>
	<path id="Fill-71" fill="#FAFBF9" d="M1251.821,218.294c-1.796-1.797-1.738-4.743,0.029-6.509c1.767-1.768,4.712-1.828,6.508-0.029
		c1.767,1.766,1.767,4.771,0,6.538C1256.591,220.061,1253.587,220.061,1251.821,218.294"/>
	<g id="Group-75" transform="translate(2634.763441, 393.158694)">
		<g id="Clip-74">
		</g>
		<defs>
			<filter id="Adobe_OpacityMaskFilter_1_" filterUnits="userSpaceOnUse" x="-1041.955" y="-90.349" width="6.712" height="16.864">
				<feColorMatrix  type="matrix" values="1 0 0 0 0  0 1 0 0 0  0 0 1 0 0  0 0 0 1 0"/>
			</filter>
		</defs>
		<mask maskUnits="userSpaceOnUse" x="-1041.955" y="-90.349" width="6.712" height="16.864" id="mask-4_4_">
			<g filter="url(#Adobe_OpacityMaskFilter_1_)">
				<polygon id="path-3_4_" fill="#FFFFFF" points="-1035.243,-90.349 -1035.243,-73.484 -1041.955,-73.484 -1041.955,-90.349 				
					"/>
			</g>
		</mask>
		<path id="Fill-73" mask="url(#mask-4_4_)" fill="#FAFBF9" d="M-1035.243-87.151v10.308c0,2.077-1.279,3.358-3.355,3.358
			c-2.078,0-3.357-1.281-3.357-3.358v-10.308c0-2.079,1.279-3.198,3.357-3.198C-1036.521-90.349-1035.243-89.23-1035.243-87.151"/>
	</g>
	<path id="Fill-76" fill="#FAFBF9" d="M1220.222,666.22l24.21,39.255c1.091,1.769,0.674,3.53-1.095,4.621
		c-1.768,1.09-3.528,0.674-4.617-1.095l-24.21-39.255c-1.091-1.769-0.59-3.393,1.177-4.485
		C1217.455,664.17,1219.131,664.452,1220.222,666.22"/>
	<path id="Fill-78" fill="#FAFBF9" d="M113.168,347.797c1.091,1.769,0.811,3.446-0.958,4.536l-39.236,24.221
		c-1.769,1.092-3.526,0.674-4.617-1.093c-1.091-1.769-0.674-3.53,1.093-4.621l39.236-24.22
		C110.454,345.527,112.077,346.028,113.168,347.797"/>
	<path id="Fill-80" fill="#FAFBF9" d="M-227.67,748.659l-24.21-39.255c-1.091-1.769-0.674-3.53,1.095-4.621
		c1.767-1.09,3.526-0.674,4.617,1.095l24.21,39.255c1.091,1.769,0.59,3.393-1.178,4.485
		C-224.903,750.709-226.579,750.426-227.67,748.659"/>
	<path id="Fill-82" fill="#FAFBF9" d="M1486.088,607.029c-1.091-1.769-0.809-3.446,0.958-4.537l39.236-24.22
		c1.769-1.091,3.526-0.674,4.619,1.093c1.089,1.769,0.674,3.53-1.095,4.619l-39.236,24.221
		C1488.802,609.298,1487.179,608.797,1486.088,607.029"/>
	<path id="Fill-84" fill="#FAFBF9" d="M1555.99,548.326v26.63c0,2.077-1.279,3.357-3.355,3.357c-2.078,0-3.357-1.279-3.357-3.357
		v-26.63c0-2.079,1.279-3.198,3.357-3.198C1554.711,545.128,1555.99,546.247,1555.99,548.326"/>
	<path id="Fill-1_1_" fill="#FAFBF9" d="M1211.467,995.588c2.541,0,4.581-2.125,4.581-4.625c0-2.498-2.04-4.623-4.581-4.623
		c-2.499,0-4.623,2.125-4.623,4.623C1206.844,993.463,1208.968,995.588,1211.467,995.588"/>
	<path id="Fill-3_1_" fill="#FAFBF9" d="M809.04,972.802c2.541,0,4.581-2.125,4.581-4.625c0-2.498-2.04-4.623-4.581-4.623
		c-2.499,0-4.623,2.125-4.623,4.623C804.417,970.678,806.541,972.802,809.04,972.802"/>
	<g id="Group-7_1_" transform="translate(1760.638710, 1327.950979)">
		<g id="Clip-6_1_">
		</g>
		<defs>
			<filter id="Adobe_OpacityMaskFilter_2_" filterUnits="userSpaceOnUse" x="-1586.583" y="225.422" width="9.204" height="9.248">
				<feColorMatrix  type="matrix" values="1 0 0 0 0  0 1 0 0 0  0 0 1 0 0  0 0 0 1 0"/>
			</filter>
		</defs>
		<mask maskUnits="userSpaceOnUse" x="-1586.583" y="225.422" width="9.204" height="9.248" id="mask-2_1_">
			<g filter="url(#Adobe_OpacityMaskFilter_2_)">
				<polygon id="path-1_1_" fill="#FFFFFF" points="-1586.583,234.669 -1577.38,234.669 -1577.38,225.422 -1586.583,225.422 				"/>
			</g>
		</mask>
		<path id="Fill-5_1_" mask="url(#mask-2_1_)" fill="#FAFBF9" d="M-1581.96,234.67c2.541,0,4.581-2.125,4.581-4.625
			c0-2.498-2.04-4.623-4.581-4.623c-2.499,0-4.623,2.125-4.623,4.623C-1586.583,232.545-1584.459,234.67-1581.96,234.67"/>
	</g>
	<path id="Fill-8_1_" fill="#FAFBF9" d="M1343.952,932.575c2.541,0,4.581-2.125,4.581-4.625c0-2.498-2.04-4.623-4.581-4.623
		c-2.499,0-4.623,2.125-4.623,4.623C1339.329,930.451,1341.453,932.575,1343.952,932.575"/>
	<path id="Fill-10_1_" fill="#FAFBF9" d="M-26.549,1512.22c2.541,0,4.581-2.125,4.581-4.625s-2.04-4.625-4.581-4.625
		c-2.499,0-4.623,2.125-4.623,4.625S-29.048,1512.22-26.549,1512.22"/>
	<path id="Fill-12_1_" fill="#FAFBF9" d="M1432.275,1153.119c2.541,0,4.581-2.125,4.581-4.625c0-2.498-2.04-4.623-4.581-4.623
		c-2.499,0-4.623,2.125-4.623,4.623C1427.652,1150.994,1429.776,1153.119,1432.275,1153.119"/>
	<path id="Fill-14_1_" fill="#FAFBF9" d="M1167.322,1361.546c4.537,0,8.182-3.796,8.182-8.26s-3.645-8.258-8.182-8.258
		c-4.462,0-8.256,3.794-8.256,8.258S1162.86,1361.546,1167.322,1361.546"/>
	<path id="Fill-16_1_" fill="#FAFBF9" d="M-170.284,1315.2h-65.705c-2.078,0-3.357,1.279-3.357,3.358
		c0,2.077,1.279,3.357,3.357,3.357h65.705c2.078,0,3.196-1.279,3.196-3.357C-167.087,1316.479-168.205,1315.2-170.284,1315.2"/>
	<path id="Fill-18_1_" fill="#FAFBF9" d="M1201.235,1433.099l-32.599,32.616c-1.47,1.469-1.47,3.278,0,4.747
		c1.468,1.471,3.275,1.471,4.745,0l32.599-32.616c1.47-1.469,1.357-3.163-0.113-4.634
		C1204.398,1431.743,1202.705,1431.63,1201.235,1433.099"/>
	<path id="Fill-20_1_" fill="#FAFBF9" d="M1237.02,1240.171c-1.47,1.469-1.583,3.165-0.113,4.634l32.599,32.616
		c1.47,1.47,3.278,1.47,4.747,0c1.47-1.471,1.47-3.278,0-4.749l-32.601-32.615C1240.184,1238.588,1238.49,1238.701,1237.02,1240.171
		"/>
	<g id="Group-24_1_" transform="translate(0.000000, 665.060772)">
		<path id="Fill-22_1_" fill="#FAFBF9" d="M1531.312,404.934l-26.161,26.173c-1.468,1.469-1.468,3.278,0,4.747
			c1.468,1.471,3.277,1.471,4.745,0l26.161-26.173c1.47-1.469,1.357-3.165-0.113-4.634
			C1534.476,403.577,1532.78,403.464,1531.312,404.934"/>
	</g>
	<path id="Fill-25_1_" fill="#FAFBF9" d="M1487.151,1038.488l-26.161,26.173c-1.47,1.469-1.47,3.278,0,4.749
		c1.468,1.469,3.277,1.469,4.745,0l26.161-26.175c1.47-1.469,1.357-3.163-0.113-4.634
		C1490.315,1037.133,1488.619,1037.02,1487.151,1038.488"/>
	<path id="Fill-27_1_" fill="#FAFBF9" d="M-16.133,1397.578c1.47-1.469,1.583-3.165,0.113-4.634l-26.161-26.173
		c-1.468-1.471-3.277-1.471-4.745,0c-1.47,1.469-1.47,3.278,0,4.747l26.161,26.173
		C-19.297,1399.162-17.601,1399.049-16.133,1397.578"/>
	<path id="Fill-29" fill="#FAFBF9" d="M-148.617,1366.072c1.468-1.47,1.581-3.165,0.113-4.634l-26.161-26.175
		c-1.468-1.469-3.277-1.469-4.747,0c-1.468,1.471-1.468,3.278,0,4.749l26.162,26.173
		C-151.781,1367.654-150.087,1367.541-148.617,1366.072"/>
	<path id="Fill-31_1_" fill="#FAFBF9" d="M-211.502,1261.544v20.615c0,2.079,1.279,3.357,3.355,3.357
		c2.078,0,3.357-1.277,3.357-3.357v-20.615c0-2.079-1.279-3.196-3.357-3.196C-210.224,1258.348-211.502,1259.465-211.502,1261.544"
		/>
	<path id="Fill-33_1_" fill="#FAFBF9" d="M1296.413,1399.104v65.736c0,2.079,1.279,3.358,3.355,3.358
		c2.078,0,3.357-1.279,3.357-3.358v-65.736c0-2.079-1.279-3.198-3.357-3.198C1297.692,1395.906,1296.413,1397.025,1296.413,1399.104
		"/>
	<path id="Fill-35_1_" fill="#FAFBF9" d="M1384.736,1414.856v65.738c0,2.078,1.279,3.357,3.357,3.357
		c2.076,0,3.355-1.279,3.355-3.357v-65.738c0-2.077-1.279-3.196-3.355-3.196C1386.015,1411.66,1384.736,1412.779,1384.736,1414.856"
		/>
	<path id="Fill-37_1_" fill="#FAFBF9" d="M-162.41,1377.195v40.095c0,2.079,1.279,3.359,3.355,3.359
		c2.078,0,3.357-1.279,3.357-3.359v-40.095c0-2.079-1.279-3.198-3.357-3.198C-161.132,1373.997-162.41,1375.116-162.41,1377.195"/>
	<path id="Fill-39_1_" fill="#FAFBF9" d="M1162.232,1073.259h44.637c2.078,0,3.357-1.279,3.357-3.357
		c0-2.079-1.279-3.358-3.357-3.358h-44.637c-2.078,0-3.195,1.279-3.195,3.358C1159.037,1071.98,1160.154,1073.259,1162.232,1073.259
		"/>
	<path id="Fill-41_1_" fill="#FAFBF9" d="M1218.261,885.248h22.239c2.078,0,3.355-1.279,3.355-3.357
		c0-2.079-1.277-3.358-3.355-3.358h-22.239c-2.078,0-3.195,1.279-3.195,3.358C1215.067,883.969,1216.183,885.248,1218.261,885.248"
		/>
	<path id="Fill-43_1_" fill="#FAFBF9" d="M-285.241,1180.77h65.705c2.078,0,3.357-1.279,3.357-3.357
		c0-2.079-1.279-3.358-3.357-3.358h-65.705c-2.078,0-3.197,1.279-3.197,3.358C-288.437,1179.49-287.319,1180.77-285.241,1180.77"/>
	<path id="Fill-45_1_" fill="#FAFBF9" d="M-147.826,1432.187h65.706c2.076,0,3.355-1.279,3.355-3.357
		c0-2.079-1.279-3.359-3.355-3.359h-65.706c-2.076,0-3.195,1.279-3.195,3.359C-151.021,1430.907-149.902,1432.187-147.826,1432.187"
		/>
	<path id="Fill-47_1_" fill="#FAFBF9" d="M12.704,1139.636c5.209,0,9.393-4.357,9.393-9.483c0-5.128-4.184-9.485-9.393-9.485
		c-5.123,0-9.478,4.357-9.478,9.485C3.225,1135.28,7.58,1139.636,12.704,1139.636"/>
	<path id="Fill-49_1_" fill="#FAFBF9" d="M1488.026,1270.974c5.209,0,9.395-4.357,9.395-9.483s-4.186-9.483-9.395-9.483
		c-5.124,0-9.479,4.357-9.479,9.483S1482.902,1270.974,1488.026,1270.974"/>
	<path id="Fill-51_1_" fill="#FAFBF9" d="M64.093,881.968v10.308c0,2.077,1.279,3.358,3.355,3.358c2.078,0,3.357-1.281,3.357-3.358
		v-10.308c0-2.079-1.279-3.198-3.357-3.198C65.371,878.77,64.093,879.888,64.093,881.968"/>
	<path id="Fill-53_1_" fill="#FAFBF9" d="M139.102,955.57l7.286,7.289c1.47,1.471,3.277,1.471,4.746,0
		c1.47-1.469,1.47-3.276,0-4.747l-7.287-7.289c-1.468-1.471-3.162-1.358-4.632,0.113
		C137.747,952.405,137.634,954.101,139.102,955.57"/>
	<path id="Fill-55_1_" fill="#FAFBF9" d="M-125.056,1086.251h10.304c2.078,0,3.357-1.279,3.357-3.358
		c0-2.077-1.279-3.357-3.357-3.357h-10.304c-2.076,0-3.195,1.279-3.195,3.357C-128.251,1084.972-127.132,1086.251-125.056,1086.251"
		/>
	<path id="Fill-57_1_" fill="#FAFBF9" d="M-76.96,1199.212l7.285-7.289c1.47-1.471,1.47-3.278,0-4.749
		c-1.468-1.47-3.275-1.47-4.745,0l-7.285,7.291c-1.47,1.469-1.357,3.163,0.113,4.634
		C-80.124,1200.568-78.428,1200.681-76.96,1199.212"/>
	<path id="Fill-59_1_" fill="#FAFBF9" d="M-67.376,1481.323v-10.308c0-2.079-1.279-3.358-3.355-3.358
		c-2.078,0-3.357,1.279-3.357,3.358v10.308c0,2.079,1.279,3.196,3.357,3.196C-68.654,1484.519-67.376,1483.402-67.376,1481.323"/>
	<path id="Fill-61_1_" fill="#FAFBF9" d="M62.866,1241.723l-7.286-7.289c-1.47-1.471-3.277-1.471-4.745,0
		c-1.47,1.469-1.47,3.278,0,4.747l7.285,7.289c1.468,1.471,3.162,1.358,4.632-0.113
		C64.223,1244.889,64.336,1243.194,62.866,1241.723"/>
	<path id="Fill-63_1_" fill="#FAFBF9" d="M51.405,1397.107H41.101c-2.078,0-3.357,1.279-3.357,3.357
		c0,2.079,1.279,3.358,3.357,3.358h10.304c2.078,0,3.195-1.279,3.195-3.358C54.6,1398.387,53.483,1397.107,51.405,1397.107"/>
	<path id="Fill-65_1_" fill="#FAFBF9" d="M1124.421,969.164l-7.286,7.289c-1.47,1.471-1.47,3.278,0,4.749
		c1.468,1.469,3.275,1.469,4.745,0l7.286-7.291c1.47-1.469,1.357-3.163-0.113-4.634
		C1127.585,967.807,1125.889,967.694,1124.421,969.164"/>
	<path id="Fill-67_1_" fill="#FAFBF9" d="M-302.361,1161.726c1.796-1.797,1.738-4.743-0.029-6.509
		c-1.767-1.768-4.712-1.828-6.506-0.031c-1.769,1.768-1.769,4.772,0,6.54C-307.132,1163.494-304.128,1163.494-302.361,1161.726"/>
	<path id="Fill-69_1_" fill="#FAFBF9" d="M-253.216,1023.444c1.796-1.797,1.738-4.743-0.029-6.511
		c-1.767-1.766-4.712-1.826-6.506-0.029c-1.768,1.768-1.768,4.773,0,6.54C-257.986,1025.212-254.983,1025.212-253.216,1023.444"/>
	<path id="Fill-71_1_" fill="#FAFBF9" d="M-34.888,1116.908c1.796-1.797,1.738-4.743-0.029-6.509
		c-1.767-1.768-4.712-1.828-6.508-0.029c-1.767,1.766-1.767,4.771,0,6.538C-39.658,1118.676-36.654,1118.676-34.888,1116.908"/>
	<g id="Group-75_1_" transform="translate(2634.763441, 778.158694)">
		<g id="Clip-74_1_">
		</g>
		<defs>
			<filter id="Adobe_OpacityMaskFilter_3_" filterUnits="userSpaceOnUse" x="-3017.351" y="423.266" width="6.712" height="16.864">
				<feColorMatrix  type="matrix" values="1 0 0 0 0  0 1 0 0 0  0 0 1 0 0  0 0 0 1 0"/>
			</filter>
		</defs>
		<mask maskUnits="userSpaceOnUse" x="-3017.351" y="423.266" width="6.712" height="16.864" id="mask-4_1_">
			<g filter="url(#Adobe_OpacityMaskFilter_3_)">
				<polygon id="path-3_1_" fill="#FFFFFF" points="-3017.351,423.266 -3017.351,440.131 -3010.639,440.131 -3010.639,423.266 				
					"/>
			</g>
		</mask>
		<path id="Fill-73_1_" mask="url(#mask-4_1_)" fill="#FAFBF9" d="M-3017.351,426.464v10.308c0,2.077,1.279,3.358,3.355,3.358
			c2.078,0,3.357-1.281,3.357-3.358v-10.308c0-2.079-1.279-3.198-3.357-3.198C-3016.073,423.266-3017.351,424.385-3017.351,426.464"
			/>
	</g>
	<path id="Fill-76_1_" fill="#FAFBF9" d="M39.57,1003.191l-24.21,39.255c-1.091,1.769-0.674,3.53,1.095,4.621
		c1.769,1.09,3.528,0.674,4.617-1.095l24.21-39.255c1.091-1.769,0.59-3.393-1.177-4.485
		C42.337,1001.141,40.661,1001.424,39.57,1003.191"/>
	<path id="Fill-78_1_" fill="#FAFBF9" d="M1170.571,1197.514c-1.091,1.769-0.811,3.446,0.958,4.536l39.236,24.221
		c1.769,1.092,3.526,0.674,4.617-1.093c1.091-1.769,0.674-3.53-1.093-4.621l-39.236-24.219
		C1173.285,1195.243,1171.662,1195.744,1170.571,1197.514"/>
	<path id="Fill-80_1_" fill="#FAFBF9" d="M1067.242,1153.878l24.21-39.255c1.091-1.769,0.674-3.53-1.095-4.621
		c-1.767-1.09-3.526-0.674-4.617,1.095l-24.21,39.255c-1.091,1.769-0.59,3.393,1.178,4.484
		C1064.476,1155.928,1066.151,1155.646,1067.242,1153.878"/>
	<path id="Fill-82_1_" fill="#FAFBF9" d="M-269.155,1505.644c1.091-1.769,0.809-3.446-0.958-4.537l-39.236-24.219
		c-1.768-1.092-3.526-0.674-4.619,1.093c-1.089,1.769-0.674,3.53,1.095,4.62l39.236,24.221
		C-271.869,1507.913-270.246,1507.412-269.155,1505.644"/>
	<path id="Fill-84_1_" fill="#FAFBF9" d="M-339.057,1446.941v26.63c0,2.077,1.279,3.357,3.355,3.357
		c2.078,0,3.357-1.279,3.357-3.357v-26.63c0-2.079-1.279-3.198-3.357-3.198C-337.778,1443.743-339.057,1444.862-339.057,1446.941"/>
</g>
</svg>
