<?xml version="1.0" encoding="utf-8"?>
<!-- Generator: Adobe Illustrator 17.0.0, SVG Export Plug-In . SVG Version: 6.00 Build 0)  -->
<!DOCTYPE svg PUBLIC "-//W3C//DTD SVG 1.1//EN" "http://www.w3.org/Graphics/SVG/1.1/DTD/svg11.dtd">
<svg version="1.1" id="particles1" xmlns="http://www.w3.org/2000/svg" xmlns:xlink="http://www.w3.org/1999/xlink" x="0px" y="0px"
	 width="1200px" height="1228.46px" viewBox="0 0 1200 1228.46" enable-background="new 0 0 1200 1228.46" xml:space="preserve">
<path id="Fill-1" fill="#DBE5D8" d="M881.299,125.143c0-2.745,2.295-4.948,4.996-4.948c2.698,0,4.993,2.203,4.993,4.948
	c0,2.699-2.295,4.993-4.993,4.993C883.595,130.136,881.299,127.842,881.299,125.143"/>
<path id="Fill-8" fill="#DBE5D8" d="M1010,57.379c0-2.745,2.295-4.948,4.996-4.948c2.698,0,4.993,2.203,4.993,4.948
	c0,2.699-2.295,4.993-4.993,4.993C1012.296,62.372,1010,60.078,1010,57.379"/>
<path id="Fill-12" fill="#DBE5D8" d="M530.963,57.7c0-2.745,2.295-4.948,4.996-4.948c2.698,0,4.993,2.203,4.993,4.948
	c0,2.699-2.295,4.993-4.993,4.993C533.258,62.693,530.963,60.399,530.963,57.7"/>
<path id="Fill-14" fill="#DBE5D8" d="M486.017,141.362c0-4.901,4.1-8.838,8.922-8.838s8.92,3.937,8.92,8.838
	c0,4.82-4.098,8.918-8.92,8.918C490.117,150.28,486.017,146.182,486.017,141.362"/>
<path id="Fill-18" fill="#DBE5D8" d="M600.224,151.922l-35.23,35.211c-1.587,1.588-3.541,1.588-5.127,0
	c-1.589-1.586-1.589-3.537,0-5.125l35.23-35.211c1.587-1.588,3.416-1.466,5.005,0.122
	C601.689,148.505,601.811,150.334,600.224,151.922"/>
<path id="Fill-20" fill="#DBE5D8" d="M720.629,177.671c-1.587,1.588-3.419,1.71-5.005,0.122l-35.23-35.211
	c-1.589-1.588-1.589-3.541,0-5.127c1.589-1.588,3.541-1.588,5.13,0l35.228,35.213C722.339,174.253,722.217,176.083,720.629,177.671"
	/>
<g id="Group-24" transform="translate(0.000000, 280.060772)">
	<path id="Fill-22" fill="#DBE5D8" d="M620.748-329.334l-28.27,28.257c-1.587,1.586-3.541,1.586-5.127,0
		c-1.589-1.586-1.589-3.54,0-5.125l28.27-28.257c1.587-1.588,3.419-1.466,5.005,0.122
		C622.214-332.752,622.337-330.92,620.748-329.334"/>
</g>
<path id="Fill-25" fill="#DBE5D8" d="M654.779-1.574l-28.27,28.257c-1.587,1.588-3.541,1.588-5.13,0
	c-1.587-1.586-1.587-3.54,0-5.125l28.272-28.256c1.587-1.588,3.416-1.466,5.005,0.122C656.244-4.991,656.366-3.159,654.779-1.574"/>
<path id="Fill-33" fill="#DBE5D8" d="M675.748,94.925h-71.004c-2.246,0-3.627-1.382-3.627-3.624c0-2.245,1.381-3.626,3.627-3.626
	h71.004c2.246,0,3.454,1.382,3.454,3.626C679.203,93.544,677.994,94.925,675.748,94.925"/>
<path id="Fill-35" fill="#DBE5D8" d="M478.551,100.774h-71.006c-2.243,0-3.626-1.381-3.626-3.626c0-2.242,1.381-3.624,3.626-3.624
	h71.006c2.243,0,3.452,1.381,3.452,3.624C482.003,99.393,480.795,100.774,478.551,100.774"/>
<path id="Fill-39" fill="#DBE5D8" d="M461.132,140.459V92.247c0-2.245,1.381-3.626,3.626-3.626c2.246,0,3.627,1.381,3.627,3.626
	v48.214c0,2.245-1.382,3.451-3.627,3.451C462.514,143.91,461.132,142.704,461.132,140.459"/>
<path id="Fill-41" fill="#DBE5D8" d="M1028.384,327.721V303.7c0-2.245,1.381-3.624,3.626-3.624c2.246,0,3.627,1.379,3.627,3.624
	v24.021c0,2.245-1.382,3.451-3.627,3.451C1029.766,331.172,1028.384,329.966,1028.384,327.721"/>
<path id="Fill-49" fill="#DBE5D8" d="M403.664-2.519c0-5.626,4.706-10.148,10.243-10.148c5.537,0,10.243,4.521,10.243,10.148
	c0,5.535-4.706,10.237-10.243,10.237C408.37,7.72,403.664,3.016,403.664-2.519"/>
<path id="Fill-51" fill="#DBE5D8" d="M808.518,183.106h-11.134c-2.243,0-3.627-1.381-3.627-3.624c0-2.245,1.384-3.626,3.627-3.626
	h11.134c2.246,0,3.454,1.381,3.454,3.626C811.972,181.726,810.764,183.106,808.518,183.106"/>
<path id="Fill-65" fill="#DBE5D8" d="M970.479,123.421l-7.873,7.87c-1.589,1.588-3.541,1.588-5.13,0
	c-1.587-1.586-1.587-3.537,0-5.125l7.875-7.87c1.587-1.588,3.416-1.466,5.005,0.122
	C971.945,120.003,972.067,121.835,970.479,123.421"/>
<path id="Fill-78" fill="#DBE5D8" d="M628.955,238.872c-1.911,1.178-3.722,0.876-4.899-1.035l-26.162-42.38
	c-1.18-1.911-0.728-3.809,1.181-4.987c1.911-1.178,3.813-0.728,4.991,1.181l26.161,42.38
	C631.407,235.941,630.865,237.694,628.955,238.872"/>
<path id="Fill-80" fill="#DBE5D8" d="M257.795,101.279l42.401-26.15c1.911-1.178,3.813-0.728,4.991,1.183
	c1.177,1.909,0.728,3.809-1.183,4.987l-42.401,26.15c-1.911,1.178-3.665,0.637-4.844-1.272
	C255.581,104.268,255.886,102.457,257.795,101.279"/>
<path id="Fill-3_1_" fill="#DBE5D8" d="M422.221,1200.71c0,2.541,2.125,4.581,4.625,4.581c2.498,0,4.623-2.04,4.623-4.581
	c0-2.499-2.125-4.623-4.623-4.623C424.345,1196.087,422.221,1198.211,422.221,1200.71"/>
<g id="Group-7_1_" transform="translate(1760.638710, 1327.950979)">
	<g id="Clip-6_1_">
	</g>
	<defs>
		<filter id="Adobe_OpacityMaskFilter" filterUnits="userSpaceOnUse" x="-1885.248" y="-965.72" width="9.989" height="9.942">
			<feColorMatrix  type="matrix" values="1 0 0 0 0  0 1 0 0 0  0 0 1 0 0  0 0 0 1 0"/>
		</filter>
	</defs>
	<mask maskUnits="userSpaceOnUse" x="-1885.248" y="-965.72" width="9.989" height="9.942" id="mask-2_1_">
		<g filter="url(#Adobe_OpacityMaskFilter)">
			<polygon id="path-1_1_" fill="#FFFFFF" points="-1885.247,-965.72 -1885.247,-955.78 -1875.259,-955.78 -1875.259,-965.72 			"/>
		</g>
	</mask>
	<path id="Fill-5_1_" mask="url(#mask-2_1_)" fill="#DBE5D8" d="M-1885.248-960.727c0,2.745,2.295,4.948,4.996,4.948
		c2.698,0,4.994-2.204,4.994-4.948c0-2.699-2.295-4.993-4.994-4.993C-1882.953-965.72-1885.248-963.426-1885.248-960.727"/>
</g>
<path id="Fill-10_1_" fill="#DBE5D8" d="M-70.17,145.551c0,2.745,2.295,4.948,4.996,4.948c2.7,0,4.996-2.203,4.996-4.948
	c0-2.699-2.295-4.993-4.996-4.993C-67.874,140.558-70.17,142.852-70.17,145.551"/>
<path id="Fill-16_1_" fill="#DBE5D8" d="M41.54,159.028v-70.97c0-2.245-1.382-3.626-3.627-3.626c-2.243,0-3.626,1.382-3.626,3.626
	v70.97c0,2.245,1.382,3.452,3.626,3.452C40.158,162.481,41.54,161.274,41.54,159.028"/>
<path id="Fill-27_1_" fill="#DBE5D8" d="M53.659,226.611c1.587,1.588,3.419,1.71,5.005,0.122l28.27-28.257
	c1.589-1.586,1.589-3.54,0-5.125c-1.587-1.588-3.541-1.588-5.127,0l-28.27,28.257C51.948,223.193,52.07,225.025,53.659,226.611"/>
<path id="Fill-29" fill="#DBE5D8" d="M-13.409,182.431c1.588,1.586,3.419,1.708,5.005,0.122l28.273-28.257
	c1.587-1.586,1.587-3.54,0-5.127c-1.589-1.586-3.541-1.586-5.13,0l-28.27,28.258C-15.118,179.014-14.996,180.843-13.409,182.431"/>
<path id="Fill-31_1_" fill="#DBE5D8" d="M99.495,114.507H77.228c-2.246,0-3.626,1.381-3.626,3.624c0,2.245,1.379,3.626,3.626,3.626
	h22.267c2.246,0,3.452-1.381,3.452-3.626C102.947,115.887,101.741,114.507,99.495,114.507"/>
<path id="Fill-37_1_" fill="#DBE5D8" d="M75.675,169.884H32.367c-2.246,0-3.628,1.382-3.628,3.624c0,2.245,1.382,3.626,3.628,3.626
	h43.308c2.246,0,3.454-1.381,3.454-3.626C79.13,171.265,77.921,169.884,75.675,169.884"/>
<path id="Fill-43_1_" fill="#DBE5D8" d="M186.742,34.859v70.97c0,2.245,1.382,3.626,3.626,3.626c2.246,0,3.627-1.382,3.627-3.626
	v-70.97c0-2.245-1.382-3.453-3.627-3.453C188.124,31.407,186.742,32.615,186.742,34.859"/>
<path id="Fill-45_1_" fill="#DBE5D8" d="M16.277,185.637v70.971c0,2.242,1.382,3.624,3.626,3.624c2.246,0,3.628-1.381,3.628-3.624
	v-70.971c0-2.242-1.382-3.451-3.628-3.451C17.659,182.186,16.277,183.395,16.277,185.637"/>
<path id="Fill-47_1_" fill="#DBE5D8" d="M231.172,185.598c0,5.626,4.706,10.146,10.243,10.146c5.539,0,10.245-4.519,10.245-10.146
	c0-5.534-4.706-10.237-10.245-10.237C235.877,175.36,231.172,180.064,231.172,185.598"/>
<path id="Fill-51_1_" fill="#DBE5D8" d="M509.487,241.105h-11.134c-2.243,0-3.627,1.381-3.627,3.624
	c0,2.245,1.384,3.626,3.627,3.626h11.134c2.246,0,3.454-1.381,3.454-3.626C512.942,242.486,511.734,241.105,509.487,241.105"/>
<path id="Fill-53_1_" fill="#DBE5D8" d="M429.987,322.125l-7.873,7.87c-1.589,1.588-1.589,3.54,0,5.126
	c1.587,1.588,3.539,1.588,5.127,0l7.873-7.871c1.589-1.586,1.467-3.415-0.122-5.003
	C433.406,320.661,431.574,320.539,429.987,322.125"/>
<path id="Fill-55_1_" fill="#DBE5D8" d="M288.835,138.071v11.13c0,2.245,1.382,3.626,3.627,3.626c2.243,0,3.626-1.381,3.626-3.626
	v-11.13c0-2.242-1.382-3.451-3.626-3.451C290.216,134.62,288.835,135.829,288.835,138.071"/>
<path id="Fill-57_1_" fill="#DBE5D8" d="M166.822,190.021l7.873,7.869c1.589,1.588,3.541,1.588,5.13,0
	c1.588-1.586,1.588-3.537,0-5.125l-7.875-7.869c-1.587-1.588-3.416-1.466-5.005,0.122
	C165.357,186.604,165.235,188.436,166.822,190.021"/>
<path id="Fill-59_1_" fill="#DBE5D8" d="M-36.797,202.725h11.134c2.246,0,3.627-1.381,3.627-3.624c0-2.245-1.382-3.626-3.627-3.626
	h-11.134c-2.246,0-3.452,1.381-3.452,3.626C-40.249,201.345-39.042,202.725-36.797,202.725"/>
<path id="Fill-61_1_" fill="#DBE5D8" d="M120.904,239.78l7.873-7.87c1.589-1.588,1.589-3.54,0-5.125
	c-1.587-1.588-3.541-1.588-5.127,0l-7.873,7.869c-1.589,1.586-1.467,3.415,0.122,5.003
	C117.485,241.246,119.316,241.368,120.904,239.78"/>
<path id="Fill-63_1_" fill="#DBE5D8" d="M54.168,229.752v-11.13c0-2.245-1.382-3.626-3.626-3.626c-2.246,0-3.627,1.382-3.627,3.626
	v11.13c0,2.245,1.382,3.451,3.627,3.451C52.785,233.203,54.168,231.996,54.168,229.752"/>
<path id="Fill-67_1_" fill="#DBE5D8" d="M207.312,16.367c1.941,1.94,5.123,1.877,7.031-0.031c1.91-1.909,1.974-5.09,0.033-7.027
	c-1.91-1.911-5.154-1.911-7.064,0C205.402,11.214,205.402,14.459,207.312,16.367"/>
<path id="Fill-69_1_" fill="#DBE5D8" d="M356.675,69.45c1.941,1.94,5.123,1.877,7.033-0.031c1.908-1.909,1.972-5.09,0.031-7.027
	c-1.91-1.91-5.155-1.91-7.064,0C354.765,64.298,354.765,67.542,356.675,69.45"/>
<path id="Fill-71_1_" fill="#DBE5D8" d="M255.721,134.193c1.941,1.94,5.123,1.877,7.031-0.031c1.91-1.909,1.974-5.09,0.031-7.029
	c-1.908-1.909-5.153-1.909-7.062,0C253.811,129.04,253.811,132.285,255.721,134.193"/>
<g id="Group-75_1_" transform="translate(2634.763441, 778.158694)">
	<g id="Clip-74_1_">
	</g>
	<defs>
		<filter id="Adobe_OpacityMaskFilter_1_" filterUnits="userSpaceOnUse" x="-2488.547" y="-848.447" width="18.215" height="7.25">
			<feColorMatrix  type="matrix" values="1 0 0 0 0  0 1 0 0 0  0 0 1 0 0  0 0 0 1 0"/>
		</filter>
	</defs>
	<mask maskUnits="userSpaceOnUse" x="-2488.547" y="-848.447" width="18.215" height="7.25" id="mask-4_1_">
		<g filter="url(#Adobe_OpacityMaskFilter_1_)">
			<polygon id="path-3_1_" fill="#FFFFFF" points="-2470.332,-848.447 -2488.548,-848.447 -2488.548,-841.197 -2470.332,-841.197 
							"/>
		</g>
	</mask>
	<path id="Fill-73_1_" mask="url(#mask-4_1_)" fill="#DBE5D8" d="M-2473.786-848.447h-11.134c-2.243,0-3.627,1.382-3.627,3.624
		c0,2.244,1.384,3.626,3.627,3.626h11.134c2.246,0,3.454-1.382,3.454-3.626C-2470.332-847.066-2471.54-848.447-2473.786-848.447"/>
</g>
<path id="Fill-76_1_" fill="#DBE5D8" d="M378.55,214.617l-42.401-26.15c-1.911-1.178-3.813-0.728-4.991,1.183
	c-1.177,1.911-0.728,3.811,1.183,4.987l42.401,26.15c1.911,1.178,3.665,0.637,4.844-1.271
	C380.765,217.606,380.459,215.796,378.55,214.617"/>
<path id="Fill-82_1_" fill="#DBE5D8" d="M-63.067,54.586c1.911,1.178,3.722,0.874,4.901-1.035l26.16-42.38
	c1.18-1.91,0.728-3.809-1.181-4.989c-1.911-1.176-3.813-0.728-4.99,1.183l-26.162,42.38C-65.517,51.654-64.976,53.407-63.067,54.586
	"/>
<path id="Fill-84_1_" fill="#DBE5D8" d="M0.34-20.918h-28.764c-2.243,0-3.626,1.381-3.626,3.624c0,2.245,1.382,3.626,3.626,3.626
	H0.34c2.246,0,3.454-1.381,3.454-3.626C3.795-19.536,2.586-20.918,0.34-20.918"/>
<g id="Group-7_2_" transform="translate(1760.638710, 1327.950979)">
	<g id="Clip-6_2_">
	</g>
	<defs>
		<filter id="Adobe_OpacityMaskFilter_2_" filterUnits="userSpaceOnUse" x="-896.613" y="-1007.207" width="9.989" height="9.942">
			<feColorMatrix  type="matrix" values="1 0 0 0 0  0 1 0 0 0  0 0 1 0 0  0 0 0 1 0"/>
		</filter>
	</defs>
	<mask maskUnits="userSpaceOnUse" x="-896.613" y="-1007.207" width="9.989" height="9.942" id="mask-2_2_">
		<g filter="url(#Adobe_OpacityMaskFilter_2_)">
			<polygon id="path-1_2_" fill="#FFFFFF" points="-896.612,-1007.207 -896.612,-997.267 -886.624,-997.267 -886.624,-1007.207 			
				"/>
		</g>
	</mask>
	<path id="Fill-5_2_" mask="url(#mask-2_2_)" fill="#DBE5D8" d="M-896.613-1002.214c0,2.745,2.295,4.948,4.996,4.948
		c2.698,0,4.993-2.203,4.993-4.948c0-2.699-2.295-4.994-4.993-4.994C-894.318-1007.207-896.613-1004.913-896.613-1002.214"/>
</g>
<path id="Fill-10_2_" fill="#DBE5D8" d="M979.104,109.593c0,2.745,2.295,4.948,4.996,4.948s4.996-2.203,4.996-4.948
	c0-2.699-2.295-4.993-4.996-4.993S979.104,106.894,979.104,109.593"/>
<path id="Fill-16_2_" fill="#DBE5D8" d="M1090.813,123.069v-70.97c0-2.245-1.382-3.626-3.627-3.626
	c-2.244,0-3.626,1.381-3.626,3.626v70.97c0,2.245,1.382,3.452,3.626,3.452C1089.432,126.523,1090.813,125.315,1090.813,123.069"/>
<path id="Fill-27_2_" fill="#DBE5D8" d="M1102.932,190.652c1.587,1.588,3.419,1.71,5.005,0.122l28.27-28.257
	c1.589-1.586,1.589-3.54,0-5.125c-1.587-1.588-3.541-1.588-5.127,0l-28.27,28.257
	C1101.222,187.235,1101.344,189.067,1102.932,190.652"/>
<path id="Fill-29_1_" fill="#DBE5D8" d="M874.681,196.081c1.588,1.586,3.419,1.708,5.005,0.122l28.273-28.257
	c1.587-1.586,1.587-3.54,0-5.127c-1.589-1.586-3.541-1.586-5.13,0l-28.27,28.258C872.972,192.664,873.094,194.493,874.681,196.081"
	/>
<path id="Fill-31_2_" fill="#DBE5D8" d="M1148.769,78.549h-22.267c-2.246,0-3.626,1.382-3.626,3.624
	c0,2.245,1.379,3.626,3.626,3.626h22.267c2.246,0,3.452-1.382,3.452-3.626C1152.221,79.929,1151.014,78.549,1148.769,78.549"/>
<path id="Fill-37_2_" fill="#DBE5D8" d="M1124.949,133.926h-43.308c-2.246,0-3.628,1.382-3.628,3.624
	c0,2.245,1.382,3.626,3.628,3.626h43.308c2.246,0,3.454-1.382,3.454-3.626C1128.403,135.306,1127.194,133.926,1124.949,133.926"/>
<path id="Fill-43_2_" fill="#DBE5D8" d="M980.473,101.979v70.97c0,2.245,1.382,3.626,3.626,3.626c2.246,0,3.627-1.382,3.627-3.626
	v-70.97c0-2.245-1.382-3.453-3.627-3.453C981.856,98.527,980.473,99.735,980.473,101.979"/>
<path id="Fill-45_2_" fill="#DBE5D8" d="M905.522,42.977v70.971c0,2.242,1.382,3.624,3.626,3.624c2.246,0,3.628-1.381,3.628-3.624
	V42.977c0-2.242-1.382-3.451-3.628-3.451C906.904,39.526,905.522,40.734,905.522,42.977"/>
<path id="Fill-47_2_" fill="#DBE5D8" d="M1219.807,144.111c0,5.626,4.706,10.146,10.243,10.146c5.539,0,10.245-4.519,10.245-10.146
	c0-5.534-4.706-10.237-10.245-10.237C1224.512,133.873,1219.807,138.577,1219.807,144.111"/>
<path id="Fill-57_2_" fill="#DBE5D8" d="M1155.457,148.534l7.873,7.869c1.589,1.588,3.541,1.588,5.13,0
	c1.588-1.586,1.588-3.537,0-5.125l-7.875-7.869c-1.587-1.588-3.416-1.466-5.005,0.122
	C1153.992,145.117,1153.87,146.949,1155.457,148.534"/>
<path id="Fill-59_2_" fill="#DBE5D8" d="M1012.477,166.766h11.134c2.246,0,3.627-1.382,3.627-3.624c0-2.245-1.382-3.626-3.627-3.626
	h-11.134c-2.246,0-3.452,1.381-3.452,3.626C1009.025,165.386,1010.231,166.766,1012.477,166.766"/>
<path id="Fill-61_2_" fill="#DBE5D8" d="M1170.178,203.821l7.873-7.87c1.589-1.588,1.589-3.54,0-5.125
	c-1.587-1.588-3.541-1.588-5.127,0l-7.873,7.869c-1.589,1.586-1.467,3.415,0.122,5.003
	C1166.758,205.287,1168.589,205.409,1170.178,203.821"/>
<path id="Fill-63_2_" fill="#DBE5D8" d="M1103.441,193.793v-11.13c0-2.245-1.382-3.626-3.626-3.626
	c-2.245,0-3.627,1.381-3.627,3.626v11.13c0,2.245,1.382,3.451,3.627,3.451C1102.059,197.245,1103.441,196.038,1103.441,193.793"/>
<path id="Fill-67_2_" fill="#DBE5D8" d="M1099.911,58.813c1.941,1.94,5.123,1.877,7.031-0.031c1.91-1.909,1.974-5.09,0.033-7.027
	c-1.91-1.911-5.154-1.911-7.064,0C1098.002,53.659,1098.002,56.904,1099.911,58.813"/>
<path id="Fill-71_2_" fill="#DBE5D8" d="M1244.356,92.706c1.941,1.94,5.123,1.877,7.031-0.031c1.91-1.909,1.974-5.09,0.031-7.029
	c-1.908-1.909-5.153-1.909-7.062,0C1242.446,87.553,1242.446,90.798,1244.356,92.706"/>
<g id="Group-75_2_" transform="translate(2634.763441, 778.158694)">
	<g id="Clip-74_2_">
	</g>
	<defs>
		<filter id="Adobe_OpacityMaskFilter_3_" filterUnits="userSpaceOnUse" x="-1680.095" y="-788.684" width="18.215" height="7.25">
			<feColorMatrix  type="matrix" values="1 0 0 0 0  0 1 0 0 0  0 0 1 0 0  0 0 0 1 0"/>
		</filter>
	</defs>
	<mask maskUnits="userSpaceOnUse" x="-1680.095" y="-788.684" width="18.215" height="7.25" id="mask-4_2_">
		<g filter="url(#Adobe_OpacityMaskFilter_3_)">
			<polygon id="path-3_2_" fill="#FFFFFF" points="-1661.879,-788.684 -1680.096,-788.684 -1680.096,-781.434 -1661.879,-781.434 
							"/>
		</g>
	</mask>
	<path id="Fill-73_2_" mask="url(#mask-4_2_)" fill="#DBE5D8" d="M-1665.333-788.684h-11.134c-2.243,0-3.627,1.382-3.627,3.624
		c0,2.244,1.384,3.626,3.627,3.626h11.134c2.246,0,3.454-1.382,3.454-3.626C-1661.879-787.304-1663.088-788.684-1665.333-788.684"/>
</g>
<path id="Fill-82_2_" fill="#DBE5D8" d="M745.386,114.348c1.911,1.178,3.722,0.874,4.901-1.035l26.16-42.38
	c1.18-1.91,0.728-3.809-1.181-4.989c-1.911-1.176-3.813-0.728-4.99,1.183l-26.162,42.38
	C742.935,111.417,743.476,113.17,745.386,114.348"/>
<path id="Fill-84_2_" fill="#DBE5D8" d="M808.793,38.845h-28.764c-2.243,0-3.626,1.381-3.626,3.624c0,2.245,1.382,3.626,3.626,3.626
	h28.764c2.246,0,3.454-1.381,3.454-3.626C812.247,40.227,811.038,38.845,808.793,38.845"/>
</svg>
