<?xml version="1.0" encoding="utf-8"?>
<!-- Generator: Adobe Illustrator 17.0.0, SVG Export Plug-In . SVG Version: 6.00 Build 0)  -->
<!DOCTYPE svg PUBLIC "-//W3C//DTD SVG 1.1//EN" "http://www.w3.org/Graphics/SVG/1.1/DTD/svg11.dtd">
<svg version="1.1" id="Layer_1" xmlns="http://www.w3.org/2000/svg" xmlns:xlink="http://www.w3.org/1999/xlink" x="0px" y="0px"
	 width="1024px" height="563px" viewBox="0 0 1024 563" enable-background="new 0 0 1024 563" xml:space="preserve">
<g>
	<path fill="#1C3557" d="M968.255,191.806c-2.705,0-5.004-2.3-5.004-5.005s2.299-5.004,5.004-5.004c2.75,0,4.959,2.299,4.959,5.004
		S971.005,191.805,968.255,191.806z"/>
	<path fill="#1C3557" d="M952.974,214.104c-2.705,0-5.004-2.3-5.004-5.005s2.299-5.004,5.004-5.004c2.75,0,4.959,2.299,4.959,5.004
		S955.724,214.104,952.974,214.104z"/>
	<path fill="#1C3557" d="M932.747,153.299c-2.706,0-5.005-2.3-5.005-5.005s2.3-5.004,5.005-5.004c2.75,0,4.959,2.299,4.959,5.004
		C937.706,150.999,935.497,153.299,932.747,153.299z"/>
	<path fill="#1C3557" d="M921.623,191.806c-2.705,0-5.004-2.3-5.004-5.005s2.299-5.004,5.004-5.004c2.75,0,4.959,2.299,4.959,5.004
		S924.373,191.805,921.623,191.806z"/>
	<path fill="#1C3557" d="M909.185,171.388c-2.705,0-5.004-2.298-5.004-5.004s2.299-5.005,5.004-5.005c2.75,0,4.959,2.3,4.959,5.005
		S911.935,171.389,909.185,171.388z"/>
	<path fill="#1C3557" d="M909.185,219.108c-2.705,0-5.004-2.299-5.004-5.004c0-2.706,2.299-5.005,5.004-5.005
		c2.75,0,4.959,2.3,4.959,5.005S911.935,219.108,909.185,219.108z"/>
</g>
<g>
	<path fill="#1C3557" d="M971.502,426.46c-1.591,1.59-3.426,1.712-5.016,0.122l-28.325-28.325c-1.591-1.59-1.591-3.547,0-5.138
		c1.59-1.59,3.548-1.59,5.138,0l28.325,28.325C973.214,423.034,973.092,424.869,971.502,426.46z"/>
	<path fill="#1C3557" d="M966.486,363.548c1.59-1.591,3.425-1.469,5.016,0.122c1.59,1.59,1.712,3.425,0.122,5.016l-28.325,28.325
		c-1.59,1.59-3.548,1.59-5.138,0c-1.591-1.59-1.591-3.548,0-5.138L966.486,363.548z"/>
	<path fill="#1C3557" d="M930.733,363.548c1.59-1.591,3.426-1.469,5.016,0.122c1.59,1.59,1.712,3.425,0.122,5.016l-28.325,28.325
		c-1.59,1.59-3.548,1.59-5.138,0c-1.591-1.59-1.591-3.548,0-5.138L930.733,363.548z"/>
	<path fill="#1C3557" d="M935.749,426.46c-1.591,1.59-3.426,1.712-5.016,0.122l-28.325-28.325c-1.591-1.59-1.591-3.547,0-5.138
		c1.59-1.59,3.547-1.59,5.138,0l28.325,28.325C937.462,423.034,937.339,424.869,935.749,426.46z"/>
</g>
<g>
	<path fill="#1C3557" d="M971.502,320.833c-1.591,1.59-3.426,1.712-5.016,0.122l-28.325-28.325c-1.591-1.59-1.591-3.547,0-5.138
		c1.59-1.59,3.548-1.59,5.138,0l28.325,28.325C973.214,317.408,973.092,319.243,971.502,320.833z"/>
	<path fill="#1C3557" d="M966.486,257.922c1.59-1.591,3.425-1.469,5.016,0.122c1.59,1.59,1.712,3.425,0.122,5.016l-28.325,28.325
		c-1.59,1.59-3.548,1.59-5.138,0c-1.591-1.59-1.591-3.548,0-5.138L966.486,257.922z"/>
	<path fill="#1C3557" d="M930.733,257.922c1.59-1.591,3.426-1.469,5.016,0.122c1.59,1.59,1.712,3.425,0.122,5.016l-28.325,28.325
		c-1.59,1.59-3.548,1.59-5.138,0c-1.591-1.59-1.591-3.548,0-5.138L930.733,257.922z"/>
	<path fill="#1C3557" d="M935.749,320.833c-1.591,1.59-3.426,1.712-5.016,0.122l-28.325-28.325c-1.591-1.59-1.591-3.547,0-5.138
		c1.59-1.59,3.547-1.59,5.138,0l28.325,28.325C937.462,317.408,937.339,319.243,935.749,320.833z"/>
</g>
<g>
	<path fill="#1C3557" d="M971.502,116.568c-1.591,1.59-3.426,1.712-5.016,0.122l-28.325-28.325c-1.591-1.59-1.591-3.547,0-5.138
		c1.59-1.59,3.548-1.59,5.138,0l28.325,28.325C973.214,113.143,973.092,114.978,971.502,116.568z"/>
	<path fill="#1C3557" d="M966.486,53.657c1.59-1.591,3.425-1.469,5.016,0.122c1.59,1.59,1.712,3.425,0.122,5.016L943.299,87.12
		c-1.59,1.59-3.548,1.59-5.138,0c-1.591-1.59-1.591-3.548,0-5.138L966.486,53.657z"/>
	<path fill="#1C3557" d="M930.733,53.657c1.59-1.591,3.426-1.469,5.016,0.122c1.59,1.59,1.712,3.425,0.122,5.016L907.546,87.12
		c-1.59,1.59-3.548,1.59-5.138,0c-1.591-1.59-1.591-3.548,0-5.138L930.733,53.657z"/>
	<path fill="#1C3557" d="M935.749,116.568c-1.591,1.59-3.426,1.712-5.016,0.122l-28.325-28.325c-1.591-1.59-1.591-3.547,0-5.138
		c1.59-1.59,3.547-1.59,5.138,0l28.325,28.325C937.462,113.143,937.339,114.978,935.749,116.568z"/>
</g>
<g>
	<path fill="#1C3557" d="M968.255,504.021c-2.705,0-5.004-2.3-5.004-5.005s2.299-5.004,5.004-5.004c2.75,0,4.959,2.299,4.959,5.004
		C973.214,501.721,971.005,504.021,968.255,504.021z"/>
	<path fill="#1C3557" d="M952.974,526.32c-2.705,0-5.004-2.3-5.004-5.005s2.299-5.004,5.004-5.004c2.75,0,4.959,2.299,4.959,5.004
		S955.724,526.319,952.974,526.32z"/>
	<path fill="#1C3557" d="M932.747,465.515c-2.706,0-5.005-2.3-5.005-5.005s2.3-5.004,5.005-5.004c2.75,0,4.959,2.299,4.959,5.004
		S935.497,465.514,932.747,465.515z"/>
	<path fill="#1C3557" d="M921.623,504.021c-2.705,0-5.004-2.3-5.004-5.005s2.299-5.004,5.004-5.004c2.75,0,4.959,2.299,4.959,5.004
		C926.582,501.721,924.373,504.021,921.623,504.021z"/>
	<path fill="#1C3557" d="M909.185,483.604c-2.705,0-5.004-2.298-5.004-5.004s2.299-5.005,5.004-5.005c2.75,0,4.959,2.3,4.959,5.005
		S911.935,483.604,909.185,483.604z"/>
	<path fill="#1C3557" d="M909.185,531.323c-2.705,0-5.004-2.299-5.004-5.004c0-2.706,2.299-5.005,5.004-5.005
		c2.75,0,4.959,2.3,4.959,5.005S911.935,531.324,909.185,531.323z"/>
</g>
</svg>
