<?xml version="1.0" encoding="utf-8"?>
<!-- Generator: Adobe Illustrator 17.0.0, SVG Export Plug-In . SVG Version: 6.00 Build 0)  -->
<!DOCTYPE svg PUBLIC "-//W3C//DTD SVG 1.1//EN" "http://www.w3.org/Graphics/SVG/1.1/DTD/svg11.dtd">
<svg version="1.1" id="cities" xmlns="http://www.w3.org/2000/svg" xmlns:xlink="http://www.w3.org/1999/xlink" x="0px" y="0px"
	 width="128px" height="128px" viewBox="0 0 128 128" enable-background="new 0 0 128 128" xml:space="preserve">
<g>
	<path fill="#1C3557" d="M19.154,113.962c0,3.167-1.949,5.115-5.116,5.115s-5.116-1.949-5.116-5.115V82.549
		c0-3.167,1.949-4.872,5.116-4.872s5.116,1.705,5.116,4.872V113.962z"/>
	<path fill="#A8D8DA" d="M51.272,113.962c0,3.167-1.949,5.115-5.116,5.115c-3.167,0-5.116-1.949-5.116-5.115V13.795
		c0-3.167,1.949-4.872,5.116-4.872c3.167,0,5.116,1.705,5.116,4.872V113.962z"/>
	<path fill="#E53947" d="M46.156,19.154c-3.167,0-5.116-1.949-5.116-5.115c0-3.167,1.949-5.116,5.116-5.116h33.902
		c3.167,0,4.872,1.949,4.872,5.116c0,3.167-1.705,5.115-4.872,5.115H46.156z"/>
	<path fill="#1C3557" d="M85.174,113.962c0,3.167-1.949,5.115-5.116,5.115c-3.167,0-5.116-1.949-5.116-5.115V13.795
		c0-3.167,1.949-4.872,5.116-4.872c3.167,0,5.116,1.705,5.116,4.872V113.962z"/>
	<path fill="#E95F69" d="M46.156,58.224c-3.167,0-5.116-1.949-5.116-5.116c0-3.167,1.949-5.116,5.116-5.116h68.049
		c3.167,0,4.872,1.949,4.872,5.116c0,3.167-1.705,5.116-4.872,5.116H46.156z"/>
	<path fill="#487C9C" d="M14.039,87.909c-3.167,0-5.116-1.949-5.116-5.116c0-3.167,1.949-5.116,5.116-5.116h100.166
		c3.167,0,4.872,1.949,4.872,5.116c0,3.167-1.705,5.116-4.872,5.116H14.039z"/>
	<path fill="#A8D8DA" d="M119.077,113.962c0,3.167-1.949,5.115-5.116,5.115c-3.167,0-5.116-1.949-5.116-5.115V52.865
		c0-3.167,1.949-4.872,5.116-4.872c3.167,0,5.116,1.705,5.116,4.872V113.962z"/>
	<path fill="#DAE4D6" d="M14.039,119.077c-3.167,0-5.116-1.949-5.116-5.115c0-3.167,1.949-5.116,5.116-5.116h100.166
		c3.167,0,4.872,1.949,4.872,5.116c0,3.167-1.705,5.115-4.872,5.115H14.039z"/>
</g>
</svg>
