<?xml version="1.0" encoding="utf-8"?>
<!-- Generator: Adobe Illustrator 17.0.0, SVG Export Plug-In . SVG Version: 6.00 Build 0)  -->
<!DOCTYPE svg PUBLIC "-//W3C//DTD SVG 1.1//EN" "http://www.w3.org/Graphics/SVG/1.1/DTD/svg11.dtd">
<svg version="1.1" id="education" xmlns="http://www.w3.org/2000/svg" xmlns:xlink="http://www.w3.org/1999/xlink" x="0px" y="0px"
	 width="128px" height="128px" viewBox="0 0 128 128" enable-background="new 0 0 128 128" xml:space="preserve">
<g>
	<g>
		<path fill="#1C3557" d="M80.126,12.658l36.555,59.245c1.647,2.669,1.018,5.326-1.651,6.973c-2.669,1.647-5.326,1.018-6.973-1.651
			L71.501,17.979c-1.647-2.669-0.891-5.12,1.778-6.768C75.949,9.564,78.479,9.988,80.126,12.658z"/>
		<path fill="#E53947" d="M79.383,12.657c1.647,2.669,1.223,5.199-1.446,6.846L18.692,56.059c-2.669,1.647-5.326,1.018-6.973-1.651
			s-1.018-5.326,1.651-6.973l59.245-36.555C75.285,9.232,77.736,9.988,79.383,12.657z"/>
		<path fill="#DAE4D6" d="M47.874,115.342L11.319,56.097c-1.647-2.669-1.018-5.326,1.651-6.973c2.669-1.647,5.326-1.018,6.973,1.651
			l36.555,59.245c1.647,2.669,0.891,5.12-1.778,6.768S49.521,118.012,47.874,115.342z"/>
		<path fill="#487C9C" d="M48.617,115.343c-1.647-2.669-1.223-5.199,1.446-6.846l59.245-36.555c2.669-1.647,5.326-1.018,6.973,1.651
			c1.647,2.669,1.018,5.326-1.651,6.973l-59.245,36.555C52.715,118.768,50.264,118.012,48.617,115.343z"/>
	</g>
	<path fill="#A8D8DA" d="M93.111,72.158v40.191c0,3.137-1.93,5.067-5.067,5.067s-5.067-1.93-5.067-5.067V72.158
		c0-3.137,1.93-4.826,5.067-4.826S93.111,69.021,93.111,72.158z"/>
</g>
</svg>
