<?xml version="1.0" encoding="utf-8"?>
<!-- Generator: Adobe Illustrator 17.0.0, SVG Export Plug-In . SVG Version: 6.00 Build 0)  -->
<!DOCTYPE svg PUBLIC "-//W3C//DTD SVG 1.1//EN" "http://www.w3.org/Graphics/SVG/1.1/DTD/svg11.dtd">
<svg version="1.1" id="energy" xmlns="http://www.w3.org/2000/svg" xmlns:xlink="http://www.w3.org/1999/xlink" x="0px" y="0px"
	 width="128px" height="128px" viewBox="0 0 128 128" enable-background="new 0 0 128 128" xml:space="preserve">
<g>
	<path fill="#A8D8DA" d="M63.936,78.318c-7.868,0-14.189-6.579-14.189-14.318s6.321-14.318,14.189-14.318
		c7.739,0,14.318,6.579,14.318,14.318S71.675,78.318,63.936,78.318z"/>
	<path fill="#487C9C" d="M69.069,14.905v15.564c0,3.138-1.931,5.069-5.069,5.069c-3.138,0-5.069-1.931-5.069-5.069V14.905
		c0-3.138,1.931-4.827,5.069-4.827C67.138,10.077,69.069,11.767,69.069,14.905z"/>
	<path fill="#1C3557" d="M102.3,32.869L91.294,43.874c-2.219,2.219-4.95,2.219-7.168,0c-2.219-2.219-2.219-4.95,0-7.168L95.131,25.7
		c2.219-2.219,4.779-2.048,6.998,0.171S104.519,30.65,102.3,32.869z"/>
	<path fill="#E95F69" d="M113.095,69.069H97.531c-3.138,0-5.069-1.931-5.069-5.069c0-3.138,1.931-5.069,5.069-5.069h15.564
		c3.138,0,4.827,1.931,4.827,5.069C117.923,67.138,116.233,69.069,113.095,69.069z"/>
	<path fill="#E53947" d="M95.131,102.3L84.126,91.294c-2.219-2.219-2.219-4.95,0-7.168s4.95-2.219,7.168,0L102.3,95.131
		c2.219,2.219,2.048,4.779-0.171,6.998S97.35,104.519,95.131,102.3z"/>
	<path fill="#487C9C" d="M58.931,113.095V97.531c0-3.138,1.931-5.069,5.069-5.069c3.138,0,5.069,1.931,5.069,5.069v15.564
		c0,3.138-1.931,4.827-5.069,4.827C60.862,117.923,58.931,116.233,58.931,113.095z"/>
	<path fill="#1C3557" d="M25.7,95.131l11.006-11.006c2.219-2.219,4.95-2.219,7.168,0c2.219,2.219,2.219,4.95,0,7.168L32.869,102.3
		c-2.219,2.219-4.779,2.048-6.998-0.171S23.481,97.35,25.7,95.131z"/>
	<path fill="#E95F69" d="M14.905,58.931h15.564c3.138,0,5.069,1.931,5.069,5.069c0,3.138-1.931,5.069-5.069,5.069H14.905
		c-3.138,0-4.827-1.931-4.827-5.069C10.077,60.862,11.767,58.931,14.905,58.931z"/>
	<path fill="#DAE4D6" d="M32.869,25.7l11.006,11.006c2.219,2.219,2.219,4.95,0,7.168c-2.219,2.219-4.95,2.219-7.168,0L25.7,32.869
		c-2.219-2.219-2.048-4.779,0.171-6.998S30.65,23.481,32.869,25.7z"/>
</g>
</svg>
