<?xml version="1.0" encoding="utf-8"?>
<!-- Generator: Adobe Illustrator 17.0.0, SVG Export Plug-In . SVG Version: 6.00 Build 0)  -->
<!DOCTYPE svg PUBLIC "-//W3C//DTD SVG 1.1//EN" "http://www.w3.org/Graphics/SVG/1.1/DTD/svg11.dtd">
<svg version="1.1" xmlns="http://www.w3.org/2000/svg" xmlns:xlink="http://www.w3.org/1999/xlink" x="0px" y="0px" width="128px"
	 height="128px" viewBox="0 0 128 128" enable-background="new 0 0 128 128" xml:space="preserve">
<g id="cities" display="none">
	<g display="inline">
		<path fill="#1C3557" d="M19.154,113.962c0,3.167-1.949,5.115-5.116,5.115s-5.116-1.949-5.116-5.115V82.549
			c0-3.167,1.949-4.872,5.116-4.872s5.116,1.705,5.116,4.872V113.962z"/>
		<path fill="#A8D8DA" d="M51.272,113.962c0,3.167-1.949,5.115-5.116,5.115c-3.167,0-5.116-1.949-5.116-5.115V13.795
			c0-3.167,1.949-4.872,5.116-4.872c3.167,0,5.116,1.705,5.116,4.872V113.962z"/>
		<path fill="#E53947" d="M46.156,19.154c-3.167,0-5.116-1.949-5.116-5.115c0-3.167,1.949-5.116,5.116-5.116h33.902
			c3.167,0,4.872,1.949,4.872,5.116c0,3.167-1.705,5.115-4.872,5.115H46.156z"/>
		<path fill="#1C3557" d="M85.174,113.962c0,3.167-1.949,5.115-5.116,5.115c-3.167,0-5.116-1.949-5.116-5.115V13.795
			c0-3.167,1.949-4.872,5.116-4.872c3.167,0,5.116,1.705,5.116,4.872V113.962z"/>
		<path fill="#E95F69" d="M46.156,58.224c-3.167,0-5.116-1.949-5.116-5.116c0-3.167,1.949-5.116,5.116-5.116h68.049
			c3.167,0,4.872,1.949,4.872,5.116c0,3.167-1.705,5.116-4.872,5.116H46.156z"/>
		<path fill="#487C9C" d="M14.039,87.909c-3.167,0-5.116-1.949-5.116-5.116c0-3.167,1.949-5.116,5.116-5.116h100.166
			c3.167,0,4.872,1.949,4.872,5.116c0,3.167-1.705,5.116-4.872,5.116H14.039z"/>
		<path fill="#A8D8DA" d="M119.077,113.962c0,3.167-1.949,5.115-5.116,5.115c-3.167,0-5.116-1.949-5.116-5.115V52.865
			c0-3.167,1.949-4.872,5.116-4.872c3.167,0,5.116,1.705,5.116,4.872V113.962z"/>
		<path fill="#DAE4D6" d="M14.039,119.077c-3.167,0-5.116-1.949-5.116-5.115c0-3.167,1.949-5.116,5.116-5.116h100.166
			c3.167,0,4.872,1.949,4.872,5.116c0,3.167-1.705,5.115-4.872,5.115H14.039z"/>
	</g>
</g>
<g id="energy" display="none">
	<g display="inline">
		<path fill="#A8D8DA" d="M63.936,78.318c-7.868,0-14.189-6.579-14.189-14.318s6.321-14.318,14.189-14.318
			c7.739,0,14.318,6.579,14.318,14.318S71.675,78.318,63.936,78.318z"/>
		<path fill="#487C9C" d="M69.069,14.905v15.564c0,3.138-1.931,5.069-5.069,5.069c-3.138,0-5.069-1.931-5.069-5.069V14.905
			c0-3.138,1.931-4.827,5.069-4.827C67.138,10.077,69.069,11.767,69.069,14.905z"/>
		<path fill="#1C3557" d="M102.3,32.869L91.294,43.874c-2.219,2.219-4.95,2.219-7.168,0c-2.219-2.219-2.219-4.95,0-7.168
			L95.131,25.7c2.219-2.219,4.779-2.048,6.998,0.171S104.519,30.65,102.3,32.869z"/>
		<path fill="#E95F69" d="M113.095,69.069H97.531c-3.138,0-5.069-1.931-5.069-5.069c0-3.138,1.931-5.069,5.069-5.069h15.564
			c3.138,0,4.827,1.931,4.827,5.069C117.923,67.138,116.233,69.069,113.095,69.069z"/>
		<path fill="#E53947" d="M95.131,102.3L84.126,91.294c-2.219-2.219-2.219-4.95,0-7.168s4.95-2.219,7.168,0L102.3,95.131
			c2.219,2.219,2.048,4.779-0.171,6.998S97.35,104.519,95.131,102.3z"/>
		<path fill="#487C9C" d="M58.931,113.095V97.531c0-3.138,1.931-5.069,5.069-5.069c3.138,0,5.069,1.931,5.069,5.069v15.564
			c0,3.138-1.931,4.827-5.069,4.827C60.862,117.923,58.931,116.233,58.931,113.095z"/>
		<path fill="#1C3557" d="M25.7,95.131l11.006-11.006c2.219-2.219,4.95-2.219,7.168,0c2.219,2.219,2.219,4.95,0,7.168L32.869,102.3
			c-2.219,2.219-4.779,2.048-6.998-0.171S23.481,97.35,25.7,95.131z"/>
		<path fill="#E95F69" d="M14.905,58.931h15.564c3.138,0,5.069,1.931,5.069,5.069c0,3.138-1.931,5.069-5.069,5.069H14.905
			c-3.138,0-4.827-1.931-4.827-5.069C10.077,60.862,11.767,58.931,14.905,58.931z"/>
		<path fill="#DAE4D6" d="M32.869,25.7l11.006,11.006c2.219,2.219,2.219,4.95,0,7.168c-2.219,2.219-4.95,2.219-7.168,0L25.7,32.869
			c-2.219-2.219-2.048-4.779,0.171-6.998S30.65,23.481,32.869,25.7z"/>
	</g>
</g>
<g id="education" display="none">
	<g display="inline">
		<g>
			<path fill="#1C3557" d="M80.126,12.658l36.555,59.245c1.647,2.669,1.018,5.326-1.651,6.973c-2.669,1.647-5.326,1.018-6.973-1.651
				L71.501,17.979c-1.647-2.669-0.891-5.12,1.778-6.768C75.949,9.564,78.479,9.988,80.126,12.658z"/>
			<path fill="#E53947" d="M79.383,12.657c1.647,2.669,1.223,5.199-1.446,6.846L18.692,56.059c-2.669,1.647-5.326,1.018-6.973-1.651
				s-1.018-5.326,1.651-6.973l59.245-36.555C75.285,9.232,77.736,9.988,79.383,12.657z"/>
			<path fill="#DAE4D6" d="M47.874,115.342L11.319,56.097c-1.647-2.669-1.018-5.326,1.651-6.973
				c2.669-1.647,5.326-1.018,6.973,1.651l36.555,59.245c1.647,2.669,0.891,5.12-1.778,6.768S49.521,118.012,47.874,115.342z"/>
			<path fill="#487C9C" d="M48.617,115.343c-1.647-2.669-1.223-5.199,1.446-6.846l59.245-36.555
				c2.669-1.647,5.326-1.018,6.973,1.651c1.647,2.669,1.018,5.326-1.651,6.973l-59.245,36.555
				C52.715,118.768,50.264,118.012,48.617,115.343z"/>
		</g>
		<path fill="#A8D8DA" d="M93.111,72.158v40.191c0,3.137-1.93,5.067-5.067,5.067s-5.067-1.93-5.067-5.067V72.158
			c0-3.137,1.93-4.826,5.067-4.826S93.111,69.021,93.111,72.158z"/>
	</g>
</g>
<g id="innovation" display="none">
	<g display="inline">
		<path fill="#E53947" d="M15.23,101.141l39.882-39.881c2.239-2.239,4.995-2.239,7.234,0c2.239,2.239,2.239,4.995,0,7.235
			l-39.881,39.881c-2.239,2.239-4.823,2.067-7.062-0.172C13.164,105.964,12.991,103.38,15.23,101.141z"/>
		<path fill="#DAE4D6" d="M62.346,59.506c2.239,2.239,2.239,4.995,0,7.235c-2.239,2.239-4.995,2.239-7.234,0L15.23,26.859
			c-2.239-2.239-2.067-4.823,0.172-7.062c2.239-2.239,4.823-2.412,7.062-0.172L62.346,59.506z"/>
		<path fill="#1C3557" d="M112.686,59.506c2.24,2.239,2.24,4.995,0,7.235c-2.239,2.239-4.995,2.239-7.235,0L65.57,26.859
			c-2.239-2.239-2.067-4.823,0.172-7.062c2.239-2.239,4.823-2.412,7.062-0.172L112.686,59.506z"/>
		<path fill="#487C9C" d="M65.57,101.141l39.881-39.881c2.24-2.239,4.996-2.239,7.235,0c2.24,2.239,2.24,4.995,0,7.235
			l-39.881,39.881c-2.239,2.239-4.823,2.067-7.062-0.172C63.503,105.964,63.33,103.38,65.57,101.141z"/>
	</g>
</g>
<g id="decentralization" display="none">
	<g display="inline">
		<path fill="#DAE4D6" d="M15.401,71.887c0-3.808,3.11-7.046,6.983-7.046c3.809,0,7.046,3.238,7.046,7.046
			c0,3.809-3.237,7.046-7.046,7.046C18.511,78.934,15.401,75.696,15.401,71.887z"/>
		<path fill="#E95F69" d="M36.917,103.283c0-3.809,3.11-7.046,6.983-7.046c3.809,0,7.046,3.237,7.046,7.046
			s-3.237,7.046-7.046,7.046C40.027,110.33,36.917,107.092,36.917,103.283z"/>
		<path fill="#A8D8DA" d="M65.396,17.67c0-3.808,3.11-7.046,6.982-7.046c3.809,0,7.046,3.238,7.046,7.046
			c0,3.809-3.238,7.046-7.046,7.046C68.506,24.717,65.396,21.479,65.396,17.67z"/>
		<path fill="#487C9C" d="M81.058,71.887c0-3.808,3.11-7.046,6.983-7.046c3.809,0,7.046,3.238,7.046,7.046
			c0,3.809-3.237,7.046-7.046,7.046C84.168,78.934,81.058,75.696,81.058,71.887z"/>
		<path fill="#1C3557" d="M98.571,43.141c0-3.809,3.11-7.046,6.983-7.046c3.809,0,7.046,3.238,7.046,7.046
			c0,3.809-3.237,7.046-7.046,7.046C101.681,50.187,98.571,46.95,98.571,43.141z"/>
		<path fill="#E53947" d="M98.571,110.33c0-3.809,3.11-7.046,6.983-7.046c3.809,0,7.046,3.238,7.046,7.046
			c0,3.808-3.237,7.046-7.046,7.046C101.681,117.376,98.571,114.138,98.571,110.33z"/>
	</g>
</g>
<g id="housing">
	<g>
		<path fill="#A8D8DA" d="M64.796,85.048c-6.86,0-12.37-5.735-12.37-12.482s5.51-12.482,12.37-12.482
			c6.747,0,12.482,5.735,12.482,12.482S71.543,85.048,64.796,85.048z"/>
		<path fill="#487C9C" d="M15.296,110.334h99.339c3.141,0,5.073,1.933,5.073,5.073s-1.933,5.073-5.073,5.073H15.296
			c-3.141,0-4.832-1.933-4.832-5.073S12.155,110.334,15.296,110.334z"/>
		<path fill="#1C3557" d="M66.972,9.102L116.26,58.39c2.221,2.221,2.221,4.954,0,7.175s-4.954,2.221-7.175,0L59.797,16.277
			c-2.221-2.221-2.05-4.783,0.171-7.004S64.752,6.881,66.972,9.102z"/>
		<path fill="#E53947" d="M66.249,9.273c2.221,2.221,2.392,4.783,0.171,7.004L17.132,65.565c-2.221,2.221-4.954,2.221-7.175,0
			s-2.221-4.954,0-7.175L59.245,9.102C61.466,6.881,64.028,7.052,66.249,9.273z"/>
	</g>
</g>
</svg>
