<?xml version="1.0" encoding="utf-8"?>
<!-- Generator: Adobe Illustrator 17.0.0, SVG Export Plug-In . SVG Version: 6.00 Build 0)  -->
<!DOCTYPE svg PUBLIC "-//W3C//DTD SVG 1.1//EN" "http://www.w3.org/Graphics/SVG/1.1/DTD/svg11.dtd">
<svg version="1.1" id="decentralization" xmlns="http://www.w3.org/2000/svg" xmlns:xlink="http://www.w3.org/1999/xlink" x="0px"
	 y="0px" width="128px" height="128px" viewBox="0 0 128 128" enable-background="new 0 0 128 128" xml:space="preserve">
<g>
	<path fill="#A8D9DB" d="M15.401,71.887c0-3.808,3.11-7.046,6.983-7.046c3.809,0,7.046,3.238,7.046,7.046
		c0,3.809-3.237,7.046-7.046,7.046C18.511,78.934,15.401,75.696,15.401,71.887z"/>
	<path fill="#467C9D" d="M36.917,103.283c0-3.809,3.11-7.046,6.983-7.046c3.809,0,7.046,3.237,7.046,7.046s-3.237,7.046-7.046,7.046
		C40.027,110.33,36.917,107.092,36.917,103.283z"/>
	<path fill="#EA5F69" d="M65.396,17.67c0-3.808,3.11-7.046,6.982-7.046c3.809,0,7.046,3.238,7.046,7.046
		c0,3.809-3.238,7.046-7.046,7.046C68.506,24.717,65.396,21.479,65.396,17.67z"/>
	<path fill="#DBE5D8" d="M81.058,71.887c0-3.808,3.11-7.046,6.983-7.046c3.809,0,7.046,3.238,7.046,7.046
		c0,3.809-3.237,7.046-7.046,7.046C84.168,78.934,81.058,75.696,81.058,71.887z"/>
	<path fill="#F9F9F9" d="M98.571,43.141c0-3.809,3.11-7.046,6.983-7.046c3.809,0,7.046,3.238,7.046,7.046
		c0,3.809-3.237,7.046-7.046,7.046C101.681,50.187,98.571,46.95,98.571,43.141z"/>
	<path fill="#E53947" d="M98.571,110.33c0-3.809,3.11-7.046,6.983-7.046c3.809,0,7.046,3.238,7.046,7.046
		c0,3.808-3.237,7.046-7.046,7.046C101.681,117.376,98.571,114.138,98.571,110.33z"/>
</g>
</svg>
