<?xml version="1.0" encoding="utf-8"?>
<!-- Generator: Adobe Illustrator 17.0.0, SVG Export Plug-In . SVG Version: 6.00 Build 0)  -->
<!DOCTYPE svg PUBLIC "-//W3C//DTD SVG 1.1//EN" "http://www.w3.org/Graphics/SVG/1.1/DTD/svg11.dtd">
<svg version="1.1" id="housing" xmlns="http://www.w3.org/2000/svg" xmlns:xlink="http://www.w3.org/1999/xlink" x="0px" y="0px"
	 width="128px" height="128px" viewBox="0 0 128 128" enable-background="new 0 0 128 128" xml:space="preserve">
<g>
	<path fill="#EA5F69" d="M64.796,85.048c-6.86,0-12.37-5.735-12.37-12.482s5.51-12.482,12.37-12.482
		c6.747,0,12.482,5.735,12.482,12.482S71.543,85.048,64.796,85.048z"/>
	<path fill="#DBE5D8" d="M15.296,110.334h99.339c3.141,0,5.073,1.933,5.073,5.073s-1.933,5.073-5.073,5.073H15.296
		c-3.141,0-4.832-1.933-4.832-5.073S12.155,110.334,15.296,110.334z"/>
	<path fill="#F9F9F9" d="M66.972,9.102L116.26,58.39c2.221,2.221,2.221,4.954,0,7.175s-4.954,2.221-7.175,0L59.797,16.277
		c-2.221-2.221-2.05-4.783,0.171-7.004S64.752,6.881,66.972,9.102z"/>
	<path fill="#E53947" d="M66.249,9.273c2.221,2.221,2.392,4.783,0.171,7.004L17.132,65.565c-2.221,2.221-4.954,2.221-7.175,0
		s-2.221-4.954,0-7.175L59.245,9.102C61.466,6.881,64.028,7.052,66.249,9.273z"/>
</g>
</svg>
