<?xml version="1.0" encoding="utf-8"?>
<!-- Generator: Adobe Illustrator 17.0.0, SVG Export Plug-In . SVG Version: 6.00 Build 0)  -->
<!DOCTYPE svg PUBLIC "-//W3C//DTD SVG 1.1//EN" "http://www.w3.org/Graphics/SVG/1.1/DTD/svg11.dtd">
<svg version="1.1" id="innovation" xmlns="http://www.w3.org/2000/svg" xmlns:xlink="http://www.w3.org/1999/xlink" x="0px" y="0px"
	 width="128px" height="128px" viewBox="0 0 128 128" enable-background="new 0 0 128 128" xml:space="preserve">
<g>
	<path fill="#E53946" d="M15.23,101.141l39.882-39.881c2.239-2.239,4.995-2.239,7.234,0c2.239,2.239,2.239,4.995,0,7.235
		l-39.881,39.881c-2.239,2.239-4.823,2.067-7.062-0.172C13.164,105.964,12.991,103.38,15.23,101.141z"/>
	<path fill="#A8D9DB" d="M62.346,59.506c2.239,2.239,2.239,4.995,0,7.235c-2.239,2.239-4.995,2.239-7.234,0L15.23,26.859
		c-2.239-2.239-2.067-4.823,0.172-7.062c2.239-2.239,4.823-2.412,7.062-0.172L62.346,59.506z"/>
	<path fill="#F9F9F9" d="M112.686,59.506c2.24,2.239,2.24,4.995,0,7.235c-2.239,2.239-4.995,2.239-7.235,0L65.57,26.859
		c-2.239-2.239-2.067-4.823,0.172-7.062c2.239-2.239,4.823-2.412,7.062-0.172L112.686,59.506z"/>
	<path fill="#DBE5D8" d="M65.57,101.141l39.881-39.881c2.24-2.239,4.996-2.239,7.235,0c2.24,2.239,2.24,4.995,0,7.235
		l-39.881,39.881c-2.239,2.239-4.823,2.067-7.062-0.172C63.503,105.964,63.33,103.38,65.57,101.141z"/>
</g>
</svg>
