<?xml version="1.0" encoding="utf-8"?>
<!-- Generator: Adobe Illustrator 17.0.0, SVG Export Plug-In . SVG Version: 6.00 Build 0)  -->
<!DOCTYPE svg PUBLIC "-//W3C//DTD SVG 1.1//EN" "http://www.w3.org/Graphics/SVG/1.1/DTD/svg11.dtd">
<svg version="1.1" id="housing" xmlns="http://www.w3.org/2000/svg" xmlns:xlink="http://www.w3.org/1999/xlink" x="0px" y="0px"
	 width="384px" height="128px" viewBox="0 0 384 128" enable-background="new 0 0 384 128" xml:space="preserve">
<g>
	<path fill="#F9F9F9" d="M349.154,27.553c2.183,1.328,2.812,3.321,1.483,5.505L332.67,62.71c-1.328,2.183-3.489,2.709-5.672,1.381
		c-2.183-1.328-2.709-3.489-1.381-5.672l17.967-29.652C344.912,26.583,346.971,26.225,349.154,27.553z"/>
	<path fill="#467C9D" d="M243.431,97.266c0-2.556,1.376-4.128,3.932-4.128h34.851c2.556,0,4.128,1.573,4.128,4.128
		s-1.573,4.128-4.128,4.128h-34.851C244.807,101.395,243.431,99.822,243.431,97.266z"/>
	<path fill="#DBE5D8" d="M247.277,30.734c0-2.556,1.376-4.128,3.932-4.128h13.678c2.556,0,4.128,1.573,4.128,4.128
		s-1.573,4.128-4.128,4.128h-13.678C248.653,34.862,247.277,33.289,247.277,30.734z"/>
	<path fill="#DBE5D8" d="M309.336,30.734c0-2.556,1.376-4.128,3.932-4.128h33.934c2.556,0,4.128,1.573,4.128,4.128
		s-1.573,4.128-4.128,4.128h-33.934C310.712,34.862,309.336,33.289,309.336,30.734z"/>
	<path fill="#F9F9F9" d="M77.496,28.018c0,2.167-2.053,4.22-4.335,4.22H41.452v24.638h29.2c2.281,0,4.334,2.053,4.334,4.335
		c0,2.053-2.053,4.334-4.334,4.334H41.566v37.299H32.67V23.57h40.492C75.444,23.57,77.496,25.737,77.496,28.018z"/>
	<path fill="#F9F9F9" d="M147.068,104.326c-2.167,0.456-4.676-0.799-5.361-3.422l-4.904-20.19h-26.007l-4.904,20.19
		c-0.685,2.851-2.851,3.878-5.133,3.422c-2.851-0.57-4.105-2.851-3.535-5.361l17.68-75.395h17.565l17.907,75.395
		C150.946,101.475,149.35,103.87,147.068,104.326z M121.861,32.238l-9.125,39.694h22.014l-9.011-39.694H121.861z"/>
	<path fill="#F9F9F9" d="M212.113,61.781c7.072-3.08,8.44-12.205,8.44-16.196V44.33c0-7.072-2.851-20.76-20.759-20.76h-23.611
		v79.274h24.181c17.794,0,21.444-14.03,21.444-20.988v-2.737C221.808,75.012,219.869,65.431,212.113,61.781z M184.966,32.238h14.829
		c4.106,0,11.977,1.369,11.977,12.091v1.026c0,10.721-6.388,12.433-11.293,12.433h-15.513V32.238z M213.026,81.514
		c0,10.836-8.441,12.547-12.661,12.547h-15.399V66.572h15.969c4.791,0,12.091,1.71,12.091,12.66V81.514z"/>
	<path fill="#A8D9DB" d="M329.636,94.668c2.167,0,4.226,1.625,4.226,4.118c0,2.167-2.059,4.226-4.226,4.226
		c-17.229,0-21.672-13.328-21.672-20.805c0-2.167,1.625-4.226,4.118-4.226c2.167,0,4.226,2.059,4.226,4.226
		C316.308,92.826,325.627,94.668,329.636,94.668z"/>
	<path fill="#E53946" d="M329.094,64.886c-2.167,0-4.226-1.625-4.226-4.118c0-2.167,2.059-4.226,4.226-4.226
		c17.229,0,21.672,13.328,21.672,20.805c0,2.167-1.625,4.226-4.118,4.226c-2.167,0-4.226-2.059-4.226-4.226
		C342.423,66.728,333.104,64.886,329.094,64.886z"/>
	<path fill="#467C9D" d="M342.423,82.206c0-2.167,2.059-4.226,4.226-4.226c2.492,0,4.118,2.059,4.118,4.226
		c0,7.477-4.443,20.805-21.672,20.805c-2.167,0-4.226-2.059-4.226-4.226c0-2.492,2.059-4.118,4.226-4.118
		C333.104,94.668,342.423,92.826,342.423,82.206z"/>
	<path fill="#EA5F69" d="M264.886,26.605c2.556,0,4.128,1.376,4.128,3.932v66.729c0,2.556-1.573,4.128-4.128,4.128
		c-2.556,0-4.128-1.573-4.128-4.128V30.537C260.758,27.981,262.331,26.605,264.886,26.605z"/>
</g>
</svg>
