<?xml version="1.0" encoding="utf-8"?>
<!-- Generator: Adobe Illustrator 17.0.0, SVG Export Plug-In . SVG Version: 6.00 Build 0)  -->
<!DOCTYPE svg PUBLIC "-//W3C//DTD SVG 1.1//EN" "http://www.w3.org/Graphics/SVG/1.1/DTD/svg11.dtd">
<svg version="1.1" id="element1" xmlns="http://www.w3.org/2000/svg" xmlns:xlink="http://www.w3.org/1999/xlink" x="0px" y="0px"
	 width="960px" height="1089px" viewBox="0 0 960 1089" enable-background="new 0 0 960 1089" xml:space="preserve">
<path fill="#2C4251" d="M633.786,230.439c2.136,1.3,2.751,3.25,1.451,5.387l-17.582,29.017c-1.3,2.136-3.414,2.651-5.551,1.351
	c-2.136-1.3-2.651-3.414-1.351-5.551l17.582-29.017C629.635,229.49,631.65,229.139,633.786,230.439z"/>
<path fill="#EA5F69" d="M530.329,298.659c0-2.501,1.347-4.04,3.847-4.04h34.104c2.501,0,4.04,1.539,4.04,4.04s-1.539,4.04-4.04,4.04
	h-34.104C531.675,302.698,530.329,301.159,530.329,298.659z"/>
<path fill="#467C9D" d="M534.092,233.551c0-2.501,1.347-4.04,3.847-4.04h13.385c2.501,0,4.04,1.539,4.04,4.04s-1.539,4.04-4.04,4.04
	H537.94C535.439,237.591,534.092,236.052,534.092,233.551z"/>
<path fill="#2C4251" d="M367.95,230.894c0,2.121-2.009,4.129-4.242,4.129h-31.03v24.11h28.574c2.232,0,4.241,2.009,4.241,4.242
	c0,2.009-2.009,4.241-4.241,4.241H332.79v36.5h-8.706v-77.575h39.624C365.941,226.541,367.95,228.662,367.95,230.894z"/>
<path fill="#2C4251" d="M464.522,304.116v-77.575h23.105c17.524,0,20.314,13.394,20.314,20.315v1.228
	c0,3.906-1.339,12.836-8.259,15.849c7.59,3.572,9.487,12.948,9.487,16.966v2.679c0,6.809-3.572,20.538-20.984,20.538H464.522z
	 M487.627,235.024h-14.511v25.003h15.18c4.8,0,11.051-1.675,11.051-12.166v-1.004C499.347,236.363,491.646,235.024,487.627,235.024z
	 M488.743,268.622h-15.627v26.9h15.069c4.13,0,12.39-1.675,12.39-12.278v-2.233C500.575,270.295,493.432,268.622,488.743,268.622z"
	/>
<path fill="#EA5F69" d="M627.199,283.921c0-2.121,2.015-4.135,4.135-4.135c2.439,0,4.029,2.015,4.029,4.135
	c0,7.317-4.348,20.359-21.208,20.359c-2.121,0-4.135-2.015-4.135-4.135c0-2.439,2.015-4.029,4.135-4.029
	C618.08,296.115,627.199,294.313,627.199,283.921z"/>
<path fill="#EA5F69" d="M631.325,274.264c2.501,0,4.04,1.347,4.04,3.847v4.661c0,2.501-1.539,4.04-4.04,4.04s-4.04-1.539-4.04-4.04
	v-4.661C627.285,275.61,628.824,274.264,631.325,274.264z"/>
<path fill="#2C4251" d="M436.031,305.567c-2.121,0.446-4.576-0.782-5.246-3.348l-4.799-19.757h-25.45l-4.799,19.757
	c-0.67,2.79-2.79,3.795-5.023,3.348c-2.79-0.558-4.017-2.79-3.459-5.246l17.301-73.78h17.189l17.524,73.78
	C439.826,302.777,438.264,305.121,436.031,305.567z M411.364,235.024l-8.93,38.843h21.542l-8.818-38.843H411.364z"/>
</svg>
