<?xml version="1.0" encoding="utf-8"?>
<!-- Generator: Adobe Illustrator 17.0.0, SVG Export Plug-In . SVG Version: 6.00 Build 0)  -->
<!DOCTYPE svg PUBLIC "-//W3C//DTD SVG 1.1//EN" "http://www.w3.org/Graphics/SVG/1.1/DTD/svg11.dtd">
<svg version="1.1" id="element_2" xmlns="http://www.w3.org/2000/svg" xmlns:xlink="http://www.w3.org/1999/xlink" x="0px" y="0px"
	 width="960px" height="1089px" viewBox="0 0 960 1089" enable-background="new 0 0 960 1089" xml:space="preserve">
<path fill="#A8D9DB" d="M551.324,229.512c2.501,0,4.04,1.347,4.04,3.847v65.3c0,2.501-1.539,4.04-4.04,4.04s-4.04-1.539-4.04-4.04
	v-65.3C547.285,230.858,548.823,229.512,551.324,229.512z"/>
<path fill="#467C9D" d="M594.822,233.551c0-2.501,1.347-4.04,3.847-4.04h33.207c2.501,0,4.04,1.539,4.04,4.04s-1.539,4.04-4.04,4.04
	h-33.207C596.168,237.591,594.822,236.052,594.822,233.551z"/>
<path fill="#DBE5D8" d="M614.687,296.115c2.121,0,4.135,1.591,4.135,4.029c0,2.121-2.015,4.135-4.135,4.135
	c-16.86,0-21.208-13.043-21.208-20.359c0-2.121,1.591-4.135,4.029-4.135c2.121,0,4.135,2.015,4.135,4.135
	C601.644,294.313,610.763,296.115,614.687,296.115z"/>
<path fill="#E53946" d="M614.157,266.972c-2.121,0-4.135-1.591-4.135-4.029c0-2.121,2.015-4.135,4.135-4.135
	c16.86,0,21.208,13.043,21.208,20.359c0,2.121-1.591,4.136-4.029,4.136c-2.121,0-4.135-2.015-4.135-4.136
	C627.199,268.775,618.08,266.972,614.157,266.972z"/>
</svg>
