<?xml version="1.0" encoding="utf-8"?>
<!-- Generator: Adobe Illustrator 17.0.0, SVG Export Plug-In . SVG Version: 6.00 Build 0)  -->
<!DOCTYPE svg PUBLIC "-//W3C//DTD SVG 1.1//EN" "http://www.w3.org/Graphics/SVG/1.1/DTD/svg11.dtd">
<svg version="1.1" xmlns="http://www.w3.org/2000/svg" xmlns:xlink="http://www.w3.org/1999/xlink" x="0px" y="0px" width="960px"
	 height="606.5px" viewBox="0 0 960 606.5" enable-background="new 0 0 960 606.5" xml:space="preserve">
<g id="element1" display="none">
	<path display="inline" fill="#2C4251" d="M633.786,230.439c2.136,1.3,2.751,3.25,1.451,5.387l-17.582,29.017
		c-1.3,2.136-3.414,2.651-5.551,1.351c-2.136-1.3-2.651-3.414-1.351-5.551l17.582-29.017
		C629.635,229.49,631.65,229.139,633.786,230.439z"/>
	<path display="inline" fill="#EA5F69" d="M530.329,298.659c0-2.501,1.347-4.04,3.847-4.04h34.104c2.501,0,4.04,1.539,4.04,4.04
		s-1.539,4.04-4.04,4.04h-34.104C531.675,302.698,530.329,301.159,530.329,298.659z"/>
	<path display="inline" fill="#467C9D" d="M534.092,233.551c0-2.501,1.347-4.04,3.847-4.04h13.385c2.501,0,4.04,1.539,4.04,4.04
		s-1.539,4.04-4.04,4.04H537.94C535.439,237.591,534.092,236.052,534.092,233.551z"/>
	<path display="inline" fill="#2C4251" d="M367.95,230.894c0,2.121-2.009,4.129-4.242,4.129h-31.03v24.11h28.574
		c2.232,0,4.241,2.009,4.241,4.242c0,2.009-2.009,4.241-4.241,4.241H332.79v36.5h-8.706v-77.575h39.624
		C365.941,226.541,367.95,228.662,367.95,230.894z"/>
	<path display="inline" fill="#2C4251" d="M464.522,304.116v-77.575h23.105c17.524,0,20.314,13.394,20.314,20.315v1.228
		c0,3.906-1.339,12.836-8.259,15.849c7.59,3.572,9.487,12.948,9.487,16.966v2.679c0,6.809-3.572,20.538-20.984,20.538H464.522z
		 M487.627,235.024h-14.511v25.003h15.18c4.8,0,11.051-1.675,11.051-12.166v-1.004C499.347,236.363,491.646,235.024,487.627,235.024
		z M488.743,268.622h-15.627v26.9h15.069c4.13,0,12.39-1.675,12.39-12.278v-2.233C500.575,270.295,493.432,268.622,488.743,268.622z
		"/>
	<path display="inline" fill="#EA5F69" d="M627.199,283.921c0-2.121,2.015-4.135,4.135-4.135c2.439,0,4.029,2.015,4.029,4.135
		c0,7.317-4.348,20.359-21.208,20.359c-2.121,0-4.135-2.015-4.135-4.135c0-2.439,2.015-4.029,4.135-4.029
		C618.08,296.115,627.199,294.313,627.199,283.921z"/>
	<path display="inline" fill="#EA5F69" d="M631.325,274.264c2.501,0,4.04,1.347,4.04,3.847v4.661c0,2.501-1.539,4.04-4.04,4.04
		s-4.04-1.539-4.04-4.04v-4.661C627.285,275.61,628.824,274.264,631.325,274.264z"/>
	<path display="inline" fill="#2C4251" d="M436.031,305.567c-2.121,0.446-4.576-0.782-5.246-3.348l-4.799-19.757h-25.45
		l-4.799,19.757c-0.67,2.79-2.79,3.795-5.023,3.348c-2.79-0.558-4.017-2.79-3.459-5.246l17.301-73.78h17.189l17.524,73.78
		C439.826,302.777,438.264,305.121,436.031,305.567z M411.364,235.024l-8.93,38.843h21.542l-8.818-38.843H411.364z"/>
	<path display="inline" fill="#487C9C" d="M807.276,481.179h68.282c2.159,0,3.487,1.328,3.487,3.487s-1.328,3.487-3.487,3.487
		h-68.282c-2.159,0-3.321-1.328-3.321-3.487S805.117,481.179,807.276,481.179z"/>
	<path display="inline" fill="#E53947" d="M842.299,411.713c1.526,1.526,1.644,3.288,0.117,4.814l-33.879,33.879
		c-1.526,1.527-3.405,1.527-4.932,0c-1.526-1.526-1.526-3.405,0-4.932l33.879-33.879
		C839.011,410.069,840.773,410.187,842.299,411.713z"/>
	<path display="inline" fill="#1C3557" d="M151.972,396.719l26.804,43.441c1.208,1.957,0.746,3.905-1.211,5.113
		c-1.957,1.208-3.905,0.746-5.113-1.211l-26.804-43.441c-1.208-1.957-0.654-3.754,1.304-4.962
		C148.91,394.451,150.765,394.761,151.972,396.719z"/>
	<path display="inline" fill="#DAE4D6" d="M128.324,472.011l-26.804-43.441c-1.208-1.957-0.746-3.905,1.211-5.113
		c1.957-1.208,3.905-0.746,5.113,1.211l26.804,43.441c1.208,1.957,0.654,3.755-1.304,4.962
		C131.387,474.279,129.532,473.968,128.324,472.011z"/>
</g>
<g id="element_2">
	<path fill="#A8D9DB" d="M551.324,229.512c2.501,0,4.04,1.347,4.04,3.847v65.3c0,2.501-1.539,4.04-4.04,4.04s-4.04-1.539-4.04-4.04
		v-65.3C547.285,230.858,548.823,229.512,551.324,229.512z"/>
	<path fill="#467C9D" d="M594.822,233.551c0-2.501,1.347-4.04,3.847-4.04h33.207c2.501,0,4.04,1.539,4.04,4.04
		s-1.539,4.04-4.04,4.04h-33.207C596.168,237.591,594.822,236.052,594.822,233.551z"/>
	<path fill="#DBE5D8" d="M614.687,296.115c2.121,0,4.135,1.591,4.135,4.029c0,2.121-2.015,4.135-4.135,4.135
		c-16.86,0-21.208-13.043-21.208-20.359c0-2.121,1.591-4.135,4.029-4.135c2.121,0,4.135,2.015,4.135,4.135
		C601.644,294.313,610.763,296.115,614.687,296.115z"/>
	<path fill="#E53946" d="M614.157,266.972c-2.121,0-4.135-1.591-4.135-4.029c0-2.121,2.015-4.135,4.135-4.135
		c16.86,0,21.208,13.043,21.208,20.359c0,2.121-1.591,4.136-4.029,4.136c-2.121,0-4.135-2.015-4.135-4.136
		C627.199,268.775,618.08,266.972,614.157,266.972z"/>
	<path fill="#E53947" d="M151.428,396.718c1.208,1.957,0.897,3.812-1.06,5.02l-43.441,26.804c-1.957,1.208-3.905,0.746-5.113-1.211
		c-1.208-1.957-0.746-3.905,1.211-5.113l43.441-26.804C148.423,394.207,150.22,394.761,151.428,396.718z"/>
	<path fill="#487C9C" d="M128.869,472.011c-1.208-1.957-0.897-3.812,1.06-5.02l43.441-26.804c1.957-1.208,3.905-0.746,5.113,1.211
		c1.208,1.957,0.746,3.905-1.211,5.113l-43.441,26.804C131.873,474.523,130.076,473.969,128.869,472.011z"/>
	<path fill="#A8D8DA" d="M161.494,440.347v29.47c0,2.3-1.415,3.715-3.715,3.715c-2.3,0-3.715-1.415-3.715-3.715v-29.47
		c0-2.3,1.415-3.538,3.715-3.538C160.078,436.808,161.494,438.047,161.494,440.347z"/>
	<path fill="#A8D8DA" d="M841.3,463.798c-4.715,0-8.503-3.942-8.503-8.58c0-4.638,3.787-8.58,8.503-8.58
		c4.638,0,8.58,3.942,8.58,8.58C849.88,459.856,845.938,463.798,841.3,463.798z"/>
	<path fill="#1C3557" d="M842.796,411.596l33.879,33.879c1.526,1.526,1.526,3.405,0,4.932c-1.526,1.527-3.405,1.527-4.932,0
		l-33.879-33.879c-1.526-1.527-1.409-3.288,0.117-4.814C839.509,410.187,841.27,410.069,842.796,411.596z"/>
</g>
<g id="Layer_3" display="none">
	<rect x="-0.5" y="0.5" display="inline" fill="none" stroke="#2C4251" stroke-miterlimit="10" width="960" height="606"/>
	<rect x="-0.5" y="0.5" display="inline" fill="none" stroke="#2C4251" stroke-miterlimit="10" width="960" height="606"/>
</g>
</svg>
