<?xml version="1.0" encoding="utf-8"?>
<!-- Generator: Adobe Illustrator 17.0.0, SVG Export Plug-In . SVG Version: 6.00 Build 0)  -->
<!DOCTYPE svg PUBLIC "-//W3C//DTD SVG 1.1//EN" "http://www.w3.org/Graphics/SVG/1.1/DTD/svg11.dtd">
<svg version="1.1" id="Layer_1" xmlns="http://www.w3.org/2000/svg" xmlns:xlink="http://www.w3.org/1999/xlink" x="0px" y="0px"
	 width="66.221px" height="66.221px" viewBox="0 0 66.221 66.221" enable-background="new 0 0 66.221 66.221" xml:space="preserve">
<circle fill="#1C3557" cx="33.11" cy="33.11" r="33.11"/>
<g>
	<path fill="#F9F9F9" d="M23.107,44.255c0,0.706-0.435,1.141-1.141,1.141s-1.141-0.435-1.141-1.141v-7.007
		c0-0.706,0.435-1.087,1.141-1.087s1.141,0.38,1.141,1.087V44.255z"/>
	<path fill="#EA5F69" d="M30.271,44.255c0,0.706-0.435,1.141-1.141,1.141s-1.141-0.435-1.141-1.141V21.912
		c0-0.706,0.435-1.087,1.141-1.087s1.141,0.38,1.141,1.087V44.255z"/>
	<path fill="#E53946" d="M29.13,23.107c-0.706,0-1.141-0.435-1.141-1.141c0-0.706,0.435-1.141,1.141-1.141h7.562
		c0.706,0,1.087,0.435,1.087,1.141c0,0.706-0.38,1.141-1.087,1.141H29.13z"/>
	<path fill="#F9F9F9" d="M37.834,44.255c0,0.706-0.435,1.141-1.141,1.141c-0.706,0-1.141-0.435-1.141-1.141V21.912
		c0-0.706,0.435-1.087,1.141-1.087c0.706,0,1.141,0.38,1.141,1.087V44.255z"/>
	<path fill="#467C9D" d="M29.13,31.822c-0.706,0-1.141-0.435-1.141-1.141c0-0.706,0.435-1.141,1.141-1.141h15.179
		c0.706,0,1.087,0.435,1.087,1.141c0,0.706-0.38,1.141-1.087,1.141H29.13z"/>
	<path fill="#DBE5D8" d="M21.966,38.444c-0.706,0-1.141-0.435-1.141-1.141c0-0.706,0.435-1.141,1.141-1.141h22.344
		c0.706,0,1.087,0.435,1.087,1.141c0,0.706-0.38,1.141-1.087,1.141H21.966z"/>
	<path fill="#EA5F69" d="M45.396,44.255c0,0.706-0.435,1.141-1.141,1.141s-1.141-0.435-1.141-1.141V30.627
		c0-0.706,0.435-1.087,1.141-1.087s1.141,0.38,1.141,1.087V44.255z"/>
	<path fill="#A8D9DB" d="M21.966,45.396c-0.706,0-1.141-0.435-1.141-1.141c0-0.706,0.435-1.141,1.141-1.141h22.344
		c0.706,0,1.087,0.435,1.087,1.141c0,0.706-0.38,1.141-1.087,1.141H21.966z"/>
</g>
</svg>
