<?xml version="1.0" encoding="utf-8"?>
<!-- Generator: Adobe Illustrator 17.0.0, SVG Export Plug-In . SVG Version: 6.00 Build 0)  -->
<!DOCTYPE svg PUBLIC "-//W3C//DTD SVG 1.1//EN" "http://www.w3.org/Graphics/SVG/1.1/DTD/svg11.dtd">
<svg version="1.1" id="Layer_6" xmlns="http://www.w3.org/2000/svg" xmlns:xlink="http://www.w3.org/1999/xlink" x="0px" y="0px"
	 width="66.221px" height="66.221px" viewBox="0 0 66.221 66.221" enable-background="new 0 0 66.221 66.221" xml:space="preserve">
<circle fill="#DBE5D8" cx="33.11" cy="33.11" r="33.11"/>
<g>
	<path fill="#1C3557" d="M22.22,34.878c0-0.853,0.697-1.579,1.565-1.579c0.853,0,1.579,0.725,1.579,1.579
		c0,0.853-0.725,1.579-1.579,1.579C22.917,36.457,22.22,35.731,22.22,34.878z"/>
	<path fill="#EA5F69" d="M27.042,41.913c0-0.853,0.697-1.579,1.565-1.579c0.853,0,1.579,0.725,1.579,1.579s-0.725,1.579-1.579,1.579
		C27.739,43.492,27.042,42.766,27.042,41.913z"/>
	<path fill="#A8D9DB" d="M33.423,22.729c0-0.853,0.697-1.579,1.565-1.579c0.853,0,1.579,0.725,1.579,1.579
		c0,0.853-0.725,1.579-1.579,1.579C34.12,24.308,33.423,23.582,33.423,22.729z"/>
	<path fill="#467C9D" d="M36.933,34.878c0-0.853,0.697-1.579,1.565-1.579c0.853,0,1.579,0.725,1.579,1.579
		c0,0.853-0.725,1.579-1.579,1.579C37.63,36.457,36.933,35.731,36.933,34.878z"/>
	<path fill="#1C3557" d="M40.857,28.436c0-0.853,0.697-1.579,1.565-1.579c0.853,0,1.579,0.725,1.579,1.579
		c0,0.853-0.725,1.579-1.579,1.579C41.554,30.015,40.857,29.29,40.857,28.436z"/>
	<path fill="#E53946" d="M40.857,43.492c0-0.853,0.697-1.579,1.565-1.579c0.853,0,1.579,0.725,1.579,1.579
		c0,0.853-0.725,1.579-1.579,1.579C41.554,45.071,40.857,44.345,40.857,43.492z"/>
</g>
</svg>
