<?xml version="1.0" encoding="utf-8"?>
<!-- Generator: Adobe Illustrator 17.0.0, SVG Export Plug-In . SVG Version: 6.00 Build 0)  -->
<!DOCTYPE svg PUBLIC "-//W3C//DTD SVG 1.1//EN" "http://www.w3.org/Graphics/SVG/1.1/DTD/svg11.dtd">
<svg version="1.1" id="Layer_3" xmlns="http://www.w3.org/2000/svg" xmlns:xlink="http://www.w3.org/1999/xlink" x="0px" y="0px"
	 width="66.221px" height="66.221px" viewBox="0 0 66.221 66.221" enable-background="new 0 0 66.221 66.221" xml:space="preserve">
<circle fill="#EA5F69" cx="33.11" cy="33.11" r="33.11"/>
<g>
	<g>
		<path fill="#F9F9F9" d="M36.705,21.665l8.149,13.207c0.367,0.595,0.227,1.187-0.368,1.554c-0.595,0.367-1.187,0.227-1.554-0.368
			l-8.149-13.207c-0.367-0.595-0.199-1.141,0.396-1.509C35.774,20.975,36.338,21.07,36.705,21.665z"/>
		<path fill="#1C3557" d="M36.54,21.665c0.367,0.595,0.273,1.159-0.322,1.526L23.01,31.34c-0.595,0.367-1.187,0.227-1.554-0.368
			s-0.227-1.187,0.368-1.554l13.207-8.149C35.626,20.901,36.173,21.07,36.54,21.665z"/>
		<path fill="#E53946" d="M29.516,44.556l-8.149-13.207c-0.367-0.595-0.227-1.187,0.368-1.554c0.595-0.367,1.187-0.227,1.554,0.368
			l8.149,13.207c0.367,0.595,0.199,1.141-0.396,1.509C30.447,45.245,29.883,45.151,29.516,44.556z"/>
		<path fill="#A8D9DB" d="M29.681,44.556c-0.367-0.595-0.273-1.159,0.322-1.526l13.207-8.149c0.595-0.367,1.187-0.227,1.554,0.368
			c0.367,0.595,0.227,1.187-0.368,1.554L31.19,44.952C30.595,45.32,30.048,45.151,29.681,44.556z"/>
	</g>
	<path fill="#DBE5D8" d="M39.6,34.929v8.96c0,0.699-0.43,1.13-1.13,1.13c-0.699,0-1.13-0.43-1.13-1.13v-8.96
		c0-0.699,0.43-1.076,1.13-1.076C39.17,33.853,39.6,34.23,39.6,34.929z"/>
</g>
</svg>
