<?xml version="1.0" encoding="utf-8"?>
<!-- Generator: Adobe Illustrator 17.0.0, SVG Export Plug-In . SVG Version: 6.00 Build 0)  -->
<!DOCTYPE svg PUBLIC "-//W3C//DTD SVG 1.1//EN" "http://www.w3.org/Graphics/SVG/1.1/DTD/svg11.dtd">
<svg version="1.1" id="Layer_5" xmlns="http://www.w3.org/2000/svg" xmlns:xlink="http://www.w3.org/1999/xlink" x="0px" y="0px"
	 width="66.221px" height="66.221px" viewBox="0 0 66.221 66.221" enable-background="new 0 0 66.221 66.221" xml:space="preserve">
<circle fill="#467C9D" cx="33.11" cy="33.11" r="33.11"/>
<g>
	<path fill="#A8D9DB" d="M33.096,36.293c-1.749,0-3.154-1.462-3.154-3.183c0-1.72,1.405-3.183,3.154-3.183
		c1.72,0,3.183,1.462,3.183,3.183C36.279,34.831,34.817,36.293,33.096,36.293z"/>
	<path fill="#E53946" d="M34.237,22.197v3.46c0,0.698-0.429,1.127-1.127,1.127s-1.127-0.429-1.127-1.127v-3.46
		c0-0.698,0.429-1.073,1.127-1.073S34.237,21.499,34.237,22.197z"/>
	<path fill="#1C3557" d="M41.624,26.19l-2.447,2.447c-0.493,0.493-1.1,0.493-1.594,0c-0.493-0.493-0.493-1.1,0-1.594l2.447-2.447
		c0.493-0.493,1.062-0.455,1.556,0.038C42.08,25.128,42.118,25.697,41.624,26.19z"/>
	<path fill="#EA5F69" d="M44.024,34.237h-3.46c-0.698,0-1.127-0.429-1.127-1.127s0.429-1.127,1.127-1.127h3.46
		c0.698,0,1.073,0.429,1.073,1.127S44.722,34.237,44.024,34.237z"/>
	<path fill="#E53946" d="M40.031,41.624l-2.447-2.447c-0.493-0.493-0.493-1.1,0-1.594s1.1-0.493,1.594,0l2.447,2.447
		c0.493,0.493,0.455,1.062-0.038,1.556S40.524,42.118,40.031,41.624z"/>
	<path fill="#DBE5D8" d="M31.984,44.024v-3.46c0-0.698,0.429-1.127,1.127-1.127s1.127,0.429,1.127,1.127v3.46
		c0,0.698-0.429,1.073-1.127,1.073S31.984,44.722,31.984,44.024z"/>
	<path fill="#1C3557" d="M24.596,40.031l2.447-2.447c0.493-0.493,1.1-0.493,1.594,0s0.493,1.1,0,1.594l-2.447,2.447
		c-0.493,0.493-1.062,0.455-1.556-0.038C24.141,41.093,24.103,40.524,24.596,40.031z"/>
	<path fill="#EA5F69" d="M22.197,31.984h3.46c0.698,0,1.127,0.429,1.127,1.127s-0.429,1.127-1.127,1.127h-3.46
		c-0.698,0-1.073-0.429-1.073-1.127S21.499,31.984,22.197,31.984z"/>
	<path fill="#DBE5D8" d="M26.19,24.596l2.447,2.447c0.493,0.493,0.493,1.1,0,1.594c-0.493,0.493-1.1,0.493-1.594,0l-2.447-2.447
		c-0.493-0.493-0.455-1.062,0.038-1.556C25.128,24.141,25.697,24.103,26.19,24.596z"/>
</g>
</svg>
