<?xml version="1.0" encoding="utf-8"?>
<!-- Generator: Adobe Illustrator 17.0.0, SVG Export Plug-In . SVG Version: 6.00 Build 0)  -->
<!DOCTYPE svg PUBLIC "-//W3C//DTD SVG 1.1//EN" "http://www.w3.org/Graphics/SVG/1.1/DTD/svg11.dtd">
<svg version="1.1" id="Layer_4" xmlns="http://www.w3.org/2000/svg" xmlns:xlink="http://www.w3.org/1999/xlink" x="0px" y="0px"
	 width="66.221px" height="66.221px" viewBox="0 0 66.221 66.221" enable-background="new 0 0 66.221 66.221" xml:space="preserve">
<circle fill="#E53946" cx="33.11" cy="33.11" r="33.11"/>
<g>
	<path fill="#A8D9DB" d="M33.28,37.594c-1.461,0-2.635-1.222-2.635-2.659s1.174-2.659,2.635-2.659c1.437,0,2.659,1.222,2.659,2.659
		S34.717,37.594,33.28,37.594z"/>
	<path fill="#467C9D" d="M22.735,42.981h21.163c0.669,0,1.081,0.412,1.081,1.081s-0.412,1.081-1.081,1.081H22.735
		c-0.669,0-1.029-0.412-1.029-1.081S22.066,42.981,22.735,42.981z"/>
	<path fill="#1C3557" d="M33.744,21.415l10.5,10.5c0.473,0.473,0.473,1.055,0,1.528c-0.473,0.473-1.055,0.473-1.528,0l-10.5-10.5
		c-0.473-0.473-0.437-1.019,0.036-1.492C32.725,20.979,33.271,20.942,33.744,21.415z"/>
	<path fill="#DBE5D8" d="M33.59,21.452c0.473,0.473,0.509,1.019,0.036,1.492l-10.5,10.5c-0.473,0.473-1.055,0.473-1.528,0
		c-0.473-0.473-0.473-1.055,0-1.528l10.5-10.5C32.571,20.942,33.116,20.979,33.59,21.452z"/>
</g>
</svg>
