<?xml version="1.0" encoding="utf-8"?>
<!-- Generator: Adobe Illustrator 17.0.0, SVG Export Plug-In . SVG Version: 6.00 Build 0)  -->
<!DOCTYPE svg PUBLIC "-//W3C//DTD SVG 1.1//EN" "http://www.w3.org/Graphics/SVG/1.1/DTD/svg11.dtd">
<svg version="1.1" id="Layer_2" xmlns="http://www.w3.org/2000/svg" xmlns:xlink="http://www.w3.org/1999/xlink" x="0px" y="0px"
	 width="66.221px" height="66.221px" viewBox="0 0 66.221 66.221" enable-background="new 0 0 66.221 66.221" xml:space="preserve">
<circle fill="#A8D9DB" cx="33.11" cy="33.11" r="33.11"/>
<g>
	<path fill="#EA5F69" d="M20.353,42.826l10.433-10.433c0.586-0.586,1.307-0.586,1.892,0c0.586,0.586,0.586,1.307,0,1.893
		L22.245,44.719c-0.586,0.586-1.262,0.541-1.847-0.045C19.812,44.088,19.767,43.412,20.353,42.826z"/>
	<path fill="#DAE4D6" d="M32.678,31.935c0.586,0.586,0.586,1.307,0,1.893c-0.586,0.586-1.307,0.586-1.892,0L20.353,23.395
		c-0.586-0.586-0.541-1.262,0.045-1.847c0.586-0.586,1.262-0.631,1.847-0.045L32.678,31.935z"/>
	<path fill="#1C3557" d="M45.846,31.935c0.586,0.586,0.586,1.307,0,1.893c-0.586,0.586-1.307,0.586-1.893,0L33.521,23.395
		c-0.586-0.586-0.541-1.262,0.045-1.847c0.586-0.586,1.262-0.631,1.847-0.045L45.846,31.935z"/>
	<path fill="#487C9C" d="M33.521,42.826l10.433-10.433c0.586-0.586,1.307-0.586,1.893,0c0.586,0.586,0.586,1.307,0,1.893
		L35.414,44.719c-0.586,0.586-1.262,0.541-1.847-0.045C32.98,44.088,32.935,43.412,33.521,42.826z"/>
</g>
</svg>
