<?xml version="1.0" encoding="utf-8"?>
<!-- Generator: Adobe Illustrator 21.1.0, SVG Export Plug-In . SVG Version: 6.00 Build 0)  -->
<svg version="1.1" id="Capa_1" xmlns="http://www.w3.org/2000/svg" xmlns:xlink="http://www.w3.org/1999/xlink" x="0px" y="0px"
	 viewBox="0 0 153.7 123.2" style="enable-background:new 0 0 153.7 123.2;" xml:space="preserve">
<style type="text/css">
	.st0{fill:#F9F9F9;}
	.st1{fill:#E53946;}
	.st2{fill:#EA5F69;}
	.st3{fill:#467C9D;}
	.st4{fill:#A8D9DB;}
	.st5{fill:#DBE5D8;}
</style>
<g>
	<path class="st0" d="M103.3,53.1v66.1c0,2.2-1.4,3.6-3.6,3.6s-3.6-1.4-3.6-3.6v-66c0-2.2,1.4-3.4,3.6-3.4
		C102.1,49.7,103.3,51,103.3,53.1z"/>
	<path class="st1" d="M102.9,53.3c0,2.2-1.2,3.6-3.4,3.6H50.5c-2.2,0-3.6-1.4-3.6-3.6s1.4-3.6,3.6-3.6h49.1
		C101.7,49.7,102.9,51.1,102.9,53.3z"/>
	<path class="st2" d="M92.1,72.8c0,2.2-1.2,3.6-3.4,3.6l-28.2-0.1c-2.2,0-3.6-1.4-3.6-3.6c0-2.2,1.4-3.6,3.6-3.6h28.1
		C90.9,69.2,92.1,70.5,92.1,72.8z"/>
	<path class="st3" d="M92.1,86.9c0,2.2-1.2,3.6-3.4,3.6H60.6c-2.2,0-3.6-1.4-3.6-3.6s1.4-3.6,3.6-3.6h28.1
		C90.9,83.4,92.1,84.8,92.1,86.9z"/>
	<path class="st4" d="M92.1,101.3c0,2.2-1.2,3.6-3.4,3.6H60.6c-2.2,0-3.6-1.4-3.6-3.6s1.4-3.6,3.6-3.6h28.1
		C90.9,97.7,92.1,99,92.1,101.3z"/>
	<path class="st4" d="M45.9,119.7v-66c0-2.2,1.4-3.6,3.6-3.6c2.2,0,3.6,1.4,3.6,3.6v66c0,2.2-1.4,3.4-3.6,3.4
		C47.2,123.2,45.9,122,45.9,119.7z"/>
	<path class="st5" d="M46.4,119.6c0-2.2,1.2-3.6,3.4-3.6h49.1c2.2,0,3.6,1.4,3.6,3.6s-1.4,3.6-3.6,3.6H49.7
		C47.5,123.2,46.4,121.7,46.4,119.6z"/>
	<path class="st0" d="M142.7,35.3L135,43c-1.6,1.6-3.5,1.6-5.1,0c-1.6-1.6-1.6-3.5,0-5.1l7.7-7.7c1.6-1.6,3.4-1.5,5,0.1
		C144.2,31.9,144.4,33.8,142.7,35.3z"/>
	<path class="st3" d="M150.3,60.9h-11.1c-2.2,0-3.6-1.4-3.6-3.6s1.4-3.6,3.6-3.6h11.1c2.2,0,3.4,1.4,3.4,3.6S152.6,60.9,150.3,60.9z
		"/>
	<path class="st3" d="M3.4,53.7h11.1c2.2,0,3.6,1.4,3.6,3.6s-1.4,3.6-3.6,3.6H3.4c-2.2,0-3.4-1.4-3.4-3.6S1.1,53.7,3.4,53.7z"/>
	<path class="st4" d="M16,30.2l7.7,7.7c1.6,1.6,1.6,3.5,0,5.1c-1.6,1.6-3.5,1.6-5.1,0l-7.7-7.7c-1.6-1.6-1.5-3.4,0.1-5
		C12.7,28.7,14.5,28.7,16,30.2z"/>
</g>
<g>
	<path class="st2" d="M60.9,15.3l10.9,10.9c1.6,1.6,1.6,3.5,0,5.1c-1.6,1.6-3.5,1.6-5.1,0L55.8,20.4c-1.6-1.6-1.5-3.4,0.1-5
		C57.6,13.8,59.3,13.8,60.9,15.3z"/>
	<path class="st1" d="M97.7,1.2c1.6,1.6,1.7,3.4,0.1,5L72.7,31.3c-1.6,1.6-3.5,1.6-5.1,0c-1.6-1.6-1.6-3.5,0-5.1L92.8,1.1
		C94.4-0.4,96.1-0.4,97.7,1.2z"/>
</g>
</svg>
