<?xml version="1.0" encoding="utf-8"?>
<!-- Generator: Adobe Illustrator 21.1.0, SVG Export Plug-In . SVG Version: 6.00 Build 0)  -->
<svg version="1.1" id="Capa_1" xmlns="http://www.w3.org/2000/svg" xmlns:xlink="http://www.w3.org/1999/xlink" x="0px" y="0px"
	 viewBox="0 0 1024 369" style="enable-background:new 0 0 1024 369;" xml:space="preserve">
<style type="text/css">
	.st0{fill:#A8D9DB;}
	.st1{fill:#467C9D;}
	.st2{fill:#EA5F69;}
	.st3{fill:#DBE5D8;}
	.st4{fill:#F9F9F9;}
	.st5{fill:#E53946;}
</style>
<g>
	<g>
		<path class="st0" d="M12.2,66.6c0-3,2.5-5.6,5.6-5.6c3,0,5.6,2.6,5.6,5.6c0,3-2.6,5.6-5.6,5.6C14.7,72.2,12.2,69.6,12.2,66.6z"/>
		<path class="st1" d="M29.5,91.7c0-3,2.5-5.6,5.6-5.6c3,0,5.6,2.6,5.6,5.6c0,3-2.6,5.6-5.6,5.6C31.9,97.3,29.5,94.7,29.5,91.7z"/>
		<path class="st2" d="M52.2,23.2c0-3,2.5-5.6,5.6-5.6c3,0,5.6,2.6,5.6,5.6c0,3-2.6,5.6-5.6,5.6C54.7,28.8,52.2,26.2,52.2,23.2z"/>
		<path class="st3" d="M64.8,66.6c0-3,2.5-5.6,5.6-5.6c3,0,5.6,2.6,5.6,5.6c0,3-2.6,5.6-5.6,5.6C67.3,72.2,64.8,69.6,64.8,66.6z"/>
		<path class="st4" d="M78.8,43.6c0-3,2.5-5.6,5.6-5.6c3,0,5.6,2.6,5.6,5.6c0,3-2.6,5.6-5.6,5.6C81.3,49.2,78.8,46.6,78.8,43.6z"/>
		<path class="st5" d="M78.8,97.3c0-3,2.5-5.6,5.6-5.6c3,0,5.6,2.6,5.6,5.6c0,3-2.6,5.6-5.6,5.6C81.3,102.9,78.8,100.4,78.8,97.3z"
			/>
	</g>
	<g>
		<path class="st0" d="M807.2,176.6c0-3,2.5-5.6,5.6-5.6c3,0,5.6,2.6,5.6,5.6c0,3-2.6,5.6-5.6,5.6
			C809.7,182.2,807.2,179.6,807.2,176.6z"/>
		<path class="st1" d="M824.5,201.7c0-3,2.5-5.6,5.6-5.6c3,0,5.6,2.6,5.6,5.6s-2.6,5.6-5.6,5.6C826.9,207.3,824.5,204.7,824.5,201.7
			z"/>
		<path class="st2" d="M847.2,133.2c0-3,2.5-5.6,5.6-5.6c3,0,5.6,2.6,5.6,5.6c0,3-2.6,5.6-5.6,5.6
			C849.7,138.8,847.2,136.2,847.2,133.2z"/>
		<path class="st3" d="M859.8,176.6c0-3,2.5-5.6,5.6-5.6c3,0,5.6,2.6,5.6,5.6c0,3-2.6,5.6-5.6,5.6
			C862.3,182.2,859.8,179.6,859.8,176.6z"/>
		<path class="st4" d="M873.8,153.6c0-3,2.5-5.6,5.6-5.6c3,0,5.6,2.6,5.6,5.6s-2.6,5.6-5.6,5.6C876.3,159.2,873.8,156.6,873.8,153.6
			z"/>
		<path class="st5" d="M873.8,207.3c0-3,2.5-5.6,5.6-5.6c3,0,5.6,2.6,5.6,5.6c0,3-2.6,5.6-5.6,5.6
			C876.3,212.9,873.8,210.4,873.8,207.3z"/>
	</g>
	<g>
		<path class="st0" d="M322.6,66.6c0-3,2.5-5.6,5.6-5.6c3,0,5.6,2.6,5.6,5.6c0,3-2.6,5.6-5.6,5.6C325.1,72.2,322.6,69.6,322.6,66.6z
			"/>
		<path class="st1" d="M339.8,91.7c0-3,2.5-5.6,5.6-5.6c3,0,5.6,2.6,5.6,5.6c0,3-2.6,5.6-5.6,5.6C342.3,97.3,339.8,94.7,339.8,91.7z
			"/>
		<path class="st2" d="M362.6,23.2c0-3,2.5-5.6,5.6-5.6c3,0,5.6,2.6,5.6,5.6c0,3-2.6,5.6-5.6,5.6C365.1,28.8,362.6,26.2,362.6,23.2z
			"/>
		<path class="st3" d="M375.1,66.6c0-3,2.5-5.6,5.6-5.6c3,0,5.6,2.6,5.6,5.6c0,3-2.6,5.6-5.6,5.6C377.6,72.2,375.1,69.6,375.1,66.6z
			"/>
		<path class="st4" d="M389.1,43.6c0-3,2.5-5.6,5.6-5.6c3,0,5.6,2.6,5.6,5.6c0,3-2.6,5.6-5.6,5.6C391.6,49.2,389.1,46.6,389.1,43.6z
			"/>
		<path class="st5" d="M389.1,97.3c0-3,2.5-5.6,5.6-5.6c3,0,5.6,2.6,5.6,5.6c0,3-2.6,5.6-5.6,5.6
			C391.6,102.9,389.1,100.4,389.1,97.3z"/>
	</g>
	<g>
		<path class="st4" d="M117.1,95.5c0,2.5-1.6,4.1-4.1,4.1c-2.5,0-4.1-1.6-4.1-4.1V70.4c0-2.5,1.6-3.9,4.1-3.9c2.5,0,4.1,1.4,4.1,3.9
			V95.5z"/>
		<path class="st2" d="M142.8,95.5c0,2.5-1.6,4.1-4.1,4.1s-4.1-1.6-4.1-4.1V15.4c0-2.5,1.6-3.9,4.1-3.9s4.1,1.4,4.1,3.9V95.5z"/>
		<path class="st5" d="M138.7,19.7c-2.5,0-4.1-1.6-4.1-4.1c0-2.5,1.6-4.1,4.1-4.1h27.1c2.5,0,3.9,1.6,3.9,4.1c0,2.5-1.4,4.1-3.9,4.1
			H138.7z"/>
		<path class="st4" d="M170,95.5c0,2.5-1.6,4.1-4.1,4.1c-2.5,0-4.1-1.6-4.1-4.1V15.4c0-2.5,1.6-3.9,4.1-3.9c2.5,0,4.1,1.4,4.1,3.9
			V95.5z"/>
		<path class="st1" d="M138.7,50.9c-2.5,0-4.1-1.6-4.1-4.1c0-2.5,1.6-4.1,4.1-4.1h54.4c2.5,0,3.9,1.6,3.9,4.1c0,2.5-1.4,4.1-3.9,4.1
			H138.7z"/>
		<path class="st3" d="M113.1,74.7c-2.5,0-4.1-1.6-4.1-4.1c0-2.5,1.6-4.1,4.1-4.1h80.1c2.5,0,3.9,1.6,3.9,4.1c0,2.5-1.4,4.1-3.9,4.1
			H113.1z"/>
		<path class="st2" d="M197.1,95.5c0,2.5-1.6,4.1-4.1,4.1c-2.5,0-4.1-1.6-4.1-4.1V46.6c0-2.5,1.6-3.9,4.1-3.9c2.5,0,4.1,1.4,4.1,3.9
			V95.5z"/>
		<path class="st0" d="M113.1,99.6c-2.5,0-4.1-1.6-4.1-4.1c0-2.5,1.6-4.1,4.1-4.1h80.1c2.5,0,3.9,1.6,3.9,4.1c0,2.5-1.4,4.1-3.9,4.1
			H113.1z"/>
	</g>
	<g>
		<path class="st5" d="M421.6,92.9L453.5,61c1.8-1.8,4-1.8,5.8,0c1.8,1.8,1.8,4,0,5.8l-31.9,31.9c-1.8,1.8-3.9,1.7-5.6-0.1
			C419.9,96.8,419.8,94.7,421.6,92.9z"/>
		<path class="st0" d="M459.3,59.6c1.8,1.8,1.8,4,0,5.8c-1.8,1.8-4,1.8-5.8,0l-31.9-31.9c-1.8-1.8-1.7-3.9,0.1-5.6
			c1.8-1.8,3.9-1.9,5.6-0.1L459.3,59.6z"/>
		<path class="st4" d="M499.5,59.6c1.8,1.8,1.8,4,0,5.8c-1.8,1.8-4,1.8-5.8,0l-31.9-31.9c-1.8-1.8-1.7-3.9,0.1-5.6
			c1.8-1.8,3.9-1.9,5.6-0.1L499.5,59.6z"/>
		<path class="st3" d="M461.9,92.9L493.8,61c1.8-1.8,4-1.8,5.8,0c1.8,1.8,1.8,4,0,5.8l-31.9,31.9c-1.8,1.8-3.9,1.7-5.6-0.1
			C460.2,96.8,460.1,94.7,461.9,92.9z"/>
	</g>
	<g>
		<path class="st5" d="M15.6,211.9L47.5,180c1.8-1.8,4-1.8,5.8,0c1.8,1.8,1.8,4,0,5.8l-31.9,31.9c-1.8,1.8-3.9,1.7-5.6-0.1
			C13.9,215.8,13.8,213.7,15.6,211.9z"/>
		<path class="st0" d="M53.3,178.6c1.8,1.8,1.8,4,0,5.8c-1.8,1.8-4,1.8-5.8,0l-31.9-31.9c-1.8-1.8-1.7-3.9,0.1-5.6
			c1.8-1.8,3.9-1.9,5.6-0.1L53.3,178.6z"/>
		<path class="st4" d="M93.5,178.6c1.8,1.8,1.8,4,0,5.8c-1.8,1.8-4,1.8-5.8,0l-31.9-31.9c-1.8-1.8-1.7-3.9,0.1-5.6
			c1.8-1.8,3.9-1.9,5.6-0.1L93.5,178.6z"/>
		<path class="st3" d="M55.9,211.9L87.8,180c1.8-1.8,4-1.8,5.8,0c1.8,1.8,1.8,4,0,5.8l-31.9,31.9c-1.8,1.8-3.9,1.7-5.6-0.1
			C54.2,215.8,54.1,213.7,55.9,211.9z"/>
	</g>
	<g>
		<path class="st5" d="M827.6,92.9L859.5,61c1.8-1.8,4-1.8,5.8,0c1.8,1.8,1.8,4,0,5.8l-31.9,31.9c-1.8,1.8-3.9,1.7-5.6-0.1
			C826,96.8,825.8,94.7,827.6,92.9z"/>
		<path class="st0" d="M865.3,59.6c1.8,1.8,1.8,4,0,5.8c-1.8,1.8-4,1.8-5.8,0l-31.9-31.9c-1.8-1.8-1.7-3.9,0.1-5.6
			c1.8-1.8,3.9-1.9,5.6-0.1L865.3,59.6z"/>
		<path class="st4" d="M905.6,59.6c1.8,1.8,1.8,4,0,5.8c-1.8,1.8-4,1.8-5.8,0l-31.9-31.9c-1.8-1.8-1.7-3.9,0.1-5.6
			c1.8-1.8,3.9-1.9,5.6-0.1L905.6,59.6z"/>
		<path class="st3" d="M867.9,92.9L899.8,61c1.8-1.8,4-1.8,5.8,0c1.8,1.8,1.8,4,0,5.8l-31.9,31.9c-1.8,1.8-3.9,1.7-5.6-0.1
			C866.2,96.8,866.1,94.7,867.9,92.9z"/>
	</g>
	<g>
		<path class="st2" d="M972.2,70.3c-5.5,0-9.9-4.6-9.9-10s4.4-10,9.9-10c5.4,0,10,4.6,10,10S977.6,70.3,972.2,70.3z"/>
		<path class="st3" d="M932.6,90.6h79.5c2.5,0,4.1,1.5,4.1,4.1s-1.5,4.1-4.1,4.1h-79.5c-2.5,0-3.9-1.5-3.9-4.1
			S930.1,90.6,932.6,90.6z"/>
		<path class="st4" d="M973.9,9.6l39.4,39.4c1.8,1.8,1.8,4,0,5.7c-1.8,1.8-4,1.8-5.7,0l-39.4-39.4c-1.8-1.8-1.6-3.8,0.1-5.6
			S972.1,7.8,973.9,9.6z"/>
		<path class="st5" d="M973.3,9.7c1.8,1.8,1.9,3.8,0.1,5.6l-39.4,39.4c-1.8,1.8-4,1.8-5.7,0c-1.8-1.8-1.8-4,0-5.7l39.4-39.4
			C969.5,7.8,971.6,8,973.3,9.7z"/>
	</g>
	<g>
		<g>
			<path class="st4" d="M278.9,18.6L308.1,66c1.3,2.1,0.8,4.3-1.3,5.6c-2.1,1.3-4.3,0.8-5.6-1.3L272,22.8c-1.3-2.1-0.7-4.1,1.4-5.4
				C275.6,16.1,277.6,16.5,278.9,18.6z"/>
			<path class="st5" d="M278.3,18.6c1.3,2.1,1,4.2-1.2,5.5l-47.4,29.2c-2.1,1.3-4.3,0.8-5.6-1.3c-1.3-2.1-0.8-4.3,1.3-5.6l47.4-29.2
				C275,15.8,277,16.5,278.3,18.6z"/>
			<path class="st0" d="M253.1,100.7l-29.2-47.4c-1.3-2.1-0.8-4.3,1.3-5.6c2.1-1.3,4.3-0.8,5.6,1.3L260,96.5
				c1.3,2.1,0.7,4.1-1.4,5.4C256.4,103.2,254.4,102.9,253.1,100.7z"/>
			<path class="st3" d="M253.7,100.7c-1.3-2.1-1-4.2,1.2-5.5L302.2,66c2.1-1.3,4.3-0.8,5.6,1.3s0.8,4.3-1.3,5.6l-47.4,29.2
				C257,103.5,255,102.9,253.7,100.7z"/>
		</g>
		<path class="st2" d="M289.3,66.2v32.1c0,2.5-1.5,4.1-4.1,4.1s-4.1-1.5-4.1-4.1V66.2c0-2.5,1.5-3.9,4.1-3.9S289.3,63.7,289.3,66.2z
			"/>
	</g>
	<g>
		<g>
			<path class="st4" d="M988.9,263.6l29.2,47.4c1.3,2.1,0.8,4.3-1.3,5.6s-4.3,0.8-5.6-1.3L982,267.8c-1.3-2.1-0.7-4.1,1.4-5.4
				C985.6,261.1,987.6,261.5,988.9,263.6z"/>
			<path class="st5" d="M988.3,263.6c1.3,2.1,1,4.2-1.2,5.5l-47.4,29.2c-2.1,1.3-4.3,0.8-5.6-1.3c-1.3-2.1-0.8-4.3,1.3-5.6
				l47.4-29.2C985,260.8,987,261.5,988.3,263.6z"/>
			<path class="st0" d="M963.1,345.7l-29.2-47.4c-1.3-2.1-0.8-4.3,1.3-5.6c2.1-1.3,4.3-0.8,5.6,1.3l29.2,47.4
				c1.3,2.1,0.7,4.1-1.4,5.4S964.4,347.9,963.1,345.7z"/>
			<path class="st3" d="M963.7,345.7c-1.3-2.1-1-4.2,1.2-5.5l47.4-29.2c2.1-1.3,4.3-0.8,5.6,1.3c1.3,2.1,0.8,4.3-1.3,5.6l-47.4,29.2
				C967,348.5,965,347.9,963.7,345.7z"/>
		</g>
		<path class="st2" d="M999.3,311.2v32.1c0,2.5-1.5,4.1-4.1,4.1s-4.1-1.5-4.1-4.1v-32.1c0-2.5,1.5-3.9,4.1-3.9
			S999.3,308.7,999.3,311.2z"/>
	</g>
	<g>
		<g>
			<path class="st4" d="M60.9,263.6L90.1,311c1.3,2.1,0.8,4.3-1.3,5.6s-4.3,0.8-5.6-1.3L54,267.8c-1.3-2.1-0.7-4.1,1.4-5.4
				C57.6,261.1,59.6,261.5,60.9,263.6z"/>
			<path class="st5" d="M60.3,263.6c1.3,2.1,1,4.2-1.2,5.5l-47.4,29.2c-2.1,1.3-4.3,0.8-5.6-1.3s-0.8-4.3,1.3-5.6l47.4-29.2
				C57,260.8,59,261.5,60.3,263.6z"/>
			<path class="st0" d="M35.1,345.7L5.9,298.3c-1.3-2.1-0.8-4.3,1.3-5.6c2.1-1.3,4.3-0.8,5.6,1.3L42,341.5c1.3,2.1,0.7,4.1-1.4,5.4
				S36.4,347.9,35.1,345.7z"/>
			<path class="st3" d="M35.7,345.7c-1.3-2.1-1-4.2,1.2-5.5L84.2,311c2.1-1.3,4.3-0.8,5.6,1.3c1.3,2.1,0.8,4.3-1.3,5.6l-47.4,29.2
				C39,348.5,37,347.9,35.7,345.7z"/>
		</g>
		<path class="st2" d="M71.3,311.2v32.1c0,2.5-1.5,4.1-4.1,4.1s-4.1-1.5-4.1-4.1v-32.1c0-2.5,1.5-3.9,4.1-3.9S71.3,308.7,71.3,311.2
			z"/>
	</g>
	<g>
		<g>
			<path class="st4" d="M675.7,18.6L705,66c1.3,2.1,0.8,4.3-1.3,5.6c-2.1,1.3-4.3,0.8-5.6-1.3l-29.2-47.4c-1.3-2.1-0.7-4.1,1.4-5.4
				C672.4,16.1,674.4,16.5,675.7,18.6z"/>
			<path class="st5" d="M675.1,18.6c1.3,2.1,1,4.2-1.2,5.5l-47.4,29.2c-2.1,1.3-4.3,0.8-5.6-1.3s-0.8-4.3,1.3-5.6l47.4-29.2
				C671.8,15.8,673.8,16.5,675.1,18.6z"/>
			<path class="st0" d="M649.9,100.7l-29.2-47.4c-1.3-2.1-0.8-4.3,1.3-5.6c2.1-1.3,4.3-0.8,5.6,1.3l29.2,47.4
				c1.3,2.1,0.7,4.1-1.4,5.4C653.3,103.2,651.2,102.9,649.9,100.7z"/>
			<path class="st3" d="M650.5,100.7c-1.3-2.1-1-4.2,1.2-5.5L699.1,66c2.1-1.3,4.3-0.8,5.6,1.3c1.3,2.1,0.8,4.3-1.3,5.6l-47.4,29.2
				C653.8,103.5,651.8,102.9,650.5,100.7z"/>
		</g>
		<path class="st2" d="M686.1,66.2v32.1c0,2.5-1.5,4.1-4.1,4.1c-2.5,0-4.1-1.5-4.1-4.1V66.2c0-2.5,1.5-3.9,4.1-3.9
			C684.6,62.3,686.1,63.7,686.1,66.2z"/>
	</g>
	<g>
		<path class="st2" d="M556.9,70.6c-6.3,0-11.3-5.3-11.3-11.5s5.1-11.5,11.3-11.5c6.2,0,11.5,5.3,11.5,11.5S563.1,70.6,556.9,70.6z"
			/>
		<path class="st3" d="M561,19.8v12.5c0,2.5-1.5,4.1-4.1,4.1c-2.5,0-4.1-1.5-4.1-4.1V19.8c0-2.5,1.5-3.9,4.1-3.9
			C559.4,16,561,17.3,561,19.8z"/>
		<path class="st4" d="M587.6,34.2l-8.8,8.8c-1.8,1.8-4,1.8-5.7,0c-1.8-1.8-1.8-4,0-5.7l8.8-8.8c1.8-1.8,3.8-1.6,5.6,0.1
			S589.3,32.4,587.6,34.2z"/>
		<path class="st1" d="M596.2,63.2h-12.5c-2.5,0-4.1-1.5-4.1-4.1c0-2.5,1.5-4.1,4.1-4.1h12.5c2.5,0,3.9,1.5,3.9,4.1
			C600.1,61.6,598.7,63.2,596.2,63.2z"/>
		<path class="st5" d="M581.8,89.7l-8.8-8.8c-1.8-1.8-1.8-4,0-5.7c1.8-1.8,4-1.8,5.7,0l8.8,8.8c1.8,1.8,1.6,3.8-0.1,5.6
			S583.6,91.5,581.8,89.7z"/>
		<path class="st3" d="M552.9,98.4V85.9c0-2.5,1.5-4.1,4.1-4.1c2.5,0,4.1,1.5,4.1,4.1v12.5c0,2.5-1.5,3.9-4.1,3.9
			C554.4,102.2,552.9,100.9,552.9,98.4z"/>
		<path class="st4" d="M526.3,84l8.8-8.8c1.8-1.8,4-1.8,5.7,0c1.8,1.8,1.8,4,0,5.7l-8.8,8.8c-1.8,1.8-3.8,1.6-5.6-0.1
			C524.7,87.8,524.5,85.8,526.3,84z"/>
		<path class="st1" d="M517.7,55h12.5c2.5,0,4.1,1.5,4.1,4.1c0,2.5-1.5,4.1-4.1,4.1h-12.5c-2.5,0-3.9-1.5-3.9-4.1
			C513.8,56.6,515.2,55,517.7,55z"/>
		<path class="st0" d="M532,28.5l8.8,8.8c1.8,1.8,1.8,4,0,5.7c-1.8,1.8-4,1.8-5.7,0l-8.8-8.8c-1.8-1.8-1.6-3.8,0.1-5.6
			C528.2,26.8,530.3,26.7,532,28.5z"/>
	</g>
	<g>
		<path class="st2" d="M161.9,196.6c-6.3,0-11.3-5.3-11.3-11.5s5.1-11.5,11.3-11.5c6.2,0,11.5,5.3,11.5,11.5
			S168.1,196.6,161.9,196.6z"/>
		<path class="st3" d="M166,145.8v12.5c0,2.5-1.5,4.1-4.1,4.1s-4.1-1.5-4.1-4.1v-12.5c0-2.5,1.5-3.9,4.1-3.9S166,143.3,166,145.8z"
			/>
		<path class="st4" d="M192.6,160.2l-8.8,8.8c-1.8,1.8-4,1.8-5.7,0c-1.8-1.8-1.8-4,0-5.7l8.8-8.8c1.8-1.8,3.8-1.6,5.6,0.1
			S194.3,158.4,192.6,160.2z"/>
		<path class="st1" d="M201.2,189.2h-12.5c-2.5,0-4.1-1.5-4.1-4.1s1.5-4.1,4.1-4.1h12.5c2.5,0,3.9,1.5,3.9,4.1
			S203.7,189.2,201.2,189.2z"/>
		<path class="st5" d="M186.8,215.7l-8.8-8.8c-1.8-1.8-1.8-4,0-5.7c1.8-1.8,4-1.8,5.7,0l8.8,8.8c1.8,1.8,1.6,3.8-0.1,5.6
			C190.7,217.4,188.6,217.5,186.8,215.7z"/>
		<path class="st3" d="M157.9,224.4v-12.5c0-2.5,1.5-4.1,4.1-4.1s4.1,1.5,4.1,4.1v12.5c0,2.5-1.5,3.9-4.1,3.9
			S157.9,226.9,157.9,224.4z"/>
		<path class="st4" d="M131.3,210l8.8-8.8c1.8-1.8,4-1.8,5.7,0c1.8,1.8,1.8,4,0,5.7l-8.8,8.8c-1.8,1.8-3.8,1.6-5.6-0.1
			C129.7,213.8,129.5,211.8,131.3,210z"/>
		<path class="st1" d="M122.7,181h12.5c2.5,0,4.1,1.5,4.1,4.1s-1.5,4.1-4.1,4.1h-12.5c-2.5,0-3.9-1.5-3.9-4.1S120.2,181,122.7,181z"
			/>
		<path class="st0" d="M137,154.5l8.8,8.8c1.8,1.8,1.8,4,0,5.7c-1.8,1.8-4,1.8-5.7,0l-8.8-8.8c-1.8-1.8-1.6-3.8,0.1-5.6
			S135.3,152.7,137,154.5z"/>
	</g>
	<g>
		<path class="st2" d="M763.2,70.6c-6.3,0-11.3-5.3-11.3-11.5s5.1-11.5,11.3-11.5c6.2,0,11.5,5.3,11.5,11.5S769.4,70.6,763.2,70.6z"
			/>
		<path class="st3" d="M767.3,19.8v12.5c0,2.5-1.5,4.1-4.1,4.1c-2.5,0-4.1-1.5-4.1-4.1V19.8c0-2.5,1.5-3.9,4.1-3.9
			C765.8,16,767.3,17.3,767.3,19.8z"/>
		<path class="st4" d="M793.9,34.2l-8.8,8.8c-1.8,1.8-4,1.8-5.7,0c-1.8-1.8-1.8-4,0-5.7l8.8-8.8c1.8-1.8,3.8-1.6,5.6,0.1
			S795.7,32.4,793.9,34.2z"/>
		<path class="st1" d="M802.6,63.2h-12.5c-2.5,0-4.1-1.5-4.1-4.1c0-2.5,1.5-4.1,4.1-4.1h12.5c2.5,0,3.9,1.5,3.9,4.1
			C806.4,61.6,805.1,63.2,802.6,63.2z"/>
		<path class="st5" d="M788.2,89.7l-8.8-8.8c-1.8-1.8-1.8-4,0-5.7c1.8-1.8,4-1.8,5.7,0l8.8,8.8c1.8,1.8,1.6,3.8-0.1,5.6
			S790,91.5,788.2,89.7z"/>
		<path class="st3" d="M759.2,98.4V85.9c0-2.5,1.5-4.1,4.1-4.1c2.5,0,4.1,1.5,4.1,4.1v12.5c0,2.5-1.5,3.9-4.1,3.9
			C760.8,102.2,759.2,100.9,759.2,98.4z"/>
		<path class="st4" d="M732.7,84l8.8-8.8c1.8-1.8,4-1.8,5.7,0c1.8,1.8,1.8,4,0,5.7l-8.8,8.8c-1.8,1.8-3.8,1.6-5.6-0.1
			C731,87.8,730.9,85.8,732.7,84z"/>
		<path class="st1" d="M724,55h12.5c2.5,0,4.1,1.5,4.1,4.1c0,2.5-1.5,4.1-4.1,4.1H724c-2.5,0-3.9-1.5-3.9-4.1
			C720.2,56.6,721.5,55,724,55z"/>
		<path class="st0" d="M738.4,28.5l8.8,8.8c1.8,1.8,1.8,4,0,5.7c-1.8,1.8-4,1.8-5.7,0l-8.8-8.8c-1.8-1.8-1.6-3.8,0.1-5.6
			C734.6,26.8,736.6,26.7,738.4,28.5z"/>
	</g>
	<g>
		<path class="st2" d="M974.2,185.6c-6.3,0-11.3-5.3-11.3-11.5s5.1-11.5,11.3-11.5c6.2,0,11.5,5.3,11.5,11.5
			S980.4,185.6,974.2,185.6z"/>
		<path class="st3" d="M978.3,134.8v12.5c0,2.5-1.5,4.1-4.1,4.1c-2.5,0-4.1-1.5-4.1-4.1v-12.5c0-2.5,1.5-3.9,4.1-3.9
			C976.8,131,978.3,132.3,978.3,134.8z"/>
		<path class="st4" d="M1004.9,149.2l-8.8,8.8c-1.8,1.8-4,1.8-5.7,0s-1.8-4,0-5.7l8.8-8.8c1.8-1.8,3.8-1.6,5.6,0.1
			S1006.7,147.4,1004.9,149.2z"/>
		<path class="st1" d="M1013.6,178.2h-12.5c-2.5,0-4.1-1.5-4.1-4.1s1.5-4.1,4.1-4.1h12.5c2.5,0,3.9,1.5,3.9,4.1
			S1016.1,178.2,1013.6,178.2z"/>
		<path class="st5" d="M999.2,204.7l-8.8-8.8c-1.8-1.8-1.8-4,0-5.7s4-1.8,5.7,0l8.8,8.8c1.8,1.8,1.6,3.8-0.1,5.6
			C1003,206.4,1001,206.5,999.2,204.7z"/>
		<path class="st3" d="M970.2,213.4v-12.5c0-2.5,1.5-4.1,4.1-4.1c2.5,0,4.1,1.5,4.1,4.1v12.5c0,2.5-1.5,3.9-4.1,3.9
			C971.8,217.2,970.2,215.9,970.2,213.4z"/>
		<path class="st4" d="M943.7,199l8.8-8.8c1.8-1.8,4-1.8,5.7,0c1.8,1.8,1.8,4,0,5.7l-8.8,8.8c-1.8,1.8-3.8,1.6-5.6-0.1
			C942,202.8,941.9,200.8,943.7,199z"/>
		<path class="st1" d="M935,170h12.5c2.5,0,4.1,1.5,4.1,4.1s-1.5,4.1-4.1,4.1H935c-2.5,0-3.9-1.5-3.9-4.1S932.5,170,935,170z"/>
		<path class="st0" d="M949.4,143.5l8.8,8.8c1.8,1.8,1.8,4,0,5.7c-1.8,1.8-4,1.8-5.7,0l-8.8-8.8c-1.8-1.8-1.6-3.8,0.1-5.6
			C945.6,141.8,947.6,141.7,949.4,143.5z"/>
	</g>
</g>
</svg>
