<?xml version="1.0" encoding="utf-8"?>
<!-- Generator: Adobe Illustrator 21.1.0, SVG Export Plug-In . SVG Version: 6.00 Build 0)  -->
<svg version="1.1" id="Capa_1" xmlns="http://www.w3.org/2000/svg" xmlns:xlink="http://www.w3.org/1999/xlink" x="0px" y="0px"
	 viewBox="0 0 1024 401" style="enable-background:new 0 0 1024 401;" xml:space="preserve">
<style type="text/css">
	.st0{fill:#A8D9DB;}
	.st1{fill:#467C9D;}
	.st2{fill:#EA5F69;}
	.st3{fill:#DBE5D8;}
	.st4{fill:#F9F9F9;}
	.st5{fill:#E53946;}
</style>
<g>
	<path class="st0" d="M10.4,73.8c0-2.2,1.9-4.2,4.2-4.2c2.2,0,4.2,1.9,4.2,4.2s-1.9,4.2-4.2,4.2C12.3,77.9,10.4,76,10.4,73.8z"/>
	<path class="st1" d="M23.3,92.5c0-2.2,1.9-4.2,4.2-4.2c2.2,0,4.2,1.9,4.2,4.2s-1.9,4.2-4.2,4.2C25.1,96.7,23.3,94.7,23.3,92.5z"/>
	<path class="st2" d="M40.2,41.4c0-2.2,1.9-4.2,4.2-4.2c2.2,0,4.2,1.9,4.2,4.2c0,2.2-1.9,4.2-4.2,4.2C42.1,45.6,40.2,43.6,40.2,41.4
		z"/>
	<path class="st3" d="M49.6,73.8c0-2.2,1.9-4.2,4.2-4.2c2.2,0,4.2,1.9,4.2,4.2s-1.9,4.2-4.2,4.2C51.5,77.9,49.6,76,49.6,73.8z"/>
	<path class="st4" d="M60.1,56.6c0-2.2,1.9-4.2,4.2-4.2c2.2,0,4.2,1.9,4.2,4.2c0,2.2-1.9,4.2-4.2,4.2C61.9,60.8,60.1,58.9,60.1,56.6
		z"/>
	<path class="st5" d="M60.1,96.7c0-2.2,1.9-4.2,4.2-4.2c2.2,0,4.2,1.9,4.2,4.2s-1.9,4.2-4.2,4.2C61.9,100.8,60.1,99,60.1,96.7z"/>
</g>
<g>
	<path class="st0" d="M10.4,341.7c0-2.2,1.9-4.2,4.2-4.2c2.2,0,4.2,1.9,4.2,4.2s-1.9,4.2-4.2,4.2C12.3,345.9,10.4,344,10.4,341.7z"
		/>
	<path class="st1" d="M23.3,360.5c0-2.2,1.9-4.2,4.2-4.2c2.2,0,4.2,1.9,4.2,4.2s-1.9,4.2-4.2,4.2C25.1,364.6,23.3,362.7,23.3,360.5z
		"/>
	<path class="st2" d="M40.2,309.4c0-2.2,1.9-4.2,4.2-4.2c2.2,0,4.2,1.9,4.2,4.2s-1.9,4.2-4.2,4.2C42.1,313.6,40.2,311.6,40.2,309.4z
		"/>
	<path class="st3" d="M49.6,341.7c0-2.2,1.9-4.2,4.2-4.2c2.2,0,4.2,1.9,4.2,4.2s-1.9,4.2-4.2,4.2C51.5,345.9,49.6,344,49.6,341.7z"
		/>
	<path class="st4" d="M60.1,324.6c0-2.2,1.9-4.2,4.2-4.2c2.2,0,4.2,1.9,4.2,4.2c0,2.2-1.9,4.2-4.2,4.2
		C61.9,328.8,60.1,326.8,60.1,324.6z"/>
	<path class="st5" d="M60.1,364.6c0-2.2,1.9-4.2,4.2-4.2c2.2,0,4.2,1.9,4.2,4.2s-1.9,4.2-4.2,4.2C61.9,368.8,60.1,367,60.1,364.6z"
		/>
</g>
<g>
	<path class="st0" d="M177,158.7c0-2.2,1.9-4.2,4.2-4.2c2.2,0,4.2,1.9,4.2,4.2c0,2.2-1.9,4.2-4.2,4.2
		C178.9,162.8,177,160.9,177,158.7z"/>
	<path class="st1" d="M189.9,177.4c0-2.2,1.9-4.2,4.2-4.2c2.2,0,4.2,1.9,4.2,4.2c0,2.2-1.9,4.2-4.2,4.2
		C191.7,181.5,189.9,179.6,189.9,177.4z"/>
	<path class="st2" d="M206.8,126.3c0-2.2,1.9-4.2,4.2-4.2c2.2,0,4.2,1.9,4.2,4.2s-1.9,4.2-4.2,4.2
		C208.7,130.5,206.8,128.5,206.8,126.3z"/>
	<path class="st3" d="M216.2,158.7c0-2.2,1.9-4.2,4.2-4.2c2.2,0,4.2,1.9,4.2,4.2c0,2.2-1.9,4.2-4.2,4.2
		C218.1,162.8,216.2,160.9,216.2,158.7z"/>
	<path class="st4" d="M226.7,141.5c0-2.2,1.9-4.2,4.2-4.2c2.2,0,4.2,1.9,4.2,4.2c0,2.2-1.9,4.2-4.2,4.2
		C228.5,145.7,226.7,143.7,226.7,141.5z"/>
	<path class="st5" d="M226.7,181.5c0-2.2,1.9-4.2,4.2-4.2c2.2,0,4.2,1.9,4.2,4.2s-1.9,4.2-4.2,4.2
		C228.5,185.7,226.7,183.9,226.7,181.5z"/>
</g>
<g>
	<path class="st0" d="M870.6,158.7c0-2.2,1.9-4.2,4.2-4.2c2.2,0,4.2,1.9,4.2,4.2c0,2.2-1.9,4.2-4.2,4.2
		C872.4,162.8,870.6,160.9,870.6,158.7z"/>
	<path class="st1" d="M883.5,177.4c0-2.2,1.9-4.2,4.2-4.2c2.2,0,4.2,1.9,4.2,4.2s-1.9,4.2-4.2,4.2
		C885.3,181.5,883.5,179.6,883.5,177.4z"/>
	<path class="st2" d="M900.4,126.3c0-2.2,1.9-4.2,4.2-4.2c2.2,0,4.2,1.9,4.2,4.2c0,2.2-1.9,4.2-4.2,4.2
		C902.3,130.5,900.4,128.5,900.4,126.3z"/>
	<path class="st3" d="M909.8,158.7c0-2.2,1.9-4.2,4.2-4.2c2.2,0,4.2,1.9,4.2,4.2c0,2.2-1.9,4.2-4.2,4.2
		C911.7,162.8,909.8,160.9,909.8,158.7z"/>
	<path class="st4" d="M920.2,141.5c0-2.2,1.9-4.2,4.2-4.2c2.2,0,4.2,1.9,4.2,4.2c0,2.2-1.9,4.2-4.2,4.2
		C922.1,145.7,920.2,143.7,920.2,141.5z"/>
	<path class="st5" d="M920.2,181.5c0-2.2,1.9-4.2,4.2-4.2c2.2,0,4.2,1.9,4.2,4.2c0,2.2-1.9,4.2-4.2,4.2
		C922.1,185.7,920.2,183.9,920.2,181.5z"/>
</g>
<g>
	<path class="st0" d="M241.9,73.8c0-2.2,1.9-4.2,4.2-4.2c2.2,0,4.2,1.9,4.2,4.2s-1.9,4.2-4.2,4.2C243.7,77.9,241.9,76,241.9,73.8z"
		/>
	<path class="st1" d="M254.7,92.5c0-2.2,1.9-4.2,4.2-4.2c2.2,0,4.2,1.9,4.2,4.2s-1.9,4.2-4.2,4.2C256.5,96.7,254.7,94.7,254.7,92.5z
		"/>
	<path class="st2" d="M271.7,41.4c0-2.2,1.9-4.2,4.2-4.2c2.2,0,4.2,1.9,4.2,4.2c0,2.2-1.9,4.2-4.2,4.2
		C273.5,45.6,271.7,43.6,271.7,41.4z"/>
	<path class="st3" d="M281,73.8c0-2.2,1.9-4.2,4.2-4.2c2.2,0,4.2,1.9,4.2,4.2s-1.9,4.2-4.2,4.2C282.9,77.9,281,76,281,73.8z"/>
	<path class="st4" d="M291.4,56.6c0-2.2,1.9-4.2,4.2-4.2c2.2,0,4.2,1.9,4.2,4.2c0,2.2-1.9,4.2-4.2,4.2
		C293.3,60.8,291.4,58.9,291.4,56.6z"/>
	<path class="st5" d="M291.4,96.7c0-2.2,1.9-4.2,4.2-4.2c2.2,0,4.2,1.9,4.2,4.2s-1.9,4.2-4.2,4.2C293.3,100.8,291.4,99,291.4,96.7z"
		/>
</g>
<g>
	<path class="st4" d="M88.6,95.3c0,1.9-1.2,3.1-3.1,3.1c-1.9,0-3.1-1.2-3.1-3.1V76.6c0-1.9,1.2-2.9,3.1-2.9c1.9,0,3.1,1,3.1,2.9
		V95.3z"/>
	<path class="st2" d="M107.8,95.3c0,1.9-1.2,3.1-3.1,3.1s-3.1-1.2-3.1-3.1V35.6c0-1.9,1.2-2.9,3.1-2.9s3.1,1,3.1,2.9V95.3z"/>
	<path class="st5" d="M104.7,38.8c-1.9,0-3.1-1.2-3.1-3.1c0-1.9,1.2-3.1,3.1-3.1h20.2c1.9,0,2.9,1.2,2.9,3.1c0,1.9-1,3.1-2.9,3.1
		H104.7z"/>
	<path class="st4" d="M128.1,95.3c0,1.9-1.2,3.1-3.1,3.1c-1.9,0-3.1-1.2-3.1-3.1V35.6c0-1.9,1.2-2.9,3.1-2.9c1.9,0,3.1,1,3.1,2.9
		V95.3z"/>
	<path class="st1" d="M104.7,62.1c-1.9,0-3.1-1.2-3.1-3.1c0-1.9,1.2-3.1,3.1-3.1h40.6c1.9,0,2.9,1.2,2.9,3.1c0,1.9-1,3.1-2.9,3.1
		H104.7z"/>
	<path class="st3" d="M85.6,79.8c-1.9,0-3.1-1.2-3.1-3.1s1.2-3.1,3.1-3.1h59.7c1.9,0,2.9,1.2,2.9,3.1s-1,3.1-2.9,3.1H85.6z"/>
	<path class="st2" d="M148.3,95.3c0,1.9-1.2,3.1-3.1,3.1c-1.9,0-3.1-1.2-3.1-3.1V58.9c0-1.9,1.2-2.9,3.1-2.9c1.9,0,3.1,1,3.1,2.9
		V95.3z"/>
	<path class="st0" d="M85.6,98.4c-1.9,0-3.1-1.2-3.1-3.1s1.2-3.1,3.1-3.1h59.7c1.9,0,2.9,1.2,2.9,3.1s-1,3.1-2.9,3.1H85.6z"/>
</g>
<g>
	<path class="st4" d="M88.6,268.8c0,1.9-1.2,3.1-3.1,3.1c-1.9,0-3.1-1.2-3.1-3.1v-18.7c0-1.9,1.2-2.9,3.1-2.9c1.9,0,3.1,1,3.1,2.9
		V268.8z"/>
	<path class="st2" d="M107.8,268.8c0,1.9-1.2,3.1-3.1,3.1s-3.1-1.2-3.1-3.1v-59.7c0-1.9,1.2-2.9,3.1-2.9s3.1,1,3.1,2.9V268.8z"/>
	<path class="st5" d="M104.7,212.3c-1.9,0-3.1-1.2-3.1-3.1c0-1.9,1.2-3.1,3.1-3.1h20.2c1.9,0,2.9,1.2,2.9,3.1c0,1.9-1,3.1-2.9,3.1
		H104.7z"/>
	<path class="st4" d="M128.1,268.8c0,1.9-1.2,3.1-3.1,3.1c-1.9,0-3.1-1.2-3.1-3.1v-59.7c0-1.9,1.2-2.9,3.1-2.9c1.9,0,3.1,1,3.1,2.9
		V268.8z"/>
	<path class="st1" d="M104.7,235.6c-1.9,0-3.1-1.2-3.1-3.1c0-1.9,1.2-3.1,3.1-3.1h40.6c1.9,0,2.9,1.2,2.9,3.1c0,1.9-1,3.1-2.9,3.1
		H104.7z"/>
	<path class="st3" d="M85.6,253.3c-1.9,0-3.1-1.2-3.1-3.1s1.2-3.1,3.1-3.1h59.7c1.9,0,2.9,1.2,2.9,3.1s-1,3.1-2.9,3.1H85.6z"/>
	<path class="st2" d="M148.3,268.8c0,1.9-1.2,3.1-3.1,3.1c-1.9,0-3.1-1.2-3.1-3.1v-36.5c0-1.9,1.2-2.9,3.1-2.9c1.9,0,3.1,1,3.1,2.9
		V268.8z"/>
	<path class="st0" d="M85.6,271.9c-1.9,0-3.1-1.2-3.1-3.1c0-1.9,1.2-3.1,3.1-3.1h59.7c1.9,0,2.9,1.2,2.9,3.1c0,1.9-1,3.1-2.9,3.1
		H85.6z"/>
</g>
<g>
	<path class="st5" d="M315.7,93.4l23.8-23.8c1.3-1.3,3-1.3,4.3,0c1.3,1.3,1.3,3,0,4.3L320,97.7c-1.3,1.3-2.9,1.3-4.2-0.1
		C314.4,96.3,314.3,94.7,315.7,93.4z"/>
	<path class="st0" d="M343.8,68.5c1.3,1.3,1.3,3,0,4.3c-1.3,1.3-3,1.3-4.3,0l-23.8-23.8c-1.3-1.3-1.3-2.9,0.1-4.2
		c1.3-1.3,2.9-1.4,4.2-0.1L343.8,68.5z"/>
	<path class="st4" d="M373.7,68.5c1.3,1.3,1.3,3,0,4.3s-3,1.3-4.3,0l-23.8-23.8c-1.3-1.3-1.3-2.9,0.1-4.2c1.3-1.3,2.9-1.4,4.2-0.1
		L373.7,68.5z"/>
	<path class="st3" d="M345.7,93.4l23.8-23.8c1.3-1.3,3-1.3,4.3,0s1.3,3,0,4.3L350,97.7c-1.3,1.3-2.9,1.3-4.2-0.1
		C344.4,96.3,344.4,94.7,345.7,93.4z"/>
</g>
<g>
	<path class="st5" d="M13,176l23.8-23.8c1.3-1.3,3-1.3,4.3,0c1.3,1.3,1.3,3,0,4.3l-23.8,23.8c-1.3,1.3-2.9,1.3-4.2-0.1
		C11.7,178.9,11.6,177.4,13,176z"/>
	<path class="st0" d="M41.1,151.2c1.3,1.3,1.3,3,0,4.3c-1.3,1.3-3,1.3-4.3,0L13,131.7c-1.3-1.3-1.3-2.9,0.1-4.2
		c1.3-1.3,2.9-1.4,4.2-0.1L41.1,151.2z"/>
	<path class="st4" d="M71,151.2c1.3,1.3,1.3,3,0,4.3s-3,1.3-4.3,0l-23.8-23.8c-1.3-1.3-1.3-2.9,0.1-4.2c1.3-1.3,2.9-1.4,4.2-0.1
		L71,151.2z"/>
	<path class="st3" d="M43,176l23.8-23.8c1.3-1.3,3-1.3,4.3,0c1.3,1.3,1.3,3,0,4.3l-23.8,23.8c-1.3,1.3-2.9,1.3-4.2-0.1
		C41.7,178.9,41.7,177.4,43,176z"/>
</g>
<g>
	<path class="st5" d="M86.3,359.1l23.8-23.8c1.3-1.3,3-1.3,4.3,0c1.3,1.3,1.3,3,0,4.3l-23.8,23.8c-1.3,1.3-2.9,1.3-4.2-0.1
		C85,362,85,360.5,86.3,359.1z"/>
	<path class="st0" d="M114.4,334.3c1.3,1.3,1.3,3,0,4.3c-1.3,1.3-3,1.3-4.3,0l-23.8-23.8c-1.3-1.3-1.3-2.9,0.1-4.2
		c1.3-1.3,2.9-1.4,4.2-0.1L114.4,334.3z"/>
	<path class="st4" d="M144.4,334.3c1.3,1.3,1.3,3,0,4.3c-1.3,1.3-3,1.3-4.3,0l-23.8-23.8c-1.3-1.3-1.3-2.9,0.1-4.2
		c1.3-1.3,2.9-1.4,4.2-0.1L144.4,334.3z"/>
	<path class="st3" d="M116.3,359.1l23.8-23.8c1.3-1.3,3-1.3,4.3,0c1.3,1.3,1.3,3,0,4.3l-23.8,23.8c-1.3,1.3-2.9,1.3-4.2-0.1
		C115.1,362,115,360.5,116.3,359.1z"/>
</g>
<g>
	<path class="st5" d="M870.5,93.4l23.8-23.8c1.3-1.3,3-1.3,4.3,0c1.3,1.3,1.3,3,0,4.3l-23.8,23.8c-1.3,1.3-2.9,1.3-4.2-0.1
		C869.3,96.3,869.1,94.7,870.5,93.4z"/>
	<path class="st0" d="M898.6,68.5c1.3,1.3,1.3,3,0,4.3c-1.3,1.3-3,1.3-4.3,0l-23.8-23.8c-1.3-1.3-1.3-2.9,0.1-4.2
		c1.3-1.3,2.9-1.4,4.2-0.1L898.6,68.5z"/>
	<path class="st4" d="M928.6,68.5c1.3,1.3,1.3,3,0,4.3s-3,1.3-4.3,0l-23.8-23.8c-1.3-1.3-1.3-2.9,0.1-4.2c1.3-1.3,2.9-1.4,4.2-0.1
		L928.6,68.5z"/>
	<path class="st3" d="M900.5,93.4l23.8-23.8c1.3-1.3,3-1.3,4.3,0s1.3,3,0,4.3l-23.8,23.8c-1.3,1.3-2.9,1.3-4.2-0.1
		C899.3,96.3,899.2,94.7,900.5,93.4z"/>
</g>
<g>
	<path class="st5" d="M796.8,176l23.8-23.8c1.3-1.3,3-1.3,4.3,0c1.3,1.3,1.3,3,0,4.3l-23.8,23.8c-1.3,1.3-2.9,1.3-4.2-0.1
		C795.6,178.9,795.5,177.4,796.8,176z"/>
	<path class="st0" d="M824.9,151.2c1.3,1.3,1.3,3,0,4.3c-1.3,1.3-3,1.3-4.3,0l-23.8-23.8c-1.3-1.3-1.3-2.9,0.1-4.2
		c1.3-1.3,2.9-1.4,4.2-0.1L824.9,151.2z"/>
	<path class="st4" d="M855,151.2c1.3,1.3,1.3,3,0,4.3s-3,1.3-4.3,0l-23.8-23.8c-1.3-1.3-1.3-2.9,0.1-4.2c1.3-1.3,2.9-1.4,4.2-0.1
		L855,151.2z"/>
	<path class="st3" d="M826.9,176l23.8-23.8c1.3-1.3,3-1.3,4.3,0s1.3,3,0,4.3l-23.8,23.8c-1.3,1.3-2.9,1.3-4.2-0.1
		C825.6,178.9,825.5,177.4,826.9,176z"/>
</g>
<g>
	<path class="st2" d="M978.3,76.5c-4.1,0-7.4-3.4-7.4-7.5s3.3-7.5,7.4-7.5c4,0,7.5,3.4,7.5,7.5S982.3,76.5,978.3,76.5z"/>
	<path class="st3" d="M948.8,91.7h59.3c1.9,0,3.1,1.1,3.1,3.1s-1.1,3.1-3.1,3.1h-59.3c-1.9,0-2.9-1.1-2.9-3.1S946.9,91.7,948.8,91.7
		z"/>
	<path class="st4" d="M979.6,31.3l29.4,29.4c1.3,1.3,1.3,3,0,4.2c-1.3,1.3-3,1.3-4.2,0l-29.4-29.4c-1.3-1.3-1.2-2.8,0.1-4.2
		C976.7,30,978.2,29.9,979.6,31.3z"/>
	<path class="st5" d="M979.1,31.3c1.3,1.3,1.4,2.8,0.1,4.2l-29.4,29.4c-1.3,1.3-3,1.3-4.2,0c-1.3-1.3-1.3-3,0-4.2l29.4-29.4
		C976.3,29.9,977.8,30.1,979.1,31.3z"/>
</g>
<g>
	<path class="st2" d="M903,349.5c-4.1,0-7.4-3.4-7.4-7.5c0-4,3.3-7.5,7.4-7.5c4,0,7.5,3.4,7.5,7.5C910.5,346.1,907,349.5,903,349.5z
		"/>
	<path class="st3" d="M873.5,364.6h59.3c1.9,0,3.1,1.1,3.1,3.1c0,1.9-1.1,3.1-3.1,3.1h-59.3c-1.9,0-2.9-1.1-2.9-3.1
		C870.6,365.8,871.6,364.6,873.5,364.6z"/>
	<path class="st4" d="M904.3,304.2l29.4,29.4c1.3,1.3,1.3,3,0,4.2c-1.3,1.3-3,1.3-4.3,0L900,308.5c-1.3-1.3-1.2-2.8,0.1-4.2
		C901.4,303,902.9,302.9,904.3,304.2z"/>
	<path class="st5" d="M903.8,304.3c1.3,1.3,1.4,2.8,0.1,4.2l-29.4,29.4c-1.3,1.3-3,1.3-4.2,0c-1.3-1.3-1.3-3,0-4.2l29.4-29.4
		C901,302.9,902.6,303.1,903.8,304.3z"/>
</g>
<g>
	<g>
		<path class="st4" d="M209.3,38L231,73.3c1,1.6,0.6,3.2-1,4.2c-1.6,1-3.2,0.6-4.2-1l-21.8-35.4c-1-1.6-0.5-3.1,1-4
			C206.8,36.1,208.3,36.4,209.3,38z"/>
		<path class="st5" d="M208.8,38c1,1.6,0.7,3.1-0.9,4.1l-35.3,21.8c-1.6,1-3.2,0.6-4.2-1s-0.6-3.2,1-4.2l35.3-21.8
			C206.4,35.9,207.9,36.4,208.8,38z"/>
		<path class="st0" d="M190,99.2l-21.8-35.3c-1-1.6-0.6-3.2,1-4.2s3.2-0.6,4.2,1l21.8,35.4c1,1.6,0.5,3.1-1,4
			C192.5,101.1,191,100.8,190,99.2z"/>
		<path class="st3" d="M190.5,99.2c-1-1.6-0.7-3.1,0.9-4.1l35.3-21.8c1.6-1,3.2-0.6,4.2,1c1,1.6,0.6,3.2-1,4.2l-35.3,21.8
			C192.9,101.3,191.4,100.8,190.5,99.2z"/>
	</g>
	<path class="st2" d="M217,73.5v23.9c0,1.9-1.1,3.1-3.1,3.1c-1.9,0-3.1-1.1-3.1-3.1V73.5c0-1.9,1.1-2.9,3.1-2.9
		C215.9,70.6,217,71.6,217,73.5z"/>
</g>
<g>
	<path class="st0" d="M786.8,73.8c0-2.2,1.9-4.2,4.2-4.2c2.2,0,4.2,1.9,4.2,4.2s-1.9,4.2-4.2,4.2C788.6,77.9,786.8,76,786.8,73.8z"
		/>
	<path class="st1" d="M799.6,92.5c0-2.2,1.9-4.2,4.2-4.2c2.2,0,4.2,1.9,4.2,4.2s-1.9,4.2-4.2,4.2C801.5,96.7,799.6,94.7,799.6,92.5z
		"/>
	<path class="st2" d="M816.6,41.4c0-2.2,1.9-4.2,4.2-4.2c2.2,0,4.2,1.9,4.2,4.2c0,2.2-1.9,4.2-4.2,4.2
		C818.5,45.6,816.6,43.6,816.6,41.4z"/>
	<path class="st3" d="M825.9,73.8c0-2.2,1.9-4.2,4.2-4.2c2.2,0,4.2,1.9,4.2,4.2s-1.9,4.2-4.2,4.2C827.8,77.9,825.9,76,825.9,73.8z"
		/>
	<path class="st4" d="M836.4,56.6c0-2.2,1.9-4.2,4.2-4.2c2.2,0,4.2,1.9,4.2,4.2c0,2.2-1.9,4.2-4.2,4.2
		C838.2,60.8,836.4,58.9,836.4,56.6z"/>
	<path class="st5" d="M836.4,96.7c0-2.2,1.9-4.2,4.2-4.2c2.2,0,4.2,1.9,4.2,4.2s-1.9,4.2-4.2,4.2C838.2,100.8,836.4,99,836.4,96.7z"
		/>
</g>
<g>
	<path class="st4" d="M633.6,95.3c0,1.9-1.2,3.1-3.1,3.1s-3.1-1.2-3.1-3.1V76.6c0-1.9,1.2-2.9,3.1-2.9s3.1,1,3.1,2.9V95.3z"/>
	<path class="st2" d="M652.7,95.3c0,1.9-1.2,3.1-3.1,3.1c-1.9,0-3.1-1.2-3.1-3.1V35.6c0-1.9,1.2-2.9,3.1-2.9c1.9,0,3.1,1,3.1,2.9
		V95.3z"/>
	<path class="st5" d="M649.7,38.8c-1.9,0-3.1-1.2-3.1-3.1c0-1.9,1.2-3.1,3.1-3.1h20.2c1.9,0,2.9,1.2,2.9,3.1c0,1.9-1,3.1-2.9,3.1
		H649.7z"/>
	<path class="st4" d="M673,95.3c0,1.9-1.2,3.1-3.1,3.1s-3.1-1.2-3.1-3.1V35.6c0-1.9,1.2-2.9,3.1-2.9s3.1,1,3.1,2.9V95.3z"/>
	<path class="st1" d="M649.7,62.1c-1.9,0-3.1-1.2-3.1-3.1c0-1.9,1.2-3.1,3.1-3.1h40.6c1.9,0,2.9,1.2,2.9,3.1c0,1.9-1,3.1-2.9,3.1
		H649.7z"/>
	<path class="st3" d="M630.6,79.8c-1.9,0-3.1-1.2-3.1-3.1s1.2-3.1,3.1-3.1h59.7c1.9,0,2.9,1.2,2.9,3.1s-1,3.1-2.9,3.1H630.6z"/>
	<path class="st2" d="M693.2,95.3c0,1.9-1.2,3.1-3.1,3.1s-3.1-1.2-3.1-3.1V58.9c0-1.9,1.2-2.9,3.1-2.9s3.1,1,3.1,2.9V95.3z"/>
	<path class="st0" d="M630.6,98.4c-1.9,0-3.1-1.2-3.1-3.1s1.2-3.1,3.1-3.1h59.7c1.9,0,2.9,1.2,2.9,3.1s-1,3.1-2.9,3.1H630.6z"/>
</g>
<g>
	<path class="st4" d="M951.6,366.8c0,1.9-1.2,3.1-3.1,3.1s-3.1-1.2-3.1-3.1v-18.7c0-1.9,1.2-2.9,3.1-2.9s3.1,1,3.1,2.9V366.8z"/>
	<path class="st2" d="M970.7,366.8c0,1.9-1.2,3.1-3.1,3.1s-3.1-1.2-3.1-3.1v-59.7c0-1.9,1.2-2.9,3.1-2.9s3.1,1,3.1,2.9V366.8z"/>
	<path class="st5" d="M967.7,310.3c-1.9,0-3.1-1.2-3.1-3.1c0-1.9,1.2-3.1,3.1-3.1h20.2c1.9,0,2.9,1.2,2.9,3.1c0,1.9-1,3.1-2.9,3.1
		H967.7z"/>
	<path class="st4" d="M991,366.8c0,1.9-1.2,3.1-3.1,3.1s-3.1-1.2-3.1-3.1v-59.7c0-1.9,1.2-2.9,3.1-2.9s3.1,1,3.1,2.9V366.8z"/>
	<path class="st1" d="M967.7,333.5c-1.9,0-3.1-1.2-3.1-3.1s1.2-3.1,3.1-3.1h40.6c1.9,0,2.9,1.2,2.9,3.1s-1,3.1-2.9,3.1H967.7z"/>
	<path class="st3" d="M948.6,351.3c-1.9,0-3.1-1.2-3.1-3.1c0-1.9,1.2-3.1,3.1-3.1h59.7c1.9,0,2.9,1.2,2.9,3.1c0,1.9-1,3.1-2.9,3.1
		H948.6z"/>
	<path class="st2" d="M1011.2,366.8c0,1.9-1.2,3.1-3.1,3.1s-3.1-1.2-3.1-3.1v-36.5c0-1.9,1.2-2.9,3.1-2.9s3.1,1,3.1,2.9V366.8z"/>
	<path class="st0" d="M948.6,369.9c-1.9,0-3.1-1.2-3.1-3.1c0-1.9,1.2-3.1,3.1-3.1h59.7c1.9,0,2.9,1.2,2.9,3.1c0,1.9-1,3.1-2.9,3.1
		H948.6z"/>
</g>
<g>
	<g>
		<path class="st4" d="M754.2,38L776,73.3c1,1.6,0.6,3.2-1,4.2c-1.6,1-3.2,0.6-4.2-1l-21.8-35.4c-1-1.6-0.5-3.1,1-4
			C751.7,36.1,753.2,36.4,754.2,38z"/>
		<path class="st5" d="M753.7,38c1,1.6,0.7,3.1-0.9,4.1l-35.3,21.8c-1.6,1-3.2,0.6-4.2-1c-1-1.6-0.6-3.2,1-4.2l35.3-21.8
			C751.3,35.9,752.8,36.4,753.7,38z"/>
		<path class="st0" d="M735,99.2l-21.8-35.3c-1-1.6-0.6-3.2,1-4.2c1.6-1,3.2-0.6,4.2,1l21.8,35.4c1,1.6,0.5,3.1-1,4
			C737.4,101.1,735.9,100.8,735,99.2z"/>
		<path class="st3" d="M735.4,99.2c-1-1.6-0.7-3.1,0.9-4.1l35.3-21.8c1.6-1,3.2-0.6,4.2,1s0.6,3.2-1,4.2l-35.3,21.8
			C737.9,101.3,736.4,100.8,735.4,99.2z"/>
	</g>
	<path class="st2" d="M762,73.5v23.9c0,1.9-1.1,3.1-3.1,3.1s-3.1-1.1-3.1-3.1V73.5c0-1.9,1.1-2.9,3.1-2.9S762,71.6,762,73.5z"/>
</g>
<g>
	<g>
		<path class="st4" d="M990.7,212.7l21.8,35.3c1,1.6,0.6,3.2-1,4.2c-1.6,1-3.2,0.6-4.2-1l-21.8-35.4c-1-1.6-0.5-3.1,1-4
			C988.3,210.8,989.8,211.1,990.7,212.7z"/>
		<path class="st5" d="M990.3,212.7c1,1.6,0.7,3.1-0.9,4.1l-35.3,21.8c-1.6,1-3.2,0.6-4.2-1c-1-1.6-0.6-3.2,1-4.2l35.3-21.8
			C987.8,210.6,989.3,211.1,990.3,212.7z"/>
		<path class="st0" d="M971.5,273.9l-21.8-35.3c-1-1.6-0.6-3.2,1-4.2c1.6-1,3.2-0.6,4.2,1l21.8,35.3c1,1.6,0.5,3.1-1,4
			C974,275.7,972.5,275.5,971.5,273.9z"/>
		<path class="st3" d="M972,273.9c-1-1.6-0.7-3.1,0.9-4.1l35.3-21.8c1.6-1,3.2-0.6,4.2,1c1,1.6,0.6,3.2-1,4.2l-35.3,21.8
			C974.4,276,972.9,275.5,972,273.9z"/>
	</g>
	<path class="st2" d="M998.5,248.1v23.9c0,1.9-1.1,3.1-3.1,3.1s-3.1-1.1-3.1-3.1v-23.9c0-1.9,1.1-2.9,3.1-2.9
		S998.5,246.3,998.5,248.1z"/>
</g>
<g>
	<g>
		<path class="st4" d="M46.7,212.7L68.5,248c1,1.6,0.6,3.2-1,4.2c-1.6,1-3.2,0.6-4.2-1l-21.8-35.4c-1-1.6-0.5-3.1,1-4
			C44.3,210.8,45.8,211.1,46.7,212.7z"/>
		<path class="st5" d="M46.3,212.7c1,1.6,0.7,3.1-0.9,4.1L10,238.5c-1.6,1-3.2,0.6-4.2-1s-0.6-3.2,1-4.2l35.3-21.8
			C43.8,210.6,45.3,211.1,46.3,212.7z"/>
		<path class="st0" d="M27.5,273.9L5.7,238.5c-1-1.6-0.6-3.2,1-4.2c1.6-1,3.2-0.6,4.2,1l21.8,35.4c1,1.6,0.5,3.1-1,4
			C30,275.7,28.5,275.5,27.5,273.9z"/>
		<path class="st3" d="M27.9,273.9c-1-1.6-0.7-3.1,0.9-4.1L64.1,248c1.6-1,3.2-0.6,4.2,1c1,1.6,0.6,3.2-1,4.2L32,274.9
			C30.4,276,28.9,275.5,27.9,273.9z"/>
	</g>
	<path class="st2" d="M54.5,248.1v23.9c0,1.9-1.1,3.1-3.1,3.1c-1.9,0-3.1-1.1-3.1-3.1v-23.9c0-1.9,1.1-2.9,3.1-2.9
		C53.4,245.2,54.5,246.3,54.5,248.1z"/>
</g>
<g>
	<g>
		<path class="st4" d="M505.1,38L527,73.3c1,1.6,0.6,3.2-1,4.2c-1.6,1-3.2,0.6-4.2-1l-21.8-35.3c-1-1.6-0.5-3.1,1-4
			C502.7,36.1,504.2,36.4,505.1,38z"/>
		<path class="st5" d="M504.7,38c1,1.6,0.7,3.1-0.9,4.1l-35.3,21.8c-1.6,1-3.2,0.6-4.2-1s-0.6-3.2,1-4.2l35.3-21.8
			C502.2,35.9,503.7,36.4,504.7,38z"/>
		<path class="st0" d="M485.9,99.2l-21.8-35.3c-1-1.6-0.6-3.2,1-4.2c1.6-1,3.2-0.6,4.2,1L491,96c1,1.6,0.5,3.1-1,4
			C488.4,101.1,486.9,100.8,485.9,99.2z"/>
		<path class="st3" d="M486.3,99.2c-1-1.6-0.7-3.1,0.9-4.1l35.3-21.8c1.6-1,3.2-0.6,4.2,1c1,1.6,0.6,3.2-1,4.2l-35.3,21.8
			C488.8,101.3,487.3,100.8,486.3,99.2z"/>
	</g>
	<path class="st2" d="M512.9,73.5v23.9c0,1.9-1.1,3.1-3.1,3.1c-1.9,0-3.1-1.1-3.1-3.1V73.5c0-1.9,1.1-2.9,3.1-2.9
		C511.8,70.6,512.9,71.6,512.9,73.5z"/>
</g>
<g>
	<path class="st2" d="M416.5,76.8c-4.7,0-8.4-4-8.4-8.6s3.8-8.6,8.4-8.6c4.6,0,8.6,4,8.6,8.6S421.2,76.8,416.5,76.8z"/>
	<path class="st3" d="M419.6,38.9v9.3c0,1.9-1.1,3.1-3.1,3.1c-1.9,0-3.1-1.1-3.1-3.1v-9.3c0-1.9,1.1-2.9,3.1-2.9
		C418.4,36,419.6,37,419.6,38.9z"/>
	<path class="st4" d="M439.4,49.6l-6.6,6.6c-1.3,1.3-3,1.3-4.2,0c-1.3-1.3-1.3-3,0-4.2l6.6-6.6c1.3-1.3,2.8-1.2,4.2,0.1
		C440.7,46.7,440.7,48.3,439.4,49.6z"/>
	<path class="st1" d="M445.8,71.2h-9.3c-1.9,0-3.1-1.1-3.1-3.1c0-1.9,1.1-3.1,3.1-3.1h9.3c1.9,0,2.9,1.1,2.9,3.1
		C448.8,70,447.7,71.2,445.8,71.2z"/>
	<path class="st5" d="M435.1,91l-6.6-6.6c-1.3-1.3-1.3-3,0-4.2c1.3-1.3,3-1.3,4.2,0l6.6,6.6c1.3,1.3,1.2,2.8-0.1,4.2
		C438,92.3,436.5,92.3,435.1,91z"/>
	<path class="st3" d="M413.6,97.5v-9.3c0-1.9,1.1-3.1,3.1-3.1c1.9,0,3.1,1.1,3.1,3.1v9.3c0,1.9-1.1,2.9-3.1,2.9
		C414.7,100.3,413.6,99.3,413.6,97.5z"/>
	<path class="st4" d="M393.7,86.7l6.6-6.6c1.3-1.3,3-1.3,4.2,0c1.3,1.3,1.3,3,0,4.2L398,91c-1.3,1.3-2.8,1.2-4.2-0.1
		C392.5,89.6,392.4,88.1,393.7,86.7z"/>
	<path class="st1" d="M387.3,65.1h9.3c1.9,0,3.1,1.1,3.1,3.1c0,1.9-1.1,3.1-3.1,3.1h-9.3c-1.9,0-2.9-1.1-2.9-3.1
		C384.4,66.3,385.5,65.1,387.3,65.1z"/>
	<path class="st0" d="M398,45.4l6.6,6.6c1.3,1.3,1.3,3,0,4.2c-1.3,1.3-3,1.3-4.2,0l-6.6-6.6c-1.3-1.3-1.2-2.8,0.1-4.2
		C395.1,44.1,396.7,44,398,45.4z"/>
</g>
<g>
	<path class="st2" d="M122,162.5c-4.7,0-8.4-4-8.4-8.6c0-4.6,3.8-8.6,8.4-8.6c4.6,0,8.6,4,8.6,8.6
		C130.6,158.5,126.7,162.5,122,162.5z"/>
	<path class="st3" d="M125.1,124.6v9.3c0,1.9-1.1,3.1-3.1,3.1c-1.9,0-3.1-1.1-3.1-3.1v-9.3c0-1.9,1.1-2.9,3.1-2.9
		C124,121.7,125.1,122.8,125.1,124.6z"/>
	<path class="st4" d="M144.9,135.4l-6.6,6.6c-1.3,1.3-3,1.3-4.2,0c-1.3-1.3-1.3-3,0-4.2l6.6-6.6c1.3-1.3,2.8-1.2,4.2,0.1
		S146.2,134,144.9,135.4z"/>
	<path class="st1" d="M151.3,157H142c-1.9,0-3.1-1.1-3.1-3.1c0-1.9,1.1-3.1,3.1-3.1h9.3c1.9,0,2.9,1.1,2.9,3.1
		C154.2,155.9,153.2,157,151.3,157z"/>
	<path class="st5" d="M140.6,176.7l-6.6-6.6c-1.3-1.3-1.3-3,0-4.2c1.3-1.3,3-1.3,4.2,0l6.6,6.6c1.3,1.3,1.2,2.8-0.1,4.2
		C143.5,178,141.9,178.1,140.6,176.7z"/>
	<path class="st3" d="M119.1,183.2v-9.3c0-1.9,1.1-3.1,3.1-3.1c1.9,0,3.1,1.1,3.1,3.1v9.3c0,1.9-1.1,2.9-3.1,2.9
		C120.2,186.1,119.1,185.1,119.1,183.2z"/>
	<path class="st4" d="M99.2,172.5l6.6-6.6c1.3-1.3,3-1.3,4.2,0c1.3,1.3,1.3,3,0,4.2l-6.6,6.6c-1.3,1.3-2.8,1.2-4.2-0.1
		C98,175.3,97.9,173.8,99.2,172.5z"/>
	<path class="st1" d="M92.8,150.9h9.3c1.9,0,3.1,1.1,3.1,3.1c0,1.9-1.1,3.1-3.1,3.1h-9.3c-1.9,0-2.9-1.1-2.9-3.1
		C89.9,152,90.9,150.9,92.8,150.9z"/>
	<path class="st0" d="M103.5,131.1l6.6,6.6c1.3,1.3,1.3,3,0,4.2c-1.3,1.3-3,1.3-4.2,0l-6.6-6.6c-1.3-1.3-1.2-2.8,0.1-4.2
		S102.2,129.8,103.5,131.1z"/>
</g>
<g>
	<path class="st2" d="M570.4,76.8c-4.7,0-8.4-4-8.4-8.6s3.8-8.6,8.4-8.6s8.6,4,8.6,8.6S575,76.8,570.4,76.8z"/>
	<path class="st3" d="M573.4,38.9v9.3c0,1.9-1.1,3.1-3.1,3.1c-1.9,0-3.1-1.1-3.1-3.1v-9.3c0-1.9,1.1-2.9,3.1-2.9
		C572.3,36,573.4,37,573.4,38.9z"/>
	<path class="st4" d="M593.3,49.6l-6.6,6.6c-1.3,1.3-3,1.3-4.2,0c-1.3-1.3-1.3-3,0-4.2l6.6-6.6c1.3-1.3,2.8-1.2,4.2,0.1
		C594.5,46.7,594.6,48.3,593.3,49.6z"/>
	<path class="st1" d="M599.7,71.2h-9.3c-1.9,0-3.1-1.1-3.1-3.1c0-1.9,1.1-3.1,3.1-3.1h9.3c1.9,0,2.9,1.1,2.9,3.1
		C602.6,70,601.6,71.2,599.7,71.2z"/>
	<path class="st5" d="M589,91l-6.6-6.6c-1.3-1.3-1.3-3,0-4.2c1.3-1.3,3-1.3,4.2,0l6.6,6.6c1.3,1.3,1.2,2.8-0.1,4.2
		C591.9,92.3,590.3,92.3,589,91z"/>
	<path class="st3" d="M567.4,97.5v-9.3c0-1.9,1.1-3.1,3.1-3.1c1.9,0,3.1,1.1,3.1,3.1v9.3c0,1.9-1.1,2.9-3.1,2.9
		C568.6,100.3,567.4,99.3,567.4,97.5z"/>
	<path class="st4" d="M547.6,86.7l6.6-6.6c1.3-1.3,3-1.3,4.2,0c1.3,1.3,1.3,3,0,4.2l-6.6,6.6c-1.3,1.3-2.8,1.2-4.2-0.1
		C546.4,89.6,546.3,88.1,547.6,86.7z"/>
	<path class="st1" d="M541.1,65.1h9.3c1.9,0,3.1,1.1,3.1,3.1c0,1.9-1.1,3.1-3.1,3.1h-9.3c-1.9,0-2.9-1.1-2.9-3.1
		C538.3,66.3,539.3,65.1,541.1,65.1z"/>
	<path class="st0" d="M551.9,45.4l6.6,6.6c1.3,1.3,1.3,3,0,4.2c-1.3,1.3-3,1.3-4.2,0l-6.6-6.6c-1.3-1.3-1.2-2.8,0.1-4.2
		C549,44.1,550.5,44,551.9,45.4z"/>
</g>
<g>
	<path class="st2" d="M899.5,250.3c-4.7,0-8.4-4-8.4-8.6c0-4.6,3.8-8.6,8.4-8.6s8.6,4,8.6,8.6S904.1,250.3,899.5,250.3z"/>
	<path class="st3" d="M902.6,212.5v9.3c0,1.9-1.1,3.1-3.1,3.1c-1.9,0-3.1-1.1-3.1-3.1v-9.3c0-1.9,1.1-2.9,3.1-2.9
		C901.4,209.6,902.6,210.6,902.6,212.5z"/>
	<path class="st4" d="M922.4,223.2l-6.6,6.6c-1.3,1.3-3,1.3-4.2,0c-1.3-1.3-1.3-3,0-4.2l6.6-6.6c1.3-1.3,2.8-1.2,4.2,0.1
		C923.7,220.3,923.7,221.9,922.4,223.2z"/>
	<path class="st1" d="M928.9,244.8h-9.3c-1.9,0-3.1-1.1-3.1-3.1c0-1.9,1.1-3.1,3.1-3.1h9.3c1.9,0,2.9,1.1,2.9,3.1
		C931.7,243.6,930.7,244.8,928.9,244.8z"/>
	<path class="st5" d="M918.1,264.6l-6.6-6.6c-1.3-1.3-1.3-3,0-4.2c1.3-1.3,3-1.3,4.2,0l6.6,6.6c1.3,1.3,1.2,2.8-0.1,4.2
		C921,265.8,919.5,265.9,918.1,264.6z"/>
	<path class="st3" d="M896.5,271.1v-9.3c0-1.9,1.1-3.1,3.1-3.1c1.9,0,3.1,1.1,3.1,3.1v9.3c0,1.9-1.1,2.9-3.1,2.9
		C897.7,273.9,896.5,272.9,896.5,271.1z"/>
	<path class="st4" d="M876.8,260.3l6.6-6.6c1.3-1.3,3-1.3,4.2,0c1.3,1.3,1.3,3,0,4.2l-6.6,6.6c-1.3,1.3-2.8,1.2-4.2-0.1
		C875.5,263.2,875.4,261.7,876.8,260.3z"/>
	<path class="st1" d="M870.3,238.7h9.3c1.9,0,3.1,1.1,3.1,3.1c0,1.9-1.1,3.1-3.1,3.1h-9.3c-1.9,0-2.9-1.1-2.9-3.1
		C867.4,239.9,868.4,238.7,870.3,238.7z"/>
	<path class="st0" d="M881,218.9l6.6,6.6c1.3,1.3,1.3,3,0,4.2c-1.3,1.3-3,1.3-4.2,0l-6.6-6.6c-1.3-1.3-1.2-2.8,0.1-4.2
		C878.2,217.7,879.7,217.6,881,218.9z"/>
</g>
<g>
	<path class="st2" d="M979.8,162.5c-4.7,0-8.4-4-8.4-8.6c0-4.6,3.8-8.6,8.4-8.6c4.6,0,8.6,4,8.6,8.6
		C988.4,158.5,984.4,162.5,979.8,162.5z"/>
	<path class="st3" d="M982.8,124.6v9.3c0,1.9-1.1,3.1-3.1,3.1c-1.9,0-3.1-1.1-3.1-3.1v-9.3c0-1.9,1.1-2.9,3.1-2.9
		C981.7,121.8,982.8,122.8,982.8,124.6z"/>
	<path class="st4" d="M1002.7,135.4l-6.6,6.6c-1.3,1.3-3,1.3-4.2,0c-1.3-1.3-1.3-3,0-4.2l6.6-6.6c1.3-1.3,2.8-1.2,4.2,0.1
		C1003.9,132.4,1004,134,1002.7,135.4z"/>
	<path class="st1" d="M1009.2,157h-9.3c-1.9,0-3.1-1.1-3.1-3.1c0-1.9,1.1-3.1,3.1-3.1h9.3c1.9,0,2.9,1.1,2.9,3.1
		C1012.1,155.9,1011,157,1009.2,157z"/>
	<path class="st5" d="M998.4,176.7l-6.6-6.6c-1.3-1.3-1.3-3,0-4.2c1.3-1.3,3-1.3,4.2,0l6.6,6.6c1.3,1.3,1.2,2.8-0.1,4.2
		C1001.3,178,999.8,178.1,998.4,176.7z"/>
	<path class="st3" d="M976.8,183.2v-9.3c0-1.9,1.1-3.1,3.1-3.1c1.9,0,3.1,1.1,3.1,3.1v9.3c0,1.9-1.1,2.9-3.1,2.9
		C978,186.1,976.8,185.1,976.8,183.2z"/>
	<path class="st4" d="M957,172.5l6.6-6.6c1.3-1.3,3-1.3,4.2,0c1.3,1.3,1.3,3,0,4.2l-6.6,6.6c-1.3,1.3-2.8,1.2-4.2-0.1
		C955.8,175.3,955.7,173.8,957,172.5z"/>
	<path class="st1" d="M950.6,150.9h9.3c1.9,0,3.1,1.1,3.1,3.1c0,1.9-1.1,3.1-3.1,3.1h-9.3c-1.9,0-2.9-1.1-2.9-3.1
		C947.6,152,948.7,150.9,950.6,150.9z"/>
	<path class="st0" d="M961.3,131.1l6.6,6.6c1.3,1.3,1.3,3,0,4.2c-1.3,1.3-3,1.3-4.2,0l-6.6-6.6c-1.3-1.3-1.2-2.8,0.1-4.2
		C958.5,129.8,959.9,129.8,961.3,131.1z"/>
</g>
</svg>
