<?xml version="1.0" encoding="utf-8"?>
<!-- Generator: Adobe Illustrator 17.0.0, SVG Export Plug-In . SVG Version: 6.00 Build 0)  -->
<!DOCTYPE svg PUBLIC "-//W3C//DTD SVG 1.1//EN" "http://www.w3.org/Graphics/SVG/1.1/DTD/svg11.dtd">
<svg version="1.1" id="Layer_1" xmlns="http://www.w3.org/2000/svg" xmlns:xlink="http://www.w3.org/1999/xlink" x="0px" y="0px"
	 width="1024px" height="384.258px" viewBox="0 0 1024 384.258" enable-background="new 0 0 1024 384.258" xml:space="preserve">
<g>
	<path fill="#A8D9DB" d="M65.301,96.379c0-2.711,2.214-5.016,4.971-5.016c2.712,0,5.016,2.305,5.016,5.016
		c0,2.712-2.305,5.017-5.016,5.017C67.516,101.396,65.301,99.091,65.301,96.379z"/>
	<path fill="#467C9D" d="M80.62,118.732c0-2.712,2.214-5.016,4.971-5.016c2.712,0,5.016,2.305,5.016,5.016
		c0,2.712-2.305,5.017-5.016,5.017C82.834,123.748,80.62,121.443,80.62,118.732z"/>
	<path fill="#EA5F69" d="M100.896,57.779c0-2.711,2.214-5.016,4.971-5.016c2.712,0,5.017,2.305,5.017,5.016
		c0,2.712-2.305,5.017-5.017,5.017C103.11,62.796,100.896,60.491,100.896,57.779z"/>
	<path fill="#DBE5D8" d="M112.047,96.379c0-2.711,2.214-5.016,4.971-5.016c2.712,0,5.016,2.305,5.016,5.016
		c0,2.712-2.305,5.017-5.016,5.017C114.261,101.396,112.047,99.091,112.047,96.379z"/>
	<path fill="#F9F9F9" d="M124.515,75.913c0-2.712,2.214-5.017,4.971-5.017c2.712,0,5.016,2.305,5.016,5.017
		c0,2.712-2.305,5.016-5.016,5.016C126.729,80.929,124.515,78.625,124.515,75.913z"/>
	<path fill="#E53946" d="M124.515,123.748c0-2.712,2.214-5.017,4.971-5.017c2.712,0,5.016,2.305,5.016,5.017
		c0,2.711-2.305,5.016-5.016,5.016C126.729,128.765,124.515,126.46,124.515,123.748z"/>
</g>
<path fill="#F9F9F9" d="M668.609,156.206c2.183,1.328,2.812,3.321,1.483,5.505l-17.967,29.652c-1.328,2.183-3.489,2.709-5.672,1.381
	c-2.183-1.328-2.709-3.489-1.381-5.672l17.967-29.652C664.367,155.236,666.426,154.878,668.609,156.206z"/>
<path fill="#467C9D" d="M562.886,225.919c0-2.556,1.376-4.128,3.932-4.128h34.851c2.556,0,4.128,1.573,4.128,4.128
	s-1.573,4.128-4.128,4.128h-34.851C564.262,230.048,562.886,228.475,562.886,225.919z"/>
<path fill="#DBE5D8" d="M566.732,159.386c0-2.556,1.376-4.128,3.932-4.128h13.678c2.556,0,4.128,1.573,4.128,4.128
	s-1.573,4.128-4.128,4.128h-13.678C568.108,163.515,566.732,161.942,566.732,159.386z"/>
<path fill="#DBE5D8" d="M628.791,159.386c0-2.556,1.376-4.128,3.932-4.128h33.934c2.556,0,4.128,1.573,4.128,4.128
	s-1.573,4.128-4.128,4.128h-33.934C630.167,163.515,628.791,161.942,628.791,159.386z"/>
<path fill="#F9F9F9" d="M396.951,156.671c0,2.167-2.053,4.22-4.335,4.22h-31.709v24.638h29.2c2.281,0,4.334,2.053,4.334,4.335
	c0,2.053-2.053,4.334-4.334,4.334h-29.086v37.299h-8.897v-79.274h40.492C394.898,152.223,396.951,154.39,396.951,156.671z"/>
<path fill="#F9F9F9" d="M466.523,232.979c-2.167,0.456-4.676-0.799-5.361-3.422l-4.904-20.19h-26.007l-4.904,20.19
	c-0.685,2.851-2.851,3.878-5.133,3.422c-2.851-0.57-4.105-2.851-3.535-5.361l17.68-75.395h17.565l17.907,75.395
	C470.401,230.128,468.805,232.523,466.523,232.979z M441.316,160.891l-9.125,39.694h22.014l-9.011-39.694H441.316z"/>
<path fill="#F9F9F9" d="M531.568,190.434c7.071-3.08,8.44-12.205,8.44-16.196v-1.255c0-7.072-2.851-20.76-20.759-20.76h-23.611
	v79.274h24.181c17.794,0,21.444-14.03,21.444-20.988v-2.737C541.263,203.665,539.324,194.084,531.568,190.434z M504.421,160.891
	h14.829c4.106,0,11.977,1.369,11.977,12.091v1.026c0,10.721-6.388,12.433-11.293,12.433h-15.513V160.891z M532.48,210.167
	c0,10.836-8.441,12.547-12.661,12.547h-15.399v-27.489h15.969c4.791,0,12.091,1.71,12.091,12.66V210.167z"/>
<path fill="#A8D9DB" d="M649.091,223.321c2.167,0,4.226,1.625,4.226,4.118c0,2.167-2.059,4.226-4.226,4.226
	c-17.229,0-21.672-13.328-21.672-20.805c0-2.167,1.625-4.226,4.118-4.226c2.167,0,4.226,2.059,4.226,4.226
	C635.763,221.478,645.082,223.321,649.091,223.321z"/>
<path fill="#E53946" d="M648.549,193.539c-2.167,0-4.226-1.625-4.226-4.118c0-2.167,2.059-4.226,4.226-4.226
	c17.229,0,21.672,13.328,21.672,20.805c0,2.167-1.625,4.226-4.118,4.226c-2.167,0-4.226-2.059-4.226-4.226
	C661.878,195.381,652.558,193.539,648.549,193.539z"/>
<path fill="#467C9D" d="M661.878,210.859c0-2.167,2.059-4.226,4.226-4.226c2.492,0,4.118,2.059,4.118,4.226
	c0,7.477-4.443,20.805-21.672,20.805c-2.167,0-4.226-2.059-4.226-4.226c0-2.492,2.059-4.118,4.226-4.118
	C652.558,223.321,661.878,221.478,661.878,210.859z"/>
<path fill="#467C9D" d="M666.093,200.99c2.556,0,4.128,1.376,4.128,3.932v4.763c0,2.556-1.573,4.128-4.128,4.128
	c-2.556,0-4.128-1.573-4.128-4.128v-4.763C661.965,202.366,663.537,200.99,666.093,200.99z"/>
<path fill="#EA5F69" d="M584.341,155.258c2.556,0,4.128,1.376,4.128,3.932v66.729c0,2.556-1.573,4.128-4.128,4.128
	s-4.128-1.573-4.128-4.128V159.19C580.213,156.634,581.785,155.258,584.341,155.258z"/>
<g>
	<path fill="#A8D9DB" d="M154.705,202.262c0-2.711,2.214-5.016,4.971-5.016c2.712,0,5.016,2.305,5.016,5.016
		c0,2.712-2.305,5.017-5.016,5.017C156.919,207.279,154.705,204.974,154.705,202.262z"/>
	<path fill="#467C9D" d="M170.023,224.615c0-2.712,2.214-5.016,4.971-5.016c2.712,0,5.016,2.305,5.016,5.016
		s-2.305,5.017-5.016,5.017C172.238,229.632,170.023,227.327,170.023,224.615z"/>
	<path fill="#EA5F69" d="M190.299,163.662c0-2.711,2.214-5.016,4.971-5.016c2.712,0,5.017,2.305,5.017,5.016
		c0,2.712-2.305,5.017-5.017,5.017C192.513,168.679,190.299,166.374,190.299,163.662z"/>
	<path fill="#DBE5D8" d="M201.45,202.262c0-2.711,2.214-5.016,4.971-5.016c2.712,0,5.016,2.305,5.016,5.016
		c0,2.712-2.305,5.017-5.016,5.017C203.664,207.279,201.45,204.974,201.45,202.262z"/>
	<path fill="#F9F9F9" d="M213.918,181.796c0-2.712,2.214-5.017,4.971-5.017c2.712,0,5.016,2.305,5.016,5.017
		s-2.305,5.016-5.016,5.016C216.133,186.813,213.918,184.508,213.918,181.796z"/>
	<path fill="#E53946" d="M213.918,229.632c0-2.712,2.214-5.017,4.971-5.017c2.712,0,5.016,2.305,5.016,5.017
		c0,2.711-2.305,5.016-5.016,5.016C216.133,234.648,213.918,232.343,213.918,229.632z"/>
</g>
<g>
	<path fill="#A8D9DB" d="M154.705,308.146c0-2.711,2.214-5.016,4.971-5.016c2.712,0,5.016,2.305,5.016,5.016
		c0,2.712-2.305,5.017-5.016,5.017C156.919,313.162,154.705,310.857,154.705,308.146z"/>
	<path fill="#467C9D" d="M170.023,330.498c0-2.712,2.214-5.016,4.971-5.016c2.712,0,5.016,2.305,5.016,5.016
		s-2.305,5.017-5.016,5.017C172.238,335.515,170.023,333.21,170.023,330.498z"/>
	<path fill="#EA5F69" d="M190.299,269.546c0-2.711,2.214-5.016,4.971-5.016c2.712,0,5.017,2.305,5.017,5.016
		c0,2.712-2.305,5.017-5.017,5.017C192.513,274.562,190.299,272.257,190.299,269.546z"/>
	<path fill="#DBE5D8" d="M201.45,308.146c0-2.711,2.214-5.016,4.971-5.016c2.712,0,5.016,2.305,5.016,5.016
		c0,2.712-2.305,5.017-5.016,5.017C203.664,313.162,201.45,310.857,201.45,308.146z"/>
	<path fill="#F9F9F9" d="M213.918,287.68c0-2.712,2.214-5.017,4.971-5.017c2.712,0,5.016,2.305,5.016,5.017
		c0,2.712-2.305,5.016-5.016,5.016C216.133,292.696,213.918,290.391,213.918,287.68z"/>
	<path fill="#E53946" d="M213.918,335.515c0-2.712,2.214-5.017,4.971-5.017c2.712,0,5.016,2.305,5.016,5.017
		c0,2.711-2.305,5.016-5.016,5.016C216.133,340.532,213.918,338.227,213.918,335.515z"/>
</g>
<g>
	<path fill="#A8D9DB" d="M341.525,96.379c0-2.711,2.214-5.016,4.971-5.016c2.712,0,5.016,2.305,5.016,5.016
		c0,2.712-2.305,5.017-5.016,5.017C343.739,101.396,341.525,99.091,341.525,96.379z"/>
	<path fill="#467C9D" d="M356.843,118.732c0-2.712,2.214-5.016,4.971-5.016c2.712,0,5.016,2.305,5.016,5.016
		c0,2.712-2.305,5.017-5.016,5.017C359.058,123.748,356.843,121.443,356.843,118.732z"/>
	<path fill="#EA5F69" d="M377.119,57.779c0-2.711,2.214-5.016,4.971-5.016c2.712,0,5.017,2.305,5.017,5.016
		c0,2.712-2.305,5.017-5.017,5.017C379.333,62.796,377.119,60.491,377.119,57.779z"/>
	<path fill="#DBE5D8" d="M388.27,96.379c0-2.711,2.214-5.016,4.971-5.016c2.712,0,5.016,2.305,5.016,5.016
		c0,2.712-2.305,5.017-5.016,5.017C390.484,101.396,388.27,99.091,388.27,96.379z"/>
	<path fill="#F9F9F9" d="M400.738,75.913c0-2.712,2.214-5.017,4.971-5.017c2.712,0,5.016,2.305,5.016,5.017
		c0,2.712-2.305,5.016-5.016,5.016C402.953,80.929,400.738,78.625,400.738,75.913z"/>
	<path fill="#E53946" d="M400.738,123.748c0-2.712,2.214-5.017,4.971-5.017c2.712,0,5.016,2.305,5.016,5.017
		c0,2.711-2.305,5.016-5.016,5.016C402.953,128.765,400.738,126.46,400.738,123.748z"/>
</g>
<g>
	<path fill="#A8D9DB" d="M701.984,308.146c0-2.711,2.214-5.016,4.971-5.016c2.712,0,5.016,2.305,5.016,5.016
		c0,2.712-2.305,5.017-5.016,5.017C704.198,313.162,701.984,310.857,701.984,308.146z"/>
	<path fill="#467C9D" d="M717.303,330.498c0-2.712,2.214-5.016,4.971-5.016c2.712,0,5.016,2.305,5.016,5.016
		s-2.305,5.017-5.016,5.017C719.517,335.515,717.303,333.21,717.303,330.498z"/>
	<path fill="#EA5F69" d="M737.578,269.546c0-2.711,2.214-5.016,4.971-5.016c2.712,0,5.017,2.305,5.017,5.016
		c0,2.712-2.305,5.017-5.017,5.017C739.793,274.562,737.578,272.257,737.578,269.546z"/>
	<path fill="#DBE5D8" d="M748.729,308.146c0-2.711,2.214-5.016,4.971-5.016c2.712,0,5.016,2.305,5.016,5.016
		c0,2.712-2.305,5.017-5.016,5.017C750.943,313.162,748.729,310.857,748.729,308.146z"/>
	<path fill="#F9F9F9" d="M761.197,287.68c0-2.712,2.214-5.017,4.971-5.017c2.712,0,5.016,2.305,5.016,5.017
		c0,2.712-2.305,5.016-5.016,5.016C763.412,292.696,761.197,290.391,761.197,287.68z"/>
	<path fill="#E53946" d="M761.197,335.515c0-2.712,2.214-5.017,4.971-5.017c2.712,0,5.016,2.305,5.016,5.017
		c0,2.711-2.305,5.016-5.016,5.016C763.412,340.532,761.197,338.227,761.197,335.515z"/>
</g>
<g>
	<path fill="#A8D9DB" d="M788.069,308.146c0-2.711,2.214-5.016,4.971-5.016c2.712,0,5.016,2.305,5.016,5.016
		c0,2.712-2.305,5.017-5.016,5.017C790.284,313.162,788.069,310.857,788.069,308.146z"/>
	<path fill="#467C9D" d="M803.388,330.498c0-2.712,2.214-5.016,4.971-5.016c2.712,0,5.016,2.305,5.016,5.016
		s-2.305,5.017-5.016,5.017C805.602,335.515,803.388,333.21,803.388,330.498z"/>
	<path fill="#EA5F69" d="M823.664,269.546c0-2.711,2.214-5.016,4.971-5.016c2.712,0,5.017,2.305,5.017,5.016
		c0,2.712-2.305,5.017-5.017,5.017C825.878,274.562,823.664,272.257,823.664,269.546z"/>
	<path fill="#DBE5D8" d="M834.815,308.146c0-2.711,2.214-5.016,4.971-5.016c2.712,0,5.016,2.305,5.016,5.016
		c0,2.712-2.305,5.017-5.016,5.017C837.029,313.162,834.815,310.857,834.815,308.146z"/>
	<path fill="#F9F9F9" d="M847.283,287.68c0-2.712,2.214-5.017,4.971-5.017c2.712,0,5.016,2.305,5.016,5.017
		c0,2.712-2.305,5.016-5.016,5.016C849.497,292.696,847.283,290.391,847.283,287.68z"/>
	<path fill="#E53946" d="M847.283,335.515c0-2.712,2.214-5.017,4.971-5.017c2.712,0,5.016,2.305,5.016,5.017
		c0,2.711-2.305,5.016-5.016,5.016C849.497,340.532,847.283,338.227,847.283,335.515z"/>
</g>
<g>
	<path fill="#F9F9F9" d="M158.671,122.131c0,2.255-1.388,3.642-3.642,3.642c-2.255,0-3.642-1.387-3.642-3.642V99.767
		c0-2.255,1.388-3.469,3.642-3.469c2.255,0,3.642,1.214,3.642,3.469V122.131z"/>
	<path fill="#EA5F69" d="M181.537,122.131c0,2.255-1.388,3.642-3.642,3.642c-2.255,0-3.642-1.387-3.642-3.642V50.817
		c0-2.255,1.388-3.469,3.642-3.469c2.255,0,3.642,1.214,3.642,3.469V122.131z"/>
	<path fill="#E53946" d="M177.895,54.632c-2.255,0-3.642-1.387-3.642-3.642c0-2.255,1.388-3.642,3.642-3.642h24.137
		c2.255,0,3.469,1.387,3.469,3.642c0,2.255-1.214,3.642-3.469,3.642H177.895z"/>
	<path fill="#F9F9F9" d="M205.674,122.131c0,2.255-1.387,3.642-3.642,3.642c-2.255,0-3.642-1.387-3.642-3.642V50.817
		c0-2.255,1.388-3.469,3.642-3.469c2.255,0,3.642,1.214,3.642,3.469V122.131z"/>
	<path fill="#467C9D" d="M177.895,82.449c-2.255,0-3.642-1.388-3.642-3.642c0-2.255,1.388-3.642,3.642-3.642h48.448
		c2.255,0,3.469,1.387,3.469,3.642c0,2.255-1.214,3.642-3.469,3.642H177.895z"/>
	<path fill="#DBE5D8" d="M155.029,103.583c-2.255,0-3.642-1.387-3.642-3.642c0-2.255,1.388-3.642,3.642-3.642h71.314
		c2.255,0,3.469,1.388,3.469,3.642c0,2.255-1.214,3.642-3.469,3.642H155.029z"/>
	<path fill="#EA5F69" d="M229.812,122.131c0,2.255-1.388,3.642-3.642,3.642s-3.642-1.387-3.642-3.642V78.633
		c0-2.255,1.388-3.469,3.642-3.469s3.642,1.214,3.642,3.469V122.131z"/>
	<path fill="#A8D9DB" d="M155.029,125.773c-2.255,0-3.642-1.387-3.642-3.642c0-2.255,1.388-3.642,3.642-3.642h71.314
		c2.255,0,3.469,1.387,3.469,3.642c0,2.255-1.214,3.642-3.469,3.642H155.029z"/>
</g>
<g>
	<path fill="#F9F9F9" d="M254.54,333.898c0,2.255-1.388,3.642-3.642,3.642s-3.642-1.387-3.642-3.642v-22.364
		c0-2.255,1.388-3.469,3.642-3.469s3.642,1.214,3.642,3.469V333.898z"/>
	<path fill="#EA5F69" d="M277.406,333.898c0,2.255-1.388,3.642-3.642,3.642s-3.642-1.387-3.642-3.642v-71.314
		c0-2.255,1.388-3.469,3.642-3.469s3.642,1.214,3.642,3.469V333.898z"/>
	<path fill="#E53946" d="M273.764,266.399c-2.255,0-3.642-1.387-3.642-3.642c0-2.255,1.388-3.642,3.642-3.642h24.137
		c2.255,0,3.469,1.387,3.469,3.642c0,2.255-1.214,3.642-3.469,3.642H273.764z"/>
	<path fill="#F9F9F9" d="M301.543,333.898c0,2.255-1.387,3.642-3.642,3.642c-2.255,0-3.642-1.387-3.642-3.642v-71.314
		c0-2.255,1.388-3.469,3.642-3.469c2.255,0,3.642,1.214,3.642,3.469V333.898z"/>
	<path fill="#467C9D" d="M273.764,294.215c-2.255,0-3.642-1.388-3.642-3.642c0-2.255,1.388-3.642,3.642-3.642h48.448
		c2.255,0,3.469,1.387,3.469,3.642c0,2.255-1.214,3.642-3.469,3.642H273.764z"/>
	<path fill="#DBE5D8" d="M250.898,315.349c-2.255,0-3.642-1.387-3.642-3.642c0-2.255,1.388-3.642,3.642-3.642h71.314
		c2.255,0,3.469,1.388,3.469,3.642c0,2.255-1.214,3.642-3.469,3.642H250.898z"/>
	<path fill="#EA5F69" d="M325.681,333.898c0,2.255-1.388,3.642-3.642,3.642c-2.255,0-3.642-1.387-3.642-3.642V290.4
		c0-2.255,1.388-3.469,3.642-3.469c2.255,0,3.642,1.214,3.642,3.469V333.898z"/>
	<path fill="#A8D9DB" d="M250.898,337.54c-2.255,0-3.642-1.387-3.642-3.642c0-2.255,1.388-3.642,3.642-3.642h71.314
		c2.255,0,3.469,1.387,3.469,3.642c0,2.255-1.214,3.642-3.469,3.642H250.898z"/>
</g>
<g>
	<path fill="#F9F9F9" d="M524.347,333.898c0,2.255-1.388,3.642-3.642,3.642c-2.255,0-3.642-1.387-3.642-3.642v-22.364
		c0-2.255,1.388-3.469,3.642-3.469c2.255,0,3.642,1.214,3.642,3.469V333.898z"/>
	<path fill="#EA5F69" d="M547.213,333.898c0,2.255-1.388,3.642-3.642,3.642c-2.255,0-3.642-1.387-3.642-3.642v-71.314
		c0-2.255,1.388-3.469,3.642-3.469c2.255,0,3.642,1.214,3.642,3.469V333.898z"/>
	<path fill="#E53946" d="M543.571,266.399c-2.255,0-3.642-1.387-3.642-3.642c0-2.255,1.388-3.642,3.642-3.642h24.137
		c2.255,0,3.469,1.387,3.469,3.642c0,2.255-1.214,3.642-3.469,3.642H543.571z"/>
	<path fill="#F9F9F9" d="M571.35,333.898c0,2.255-1.387,3.642-3.642,3.642c-2.255,0-3.642-1.387-3.642-3.642v-71.314
		c0-2.255,1.388-3.469,3.642-3.469c2.255,0,3.642,1.214,3.642,3.469V333.898z"/>
	<path fill="#467C9D" d="M543.571,294.215c-2.255,0-3.642-1.388-3.642-3.642c0-2.255,1.388-3.642,3.642-3.642h48.448
		c2.255,0,3.469,1.387,3.469,3.642c0,2.255-1.214,3.642-3.469,3.642H543.571z"/>
	<path fill="#DBE5D8" d="M520.705,315.349c-2.255,0-3.642-1.387-3.642-3.642c0-2.255,1.388-3.642,3.642-3.642h71.314
		c2.255,0,3.469,1.388,3.469,3.642c0,2.255-1.214,3.642-3.469,3.642H520.705z"/>
	<path fill="#EA5F69" d="M595.488,333.898c0,2.255-1.388,3.642-3.642,3.642s-3.642-1.387-3.642-3.642V290.4
		c0-2.255,1.388-3.469,3.642-3.469s3.642,1.214,3.642,3.469V333.898z"/>
	<path fill="#A8D9DB" d="M520.705,337.54c-2.255,0-3.642-1.387-3.642-3.642c0-2.255,1.388-3.642,3.642-3.642h71.314
		c2.255,0,3.469,1.387,3.469,3.642c0,2.255-1.214,3.642-3.469,3.642H520.705z"/>
</g>
<g>
	<path fill="#F9F9F9" d="M619.587,333.898c0,2.255-1.388,3.642-3.642,3.642c-2.255,0-3.642-1.387-3.642-3.642v-22.364
		c0-2.255,1.388-3.469,3.642-3.469c2.255,0,3.642,1.214,3.642,3.469V333.898z"/>
	<path fill="#EA5F69" d="M642.453,333.898c0,2.255-1.388,3.642-3.642,3.642c-2.255,0-3.642-1.387-3.642-3.642v-71.314
		c0-2.255,1.388-3.469,3.642-3.469c2.255,0,3.642,1.214,3.642,3.469V333.898z"/>
	<path fill="#E53946" d="M638.811,266.399c-2.255,0-3.642-1.387-3.642-3.642c0-2.255,1.388-3.642,3.642-3.642h24.137
		c2.255,0,3.469,1.387,3.469,3.642c0,2.255-1.214,3.642-3.469,3.642H638.811z"/>
	<path fill="#F9F9F9" d="M666.59,333.898c0,2.255-1.387,3.642-3.642,3.642c-2.255,0-3.642-1.387-3.642-3.642v-71.314
		c0-2.255,1.388-3.469,3.642-3.469c2.255,0,3.642,1.214,3.642,3.469V333.898z"/>
	<path fill="#467C9D" d="M638.811,294.215c-2.255,0-3.642-1.388-3.642-3.642c0-2.255,1.388-3.642,3.642-3.642h48.448
		c2.255,0,3.469,1.387,3.469,3.642c0,2.255-1.214,3.642-3.469,3.642H638.811z"/>
	<path fill="#DBE5D8" d="M615.945,315.349c-2.255,0-3.642-1.387-3.642-3.642c0-2.255,1.388-3.642,3.642-3.642h71.314
		c2.255,0,3.469,1.388,3.469,3.642c0,2.255-1.214,3.642-3.469,3.642H615.945z"/>
	<path fill="#EA5F69" d="M690.728,333.898c0,2.255-1.388,3.642-3.642,3.642s-3.642-1.387-3.642-3.642V290.4
		c0-2.255,1.388-3.469,3.642-3.469s3.642,1.214,3.642,3.469V333.898z"/>
	<path fill="#A8D9DB" d="M615.945,337.54c-2.255,0-3.642-1.387-3.642-3.642c0-2.255,1.388-3.642,3.642-3.642h71.314
		c2.255,0,3.469,1.387,3.469,3.642c0,2.255-1.214,3.642-3.469,3.642H615.945z"/>
</g>
<g>
	<path fill="#F9F9F9" d="M697.871,228.015c0,2.255-1.388,3.642-3.642,3.642c-2.255,0-3.642-1.387-3.642-3.642V205.65
		c0-2.255,1.388-3.469,3.642-3.469c2.255,0,3.642,1.214,3.642,3.469V228.015z"/>
	<path fill="#EA5F69" d="M720.737,228.015c0,2.255-1.388,3.642-3.642,3.642c-2.255,0-3.642-1.387-3.642-3.642V156.7
		c0-2.255,1.388-3.469,3.642-3.469c2.255,0,3.642,1.214,3.642,3.469V228.015z"/>
	<path fill="#E53946" d="M717.095,160.516c-2.255,0-3.642-1.387-3.642-3.642c0-2.255,1.388-3.642,3.642-3.642h24.137
		c2.255,0,3.469,1.387,3.469,3.642c0,2.255-1.214,3.642-3.469,3.642H717.095z"/>
	<path fill="#F9F9F9" d="M744.874,228.015c0,2.255-1.387,3.642-3.642,3.642c-2.255,0-3.642-1.387-3.642-3.642V156.7
		c0-2.255,1.388-3.469,3.642-3.469c2.255,0,3.642,1.214,3.642,3.469V228.015z"/>
	<path fill="#467C9D" d="M717.095,188.332c-2.255,0-3.642-1.388-3.642-3.642c0-2.255,1.388-3.642,3.642-3.642h48.448
		c2.255,0,3.469,1.387,3.469,3.642c0,2.255-1.214,3.642-3.469,3.642H717.095z"/>
	<path fill="#DBE5D8" d="M694.229,209.466c-2.255,0-3.642-1.387-3.642-3.642c0-2.255,1.388-3.642,3.642-3.642h71.314
		c2.255,0,3.469,1.388,3.469,3.642c0,2.255-1.214,3.642-3.469,3.642H694.229z"/>
	<path fill="#EA5F69" d="M769.011,228.015c0,2.255-1.388,3.642-3.642,3.642s-3.642-1.387-3.642-3.642v-43.498
		c0-2.255,1.388-3.469,3.642-3.469s3.642,1.214,3.642,3.469V228.015z"/>
	<path fill="#A8D9DB" d="M694.229,231.656c-2.255,0-3.642-1.387-3.642-3.642c0-2.255,1.388-3.642,3.642-3.642h71.314
		c2.255,0,3.469,1.387,3.469,3.642c0,2.255-1.214,3.642-3.469,3.642H694.229z"/>
</g>
<g>
	<path fill="#E53946" d="M66.896,331.592l28.394-28.394c1.594-1.594,3.556-1.594,5.151,0c1.594,1.594,1.594,3.556,0,5.151
		l-28.394,28.394c-1.594,1.594-3.434,1.472-5.028-0.123C65.424,335.026,65.301,333.187,66.896,331.592z"/>
	<path fill="#A8D9DB" d="M100.44,301.95c1.594,1.594,1.594,3.556,0,5.151c-1.594,1.594-3.556,1.594-5.151,0l-28.394-28.394
		c-1.594-1.594-1.471-3.434,0.123-5.028c1.594-1.594,3.434-1.717,5.028-0.123L100.44,301.95z"/>
	<path fill="#F9F9F9" d="M136.279,301.95c1.594,1.594,1.594,3.556,0,5.151c-1.594,1.594-3.556,1.594-5.151,0l-28.394-28.394
		c-1.594-1.594-1.471-3.434,0.123-5.028c1.594-1.594,3.434-1.717,5.028-0.123L136.279,301.95z"/>
	<path fill="#DBE5D8" d="M102.735,331.592l28.394-28.394c1.594-1.594,3.557-1.594,5.151,0c1.594,1.594,1.594,3.556,0,5.151
		l-28.394,28.394c-1.594,1.594-3.434,1.472-5.028-0.123C101.263,335.026,101.141,333.187,102.735,331.592z"/>
</g>
<g>
	<path fill="#E53946" d="M66.896,225.709l28.394-28.394c1.594-1.594,3.556-1.594,5.151,0c1.594,1.594,1.594,3.556,0,5.151
		L72.046,230.86c-1.594,1.594-3.434,1.472-5.028-0.123C65.424,229.143,65.301,227.303,66.896,225.709z"/>
	<path fill="#A8D9DB" d="M100.44,196.067c1.594,1.594,1.594,3.556,0,5.151c-1.594,1.594-3.556,1.594-5.151,0l-28.394-28.394
		c-1.594-1.594-1.471-3.434,0.123-5.028c1.594-1.594,3.434-1.717,5.028-0.123L100.44,196.067z"/>
	<path fill="#F9F9F9" d="M136.279,196.067c1.594,1.594,1.594,3.556,0,5.151c-1.594,1.594-3.556,1.594-5.151,0l-28.394-28.394
		c-1.594-1.594-1.471-3.434,0.123-5.028c1.594-1.594,3.434-1.717,5.028-0.123L136.279,196.067z"/>
	<path fill="#DBE5D8" d="M102.735,225.709l28.394-28.394c1.594-1.594,3.557-1.594,5.151,0c1.594,1.594,1.594,3.556,0,5.151
		l-28.394,28.394c-1.594,1.594-3.434,1.472-5.028-0.123C101.263,229.143,101.141,227.303,102.735,225.709z"/>
</g>
<g>
	<path fill="#E53946" d="M429.639,119.826l28.394-28.394c1.594-1.594,3.556-1.594,5.151,0c1.594,1.594,1.594,3.556,0,5.151
		l-28.394,28.394c-1.594,1.594-3.434,1.472-5.028-0.123C428.167,123.259,428.044,121.42,429.639,119.826z"/>
	<path fill="#A8D9DB" d="M463.183,90.183c1.594,1.594,1.594,3.556,0,5.151c-1.594,1.594-3.556,1.594-5.151,0L429.639,66.94
		c-1.594-1.594-1.471-3.434,0.123-5.028c1.594-1.594,3.434-1.717,5.028-0.123L463.183,90.183z"/>
	<path fill="#F9F9F9" d="M499.022,90.183c1.594,1.594,1.594,3.556,0,5.151c-1.594,1.594-3.556,1.594-5.151,0L465.478,66.94
		c-1.594-1.594-1.471-3.434,0.123-5.028c1.594-1.594,3.434-1.717,5.028-0.123L499.022,90.183z"/>
	<path fill="#DBE5D8" d="M465.478,119.826l28.394-28.394c1.594-1.594,3.557-1.594,5.151,0c1.594,1.594,1.594,3.556,0,5.151
		l-28.394,28.394c-1.594,1.594-3.434,1.472-5.028-0.123C464.006,123.259,463.884,121.42,465.478,119.826z"/>
</g>
<g>
	<path fill="#E53946" d="M791.038,119.826l28.394-28.394c1.594-1.594,3.556-1.594,5.151,0c1.594,1.594,1.594,3.556,0,5.151
		l-28.394,28.394c-1.594,1.594-3.434,1.472-5.028-0.123C789.566,123.26,789.444,121.42,791.038,119.826z"/>
	<path fill="#A8D9DB" d="M824.582,90.183c1.594,1.594,1.594,3.556,0,5.151c-1.594,1.594-3.556,1.594-5.151,0l-28.394-28.394
		c-1.594-1.594-1.471-3.434,0.123-5.028c1.594-1.594,3.434-1.717,5.028-0.123L824.582,90.183z"/>
	<path fill="#F9F9F9" d="M860.422,90.183c1.594,1.594,1.594,3.556,0,5.151c-1.594,1.594-3.556,1.594-5.151,0l-28.394-28.394
		c-1.594-1.594-1.471-3.434,0.123-5.028c1.594-1.594,3.434-1.717,5.028-0.123L860.422,90.183z"/>
	<path fill="#DBE5D8" d="M826.877,119.826l28.394-28.394c1.594-1.594,3.557-1.594,5.151,0c1.594,1.594,1.594,3.556,0,5.151
		l-28.394,28.394c-1.594,1.594-3.434,1.472-5.028-0.123C825.406,123.26,825.283,121.42,826.877,119.826z"/>
</g>
<g>
	<path fill="#E53946" d="M787.702,226.265l28.394-28.394c1.594-1.594,3.556-1.594,5.151,0c1.594,1.594,1.594,3.556,0,5.151
		l-28.394,28.394c-1.594,1.594-3.434,1.472-5.028-0.123C786.231,229.699,786.108,227.859,787.702,226.265z"/>
	<path fill="#A8D9DB" d="M821.247,196.623c1.594,1.594,1.594,3.556,0,5.151c-1.594,1.594-3.556,1.594-5.151,0l-28.394-28.394
		c-1.594-1.594-1.471-3.434,0.123-5.028c1.594-1.594,3.434-1.717,5.028-0.123L821.247,196.623z"/>
	<path fill="#F9F9F9" d="M857.086,196.623c1.594,1.594,1.594,3.556,0,5.151c-1.594,1.594-3.556,1.594-5.151,0l-28.394-28.394
		c-1.594-1.594-1.471-3.434,0.123-5.028c1.594-1.594,3.434-1.717,5.028-0.123L857.086,196.623z"/>
	<path fill="#DBE5D8" d="M823.542,226.265l28.394-28.394c1.594-1.594,3.557-1.594,5.151,0c1.594,1.594,1.594,3.556,0,5.151
		l-28.394,28.394c-1.594,1.594-3.434,1.472-5.028-0.123C822.07,229.699,821.947,227.859,823.542,226.265z"/>
</g>
<g>
	<path fill="#E53946" d="M434.826,331.796l28.394-28.394c1.594-1.594,3.556-1.594,5.151,0c1.594,1.594,1.594,3.556,0,5.151
		l-28.394,28.394c-1.594,1.594-3.434,1.472-5.028-0.123C433.354,335.23,433.232,333.39,434.826,331.796z"/>
	<path fill="#A8D9DB" d="M468.37,302.154c1.594,1.594,1.594,3.556,0,5.151c-1.594,1.594-3.556,1.594-5.151,0l-28.394-28.394
		c-1.594-1.594-1.471-3.434,0.123-5.028c1.594-1.594,3.434-1.717,5.028-0.123L468.37,302.154z"/>
	<path fill="#F9F9F9" d="M504.21,302.154c1.594,1.594,1.594,3.556,0,5.151c-1.594,1.594-3.556,1.594-5.151,0l-28.394-28.394
		c-1.594-1.594-1.471-3.434,0.123-5.028c1.594-1.594,3.434-1.717,5.028-0.123L504.21,302.154z"/>
	<path fill="#DBE5D8" d="M470.665,331.796l28.394-28.394c1.594-1.594,3.557-1.594,5.151,0c1.594,1.594,1.594,3.556,0,5.151
		l-28.394,28.394c-1.594,1.594-3.434,1.472-5.028-0.123C469.194,335.23,469.071,333.39,470.665,331.796z"/>
</g>
<g>
	<path fill="#EA5F69" d="M919.695,99.747c-4.884,0-8.807-4.083-8.807-8.887c0-4.804,3.923-8.887,8.807-8.887
		c4.804,0,8.887,4.083,8.887,8.887C928.581,95.664,924.498,99.747,919.695,99.747z"/>
	<path fill="#DBE5D8" d="M884.453,117.75h70.725c2.236,0,3.612,1.376,3.612,3.612s-1.376,3.612-3.612,3.612h-70.725
		c-2.236,0-3.44-1.376-3.44-3.612S882.217,117.75,884.453,117.75z"/>
	<path fill="#F9F9F9" d="M921.244,45.677l35.091,35.091c1.581,1.581,1.581,3.527,0,5.108c-1.581,1.581-3.527,1.581-5.108,0
		l-35.091-35.091c-1.581-1.581-1.459-3.405,0.122-4.987C917.839,44.218,919.663,44.096,921.244,45.677z"/>
	<path fill="#E53946" d="M920.729,45.799c1.581,1.581,1.703,3.405,0.122,4.987L885.76,85.876c-1.581,1.581-3.527,1.581-5.108,0
		c-1.581-1.581-1.581-3.527,0-5.108l35.091-35.091C917.324,44.096,919.148,44.218,920.729,45.799z"/>
</g>
<g>
	<path fill="#EA5F69" d="M915.548,205.688c-4.884,0-8.807-4.083-8.807-8.887c0-4.804,3.923-8.887,8.807-8.887
		c4.804,0,8.887,4.083,8.887,8.887C924.435,201.605,920.352,205.688,915.548,205.688z"/>
	<path fill="#DBE5D8" d="M880.306,223.691h70.725c2.236,0,3.612,1.376,3.612,3.612c0,2.236-1.376,3.612-3.612,3.612h-70.725
		c-2.236,0-3.44-1.376-3.44-3.612C876.866,225.067,878.07,223.691,880.306,223.691z"/>
	<path fill="#F9F9F9" d="M917.098,151.618l35.091,35.091c1.581,1.581,1.581,3.527,0,5.108c-1.581,1.581-3.527,1.581-5.108,0
		l-35.091-35.091c-1.581-1.581-1.459-3.405,0.122-4.987C913.692,150.159,915.516,150.037,917.098,151.618z"/>
	<path fill="#E53946" d="M916.583,151.74c1.581,1.581,1.703,3.405,0.122,4.987l-35.091,35.091c-1.581,1.581-3.527,1.581-5.108,0
		c-1.581-1.581-1.581-3.527,0-5.108l35.091-35.091C913.177,150.037,915.001,150.159,916.583,151.74z"/>
</g>
<g>
	<path fill="#EA5F69" d="M915.548,311.237c-4.884,0-8.807-4.083-8.807-8.887c0-4.804,3.923-8.887,8.807-8.887
		c4.804,0,8.887,4.083,8.887,8.887C924.435,307.154,920.352,311.237,915.548,311.237z"/>
	<path fill="#DBE5D8" d="M880.306,329.24h70.725c2.236,0,3.612,1.376,3.612,3.612s-1.376,3.612-3.612,3.612h-70.725
		c-2.236,0-3.44-1.376-3.44-3.612S878.07,329.24,880.306,329.24z"/>
	<path fill="#F9F9F9" d="M917.098,257.167l35.091,35.091c1.581,1.581,1.581,3.527,0,5.108s-3.527,1.581-5.108,0l-35.091-35.091
		c-1.581-1.581-1.459-3.405,0.122-4.987S915.516,255.585,917.098,257.167z"/>
	<path fill="#E53946" d="M916.583,257.288c1.581,1.581,1.703,3.405,0.122,4.987l-35.091,35.091c-1.581,1.581-3.527,1.581-5.108,0
		s-1.581-3.527,0-5.108l35.091-35.091C913.177,255.585,915.001,255.707,916.583,257.288z"/>
</g>
<g>
	<path fill="#EA5F69" d="M378.016,311.237c-4.884,0-8.807-4.083-8.807-8.887c0-4.804,3.923-8.887,8.807-8.887
		c4.804,0,8.887,4.083,8.887,8.887C386.903,307.154,382.82,311.237,378.016,311.237z"/>
	<path fill="#DBE5D8" d="M342.774,329.24H413.5c2.236,0,3.612,1.376,3.612,3.612s-1.376,3.612-3.612,3.612h-70.725
		c-2.236,0-3.44-1.376-3.44-3.612S340.538,329.24,342.774,329.24z"/>
	<path fill="#F9F9F9" d="M379.566,257.167l35.091,35.091c1.581,1.581,1.581,3.527,0,5.108c-1.581,1.581-3.527,1.581-5.108,0
		l-35.091-35.091c-1.581-1.581-1.46-3.405,0.122-4.987S377.985,255.585,379.566,257.167z"/>
	<path fill="#E53946" d="M379.051,257.288c1.581,1.581,1.703,3.405,0.122,4.987l-35.091,35.091c-1.581,1.581-3.527,1.581-5.108,0
		s-1.581-3.527,0-5.108l35.091-35.091C375.645,255.585,377.47,255.707,379.051,257.288z"/>
</g>
<g>
	<g>
		<path fill="#F9F9F9" d="M302.639,53.682l26.026,42.18c1.173,1.901,0.725,3.792-1.176,4.964c-1.901,1.173-3.792,0.725-4.964-1.176
			l-26.026-42.18c-1.173-1.901-0.635-3.646,1.266-4.818C299.665,51.48,301.466,51.782,302.639,53.682z"/>
		<path fill="#E53946" d="M302.11,53.682c1.173,1.901,0.871,3.702-1.03,4.874l-42.18,26.026c-1.901,1.173-3.792,0.725-4.964-1.176
			c-1.173-1.901-0.725-3.792,1.176-4.964l42.18-26.026C299.193,51.243,300.938,51.782,302.11,53.682z"/>
		<path fill="#A8D9DB" d="M279.677,126.79l-26.026-42.18c-1.173-1.901-0.725-3.792,1.176-4.964c1.901-1.173,3.792-0.725,4.964,1.176
			l26.026,42.18c1.173,1.901,0.635,3.646-1.266,4.818S280.85,128.69,279.677,126.79z"/>
		<path fill="#DBE5D8" d="M280.206,126.79c-1.173-1.901-0.871-3.702,1.03-4.874l42.18-26.026c1.901-1.173,3.792-0.725,4.964,1.176
			s0.725,3.792-1.176,4.964l-42.18,26.026C283.123,129.229,281.378,128.691,280.206,126.79z"/>
	</g>
	<path fill="#EA5F69" d="M311.884,96.044v28.614c0,2.233-1.374,3.607-3.607,3.607s-3.607-1.374-3.607-3.607V96.044
		c0-2.233,1.374-3.436,3.607-3.436S311.884,93.811,311.884,96.044z"/>
</g>
<g>
	<g>
		<path fill="#F9F9F9" d="M655.829,53.682l26.026,42.18c1.173,1.901,0.725,3.792-1.176,4.964c-1.901,1.173-3.792,0.725-4.964-1.176
			l-26.026-42.18c-1.173-1.901-0.635-3.646,1.266-4.818C652.855,51.48,654.656,51.782,655.829,53.682z"/>
		<path fill="#E53946" d="M655.301,53.682c1.173,1.901,0.871,3.702-1.03,4.874l-42.18,26.026c-1.901,1.173-3.792,0.725-4.964-1.176
			c-1.173-1.901-0.725-3.792,1.176-4.964l42.18-26.026C652.383,51.243,654.128,51.782,655.301,53.682z"/>
		<path fill="#A8D9DB" d="M632.867,126.79l-26.026-42.18c-1.173-1.901-0.725-3.792,1.176-4.964c1.901-1.173,3.792-0.725,4.964,1.176
			l26.026,42.18c1.173,1.901,0.635,3.646-1.266,4.818S634.04,128.69,632.867,126.79z"/>
		<path fill="#DBE5D8" d="M633.396,126.79c-1.173-1.901-0.871-3.702,1.03-4.874l42.18-26.026c1.901-1.173,3.792-0.725,4.964,1.176
			s0.725,3.792-1.176,4.964l-42.18,26.026C636.313,129.229,634.568,128.691,633.396,126.79z"/>
	</g>
	<path fill="#EA5F69" d="M665.074,96.044v28.614c0,2.233-1.374,3.607-3.607,3.607s-3.607-1.374-3.607-3.607V96.044
		c0-2.233,1.374-3.436,3.607-3.436S665.074,93.811,665.074,96.044z"/>
</g>
<g>
	<path fill="#EA5F69" d="M284.917,205.818c-5.602,0-10.102-4.684-10.102-10.194s4.5-10.194,10.102-10.194
		c5.51,0,10.194,4.684,10.194,10.194S290.427,205.818,284.917,205.818z"/>
	<path fill="#DBE5D8" d="M288.571,160.671v11.081c0,2.234-1.375,3.609-3.609,3.609s-3.609-1.375-3.609-3.609v-11.081
		c0-2.234,1.375-3.437,3.609-3.437S288.571,158.436,288.571,160.671z"/>
	<path fill="#F9F9F9" d="M312.23,173.46l-7.836,7.836c-1.58,1.58-3.524,1.58-5.104,0c-1.58-1.58-1.58-3.524,0-5.104l7.836-7.836
		c1.58-1.58,3.402-1.458,4.982,0.122S313.81,171.88,312.23,173.46z"/>
	<path fill="#467C9D" d="M319.916,199.233h-11.081c-2.234,0-3.609-1.375-3.609-3.609s1.375-3.609,3.609-3.609h11.081
		c2.234,0,3.437,1.375,3.437,3.609S322.15,199.233,319.916,199.233z"/>
	<path fill="#E53946" d="M307.127,222.892l-7.836-7.836c-1.58-1.58-1.58-3.524,0-5.104c1.58-1.58,3.524-1.58,5.104,0l7.836,7.836
		c1.58,1.58,1.458,3.402-0.122,4.982S308.706,224.472,307.127,222.892z"/>
	<path fill="#DBE5D8" d="M281.354,230.578v-11.081c0-2.234,1.375-3.609,3.609-3.609s3.609,1.375,3.609,3.609v11.081
		c0,2.234-1.375,3.437-3.609,3.437S281.354,232.812,281.354,230.578z"/>
	<path fill="#F9F9F9" d="M257.695,217.788l7.836-7.836c1.58-1.58,3.524-1.58,5.104,0s1.58,3.524,0,5.104l-7.836,7.836
		c-1.58,1.58-3.402,1.458-4.982-0.122S256.115,219.368,257.695,217.788z"/>
	<path fill="#467C9D" d="M250.009,192.015h11.081c2.234,0,3.609,1.375,3.609,3.609s-1.375,3.609-3.609,3.609h-11.081
		c-2.234,0-3.437-1.375-3.437-3.609S247.775,192.015,250.009,192.015z"/>
	<path fill="#A8D9DB" d="M262.798,168.356l7.836,7.836c1.58,1.58,1.58,3.524,0,5.104s-3.524,1.58-5.104,0l-7.836-7.836
		c-1.58-1.58-1.458-3.402,0.121-4.982S261.219,166.777,262.798,168.356z"/>
</g>
<g>
	<path fill="#EA5F69" d="M550.06,99.935c-5.602,0-10.102-4.684-10.102-10.194s4.5-10.194,10.102-10.194
		c5.51,0,10.194,4.684,10.194,10.194S555.571,99.935,550.06,99.935z"/>
	<path fill="#DBE5D8" d="M553.715,54.787v11.081c0,2.234-1.375,3.609-3.609,3.609s-3.609-1.375-3.609-3.609V54.787
		c0-2.234,1.375-3.437,3.609-3.437S553.715,52.553,553.715,54.787z"/>
	<path fill="#F9F9F9" d="M577.374,67.577l-7.836,7.836c-1.58,1.58-3.524,1.58-5.104,0c-1.58-1.58-1.58-3.524,0-5.104l7.836-7.836
		c1.58-1.58,3.402-1.458,4.982,0.122C578.832,64.174,578.954,65.997,577.374,67.577z"/>
	<path fill="#467C9D" d="M585.06,93.35h-11.081c-2.234,0-3.609-1.375-3.609-3.609s1.375-3.609,3.609-3.609h11.081
		c2.234,0,3.437,1.375,3.437,3.609S587.294,93.35,585.06,93.35z"/>
	<path fill="#E53946" d="M572.271,117.009l-7.836-7.836c-1.58-1.58-1.58-3.524,0-5.104c1.58-1.58,3.524-1.58,5.104,0l7.836,7.836
		c1.58,1.58,1.458,3.402-0.121,4.982C575.673,118.467,573.85,118.589,572.271,117.009z"/>
	<path fill="#DBE5D8" d="M546.498,124.695v-11.081c0-2.234,1.375-3.609,3.609-3.609s3.609,1.375,3.609,3.609v11.081
		c0,2.234-1.375,3.437-3.609,3.437S546.498,126.929,546.498,124.695z"/>
	<path fill="#F9F9F9" d="M522.839,111.905l7.836-7.836c1.58-1.58,3.524-1.58,5.104,0c1.58,1.58,1.58,3.524,0,5.104l-7.836,7.836
		c-1.58,1.58-3.402,1.458-4.982-0.122C521.38,115.308,521.259,113.485,522.839,111.905z"/>
	<path fill="#467C9D" d="M515.153,86.132h11.081c2.234,0,3.609,1.375,3.609,3.609s-1.375,3.609-3.609,3.609h-11.081
		c-2.234,0-3.437-1.375-3.437-3.609S512.919,86.132,515.153,86.132z"/>
	<path fill="#A8D9DB" d="M527.942,62.473l7.836,7.836c1.58,1.58,1.58,3.524,0,5.104c-1.58,1.58-3.524,1.58-5.104,0l-7.836-7.836
		c-1.58-1.58-1.458-3.402,0.122-4.982C524.54,61.015,526.362,60.894,527.942,62.473z"/>
</g>
<g>
	<path fill="#EA5F69" d="M733.724,99.935c-5.602,0-10.102-4.684-10.102-10.194s4.5-10.194,10.102-10.194
		c5.51,0,10.194,4.684,10.194,10.194S739.235,99.935,733.724,99.935z"/>
	<path fill="#DBE5D8" d="M737.379,54.787v11.081c0,2.234-1.375,3.609-3.609,3.609s-3.609-1.375-3.609-3.609V54.787
		c0-2.234,1.375-3.437,3.609-3.437S737.379,52.553,737.379,54.787z"/>
	<path fill="#F9F9F9" d="M761.038,67.577l-7.836,7.836c-1.58,1.58-3.524,1.58-5.104,0c-1.58-1.58-1.58-3.524,0-5.104l7.836-7.836
		c1.58-1.58,3.402-1.458,4.982,0.122C762.496,64.174,762.618,65.997,761.038,67.577z"/>
	<path fill="#467C9D" d="M768.724,93.35h-11.081c-2.234,0-3.609-1.375-3.609-3.609s1.375-3.609,3.609-3.609h11.081
		c2.234,0,3.437,1.375,3.437,3.609S770.958,93.35,768.724,93.35z"/>
	<path fill="#E53946" d="M755.935,117.009l-7.836-7.836c-1.58-1.58-1.58-3.524,0-5.104c1.58-1.58,3.524-1.58,5.104,0l7.836,7.836
		c1.58,1.58,1.458,3.402-0.122,4.982C759.337,118.467,757.514,118.589,755.935,117.009z"/>
	<path fill="#DBE5D8" d="M730.162,124.695v-11.081c0-2.234,1.375-3.609,3.609-3.609s3.609,1.375,3.609,3.609v11.081
		c0,2.234-1.375,3.437-3.609,3.437S730.162,126.929,730.162,124.695z"/>
	<path fill="#F9F9F9" d="M706.503,111.905l7.836-7.836c1.58-1.58,3.524-1.58,5.104,0c1.58,1.58,1.58,3.524,0,5.104l-7.836,7.836
		c-1.58,1.58-3.402,1.458-4.982-0.122C705.044,115.308,704.923,113.485,706.503,111.905z"/>
	<path fill="#467C9D" d="M698.817,86.132h11.081c2.234,0,3.609,1.375,3.609,3.609s-1.375,3.609-3.609,3.609h-11.081
		c-2.234,0-3.437-1.375-3.437-3.609S696.583,86.132,698.817,86.132z"/>
	<path fill="#A8D9DB" d="M711.606,62.473l7.836,7.836c1.58,1.58,1.58,3.524,0,5.104c-1.58,1.58-3.524,1.58-5.104,0l-7.836-7.836
		c-1.58-1.58-1.458-3.402,0.122-4.982C708.204,61.015,710.026,60.894,711.606,62.473z"/>
</g>
</svg>
