<?xml version="1.0" encoding="utf-8"?>
<!-- Generator: Adobe Illustrator 18.0.0, SVG Export Plug-In . SVG Version: 6.00 Build 0)  -->
<!DOCTYPE svg PUBLIC "-//W3C//DTD SVG 1.1//EN" "http://www.w3.org/Graphics/SVG/1.1/DTD/svg11.dtd">
<svg version="1.1" id="Layer_1" xmlns="http://www.w3.org/2000/svg" xmlns:xlink="http://www.w3.org/1999/xlink" x="0px" y="0px"
	 viewBox="0 0 44.5 36" enable-background="new 0 0 44.5 36" xml:space="preserve">
<path d="M1,31.1c4.6,0.4,8.8-0.7,12.5-3.6c-1.8-0.1-3.5-0.7-4.9-1.8c-1.5-1.1-2.5-2.5-3.1-4.3c1.3,0.2,2.5,0.2,3.8-0.1
	c-4.3-1.3-6.6-4.1-6.8-8.5c1.2,0.5,2.4,1,3.8,1c-3.8-3.2-4.7-7-2.6-11.6c4.7,5.6,10.7,8.6,17.9,9.1c-0.1-0.5-0.1-1-0.2-1.5
	c-0.1-2.7,0.8-5,2.8-6.8c2.2-2,4.7-2.6,7.6-2.1c1.7,0.3,3.1,1.1,4.3,2.3c0.2,0.2,0.3,0.2,0.6,0.2c1.6-0.4,3.2-0.9,4.7-1.8
	c0.1-0.1,0.2-0.1,0.3-0.2c0,0,0,0,0.1,0c-0.7,2-1.9,3.4-3.6,4.6c0,0,0,0.1,0.1,0.1c0.8-0.2,1.6-0.3,2.3-0.5c0.8-0.2,1.5-0.5,2.4-0.8
	c-0.4,0.6-0.8,1.1-1.2,1.6C41,7.3,40.1,8.2,39,9c-0.1,0.1-0.2,0.3-0.2,0.5c0.1,2.5-0.2,5-0.9,7.4c-0.6,2-1.4,4-2.4,5.8
	c-1.4,2.5-3.2,4.7-5.3,6.5c-1.9,1.6-3.9,2.9-6.2,3.9c-3.8,1.6-7.8,2.1-11.9,1.8c-3.1-0.2-6.1-1-8.9-2.5C2.5,32,1.8,31.6,1,31.2
	C1,31.2,1,31.1,1,31.1z"/>
</svg>
